<svg width="251" height="96" viewBox="0 0 251 96" fill="none" xmlns="http://www.w3.org/2000/svg">
<path d="M47.5875 0C73.8335 0 95.175 21.2752 95.175 47.5875C95.175 73.8335 73.8998 95.175 47.5875 95.175C21.2752 95.1087 0 73.8335 0 47.5875C0 21.2752 21.2752 0 47.5875 0Z" fill="#FEDD00"/>
<path d="M27.9692 63.3616V69.1278H33.7354L39.5016 63.3616H27.9692Z" fill="black"/>
<path d="M55.8059 63.3616L50.0398 69.1278H74.0323V63.3616H55.8059Z" fill="black"/>
<path d="M42.3515 20.1484H36.5854V51.8292H42.3515V20.1484Z" fill="black"/>
<path d="M54.5466 60.5118H74.0323C74.0323 57.6618 71.7126 54.7456 68.2662 54.7456H54.5466C52.956 54.7456 51.5641 55.4084 50.5037 56.4026L36.8505 69.9895C37.1819 69.9895 37.5132 69.9895 37.9109 69.9895C42.6829 69.9895 47.0572 68.0675 50.1723 64.9524L54.5466 60.5118Z" fill="black"/>
<path d="M33.7354 50.1723V20.1484H27.9692V45.5991L29.4936 46.5933C31.0843 47.6537 32.4761 48.8467 33.7354 50.1723Z" fill="black"/>
<path d="M48.1177 54.7454H33.7354C32.211 52.4257 30.289 50.5036 27.9692 48.9792V60.5116H42.3515L48.1177 54.7454Z" fill="black"/>
<path d="M120.361 30.6206H114.396V58.7887H133.881V54.3481H120.361V30.6206Z" fill="black"/>
<path d="M146.076 37.8447C139.912 37.8447 135.14 41.5563 135.14 48.5155C135.14 55.4746 139.979 59.2525 146.076 59.2525C152.24 59.2525 157.078 55.4746 157.078 48.5155C157.078 41.5563 152.24 37.8447 146.076 37.8447ZM146.076 55.077C142.961 55.077 140.907 52.691 140.907 48.5155C140.907 44.34 142.961 42.0202 146.076 42.0202C149.191 42.0202 151.246 44.34 151.246 48.5155C151.246 52.691 149.191 55.077 146.076 55.077Z" fill="black"/>
<path d="M183.126 54.4142V42.1528H187.831V38.3087H183.126V31.8798H182.529L177.359 34.0006V38.3087H173.25H167.219V34.7297L167.55 34.3983H172.587V30.5542H167.484C163.839 30.5542 161.519 32.5425 161.519 36.1215V38.2424H157.344V42.0865H161.519V58.7223H167.285V42.1528H173.317H177.426V53.1549C177.426 56.8002 179.745 58.7223 183.391 58.7223H188.03V54.6793H183.523L183.126 54.4142Z" fill="black"/>
<path d="M203.407 37.9112C199.894 37.9112 198.171 39.5018 197.508 40.2309H197.11V30.6206H191.344V58.7887H195.254L196.447 56.2701H196.845C197.773 57.3969 199.563 59.1864 203.407 59.1864C208.444 59.1864 212.818 55.6736 212.818 48.5819C212.752 41.4239 208.444 37.9112 203.407 37.9112ZM201.882 55.0109C198.9 55.0109 196.779 52.6911 196.779 48.5819C196.779 44.4727 198.833 42.1529 201.882 42.1529C204.865 42.1529 206.986 44.4727 206.986 48.5819C206.986 52.6911 204.865 55.0109 201.882 55.0109Z" fill="black"/>
<path d="M225.676 38.2424C223.157 38.2424 221.766 39.1703 220.97 40.8935H220.573V38.375H215.072V58.8548H220.838V47.8527C220.838 44.2074 222.362 42.6168 225.543 42.6168H227.399H227.797V38.2424H227.399H225.676Z" fill="black"/>
<path d="M245.493 31.2171V30.6206H239.396L237.009 35.5252V36.1217H241.516L245.493 31.2171Z" fill="black"/>
<path d="M244.3 38.3088V49.7749C244.3 53.4865 242.113 54.9446 239.594 54.9446C237.275 54.9446 235.883 53.6853 235.883 51.1667V38.3088H230.117V51.697C230.117 56.5352 233.232 59.1864 237.805 59.1864C241.848 59.1864 243.505 57.2643 244.168 56.2701H244.565V58.7887H250.066V38.3088H244.3Z" fill="black"/>
</svg>
