<svg width="275" height="49" viewBox="0 0 275 49" fill="none" xmlns="http://www.w3.org/2000/svg">
<path d="M253.01 7.95725H248.469V26.1361H253.01V7.95725ZM18.915 38.3224L21.447 43.3497C22.9944 40.1926 24.3609 37.5381 25.5867 35.1652C26.893 32.6516 28.0384 30.4395 29.0633 28.2275L28.6614 27.6644C25.8882 29.4743 22.4317 32.1488 18.915 38.3224ZM4.32544 9.26436C5.89291 7.67572 7.46038 5.12183 8.00296 1.03963H0.205811L4.32544 9.26436ZM10.9771 14.4526C14.2728 10.9334 16.202 6.26807 16.6441 1.03963H12.0422C11.6202 5.08162 10.1331 8.64097 7.64124 11.3155C7.15894 11.8384 6.63645 12.321 6.07377 12.7433L8.16373 16.9059C9.16852 16.2021 10.113 15.3776 10.9771 14.4526ZM25.2853 1.03963H20.7035C20.3016 8.43988 17.8499 13.3868 9.99244 20.5457L12.1427 24.8089C21.3666 16.6646 24.8231 10.6117 25.2853 1.03963ZM33.1227 1.03963H28.6413C28.3801 4.67943 28.0987 8.41977 26.7523 11.4764L27.1341 11.9992C30.4499 9.28447 32.1581 5.52402 33.1227 1.03963ZM41.2212 4.03593C41.6433 2.95002 42.0251 1.96466 42.3667 1.03963H37.4633C37.3026 1.46193 37.1418 1.88423 36.9609 2.34674C32.3188 14.0705 29.7667 15.9206 22.9743 20.8272C19.5379 23.3208 16.6642 26.116 14.3331 29.1927L16.6843 33.8581C18.915 30.3591 21.9092 27.2421 25.647 24.5274C33.0624 19.1783 36.2777 16.5037 41.2212 4.03593ZM47.3304 48.3369L71.0835 1.03963H47.6921L23.9389 48.3369H47.3304ZM100.765 26.1361L109.687 1.48204V0.959194H104.724L98.0319 20.8876H97.6903L91.0185 0.959194H86.0549V1.48204L94.9573 26.1361H100.765ZM113.425 15.1162C113.566 13.8493 114.028 12.8639 114.792 12.1199C115.555 11.3758 116.681 11.0139 118.188 11.0139C119.615 11.0139 120.68 11.396 121.423 12.14C122.167 12.884 122.549 13.8694 122.589 15.1162H113.425ZM113.425 18.3337H127.03V16.3831C127.03 14.5933 126.648 13.0248 125.885 11.6976C125.121 10.3704 124.076 9.3448 122.73 8.66108C121.383 7.95725 119.876 7.61539 118.168 7.61539C116.379 7.61539 114.772 7.97736 113.345 8.72141C111.918 9.46546 110.813 10.5313 110.009 11.959C109.205 13.3868 108.803 15.076 108.803 17.0668C108.803 19.0777 109.205 20.787 109.989 22.2148C110.773 23.6426 111.878 24.7285 113.305 25.4725C114.732 26.2166 116.379 26.5986 118.268 26.5986C119.997 26.5986 121.464 26.297 122.689 25.6937C123.915 25.0904 124.86 24.3263 125.523 23.4415C126.186 22.5365 126.628 21.6517 126.829 20.7669V20.2441H122.488C121.946 22.1545 120.539 23.1197 118.228 23.1197C116.761 23.1197 115.596 22.6974 114.752 21.8327C113.908 20.9077 113.465 19.7614 113.425 18.3337ZM143.649 16.6847C143.649 18.4745 143.207 19.862 142.323 20.8272C141.439 21.7925 140.233 22.2751 138.686 22.2751C137.138 22.2751 135.933 21.7925 135.048 20.8272C134.164 19.862 133.722 18.4745 133.722 16.6847C133.722 14.895 134.164 13.5074 135.048 12.5422C135.933 11.5769 137.138 11.0943 138.686 11.0943C140.233 11.0943 141.439 11.5769 142.323 12.5422C143.207 13.5074 143.649 14.895 143.649 16.6847ZM145.478 31.445C147.045 30.0373 147.829 27.9862 147.829 25.2513V7.93715H144.272L143.569 9.86764H143.227C142.042 8.35944 140.253 7.59528 137.842 7.59528C136.113 7.59528 134.606 7.95725 133.28 8.7013C131.954 9.44535 130.929 10.491 130.205 11.8585C129.462 13.2259 129.1 14.8347 129.1 16.7048C129.1 18.575 129.462 20.1837 130.205 21.5512C130.949 22.9186 131.974 23.9643 133.28 24.7084C134.586 25.4524 136.113 25.8144 137.842 25.8144C140.133 25.8144 141.861 25.1307 143.046 23.7431H143.428V25.6334C143.428 27.0611 143.006 28.1672 142.182 28.9514C141.358 29.7357 140.133 30.1379 138.485 30.1379C136.998 30.1379 135.872 29.8362 135.089 29.233C134.325 28.6297 133.802 27.8856 133.541 27.0209H129.06V27.5438C129.261 28.4688 129.723 29.3938 130.426 30.3189C131.13 31.2439 132.134 32.0081 133.461 32.6314C134.787 33.2548 136.435 33.5565 138.384 33.5565C141.559 33.5565 143.911 32.8526 145.478 31.445ZM165.433 17.0467C165.433 18.9571 164.991 20.4251 164.107 21.4506C163.223 22.4762 161.997 22.9991 160.429 22.9991C158.862 22.9991 157.636 22.4762 156.752 21.4506C155.868 20.4251 155.425 18.9571 155.425 17.0467C155.425 15.1363 155.868 13.6683 156.752 12.6427C157.636 11.6172 158.862 11.0943 160.429 11.0943C161.997 11.0943 163.223 11.6172 164.107 12.6427C164.991 13.6683 165.433 15.1363 165.433 17.0467ZM165.212 26.1361H169.613V7.95725H166.056L165.353 9.88775H165.011C163.825 8.37955 161.977 7.61539 159.485 7.61539C157.777 7.61539 156.269 7.99747 154.963 8.76163C153.637 9.52578 152.632 10.6318 151.909 12.0596C151.185 13.4873 150.823 15.1564 150.823 17.0668C150.823 18.9772 151.185 20.6463 151.909 22.074C152.632 23.5018 153.637 24.5877 154.923 25.372C156.209 26.1361 157.676 26.5182 159.324 26.5182C161.816 26.5182 163.665 25.754 164.891 24.2458H165.232V26.1361H165.212ZM187.137 16.6847C187.137 18.4745 186.694 19.862 185.81 20.8272C184.926 21.7925 183.72 22.2751 182.173 22.2751C180.625 22.2751 179.42 21.7925 178.536 20.8272C177.651 19.862 177.209 18.4745 177.209 16.6847C177.209 14.895 177.651 13.5074 178.536 12.5422C179.42 11.5769 180.625 11.0943 182.173 11.0943C183.72 11.0943 184.926 11.5769 185.81 12.5422C186.694 13.5074 187.137 14.895 187.137 16.6847ZM188.965 31.445C190.533 30.0373 191.316 27.9862 191.316 25.2513V7.93715H187.759L187.056 9.86764H186.714C185.529 8.35944 183.74 7.59528 181.329 7.59528C179.601 7.59528 178.073 7.95725 176.767 8.7013C175.441 9.44535 174.416 10.491 173.692 11.8585C172.949 13.2259 172.587 14.8347 172.587 16.7048C172.587 18.575 172.949 20.1837 173.692 21.5512C174.436 22.9186 175.461 23.9643 176.767 24.7084C178.073 25.4524 179.601 25.8144 181.329 25.8144C183.62 25.8144 185.348 25.1307 186.534 23.7431H186.915V25.6334C186.915 27.0611 186.493 28.1672 185.67 28.9514C184.846 29.7357 183.62 30.1379 181.992 30.1379C180.505 30.1379 179.38 29.8362 178.596 29.233C177.832 28.6297 177.31 27.8856 177.048 27.0209H172.567V27.5438C172.768 28.4688 173.23 29.3938 173.934 30.3189C174.637 31.2439 175.642 32.0081 176.968 32.6314C178.294 33.2548 179.942 33.5565 181.892 33.5565C185.047 33.5565 187.398 32.8526 188.965 31.445ZM198.913 15.1162C199.053 13.8493 199.515 12.8639 200.279 12.1199C201.043 11.3758 202.168 11.0139 203.675 11.0139C205.102 11.0139 206.167 11.396 206.911 12.14C207.654 12.884 208.036 13.8694 208.076 15.1162H198.913ZM198.913 18.3337H212.517V16.3831C212.517 14.5933 212.136 13.0248 211.372 11.6976C210.608 10.3704 209.563 9.3448 208.217 8.66108C206.871 7.95725 205.363 7.61539 203.655 7.61539C201.867 7.61539 200.259 7.97736 198.832 8.72141C197.405 9.46546 196.3 10.5313 195.496 11.959C194.693 13.3868 194.291 15.076 194.291 17.0668C194.291 19.0777 194.693 20.787 195.476 22.2148C196.26 23.6426 197.385 24.7285 198.792 25.4725C200.219 26.2166 201.867 26.5986 203.756 26.5986C205.484 26.5986 206.951 26.297 208.177 25.6937C209.403 25.0904 210.347 24.3263 211.01 23.4415C211.673 22.5365 212.116 21.6517 212.316 20.7669V20.2441H207.976C207.433 22.1545 206.027 23.1197 203.715 23.1197C202.249 23.1197 201.083 22.6974 200.239 21.8327C199.415 20.9077 198.953 19.7614 198.913 18.3337ZM224.213 11.6574H226.484V7.87682H224.555C222.244 7.87682 220.777 8.66108 220.154 10.2296H219.812V7.95725H215.472V26.1361H220.013V16.2825C220.013 14.6537 220.355 13.4672 221.018 12.7433C221.681 12.0193 222.746 11.6574 224.213 11.6574ZM241.315 17.8913C241.315 19.4799 240.852 20.7468 239.908 21.7121C238.984 22.6773 237.778 23.1599 236.351 23.1599C234.904 23.1599 233.718 22.6773 232.794 21.7121C231.87 20.7468 231.387 19.4598 231.387 17.8913C231.387 16.3026 231.85 15.0358 232.794 14.0705C233.718 13.1053 234.924 12.6226 236.351 12.6226C237.798 12.6226 238.984 13.1053 239.908 14.0705C240.852 15.0156 241.315 16.3026 241.315 17.8913ZM244.329 22.2751C245.113 20.8876 245.495 19.2989 245.495 17.5293C245.495 14.4325 245.073 11.7378 244.249 9.46546C243.425 7.1931 242.219 5.36315 240.631 3.99571L243.746 2.34674V0.939087H243.043L239.225 2.92991C237.356 1.76357 235.145 1.09996 232.593 0.939087H231.89V4.29735C233.236 4.29735 234.422 4.49844 235.447 4.90063L231.89 6.79091V8.19857H232.593L237.175 5.78544C238.602 6.79091 239.607 8.23879 240.189 10.1492H239.848C238.823 9.44535 237.537 9.10349 236.009 9.10349C234.402 9.10349 232.915 9.48557 231.568 10.2497C230.222 11.0139 229.157 12.0596 228.373 13.4069C227.589 14.7341 227.207 16.2222 227.207 17.8913C227.207 19.5402 227.609 21.0484 228.393 22.3958C229.177 23.7431 230.282 24.7888 231.669 25.5529C233.055 26.3171 234.623 26.6992 236.371 26.6992C238.119 26.6992 239.687 26.3171 241.094 25.5529C242.46 24.7285 243.545 23.6627 244.329 22.2751ZM248.027 5.68489H253.473V1.48204H248.027V5.68489ZM274.171 26.1361V14.0705C274.171 12.5623 273.83 11.3155 273.146 10.3503C272.463 9.38502 271.599 8.68119 270.574 8.25889C269.549 7.8366 268.504 7.61539 267.419 7.61539C265.912 7.61539 264.666 7.85671 263.742 8.35944C262.797 8.86217 262.074 9.60622 261.551 10.5715H261.209V7.95725H256.869V26.1361H261.41V16.4434C261.41 14.6738 261.832 13.3265 262.676 12.4014C263.52 11.4764 264.666 11.0139 266.133 11.0139C267.198 11.0139 268.062 11.2753 268.685 11.8183C269.308 12.3612 269.63 13.2259 269.63 14.4124V26.1361H274.171Z" fill="black"/>
</svg>
