<svg width="32" height="28" viewBox="0 0 32 28" fill="none" xmlns="http://www.w3.org/2000/svg">
<path d="M2 21H7.25C8.2125 21 9 20.2125 9 19.25C9 18.2875 8.2125 17.5 7.25 17.5H2C1.0375 17.5 0.25 18.2875 0.25 19.25C0.25 20.2125 1.0375 21 2 21ZM13.375 21H18.625C19.5875 21 20.375 20.2125 20.375 19.25C20.375 18.2875 19.5875 17.5 18.625 17.5H13.375C12.4125 17.5 11.625 18.2875 11.625 19.25C11.625 20.2125 12.4125 21 13.375 21ZM24.75 21H30C30.9625 21 31.75 20.2125 31.75 19.25C31.75 18.2875 30.9625 17.5 30 17.5H24.75C23.7875 17.5 23 18.2875 23 19.25C23 20.2125 23.7875 21 24.75 21ZM2 28C2.9625 28 3.75 27.2125 3.75 26.25C3.75 25.2875 2.9625 24.5 2 24.5C1.0375 24.5 0.25 25.2875 0.25 26.25C0.25 27.2125 1.0375 28 2 28ZM9 28C9.9625 28 10.75 27.2125 10.75 26.25C10.75 25.2875 9.9625 24.5 9 24.5C8.0375 24.5 7.25 25.2875 7.25 26.25C7.25 27.2125 8.0375 28 9 28ZM16 28C16.9625 28 17.75 27.2125 17.75 26.25C17.75 25.2875 16.9625 24.5 16 24.5C15.0375 24.5 14.25 25.2875 14.25 26.25C14.25 27.2125 15.0375 28 16 28ZM23 28C23.9625 28 24.75 27.2125 24.75 26.25C24.75 25.2875 23.9625 24.5 23 24.5C22.0375 24.5 21.25 25.2875 21.25 26.25C21.25 27.2125 22.0375 28 23 28ZM30 28C30.9625 28 31.75 27.2125 31.75 26.25C31.75 25.2875 30.9625 24.5 30 24.5C29.0375 24.5 28.25 25.2875 28.25 26.25C28.25 27.2125 29.0375 28 30 28ZM2 14H12.5C13.4625 14 14.25 13.2125 14.25 12.25C14.25 11.2875 13.4625 10.5 12.5 10.5H2C1.0375 10.5 0.25 11.2875 0.25 12.25C0.25 13.2125 1.0375 14 2 14ZM19.5 14H30C30.9625 14 31.75 13.2125 31.75 12.25C31.75 11.2875 30.9625 10.5 30 10.5H19.5C18.5375 10.5 17.75 11.2875 17.75 12.25C17.75 13.2125 18.5375 14 19.5 14ZM0.25 1.75V5.25C0.25 6.2125 1.0375 7 2 7H30C30.9625 7 31.75 6.2125 31.75 5.25V1.75C31.75 0.7875 30.9625 0 30 0H2C1.0375 0 0.25 0.7875 0.25 1.75Z" fill="#0061FF"/>
</svg>
