<svg width="32" height="36" viewBox="0 0 32 36" fill="none" xmlns="http://www.w3.org/2000/svg">
<path d="M31.3125 9.2325C31.0675 8.27 30.105 7.71 29.1425 7.92C24.9775 8.8475 20.34 9.25 16 9.25C11.66 9.25 7.02248 8.8475 2.85748 7.92C1.89498 7.71 0.932482 8.27 0.687482 9.2325C0.442482 10.2125 1.03748 11.21 1.99998 11.4375C4.81748 12.0675 7.86248 12.505 10.75 12.75V33.75C10.75 34.7125 11.5375 35.5 12.5 35.5C13.4625 35.5 14.25 34.7125 14.25 33.75V25H17.75V33.75C17.75 34.7125 18.5375 35.5 19.5 35.5C20.4625 35.5 21.25 34.7125 21.25 33.75V12.75C24.1375 12.505 27.1825 12.0675 29.9825 11.4375C30.9625 11.21 31.5575 10.2125 31.3125 9.2325ZM16 7.5C17.925 7.5 19.5 5.925 19.5 4C19.5 2.075 17.925 0.5 16 0.5C14.075 0.5 12.5 2.075 12.5 4C12.5 5.925 14.075 7.5 16 7.5Z" fill="#0061FF"/>
</svg>
