<svg width="24" height="24" viewBox="0 0 24 24" fill="none" xmlns="http://www.w3.org/2000/svg">
<g clip-path="url(#clip0_8_7930)">
<path d="M23.7035 9.34009C23.8971 10.1957 24 11.0858 24 12C24 18.6274 18.6274 24 12 24C5.37258 24 0 18.6274 0 12C0 11.5352 0.02709 11.0766 0.0785156 10.6256C2.46488 11.9009 8.38814 14.85 12.15 14.85C17.0414 14.85 19.9635 11.5268 23.7035 9.34009Z" fill="#155F8C"/>
<path d="M12 0C17.4281 0 22.0133 3.60434 23.4955 8.55C20.2265 10.4449 16.9175 13.2 12.45 13.2C9.69966 13.2 4.20501 11.0271 0.358887 9.07793C1.66377 3.86283 6.38051 0 12 0Z" fill="#1EB6D8"/>
</g>
<defs>
<clipPath id="clip0_8_7930">
<rect width="24" height="24" rx="2" fill="white"/>
</clipPath>
</defs>
</svg>
