<svg width="24" height="24" viewBox="0 0 24 24" fill="none" xmlns="http://www.w3.org/2000/svg">
<g clip-path="url(#clip0_1548_15364)">
<path d="M0 12L12 0L24 12L12 24L0 12Z" fill="#FF8661"/>
<path fill-rule="evenodd" clip-rule="evenodd" d="M11.4004 5.32812C11.7389 5.32817 11.9187 5.38394 12.043 5.44043C12.1118 5.47172 12.1601 5.50032 12.2285 5.53613C12.2927 5.56977 12.3656 5.60433 12.4561 5.62402C12.5107 5.63591 12.5652 5.64472 12.6123 5.65234C12.3904 5.90909 12.0875 6.32972 12.0244 6.68359C11.9284 7.22359 11.574 8.29193 11.6641 8.62793C11.7541 8.96393 12.1802 9.24006 12.3242 9.45605C12.4681 9.67189 12.4801 9.81595 12.6719 10.2715C12.8639 10.7275 12.7323 11.1021 13.1523 11.376C13.5485 11.6341 14.4118 11.6164 14.8438 12.0723C15.2757 12.5282 15.287 12.9289 16.1758 13.2715C17.4838 13.7755 17.7679 13.5109 18.9844 13.8604C19.7533 14.0812 20.4604 14.3258 20.833 14.458L12 23.293L3.56934 14.8623C4.0322 14.3972 4.23141 13.8887 4.27246 13.6797C4.12542 13.9219 3.93076 14.1179 3.74121 14.2705C3.57174 14.4065 3.40612 14.5075 3.27832 14.5713L2.69141 13.9844C2.87382 13.8286 3.10825 13.6224 3.33594 13.416C3.41345 13.3458 3.49017 13.2757 3.56348 13.207C3.73224 13.0488 3.88487 12.9012 3.98926 12.7842C4.18359 12.5663 4.48359 12.2442 4.73535 11.9238C4.86151 11.7633 4.97982 11.5985 5.06836 11.4424C5.1546 11.2902 5.2233 11.1273 5.23145 10.9766C5.24318 10.7601 5.27534 10.5956 5.33887 10.4844C5.3944 10.3872 5.47898 10.3213 5.6416 10.3076C5.82378 10.2924 6.01653 10.2525 6.19238 10.1826C6.24536 10.2109 6.31305 10.2483 6.4082 10.2959C6.74406 10.4642 6.76442 11.6382 6.73242 12.2041C6.88921 11.5522 6.78446 10.4751 6.68359 9.82227C6.73317 9.75258 6.77297 9.67343 6.79785 9.58496C6.85555 9.37967 6.87387 9.21614 6.88965 9.0957C6.90652 8.96698 6.91871 8.91398 6.94336 8.87695C7.00693 8.7816 7.0514 8.75829 7.1084 8.72461C7.14206 8.70472 7.18821 8.67718 7.23535 8.63379C7.27232 8.5997 7.30705 8.55865 7.34082 8.50684C7.45275 8.79583 7.37815 9.31157 7.31738 9.56641C7.51483 9.18428 7.50282 8.48081 7.46582 8.10156C7.46723 8.09534 7.46893 8.08865 7.4707 8.08203C7.4898 8.011 7.53597 7.90908 7.75195 7.75781C7.95109 7.61842 8.07877 7.57991 8.19238 7.5498C8.28226 7.52599 8.37952 7.50443 8.49023 7.44434C8.71015 7.52368 8.94607 7.67459 9.03613 7.86035C9.51588 8.85027 9.25195 9.86426 9.25195 9.86426C9.25195 9.86426 9.58789 8.91574 9.58789 8.13574C9.58785 7.35619 9.32398 7.3846 9.51562 6.81641C9.55993 6.68515 9.64285 6.56485 9.72363 6.46191C9.81571 6.44376 9.9215 6.40709 10.041 6.31152C10.1295 6.24073 10.2237 6.13434 10.3154 6.03125C10.4114 5.92334 10.513 5.80872 10.626 5.70215C10.8534 5.48758 11.1047 5.32812 11.4004 5.32812ZM10.6318 10.9199C10.4157 10.984 9.78197 11.2847 9.59961 11.5918C9.37165 11.9758 9.44394 12.2642 9.25195 12.4922C9.09986 12.6727 8.54453 13.1649 8.53223 13.1758C8.54479 13.1757 9.07502 13.1724 9.4248 12.8496L9.69434 12.5723C9.92105 12.357 10.2064 12.1323 10.4043 12.0244C10.6683 11.8804 11.4481 11.7722 11.8682 11.3164C11.1002 11.5444 10.584 11.5919 10.332 11.5439C10.247 11.5278 10.4519 11.096 10.6318 10.9199Z" fill="white"/>
<path d="M10.6318 10.9199C10.4519 11.096 10.247 11.5278 10.332 11.5439C10.584 11.5919 11.1002 11.5444 11.8682 11.3164C11.4481 11.7722 10.6683 11.8804 10.4043 12.0244C10.1403 12.1684 9.72067 12.5203 9.49219 12.7803C9.14806 13.1718 8.54563 13.1757 8.53223 13.1758C8.54453 13.1649 9.09986 12.6727 9.25195 12.4922C9.44394 12.2642 9.37165 11.9758 9.59961 11.5918C9.78197 11.2847 10.4157 10.984 10.6318 10.9199Z" fill="black"/>
<path fill-rule="evenodd" clip-rule="evenodd" d="M24 12L12 24L0 12L12 0L24 12ZM11.4004 5.32812C11.1047 5.32812 10.8534 5.48758 10.626 5.70215C10.513 5.80872 10.4114 5.92334 10.3154 6.03125C10.2237 6.13434 10.1295 6.24073 10.041 6.31152C9.9215 6.40709 9.81571 6.44376 9.72363 6.46191C9.64285 6.56485 9.55993 6.68515 9.51562 6.81641C9.32398 7.3846 9.58784 7.35619 9.58789 8.13574C9.58789 8.91574 9.25195 9.86426 9.25195 9.86426C9.25195 9.86426 9.51588 8.85027 9.03613 7.86035C8.94607 7.67459 8.71015 7.52368 8.49023 7.44434C8.37952 7.50443 8.28226 7.52599 8.19238 7.5498C8.07877 7.57991 7.95109 7.61842 7.75195 7.75781C7.53597 7.90908 7.4898 8.011 7.4707 8.08203C7.46893 8.08865 7.46723 8.09534 7.46582 8.10156C7.50282 8.48081 7.51483 9.18428 7.31738 9.56641C7.37815 9.31157 7.45275 8.79583 7.34082 8.50684C7.30705 8.55865 7.27232 8.5997 7.23535 8.63379C7.18821 8.67718 7.14206 8.70472 7.1084 8.72461C7.0514 8.75829 7.00693 8.7816 6.94336 8.87695C6.91871 8.91397 6.90652 8.96698 6.88965 9.0957C6.87387 9.21614 6.85555 9.37967 6.79785 9.58496C6.77297 9.67343 6.73317 9.75258 6.68359 9.82227C6.78446 10.4751 6.88921 11.5522 6.73242 12.2041C6.76442 11.6382 6.74406 10.4642 6.4082 10.2959C6.31305 10.2483 6.24536 10.2109 6.19238 10.1826C6.01653 10.2525 5.82378 10.2924 5.6416 10.3076C5.47898 10.3213 5.3944 10.3872 5.33887 10.4844C5.27534 10.5956 5.24318 10.7601 5.23145 10.9766C5.2233 11.1273 5.1546 11.2902 5.06836 11.4424C4.97982 11.5985 4.86151 11.7633 4.73535 11.9238C4.48359 12.2442 4.18359 12.5663 3.98926 12.7842C3.70638 13.1013 3.07883 13.6535 2.69141 13.9844L3.27832 14.5713C3.54924 14.4361 3.99407 14.1382 4.27246 13.6797C4.23141 13.8887 4.03217 14.3972 3.56934 14.8623L12 23.293L20.834 14.458C20.4618 14.3257 19.754 14.0814 18.9844 13.8604C17.7679 13.5109 17.4838 13.7755 16.1758 13.2715C15.287 12.9289 15.2757 12.5282 14.8438 12.0723C14.4118 11.6164 13.5485 11.6341 13.1523 11.376C12.7323 11.1021 12.8639 10.7275 12.6719 10.2715C12.4801 9.81595 12.4681 9.67189 12.3242 9.45605C12.1802 9.24006 11.7541 8.96393 11.6641 8.62793C11.574 8.29193 11.9284 7.22359 12.0244 6.68359C12.0875 6.32972 12.3904 5.90909 12.6123 5.65234C12.5652 5.64472 12.5107 5.63591 12.4561 5.62402C12.3656 5.60433 12.2927 5.56977 12.2285 5.53613C12.1601 5.50032 12.1118 5.47172 12.043 5.44043C11.9187 5.38394 11.7389 5.32817 11.4004 5.32812ZM0.707031 12L2.45312 13.7461C2.83718 13.4187 3.46658 12.865 3.73828 12.5605C3.93991 12.3345 4.22847 12.0254 4.47168 11.7158C4.59283 11.5616 4.6996 11.4118 4.77637 11.2764C4.85543 11.1369 4.89261 11.0302 4.89648 10.959C4.90877 10.7317 4.94247 10.5001 5.04688 10.3174C5.1593 10.1207 5.34515 9.99508 5.61426 9.97266C5.81423 9.95597 6.01564 9.90631 6.1748 9.82227C6.33368 9.73831 6.43703 9.62775 6.47461 9.49414C6.52467 9.31604 6.54042 9.17657 6.55664 9.05273C6.57178 8.93715 6.58892 8.80315 6.66406 8.69043C6.76836 8.53404 6.86258 8.47982 6.9375 8.43555C6.96984 8.41644 6.98896 8.40408 7.00781 8.38672C7.02596 8.36995 7.04941 8.34317 7.07812 8.29297C7.09625 8.26126 7.10568 8.22881 7.11328 8.18262C7.1198 8.14293 7.12776 8.06497 7.14648 7.99512C7.19109 7.82903 7.29648 7.66661 7.55957 7.48242C7.80007 7.31407 7.96697 7.26254 8.10645 7.22559C8.23513 7.19149 8.30878 7.17563 8.41602 7.0918C8.47942 7.04217 8.49485 6.99526 8.56055 6.86621C8.62513 6.73937 8.71836 6.59046 8.93164 6.4209C9.19208 6.21388 9.37145 6.16938 9.52734 6.14941C9.66321 6.13204 9.72345 6.1349 9.83105 6.04883C9.89249 5.99968 9.9661 5.91819 10.0645 5.80762C10.1586 5.70178 10.27 5.57643 10.3955 5.45801C10.645 5.22264 10.9761 4.99219 11.4004 4.99219C11.7813 4.99223 12.0091 5.05635 12.1816 5.13477C12.2612 5.17094 12.334 5.21319 12.3838 5.23926C12.4375 5.2674 12.48 5.28557 12.5273 5.2959C12.5898 5.30947 12.6445 5.31667 12.7119 5.32812C12.7761 5.33904 12.8467 5.3533 12.9209 5.37891C13.0752 5.43213 13.2263 5.52881 13.3975 5.71973C13.5895 5.93393 13.6914 6.12828 13.7754 6.25977C13.8578 6.38878 13.9279 6.46997 14.0693 6.5293C14.4699 6.69736 14.7403 6.93042 15.042 7.20801C15.179 7.33409 15.2889 7.39977 15.3936 7.44336C15.5044 7.48947 15.6104 7.51263 15.7637 7.55371C15.9379 7.60043 16.168 7.72918 16.3906 7.89551C16.6167 8.0644 16.8514 8.28429 17.0312 8.52832C17.2097 8.77055 17.3693 9.09402 17.5039 9.36621C17.5727 9.50538 17.635 9.63152 17.6924 9.73438C17.7521 9.84146 17.797 9.9052 17.8271 9.93359C17.8584 9.96304 17.9117 9.99648 17.9902 10.0332C18.0672 10.0692 18.1558 10.1021 18.251 10.1387C18.3435 10.1742 18.4434 10.2126 18.5322 10.2549C18.619 10.2962 18.7098 10.3486 18.7783 10.417C18.889 10.5276 18.9946 10.7018 19.085 10.834C19.1853 10.9808 19.2796 11.0968 19.3838 11.1602C19.5115 11.2378 19.8115 11.3724 20.1699 11.54C20.5184 11.7031 20.9111 11.8938 21.1973 12.0742C21.5519 12.2978 22.0239 12.6819 22.3398 12.9521L23.293 12L12 0.707031L0.707031 12Z" fill="black"/>
</g>
<defs>
<clipPath id="clip0_1548_15364">
<rect width="24" height="24" rx="2" fill="white"/>
</clipPath>
</defs>
</svg>
