<svg width="24" height="24" viewBox="0 0 24 24" fill="none" xmlns="http://www.w3.org/2000/svg">
<path d="M7.95967 1.5C9.16432 2.77661 11.5737 6.33503 11.5737 10.3562V22.7956C5.6307 22.6395 0.76452 18.1626 0 12.3908H2.29805C2.60596 14.3855 4.50659 18.7098 9.64629 20.0502V13.1886C9.64625 10.795 7.8391 7.12472 2.77969 7.12471C3.11441 5.86134 4.61902 2.968 7.95967 1.5Z" fill="#003277"/>
<path d="M15.83 1.5C19.1707 2.96798 20.6752 5.86131 21.01 7.12471C15.9506 7.12476 14.1437 10.795 14.1437 13.1886V20.0502C19.2833 18.7098 21.184 14.3855 21.4919 12.3908H23.7896C23.0251 18.1626 18.1589 22.6395 12.2159 22.7956V10.3562C12.216 6.33504 14.6253 2.77662 15.83 1.5Z" fill="#003277"/>
</svg>
