<svg width="72" height="72" viewBox="0 0 72 72" fill="none" xmlns="http://www.w3.org/2000/svg">
<g clip-path="url(#clip0_1477_8965)">
<mask id="mask0_1477_8965" style="mask-type:luminance" maskUnits="userSpaceOnUse" x="0" y="0" width="72" height="72">
<path d="M72 0H0V72H72V0Z" fill="white"/>
</mask>
<g mask="url(#mask0_1477_8965)">
<path d="M23.3545 50.9046C22.4574 52.7554 21.7129 54.6948 21.1349 56.7119C15.3451 52.9503 12.9802 49.6105 10.3209 44.9126C7.00943 39.0518 5.63372 35.2403 4.63035 29.3511C4.53461 28.7839 4.50982 28.2201 4.55941 27.6741C4.79349 25.0362 6.64424 22.7671 9.37781 22.292C10.867 30.8155 11.9272 36.1622 15.5188 41.9378C17.6 45.2813 19.7024 48.139 23.3545 50.9081V50.9046Z" fill="#8985FF"/>
<path d="M29.5517 41.6823C28.208 43.1573 26.9812 44.7422 25.8891 46.4263C21.5352 42.6538 18.44 38.158 16.4828 32.7972C14.8093 28.2092 13.962 23.0008 13.8839 16.711C13.8839 16.516 13.8874 16.3209 13.9052 16.126C14.1782 13.0484 16.8621 10.68 20.0141 10.8608C19.1632 25.6458 21.9642 34.9776 29.5482 41.6823H29.5517Z" fill="#8985FF"/>
<path d="M38.0749 34.7079C36.3234 35.7504 34.6571 36.9346 33.1076 38.25C24.4636 29.7159 23.6729 19.3131 24.8217 10.5805C25.2294 7.48873 28.002 5.32944 31.0158 5.59536C31.2745 5.61663 31.537 5.65925 31.7958 5.7195C28.7821 18.9409 30.7144 27.9891 38.0785 34.7044L38.0749 34.7079Z" fill="#8985FF"/>
<path d="M53.7895 36.559H53.8497C58.2285 36.559 62.4512 34.7543 65.7417 31.4746C69.5356 27.6986 71.6201 22.4406 71.6201 16.672C71.6201 9.35038 66.8158 4.97518 61.8595 4.97518C59.849 4.97518 58.005 6.72314 56.8351 8.19804C56.64 8.4427 56.2567 8.59163 56.0198 8.44984C55.8172 8.32923 55.9029 7.88251 56.0089 7.58473C56.7888 5.45737 58.0478 3.22722 59.8953 0.724084C57.5091 -0.208437 53.4065 -0.151704 51.8252 2.24511C50.7225 3.91861 50.9565 5.8155 51.4033 7.77258C51.4494 7.97472 51.4316 8.36471 51.2048 8.46397C50.9601 8.57037 50.6233 8.39311 50.3999 8.05624C49.2405 6.27996 47.7194 4.97518 45.4148 4.97518C39.9476 4.97518 35.6539 10.3325 35.6539 16.672C35.6539 28.9112 45.0674 36.527 53.7859 36.559H53.7895ZM45.7446 10.9672C47.3968 10.9672 49.1625 12.1726 50.4495 13.0519C51.6266 13.8533 52.591 14.1192 53.8392 14.1192C55.0868 14.1192 55.9273 13.8355 56.9594 13.0838C58.115 12.24 59.8666 10.9635 61.5401 10.9635C63.511 10.9635 65.6383 13.1441 65.6383 16.672C65.6383 20.8344 64.1741 24.5856 61.519 27.2306C59.3556 29.3863 56.6333 30.5706 53.8497 30.5706C53.8391 30.5706 53.8249 30.5706 53.8107 30.5706C47.957 30.5492 41.6423 25.2274 41.6423 16.672C41.6423 13.137 44.0285 10.9635 45.741 10.9635L45.7446 10.9672Z" fill="#8985FF"/>
<path d="M34.4373 71.8363C19.9325 71.8363 7.367 64.0046 1.0878 51.2298C1.06301 51.1801 1.03107 51.1128 0.995599 51.0241C-0.458021 47.6558 0.736815 43.7309 3.80367 41.7206C3.80367 41.7206 4.66879 44.5996 5.59063 46.7092C10.5757 58.1187 21.5635 65.8654 34.4373 65.8654C49.6974 65.8654 62.3728 54.9277 65.1027 40.5612C65.1556 40.2882 65.2019 40.0116 65.2447 39.7351C65.723 36.5619 68.3722 34.1685 71.577 34.0303C71.5837 34.3529 71.5912 34.6897 71.5912 34.9486C71.5912 55.2894 54.9236 71.8363 34.4408 71.8363H34.4373Z" fill="#8985FF"/>
</g>
</g>
<defs>
<clipPath id="clip0_1477_8965">
<rect width="72" height="72" fill="white"/>
</clipPath>
</defs>
</svg>
