<svg width="73" height="75" viewBox="0 0 73 75" fill="none" xmlns="http://www.w3.org/2000/svg">
<path d="M56.5255 19.0971C56.0729 18.6406 55.534 18.2781 54.9402 18.0307C54.3462 17.7834 53.7091 17.656 53.0656 17.656C52.422 17.656 51.7849 17.7834 51.191 18.0307C50.5971 18.2781 50.0582 18.6406 49.6056 19.0971L23.0465 45.6L10.4883 33.1286C10.0356 32.6717 9.49665 32.3089 8.90255 32.0614C8.30845 31.8138 7.67105 31.6863 7.02725 31.6863C6.38345 31.6863 5.74604 31.8138 5.15194 32.0614C4.55784 32.3089 4.01886 32.6717 3.56619 33.1286C2.64657 34.0516 2.13037 35.3004 2.13037 36.6021C2.13037 37.9038 2.64657 39.1526 3.56619 40.0757L21.6745 58.1443C22.0348 58.501 22.5218 58.7011 23.0293 58.7011C23.5368 58.7011 24.0238 58.501 24.3841 58.1443L56.5255 26.0143C58.4107 24.0921 58.4107 20.9893 56.5255 19.095V19.0971Z" fill="#17A325"/>
<path d="M25.344 29.2565L42.5484 12.0387C43.468 11.1156 43.9842 9.86679 43.9842 8.56508C43.9842 7.26338 43.468 6.01458 42.5484 5.09151C42.0957 4.63494 41.5569 4.27249 40.963 4.02512C40.3691 3.77776 39.7319 3.65039 39.0884 3.65039C38.4448 3.65039 37.8077 3.77776 37.2138 4.02512C36.6199 4.27249 36.081 4.63494 35.6284 5.09151L18.4519 22.3372C17.5323 23.2603 17.0161 24.5091 17.0161 25.8108C17.0161 27.1125 17.5323 28.3613 18.4519 29.2844C18.9036 29.7391 19.4414 30.0995 20.034 30.3446C20.6267 30.5897 21.2623 30.7146 21.9038 30.712C22.5453 30.7094 23.1799 30.5794 23.7705 30.3295C24.3612 30.0796 24.896 29.7148 25.344 29.2565ZM70.4773 33.1008C70.0246 32.6439 69.4857 32.2812 68.8916 32.0336C68.2975 31.7861 67.66 31.6586 67.0162 31.6586C66.3724 31.6586 65.735 31.7861 65.1409 32.0336C64.5468 32.2812 64.0079 32.6439 63.5552 33.1008L45.3932 51.3087C44.4736 52.2317 43.9574 53.4805 43.9574 54.7822C43.9574 56.0839 44.4736 57.3327 45.3932 58.2558C45.8459 58.7124 46.3847 59.0748 46.9786 59.3222C47.5725 59.5695 48.2097 59.6969 48.8532 59.6969C49.4967 59.6969 50.1339 59.5695 50.7278 59.3222C51.3217 59.0748 51.8606 58.7124 52.3132 58.2558L70.4773 40.0479C71.3969 39.1249 71.9131 37.8761 71.9131 36.5744C71.9131 35.2727 71.3969 34.0239 70.4773 33.1008Z" fill="#6EDC37"/>
<path d="M37.0776 71.6013C37.7405 71.5994 38.3965 71.4671 39.0082 71.2121C39.6199 70.9571 40.1752 70.5844 40.6425 70.1152C41.1099 69.646 41.48 69.0895 41.7319 68.4775C41.9837 67.8655 42.1123 67.21 42.1104 66.5485C42.1123 65.8869 41.9837 65.2314 41.7319 64.6194C41.48 64.0074 41.1099 63.451 40.6425 62.9818C40.1752 62.5126 39.6199 62.1398 39.0082 61.8848C38.3965 61.6298 37.7405 61.4976 37.0776 61.4956C36.4148 61.4976 35.7588 61.6298 35.1471 61.8848C34.5354 62.1398 33.9801 62.5126 33.5128 62.9818C33.0454 63.451 32.6753 64.0074 32.4234 64.6194C32.1716 65.2314 32.043 65.8869 32.0449 66.5485C32.043 67.21 32.1716 67.8655 32.4234 68.4775C32.6753 69.0895 33.0454 69.646 33.5128 70.1152C33.9801 70.5844 34.5354 70.9571 35.1471 71.2121C35.7588 71.4671 36.4148 71.5994 37.0776 71.6013Z" fill="#6EDC37"/>
</svg>
