<svg
	xmlns="http://www.w3.org/2000/svg"
	width="434"
	height="490"
	fill="none"
	view-box="0 0 434 490"
>
	<g opacity="0.6">
	<mask
		id="frontpage-slide-dots-mask0"
		width="434"
		height="490"
		x="0"
		y="0"
		mask-units="userSpaceOnUse"
	>
		<path fill="#C4C4C4" d="M0 0H434V490H0z"></path>
	</mask>
	<g fill="#CCDFFF" mask="url(#frontpage-slide-dots-mask0)">
		<circle cx="198" cy="101" r="2"></circle>
		<circle cx="198" cy="149" r="2"></circle>
		<circle cx="198" cy="197" r="2"></circle>
		<circle cx="246" cy="101" r="2"></circle>
		<circle cx="318" cy="101" r="2"></circle>
		<circle cx="246" cy="149" r="2"></circle>
		<circle cx="246" cy="197" r="2"></circle>
		<circle cx="318" cy="149" r="2"></circle>
		<circle cx="318" cy="197" r="2"></circle>
		<circle cx="198" cy="125" r="2"></circle>
		<circle cx="198" cy="173" r="2"></circle>
		<circle cx="198" cy="221" r="2"></circle>
		<circle cx="198" cy="245" r="2"></circle>
		<circle cx="246" cy="125" r="2"></circle>
		<circle cx="318" cy="125" r="2"></circle>
		<circle cx="246" cy="173" r="2"></circle>
		<circle cx="246" cy="221" r="2"></circle>
		<circle cx="246" cy="245" r="2"></circle>
		<circle cx="318" cy="173" r="2"></circle>
		<circle cx="318" cy="221" r="2"></circle>
		<circle cx="318" cy="245" r="2"></circle>
		<circle cx="222" cy="101" r="2"></circle>
		<circle cx="294" cy="101" r="2"></circle>
		<circle cx="222" cy="149" r="2"></circle>
		<circle cx="222" cy="197" r="2"></circle>
		<circle cx="294" cy="149" r="2"></circle>
		<circle cx="294" cy="197" r="2"></circle>
		<circle cx="270" cy="101" r="2"></circle>
		<circle cx="342" cy="101" r="2"></circle>
		<circle cx="270" cy="149" r="2"></circle>
		<circle cx="270" cy="197" r="2"></circle>
		<circle cx="342" cy="149" r="2"></circle>
		<circle cx="342" cy="197" r="2"></circle>
		<circle cx="222" cy="125" r="2"></circle>
		<circle cx="294" cy="125" r="2"></circle>
		<circle cx="222" cy="173" r="2"></circle>
		<circle cx="222" cy="221" r="2"></circle>
		<circle cx="222" cy="245" r="2"></circle>
		<circle cx="294" cy="173" r="2"></circle>
		<circle cx="294" cy="221" r="2"></circle>
		<circle cx="294" cy="245" r="2"></circle>
		<circle cx="270" cy="125" r="2"></circle>
		<circle cx="342" cy="125" r="2"></circle>
		<circle cx="270" cy="173" r="2"></circle>
		<circle cx="270" cy="221" r="2"></circle>
		<circle cx="270" cy="245" r="2"></circle>
		<circle cx="342" cy="173" r="2"></circle>
		<circle cx="342" cy="221" r="2"></circle>
		<circle cx="342" cy="245" r="2"></circle>
		<circle cx="198" cy="437" r="2"></circle>
		<circle cx="198" cy="485" r="2"></circle>
		<circle cx="246" cy="437" r="2"></circle>
		<circle cx="318" cy="437" r="2"></circle>
		<circle cx="246" cy="485" r="2"></circle>
		<circle cx="318" cy="485" r="2"></circle>
		<circle cx="198" cy="461" r="2"></circle>
		<circle cx="246" cy="461" r="2"></circle>
		<circle cx="318" cy="461" r="2"></circle>
		<circle cx="222" cy="437" r="2"></circle>
		<circle cx="294" cy="437" r="2"></circle>
		<circle cx="222" cy="485" r="2"></circle>
		<circle cx="294" cy="485" r="2"></circle>
		<circle cx="270" cy="437" r="2"></circle>
		<circle cx="342" cy="437" r="2"></circle>
		<circle cx="270" cy="485" r="2"></circle>
		<circle cx="342" cy="485" r="2"></circle>
		<circle cx="222" cy="461" r="2"></circle>
		<circle cx="294" cy="461" r="2"></circle>
		<circle cx="270" cy="461" r="2"></circle>
		<circle cx="342" cy="461" r="2"></circle>
		<circle cx="198" cy="29" r="2"></circle>
		<circle cx="246" cy="29" r="2"></circle>
		<circle cx="318" cy="29" r="2"></circle>
		<circle cx="198" cy="5" r="2"></circle>
		<circle cx="198" cy="53" r="2"></circle>
		<circle cx="198" cy="77" r="2"></circle>
		<circle cx="246" cy="5" r="2"></circle>
		<circle cx="246" cy="53" r="2"></circle>
		<circle cx="246" cy="77" r="2"></circle>
		<circle cx="318" cy="5" r="2"></circle>
		<circle cx="318" cy="53" r="2"></circle>
		<circle cx="318" cy="77" r="2"></circle>
		<circle cx="222" cy="29" r="2"></circle>
		<circle cx="294" cy="29" r="2"></circle>
		<circle cx="270" cy="29" r="2"></circle>
		<circle cx="342" cy="29" r="2"></circle>
		<circle cx="222" cy="5" r="2"></circle>
		<circle cx="222" cy="53" r="2"></circle>
		<circle cx="222" cy="77" r="2"></circle>
		<circle cx="294" cy="5" r="2"></circle>
		<circle cx="294" cy="53" r="2"></circle>
		<circle cx="294" cy="77" r="2"></circle>
		<circle cx="270" cy="5" r="2"></circle>
		<circle cx="270" cy="53" r="2"></circle>
		<circle cx="270" cy="77" r="2"></circle>
		<circle cx="342" cy="5" r="2"></circle>
		<circle cx="342" cy="53" r="2"></circle>
		<circle cx="342" cy="77" r="2"></circle>
		<circle cx="6" cy="101" r="2"></circle>
		<circle cx="6" cy="149" r="2"></circle>
		<circle cx="6" cy="197" r="2"></circle>
		<circle cx="6" cy="125" r="2"></circle>
		<circle cx="6" cy="173" r="2"></circle>
		<circle cx="6" cy="221" r="2"></circle>
		<circle cx="6" cy="245" r="2"></circle>
		<circle cx="6" cy="437" r="2"></circle>
		<circle cx="6" cy="485" r="2"></circle>
		<circle cx="6" cy="461" r="2"></circle>
		<circle cx="6" cy="29" r="2"></circle>
		<circle cx="6" cy="5" r="2"></circle>
		<circle cx="6" cy="53" r="2"></circle>
		<circle cx="6" cy="77" r="2"></circle>
		<circle cx="198" cy="269" r="2"></circle>
		<circle cx="198" cy="317" r="2"></circle>
		<circle cx="198" cy="365" r="2"></circle>
		<circle cx="246" cy="269" r="2"></circle>
		<circle cx="318" cy="269" r="2"></circle>
		<circle cx="246" cy="317" r="2"></circle>
		<circle cx="246" cy="365" r="2"></circle>
		<circle cx="318" cy="317" r="2"></circle>
		<circle cx="318" cy="365" r="2"></circle>
		<circle cx="198" cy="293" r="2"></circle>
		<circle cx="198" cy="341" r="2"></circle>
		<circle cx="198" cy="389" r="2"></circle>
		<circle cx="198" cy="413" r="2"></circle>
		<circle cx="246" cy="293" r="2"></circle>
		<circle cx="318" cy="293" r="2"></circle>
		<circle cx="246" cy="341" r="2"></circle>
		<circle cx="246" cy="389" r="2"></circle>
		<circle cx="246" cy="413" r="2"></circle>
		<circle cx="318" cy="341" r="2"></circle>
		<circle cx="318" cy="389" r="2"></circle>
		<circle cx="318" cy="413" r="2"></circle>
		<circle cx="222" cy="269" r="2"></circle>
		<circle cx="294" cy="269" r="2"></circle>
		<circle cx="222" cy="317" r="2"></circle>
		<circle cx="222" cy="365" r="2"></circle>
		<circle cx="294" cy="317" r="2"></circle>
		<circle cx="294" cy="365" r="2"></circle>
		<circle cx="270" cy="269" r="2"></circle>
		<circle cx="342" cy="269" r="2"></circle>
		<circle cx="270" cy="317" r="2"></circle>
		<circle cx="270" cy="365" r="2"></circle>
		<circle cx="342" cy="317" r="2"></circle>
		<circle cx="342" cy="365" r="2"></circle>
		<circle cx="222" cy="293" r="2"></circle>
		<circle cx="294" cy="293" r="2"></circle>
		<circle cx="222" cy="341" r="2"></circle>
		<circle cx="222" cy="389" r="2"></circle>
		<circle cx="222" cy="413" r="2"></circle>
		<circle cx="294" cy="341" r="2"></circle>
		<circle cx="294" cy="389" r="2"></circle>
		<circle cx="294" cy="413" r="2"></circle>
		<circle cx="270" cy="293" r="2"></circle>
		<circle cx="342" cy="293" r="2"></circle>
		<circle cx="270" cy="341" r="2"></circle>
		<circle cx="270" cy="389" r="2"></circle>
		<circle cx="270" cy="413" r="2"></circle>
		<circle cx="342" cy="341" r="2"></circle>
		<circle cx="342" cy="389" r="2"></circle>
		<circle cx="342" cy="413" r="2"></circle>
		<circle cx="6" cy="269" r="2"></circle>
		<circle cx="6" cy="317" r="2"></circle>
		<circle cx="6" cy="365" r="2"></circle>
		<circle cx="6" cy="293" r="2"></circle>
		<circle cx="6" cy="341" r="2"></circle>
		<circle cx="6" cy="389" r="2"></circle>
		<circle cx="6" cy="413" r="2"></circle>
		<circle cx="366" cy="101" r="2"></circle>
		<circle cx="366" cy="149" r="2"></circle>
		<circle cx="366" cy="197" r="2"></circle>
		<circle cx="414" cy="101" r="2"></circle>
		<circle cx="414" cy="149" r="2"></circle>
		<circle cx="414" cy="197" r="2"></circle>
		<circle cx="366" cy="125" r="2"></circle>
		<circle cx="366" cy="173" r="2"></circle>
		<circle cx="366" cy="221" r="2"></circle>
		<circle cx="366" cy="245" r="2"></circle>
		<circle cx="414" cy="125" r="2"></circle>
		<circle cx="414" cy="173" r="2"></circle>
		<circle cx="414" cy="221" r="2"></circle>
		<circle cx="414" cy="245" r="2"></circle>
		<circle cx="390" cy="101" r="2"></circle>
		<circle cx="390" cy="149" r="2"></circle>
		<circle cx="390" cy="197" r="2"></circle>
		<circle cx="390" cy="125" r="2"></circle>
		<circle cx="390" cy="173" r="2"></circle>
		<circle cx="390" cy="221" r="2"></circle>
		<circle cx="390" cy="245" r="2"></circle>
		<circle cx="366" cy="437" r="2"></circle>
		<circle cx="366" cy="485" r="2"></circle>
		<circle cx="414" cy="437" r="2"></circle>
		<circle cx="414" cy="485" r="2"></circle>
		<circle cx="366" cy="461" r="2"></circle>
		<circle cx="414" cy="461" r="2"></circle>
		<circle cx="390" cy="437" r="2"></circle>
		<circle cx="390" cy="485" r="2"></circle>
		<circle cx="390" cy="461" r="2"></circle>
		<circle cx="366" cy="29" r="2"></circle>
		<circle cx="414" cy="29" r="2"></circle>
		<circle cx="366" cy="5" r="2"></circle>
		<circle cx="366" cy="53" r="2"></circle>
		<circle cx="366" cy="77" r="2"></circle>
		<circle cx="414" cy="5" r="2"></circle>
		<circle cx="414" cy="53" r="2"></circle>
		<circle cx="414" cy="77" r="2"></circle>
		<circle cx="390" cy="29" r="2"></circle>
		<circle cx="390" cy="5" r="2"></circle>
		<circle cx="390" cy="53" r="2"></circle>
		<circle cx="390" cy="77" r="2"></circle>
		<circle cx="30" cy="101" r="2"></circle>
		<circle cx="30" cy="149" r="2"></circle>
		<circle cx="30" cy="197" r="2"></circle>
		<circle cx="78" cy="101" r="2"></circle>
		<circle cx="150" cy="101" r="2"></circle>
		<circle cx="78" cy="149" r="2"></circle>
		<circle cx="78" cy="197" r="2"></circle>
		<circle cx="150" cy="149" r="2"></circle>
		<circle cx="150" cy="197" r="2"></circle>
		<circle cx="30" cy="125" r="2"></circle>
		<circle cx="30" cy="173" r="2"></circle>
		<circle cx="30" cy="221" r="2"></circle>
		<circle cx="30" cy="245" r="2"></circle>
		<circle cx="78" cy="125" r="2"></circle>
		<circle cx="150" cy="125" r="2"></circle>
		<circle cx="78" cy="173" r="2"></circle>
		<circle cx="78" cy="221" r="2"></circle>
		<circle cx="78" cy="245" r="2"></circle>
		<circle cx="150" cy="173" r="2"></circle>
		<circle cx="150" cy="221" r="2"></circle>
		<circle cx="150" cy="245" r="2"></circle>
		<circle cx="54" cy="101" r="2"></circle>
		<circle cx="126" cy="101" r="2"></circle>
		<circle cx="54" cy="149" r="2"></circle>
		<circle cx="54" cy="197" r="2"></circle>
		<circle cx="126" cy="149" r="2"></circle>
		<circle cx="126" cy="197" r="2"></circle>
		<circle cx="102" cy="101" r="2"></circle>
		<circle cx="174" cy="101" r="2"></circle>
		<circle cx="102" cy="149" r="2"></circle>
		<circle cx="102" cy="197" r="2"></circle>
		<circle cx="174" cy="149" r="2"></circle>
		<circle cx="174" cy="197" r="2"></circle>
		<circle cx="54" cy="125" r="2"></circle>
		<circle cx="126" cy="125" r="2"></circle>
		<circle cx="54" cy="173" r="2"></circle>
		<circle cx="54" cy="221" r="2"></circle>
		<circle cx="54" cy="245" r="2"></circle>
		<circle cx="126" cy="173" r="2"></circle>
		<circle cx="126" cy="221" r="2"></circle>
		<circle cx="126" cy="245" r="2"></circle>
		<circle cx="102" cy="125" r="2"></circle>
		<circle cx="174" cy="125" r="2"></circle>
		<circle cx="102" cy="173" r="2"></circle>
		<circle cx="102" cy="221" r="2"></circle>
		<circle cx="102" cy="245" r="2"></circle>
		<circle cx="174" cy="173" r="2"></circle>
		<circle cx="174" cy="221" r="2"></circle>
		<circle cx="174" cy="245" r="2"></circle>
		<circle cx="30" cy="437" r="2"></circle>
		<circle cx="30" cy="485" r="2"></circle>
		<circle cx="78" cy="437" r="2"></circle>
		<circle cx="150" cy="437" r="2"></circle>
		<circle cx="78" cy="485" r="2"></circle>
		<circle cx="150" cy="485" r="2"></circle>
		<circle cx="30" cy="461" r="2"></circle>
		<circle cx="78" cy="461" r="2"></circle>
		<circle cx="150" cy="461" r="2"></circle>
		<circle cx="54" cy="437" r="2"></circle>
		<circle cx="126" cy="437" r="2"></circle>
		<circle cx="54" cy="485" r="2"></circle>
		<circle cx="126" cy="485" r="2"></circle>
		<circle cx="102" cy="437" r="2"></circle>
		<circle cx="174" cy="437" r="2"></circle>
		<circle cx="102" cy="485" r="2"></circle>
		<circle cx="174" cy="485" r="2"></circle>
		<circle cx="54" cy="461" r="2"></circle>
		<circle cx="126" cy="461" r="2"></circle>
		<circle cx="102" cy="461" r="2"></circle>
		<circle cx="174" cy="461" r="2"></circle>
		<circle cx="30" cy="29" r="2"></circle>
		<circle cx="78" cy="29" r="2"></circle>
		<circle cx="150" cy="29" r="2"></circle>
		<circle cx="30" cy="5" r="2"></circle>
		<circle cx="30" cy="53" r="2"></circle>
		<circle cx="30" cy="77" r="2"></circle>
		<circle cx="78" cy="5" r="2"></circle>
		<circle cx="78" cy="53" r="2"></circle>
		<circle cx="78" cy="77" r="2"></circle>
		<circle cx="150" cy="5" r="2"></circle>
		<circle cx="150" cy="53" r="2"></circle>
		<circle cx="150" cy="77" r="2"></circle>
		<circle cx="54" cy="29" r="2"></circle>
		<circle cx="126" cy="29" r="2"></circle>
		<circle cx="102" cy="29" r="2"></circle>
		<circle cx="174" cy="29" r="2"></circle>
		<circle cx="54" cy="5" r="2"></circle>
		<circle cx="54" cy="53" r="2"></circle>
		<circle cx="54" cy="77" r="2"></circle>
		<circle cx="126" cy="5" r="2"></circle>
		<circle cx="126" cy="53" r="2"></circle>
		<circle cx="126" cy="77" r="2"></circle>
		<circle cx="102" cy="5" r="2"></circle>
		<circle cx="102" cy="53" r="2"></circle>
		<circle cx="102" cy="77" r="2"></circle>
		<circle cx="174" cy="5" r="2"></circle>
		<circle cx="174" cy="53" r="2"></circle>
		<circle cx="174" cy="77" r="2"></circle>
		<circle cx="366" cy="269" r="2"></circle>
		<circle cx="366" cy="317" r="2"></circle>
		<circle cx="366" cy="365" r="2"></circle>
		<circle cx="414" cy="269" r="2"></circle>
		<circle cx="414" cy="317" r="2"></circle>
		<circle cx="414" cy="365" r="2"></circle>
		<circle cx="366" cy="293" r="2"></circle>
		<circle cx="366" cy="341" r="2"></circle>
		<circle cx="366" cy="389" r="2"></circle>
		<circle cx="366" cy="413" r="2"></circle>
		<circle cx="414" cy="293" r="2"></circle>
		<circle cx="414" cy="341" r="2"></circle>
		<circle cx="414" cy="389" r="2"></circle>
		<circle cx="414" cy="413" r="2"></circle>
		<circle cx="390" cy="269" r="2"></circle>
		<circle cx="390" cy="317" r="2"></circle>
		<circle cx="390" cy="365" r="2"></circle>
		<circle cx="390" cy="293" r="2"></circle>
		<circle cx="390" cy="341" r="2"></circle>
		<circle cx="390" cy="389" r="2"></circle>
		<circle cx="390" cy="413" r="2"></circle>
		<circle cx="30" cy="269" r="2"></circle>
		<circle cx="30" cy="317" r="2"></circle>
		<circle cx="30" cy="365" r="2"></circle>
		<circle cx="78" cy="269" r="2"></circle>
		<circle cx="150" cy="269" r="2"></circle>
		<circle cx="78" cy="317" r="2"></circle>
		<circle cx="78" cy="365" r="2"></circle>
		<circle cx="150" cy="317" r="2"></circle>
		<circle cx="150" cy="365" r="2"></circle>
		<circle cx="30" cy="293" r="2"></circle>
		<circle cx="30" cy="341" r="2"></circle>
		<circle cx="30" cy="389" r="2"></circle>
		<circle cx="30" cy="413" r="2"></circle>
		<circle cx="78" cy="293" r="2"></circle>
		<circle cx="150" cy="293" r="2"></circle>
		<circle cx="78" cy="341" r="2"></circle>
		<circle cx="78" cy="389" r="2"></circle>
		<circle cx="78" cy="413" r="2"></circle>
		<circle cx="150" cy="341" r="2"></circle>
		<circle cx="150" cy="389" r="2"></circle>
		<circle cx="150" cy="413" r="2"></circle>
		<circle cx="54" cy="269" r="2"></circle>
		<circle cx="126" cy="269" r="2"></circle>
		<circle cx="54" cy="317" r="2"></circle>
		<circle cx="54" cy="365" r="2"></circle>
		<circle cx="126" cy="317" r="2"></circle>
		<circle cx="126" cy="365" r="2"></circle>
		<circle cx="102" cy="269" r="2"></circle>
		<circle cx="174" cy="269" r="2"></circle>
		<circle cx="102" cy="317" r="2"></circle>
		<circle cx="102" cy="365" r="2"></circle>
		<circle cx="174" cy="317" r="2"></circle>
		<circle cx="174" cy="365" r="2"></circle>
		<circle cx="54" cy="293" r="2"></circle>
		<circle cx="126" cy="293" r="2"></circle>
		<circle cx="54" cy="341" r="2"></circle>
		<circle cx="54" cy="389" r="2"></circle>
		<circle cx="54" cy="413" r="2"></circle>
		<circle cx="126" cy="341" r="2"></circle>
		<circle cx="126" cy="389" r="2"></circle>
		<circle cx="126" cy="413" r="2"></circle>
		<circle cx="102" cy="293" r="2"></circle>
		<circle cx="174" cy="293" r="2"></circle>
		<circle cx="102" cy="341" r="2"></circle>
		<circle cx="102" cy="389" r="2"></circle>
		<circle cx="102" cy="413" r="2"></circle>
		<circle cx="174" cy="341" r="2"></circle>
		<circle cx="174" cy="389" r="2"></circle>
		<circle cx="174" cy="413" r="2"></circle>
	</g>
	</g>
</svg>