<svg width="270" height="270" viewBox="0 0 270 270" fill="none" xmlns="http://www.w3.org/2000/svg">
<path d="M177.696 70.5961C178.691 70.5961 179.496 69.7902 179.496 68.7961C179.496 67.802 178.691 66.9961 177.696 66.9961C176.702 66.9961 175.896 67.802 175.896 68.7961C175.896 69.7902 176.702 70.5961 177.696 70.5961Z" fill="#D7DFFE"/>
<path d="M134.497 70.5961C135.491 70.5961 136.297 69.7902 136.297 68.7961C136.297 67.802 135.491 66.9961 134.497 66.9961C133.503 66.9961 132.697 67.802 132.697 68.7961C132.697 69.7902 133.503 70.5961 134.497 70.5961Z" fill="#D7DFFE"/>
<path d="M91.2961 70.5961C92.2902 70.5961 93.0961 69.7902 93.0961 68.7961C93.0961 67.802 92.2902 66.9961 91.2961 66.9961C90.302 66.9961 89.4961 67.802 89.4961 68.7961C89.4961 69.7902 90.302 70.5961 91.2961 70.5961Z" fill="#D7DFFE"/>
<path d="M177.696 113.795C178.691 113.795 179.496 112.989 179.496 111.995C179.496 111.001 178.691 110.195 177.696 110.195C176.702 110.195 175.896 111.001 175.896 111.995C175.896 112.989 176.702 113.795 177.696 113.795Z" fill="#D7DFFE"/>
<path d="M177.696 178.596C178.691 178.596 179.496 177.79 179.496 176.796C179.496 175.802 178.691 174.996 177.696 174.996C176.702 174.996 175.896 175.802 175.896 176.796C175.896 177.79 176.702 178.596 177.696 178.596Z" fill="#D7DFFE"/>
<path d="M134.497 113.795C135.491 113.795 136.297 112.989 136.297 111.995C136.297 111.001 135.491 110.195 134.497 110.195C133.503 110.195 132.697 111.001 132.697 111.995C132.697 112.989 133.503 113.795 134.497 113.795Z" fill="#D7DFFE"/>
<path d="M91.2961 113.795C92.2902 113.795 93.0961 112.989 93.0961 111.995C93.0961 111.001 92.2902 110.195 91.2961 110.195C90.302 110.195 89.4961 111.001 89.4961 111.995C89.4961 112.989 90.302 113.795 91.2961 113.795Z" fill="#D7DFFE"/>
<path d="M134.497 178.596C135.491 178.596 136.297 177.79 136.297 176.796C136.297 175.802 135.491 174.996 134.497 174.996C133.503 174.996 132.697 175.802 132.697 176.796C132.697 177.79 133.503 178.596 134.497 178.596Z" fill="#D7DFFE"/>
<path d="M91.2961 178.596C92.2902 178.596 93.0961 177.79 93.0961 176.796C93.0961 175.802 92.2902 174.996 91.2961 174.996C90.302 174.996 89.4961 175.802 89.4961 176.796C89.4961 177.79 90.302 178.596 91.2961 178.596Z" fill="#D7DFFE"/>
<path d="M156.097 70.5961C157.091 70.5961 157.897 69.7902 157.897 68.7961C157.897 67.802 157.091 66.9961 156.097 66.9961C155.103 66.9961 154.297 67.802 154.297 68.7961C154.297 69.7902 155.103 70.5961 156.097 70.5961Z" fill="#D7DFFE"/>
<path d="M112.896 70.5961C113.89 70.5961 114.696 69.7902 114.696 68.7961C114.696 67.802 113.89 66.9961 112.896 66.9961C111.902 66.9961 111.096 67.802 111.096 68.7961C111.096 69.7902 111.902 70.5961 112.896 70.5961Z" fill="#D7DFFE"/>
<path d="M69.6965 70.5961C70.6906 70.5961 71.4965 69.7902 71.4965 68.7961C71.4965 67.802 70.6906 66.9961 69.6965 66.9961C68.7024 66.9961 67.8965 67.802 67.8965 68.7961C67.8965 69.7902 68.7024 70.5961 69.6965 70.5961Z" fill="#D7DFFE"/>
<path d="M156.097 113.795C157.091 113.795 157.897 112.989 157.897 111.995C157.897 111.001 157.091 110.195 156.097 110.195C155.103 110.195 154.297 111.001 154.297 111.995C154.297 112.989 155.103 113.795 156.097 113.795Z" fill="#D7DFFE"/>
<path d="M156.097 178.596C157.091 178.596 157.897 177.79 157.897 176.796C157.897 175.802 157.091 174.996 156.097 174.996C155.103 174.996 154.297 175.802 154.297 176.796C154.297 177.79 155.103 178.596 156.097 178.596Z" fill="#D7DFFE"/>
<path d="M112.896 113.795C113.89 113.795 114.696 112.989 114.696 111.995C114.696 111.001 113.89 110.195 112.896 110.195C111.902 110.195 111.096 111.001 111.096 111.995C111.096 112.989 111.902 113.795 112.896 113.795Z" fill="#D7DFFE"/>
<path d="M69.6965 113.795C70.6906 113.795 71.4965 112.989 71.4965 111.995C71.4965 111.001 70.6906 110.195 69.6965 110.195C68.7024 110.195 67.8965 111.001 67.8965 111.995C67.8965 112.989 68.7024 113.795 69.6965 113.795Z" fill="#D7DFFE"/>
<path d="M112.896 178.596C113.89 178.596 114.696 177.79 114.696 176.796C114.696 175.802 113.89 174.996 112.896 174.996C111.902 174.996 111.096 175.802 111.096 176.796C111.096 177.79 111.902 178.596 112.896 178.596Z" fill="#D7DFFE"/>
<path d="M69.6965 178.596C70.6906 178.596 71.4965 177.79 71.4965 176.796C71.4965 175.802 70.6906 174.996 69.6965 174.996C68.7024 174.996 67.8965 175.802 67.8965 176.796C67.8965 177.79 68.7024 178.596 69.6965 178.596Z" fill="#D7DFFE"/>
<path d="M177.696 92.1957C178.691 92.1957 179.496 91.3898 179.496 90.3957C179.496 89.4016 178.691 88.5957 177.696 88.5957C176.702 88.5957 175.896 89.4016 175.896 90.3957C175.896 91.3898 176.702 92.1957 177.696 92.1957Z" fill="#D7DFFE"/>
<path d="M177.696 156.995C178.691 156.995 179.496 156.189 179.496 155.195C179.496 154.2 178.691 153.395 177.696 153.395C176.702 153.395 175.896 154.2 175.896 155.195C175.896 156.189 176.702 156.995 177.696 156.995Z" fill="#D7DFFE"/>
<path d="M134.497 92.1957C135.491 92.1957 136.297 91.3898 136.297 90.3957C136.297 89.4016 135.491 88.5957 134.497 88.5957C133.503 88.5957 132.697 89.4016 132.697 90.3957C132.697 91.3898 133.503 92.1957 134.497 92.1957Z" fill="#D7DFFE"/>
<path d="M91.2961 92.1957C92.2902 92.1957 93.0961 91.3898 93.0961 90.3957C93.0961 89.4016 92.2902 88.5957 91.2961 88.5957C90.302 88.5957 89.4961 89.4016 89.4961 90.3957C89.4961 91.3898 90.302 92.1957 91.2961 92.1957Z" fill="#D7DFFE"/>
<path d="M134.497 156.995C135.491 156.995 136.297 156.189 136.297 155.195C136.297 154.2 135.491 153.395 134.497 153.395C133.503 153.395 132.697 154.2 132.697 155.195C132.697 156.189 133.503 156.995 134.497 156.995Z" fill="#D7DFFE"/>
<path d="M91.2961 156.995C92.2902 156.995 93.0961 156.189 93.0961 155.195C93.0961 154.2 92.2902 153.395 91.2961 153.395C90.302 153.395 89.4961 154.2 89.4961 155.195C89.4961 156.189 90.302 156.995 91.2961 156.995Z" fill="#D7DFFE"/>
<path d="M177.696 135.395C178.691 135.395 179.496 134.589 179.496 133.595C179.496 132.601 178.691 131.795 177.696 131.795C176.702 131.795 175.896 132.601 175.896 133.595C175.896 134.589 176.702 135.395 177.696 135.395Z" fill="#D7DFFE"/>
<path d="M177.696 200.196C178.691 200.196 179.496 199.39 179.496 198.396C179.496 197.402 178.691 196.596 177.696 196.596C176.702 196.596 175.896 197.402 175.896 198.396C175.896 199.39 176.702 200.196 177.696 200.196Z" fill="#D7DFFE"/>
<path d="M134.497 135.395C135.491 135.395 136.297 134.589 136.297 133.595C136.297 132.601 135.491 131.795 134.497 131.795C133.503 131.795 132.697 132.601 132.697 133.595C132.697 134.589 133.503 135.395 134.497 135.395Z" fill="#D7DFFE"/>
<path d="M91.2961 135.395C92.2902 135.395 93.0961 134.589 93.0961 133.595C93.0961 132.601 92.2902 131.795 91.2961 131.795C90.302 131.795 89.4961 132.601 89.4961 133.595C89.4961 134.589 90.302 135.395 91.2961 135.395Z" fill="#D7DFFE"/>
<path d="M134.497 200.196C135.491 200.196 136.297 199.39 136.297 198.396C136.297 197.402 135.491 196.596 134.497 196.596C133.503 196.596 132.697 197.402 132.697 198.396C132.697 199.39 133.503 200.196 134.497 200.196Z" fill="#D7DFFE"/>
<path d="M91.2961 200.196C92.2902 200.196 93.0961 199.39 93.0961 198.396C93.0961 197.402 92.2902 196.596 91.2961 196.596C90.302 196.596 89.4961 197.402 89.4961 198.396C89.4961 199.39 90.302 200.196 91.2961 200.196Z" fill="#D7DFFE"/>
<path d="M156.097 92.1957C157.091 92.1957 157.897 91.3898 157.897 90.3957C157.897 89.4016 157.091 88.5957 156.097 88.5957C155.103 88.5957 154.297 89.4016 154.297 90.3957C154.297 91.3898 155.103 92.1957 156.097 92.1957Z" fill="#D7DFFE"/>
<path d="M156.097 156.995C157.091 156.995 157.897 156.189 157.897 155.195C157.897 154.2 157.091 153.395 156.097 153.395C155.103 153.395 154.297 154.2 154.297 155.195C154.297 156.189 155.103 156.995 156.097 156.995Z" fill="#D7DFFE"/>
<path d="M112.896 92.1957C113.89 92.1957 114.696 91.3898 114.696 90.3957C114.696 89.4016 113.89 88.5957 112.896 88.5957C111.902 88.5957 111.096 89.4016 111.096 90.3957C111.096 91.3898 111.902 92.1957 112.896 92.1957Z" fill="#D7DFFE"/>
<path d="M69.6965 92.1957C70.6906 92.1957 71.4965 91.3898 71.4965 90.3957C71.4965 89.4016 70.6906 88.5957 69.6965 88.5957C68.7024 88.5957 67.8965 89.4016 67.8965 90.3957C67.8965 91.3898 68.7024 92.1957 69.6965 92.1957Z" fill="#D7DFFE"/>
<path d="M112.896 156.995C113.89 156.995 114.696 156.189 114.696 155.195C114.696 154.2 113.89 153.395 112.896 153.395C111.902 153.395 111.096 154.2 111.096 155.195C111.096 156.189 111.902 156.995 112.896 156.995Z" fill="#D7DFFE"/>
<path d="M69.6965 156.995C70.6906 156.995 71.4965 156.189 71.4965 155.195C71.4965 154.2 70.6906 153.395 69.6965 153.395C68.7024 153.395 67.8965 154.2 67.8965 155.195C67.8965 156.189 68.7024 156.995 69.6965 156.995Z" fill="#D7DFFE"/>
<path d="M156.097 135.395C157.091 135.395 157.897 134.589 157.897 133.595C157.897 132.601 157.091 131.795 156.097 131.795C155.103 131.795 154.297 132.601 154.297 133.595C154.297 134.589 155.103 135.395 156.097 135.395Z" fill="#D7DFFE"/>
<path d="M156.097 200.196C157.091 200.196 157.897 199.39 157.897 198.396C157.897 197.402 157.091 196.596 156.097 196.596C155.103 196.596 154.297 197.402 154.297 198.396C154.297 199.39 155.103 200.196 156.097 200.196Z" fill="#D7DFFE"/>
<path d="M112.896 135.395C113.89 135.395 114.696 134.589 114.696 133.595C114.696 132.601 113.89 131.795 112.896 131.795C111.902 131.795 111.096 132.601 111.096 133.595C111.096 134.589 111.902 135.395 112.896 135.395Z" fill="#D7DFFE"/>
<path d="M69.6965 135.395C70.6906 135.395 71.4965 134.589 71.4965 133.595C71.4965 132.601 70.6906 131.795 69.6965 131.795C68.7024 131.795 67.8965 132.601 67.8965 133.595C67.8965 134.589 68.7024 135.395 69.6965 135.395Z" fill="#D7DFFE"/>
<path d="M112.896 200.196C113.89 200.196 114.696 199.39 114.696 198.396C114.696 197.402 113.89 196.596 112.896 196.596C111.902 196.596 111.096 197.402 111.096 198.396C111.096 199.39 111.902 200.196 112.896 200.196Z" fill="#D7DFFE"/>
<path d="M69.6965 200.196C70.6906 200.196 71.4965 199.39 71.4965 198.396C71.4965 197.402 70.6906 196.596 69.6965 196.596C68.7024 196.596 67.8965 197.402 67.8965 198.396C67.8965 199.39 68.7024 200.196 69.6965 200.196Z" fill="#D7DFFE"/>
<path d="M199.296 70.5961C200.29 70.5961 201.096 69.7902 201.096 68.7961C201.096 67.802 200.29 66.9961 199.296 66.9961C198.302 66.9961 197.496 67.802 197.496 68.7961C197.496 69.7902 198.302 70.5961 199.296 70.5961Z" fill="#D7DFFE"/>
<path d="M199.296 113.795C200.29 113.795 201.096 112.989 201.096 111.995C201.096 111.001 200.29 110.195 199.296 110.195C198.302 110.195 197.496 111.001 197.496 111.995C197.496 112.989 198.302 113.795 199.296 113.795Z" fill="#D7DFFE"/>
<path d="M199.296 178.596C200.29 178.596 201.096 177.79 201.096 176.796C201.096 175.802 200.29 174.996 199.296 174.996C198.302 174.996 197.496 175.802 197.496 176.796C197.496 177.79 198.302 178.596 199.296 178.596Z" fill="#D7DFFE"/>
<path d="M199.296 92.1957C200.29 92.1957 201.096 91.3898 201.096 90.3957C201.096 89.4016 200.29 88.5957 199.296 88.5957C198.302 88.5957 197.496 89.4016 197.496 90.3957C197.496 91.3898 198.302 92.1957 199.296 92.1957Z" fill="#D7DFFE"/>
<path d="M199.296 156.995C200.29 156.995 201.096 156.189 201.096 155.195C201.096 154.2 200.29 153.395 199.296 153.395C198.302 153.395 197.496 154.2 197.496 155.195C197.496 156.189 198.302 156.995 199.296 156.995Z" fill="#D7DFFE"/>
<path d="M199.296 135.395C200.29 135.395 201.096 134.589 201.096 133.595C201.096 132.601 200.29 131.795 199.296 131.795C198.302 131.795 197.496 132.601 197.496 133.595C197.496 134.589 198.302 135.395 199.296 135.395Z" fill="#D7DFFE"/>
<path d="M199.296 200.196C200.29 200.196 201.096 199.39 201.096 198.396C201.096 197.402 200.29 196.596 199.296 196.596C198.302 196.596 197.496 197.402 197.496 198.396C197.496 199.39 198.302 200.196 199.296 200.196Z" fill="#D7DFFE"/>
<path d="M177.696 221.795C178.691 221.795 179.496 220.989 179.496 219.995C179.496 219.001 178.691 218.195 177.696 218.195C176.702 218.195 175.896 219.001 175.896 219.995C175.896 220.989 176.702 221.795 177.696 221.795Z" fill="#D7DFFE"/>
<path d="M134.497 221.795C135.491 221.795 136.297 220.989 136.297 219.995C136.297 219.001 135.491 218.195 134.497 218.195C133.503 218.195 132.697 219.001 132.697 219.995C132.697 220.989 133.503 221.795 134.497 221.795Z" fill="#D7DFFE"/>
<path d="M91.2961 221.795C92.2902 221.795 93.0961 220.989 93.0961 219.995C93.0961 219.001 92.2902 218.195 91.2961 218.195C90.302 218.195 89.4961 219.001 89.4961 219.995C89.4961 220.989 90.302 221.795 91.2961 221.795Z" fill="#D7DFFE"/>
<path d="M156.097 221.795C157.091 221.795 157.897 220.989 157.897 219.995C157.897 219.001 157.091 218.195 156.097 218.195C155.103 218.195 154.297 219.001 154.297 219.995C154.297 220.989 155.103 221.795 156.097 221.795Z" fill="#D7DFFE"/>
<path d="M112.896 221.795C113.89 221.795 114.696 220.989 114.696 219.995C114.696 219.001 113.89 218.195 112.896 218.195C111.902 218.195 111.096 219.001 111.096 219.995C111.096 220.989 111.902 221.795 112.896 221.795Z" fill="#D7DFFE"/>
<path d="M69.6965 221.795C70.6906 221.795 71.4965 220.989 71.4965 219.995C71.4965 219.001 70.6906 218.195 69.6965 218.195C68.7024 218.195 67.8965 219.001 67.8965 219.995C67.8965 220.989 68.7024 221.795 69.6965 221.795Z" fill="#D7DFFE"/>
<path d="M199.296 221.795C200.29 221.795 201.096 220.989 201.096 219.995C201.096 219.001 200.29 218.195 199.296 218.195C198.302 218.195 197.496 219.001 197.496 219.995C197.496 220.989 198.302 221.795 199.296 221.795Z" fill="#D7DFFE"/>
<path d="M177.696 27.3949C178.691 27.3949 179.496 26.589 179.496 25.5949C179.496 24.6008 178.691 23.7949 177.696 23.7949C176.702 23.7949 175.896 24.6008 175.896 25.5949C175.896 26.589 176.702 27.3949 177.696 27.3949Z" fill="#D7DFFE"/>
<path d="M134.497 27.3949C135.491 27.3949 136.297 26.589 136.297 25.5949C136.297 24.6008 135.491 23.7949 134.497 23.7949C133.503 23.7949 132.697 24.6008 132.697 25.5949C132.697 26.589 133.503 27.3949 134.497 27.3949Z" fill="#D7DFFE"/>
<path d="M91.2961 27.3949C92.2902 27.3949 93.0961 26.589 93.0961 25.5949C93.0961 24.6008 92.2902 23.7949 91.2961 23.7949C90.302 23.7949 89.4961 24.6008 89.4961 25.5949C89.4961 26.589 90.302 27.3949 91.2961 27.3949Z" fill="#D7DFFE"/>
<path d="M156.097 27.3949C157.091 27.3949 157.897 26.589 157.897 25.5949C157.897 24.6008 157.091 23.7949 156.097 23.7949C155.103 23.7949 154.297 24.6008 154.297 25.5949C154.297 26.589 155.103 27.3949 156.097 27.3949Z" fill="#D7DFFE"/>
<path d="M112.896 27.3949C113.89 27.3949 114.696 26.589 114.696 25.5949C114.696 24.6008 113.89 23.7949 112.896 23.7949C111.902 23.7949 111.096 24.6008 111.096 25.5949C111.096 26.589 111.902 27.3949 112.896 27.3949Z" fill="#D7DFFE"/>
<path d="M69.6965 27.3949C70.6906 27.3949 71.4965 26.589 71.4965 25.5949C71.4965 24.6008 70.6906 23.7949 69.6965 23.7949C68.7024 23.7949 67.8965 24.6008 67.8965 25.5949C67.8965 26.589 68.7024 27.3949 69.6965 27.3949Z" fill="#D7DFFE"/>
<path d="M177.696 5.79531C178.691 5.79531 179.496 4.98942 179.496 3.99531C179.496 3.0012 178.691 2.19531 177.696 2.19531C176.702 2.19531 175.896 3.0012 175.896 3.99531C175.896 4.98942 176.702 5.79531 177.696 5.79531Z" fill="#D7DFFE"/>
<path d="M134.497 5.79531C135.491 5.79531 136.297 4.98942 136.297 3.99531C136.297 3.0012 135.491 2.19531 134.497 2.19531C133.503 2.19531 132.697 3.0012 132.697 3.99531C132.697 4.98942 133.503 5.79531 134.497 5.79531Z" fill="#D7DFFE"/>
<path d="M91.2961 5.79531C92.2902 5.79531 93.0961 4.98942 93.0961 3.99531C93.0961 3.0012 92.2902 2.19531 91.2961 2.19531C90.302 2.19531 89.4961 3.0012 89.4961 3.99531C89.4961 4.98942 90.302 5.79531 91.2961 5.79531Z" fill="#D7DFFE"/>
<path d="M177.696 48.9945C178.691 48.9945 179.496 48.1886 179.496 47.1945C179.496 46.2004 178.691 45.3945 177.696 45.3945C176.702 45.3945 175.896 46.2004 175.896 47.1945C175.896 48.1886 176.702 48.9945 177.696 48.9945Z" fill="#D7DFFE"/>
<path d="M134.497 48.9945C135.491 48.9945 136.297 48.1886 136.297 47.1945C136.297 46.2004 135.491 45.3945 134.497 45.3945C133.503 45.3945 132.697 46.2004 132.697 47.1945C132.697 48.1886 133.503 48.9945 134.497 48.9945Z" fill="#D7DFFE"/>
<path d="M91.2961 48.9945C92.2902 48.9945 93.0961 48.1886 93.0961 47.1945C93.0961 46.2004 92.2902 45.3945 91.2961 45.3945C90.302 45.3945 89.4961 46.2004 89.4961 47.1945C89.4961 48.1886 90.302 48.9945 91.2961 48.9945Z" fill="#D7DFFE"/>
<path d="M156.097 5.79531C157.091 5.79531 157.897 4.98942 157.897 3.99531C157.897 3.0012 157.091 2.19531 156.097 2.19531C155.103 2.19531 154.297 3.0012 154.297 3.99531C154.297 4.98942 155.103 5.79531 156.097 5.79531Z" fill="#D7DFFE"/>
<path d="M112.896 5.79531C113.89 5.79531 114.696 4.98942 114.696 3.99531C114.696 3.0012 113.89 2.19531 112.896 2.19531C111.902 2.19531 111.096 3.0012 111.096 3.99531C111.096 4.98942 111.902 5.79531 112.896 5.79531Z" fill="#D7DFFE"/>
<path d="M69.6965 5.79531C70.6906 5.79531 71.4965 4.98942 71.4965 3.99531C71.4965 3.0012 70.6906 2.19531 69.6965 2.19531C68.7024 2.19531 67.8965 3.0012 67.8965 3.99531C67.8965 4.98942 68.7024 5.79531 69.6965 5.79531Z" fill="#D7DFFE"/>
<path d="M156.097 48.9945C157.091 48.9945 157.897 48.1886 157.897 47.1945C157.897 46.2004 157.091 45.3945 156.097 45.3945C155.103 45.3945 154.297 46.2004 154.297 47.1945C154.297 48.1886 155.103 48.9945 156.097 48.9945Z" fill="#D7DFFE"/>
<path d="M112.896 48.9945C113.89 48.9945 114.696 48.1886 114.696 47.1945C114.696 46.2004 113.89 45.3945 112.896 45.3945C111.902 45.3945 111.096 46.2004 111.096 47.1945C111.096 48.1886 111.902 48.9945 112.896 48.9945Z" fill="#D7DFFE"/>
<path d="M69.6965 48.9945C70.6906 48.9945 71.4965 48.1886 71.4965 47.1945C71.4965 46.2004 70.6906 45.3945 69.6965 45.3945C68.7024 45.3945 67.8965 46.2004 67.8965 47.1945C67.8965 48.1886 68.7024 48.9945 69.6965 48.9945Z" fill="#D7DFFE"/>
<path d="M199.296 27.3949C200.29 27.3949 201.096 26.589 201.096 25.5949C201.096 24.6008 200.29 23.7949 199.296 23.7949C198.302 23.7949 197.496 24.6008 197.496 25.5949C197.496 26.589 198.302 27.3949 199.296 27.3949Z" fill="#D7DFFE"/>
<path d="M199.296 5.79531C200.29 5.79531 201.096 4.98942 201.096 3.99531C201.096 3.0012 200.29 2.19531 199.296 2.19531C198.302 2.19531 197.496 3.0012 197.496 3.99531C197.496 4.98942 198.302 5.79531 199.296 5.79531Z" fill="#D7DFFE"/>
<path d="M199.296 48.9945C200.29 48.9945 201.096 48.1886 201.096 47.1945C201.096 46.2004 200.29 45.3945 199.296 45.3945C198.302 45.3945 197.496 46.2004 197.496 47.1945C197.496 48.1886 198.302 48.9945 199.296 48.9945Z" fill="#D7DFFE"/>
<path d="M264.196 70.5961C265.191 70.5961 265.996 69.7902 265.996 68.7961C265.996 67.802 265.191 66.9961 264.196 66.9961C263.202 66.9961 262.396 67.802 262.396 68.7961C262.396 69.7902 263.202 70.5961 264.196 70.5961Z" fill="#D7DFFE"/>
<path d="M220.995 70.5961C221.989 70.5961 222.795 69.7902 222.795 68.7961C222.795 67.802 221.989 66.9961 220.995 66.9961C220.001 66.9961 219.195 67.802 219.195 68.7961C219.195 69.7902 220.001 70.5961 220.995 70.5961Z" fill="#D7DFFE"/>
<path d="M264.196 113.795C265.191 113.795 265.996 112.989 265.996 111.995C265.996 111.001 265.191 110.195 264.196 110.195C263.202 110.195 262.396 111.001 262.396 111.995C262.396 112.989 263.202 113.795 264.196 113.795Z" fill="#D7DFFE"/>
<path d="M220.995 113.795C221.989 113.795 222.795 112.989 222.795 111.995C222.795 111.001 221.989 110.195 220.995 110.195C220.001 110.195 219.195 111.001 219.195 111.995C219.195 112.989 220.001 113.795 220.995 113.795Z" fill="#D7DFFE"/>
<path d="M264.196 178.596C265.191 178.596 265.996 177.79 265.996 176.796C265.996 175.802 265.191 174.996 264.196 174.996C263.202 174.996 262.396 175.802 262.396 176.796C262.396 177.79 263.202 178.596 264.196 178.596Z" fill="#D7DFFE"/>
<path d="M220.995 178.596C221.989 178.596 222.795 177.79 222.795 176.796C222.795 175.802 221.989 174.996 220.995 174.996C220.001 174.996 219.195 175.802 219.195 176.796C219.195 177.79 220.001 178.596 220.995 178.596Z" fill="#D7DFFE"/>
<path d="M242.595 70.5961C243.589 70.5961 244.395 69.7902 244.395 68.7961C244.395 67.802 243.589 66.9961 242.595 66.9961C241.601 66.9961 240.795 67.802 240.795 68.7961C240.795 69.7902 241.601 70.5961 242.595 70.5961Z" fill="#D7DFFE"/>
<path d="M242.595 113.795C243.589 113.795 244.395 112.989 244.395 111.995C244.395 111.001 243.589 110.195 242.595 110.195C241.601 110.195 240.795 111.001 240.795 111.995C240.795 112.989 241.601 113.795 242.595 113.795Z" fill="#D7DFFE"/>
<path d="M242.595 178.596C243.589 178.596 244.395 177.79 244.395 176.796C244.395 175.802 243.589 174.996 242.595 174.996C241.601 174.996 240.795 175.802 240.795 176.796C240.795 177.79 241.601 178.596 242.595 178.596Z" fill="#D7DFFE"/>
<path d="M264.196 92.1957C265.191 92.1957 265.996 91.3898 265.996 90.3957C265.996 89.4016 265.191 88.5957 264.196 88.5957C263.202 88.5957 262.396 89.4016 262.396 90.3957C262.396 91.3898 263.202 92.1957 264.196 92.1957Z" fill="#D7DFFE"/>
<path d="M220.995 92.1957C221.989 92.1957 222.795 91.3898 222.795 90.3957C222.795 89.4016 221.989 88.5957 220.995 88.5957C220.001 88.5957 219.195 89.4016 219.195 90.3957C219.195 91.3898 220.001 92.1957 220.995 92.1957Z" fill="#D7DFFE"/>
<path d="M264.196 156.995C265.191 156.995 265.996 156.189 265.996 155.195C265.996 154.2 265.191 153.395 264.196 153.395C263.202 153.395 262.396 154.2 262.396 155.195C262.396 156.189 263.202 156.995 264.196 156.995Z" fill="#D7DFFE"/>
<path d="M220.995 156.995C221.989 156.995 222.795 156.189 222.795 155.195C222.795 154.2 221.989 153.395 220.995 153.395C220.001 153.395 219.195 154.2 219.195 155.195C219.195 156.189 220.001 156.995 220.995 156.995Z" fill="#D7DFFE"/>
<path d="M264.196 135.395C265.191 135.395 265.996 134.589 265.996 133.595C265.996 132.601 265.191 131.795 264.196 131.795C263.202 131.795 262.396 132.601 262.396 133.595C262.396 134.589 263.202 135.395 264.196 135.395Z" fill="#D7DFFE"/>
<path d="M220.995 135.395C221.989 135.395 222.795 134.589 222.795 133.595C222.795 132.601 221.989 131.795 220.995 131.795C220.001 131.795 219.195 132.601 219.195 133.595C219.195 134.589 220.001 135.395 220.995 135.395Z" fill="#D7DFFE"/>
<path d="M264.196 200.196C265.191 200.196 265.996 199.39 265.996 198.396C265.996 197.402 265.191 196.596 264.196 196.596C263.202 196.596 262.396 197.402 262.396 198.396C262.396 199.39 263.202 200.196 264.196 200.196Z" fill="#D7DFFE"/>
<path d="M220.995 200.196C221.989 200.196 222.795 199.39 222.795 198.396C222.795 197.402 221.989 196.596 220.995 196.596C220.001 196.596 219.195 197.402 219.195 198.396C219.195 199.39 220.001 200.196 220.995 200.196Z" fill="#D7DFFE"/>
<path d="M242.595 92.1957C243.589 92.1957 244.395 91.3898 244.395 90.3957C244.395 89.4016 243.589 88.5957 242.595 88.5957C241.601 88.5957 240.795 89.4016 240.795 90.3957C240.795 91.3898 241.601 92.1957 242.595 92.1957Z" fill="#D7DFFE"/>
<path d="M242.595 156.995C243.589 156.995 244.395 156.189 244.395 155.195C244.395 154.2 243.589 153.395 242.595 153.395C241.601 153.395 240.795 154.2 240.795 155.195C240.795 156.189 241.601 156.995 242.595 156.995Z" fill="#D7DFFE"/>
<path d="M242.595 135.395C243.589 135.395 244.395 134.589 244.395 133.595C244.395 132.601 243.589 131.795 242.595 131.795C241.601 131.795 240.795 132.601 240.795 133.595C240.795 134.589 241.601 135.395 242.595 135.395Z" fill="#D7DFFE"/>
<path d="M242.595 200.196C243.589 200.196 244.395 199.39 244.395 198.396C244.395 197.402 243.589 196.596 242.595 196.596C241.601 196.596 240.795 197.402 240.795 198.396C240.795 199.39 241.601 200.196 242.595 200.196Z" fill="#D7DFFE"/>
<path d="M264.196 221.795C265.191 221.795 265.996 220.989 265.996 219.995C265.996 219.001 265.191 218.195 264.196 218.195C263.202 218.195 262.396 219.001 262.396 219.995C262.396 220.989 263.202 221.795 264.196 221.795Z" fill="#D7DFFE"/>
<path d="M220.995 221.795C221.989 221.795 222.795 220.989 222.795 219.995C222.795 219.001 221.989 218.195 220.995 218.195C220.001 218.195 219.195 219.001 219.195 219.995C219.195 220.989 220.001 221.795 220.995 221.795Z" fill="#D7DFFE"/>
<path d="M242.595 221.795C243.589 221.795 244.395 220.989 244.395 219.995C244.395 219.001 243.589 218.195 242.595 218.195C241.601 218.195 240.795 219.001 240.795 219.995C240.795 220.989 241.601 221.795 242.595 221.795Z" fill="#D7DFFE"/>
<path d="M264.196 27.3949C265.191 27.3949 265.996 26.589 265.996 25.5949C265.996 24.6008 265.191 23.7949 264.196 23.7949C263.202 23.7949 262.396 24.6008 262.396 25.5949C262.396 26.589 263.202 27.3949 264.196 27.3949Z" fill="#D7DFFE"/>
<path d="M220.995 27.3949C221.989 27.3949 222.795 26.589 222.795 25.5949C222.795 24.6008 221.989 23.7949 220.995 23.7949C220.001 23.7949 219.195 24.6008 219.195 25.5949C219.195 26.589 220.001 27.3949 220.995 27.3949Z" fill="#D7DFFE"/>
<path d="M242.595 27.3949C243.589 27.3949 244.395 26.589 244.395 25.5949C244.395 24.6008 243.589 23.7949 242.595 23.7949C241.601 23.7949 240.795 24.6008 240.795 25.5949C240.795 26.589 241.601 27.3949 242.595 27.3949Z" fill="#D7DFFE"/>
<path d="M264.196 5.79531C265.191 5.79531 265.996 4.98942 265.996 3.99531C265.996 3.0012 265.191 2.19531 264.196 2.19531C263.202 2.19531 262.396 3.0012 262.396 3.99531C262.396 4.98942 263.202 5.79531 264.196 5.79531Z" fill="#D7DFFE"/>
<path d="M220.995 5.79531C221.989 5.79531 222.795 4.98942 222.795 3.99531C222.795 3.0012 221.989 2.19531 220.995 2.19531C220.001 2.19531 219.195 3.0012 219.195 3.99531C219.195 4.98942 220.001 5.79531 220.995 5.79531Z" fill="#D7DFFE"/>
<path d="M264.196 48.9945C265.191 48.9945 265.996 48.1886 265.996 47.1945C265.996 46.2004 265.191 45.3945 264.196 45.3945C263.202 45.3945 262.396 46.2004 262.396 47.1945C262.396 48.1886 263.202 48.9945 264.196 48.9945Z" fill="#D7DFFE"/>
<path d="M220.995 48.9945C221.989 48.9945 222.795 48.1886 222.795 47.1945C222.795 46.2004 221.989 45.3945 220.995 45.3945C220.001 45.3945 219.195 46.2004 219.195 47.1945C219.195 48.1886 220.001 48.9945 220.995 48.9945Z" fill="#D7DFFE"/>
<path d="M242.595 5.79531C243.589 5.79531 244.395 4.98942 244.395 3.99531C244.395 3.0012 243.589 2.19531 242.595 2.19531C241.601 2.19531 240.795 3.0012 240.795 3.99531C240.795 4.98942 241.601 5.79531 242.595 5.79531Z" fill="#D7DFFE"/>
<path d="M242.595 48.9945C243.589 48.9945 244.395 48.1886 244.395 47.1945C244.395 46.2004 243.589 45.3945 242.595 45.3945C241.601 45.3945 240.795 46.2004 240.795 47.1945C240.795 48.1886 241.601 48.9945 242.595 48.9945Z" fill="#D7DFFE"/>
<path d="M34.1828 52.8304C37.1552 52.8304 39.5648 50.4208 39.5648 47.4484C39.5648 44.476 37.1552 42.0664 34.1828 42.0664C31.2104 42.0664 28.8008 44.476 28.8008 47.4484C28.8008 50.4208 31.2104 52.8304 34.1828 52.8304Z" fill="#3761FB"/>
<path d="M213.301 191.152V245.467C214.546 245.785 215.646 246.515 216.424 247.538C217.202 248.56 217.611 249.816 217.585 251.101H205.921C205.921 251.101 205.921 247.06 199.621 245.656C191.602 243.856 188.578 239.356 188.821 236.539H190.333L186.679 207.829L193.213 197.803V182.449C193.213 181.162 193.724 179.928 194.634 179.018C195.544 178.109 196.777 177.598 198.064 177.598H217.297C217.33 178.77 217.663 179.915 218.263 180.923C218.863 181.931 219.711 182.769 220.726 183.358C220.177 185.143 219.22 186.776 217.931 188.129C216.643 189.482 215.058 190.516 213.301 191.152ZM179.056 236.539L176.401 223.588C168.994 230.707 167.131 240.688 166.708 246.43C168.814 247.204 169.129 248.653 170.164 251.101H180.505V236.539H179.056ZM114.499 27.0906C116.155 27.4056 121.051 27.6846 120.853 29.8716C111.727 31.8516 110.053 42.9666 116.029 51.4716C116.029 51.4716 112.429 35.3886 125.092 40.6716C127.979 41.7893 131.132 42.0304 134.155 41.3646C134.155 41.3646 135.244 44.3526 133.39 48.4476C133.261 49.5639 132.814 50.6198 132.103 51.4896C133.771 50.4744 135.206 49.1182 136.313 47.5098C137.421 45.9014 138.176 44.0772 138.529 42.1566C139.915 35.4066 131.185 28.2696 124.426 29.8536C125.74 26.6766 124.633 19.4316 118.279 18.6216C109.738 17.5596 110.332 26.2896 114.499 27.0906ZM146.062 35.1906C144.379 29.3046 146.377 20.0436 151.156 22.8066C155.935 25.5696 158.932 21.6996 162.226 22.8066C165.52 23.9136 164.395 36.5496 164.395 36.5496C175.969 30.7446 170.785 17.0556 165.763 16.6956C160.741 16.3356 154.801 12.6006 151.129 10.8006C146.341 8.43363 143.479 10.9806 141.823 14.1306C140.06 17.57 139.714 21.5634 140.86 25.2546C142.201 29.7006 144.343 35.8566 146.062 35.2176V35.1906ZM140.194 128.548L144.397 231.841H119.026L118.558 138.403L98.407 231.868H64L100.9 119.998L105.346 129.178L101.845 133.795L113.221 134.299C113.382 134.306 113.543 134.281 113.694 134.224C113.844 134.168 113.982 134.082 114.099 133.971C114.216 133.86 114.309 133.727 114.373 133.579C114.437 133.431 114.471 133.272 114.472 133.111V118.324L109.9 123.526L106.228 111.169L136.369 112.069V105.544C136.369 105.544 127.684 103.744 127.684 97.9026V58.3656L132.031 51.5076L141.931 52.0566C143.297 54.3566 145.247 56.2543 147.583 57.5568C149.919 58.8593 152.559 59.5203 155.233 59.4726C157.954 59.4856 160.634 58.813 163.027 57.5169C165.419 56.2207 167.447 54.3429 168.922 52.0566C168.922 52.0566 179.614 51.4356 181.171 59.4726C182.728 67.5096 181.171 96.4896 181.171 96.4896C181.171 96.4896 179.695 103.204 175.276 102.943V120.043H136.441V128.674L140.194 128.548ZM164.872 96.4626L177.346 92.6826C177.346 92.6826 174.853 89.6586 164.872 90.7926V96.4626Z" fill="url(#paint0_linear)"/>
<path d="M116.884 41.4004C116.884 41.4004 113.095 55.8004 121.456 58.0774C130.78 60.6604 134.155 45.9634 134.155 45.9634" stroke="#5E329C" stroke-width="3" stroke-linecap="round" stroke-linejoin="round"/>
<path d="M145.954 31.8066C145.954 31.8066 145.054 44.0106 153.892 45.8376C162.73 47.6646 165.592 35.2896 164.692 30.6816" stroke="#5E329C" stroke-width="3" stroke-linecap="round" stroke-linejoin="round"/>
<path d="M122.104 70.561L116.029 59.752" stroke="#5E329C" stroke-width="3" stroke-linecap="round" stroke-linejoin="round"/>
<path d="M105.111 128.629L94.959 100.351L100.737 70.417C101.16 68.2231 102.333 66.245 104.056 64.8226C105.779 63.4002 107.944 62.6225 110.178 62.623H117.639" stroke="#5E329C" stroke-width="3" stroke-linecap="round" stroke-linejoin="round"/>
<path d="M109.081 123.527L103.348 100.136L107.533 89.1016" stroke="#5E329C" stroke-width="3" stroke-linecap="round" stroke-linejoin="round"/>
<path d="M106.301 111.168H136.442" stroke="#5E329C" stroke-width="3" stroke-linecap="round" stroke-linejoin="round"/>
<path d="M112.834 119.998L103.348 131.689" stroke="#5E329C" stroke-width="3" stroke-linecap="round" stroke-linejoin="round"/>
<path d="M101.414 118.324C82.7478 183.601 61.3008 240.067 61.3008 240.067H96.6348L119.063 136.081V240.067H144.731" stroke="#5E329C" stroke-width="3" stroke-linecap="round" stroke-linejoin="round"/>
<path d="M162.748 51.5078H170.614C172.075 51.5078 173.521 51.7955 174.871 52.3546C176.22 52.9136 177.447 53.733 178.48 54.766C179.513 55.7989 180.332 57.0252 180.891 58.3748C181.45 59.7245 181.738 61.171 181.738 62.6318V96.4898C181.738 97.3847 181.553 98.2699 181.194 99.0896C180.835 99.9093 180.31 100.646 179.652 101.252C178.994 101.859 178.218 102.322 177.371 102.613C176.525 102.904 175.628 103.016 174.736 102.943L149.797 101.197" stroke="#5E329C" stroke-width="3" stroke-linecap="round" stroke-linejoin="round"/>
<path d="M127.801 56.9883V97.2003C127.802 98.4547 128.097 99.6914 128.664 100.81C129.231 101.93 130.053 102.9 131.064 103.642C132.075 104.385 133.246 104.88 134.484 105.087C135.721 105.293 136.989 105.206 138.187 104.832L164.917 96.4803V90.8103H138.673V71.4963" stroke="#5E329C" stroke-width="3" stroke-linecap="round" stroke-linejoin="round"/>
<path d="M149.798 51.5078H132.104" stroke="#5E329C" stroke-width="3" stroke-linecap="round" stroke-linejoin="round"/>
<path d="M142.039 52.0566C142.039 52.0566 143.839 59.4726 155.341 59.4726C166.843 59.4726 169.03 52.0566 169.03 52.0566" stroke="#5E329C" stroke-width="3" stroke-linecap="round" stroke-linejoin="round"/>
<path d="M171.686 71.4961V78.1111" stroke="#5E329C" stroke-width="3" stroke-linecap="round" stroke-linejoin="round"/>
<path d="M136.441 105.543V128.628L175.384 121.194L190.54 236.538" stroke="#5E329C" stroke-width="3" stroke-linecap="round" stroke-linejoin="round"/>
<path d="M175.385 102.943V121.195" stroke="#5E329C" stroke-width="3" stroke-linecap="round" stroke-linejoin="round"/>
<path d="M158.734 136.629L155.971 236.538H144.73" stroke="#5E329C" stroke-width="3" stroke-linecap="round" stroke-linejoin="round"/>
<path d="M144.729 240.066L140.193 128.574" stroke="#5E329C" stroke-width="3" stroke-linecap="round" stroke-linejoin="round"/>
<path d="M82.7473 240.939V251.1H57.3223C57.3223 251.1 57.5383 246.528 63.6223 245.655C70.0483 244.755 72.9193 240.939 72.9193 240.939" stroke="#5E329C" stroke-width="3" stroke-linecap="round" stroke-linejoin="round"/>
<path d="M144.73 240.939V251.1H170.155C170.155 251.1 169.939 246.528 163.855 245.655C157.429 244.755 154.558 240.939 154.558 240.939" stroke="#5E329C" stroke-width="3" stroke-linecap="round" stroke-linejoin="round"/>
<path d="M180.496 236.539V251.101H205.921C205.921 251.101 205.705 246.529 199.621 245.656C193.195 244.756 190.324 240.94 190.324 240.94" stroke="#5E329C" stroke-width="3" stroke-linecap="round" stroke-linejoin="round"/>
<path d="M130.78 243.819C140.77 243.819 140.194 251.1 140.194 251.1H123.49V240.939" stroke="#5E329C" stroke-width="3" stroke-linecap="round" stroke-linejoin="round"/>
<path d="M190.54 236.538H179.029L158.725 136.629" stroke="#5E329C" stroke-width="3" stroke-linecap="round" stroke-linejoin="round"/>
<path d="M148.141 42.2734V51.1294" stroke="#5E329C" stroke-width="3" stroke-linecap="round" stroke-linejoin="round"/>
<path d="M162.748 41.5625V51.5075" stroke="#5E329C" stroke-width="3" stroke-linecap="round" stroke-linejoin="round"/>
<path d="M203.841 188.272V195.742C203.841 197.206 203.26 198.609 202.225 199.643C201.191 200.678 199.787 201.259 198.324 201.259C196.862 201.257 195.46 200.675 194.426 199.641C193.392 198.607 192.81 197.205 192.807 195.742V182.917C192.807 181.454 193.389 180.051 194.423 179.016C195.458 177.982 196.861 177.4 198.324 177.4H221.535C221.747 180.262 221.069 183.119 219.595 185.58C218.121 188.042 215.923 189.988 213.3 191.152V245.467C214.436 245.467 215.526 245.919 216.33 246.722C217.133 247.526 217.584 248.615 217.584 249.751V251.101H170.154" stroke="#5E329C" stroke-width="3" stroke-linecap="round" stroke-linejoin="round"/>
<path d="M176.194 222.588L172.207 228.456C168.579 233.555 166.629 239.658 166.627 245.916" stroke="#5E329C" stroke-width="3" stroke-linecap="round" stroke-linejoin="round"/>
<path d="M193.141 197.623L186.904 206.803" stroke="#5E329C" stroke-width="3" stroke-linecap="round" stroke-linejoin="round"/>
<path d="M203.842 195.742H213.274" stroke="#5E329C" stroke-width="3" stroke-linecap="round" stroke-linejoin="round"/>
<defs>
<linearGradient id="paint0_linear" x1="69.922" y1="44.5506" x2="196.273" y2="263.395" gradientUnits="userSpaceOnUse">
<stop stop-color="#7390FC"/>
<stop offset="0.35" stop-color="#9F76CE"/>
<stop offset="0.79" stop-color="#D25899"/>
<stop offset="1" stop-color="#E64C84"/>
</linearGradient>
</defs>
</svg>
