<svg width="74" height="89" viewBox="0 0 74 89" fill="none" xmlns="http://www.w3.org/2000/svg">
<path d="M39.8745 35.3114C39.8657 35.3114 39.8569 35.3114 39.8482 35.3114C39.7106 35.3026 25.9734 34.331 25.9734 23.1604V8.54226C25.9734 6.17176 27.902 4.24316 30.2725 4.24316H34.0536C34.2965 4.24316 34.4926 4.43924 34.4926 4.68215C34.4926 4.92505 34.2965 5.12113 34.0536 5.12113H30.2725C28.3849 5.12113 26.8514 6.65464 26.8514 8.54226V23.1574C26.8514 27.48 29.0229 30.6875 33.3073 32.6892C36.5587 34.2081 39.8686 34.4305 39.9008 34.4334C40.1437 34.4481 40.3281 34.6558 40.3105 34.8988C40.2988 35.1329 40.1057 35.3114 39.8745 35.3114Z" fill="#6A2EA0"/>
<path d="M41.4139 35.3114C41.1827 35.3114 40.9896 35.1329 40.9749 34.8988C40.9603 34.6558 41.1447 34.4481 41.3847 34.4334C41.4168 34.4305 44.7268 34.211 47.9782 32.6892C52.2626 30.6875 54.4341 27.48 54.4341 23.1574V8.54226C54.4341 6.65757 52.9006 5.12113 51.013 5.12113H47.2319C46.989 5.12113 46.7929 4.92505 46.7929 4.68215C46.7929 4.43924 46.989 4.24316 47.2319 4.24316H51.013C53.3835 4.24316 55.3121 6.17176 55.3121 8.54226V23.1574C55.3121 34.3281 41.5778 35.2997 41.4373 35.3085C41.4344 35.3114 41.4227 35.3114 41.4139 35.3114Z" fill="#6A2EA0"/>
<path d="M54.2058 61.1441C46.3568 61.1441 39.9681 54.7584 39.9681 46.9064V38.0302C39.9681 37.7873 40.1642 37.5912 40.4071 37.5912C40.65 37.5912 40.8461 37.7873 40.8461 38.0302V46.9064C40.8461 54.2725 46.8397 60.2661 54.2058 60.2661C61.5719 60.2661 67.5655 54.2725 67.5655 46.9064V28.3872C67.5655 28.1443 67.7616 27.9482 68.0045 27.9482C68.2474 27.9482 68.4435 28.1443 68.4435 28.3872V46.9064C68.4435 54.7554 62.0548 61.1441 54.2058 61.1441Z" fill="#6A2EA0"/>
<path d="M68.0045 32.1977C64.8643 32.1977 62.3124 29.6429 62.3124 26.5056C62.3124 23.3654 64.8673 20.8135 68.0045 20.8135C71.1418 20.8135 73.6966 23.3684 73.6966 26.5056C73.6966 29.6429 71.1418 32.1977 68.0045 32.1977ZM68.0045 21.6914C65.3501 21.6914 63.1903 23.8512 63.1903 26.5056C63.1903 29.16 65.3501 31.3198 68.0045 31.3198C70.6589 31.3198 72.8187 29.16 72.8187 26.5056C72.8187 23.8512 70.6589 21.6914 68.0045 21.6914Z" fill="#6A2EA0"/>
<path d="M18.736 22.09C19.7026 22.09 20.4861 21.3065 20.4861 20.3399C20.4861 19.3734 19.7026 18.5898 18.736 18.5898C17.7695 18.5898 16.986 19.3734 16.986 20.3399C16.986 21.3065 17.7695 22.09 18.736 22.09Z" fill="#0061FF"/>
<path d="M33.3016 83.4769C33.0587 83.4769 32.8626 83.2808 32.8626 83.0379V48.9582C32.8626 46.5438 30.8989 44.5801 28.4845 44.5801H9.05222C6.63782 44.5801 4.67411 46.5438 4.67411 48.9582V57.0296C4.67411 57.2725 4.47803 57.4686 4.23512 57.4686C3.99222 57.4686 3.79614 57.2725 3.79614 57.0296V48.9582C3.79614 46.0609 6.15494 43.7021 9.05222 43.7021H28.4845C31.3818 43.7021 33.7406 46.0609 33.7406 48.9582V83.0408C33.7406 83.2808 33.5445 83.4769 33.3016 83.4769Z" fill="#6A2EA0"/>
<path d="M23.8985 57.5655H0.992449C0.749545 57.5655 0.553467 57.3694 0.553467 57.1265C0.553467 56.8836 0.749545 56.6875 0.992449 56.6875H23.8985C24.1414 56.6875 24.3375 56.8836 24.3375 57.1265C24.3375 57.3694 24.1414 57.5655 23.8985 57.5655Z" fill="#6A2EA0"/>
<path d="M27.9987 62.5254H11.8734C11.6305 62.5254 11.4344 62.3293 11.4344 62.0864C11.4344 61.8435 11.6305 61.6475 11.8734 61.6475H28.0016C28.2445 61.6475 28.4406 61.8435 28.4406 62.0864C28.4406 62.3293 28.2416 62.5254 27.9987 62.5254Z" fill="#6A2EA0"/>
<path d="M23.8986 68.0303H8.40541C8.16251 68.0303 7.96643 67.8342 7.96643 67.5913C7.96643 67.3484 8.16251 67.1523 8.40541 67.1523H23.8986C24.1415 67.1523 24.3375 67.3484 24.3375 67.5913C24.3375 67.8342 24.1415 68.0303 23.8986 68.0303Z" fill="#6A2EA0"/>
<path d="M15.2739 83.4768H8.64531C3.85455 83.4768 3.79895 78.7885 3.79895 78.7388V67.7818C3.79895 67.5389 3.99503 67.3428 4.23793 67.3428C4.48084 67.3428 4.67691 67.5389 4.67691 67.7818V78.7388C4.67691 78.8968 4.73837 82.5989 8.64531 82.5989H15.2739C15.5168 82.5989 15.7129 82.795 15.7129 83.0379C15.7129 83.2808 15.5168 83.4768 15.2739 83.4768Z" fill="#6A2EA0"/>
<path d="M34.2819 7.23192H34.2V2.21582H34.2819C35.6662 2.21582 36.79 3.33961 36.79 4.72387C36.79 6.10813 35.6662 7.23192 34.2819 7.23192ZM40.4072 31.7154C38.663 31.7154 37.2495 33.1289 37.2495 34.8732C37.2495 36.6174 38.663 38.0309 40.4072 38.0309C42.1514 38.0309 43.565 36.6174 43.565 34.8732C43.5679 33.1289 42.1544 31.7154 40.4072 31.7154ZM47.0095 7.23192H47.0914V2.21582H47.0095C45.6252 2.21582 44.5014 3.33961 44.5014 4.72387C44.5014 6.10813 45.6252 7.23192 47.0095 7.23192ZM68.0046 19.86C65.6458 19.86 63.7347 21.771 63.7347 24.1298C63.7347 26.4886 65.6458 28.3996 68.0046 28.3996C70.3634 28.3996 72.2744 26.4886 72.2744 24.1298C72.2744 21.771 70.3604 19.86 68.0046 19.86ZM26.4007 44.522C26.4007 45.596 25.5286 46.4682 24.4546 46.4682H13.4332C12.3592 46.4682 11.4871 45.596 11.4871 44.522C11.4871 43.448 12.3592 42.5758 13.4332 42.5758H16.4622C16.471 42.5758 16.4739 42.5671 16.471 42.5612C16.1754 42.1193 16.0057 41.5896 16.0057 41.0189C16.0057 39.5615 17.1265 38.3675 18.5547 38.2504C20.1789 38.1158 21.6041 39.462 21.5632 41.0921C21.5485 41.6335 21.3788 42.1398 21.0978 42.5612C21.0949 42.5671 21.0978 42.5758 21.1066 42.5758H24.4604C25.5286 42.5788 26.4007 43.448 26.4007 44.522ZM20.3252 40.9165C20.3252 40.0883 19.6551 39.4181 18.8268 39.4181C17.9986 39.4181 17.3285 40.0883 17.3285 40.9165C17.3285 41.7447 17.9986 42.4149 18.8268 42.4149C19.6551 42.4149 20.3252 41.7447 20.3252 40.9165ZM31.5134 83.0998C31.5134 86.2341 28.9732 88.7743 25.8389 88.7743C22.7045 88.7743 20.1643 86.2341 20.1643 83.0998C20.1643 79.9654 22.7045 77.4252 25.8389 77.4252C28.9732 77.4252 31.5134 79.9654 31.5134 83.0998ZM28.8356 82.2832H26.6085V80.0561H24.9111V82.2832H22.684V83.9806H24.9111V86.2077H26.6085V83.9806H28.8356V82.2832Z" fill="url(#paint0_linear)"/>
<path d="M34.2001 8.44013C33.9572 8.44013 33.7611 8.24405 33.7611 8.00115V1.31984C33.7611 1.07694 33.9572 0.880859 34.2001 0.880859C34.443 0.880859 34.6391 1.07694 34.6391 1.31984V8.00115C34.6391 8.24405 34.4401 8.44013 34.2001 8.44013Z" fill="#6A2EA0"/>
<path d="M47.0915 8.44013C46.8485 8.44013 46.6525 8.24405 46.6525 8.00115V1.31984C46.6525 1.07694 46.8485 0.880859 47.0915 0.880859C47.3344 0.880859 47.5304 1.07694 47.5304 1.31984V8.00115C47.5304 8.24405 47.3344 8.44013 47.0915 8.44013Z" fill="#6A2EA0"/>
<defs>
<linearGradient id="paint0_linear" x1="11.4882" y1="45.4956" x2="72.2739" y2="45.4956" gradientUnits="userSpaceOnUse">
<stop stop-color="#FF4C84"/>
<stop offset="0.603" stop-color="#9176D0"/>
<stop offset="1" stop-color="#4C90FF"/>
</linearGradient>
</defs>
</svg>
