<svg width="61" height="73" fill="none" xmlns="http://www.w3.org/2000/svg"><path d="M32.355 29.058h-.021c-.113-.007-11.373-.803-11.373-9.96V7.118a3.528 3.528 0 0 1 3.524-3.524h3.099a.36.36 0 1 1 0 .72h-3.1a2.806 2.806 0 0 0-2.803 2.804v11.98c0 3.542 1.78 6.171 5.291 7.812 2.665 1.245 5.378 1.428 5.405 1.43.199.012.35.182.336.381a.356.356 0 0 1-.358.338ZM33.616 29.058a.36.36 0 0 1-.024-.72c.027-.002 2.74-.181 5.405-1.429 3.512-1.64 5.292-4.27 5.292-7.813V7.116a2.808 2.808 0 0 0-2.805-2.804h-3.099a.36.36 0 1 1 0-.72h3.1a3.528 3.528 0 0 1 3.523 3.525v11.98c0 9.155-11.257 9.952-11.373 9.96-.002.002-.011.002-.019.002Z" fill="#6A2EA0"/><path d="M44.102 50.233c-6.434 0-11.67-5.234-11.67-11.67v-7.276a.36.36 0 1 1 .72 0v7.276c0 6.038 4.912 10.95 10.95 10.95 6.038 0 10.95-4.912 10.95-10.95v-15.18a.36.36 0 1 1 .72 0v15.18c0 6.433-5.236 11.67-11.67 11.67Z" fill="#6A2EA0"/><path d="M55.412 26.506a4.671 4.671 0 0 1-4.666-4.666 4.671 4.671 0 0 1 4.666-4.665 4.672 4.672 0 0 1 4.666 4.665 4.672 4.672 0 0 1-4.666 4.666Zm0-8.612a3.95 3.95 0 0 0-3.946 3.947 3.95 3.95 0 0 0 3.946 3.945 3.95 3.95 0 0 0 3.946-3.946 3.95 3.95 0 0 0-3.946-3.946Z" fill="#6A2EA0"/><path d="M15.028 18.221a1.434 1.434 0 1 0 0-2.868 1.434 1.434 0 0 0 0 2.868Z" fill="#0061FF"/><path d="M26.968 68.539a.36.36 0 0 1-.36-.36V40.245a3.592 3.592 0 0 0-3.588-3.589H7.09a3.592 3.592 0 0 0-3.588 3.589v6.616a.36.36 0 1 1-.72 0v-6.616a4.314 4.314 0 0 1 4.308-4.308H23.02a4.314 4.314 0 0 1 4.308 4.308V68.18c0 .197-.16.358-.36.358Z" fill="#6A2EA0"/><path d="M19.26 47.3H.485a.36.36 0 1 1 0-.72H19.26a.36.36 0 1 1 0 .72ZM22.62 51.365H9.403a.36.36 0 1 1 0-.72h13.22a.36.36 0 1 1-.003.72ZM19.26 55.878H6.561a.36.36 0 1 1 0-.72h12.7a.36.36 0 1 1 0 .72ZM12.19 68.538H6.759c-3.927 0-3.973-3.843-3.973-3.884v-8.98a.36.36 0 1 1 .72 0v8.98c0 .13.05 3.165 3.253 3.165h5.433a.36.36 0 1 1 0 .72Z" fill="#6A2EA0"/><path d="M27.772 6.042h-.067V1.931h.067a2.057 2.057 0 0 1 0 4.111Zm5.02 20.069a2.588 2.588 0 1 0 0 5.176 2.588 2.588 0 0 0 0-5.176Zm5.413-20.069h.067V1.931h-.067a2.057 2.057 0 0 0 0 4.111Zm17.209 10.351a3.5 3.5 0 1 0 0 7 3.5 3.5 0 1 0 0-7ZM21.312 36.608c0 .88-.715 1.595-1.595 1.595h-9.034a1.596 1.596 0 0 1 0-3.19h2.483c.007 0 .01-.008.007-.012a2.277 2.277 0 0 1 1.708-3.534c1.331-.11 2.5.993 2.466 2.33A2.281 2.281 0 0 1 16.966 35c-.003.005 0 .012.007.012h2.749c.875.002 1.59.715 1.59 1.595Zm-4.98-2.955a1.228 1.228 0 1 0-2.455-.002 1.228 1.228 0 0 0 2.455.002Zm9.17 34.576a4.65 4.65 0 1 1-9.3 0 4.65 4.65 0 0 1 9.3 0Zm-2.194-.67h-1.825v-1.825H20.09v1.826h-1.825v1.391h1.825v1.826h1.392V68.95h1.825V67.56Z" fill="url(#a)"/><path d="M27.704 7.033a.36.36 0 0 1-.36-.36V1.197a.36.36 0 1 1 .72 0v5.476c0 .2-.164.36-.36.36ZM38.27 7.033a.36.36 0 0 1-.36-.36V1.197a.36.36 0 1 1 .72 0v5.476c0 .2-.16.36-.36.36Z" fill="#6A2EA0"/><defs><linearGradient id="a" x1="9.089" y1="37.406" x2="58.913" y2="37.406" gradientUnits="userSpaceOnUse"><stop stop-color="#FF4C84"/><stop offset=".603" stop-color="#9176D0"/><stop offset="1" stop-color="#4C90FF"/></linearGradient></defs></svg>