<svg width="270" height="270" viewBox="0 0 270 270" fill="none" xmlns="http://www.w3.org/2000/svg">
<path d="M177.696 70.596C178.69 70.596 179.496 69.7901 179.496 68.796C179.496 67.8019 178.69 66.996 177.696 66.996C176.702 66.996 175.896 67.8019 175.896 68.796C175.896 69.7901 176.702 70.596 177.696 70.596Z" fill="#D7DFFE"/>
<path d="M134.496 70.596C135.49 70.596 136.296 69.7901 136.296 68.796C136.296 67.8019 135.49 66.996 134.496 66.996C133.502 66.996 132.696 67.8019 132.696 68.796C132.696 69.7901 133.502 70.596 134.496 70.596Z" fill="#D7DFFE"/>
<path d="M91.2961 70.596C92.2902 70.596 93.0961 69.7901 93.0961 68.796C93.0961 67.8019 92.2902 66.996 91.2961 66.996C90.302 66.996 89.4961 67.8019 89.4961 68.796C89.4961 69.7901 90.302 70.596 91.2961 70.596Z" fill="#D7DFFE"/>
<path d="M177.696 113.796C178.69 113.796 179.496 112.99 179.496 111.996C179.496 111.002 178.69 110.196 177.696 110.196C176.702 110.196 175.896 111.002 175.896 111.996C175.896 112.99 176.702 113.796 177.696 113.796Z" fill="#D7DFFE"/>
<path d="M177.696 178.596C178.69 178.596 179.496 177.79 179.496 176.796C179.496 175.802 178.69 174.996 177.696 174.996C176.702 174.996 175.896 175.802 175.896 176.796C175.896 177.79 176.702 178.596 177.696 178.596Z" fill="#D7DFFE"/>
<path d="M134.496 113.796C135.49 113.796 136.296 112.99 136.296 111.996C136.296 111.002 135.49 110.196 134.496 110.196C133.502 110.196 132.696 111.002 132.696 111.996C132.696 112.99 133.502 113.796 134.496 113.796Z" fill="#D7DFFE"/>
<path d="M91.2961 113.796C92.2902 113.796 93.0961 112.99 93.0961 111.996C93.0961 111.002 92.2902 110.196 91.2961 110.196C90.302 110.196 89.4961 111.002 89.4961 111.996C89.4961 112.99 90.302 113.796 91.2961 113.796Z" fill="#D7DFFE"/>
<path d="M134.496 178.596C135.49 178.596 136.296 177.79 136.296 176.796C136.296 175.802 135.49 174.996 134.496 174.996C133.502 174.996 132.696 175.802 132.696 176.796C132.696 177.79 133.502 178.596 134.496 178.596Z" fill="#D7DFFE"/>
<path d="M91.2961 178.596C92.2902 178.596 93.0961 177.79 93.0961 176.796C93.0961 175.802 92.2902 174.996 91.2961 174.996C90.302 174.996 89.4961 175.802 89.4961 176.796C89.4961 177.79 90.302 178.596 91.2961 178.596Z" fill="#D7DFFE"/>
<path d="M156.096 70.596C157.09 70.596 157.896 69.7901 157.896 68.796C157.896 67.8019 157.09 66.996 156.096 66.996C155.102 66.996 154.296 67.8019 154.296 68.796C154.296 69.7901 155.102 70.596 156.096 70.596Z" fill="#D7DFFE"/>
<path d="M112.896 70.596C113.89 70.596 114.696 69.7901 114.696 68.796C114.696 67.8019 113.89 66.996 112.896 66.996C111.902 66.996 111.096 67.8019 111.096 68.796C111.096 69.7901 111.902 70.596 112.896 70.596Z" fill="#D7DFFE"/>
<path d="M69.696 70.596C70.6901 70.596 71.496 69.7901 71.496 68.796C71.496 67.8019 70.6901 66.996 69.696 66.996C68.7019 66.996 67.896 67.8019 67.896 68.796C67.896 69.7901 68.7019 70.596 69.696 70.596Z" fill="#D7DFFE"/>
<path d="M156.096 113.796C157.09 113.796 157.896 112.99 157.896 111.996C157.896 111.002 157.09 110.196 156.096 110.196C155.102 110.196 154.296 111.002 154.296 111.996C154.296 112.99 155.102 113.796 156.096 113.796Z" fill="#D7DFFE"/>
<path d="M156.096 178.596C157.09 178.596 157.896 177.79 157.896 176.796C157.896 175.802 157.09 174.996 156.096 174.996C155.102 174.996 154.296 175.802 154.296 176.796C154.296 177.79 155.102 178.596 156.096 178.596Z" fill="#D7DFFE"/>
<path d="M112.896 113.796C113.89 113.796 114.696 112.99 114.696 111.996C114.696 111.002 113.89 110.196 112.896 110.196C111.902 110.196 111.096 111.002 111.096 111.996C111.096 112.99 111.902 113.796 112.896 113.796Z" fill="#D7DFFE"/>
<path d="M69.696 113.796C70.6901 113.796 71.496 112.99 71.496 111.996C71.496 111.002 70.6901 110.196 69.696 110.196C68.7019 110.196 67.896 111.002 67.896 111.996C67.896 112.99 68.7019 113.796 69.696 113.796Z" fill="#D7DFFE"/>
<path d="M112.896 178.596C113.89 178.596 114.696 177.79 114.696 176.796C114.696 175.802 113.89 174.996 112.896 174.996C111.902 174.996 111.096 175.802 111.096 176.796C111.096 177.79 111.902 178.596 112.896 178.596Z" fill="#D7DFFE"/>
<path d="M69.696 178.596C70.6901 178.596 71.496 177.79 71.496 176.796C71.496 175.802 70.6901 174.996 69.696 174.996C68.7019 174.996 67.896 175.802 67.896 176.796C67.896 177.79 68.7019 178.596 69.696 178.596Z" fill="#D7DFFE"/>
<path d="M177.696 92.1959C178.69 92.1959 179.496 91.3901 179.496 90.3959C179.496 89.4018 178.69 88.5959 177.696 88.5959C176.702 88.5959 175.896 89.4018 175.896 90.3959C175.896 91.3901 176.702 92.1959 177.696 92.1959Z" fill="#D7DFFE"/>
<path d="M177.696 156.996C178.69 156.996 179.496 156.19 179.496 155.196C179.496 154.202 178.69 153.396 177.696 153.396C176.702 153.396 175.896 154.202 175.896 155.196C175.896 156.19 176.702 156.996 177.696 156.996Z" fill="#D7DFFE"/>
<path d="M134.496 92.1959C135.49 92.1959 136.296 91.3901 136.296 90.3959C136.296 89.4018 135.49 88.5959 134.496 88.5959C133.502 88.5959 132.696 89.4018 132.696 90.3959C132.696 91.3901 133.502 92.1959 134.496 92.1959Z" fill="#D7DFFE"/>
<path d="M91.2961 92.1959C92.2902 92.1959 93.0961 91.3901 93.0961 90.3959C93.0961 89.4018 92.2902 88.5959 91.2961 88.5959C90.302 88.5959 89.4961 89.4018 89.4961 90.3959C89.4961 91.3901 90.302 92.1959 91.2961 92.1959Z" fill="#D7DFFE"/>
<path d="M134.496 156.996C135.49 156.996 136.296 156.19 136.296 155.196C136.296 154.202 135.49 153.396 134.496 153.396C133.502 153.396 132.696 154.202 132.696 155.196C132.696 156.19 133.502 156.996 134.496 156.996Z" fill="#D7DFFE"/>
<path d="M91.2961 156.996C92.2902 156.996 93.0961 156.19 93.0961 155.196C93.0961 154.202 92.2902 153.396 91.2961 153.396C90.302 153.396 89.4961 154.202 89.4961 155.196C89.4961 156.19 90.302 156.996 91.2961 156.996Z" fill="#D7DFFE"/>
<path d="M177.696 135.396C178.69 135.396 179.496 134.59 179.496 133.596C179.496 132.602 178.69 131.796 177.696 131.796C176.702 131.796 175.896 132.602 175.896 133.596C175.896 134.59 176.702 135.396 177.696 135.396Z" fill="#D7DFFE"/>
<path d="M177.696 200.196C178.69 200.196 179.496 199.39 179.496 198.396C179.496 197.402 178.69 196.596 177.696 196.596C176.702 196.596 175.896 197.402 175.896 198.396C175.896 199.39 176.702 200.196 177.696 200.196Z" fill="#D7DFFE"/>
<path d="M134.496 135.396C135.49 135.396 136.296 134.59 136.296 133.596C136.296 132.602 135.49 131.796 134.496 131.796C133.502 131.796 132.696 132.602 132.696 133.596C132.696 134.59 133.502 135.396 134.496 135.396Z" fill="#D7DFFE"/>
<path d="M91.2961 135.396C92.2902 135.396 93.0961 134.59 93.0961 133.596C93.0961 132.602 92.2902 131.796 91.2961 131.796C90.302 131.796 89.4961 132.602 89.4961 133.596C89.4961 134.59 90.302 135.396 91.2961 135.396Z" fill="#D7DFFE"/>
<path d="M134.496 200.196C135.49 200.196 136.296 199.39 136.296 198.396C136.296 197.402 135.49 196.596 134.496 196.596C133.502 196.596 132.696 197.402 132.696 198.396C132.696 199.39 133.502 200.196 134.496 200.196Z" fill="#D7DFFE"/>
<path d="M91.2961 200.196C92.2902 200.196 93.0961 199.39 93.0961 198.396C93.0961 197.402 92.2902 196.596 91.2961 196.596C90.302 196.596 89.4961 197.402 89.4961 198.396C89.4961 199.39 90.302 200.196 91.2961 200.196Z" fill="#D7DFFE"/>
<path d="M156.096 92.1959C157.09 92.1959 157.896 91.3901 157.896 90.3959C157.896 89.4018 157.09 88.5959 156.096 88.5959C155.102 88.5959 154.296 89.4018 154.296 90.3959C154.296 91.3901 155.102 92.1959 156.096 92.1959Z" fill="#D7DFFE"/>
<path d="M156.096 156.996C157.09 156.996 157.896 156.19 157.896 155.196C157.896 154.202 157.09 153.396 156.096 153.396C155.102 153.396 154.296 154.202 154.296 155.196C154.296 156.19 155.102 156.996 156.096 156.996Z" fill="#D7DFFE"/>
<path d="M112.896 92.1959C113.89 92.1959 114.696 91.3901 114.696 90.3959C114.696 89.4018 113.89 88.5959 112.896 88.5959C111.902 88.5959 111.096 89.4018 111.096 90.3959C111.096 91.3901 111.902 92.1959 112.896 92.1959Z" fill="#D7DFFE"/>
<path d="M69.696 92.1959C70.6901 92.1959 71.496 91.3901 71.496 90.3959C71.496 89.4018 70.6901 88.5959 69.696 88.5959C68.7019 88.5959 67.896 89.4018 67.896 90.3959C67.896 91.3901 68.7019 92.1959 69.696 92.1959Z" fill="#D7DFFE"/>
<path d="M112.896 156.996C113.89 156.996 114.696 156.19 114.696 155.196C114.696 154.202 113.89 153.396 112.896 153.396C111.902 153.396 111.096 154.202 111.096 155.196C111.096 156.19 111.902 156.996 112.896 156.996Z" fill="#D7DFFE"/>
<path d="M69.696 156.996C70.6901 156.996 71.496 156.19 71.496 155.196C71.496 154.202 70.6901 153.396 69.696 153.396C68.7019 153.396 67.896 154.202 67.896 155.196C67.896 156.19 68.7019 156.996 69.696 156.996Z" fill="#D7DFFE"/>
<path d="M156.096 135.396C157.09 135.396 157.896 134.59 157.896 133.596C157.896 132.602 157.09 131.796 156.096 131.796C155.102 131.796 154.296 132.602 154.296 133.596C154.296 134.59 155.102 135.396 156.096 135.396Z" fill="#D7DFFE"/>
<path d="M156.096 200.196C157.09 200.196 157.896 199.39 157.896 198.396C157.896 197.402 157.09 196.596 156.096 196.596C155.102 196.596 154.296 197.402 154.296 198.396C154.296 199.39 155.102 200.196 156.096 200.196Z" fill="#D7DFFE"/>
<path d="M112.896 135.396C113.89 135.396 114.696 134.59 114.696 133.596C114.696 132.602 113.89 131.796 112.896 131.796C111.902 131.796 111.096 132.602 111.096 133.596C111.096 134.59 111.902 135.396 112.896 135.396Z" fill="#D7DFFE"/>
<path d="M69.696 135.396C70.6901 135.396 71.496 134.59 71.496 133.596C71.496 132.602 70.6901 131.796 69.696 131.796C68.7019 131.796 67.896 132.602 67.896 133.596C67.896 134.59 68.7019 135.396 69.696 135.396Z" fill="#D7DFFE"/>
<path d="M112.896 200.196C113.89 200.196 114.696 199.39 114.696 198.396C114.696 197.402 113.89 196.596 112.896 196.596C111.902 196.596 111.096 197.402 111.096 198.396C111.096 199.39 111.902 200.196 112.896 200.196Z" fill="#D7DFFE"/>
<path d="M69.696 200.196C70.6901 200.196 71.496 199.39 71.496 198.396C71.496 197.402 70.6901 196.596 69.696 196.596C68.7019 196.596 67.896 197.402 67.896 198.396C67.896 199.39 68.7019 200.196 69.696 200.196Z" fill="#D7DFFE"/>
<path d="M199.296 70.596C200.29 70.596 201.096 69.7901 201.096 68.796C201.096 67.8019 200.29 66.996 199.296 66.996C198.302 66.996 197.496 67.8019 197.496 68.796C197.496 69.7901 198.302 70.596 199.296 70.596Z" fill="#D7DFFE"/>
<path d="M199.296 113.796C200.29 113.796 201.096 112.99 201.096 111.996C201.096 111.002 200.29 110.196 199.296 110.196C198.302 110.196 197.496 111.002 197.496 111.996C197.496 112.99 198.302 113.796 199.296 113.796Z" fill="#D7DFFE"/>
<path d="M199.296 178.596C200.29 178.596 201.096 177.79 201.096 176.796C201.096 175.802 200.29 174.996 199.296 174.996C198.302 174.996 197.496 175.802 197.496 176.796C197.496 177.79 198.302 178.596 199.296 178.596Z" fill="#D7DFFE"/>
<path d="M199.296 92.1959C200.29 92.1959 201.096 91.3901 201.096 90.3959C201.096 89.4018 200.29 88.5959 199.296 88.5959C198.302 88.5959 197.496 89.4018 197.496 90.3959C197.496 91.3901 198.302 92.1959 199.296 92.1959Z" fill="#D7DFFE"/>
<path d="M199.296 156.996C200.29 156.996 201.096 156.19 201.096 155.196C201.096 154.202 200.29 153.396 199.296 153.396C198.302 153.396 197.496 154.202 197.496 155.196C197.496 156.19 198.302 156.996 199.296 156.996Z" fill="#D7DFFE"/>
<path d="M199.296 135.396C200.29 135.396 201.096 134.59 201.096 133.596C201.096 132.602 200.29 131.796 199.296 131.796C198.302 131.796 197.496 132.602 197.496 133.596C197.496 134.59 198.302 135.396 199.296 135.396Z" fill="#D7DFFE"/>
<path d="M199.296 200.196C200.29 200.196 201.096 199.39 201.096 198.396C201.096 197.402 200.29 196.596 199.296 196.596C198.302 196.596 197.496 197.402 197.496 198.396C197.496 199.39 198.302 200.196 199.296 200.196Z" fill="#D7DFFE"/>
<path d="M177.696 221.796C178.69 221.796 179.496 220.99 179.496 219.996C179.496 219.002 178.69 218.196 177.696 218.196C176.702 218.196 175.896 219.002 175.896 219.996C175.896 220.99 176.702 221.796 177.696 221.796Z" fill="#D7DFFE"/>
<path d="M134.496 221.796C135.49 221.796 136.296 220.99 136.296 219.996C136.296 219.002 135.49 218.196 134.496 218.196C133.502 218.196 132.696 219.002 132.696 219.996C132.696 220.99 133.502 221.796 134.496 221.796Z" fill="#D7DFFE"/>
<path d="M91.2961 221.796C92.2902 221.796 93.0961 220.99 93.0961 219.996C93.0961 219.002 92.2902 218.196 91.2961 218.196C90.302 218.196 89.4961 219.002 89.4961 219.996C89.4961 220.99 90.302 221.796 91.2961 221.796Z" fill="#D7DFFE"/>
<path d="M156.096 221.796C157.09 221.796 157.896 220.99 157.896 219.996C157.896 219.002 157.09 218.196 156.096 218.196C155.102 218.196 154.296 219.002 154.296 219.996C154.296 220.99 155.102 221.796 156.096 221.796Z" fill="#D7DFFE"/>
<path d="M112.896 221.796C113.89 221.796 114.696 220.99 114.696 219.996C114.696 219.002 113.89 218.196 112.896 218.196C111.902 218.196 111.096 219.002 111.096 219.996C111.096 220.99 111.902 221.796 112.896 221.796Z" fill="#D7DFFE"/>
<path d="M69.696 221.796C70.6901 221.796 71.496 220.99 71.496 219.996C71.496 219.002 70.6901 218.196 69.696 218.196C68.7019 218.196 67.896 219.002 67.896 219.996C67.896 220.99 68.7019 221.796 69.696 221.796Z" fill="#D7DFFE"/>
<path d="M199.296 221.796C200.29 221.796 201.096 220.99 201.096 219.996C201.096 219.002 200.29 218.196 199.296 218.196C198.302 218.196 197.496 219.002 197.496 219.996C197.496 220.99 198.302 221.796 199.296 221.796Z" fill="#D7DFFE"/>
<path d="M177.696 27.3959C178.69 27.3959 179.496 26.59 179.496 25.5959C179.496 24.6018 178.69 23.7959 177.696 23.7959C176.702 23.7959 175.896 24.6018 175.896 25.5959C175.896 26.59 176.702 27.3959 177.696 27.3959Z" fill="#D7DFFE"/>
<path d="M134.496 27.3959C135.49 27.3959 136.296 26.59 136.296 25.5959C136.296 24.6018 135.49 23.7959 134.496 23.7959C133.502 23.7959 132.696 24.6018 132.696 25.5959C132.696 26.59 133.502 27.3959 134.496 27.3959Z" fill="#D7DFFE"/>
<path d="M91.2961 27.3959C92.2902 27.3959 93.0961 26.59 93.0961 25.5959C93.0961 24.6018 92.2902 23.7959 91.2961 23.7959C90.302 23.7959 89.4961 24.6018 89.4961 25.5959C89.4961 26.59 90.302 27.3959 91.2961 27.3959Z" fill="#D7DFFE"/>
<path d="M156.096 27.3959C157.09 27.3959 157.896 26.59 157.896 25.5959C157.896 24.6018 157.09 23.7959 156.096 23.7959C155.102 23.7959 154.296 24.6018 154.296 25.5959C154.296 26.59 155.102 27.3959 156.096 27.3959Z" fill="#D7DFFE"/>
<path d="M112.896 27.3959C113.89 27.3959 114.696 26.59 114.696 25.5959C114.696 24.6018 113.89 23.7959 112.896 23.7959C111.902 23.7959 111.096 24.6018 111.096 25.5959C111.096 26.59 111.902 27.3959 112.896 27.3959Z" fill="#D7DFFE"/>
<path d="M69.696 27.3959C70.6901 27.3959 71.496 26.59 71.496 25.5959C71.496 24.6018 70.6901 23.7959 69.696 23.7959C68.7019 23.7959 67.896 24.6018 67.896 25.5959C67.896 26.59 68.7019 27.3959 69.696 27.3959Z" fill="#D7DFFE"/>
<path d="M177.696 5.79592C178.69 5.79592 179.496 4.99004 179.496 3.99592C179.496 3.00181 178.69 2.19592 177.696 2.19592C176.702 2.19592 175.896 3.00181 175.896 3.99592C175.896 4.99004 176.702 5.79592 177.696 5.79592Z" fill="#D7DFFE"/>
<path d="M134.496 5.79592C135.49 5.79592 136.296 4.99004 136.296 3.99592C136.296 3.00181 135.49 2.19592 134.496 2.19592C133.502 2.19592 132.696 3.00181 132.696 3.99592C132.696 4.99004 133.502 5.79592 134.496 5.79592Z" fill="#D7DFFE"/>
<path d="M91.2961 5.79592C92.2902 5.79592 93.0961 4.99004 93.0961 3.99592C93.0961 3.00181 92.2902 2.19592 91.2961 2.19592C90.302 2.19592 89.4961 3.00181 89.4961 3.99592C89.4961 4.99004 90.302 5.79592 91.2961 5.79592Z" fill="#D7DFFE"/>
<path d="M177.696 48.9959C178.69 48.9959 179.496 48.19 179.496 47.1959C179.496 46.2018 178.69 45.3959 177.696 45.3959C176.702 45.3959 175.896 46.2018 175.896 47.1959C175.896 48.19 176.702 48.9959 177.696 48.9959Z" fill="#D7DFFE"/>
<path d="M134.496 48.9959C135.49 48.9959 136.296 48.19 136.296 47.1959C136.296 46.2018 135.49 45.3959 134.496 45.3959C133.502 45.3959 132.696 46.2018 132.696 47.1959C132.696 48.19 133.502 48.9959 134.496 48.9959Z" fill="#D7DFFE"/>
<path d="M91.2961 48.9959C92.2902 48.9959 93.0961 48.19 93.0961 47.1959C93.0961 46.2018 92.2902 45.3959 91.2961 45.3959C90.302 45.3959 89.4961 46.2018 89.4961 47.1959C89.4961 48.19 90.302 48.9959 91.2961 48.9959Z" fill="#D7DFFE"/>
<path d="M156.096 5.79592C157.09 5.79592 157.896 4.99004 157.896 3.99592C157.896 3.00181 157.09 2.19592 156.096 2.19592C155.102 2.19592 154.296 3.00181 154.296 3.99592C154.296 4.99004 155.102 5.79592 156.096 5.79592Z" fill="#D7DFFE"/>
<path d="M112.896 5.79592C113.89 5.79592 114.696 4.99004 114.696 3.99592C114.696 3.00181 113.89 2.19592 112.896 2.19592C111.902 2.19592 111.096 3.00181 111.096 3.99592C111.096 4.99004 111.902 5.79592 112.896 5.79592Z" fill="#D7DFFE"/>
<path d="M69.696 5.79592C70.6901 5.79592 71.496 4.99004 71.496 3.99592C71.496 3.00181 70.6901 2.19592 69.696 2.19592C68.7019 2.19592 67.896 3.00181 67.896 3.99592C67.896 4.99004 68.7019 5.79592 69.696 5.79592Z" fill="#D7DFFE"/>
<path d="M156.096 48.9959C157.09 48.9959 157.896 48.19 157.896 47.1959C157.896 46.2018 157.09 45.3959 156.096 45.3959C155.102 45.3959 154.296 46.2018 154.296 47.1959C154.296 48.19 155.102 48.9959 156.096 48.9959Z" fill="#D7DFFE"/>
<path d="M112.896 48.9959C113.89 48.9959 114.696 48.19 114.696 47.1959C114.696 46.2018 113.89 45.3959 112.896 45.3959C111.902 45.3959 111.096 46.2018 111.096 47.1959C111.096 48.19 111.902 48.9959 112.896 48.9959Z" fill="#D7DFFE"/>
<path d="M69.696 48.9959C70.6901 48.9959 71.496 48.19 71.496 47.1959C71.496 46.2018 70.6901 45.3959 69.696 45.3959C68.7019 45.3959 67.896 46.2018 67.896 47.1959C67.896 48.19 68.7019 48.9959 69.696 48.9959Z" fill="#D7DFFE"/>
<path d="M199.296 27.3959C200.29 27.3959 201.096 26.59 201.096 25.5959C201.096 24.6018 200.29 23.7959 199.296 23.7959C198.302 23.7959 197.496 24.6018 197.496 25.5959C197.496 26.59 198.302 27.3959 199.296 27.3959Z" fill="#D7DFFE"/>
<path d="M199.296 5.79592C200.29 5.79592 201.096 4.99004 201.096 3.99592C201.096 3.00181 200.29 2.19592 199.296 2.19592C198.302 2.19592 197.496 3.00181 197.496 3.99592C197.496 4.99004 198.302 5.79592 199.296 5.79592Z" fill="#D7DFFE"/>
<path d="M199.296 48.9959C200.29 48.9959 201.096 48.19 201.096 47.1959C201.096 46.2018 200.29 45.3959 199.296 45.3959C198.302 45.3959 197.496 46.2018 197.496 47.1959C197.496 48.19 198.302 48.9959 199.296 48.9959Z" fill="#D7DFFE"/>
<path d="M264.195 70.596C265.189 70.596 265.995 69.7901 265.995 68.796C265.995 67.8019 265.189 66.996 264.195 66.996C263.201 66.996 262.395 67.8019 262.395 68.796C262.395 69.7901 263.201 70.596 264.195 70.596Z" fill="#D7DFFE"/>
<path d="M220.995 70.596C221.989 70.596 222.795 69.7901 222.795 68.796C222.795 67.8019 221.989 66.996 220.995 66.996C220.001 66.996 219.195 67.8019 219.195 68.796C219.195 69.7901 220.001 70.596 220.995 70.596Z" fill="#D7DFFE"/>
<path d="M264.195 113.796C265.189 113.796 265.995 112.99 265.995 111.996C265.995 111.002 265.189 110.196 264.195 110.196C263.201 110.196 262.395 111.002 262.395 111.996C262.395 112.99 263.201 113.796 264.195 113.796Z" fill="#D7DFFE"/>
<path d="M220.995 113.796C221.989 113.796 222.795 112.99 222.795 111.996C222.795 111.002 221.989 110.196 220.995 110.196C220.001 110.196 219.195 111.002 219.195 111.996C219.195 112.99 220.001 113.796 220.995 113.796Z" fill="#D7DFFE"/>
<path d="M264.195 178.596C265.189 178.596 265.995 177.79 265.995 176.796C265.995 175.802 265.189 174.996 264.195 174.996C263.201 174.996 262.395 175.802 262.395 176.796C262.395 177.79 263.201 178.596 264.195 178.596Z" fill="#D7DFFE"/>
<path d="M220.995 178.596C221.989 178.596 222.795 177.79 222.795 176.796C222.795 175.802 221.989 174.996 220.995 174.996C220.001 174.996 219.195 175.802 219.195 176.796C219.195 177.79 220.001 178.596 220.995 178.596Z" fill="#D7DFFE"/>
<path d="M242.595 70.596C243.589 70.596 244.395 69.7901 244.395 68.796C244.395 67.8019 243.589 66.996 242.595 66.996C241.601 66.996 240.795 67.8019 240.795 68.796C240.795 69.7901 241.601 70.596 242.595 70.596Z" fill="#D7DFFE"/>
<path d="M242.595 113.796C243.589 113.796 244.395 112.99 244.395 111.996C244.395 111.002 243.589 110.196 242.595 110.196C241.601 110.196 240.795 111.002 240.795 111.996C240.795 112.99 241.601 113.796 242.595 113.796Z" fill="#D7DFFE"/>
<path d="M242.595 178.596C243.589 178.596 244.395 177.79 244.395 176.796C244.395 175.802 243.589 174.996 242.595 174.996C241.601 174.996 240.795 175.802 240.795 176.796C240.795 177.79 241.601 178.596 242.595 178.596Z" fill="#D7DFFE"/>
<path d="M264.195 92.1959C265.189 92.1959 265.995 91.3901 265.995 90.3959C265.995 89.4018 265.189 88.5959 264.195 88.5959C263.201 88.5959 262.395 89.4018 262.395 90.3959C262.395 91.3901 263.201 92.1959 264.195 92.1959Z" fill="#D7DFFE"/>
<path d="M220.995 92.1959C221.989 92.1959 222.795 91.3901 222.795 90.3959C222.795 89.4018 221.989 88.5959 220.995 88.5959C220.001 88.5959 219.195 89.4018 219.195 90.3959C219.195 91.3901 220.001 92.1959 220.995 92.1959Z" fill="#D7DFFE"/>
<path d="M264.195 156.996C265.189 156.996 265.995 156.19 265.995 155.196C265.995 154.202 265.189 153.396 264.195 153.396C263.201 153.396 262.395 154.202 262.395 155.196C262.395 156.19 263.201 156.996 264.195 156.996Z" fill="#D7DFFE"/>
<path d="M220.995 156.996C221.989 156.996 222.795 156.19 222.795 155.196C222.795 154.202 221.989 153.396 220.995 153.396C220.001 153.396 219.195 154.202 219.195 155.196C219.195 156.19 220.001 156.996 220.995 156.996Z" fill="#D7DFFE"/>
<path d="M264.195 135.396C265.189 135.396 265.995 134.59 265.995 133.596C265.995 132.602 265.189 131.796 264.195 131.796C263.201 131.796 262.395 132.602 262.395 133.596C262.395 134.59 263.201 135.396 264.195 135.396Z" fill="#D7DFFE"/>
<path d="M220.995 135.396C221.989 135.396 222.795 134.59 222.795 133.596C222.795 132.602 221.989 131.796 220.995 131.796C220.001 131.796 219.195 132.602 219.195 133.596C219.195 134.59 220.001 135.396 220.995 135.396Z" fill="#D7DFFE"/>
<path d="M264.195 200.196C265.189 200.196 265.995 199.39 265.995 198.396C265.995 197.402 265.189 196.596 264.195 196.596C263.201 196.596 262.395 197.402 262.395 198.396C262.395 199.39 263.201 200.196 264.195 200.196Z" fill="#D7DFFE"/>
<path d="M220.995 200.196C221.989 200.196 222.795 199.39 222.795 198.396C222.795 197.402 221.989 196.596 220.995 196.596C220.001 196.596 219.195 197.402 219.195 198.396C219.195 199.39 220.001 200.196 220.995 200.196Z" fill="#D7DFFE"/>
<path d="M242.595 92.1959C243.589 92.1959 244.395 91.3901 244.395 90.3959C244.395 89.4018 243.589 88.5959 242.595 88.5959C241.601 88.5959 240.795 89.4018 240.795 90.3959C240.795 91.3901 241.601 92.1959 242.595 92.1959Z" fill="#D7DFFE"/>
<path d="M242.595 156.996C243.589 156.996 244.395 156.19 244.395 155.196C244.395 154.202 243.589 153.396 242.595 153.396C241.601 153.396 240.795 154.202 240.795 155.196C240.795 156.19 241.601 156.996 242.595 156.996Z" fill="#D7DFFE"/>
<path d="M242.595 135.396C243.589 135.396 244.395 134.59 244.395 133.596C244.395 132.602 243.589 131.796 242.595 131.796C241.601 131.796 240.795 132.602 240.795 133.596C240.795 134.59 241.601 135.396 242.595 135.396Z" fill="#D7DFFE"/>
<path d="M242.595 200.196C243.589 200.196 244.395 199.39 244.395 198.396C244.395 197.402 243.589 196.596 242.595 196.596C241.601 196.596 240.795 197.402 240.795 198.396C240.795 199.39 241.601 200.196 242.595 200.196Z" fill="#D7DFFE"/>
<path d="M264.195 221.796C265.189 221.796 265.995 220.99 265.995 219.996C265.995 219.002 265.189 218.196 264.195 218.196C263.201 218.196 262.395 219.002 262.395 219.996C262.395 220.99 263.201 221.796 264.195 221.796Z" fill="#D7DFFE"/>
<path d="M220.995 221.796C221.989 221.796 222.795 220.99 222.795 219.996C222.795 219.002 221.989 218.196 220.995 218.196C220.001 218.196 219.195 219.002 219.195 219.996C219.195 220.99 220.001 221.796 220.995 221.796Z" fill="#D7DFFE"/>
<path d="M242.595 221.796C243.589 221.796 244.395 220.99 244.395 219.996C244.395 219.002 243.589 218.196 242.595 218.196C241.601 218.196 240.795 219.002 240.795 219.996C240.795 220.99 241.601 221.796 242.595 221.796Z" fill="#D7DFFE"/>
<path d="M264.195 27.3959C265.189 27.3959 265.995 26.59 265.995 25.5959C265.995 24.6018 265.189 23.7959 264.195 23.7959C263.201 23.7959 262.395 24.6018 262.395 25.5959C262.395 26.59 263.201 27.3959 264.195 27.3959Z" fill="#D7DFFE"/>
<path d="M220.995 27.3959C221.989 27.3959 222.795 26.59 222.795 25.5959C222.795 24.6018 221.989 23.7959 220.995 23.7959C220.001 23.7959 219.195 24.6018 219.195 25.5959C219.195 26.59 220.001 27.3959 220.995 27.3959Z" fill="#D7DFFE"/>
<path d="M242.595 27.3959C243.589 27.3959 244.395 26.59 244.395 25.5959C244.395 24.6018 243.589 23.7959 242.595 23.7959C241.601 23.7959 240.795 24.6018 240.795 25.5959C240.795 26.59 241.601 27.3959 242.595 27.3959Z" fill="#D7DFFE"/>
<path d="M264.195 5.79592C265.189 5.79592 265.995 4.99004 265.995 3.99592C265.995 3.00181 265.189 2.19592 264.195 2.19592C263.201 2.19592 262.395 3.00181 262.395 3.99592C262.395 4.99004 263.201 5.79592 264.195 5.79592Z" fill="#D7DFFE"/>
<path d="M220.995 5.79592C221.989 5.79592 222.795 4.99004 222.795 3.99592C222.795 3.00181 221.989 2.19592 220.995 2.19592C220.001 2.19592 219.195 3.00181 219.195 3.99592C219.195 4.99004 220.001 5.79592 220.995 5.79592Z" fill="#D7DFFE"/>
<path d="M264.195 48.9959C265.189 48.9959 265.995 48.19 265.995 47.1959C265.995 46.2018 265.189 45.3959 264.195 45.3959C263.201 45.3959 262.395 46.2018 262.395 47.1959C262.395 48.19 263.201 48.9959 264.195 48.9959Z" fill="#D7DFFE"/>
<path d="M220.995 48.9959C221.989 48.9959 222.795 48.19 222.795 47.1959C222.795 46.2018 221.989 45.3959 220.995 45.3959C220.001 45.3959 219.195 46.2018 219.195 47.1959C219.195 48.19 220.001 48.9959 220.995 48.9959Z" fill="#D7DFFE"/>
<path d="M242.595 5.79592C243.589 5.79592 244.395 4.99004 244.395 3.99592C244.395 3.00181 243.589 2.19592 242.595 2.19592C241.601 2.19592 240.795 3.00181 240.795 3.99592C240.795 4.99004 241.601 5.79592 242.595 5.79592Z" fill="#D7DFFE"/>
<path d="M242.595 48.9959C243.589 48.9959 244.395 48.19 244.395 47.1959C244.395 46.2018 243.589 45.3959 242.595 45.3959C241.601 45.3959 240.795 46.2018 240.795 47.1959C240.795 48.19 241.601 48.9959 242.595 48.9959Z" fill="#D7DFFE"/>
<path d="M34.1818 51.9299C37.1542 51.9299 39.5638 49.5203 39.5638 46.5479C39.5638 43.5755 37.1542 41.1659 34.1818 41.1659C31.2094 41.1659 28.7998 43.5755 28.7998 46.5479C28.7998 49.5203 31.2094 51.9299 34.1818 51.9299Z" fill="#3761FB"/>
<path d="M221.382 182.43C224.354 182.43 226.764 180.02 226.764 177.048C226.764 174.075 224.354 171.666 221.382 171.666C218.41 171.666 216 174.075 216 177.048C216 180.02 218.41 182.43 221.382 182.43Z" fill="#3761FB"/>
<path d="M123.912 39.8519C120.087 41.0759 114.912 34.4519 119.988 28.7279C123.849 24.3989 119.727 18.4139 126.513 15.1559C129.96 13.4999 133.461 14.3369 136.719 16.1729C139.977 18.0089 142.164 12.3209 147.438 13.7249C153.567 15.3629 155.907 30.0509 144.81 31.9949C144.81 31.9949 143.748 24.8669 140.706 22.9949C136.719 20.5649 129.717 21.0509 129.474 26.7659C129.339 30.1499 128.43 33.2819 126.396 33.5429C123.912 33.8849 122.904 35.7389 123.912 39.8519ZM163.125 112.752L164.313 128.367H103.698L105.021 112.752C105.021 112.752 96.7139 112.221 97.8209 105.084C98.9279 97.9469 105.021 63.7469 105.021 63.7469C105.021 63.7469 107.532 56.3939 113.67 54.8729L122.895 52.5959V56.9159H122.049L129.042 63.7469L134.163 59.0129L138.411 63.7469L144.378 57.7169H144.585V57.5099L145.17 56.9159H144.585V52.7489L155.772 55.6019C155.772 55.6019 161.73 58.6439 162.639 63.7559C163.548 68.8679 169.578 105.3 169.578 105.3C169.578 105.3 169.551 112.356 163.125 112.761V112.752ZM119.178 97.0019C119.178 97.0019 115.029 92.5919 102.708 94.9589C102.708 94.9589 102.978 98.2979 107.64 99.0539C112.302 99.8099 119.178 97.0109 119.178 97.0109V97.0019ZM158.778 100.089C158.778 100.089 154.17 90.5129 145.179 93.6089L146.025 97.9829L158.778 100.089ZM160.992 256.365H144.729V261H160.983L160.992 256.365ZM121.158 256.365H90.9629V261H121.149L121.158 256.365Z" fill="url(#paint0_linear)"/>
<path d="M123.912 35.7389C124.506 41.7869 126.765 49.0679 134.163 49.0679" stroke="#5E329C" stroke-width="3" stroke-linecap="round" stroke-linejoin="round"/>
<path d="M139.509 56.0879V49.0679" stroke="#5E329C" stroke-width="3" stroke-linecap="round" stroke-linejoin="round"/>
<path d="M127.944 56.0879V46.8179" stroke="#5E329C" stroke-width="3" stroke-linecap="round" stroke-linejoin="round"/>
<path d="M122.049 56.9249L129.042 63.7559L133.722 58.5269" stroke="#5E329C" stroke-width="3" stroke-linecap="round" stroke-linejoin="round"/>
<path d="M145.395 56.9249L138.411 63.7559L133.722 58.5269" stroke="#5E329C" stroke-width="3" stroke-linecap="round" stroke-linejoin="round"/>
<path d="M127.521 51.4529L113.67 54.8999C111.35 55.5096 109.256 56.777 107.64 58.5495C106.024 60.3219 104.955 62.5238 104.562 64.8899L97.9735 104.283C97.7686 105.498 97.8752 106.746 98.2835 107.909C98.6917 109.072 99.3883 110.113 100.308 110.934C101.228 111.755 102.34 112.329 103.542 112.603C104.744 112.877 105.996 112.841 107.181 112.5L133.722 104.832" stroke="#5E329C" stroke-width="3" stroke-linecap="round" stroke-linejoin="round"/>
<path d="M139.923 51.4529L153.774 54.8999C156.093 55.5073 158.188 56.7714 159.807 58.5402C161.426 60.3091 162.5 62.5077 162.9 64.8719L169.488 104.265C169.697 105.483 169.593 106.734 169.186 107.9C168.779 109.067 168.082 110.111 167.16 110.935C166.239 111.758 165.123 112.334 163.918 112.607C162.713 112.881 161.459 112.844 160.272 112.5L148.338 109.053" stroke="#5E329C" stroke-width="3" stroke-linecap="round" stroke-linejoin="round"/>
<path d="M105.021 100.098L144.54 91.4939L146.124 98.4419" stroke="#5E329C" stroke-width="3" stroke-linecap="round" stroke-linejoin="round"/>
<path d="M158.769 100.098C158.769 100.098 156.537 91.9979 145.494 93.3119" stroke="#5E329C" stroke-width="3" stroke-linecap="round" stroke-linejoin="round"/>
<path d="M102.708 94.9679C102.708 94.9679 116.271 92.5109 120.069 96.6329" stroke="#5E329C" stroke-width="3" stroke-linecap="round" stroke-linejoin="round"/>
<path d="M103.698 128.376H164.313" stroke="#5E329C" stroke-width="3" stroke-linecap="round" stroke-linejoin="round"/>
<path d="M107.64 247.653V128.43" stroke="#5E329C" stroke-width="3" stroke-linecap="round" stroke-linejoin="round"/>
<path d="M159.606 237.609L160.263 128.43" stroke="#5E329C" stroke-width="3" stroke-linecap="round" stroke-linejoin="round"/>
<path d="M146.376 237.6C146.376 237.6 136.161 165.789 134.001 148.707C134.001 148.707 123.624 226.008 120.798 244.719V261H90.9629" stroke="#5E329C" stroke-width="3" stroke-linecap="round" stroke-linejoin="round"/>
<path d="M146.376 251.019V237.609H148.797" stroke="#5E329C" stroke-width="3" stroke-linecap="round" stroke-linejoin="round"/>
<path d="M149.652 242.325V234.666C149.652 233.776 150.004 232.923 150.631 232.292C151.259 231.661 152.11 231.305 153 231.3V231.3C153.442 231.299 153.88 231.385 154.289 231.554C154.698 231.722 155.07 231.97 155.383 232.283C155.695 232.596 155.943 232.967 156.112 233.376C156.281 233.785 156.367 234.224 156.366 234.666V242.325" stroke="#5E329C" stroke-width="3" stroke-linecap="round" stroke-linejoin="round"/>
<path d="M147.114 250.632C146.357 251.385 145.757 252.28 145.348 253.265C144.939 254.25 144.728 255.307 144.729 256.374H160.983C160.983 254.226 160.129 252.165 158.61 250.646C157.091 249.127 155.031 248.274 152.883 248.274" stroke="#5E329C" stroke-width="3" stroke-linecap="round" stroke-linejoin="round"/>
<path d="M156.393 237.609H159.606V251.847" stroke="#5E329C" stroke-width="3" stroke-linecap="round" stroke-linejoin="round"/>
<path d="M160.983 261H144.729" stroke="#5E329C" stroke-width="3" stroke-linecap="round" stroke-linejoin="round"/>
<path d="M120.798 256.374H90.9628C87.2278 245.322 107.64 247.653 107.64 247.653" stroke="#5E329C" stroke-width="3" stroke-linecap="round" stroke-linejoin="round"/>
<path d="M113.022 238.194H120.798" stroke="#5E329C" stroke-width="3" stroke-linecap="round" stroke-linejoin="round"/>
<path d="M107.64 231.3H108.963C109.496 231.299 110.024 231.403 110.517 231.606C111.01 231.81 111.458 232.109 111.835 232.486C112.213 232.863 112.512 233.311 112.715 233.804C112.919 234.297 113.023 234.826 113.022 235.359V242.325" stroke="#5E329C" stroke-width="3" stroke-linecap="round" stroke-linejoin="round"/>
<path d="M107.64 151.785C111.459 151.785 115.121 150.268 117.822 147.567C120.523 144.867 122.04 141.204 122.04 137.385" stroke="#5E329C" stroke-width="3" stroke-linecap="round" stroke-linejoin="round"/>
<path d="M111.393 137.367H125.568" stroke="#5E329C" stroke-width="3" stroke-linecap="round" stroke-linejoin="round"/>
<path d="M143.784 27.0808C146.331 34.9558 144.684 44.6758 139.509 49.0678" stroke="#5E329C" stroke-width="3" stroke-linecap="round" stroke-linejoin="round"/>
<path d="M135.801 31.9949C136.239 33.8056 136.539 35.6469 136.701 37.5029C136.701 39.1409 134.766 39.3029 134.766 39.3029" stroke="#5E329C" stroke-width="3" stroke-linecap="round" stroke-linejoin="round"/>
<defs>
<linearGradient id="paint0_linear" x1="61.6139" y1="79.3079" x2="202.14" y2="219.834" gradientUnits="userSpaceOnUse">
<stop stop-color="#E64C84"/>
<stop offset="0.22" stop-color="#BF63AD"/>
<stop offset="0.44" stop-color="#9E77CF"/>
<stop offset="0.65" stop-color="#8685E8"/>
<stop offset="0.84" stop-color="#788DF7"/>
<stop offset="1" stop-color="#7390FC"/>
</linearGradient>
</defs>
</svg>
