<svg width="270" height="270" fill="none" xmlns="http://www.w3.org/2000/svg"><path d="M177.696 70.596a1.8 1.8 0 1 0 0-3.6 1.8 1.8 0 0 0 0 3.6ZM134.496 70.596a1.8 1.8 0 1 0 0-3.6 1.8 1.8 0 0 0 0 3.6ZM91.296 70.596a1.8 1.8 0 1 0 0-3.6 1.8 1.8 0 0 0 0 3.6ZM177.696 113.796a1.8 1.8 0 1 0 0-3.6 1.8 1.8 0 0 0 0 3.6ZM177.696 178.596a1.8 1.8 0 1 0 0-3.6 1.8 1.8 0 0 0 0 3.6ZM134.496 113.796a1.8 1.8 0 1 0 0-3.6 1.8 1.8 0 0 0 0 3.6ZM91.296 113.796a1.8 1.8 0 1 0 0-3.6 1.8 1.8 0 0 0 0 3.6ZM134.496 178.596a1.8 1.8 0 1 0 0-3.6 1.8 1.8 0 0 0 0 3.6ZM91.296 178.596a1.8 1.8 0 1 0 0-3.6 1.8 1.8 0 0 0 0 3.6ZM156.096 70.596a1.8 1.8 0 1 0 0-3.6 1.8 1.8 0 0 0 0 3.6ZM112.896 70.596a1.8 1.8 0 1 0 0-3.6 1.8 1.8 0 0 0 0 3.6ZM69.696 70.596a1.8 1.8 0 1 0 0-3.6 1.8 1.8 0 0 0 0 3.6ZM156.096 113.796a1.8 1.8 0 1 0 0-3.6 1.8 1.8 0 0 0 0 3.6ZM156.096 178.596a1.8 1.8 0 1 0 0-3.6 1.8 1.8 0 0 0 0 3.6ZM112.896 113.796a1.8 1.8 0 1 0 0-3.6 1.8 1.8 0 0 0 0 3.6ZM69.696 113.796a1.8 1.8 0 1 0 0-3.6 1.8 1.8 0 0 0 0 3.6ZM112.896 178.596a1.8 1.8 0 1 0 0-3.6 1.8 1.8 0 0 0 0 3.6ZM69.696 178.596a1.8 1.8 0 1 0 0-3.6 1.8 1.8 0 0 0 0 3.6ZM177.696 92.196a1.8 1.8 0 1 0 0-3.6 1.8 1.8 0 0 0 0 3.6ZM177.696 156.996a1.8 1.8 0 1 0 0-3.6 1.8 1.8 0 0 0 0 3.6ZM134.496 92.196a1.8 1.8 0 1 0 0-3.6 1.8 1.8 0 0 0 0 3.6ZM91.296 92.196a1.8 1.8 0 1 0 0-3.6 1.8 1.8 0 0 0 0 3.6ZM134.496 156.996a1.8 1.8 0 1 0 0-3.6 1.8 1.8 0 0 0 0 3.6ZM91.296 156.996a1.8 1.8 0 1 0 0-3.6 1.8 1.8 0 0 0 0 3.6ZM177.696 135.396a1.8 1.8 0 1 0 0-3.6 1.8 1.8 0 0 0 0 3.6ZM177.696 200.196a1.8 1.8 0 1 0 0-3.6 1.8 1.8 0 0 0 0 3.6ZM134.496 135.396a1.8 1.8 0 1 0 0-3.6 1.8 1.8 0 0 0 0 3.6ZM91.296 135.396a1.8 1.8 0 1 0 0-3.6 1.8 1.8 0 0 0 0 3.6ZM134.496 200.196a1.8 1.8 0 1 0 0-3.6 1.8 1.8 0 0 0 0 3.6ZM91.296 200.196a1.8 1.8 0 1 0 0-3.6 1.8 1.8 0 0 0 0 3.6ZM156.096 92.196a1.8 1.8 0 1 0 0-3.6 1.8 1.8 0 0 0 0 3.6ZM156.096 156.996a1.8 1.8 0 1 0 0-3.6 1.8 1.8 0 0 0 0 3.6ZM112.896 92.196a1.8 1.8 0 1 0 0-3.6 1.8 1.8 0 0 0 0 3.6ZM69.696 92.196a1.8 1.8 0 1 0 0-3.6 1.8 1.8 0 0 0 0 3.6ZM112.896 156.996a1.8 1.8 0 1 0 0-3.6 1.8 1.8 0 0 0 0 3.6ZM69.696 156.996a1.8 1.8 0 1 0 0-3.6 1.8 1.8 0 0 0 0 3.6ZM156.096 135.396a1.8 1.8 0 1 0 0-3.6 1.8 1.8 0 0 0 0 3.6ZM156.096 200.196a1.8 1.8 0 1 0 0-3.6 1.8 1.8 0 0 0 0 3.6ZM112.896 135.396a1.8 1.8 0 1 0 0-3.6 1.8 1.8 0 0 0 0 3.6ZM69.696 135.396a1.8 1.8 0 1 0 0-3.6 1.8 1.8 0 0 0 0 3.6ZM112.896 200.196a1.8 1.8 0 1 0 0-3.6 1.8 1.8 0 0 0 0 3.6ZM69.696 200.196a1.8 1.8 0 1 0 0-3.6 1.8 1.8 0 0 0 0 3.6ZM199.296 70.596a1.8 1.8 0 1 0 0-3.6 1.8 1.8 0 0 0 0 3.6ZM199.296 113.796a1.8 1.8 0 1 0 0-3.6 1.8 1.8 0 0 0 0 3.6ZM199.296 178.596a1.8 1.8 0 1 0 0-3.6 1.8 1.8 0 0 0 0 3.6ZM199.296 92.196a1.8 1.8 0 1 0 0-3.6 1.8 1.8 0 0 0 0 3.6ZM199.296 156.996a1.8 1.8 0 1 0 0-3.6 1.8 1.8 0 0 0 0 3.6ZM199.296 135.396a1.8 1.8 0 1 0 0-3.6 1.8 1.8 0 0 0 0 3.6ZM199.296 200.196a1.8 1.8 0 1 0 0-3.6 1.8 1.8 0 0 0 0 3.6ZM177.696 221.796a1.8 1.8 0 1 0 0-3.6 1.8 1.8 0 0 0 0 3.6ZM134.496 221.796a1.8 1.8 0 1 0 0-3.6 1.8 1.8 0 0 0 0 3.6ZM91.296 221.796a1.8 1.8 0 1 0 0-3.6 1.8 1.8 0 0 0 0 3.6ZM156.096 221.796a1.8 1.8 0 1 0 0-3.6 1.8 1.8 0 0 0 0 3.6ZM112.896 221.796a1.8 1.8 0 1 0 0-3.6 1.8 1.8 0 0 0 0 3.6ZM69.696 221.796a1.8 1.8 0 1 0 0-3.6 1.8 1.8 0 0 0 0 3.6ZM199.296 221.796a1.8 1.8 0 1 0 0-3.6 1.8 1.8 0 0 0 0 3.6ZM177.696 27.396a1.8 1.8 0 1 0 0-3.6 1.8 1.8 0 0 0 0 3.6ZM134.496 27.396a1.8 1.8 0 1 0 0-3.6 1.8 1.8 0 0 0 0 3.6ZM91.296 27.396a1.8 1.8 0 1 0 0-3.6 1.8 1.8 0 0 0 0 3.6ZM156.096 27.396a1.8 1.8 0 1 0 0-3.6 1.8 1.8 0 0 0 0 3.6ZM112.896 27.396a1.8 1.8 0 1 0 0-3.6 1.8 1.8 0 0 0 0 3.6ZM69.696 27.396a1.8 1.8 0 1 0 0-3.6 1.8 1.8 0 0 0 0 3.6ZM177.696 5.796a1.8 1.8 0 1 0 0-3.6 1.8 1.8 0 0 0 0 3.6ZM134.496 5.796a1.8 1.8 0 1 0 0-3.6 1.8 1.8 0 0 0 0 3.6ZM91.296 5.796a1.8 1.8 0 1 0 0-3.6 1.8 1.8 0 0 0 0 3.6ZM177.696 48.996a1.8 1.8 0 1 0 0-3.6 1.8 1.8 0 0 0 0 3.6ZM134.496 48.996a1.8 1.8 0 1 0 0-3.6 1.8 1.8 0 0 0 0 3.6ZM91.296 48.996a1.8 1.8 0 1 0 0-3.6 1.8 1.8 0 0 0 0 3.6ZM156.096 5.796a1.8 1.8 0 1 0 0-3.6 1.8 1.8 0 0 0 0 3.6ZM112.896 5.796a1.8 1.8 0 1 0 0-3.6 1.8 1.8 0 0 0 0 3.6ZM69.696 5.796a1.8 1.8 0 1 0 0-3.6 1.8 1.8 0 0 0 0 3.6ZM156.096 48.996a1.8 1.8 0 1 0 0-3.6 1.8 1.8 0 0 0 0 3.6ZM112.896 48.996a1.8 1.8 0 1 0 0-3.6 1.8 1.8 0 0 0 0 3.6ZM69.696 48.996a1.8 1.8 0 1 0 0-3.6 1.8 1.8 0 0 0 0 3.6ZM199.296 27.396a1.8 1.8 0 1 0 0-3.6 1.8 1.8 0 0 0 0 3.6ZM199.296 5.796a1.8 1.8 0 1 0 0-3.6 1.8 1.8 0 0 0 0 3.6ZM199.296 48.996a1.8 1.8 0 1 0 0-3.6 1.8 1.8 0 0 0 0 3.6ZM264.195 70.596a1.8 1.8 0 1 0 0-3.6 1.8 1.8 0 0 0 0 3.6ZM220.995 70.596a1.8 1.8 0 1 0 0-3.6 1.8 1.8 0 0 0 0 3.6ZM264.195 113.796a1.8 1.8 0 1 0 0-3.6 1.8 1.8 0 0 0 0 3.6ZM220.995 113.796a1.8 1.8 0 1 0 0-3.6 1.8 1.8 0 0 0 0 3.6ZM264.195 178.596a1.8 1.8 0 1 0 0-3.6 1.8 1.8 0 0 0 0 3.6ZM220.995 178.596a1.8 1.8 0 1 0 0-3.6 1.8 1.8 0 0 0 0 3.6ZM242.595 70.596a1.8 1.8 0 1 0 0-3.6 1.8 1.8 0 0 0 0 3.6ZM242.595 113.796a1.8 1.8 0 1 0 0-3.6 1.8 1.8 0 0 0 0 3.6ZM242.595 178.596a1.8 1.8 0 1 0 0-3.6 1.8 1.8 0 0 0 0 3.6ZM264.195 92.196a1.8 1.8 0 1 0 0-3.6 1.8 1.8 0 0 0 0 3.6ZM220.995 92.196a1.8 1.8 0 1 0 0-3.6 1.8 1.8 0 0 0 0 3.6ZM264.195 156.996a1.8 1.8 0 1 0 0-3.6 1.8 1.8 0 0 0 0 3.6ZM220.995 156.996a1.8 1.8 0 1 0 0-3.6 1.8 1.8 0 0 0 0 3.6ZM264.195 135.396a1.8 1.8 0 1 0 0-3.6 1.8 1.8 0 0 0 0 3.6ZM220.995 135.396a1.8 1.8 0 1 0 0-3.6 1.8 1.8 0 0 0 0 3.6ZM264.195 200.196a1.8 1.8 0 1 0 0-3.6 1.8 1.8 0 0 0 0 3.6ZM220.995 200.196a1.8 1.8 0 1 0 0-3.6 1.8 1.8 0 0 0 0 3.6ZM242.595 92.196a1.8 1.8 0 1 0 0-3.6 1.8 1.8 0 0 0 0 3.6ZM242.595 156.996a1.8 1.8 0 1 0 0-3.6 1.8 1.8 0 0 0 0 3.6ZM242.595 135.396a1.8 1.8 0 1 0 0-3.6 1.8 1.8 0 0 0 0 3.6ZM242.595 200.196a1.8 1.8 0 1 0 0-3.6 1.8 1.8 0 0 0 0 3.6ZM264.195 221.796a1.8 1.8 0 1 0 0-3.6 1.8 1.8 0 0 0 0 3.6ZM220.995 221.796a1.8 1.8 0 1 0 0-3.6 1.8 1.8 0 0 0 0 3.6ZM242.595 221.796a1.8 1.8 0 1 0 0-3.6 1.8 1.8 0 0 0 0 3.6ZM264.195 27.396a1.8 1.8 0 1 0 0-3.6 1.8 1.8 0 0 0 0 3.6ZM220.995 27.396a1.8 1.8 0 1 0 0-3.6 1.8 1.8 0 0 0 0 3.6ZM242.595 27.396a1.8 1.8 0 1 0 0-3.6 1.8 1.8 0 0 0 0 3.6ZM264.195 5.796a1.8 1.8 0 1 0 0-3.6 1.8 1.8 0 0 0 0 3.6ZM220.995 5.796a1.8 1.8 0 1 0 0-3.6 1.8 1.8 0 0 0 0 3.6ZM264.195 48.996a1.8 1.8 0 1 0 0-3.6 1.8 1.8 0 0 0 0 3.6ZM220.995 48.996a1.8 1.8 0 1 0 0-3.6 1.8 1.8 0 0 0 0 3.6ZM242.595 5.796a1.8 1.8 0 1 0 0-3.6 1.8 1.8 0 0 0 0 3.6ZM242.595 48.996a1.8 1.8 0 1 0 0-3.6 1.8 1.8 0 0 0 0 3.6Z" fill="#D7DFFE"/><path d="M34.182 51.93a5.382 5.382 0 1 0 0-10.764 5.382 5.382 0 0 0 0 10.764ZM221.382 182.43a5.383 5.383 0 1 0-.001-10.765 5.383 5.383 0 0 0 .001 10.765Z" fill="#3761FB"/><path d="M123.912 39.852c-3.825 1.224-9-5.4-3.924-11.124 3.861-4.33-.261-10.314 6.525-13.572 3.447-1.656 6.948-.82 10.206 1.017 3.258 1.836 5.445-3.852 10.719-2.448 6.129 1.638 8.469 16.326-2.628 18.27 0 0-1.062-7.128-4.104-9-3.987-2.43-10.989-1.944-11.232 3.77-.135 3.385-1.044 6.517-3.078 6.778-2.484.342-3.492 2.196-2.484 6.309Zm39.213 72.9 1.188 15.615h-60.615l1.323-15.615s-8.307-.531-7.2-7.668c1.107-7.137 7.2-41.337 7.2-41.337s2.511-7.353 8.649-8.874l9.225-2.277v4.32h-.846l6.993 6.83 5.121-4.733 4.248 4.734 5.967-6.03h.207v-.207l.585-.594h-.585v-4.167l11.187 2.853s5.958 3.042 6.867 8.154c.909 5.112 6.939 41.544 6.939 41.544s-.027 7.056-6.453 7.461v-.009Zm-43.947-15.75s-4.149-4.41-16.47-2.043c0 0 .27 3.339 4.932 4.095 4.662.756 11.538-2.043 11.538-2.043V97Zm39.6 3.087s-4.608-9.576-13.599-6.48l.846 4.374 12.753 2.106Zm2.214 156.276h-16.263V261h16.254l.009-4.635Zm-39.834 0H90.963V261h30.186l.009-4.635Z" fill="url(#a)"/><path d="M123.912 35.739c.594 6.048 2.853 13.329 10.251 13.329M139.509 56.088v-7.02M127.944 56.088v-9.27M122.049 56.925l6.993 6.83 4.68-5.228M145.395 56.925l-6.984 6.83-4.689-5.228" stroke="#5E329C" stroke-width="3" stroke-linecap="round" stroke-linejoin="round"/><path d="M127.521 51.453 113.67 54.9a12.438 12.438 0 0 0-9.108 9.99l-6.588 39.393a7.289 7.289 0 0 0 9.207 8.217l26.541-7.668M139.923 51.453l13.851 3.447a12.459 12.459 0 0 1 9.126 9.972l6.588 39.393a7.29 7.29 0 0 1-9.216 8.235l-11.934-3.447" stroke="#5E329C" stroke-width="3" stroke-linecap="round" stroke-linejoin="round"/><path d="m105.021 100.098 39.519-8.604 1.584 6.948M158.769 100.098s-2.232-8.1-13.275-6.786M102.708 94.968s13.563-2.457 17.361 1.665M103.698 128.376h60.615M107.64 247.653V128.43M159.606 237.609l.657-109.179M146.376 237.6s-10.215-71.811-12.375-88.893c0 0-10.377 77.301-13.203 96.012V261H90.963M146.376 251.019v-13.41h2.421M149.652 242.325v-7.659A3.367 3.367 0 0 1 153 231.3v0a3.355 3.355 0 0 1 3.112 2.076c.169.409.255.848.254 1.29v7.659M147.114 250.632a8.09 8.09 0 0 0-2.385 5.742h16.254a8.102 8.102 0 0 0-8.1-8.1" stroke="#5E329C" stroke-width="3" stroke-linecap="round" stroke-linejoin="round"/><path d="M156.393 237.609h3.213v14.238M160.983 261h-16.254M120.798 256.374H90.963c-3.735-11.052 16.677-8.721 16.677-8.721M113.022 238.194h7.776M107.64 231.3h1.323a4.058 4.058 0 0 1 4.059 4.059v6.966M107.64 151.785a14.399 14.399 0 0 0 14.4-14.4M111.393 137.367h14.175M143.784 27.08c2.547 7.876.9 17.596-4.275 21.988M135.801 31.995c.438 1.81.738 3.652.9 5.508 0 1.638-1.935 1.8-1.935 1.8" stroke="#5E329C" stroke-width="3" stroke-linecap="round" stroke-linejoin="round"/><defs><linearGradient id="a" x1="61.614" y1="79.308" x2="202.14" y2="219.834" gradientUnits="userSpaceOnUse"><stop stop-color="#E64C84"/><stop offset=".22" stop-color="#BF63AD"/><stop offset=".44" stop-color="#9E77CF"/><stop offset=".65" stop-color="#8685E8"/><stop offset=".84" stop-color="#788DF7"/><stop offset="1" stop-color="#7390FC"/></linearGradient></defs></svg>