<svg width="61" height="77" fill="none" xmlns="http://www.w3.org/2000/svg"><path d="M42.82 59.57a.413.413 0 0 1-.413-.414V14.55a5.897 5.897 0 0 0-5.89-5.89H11.088a5.897 5.897 0 0 0-5.89 5.89v10.563a.413.413 0 1 1-.827 0V14.551a6.724 6.724 0 0 1 6.717-6.717H36.52a6.724 6.724 0 0 1 6.717 6.717v44.605a.417.417 0 0 1-.416.413Z" fill="#6A2EA0"/><path d="M39.196 57.948a6.14 6.14 0 1 1-12.282 0 6.14 6.14 0 1 1 12.282 0ZM31.243 6.2h-4.39c-.01 0-.016-.01-.01-.02.37-.55.59-1.21.61-1.922.055-2.135-1.81-3.895-3.94-3.718a3.638 3.638 0 0 0-2.723 5.641c.006.008 0 .02-.01.02h-3.962a2.545 2.545 0 1 0 0 5.092h14.425a2.545 2.545 0 1 0 0-5.093Zm-7.366-.212a1.962 1.962 0 1 1 .001-3.924 1.962 1.962 0 0 1 0 3.924Zm36.276 27.156h-3.86v32.26h3.86v-32.26Z" fill="url(#a)"/><path d="M57.946 76.726a1.65 1.65 0 1 0 0-3.3 1.65 1.65 0 0 0 0 3.3Z" fill="#0061FF"/><path d="M30.514 25.658H.536a.413.413 0 1 1 0-.828h29.978a.413.413 0 1 1 0 .828ZM35.88 32.149H14.776a.413.413 0 1 1 0-.828h21.107a.413.413 0 1 1-.003.828ZM30.514 39.352H7.941a.413.413 0 1 1 0-.828h22.573a.413.413 0 1 1 0 .828ZM23.803 59.57h-13.25c-6.11 0-6.182-5.978-6.182-6.038v-14.34a.413.413 0 1 1 .827 0v14.34c0 .212.078 5.21 5.355 5.21h13.25a.413.413 0 1 1 0 .828ZM60.153 65.819h-3.86a.413.413 0 0 1-.413-.414V53.23a.413.413 0 1 1 .828 0v11.76h3.031V33.559h-3.031v14.568a.413.413 0 1 1-.828 0V33.145c0-.229.185-.414.414-.414h3.86c.228 0 .413.185.413.414v32.26a.413.413 0 0 1-.414.413Z" fill="#6A2EA0"/><path d="M56.294 33.559a.413.413 0 0 1-.395-.538l1.404-4.458a.947.947 0 0 1 .92-.673c.43 0 .788.264.918.673l1.404 4.458a.413.413 0 1 1-.79.248l-1.403-4.458a.127.127 0 0 0-.13-.096c-.047 0-.105.016-.13.096l-1.404 4.458a.413.413 0 0 1-.394.29ZM23.803 67.324a.416.416 0 0 1-.08-.822c3.556-.712 6.709-2.67 8.927-4.83-1.501-2.064-1.65-4.428-.842-6.097.717-1.487 2.058-2.152 3.493-1.735 1.018.295 1.553 1.098 1.503 2.254-.066 1.556-1.183 3.655-3.046 5.636.381.427.836.836 1.366 1.214 3.95 2.802 7.382-1.06 7.526-1.225a.414.414 0 0 1 .662.05c.071.112 1.82 2.769 4.61 1.155a.415.415 0 0 1 .413.718c-2.73 1.58-4.687-.177-5.412-1.024-1.079 1.018-4.491 3.691-8.279 1.001a9.03 9.03 0 0 1-1.468-1.296c-2.311 2.248-5.566 4.248-9.29 4.996-.03.005-.058.005-.083.005Zm10.67-12.775c-.794 0-1.49.491-1.923 1.388-.673 1.393-.549 3.368.684 5.136 1.67-1.79 2.682-3.652 2.737-5.012.033-.773-.265-1.239-.908-1.426a2.11 2.11 0 0 0-.59-.086Z" fill="#6A2EA0"/><defs><linearGradient id="a" x1="18.51" y1="3.03" x2="55.93" y2="67.843" gradientUnits="userSpaceOnUse"><stop stop-color="#4C90FF"/><stop offset="1" stop-color="#FF4C84"/></linearGradient></defs></svg>