<svg width="48" height="64" fill="none" xmlns="http://www.w3.org/2000/svg"><path d="M40.892 55.847v3.766c0 1.714-2.171 3.761-2.171 3.761h-4.837s-2.172-2.047-2.172-3.761v-3.766h9.181ZM13.375 16.582H.875v25.496L20.332 42l-6.957-25.419Z" fill="url(#a)"/><path d="M29.503 42.377H.875a.297.297 0 0 1-.297-.297V16.582c0-.164.133-.297.297-.297h36.02c.165 0 .297.133.297.297v6.884a.297.297 0 1 1-.593 0v-6.587H1.172v24.902h28.329a.298.298 0 0 1 .002.596Z" fill="#6A2EA0"/><path d="M16.16 49.924a.297.297 0 0 1-.297-.297V42.08a.297.297 0 1 1 .594 0v7.547a.298.298 0 0 1-.297.297ZM21.773 49.924a.297.297 0 0 1-.296-.297V42.08a.297.297 0 1 1 .593 0v7.547a.297.297 0 0 1-.297.297Z" fill="#6A2EA0"/><path d="M10.533 51.866a.297.297 0 0 1-.297-.297 2.242 2.242 0 0 1 2.24-2.239h13.77a.297.297 0 1 1 0 .594h-13.77c-.907 0-1.646.739-1.646 1.645a.297.297 0 0 1-.297.297Z" fill="#6A2EA0"/><path d="M9.315 5.175a.91.91 0 1 0 0-1.821.91.91 0 0 0 0 1.82ZM18.819 5.175a.91.91 0 1 0 0-1.821.91.91 0 0 0 0 1.82ZM32.78 5.175a.91.91 0 1 0 0-1.822.91.91 0 0 0 0 1.822Z" fill="#0061FF"/><path d="M36.302 57.582H31.31a.296.296 0 1 1 0-.594h4.99a.297.297 0 1 1 0 .594ZM43.958 63.672H22.459a.297.297 0 1 1 0-.594h21.499a.297.297 0 1 1 0 .594ZM41.893 61.05c-1.121 0-2.032-.91-2.032-2.03a2.033 2.033 0 0 1 4.063 0c0 1.12-.91 2.03-2.031 2.03Zm0-3.468a1.44 1.44 0 0 0-1.438 1.438 1.44 1.44 0 0 0 1.438 1.437 1.438 1.438 0 0 0 0-2.875ZM22.92 8.338h-3.985a.297.297 0 1 1 0-.593h3.985a3.49 3.49 0 0 0 3.487-3.487A3.49 3.49 0 0 0 22.92.772H4.358A3.487 3.487 0 0 0 .87 4.256a3.49 3.49 0 0 0 3.487 3.487h9.764a.297.297 0 1 1 0 .593H4.358a4.084 4.084 0 0 1-4.08-4.08 4.085 4.085 0 0 1 4.08-4.08H22.92A4.085 4.085 0 0 1 27 4.256c0 2.25-1.829 4.082-4.08 4.082Z" fill="#6A2EA0"/><path d="M18.949 25.66a.294.294 0 0 1-.285-.218L13.837 8.12a.298.298 0 0 1 .572-.16l4.827 17.321a.297.297 0 0 1-.287.378ZM36.273 53.772a.297.297 0 0 1-.297-.297v-4.53a4.484 4.484 0 0 1 4.478-4.478h4.173a2.478 2.478 0 0 0 2.475-2.474 2.478 2.478 0 0 0-2.474-2.475h-7.916a5.439 5.439 0 0 1-5.432-5.433v-3.773a4.657 4.657 0 0 0-4.653-4.653h-.594a.297.297 0 1 1 0-.594h.594a5.253 5.253 0 0 1 5.247 5.247v3.773a4.843 4.843 0 0 0 4.838 4.839h7.915a3.071 3.071 0 0 1 3.07 3.069 3.071 3.071 0 0 1-3.07 3.068h-4.173a3.888 3.888 0 0 0-3.884 3.885v4.53a.297.297 0 0 1-.297.296ZM26.704 52.274H.971a.297.297 0 1 1 0-.594h25.733a.297.297 0 1 1 0 .594Z" fill="#6A2EA0"/><defs><linearGradient id="a" x1="-2.373" y1="19.832" x2="39.946" y2="62.151" gradientUnits="userSpaceOnUse"><stop stop-color="#4C90FF"/><stop offset=".116" stop-color="#538EFB"/><stop offset=".273" stop-color="#6487EF"/><stop offset=".455" stop-color="#817DDB"/><stop offset=".655" stop-color="#A96DC0"/><stop offset=".867" stop-color="#DB5A9D"/><stop offset="1" stop-color="#FF4C84"/></linearGradient></defs></svg>