<svg viewBox="0 0 263.38 303.85" xmlns="http://www.w3.org/2000/svg"><g fill="#fdb827"><path d="m131.52 73.82a78.11 78.11 0 1 0 78.11 78.1 78.2 78.2 0 0 0 -78.11-78.1zm0 151.77a73.68 73.68 0 1 1 73.68-73.67 73.76 73.76 0 0 1 -73.68 73.67z"/><path d="m263.38 227.9-28.06-37.4 21.26-9.87-25-18 17.09-10.88-17.14-10.75 24.94-18.16-21.3-9.84 28-37.31-47.3 3.37 2.83-21-28.4 10.47-.59-18-17.62 7.43-3.49-28.32-18.27 11-18.84-40.64-19.11 40.91-18.18-11.16-3.49 28.42-17.47-7.31-.61 18-28.07-10.27 2.75 20.92-47-3.46 24.8 36.06-18 10.94 24.84 18-16.95 10.71 16.93 10.69-24.93 18.01 21 9.72-28 37.39 47-3.46-2.83 21.08 28.14-10.39.55 18.08 17.54-7.2 3.41 28.54 18.19-11.12 19.52 40.75 19.11-40.76 18.42 11.4 3.4-28.49 17.61 7.3.58-18.08 28.36 10.52-2.9-21.14zm-76.91 1.31-3.47-6.55a65.7 65.7 0 0 1 -7.7 5l11.67 20.23-16.68-6.92-3.13-9.14a81.89 81.89 0 0 1 -10 3.67l10.14 33.23-17.52-10.73-3-20c-4.88.86-15.17 1.27-15.25 1.27v55.08l-18.42-38 3-18.45c-2.37-.4-8-1.93-10.32-2.52l-9.24 30.29-3.27-26.38 2.53-7.76a64 64 0 0 1 -8.09-4.21l-11.65 20-.55-16.86 4.48-8.22a91 91 0 0 1 -8.11-6.81l-23.65 25.34 2.7-19.91 13.71-13.21a88.54 88.54 0 0 1 -8.65-12.4l-47.1 27.14 25.45-34.39 15.23-6.53a93.61 93.61 0 0 1 -2.88-10.2l-30.7 7.08 23-16.66 6.06-.85c-.38-2.81-.38-6.15-.48-9l-23.17-.08 16-10.13 7.71 1.09a95.1 95.1 0 0 1 1.76-10.46l-33.89-7.86 17.08-10.4 19.78 8.14a84.42 84.42 0 0 1 6.47-13.81l-47.77-27.48 44.11 3.29 12.34 11.86a35.41 35.41 0 0 1 8.66-7.73l-19.41-21.27 22.52 7.73 3.7 6.84a77.07 77.07 0 0 1 7.61-5l-11.63-20.22 16.55 6.89 3.25 9.17a74.55 74.55 0 0 1 9.86-3.77l-10.2-33.38 17.4 10.87 3.13 20a79.4 79.4 0 0 1 15.07-1.38v-55.11l17.68 38-2.85 18.36c2.88.48 7.6 1.62 10.37 2.39l9.22-30.13 3.38 26-2.57 7.84a68 68 0 0 1 8.18 4.12l11.66-20.32.61 17-4.56 8.21a68.05 68.05 0 0 1 8.25 6.78l23.72-25.49-2.79 20-13.53 13.15a83.14 83.14 0 0 1 8.83 12.45l47.64-27.54-26.16 35.09-14.91 6.24a66.87 66.87 0 0 1 3.07 10.27l30.83-7.14-23 16.75-6 .88c.34 3.09.53 8.58.52 9.13l23.23.16-16 10-7.72-1c-.51 4-1 6.83-1.76 10.61l33.87 7.82-20.12 9.35-16.73-6.94a86 86 0 0 1 -6.5 13.86l47.9 27.66-44.54-3.32-12.15-11.83a82.65 82.65 0 0 1 -7.32 7.77l21.67 23.18z"/><path d="m166.68 102.15c1.82-3.12 2.95-7.25-1.33-9.77s-7.31.75-9.12 3.9a16.74 16.74 0 0 0 2.34 2.15l-6.34 9.57-1-.57-7.23-4.67a.71.71 0 0 0 -.87.12l-2.13 2.39a.49.49 0 0 0 .1.74l4.32 2.74-5 9.07c-4.33-3.14-7.2-5.57-7.27-5.63l-1.41-1.19-1.48 1.23c-.08.06-3.25 2.64-8 5.92l-5.18-9.35 4.32-2.74a.47.47 0 0 0 .1-.74l-2.14-2.39a.71.71 0 0 0 -.87-.12l-7.19 4.65-1 .57-6.3-9.6a17.16 17.16 0 0 0 2.35-2.15c-1.82-3.15-4.82-6.41-9.12-3.9s-3.15 6.65-1.35 9.77a16.06 16.06 0 0 0 3.26-1l5.07 10.26-2.53 1.44-6.17 3.15a.72.72 0 0 0 -.34.81l1 3a.5.5 0 0 0 .71.28l4.41-2.32 5.66 9.41a60 60 0 0 1 -8.47 3.47l-1.56.36-.19 17.69c.54 13.08 3.18 24.32 7.79 33.76l-9.21 16.54 1.79 11.72 11-4.38 5.93-9.7a58.11 58.11 0 0 0 16.73 12.45l1 .61 1-.61a55.19 55.19 0 0 0 16.04-12.09l5.71 9.31 10.94 4.38 1.79-11.69-9-16.2c4.44-9.48 6.89-20.84 7.44-34.07v-17.59l-1.56-.36a57.8 57.8 0 0 1 -8.51-3.52l5.63-9.36 4.41 2.32a.5.5 0 0 0 .71-.28l1-3a.71.71 0 0 0 -.33-.81l-6.17-3.15-2.53-1.44 5.06-10.26a16.25 16.25 0 0 0 3.29.87zm-61.15 101.22-5.46 2.14-1-5.86 7.46-13.24a57.92 57.92 0 0 0 4.92 7.24zm4.68-77.78-4.9-8.15a27.37 27.37 0 0 0 4-4.12 26.89 26.89 0 0 0 5.41-1.25l4.49 8.08c-2.71 1.85-5.79 3.7-9 5.44zm53.23 74.06-.95 5.86-5.49-2.14-5.7-9.37a55.22 55.22 0 0 0 4.93-7.36zm-2.18-65.41v14.36c-1.13 27.49-10.49 45.8-29.69 55.93v-87.62c4.3 3.6 17.07 12.9 29.69 17.33zm-8.86-8.74c-3.21-1.79-6.27-3.72-9-5.56l4.36-7.87a21.91 21.91 0 0 0 5.17 1.72 22 22 0 0 0 4.29 3.65z"/></g></svg>