<svg width="383" height="395" fill="none" xmlns="http://www.w3.org/2000/svg"><path d="M218.429 87.168a1.403 1.403 0 1 0 0-2.806 1.403 1.403 0 0 0 0 2.806ZM184.759 87.168a1.403 1.403 0 1 0 0-2.806 1.403 1.403 0 0 0 0 2.806ZM151.089 87.168a1.403 1.403 0 1 0 0-2.806 1.403 1.403 0 0 0 0 2.806ZM218.429 120.844a1.404 1.404 0 1 0-.001-2.807 1.404 1.404 0 0 0 .001 2.807ZM218.429 171.359a1.403 1.403 0 1 0 0-2.806 1.403 1.403 0 0 0 0 2.806ZM184.759 120.844a1.404 1.404 0 1 0-.001-2.807 1.404 1.404 0 0 0 .001 2.807ZM151.089 120.844a1.404 1.404 0 1 0-.001-2.807 1.404 1.404 0 0 0 .001 2.807ZM184.759 171.359a1.403 1.403 0 1 0 0-2.806 1.403 1.403 0 0 0 0 2.806ZM151.089 171.359a1.403 1.403 0 1 0 0-2.806 1.403 1.403 0 0 0 0 2.806ZM201.594 87.168a1.403 1.403 0 1 0 0-2.806 1.403 1.403 0 0 0 0 2.806ZM167.924 87.168a1.403 1.403 0 1 0 0-2.806 1.403 1.403 0 0 0 0 2.806ZM134.254 87.168a1.403 1.403 0 1 0-.002-2.806 1.403 1.403 0 0 0 .002 2.806ZM117.418 87.168a1.403 1.403 0 1 0 0-2.806 1.403 1.403 0 0 0 0 2.806ZM201.594 120.844a1.404 1.404 0 1 0-.001-2.807 1.404 1.404 0 0 0 .001 2.807ZM201.594 171.359a1.403 1.403 0 1 0 0-2.806 1.403 1.403 0 0 0 0 2.806ZM167.924 120.844a1.404 1.404 0 1 0-.001-2.807 1.404 1.404 0 0 0 .001 2.807ZM134.254 120.844a1.403 1.403 0 1 0-.003-2.807 1.403 1.403 0 0 0 .003 2.807ZM117.418 120.844a1.404 1.404 0 1 0-.001-2.807 1.404 1.404 0 0 0 .001 2.807ZM167.924 171.359a1.403 1.403 0 1 0 0-2.806 1.403 1.403 0 0 0 0 2.806ZM134.254 171.359a1.403 1.403 0 1 0-.001-2.805 1.403 1.403 0 0 0 .001 2.805ZM117.418 171.359a1.403 1.403 0 1 0 0-2.806 1.403 1.403 0 0 0 0 2.806ZM218.429 104.006a1.404 1.404 0 1 0-.001-2.807 1.404 1.404 0 0 0 .001 2.807ZM218.429 154.521a1.403 1.403 0 1 0 0-2.806 1.403 1.403 0 0 0 0 2.806ZM184.759 104.006a1.404 1.404 0 1 0-.001-2.807 1.404 1.404 0 0 0 .001 2.807ZM151.089 104.006a1.404 1.404 0 1 0-.001-2.807 1.404 1.404 0 0 0 .001 2.807ZM184.759 154.521a1.403 1.403 0 1 0 0-2.806 1.403 1.403 0 0 0 0 2.806ZM151.089 154.521a1.403 1.403 0 1 0 0-2.806 1.403 1.403 0 0 0 0 2.806ZM218.429 137.681a1.403 1.403 0 1 0 0-2.806 1.403 1.403 0 0 0 0 2.806ZM218.429 188.197a1.403 1.403 0 1 0 0-2.806 1.403 1.403 0 0 0 0 2.806ZM184.759 137.681a1.403 1.403 0 1 0 0-2.806 1.403 1.403 0 0 0 0 2.806ZM151.089 137.681a1.403 1.403 0 1 0 0-2.806 1.403 1.403 0 0 0 0 2.806ZM184.759 188.197a1.403 1.403 0 1 0 0-2.806 1.403 1.403 0 0 0 0 2.806ZM151.089 188.197a1.403 1.403 0 1 0 0-2.806 1.403 1.403 0 0 0 0 2.806ZM201.594 104.006a1.404 1.404 0 1 0-.001-2.807 1.404 1.404 0 0 0 .001 2.807ZM201.594 154.521a1.403 1.403 0 1 0 0-2.806 1.403 1.403 0 0 0 0 2.806ZM167.924 104.006a1.404 1.404 0 1 0-.001-2.807 1.404 1.404 0 0 0 .001 2.807ZM134.254 104.006a1.403 1.403 0 1 0-.003-2.807 1.403 1.403 0 0 0 .003 2.807ZM117.418 104.006a1.404 1.404 0 1 0-.001-2.807 1.404 1.404 0 0 0 .001 2.807ZM167.924 154.521a1.403 1.403 0 1 0 0-2.806 1.403 1.403 0 0 0 0 2.806ZM134.254 154.521a1.403 1.403 0 1 0-.001-2.805 1.403 1.403 0 0 0 .001 2.805ZM117.418 154.521a1.403 1.403 0 1 0 0-2.806 1.403 1.403 0 0 0 0 2.806ZM201.594 137.681a1.403 1.403 0 1 0 0-2.806 1.403 1.403 0 0 0 0 2.806ZM201.594 188.197a1.403 1.403 0 1 0 0-2.806 1.403 1.403 0 0 0 0 2.806ZM167.924 137.681a1.403 1.403 0 1 0 0-2.806 1.403 1.403 0 0 0 0 2.806ZM134.254 137.681a1.403 1.403 0 1 0-.001-2.805 1.403 1.403 0 0 0 .001 2.805ZM117.418 137.681a1.403 1.403 0 1 0 0-2.806 1.403 1.403 0 0 0 0 2.806ZM167.924 188.197a1.403 1.403 0 1 0 0-2.806 1.403 1.403 0 0 0 0 2.806ZM134.254 188.197a1.403 1.403 0 1 0-.001-2.805 1.403 1.403 0 0 0 .001 2.805ZM117.418 188.197a1.403 1.403 0 1 0 0-2.806 1.403 1.403 0 0 0 0 2.806ZM235.264 87.168a1.403 1.403 0 1 0 0-2.806 1.403 1.403 0 0 0 0 2.806ZM235.264 120.844a1.404 1.404 0 1 0-.001-2.807 1.404 1.404 0 0 0 .001 2.807ZM235.264 171.359a1.403 1.403 0 1 0 0-2.806 1.403 1.403 0 0 0 0 2.806ZM235.264 104.006a1.404 1.404 0 1 0-.001-2.807 1.404 1.404 0 0 0 .001 2.807ZM235.264 154.521a1.403 1.403 0 1 0 0-2.806 1.403 1.403 0 0 0 0 2.806ZM235.264 137.681a1.403 1.403 0 1 0 0-2.806 1.403 1.403 0 0 0 0 2.806ZM235.264 188.197a1.403 1.403 0 1 0 0-2.806 1.403 1.403 0 0 0 0 2.806ZM100.583 87.168a1.403 1.403 0 1 0 0-2.806 1.403 1.403 0 0 0 0 2.806ZM66.913 87.168a1.403 1.403 0 1 0 0-2.806 1.403 1.403 0 0 0 0 2.806ZM33.242 87.168a1.403 1.403 0 1 0 0-2.807 1.403 1.403 0 0 0 0 2.807ZM100.583 120.844a1.404 1.404 0 1 0-.001-2.807 1.404 1.404 0 0 0 .001 2.807ZM100.583 171.359a1.403 1.403 0 1 0 0-2.806 1.403 1.403 0 0 0 0 2.806ZM66.913 120.844a1.404 1.404 0 1 0-.002-2.807 1.404 1.404 0 0 0 .002 2.807ZM33.242 120.844a1.404 1.404 0 1 0-.001-2.808 1.404 1.404 0 0 0 .002 2.808ZM66.913 171.359a1.403 1.403 0 1 0 0-2.806 1.403 1.403 0 0 0 0 2.806ZM33.242 171.359a1.403 1.403 0 1 0 0-2.806 1.403 1.403 0 0 0 0 2.806ZM83.748 87.168a1.403 1.403 0 1 0 0-2.806 1.403 1.403 0 0 0 0 2.806ZM50.078 87.168a1.403 1.403 0 1 0 0-2.806 1.403 1.403 0 0 0 0 2.806ZM16.407 87.168a1.403 1.403 0 1 0 0-2.807 1.403 1.403 0 0 0 0 2.807ZM83.748 120.844a1.404 1.404 0 1 0-.002-2.807 1.404 1.404 0 0 0 .002 2.807ZM83.748 171.359a1.403 1.403 0 1 0 0-2.806 1.403 1.403 0 0 0 0 2.806ZM50.078 120.844a1.404 1.404 0 1 0-.002-2.807 1.404 1.404 0 0 0 .002 2.807ZM16.407 120.844a1.404 1.404 0 1 0-.001-2.808 1.404 1.404 0 0 0 .001 2.808ZM50.078 171.359a1.403 1.403 0 1 0 0-2.806 1.403 1.403 0 0 0 0 2.806ZM16.407 171.359a1.403 1.403 0 1 0 0-2.806 1.403 1.403 0 0 0 0 2.806ZM100.583 104.006a1.404 1.404 0 1 0-.001-2.807 1.404 1.404 0 0 0 .001 2.807ZM100.583 154.521a1.403 1.403 0 1 0 0-2.806 1.403 1.403 0 0 0 0 2.806ZM66.913 104.006a1.404 1.404 0 1 0-.002-2.807 1.404 1.404 0 0 0 .002 2.807ZM33.242 104.006a1.404 1.404 0 1 0-.001-2.808 1.404 1.404 0 0 0 .002 2.808ZM66.913 154.521a1.403 1.403 0 1 0 0-2.806 1.403 1.403 0 0 0 0 2.806ZM33.242 154.521a1.403 1.403 0 1 0 0-2.806 1.403 1.403 0 0 0 0 2.806ZM100.583 137.681a1.403 1.403 0 1 0 0-2.806 1.403 1.403 0 0 0 0 2.806ZM100.583 188.197a1.403 1.403 0 1 0 0-2.806 1.403 1.403 0 0 0 0 2.806ZM66.913 137.681a1.403 1.403 0 1 0 0-2.806 1.403 1.403 0 0 0 0 2.806ZM33.242 137.681a1.403 1.403 0 1 0 0-2.806 1.403 1.403 0 0 0 0 2.806ZM66.913 188.197a1.403 1.403 0 1 0 0-2.806 1.403 1.403 0 0 0 0 2.806ZM33.242 188.197a1.403 1.403 0 1 0 0-2.806 1.403 1.403 0 0 0 0 2.806ZM83.748 104.006a1.404 1.404 0 1 0-.002-2.807 1.404 1.404 0 0 0 .002 2.807ZM83.748 154.521a1.403 1.403 0 1 0 0-2.806 1.403 1.403 0 0 0 0 2.806ZM50.078 104.006a1.404 1.404 0 1 0-.002-2.807 1.404 1.404 0 0 0 .002 2.807ZM16.407 104.006a1.404 1.404 0 1 0-.001-2.808 1.404 1.404 0 0 0 .001 2.808ZM50.078 154.521a1.403 1.403 0 1 0 0-2.806 1.403 1.403 0 0 0 0 2.806ZM16.407 154.521a1.403 1.403 0 1 0 0-2.806 1.403 1.403 0 0 0 0 2.806ZM83.748 137.681a1.403 1.403 0 1 0 0-2.806 1.403 1.403 0 0 0 0 2.806ZM83.748 188.197a1.403 1.403 0 1 0 0-2.806 1.403 1.403 0 0 0 0 2.806ZM50.078 137.681a1.403 1.403 0 1 0 0-2.806 1.403 1.403 0 0 0 0 2.806ZM16.407 137.681a1.403 1.403 0 1 0 0-2.806 1.403 1.403 0 0 0 0 2.806ZM50.078 188.197a1.403 1.403 0 1 0 0-2.806 1.403 1.403 0 0 0 0 2.806ZM16.407 188.197a1.403 1.403 0 1 0 0-2.806 1.403 1.403 0 0 0 0 2.806ZM218.429 205.035a1.403 1.403 0 1 0 0-2.806 1.403 1.403 0 0 0 0 2.806ZM184.759 205.035a1.403 1.403 0 1 0 0-2.806 1.403 1.403 0 0 0 0 2.806ZM151.089 205.035a1.403 1.403 0 1 0 0-2.806 1.403 1.403 0 0 0 0 2.806ZM218.429 238.713a1.404 1.404 0 1 0-.001-2.807 1.404 1.404 0 0 0 .001 2.807ZM218.429 289.228a1.403 1.403 0 1 0 0-2.806 1.403 1.403 0 0 0 0 2.806ZM184.759 238.713a1.404 1.404 0 1 0-.001-2.807 1.404 1.404 0 0 0 .001 2.807ZM151.089 238.713a1.404 1.404 0 1 0-.001-2.807 1.404 1.404 0 0 0 .001 2.807ZM184.759 289.228a1.403 1.403 0 1 0 0-2.806 1.403 1.403 0 0 0 0 2.806ZM151.089 289.228a1.403 1.403 0 1 0 0-2.806 1.403 1.403 0 0 0 0 2.806ZM201.594 205.035a1.403 1.403 0 1 0 0-2.806 1.403 1.403 0 0 0 0 2.806ZM167.924 205.035a1.403 1.403 0 1 0 0-2.806 1.403 1.403 0 0 0 0 2.806ZM134.254 205.035a1.403 1.403 0 1 0-.001-2.805 1.403 1.403 0 0 0 .001 2.805ZM117.418 205.035a1.403 1.403 0 1 0 0-2.806 1.403 1.403 0 0 0 0 2.806ZM201.594 238.713a1.404 1.404 0 1 0-.001-2.807 1.404 1.404 0 0 0 .001 2.807ZM201.594 289.228a1.403 1.403 0 1 0 0-2.806 1.403 1.403 0 0 0 0 2.806ZM167.924 238.713a1.404 1.404 0 1 0-.001-2.807 1.404 1.404 0 0 0 .001 2.807ZM134.254 238.713a1.403 1.403 0 1 0-.003-2.807 1.403 1.403 0 0 0 .003 2.807ZM117.418 238.713a1.404 1.404 0 1 0-.001-2.807 1.404 1.404 0 0 0 .001 2.807ZM167.924 289.228a1.403 1.403 0 1 0 0-2.806 1.403 1.403 0 0 0 0 2.806ZM134.254 289.228a1.403 1.403 0 1 0-.001-2.805 1.403 1.403 0 0 0 .001 2.805ZM117.418 289.228a1.403 1.403 0 1 0 0-2.806 1.403 1.403 0 0 0 0 2.806ZM218.429 221.875a1.403 1.403 0 1 0 0-2.806 1.403 1.403 0 0 0 0 2.806ZM218.429 272.388a1.403 1.403 0 1 0 0-2.806 1.403 1.403 0 0 0 0 2.806ZM184.759 221.875a1.403 1.403 0 1 0 0-2.806 1.403 1.403 0 0 0 0 2.806ZM151.089 221.875a1.403 1.403 0 1 0 0-2.806 1.403 1.403 0 0 0 0 2.806ZM184.759 272.388a1.403 1.403 0 1 0 0-2.806 1.403 1.403 0 0 0 0 2.806ZM151.089 272.388a1.403 1.403 0 1 0 0-2.806 1.403 1.403 0 0 0 0 2.806ZM218.429 255.551a1.404 1.404 0 1 0-.001-2.807 1.404 1.404 0 0 0 .001 2.807ZM218.429 306.066a1.403 1.403 0 1 0 0-2.806 1.403 1.403 0 0 0 0 2.806ZM184.759 255.551a1.404 1.404 0 1 0-.001-2.807 1.404 1.404 0 0 0 .001 2.807ZM151.089 255.551a1.404 1.404 0 1 0-.001-2.807 1.404 1.404 0 0 0 .001 2.807ZM184.759 306.066a1.403 1.403 0 1 0 0-2.806 1.403 1.403 0 0 0 0 2.806ZM151.089 306.066a1.403 1.403 0 1 0 0-2.806 1.403 1.403 0 0 0 0 2.806ZM201.594 221.875a1.403 1.403 0 1 0 0-2.806 1.403 1.403 0 0 0 0 2.806ZM201.594 272.388a1.403 1.403 0 1 0 0-2.806 1.403 1.403 0 0 0 0 2.806ZM167.924 221.875a1.403 1.403 0 1 0 0-2.806 1.403 1.403 0 0 0 0 2.806ZM134.254 221.875a1.403 1.403 0 1 0-.001-2.805 1.403 1.403 0 0 0 .001 2.805ZM117.418 221.875a1.403 1.403 0 1 0 0-2.806 1.403 1.403 0 0 0 0 2.806ZM167.924 272.388a1.403 1.403 0 1 0 0-2.806 1.403 1.403 0 0 0 0 2.806ZM134.254 272.388a1.403 1.403 0 1 0-.001-2.805 1.403 1.403 0 0 0 .001 2.805ZM117.418 272.388a1.403 1.403 0 1 0 0-2.806 1.403 1.403 0 0 0 0 2.806ZM201.594 255.551a1.404 1.404 0 1 0-.001-2.807 1.404 1.404 0 0 0 .001 2.807ZM201.594 306.066a1.403 1.403 0 1 0 0-2.806 1.403 1.403 0 0 0 0 2.806ZM167.924 255.551a1.404 1.404 0 1 0-.001-2.807 1.404 1.404 0 0 0 .001 2.807ZM134.254 255.551a1.403 1.403 0 1 0-.003-2.807 1.403 1.403 0 0 0 .003 2.807ZM117.418 255.551a1.404 1.404 0 1 0-.001-2.807 1.404 1.404 0 0 0 .001 2.807ZM167.924 306.066a1.403 1.403 0 1 0 0-2.806 1.403 1.403 0 0 0 0 2.806ZM134.254 306.066a1.403 1.403 0 1 0-.001-2.805 1.403 1.403 0 0 0 .001 2.805ZM117.418 306.066a1.403 1.403 0 1 0 0-2.806 1.403 1.403 0 0 0 0 2.806ZM235.264 205.035a1.403 1.403 0 1 0 0-2.806 1.403 1.403 0 0 0 0 2.806ZM235.264 238.713a1.404 1.404 0 1 0-.001-2.807 1.404 1.404 0 0 0 .001 2.807ZM235.264 289.228a1.403 1.403 0 1 0 0-2.806 1.403 1.403 0 0 0 0 2.806ZM235.264 221.875a1.403 1.403 0 1 0 0-2.806 1.403 1.403 0 0 0 0 2.806ZM235.264 272.388a1.403 1.403 0 1 0 0-2.806 1.403 1.403 0 0 0 0 2.806ZM235.264 255.551a1.404 1.404 0 1 0-.001-2.807 1.404 1.404 0 0 0 .001 2.807ZM235.264 306.066a1.403 1.403 0 1 0 0-2.806 1.403 1.403 0 0 0 0 2.806ZM218.429 53.49a1.403 1.403 0 1 0 0-2.806 1.403 1.403 0 0 0 0 2.806ZM184.759 53.49a1.403 1.403 0 1 0 0-2.806 1.403 1.403 0 0 0 0 2.806ZM151.089 53.49a1.403 1.403 0 1 0 0-2.806 1.403 1.403 0 0 0 0 2.806ZM201.594 53.49a1.403 1.403 0 1 0 0-2.806 1.403 1.403 0 0 0 0 2.806ZM167.924 53.49a1.403 1.403 0 1 0 0-2.806 1.403 1.403 0 0 0 0 2.806ZM134.254 53.49a1.403 1.403 0 1 0-.002-2.806 1.403 1.403 0 0 0 .002 2.806ZM117.418 53.49a1.403 1.403 0 1 0 0-2.806 1.403 1.403 0 0 0 0 2.806ZM218.429 36.652a1.403 1.403 0 1 0 0-2.806 1.403 1.403 0 0 0 0 2.806ZM184.759 36.652a1.403 1.403 0 1 0 0-2.806 1.403 1.403 0 0 0 0 2.806ZM151.089 36.652a1.403 1.403 0 1 0 0-2.806 1.403 1.403 0 0 0 0 2.806ZM218.429 70.328a1.403 1.403 0 1 0 0-2.806 1.403 1.403 0 0 0 0 2.806ZM184.759 70.328a1.403 1.403 0 1 0 0-2.806 1.403 1.403 0 0 0 0 2.806ZM151.089 70.328a1.403 1.403 0 1 0 0-2.806 1.403 1.403 0 0 0 0 2.806ZM201.594 36.652a1.403 1.403 0 1 0 0-2.806 1.403 1.403 0 0 0 0 2.806ZM167.924 36.652a1.403 1.403 0 1 0 0-2.806 1.403 1.403 0 0 0 0 2.806ZM134.254 36.652a1.403 1.403 0 1 0-.002-2.805 1.403 1.403 0 0 0 .002 2.805ZM117.418 36.652a1.403 1.403 0 1 0 0-2.806 1.403 1.403 0 0 0 0 2.806ZM201.594 70.328a1.403 1.403 0 1 0 0-2.806 1.403 1.403 0 0 0 0 2.806ZM167.924 70.328a1.403 1.403 0 1 0 0-2.806 1.403 1.403 0 0 0 0 2.806ZM134.254 70.328a1.403 1.403 0 1 0-.002-2.806 1.403 1.403 0 0 0 .002 2.806ZM117.418 70.328a1.403 1.403 0 1 0 0-2.806 1.403 1.403 0 0 0 0 2.806ZM235.264 53.49a1.403 1.403 0 1 0 0-2.806 1.403 1.403 0 0 0 0 2.806ZM235.264 36.652a1.403 1.403 0 1 0 0-2.806 1.403 1.403 0 0 0 0 2.806ZM235.264 70.328a1.403 1.403 0 1 0 0-2.806 1.403 1.403 0 0 0 0 2.806ZM100.583 205.035a1.403 1.403 0 1 0 0-2.806 1.403 1.403 0 0 0 0 2.806ZM66.913 205.035a1.403 1.403 0 1 0 0-2.806 1.403 1.403 0 0 0 0 2.806ZM33.242 205.035a1.403 1.403 0 1 0 0-2.806 1.403 1.403 0 0 0 0 2.806ZM100.583 238.713a1.404 1.404 0 1 0-.001-2.807 1.404 1.404 0 0 0 .001 2.807ZM100.583 289.228a1.403 1.403 0 1 0 0-2.806 1.403 1.403 0 0 0 0 2.806ZM66.913 238.713a1.404 1.404 0 1 0-.002-2.807 1.404 1.404 0 0 0 .002 2.807ZM33.242 238.713a1.404 1.404 0 1 0-.001-2.808 1.404 1.404 0 0 0 .002 2.808ZM66.913 289.228a1.403 1.403 0 1 0 0-2.806 1.403 1.403 0 0 0 0 2.806ZM33.242 289.228a1.403 1.403 0 1 0 0-2.806 1.403 1.403 0 0 0 0 2.806ZM83.748 205.035a1.403 1.403 0 1 0 0-2.806 1.403 1.403 0 0 0 0 2.806ZM50.078 205.035a1.403 1.403 0 1 0 0-2.806 1.403 1.403 0 0 0 0 2.806ZM16.407 205.035a1.403 1.403 0 1 0 0-2.806 1.403 1.403 0 0 0 0 2.806ZM83.748 238.713a1.404 1.404 0 1 0-.002-2.807 1.404 1.404 0 0 0 .002 2.807ZM83.748 289.228a1.403 1.403 0 1 0 0-2.806 1.403 1.403 0 0 0 0 2.806ZM50.078 238.713a1.404 1.404 0 1 0-.002-2.807 1.404 1.404 0 0 0 .002 2.807ZM16.407 238.713a1.404 1.404 0 1 0-.001-2.808 1.404 1.404 0 0 0 .001 2.808ZM50.078 289.228a1.403 1.403 0 1 0 0-2.806 1.403 1.403 0 0 0 0 2.806ZM16.407 289.228a1.403 1.403 0 1 0 0-2.806 1.403 1.403 0 0 0 0 2.806ZM100.583 221.875a1.403 1.403 0 1 0 0-2.806 1.403 1.403 0 0 0 0 2.806ZM100.583 272.388a1.403 1.403 0 1 0 0-2.806 1.403 1.403 0 0 0 0 2.806ZM66.913 221.875a1.403 1.403 0 1 0 0-2.806 1.403 1.403 0 0 0 0 2.806ZM33.242 221.875a1.403 1.403 0 1 0 0-2.806 1.403 1.403 0 0 0 0 2.806ZM66.913 272.388a1.403 1.403 0 1 0 0-2.806 1.403 1.403 0 0 0 0 2.806ZM33.242 272.388a1.403 1.403 0 1 0 0-2.806 1.403 1.403 0 0 0 0 2.806ZM100.583 255.551a1.404 1.404 0 1 0-.001-2.807 1.404 1.404 0 0 0 .001 2.807ZM100.583 306.066a1.403 1.403 0 1 0 0-2.806 1.403 1.403 0 0 0 0 2.806ZM66.913 255.551a1.404 1.404 0 1 0-.002-2.807 1.404 1.404 0 0 0 .002 2.807ZM33.242 255.551a1.404 1.404 0 1 0-.001-2.808 1.404 1.404 0 0 0 .002 2.808ZM66.913 306.066a1.403 1.403 0 1 0 0-2.806 1.403 1.403 0 0 0 0 2.806ZM33.242 306.066a1.403 1.403 0 1 0 0-2.806 1.403 1.403 0 0 0 0 2.806ZM83.748 221.875a1.403 1.403 0 1 0 0-2.806 1.403 1.403 0 0 0 0 2.806ZM83.748 272.388a1.403 1.403 0 1 0 0-2.806 1.403 1.403 0 0 0 0 2.806ZM50.078 221.875a1.403 1.403 0 1 0 0-2.806 1.403 1.403 0 0 0 0 2.806ZM16.407 221.875a1.403 1.403 0 1 0 0-2.806 1.403 1.403 0 0 0 0 2.806ZM50.078 272.388a1.403 1.403 0 1 0 0-2.806 1.403 1.403 0 0 0 0 2.806ZM16.407 272.388a1.403 1.403 0 1 0 0-2.806 1.403 1.403 0 0 0 0 2.806ZM83.748 255.551a1.404 1.404 0 1 0-.002-2.807 1.404 1.404 0 0 0 .002 2.807ZM83.748 306.066a1.403 1.403 0 1 0 0-2.806 1.403 1.403 0 0 0 0 2.806ZM50.078 255.551a1.404 1.404 0 1 0-.002-2.807 1.404 1.404 0 0 0 .002 2.807ZM16.407 255.551a1.404 1.404 0 1 0-.001-2.808 1.404 1.404 0 0 0 .001 2.808ZM50.078 306.066a1.403 1.403 0 1 0 0-2.806 1.403 1.403 0 0 0 0 2.806ZM16.407 306.066a1.403 1.403 0 1 0 0-2.806 1.403 1.403 0 0 0 0 2.806ZM100.583 53.49a1.403 1.403 0 1 0 0-2.806 1.403 1.403 0 0 0 0 2.806ZM66.913 53.49a1.403 1.403 0 1 0 0-2.806 1.403 1.403 0 0 0 0 2.806ZM33.242 53.49a1.403 1.403 0 1 0 0-2.806 1.403 1.403 0 0 0 0 2.806ZM83.748 53.49a1.403 1.403 0 1 0 0-2.806 1.403 1.403 0 0 0 0 2.806ZM50.078 53.49a1.403 1.403 0 1 0 0-2.806 1.403 1.403 0 0 0 0 2.806ZM16.407 53.49a1.403 1.403 0 1 0 0-2.806 1.403 1.403 0 0 0 0 2.806ZM100.583 36.652a1.403 1.403 0 1 0 0-2.806 1.403 1.403 0 0 0 0 2.806ZM66.913 36.652a1.403 1.403 0 1 0 0-2.806 1.403 1.403 0 0 0 0 2.806ZM33.242 36.652a1.403 1.403 0 1 0 0-2.806 1.403 1.403 0 0 0 0 2.806ZM100.583 70.328a1.403 1.403 0 1 0 0-2.806 1.403 1.403 0 0 0 0 2.806ZM66.913 70.328a1.403 1.403 0 1 0 0-2.806 1.403 1.403 0 0 0 0 2.806ZM33.242 70.328a1.403 1.403 0 1 0 0-2.806 1.403 1.403 0 0 0 0 2.806ZM83.748 36.652a1.403 1.403 0 1 0 0-2.806 1.403 1.403 0 0 0 0 2.806ZM50.078 36.652a1.403 1.403 0 1 0 0-2.806 1.403 1.403 0 0 0 0 2.806ZM16.407 36.652a1.403 1.403 0 1 0 0-2.806 1.403 1.403 0 0 0 0 2.806ZM83.748 70.328a1.403 1.403 0 1 0 0-2.806 1.403 1.403 0 0 0 0 2.806ZM50.078 70.328a1.403 1.403 0 1 0 0-2.806 1.403 1.403 0 0 0 0 2.806ZM16.407 70.328a1.403 1.403 0 1 0 0-2.806 1.403 1.403 0 0 0 0 2.806ZM218.429 322.904a1.403 1.403 0 1 0 0-2.806 1.403 1.403 0 0 0 0 2.806ZM184.759 322.904a1.403 1.403 0 1 0 0-2.806 1.403 1.403 0 0 0 0 2.806ZM151.089 322.904a1.403 1.403 0 1 0 0-2.806 1.403 1.403 0 0 0 0 2.806ZM218.429 356.582a1.403 1.403 0 1 0 0-2.806 1.403 1.403 0 0 0 0 2.806ZM184.759 356.582a1.403 1.403 0 1 0 0-2.806 1.403 1.403 0 0 0 0 2.806ZM151.089 356.582a1.403 1.403 0 1 0 0-2.806 1.403 1.403 0 0 0 0 2.806ZM201.594 322.904a1.403 1.403 0 1 0 0-2.806 1.403 1.403 0 0 0 0 2.806ZM167.924 322.904a1.403 1.403 0 1 0 0-2.806 1.403 1.403 0 0 0 0 2.806ZM134.254 322.904a1.403 1.403 0 1 0-.001-2.805 1.403 1.403 0 0 0 .001 2.805ZM117.418 322.904a1.403 1.403 0 1 0 0-2.806 1.403 1.403 0 0 0 0 2.806ZM201.594 356.582a1.403 1.403 0 1 0 0-2.806 1.403 1.403 0 0 0 0 2.806ZM167.924 356.582a1.403 1.403 0 1 0 0-2.806 1.403 1.403 0 0 0 0 2.806ZM134.254 356.582a1.403 1.403 0 1 0-.001-2.805 1.403 1.403 0 0 0 .001 2.805ZM117.418 356.582a1.403 1.403 0 1 0 0-2.806 1.403 1.403 0 0 0 0 2.806ZM218.429 339.742a1.403 1.403 0 1 0 0-2.806 1.403 1.403 0 0 0 0 2.806ZM184.759 339.742a1.403 1.403 0 1 0 0-2.806 1.403 1.403 0 0 0 0 2.806ZM151.089 339.742a1.403 1.403 0 1 0 0-2.806 1.403 1.403 0 0 0 0 2.806ZM218.429 373.42a1.404 1.404 0 1 0-.001-2.807 1.404 1.404 0 0 0 .001 2.807ZM184.759 373.42a1.404 1.404 0 1 0-.001-2.807 1.404 1.404 0 0 0 .001 2.807ZM151.089 373.42a1.404 1.404 0 1 0-.001-2.807 1.404 1.404 0 0 0 .001 2.807ZM201.594 339.742a1.403 1.403 0 1 0 0-2.806 1.403 1.403 0 0 0 0 2.806ZM167.924 339.742a1.403 1.403 0 1 0 0-2.806 1.403 1.403 0 0 0 0 2.806ZM134.254 339.742a1.403 1.403 0 1 0-.001-2.805 1.403 1.403 0 0 0 .001 2.805ZM117.418 339.742a1.403 1.403 0 1 0 0-2.806 1.403 1.403 0 0 0 0 2.806ZM201.594 373.42a1.404 1.404 0 1 0-.001-2.807 1.404 1.404 0 0 0 .001 2.807ZM167.924 373.42a1.404 1.404 0 1 0-.001-2.807 1.404 1.404 0 0 0 .001 2.807ZM134.254 373.42a1.403 1.403 0 1 0-.003-2.807 1.403 1.403 0 0 0 .003 2.807ZM117.418 373.42a1.404 1.404 0 1 0-.001-2.807 1.404 1.404 0 0 0 .001 2.807ZM235.264 322.904a1.403 1.403 0 1 0 0-2.806 1.403 1.403 0 0 0 0 2.806ZM235.264 356.582a1.403 1.403 0 1 0 0-2.806 1.403 1.403 0 0 0 0 2.806ZM235.264 339.742a1.403 1.403 0 1 0 0-2.806 1.403 1.403 0 0 0 0 2.806ZM235.264 373.42a1.404 1.404 0 1 0-.001-2.807 1.404 1.404 0 0 0 .001 2.807ZM100.583 322.904a1.403 1.403 0 1 0 0-2.806 1.403 1.403 0 0 0 0 2.806ZM66.913 322.904a1.403 1.403 0 1 0 0-2.806 1.403 1.403 0 0 0 0 2.806ZM33.242 322.904a1.403 1.403 0 1 0 0-2.806 1.403 1.403 0 0 0 0 2.806ZM100.583 356.582a1.403 1.403 0 1 0 0-2.806 1.403 1.403 0 0 0 0 2.806ZM66.913 356.582a1.403 1.403 0 1 0 0-2.806 1.403 1.403 0 0 0 0 2.806ZM33.242 356.582a1.403 1.403 0 1 0 0-2.806 1.403 1.403 0 0 0 0 2.806ZM83.748 322.904a1.403 1.403 0 1 0 0-2.806 1.403 1.403 0 0 0 0 2.806ZM50.078 322.904a1.403 1.403 0 1 0 0-2.806 1.403 1.403 0 0 0 0 2.806ZM16.407 322.904a1.403 1.403 0 1 0 0-2.806 1.403 1.403 0 0 0 0 2.806ZM83.748 356.582a1.403 1.403 0 1 0 0-2.806 1.403 1.403 0 0 0 0 2.806ZM50.078 356.582a1.403 1.403 0 1 0 0-2.806 1.403 1.403 0 0 0 0 2.806ZM16.407 356.582a1.403 1.403 0 1 0 0-2.806 1.403 1.403 0 0 0 0 2.806ZM100.583 339.742a1.403 1.403 0 1 0 0-2.806 1.403 1.403 0 0 0 0 2.806ZM66.913 339.742a1.403 1.403 0 1 0 0-2.806 1.403 1.403 0 0 0 0 2.806ZM33.242 339.742a1.403 1.403 0 1 0 0-2.806 1.403 1.403 0 0 0 0 2.806ZM100.583 373.42a1.404 1.404 0 1 0-.001-2.807 1.404 1.404 0 0 0 .001 2.807ZM66.913 373.42a1.404 1.404 0 1 0-.002-2.807 1.404 1.404 0 0 0 .002 2.807ZM33.242 373.42a1.404 1.404 0 1 0-.001-2.808 1.404 1.404 0 0 0 .002 2.808ZM83.748 339.742a1.403 1.403 0 1 0 0-2.806 1.403 1.403 0 0 0 0 2.806ZM50.078 339.742a1.403 1.403 0 1 0 0-2.806 1.403 1.403 0 0 0 0 2.806ZM16.407 339.742a1.403 1.403 0 1 0 0-2.806 1.403 1.403 0 0 0 0 2.806ZM83.748 373.42a1.404 1.404 0 1 0-.002-2.807 1.404 1.404 0 0 0 .002 2.807ZM50.078 373.42a1.404 1.404 0 1 0-.002-2.807 1.404 1.404 0 0 0 .002 2.807ZM16.407 373.42a1.404 1.404 0 1 0-.001-2.808 1.404 1.404 0 0 0 .001 2.808ZM285.847 87.168a1.403 1.403 0 1 0 0-2.806 1.403 1.403 0 0 0 0 2.806ZM252.177 87.168a1.404 1.404 0 1 0-.001-2.808 1.404 1.404 0 0 0 .001 2.808ZM285.847 120.844a1.404 1.404 0 1 0-.001-2.807 1.404 1.404 0 0 0 .001 2.807ZM252.177 120.844a1.404 1.404 0 0 0 0-2.807 1.403 1.403 0 1 0 0 2.807ZM285.847 171.359a1.403 1.403 0 1 0 0-2.806 1.403 1.403 0 0 0 0 2.806ZM252.177 171.359a1.403 1.403 0 1 0 0-2.807 1.403 1.403 0 0 0 0 2.807ZM302.682 87.168a1.403 1.403 0 1 0 0-2.806 1.403 1.403 0 0 0 0 2.806ZM269.012 87.168a1.403 1.403 0 1 0 0-2.806 1.403 1.403 0 0 0 0 2.806ZM302.682 120.844a1.404 1.404 0 1 0-.001-2.807 1.404 1.404 0 0 0 .001 2.807ZM302.682 171.359a1.403 1.403 0 1 0 0-2.806 1.403 1.403 0 0 0 0 2.806ZM269.012 120.844a1.404 1.404 0 1 0-.001-2.807 1.404 1.404 0 0 0 .001 2.807ZM269.012 171.359a1.403 1.403 0 1 0 0-2.806 1.403 1.403 0 0 0 0 2.806ZM285.847 104.006a1.404 1.404 0 1 0-.001-2.807 1.404 1.404 0 0 0 .001 2.807ZM252.177 104.006a1.404 1.404 0 0 0 0-2.807 1.403 1.403 0 1 0 0 2.807ZM285.847 154.521a1.403 1.403 0 1 0 0-2.806 1.403 1.403 0 0 0 0 2.806ZM252.177 154.521a1.403 1.403 0 1 0 0-2.807 1.403 1.403 0 0 0 0 2.807ZM285.847 137.681a1.403 1.403 0 1 0 0-2.806 1.403 1.403 0 0 0 0 2.806ZM252.177 137.681a1.403 1.403 0 1 0 0-2.807 1.403 1.403 0 0 0 0 2.807ZM285.847 188.197a1.403 1.403 0 1 0 0-2.806 1.403 1.403 0 0 0 0 2.806ZM252.177 188.197a1.403 1.403 0 1 0 0-2.807 1.403 1.403 0 0 0 0 2.807ZM302.682 104.006a1.404 1.404 0 1 0-.001-2.807 1.404 1.404 0 0 0 .001 2.807ZM302.682 154.521a1.403 1.403 0 1 0 0-2.806 1.403 1.403 0 0 0 0 2.806ZM269.012 104.006a1.404 1.404 0 1 0-.001-2.807 1.404 1.404 0 0 0 .001 2.807ZM269.012 154.521a1.403 1.403 0 1 0 0-2.806 1.403 1.403 0 0 0 0 2.806ZM302.682 137.681a1.403 1.403 0 1 0 0-2.806 1.403 1.403 0 0 0 0 2.806ZM302.682 188.197a1.403 1.403 0 1 0 0-2.806 1.403 1.403 0 0 0 0 2.806ZM269.012 137.681a1.403 1.403 0 1 0 0-2.806 1.403 1.403 0 0 0 0 2.806ZM269.012 188.197a1.403 1.403 0 1 0 0-2.806 1.403 1.403 0 0 0 0 2.806ZM285.847 205.035a1.403 1.403 0 1 0 0-2.806 1.403 1.403 0 0 0 0 2.806ZM252.177 205.035a1.403 1.403 0 1 0 0-2.807 1.403 1.403 0 0 0 0 2.807ZM285.847 238.713a1.404 1.404 0 1 0-.001-2.807 1.404 1.404 0 0 0 .001 2.807ZM252.177 238.713a1.404 1.404 0 0 0 0-2.807 1.403 1.403 0 1 0 0 2.807ZM285.847 289.228a1.403 1.403 0 1 0 0-2.806 1.403 1.403 0 0 0 0 2.806ZM252.177 289.228a1.403 1.403 0 1 0 0-2.807 1.403 1.403 0 0 0 0 2.807ZM302.682 205.035a1.403 1.403 0 1 0 0-2.806 1.403 1.403 0 0 0 0 2.806ZM269.012 205.035a1.403 1.403 0 1 0 0-2.806 1.403 1.403 0 0 0 0 2.806ZM302.682 238.713a1.404 1.404 0 1 0-.001-2.807 1.404 1.404 0 0 0 .001 2.807ZM302.682 289.228a1.403 1.403 0 1 0 0-2.806 1.403 1.403 0 0 0 0 2.806ZM269.012 238.713a1.404 1.404 0 1 0-.001-2.807 1.404 1.404 0 0 0 .001 2.807ZM269.012 289.228a1.403 1.403 0 1 0 0-2.806 1.403 1.403 0 0 0 0 2.806ZM285.847 221.875a1.403 1.403 0 1 0 0-2.806 1.403 1.403 0 0 0 0 2.806ZM252.177 221.875a1.403 1.403 0 1 0 0-2.807 1.403 1.403 0 0 0 0 2.807ZM285.847 272.388a1.403 1.403 0 1 0 0-2.806 1.403 1.403 0 0 0 0 2.806ZM252.177 272.388a1.403 1.403 0 1 0 0-2.807 1.403 1.403 0 0 0 0 2.807ZM285.847 255.551a1.404 1.404 0 1 0-.001-2.807 1.404 1.404 0 0 0 .001 2.807ZM252.177 255.551a1.404 1.404 0 0 0 0-2.807 1.403 1.403 0 1 0 0 2.807ZM285.847 306.066a1.403 1.403 0 1 0 0-2.806 1.403 1.403 0 0 0 0 2.806ZM252.177 306.066a1.403 1.403 0 1 0 0-2.807 1.403 1.403 0 0 0 0 2.807ZM302.682 221.875a1.403 1.403 0 1 0 0-2.806 1.403 1.403 0 0 0 0 2.806ZM302.682 272.388a1.403 1.403 0 1 0 0-2.806 1.403 1.403 0 0 0 0 2.806ZM269.012 221.875a1.403 1.403 0 1 0 0-2.806 1.403 1.403 0 0 0 0 2.806ZM269.012 272.388a1.403 1.403 0 1 0 0-2.806 1.403 1.403 0 0 0 0 2.806ZM302.682 255.551a1.404 1.404 0 1 0-.001-2.807 1.404 1.404 0 0 0 .001 2.807ZM302.682 306.066a1.403 1.403 0 1 0 0-2.806 1.403 1.403 0 0 0 0 2.806ZM269.012 255.551a1.404 1.404 0 1 0-.001-2.807 1.404 1.404 0 0 0 .001 2.807ZM269.012 306.066a1.403 1.403 0 1 0 0-2.806 1.403 1.403 0 0 0 0 2.806ZM285.847 53.49a1.403 1.403 0 1 0 0-2.806 1.403 1.403 0 0 0 0 2.806ZM252.177 53.49a1.404 1.404 0 1 0-.001-2.807 1.404 1.404 0 0 0 .001 2.807ZM302.682 53.49a1.403 1.403 0 1 0 0-2.806 1.403 1.403 0 0 0 0 2.806ZM269.012 53.49a1.403 1.403 0 1 0 0-2.806 1.403 1.403 0 0 0 0 2.806ZM285.847 36.652a1.403 1.403 0 1 0 0-2.806 1.403 1.403 0 0 0 0 2.806ZM252.177 36.652a1.404 1.404 0 1 0-.001-2.807 1.404 1.404 0 0 0 .001 2.807ZM285.847 70.328a1.403 1.403 0 1 0 0-2.806 1.403 1.403 0 0 0 0 2.806ZM252.177 70.328a1.404 1.404 0 1 0-.001-2.807 1.404 1.404 0 0 0 .001 2.807ZM302.682 36.652a1.403 1.403 0 1 0 0-2.806 1.403 1.403 0 0 0 0 2.806ZM269.012 36.652a1.403 1.403 0 1 0 0-2.806 1.403 1.403 0 0 0 0 2.806ZM302.682 70.328a1.403 1.403 0 1 0 0-2.806 1.403 1.403 0 0 0 0 2.806ZM269.012 70.328a1.403 1.403 0 1 0 0-2.806 1.403 1.403 0 0 0 0 2.806ZM285.847 322.904a1.403 1.403 0 1 0 0-2.806 1.403 1.403 0 0 0 0 2.806ZM252.177 322.904a1.403 1.403 0 1 0 0-2.807 1.403 1.403 0 0 0 0 2.807ZM285.847 356.582a1.403 1.403 0 1 0 0-2.806 1.403 1.403 0 0 0 0 2.806ZM252.177 356.582a1.403 1.403 0 1 0 0-2.807 1.403 1.403 0 0 0 0 2.807ZM302.682 322.904a1.403 1.403 0 1 0 0-2.806 1.403 1.403 0 0 0 0 2.806ZM269.012 322.904a1.403 1.403 0 1 0 0-2.806 1.403 1.403 0 0 0 0 2.806ZM302.682 356.582a1.403 1.403 0 1 0 0-2.806 1.403 1.403 0 0 0 0 2.806ZM269.012 356.582a1.403 1.403 0 1 0 0-2.806 1.403 1.403 0 0 0 0 2.806ZM285.847 339.742a1.403 1.403 0 1 0 0-2.806 1.403 1.403 0 0 0 0 2.806ZM252.177 339.742a1.403 1.403 0 1 0 0-2.807 1.403 1.403 0 0 0 0 2.807ZM285.847 373.42a1.404 1.404 0 1 0-.001-2.807 1.404 1.404 0 0 0 .001 2.807ZM252.177 373.42a1.404 1.404 0 0 0 0-2.807 1.403 1.403 0 0 0 0 2.807ZM302.682 339.742a1.403 1.403 0 1 0 0-2.806 1.403 1.403 0 0 0 0 2.806ZM269.012 339.742a1.403 1.403 0 1 0 0-2.806 1.403 1.403 0 0 0 0 2.806ZM302.682 373.42a1.404 1.404 0 1 0-.001-2.807 1.404 1.404 0 0 0 .001 2.807ZM269.012 373.42a1.404 1.404 0 1 0-.001-2.807 1.404 1.404 0 0 0 .001 2.807Z" fill="#CCDFFF"/><path d="M243.998 253.488a13.787 13.787 0 0 1-11.42 13.569c-1.719-9.317-2.105-21.932-2.161-27.362a13.769 13.769 0 0 1 13.581 13.793Zm57.962-4.911a13.597 13.597 0 0 0-5.466 9.636 13.6 13.6 0 0 0 3.513 10.507 13.607 13.607 0 0 0 10.162 4.41 13.608 13.608 0 0 0 10.071-4.613c-2.371-4.554-17.747-18.824-18.28-19.968v.028Zm-139.143-46.818-10.725 33.277a7.814 7.814 0 0 1 2.845 8.747 7.815 7.815 0 0 1-7.447 5.397h-.182l-15.257 45.331 11.455 5.262 36.308-81.189-16.997-16.825Zm73.717 86.136-4.349-23.209-24.474-30.085-4.735-38.328s7.478-13.064-1.143-27.005h-28.536l-1.15 3.579-5.787 17.932 27.651 27.664-6.895 7.297-3.767-3.718 1.775 11.499h.189a7.822 7.822 0 0 1 7.813 8.246 7.836 7.836 0 0 1-1.331 3.969l44.739 42.159ZM163.441 74.139c.414 3.416 3.438 6.51 6.019 7.016 2.581.505 3.206 2.336 3.69 3.929.484 1.592 5.029 2.708 6.138 0 1.108-2.709 3.437.126 4.91.126 1.473 0 5.654.294 3.318 5.304a11.124 11.124 0 0 0 .154 9.5l9.568-9.507a8.58 8.58 0 0 0 0-7.514c-1.978-3.936-1.361-5.41-1.361-7.374 0-1.965-1.108-4.21-3.444-4.546-2.336-.337-4.91-2.87-6.019-4.21-1.108-1.34-3.409-1.123-5.611 0-2.203 1.123-4.441.105-6.405 0-1.964-.105-3.682 2.105-4.208 3.094-.527.99-3.192 1.354-4.3 1.354a2.707 2.707 0 0 0-2.449 2.828Zm87.403 18.536c-4.104-4.61-.456-22.606-.456-22.606s.961-2.897 3.823-2.673c3.374.309 7.99 5.494 9.231 11.71 1.572 7.844 6.594 24.556 19.536 24.556s25.562-6.35 25.562-6.35-16.52-18.34-26.937-31.284a15.515 15.515 0 0 0-.996-1.115 16.973 16.973 0 0 0-.61-.569c-12.444-11.597-31.363-10.173-35.515 4.63-4.293 15.296-10.431 21.547-15.475 28.338a38.403 38.403 0 0 0 30.234 7.76l.28-12.215s-6.993 1.537-8.677-.182Zm23.527 108.341a13.59 13.59 0 0 0-11.533-3.181 13.606 13.606 0 0 0-9.584 7.162 13.6 13.6 0 0 0-.22 11.963 13.6 13.6 0 0 0 9.314 7.51 88.946 88.946 0 0 0 12.023-23.454Zm-209.78-71.465v-25.447a3.137 3.137 0 0 0-3.136-3.136h-.701a3.135 3.135 0 0 0-3.136 3.136v25.447a3.138 3.138 0 0 0 3.136 3.129h.701a3.134 3.134 0 0 0 3.136-3.129Z" fill="url(#a)"/><path d="m270.345 87.447 1.683 15.716M268.907 104.875c-17.677 9.444-12.381 28.387-12.381 28.387M250.998 66.863c-1.368 6.736-3.058 16.958-2.062 22.451 1.564 8.63 14.506 1.965 14.506 1.965M259.241 106.622V93.25" stroke="#6A2EA0" stroke-width="3" stroke-linecap="round" stroke-linejoin="round"/><path d="M253.516 132.042v14.692s27.61 20.781 34.056 14.733c14.773-12.229-4.517-52.816-4.517-52.816-5.338-11.373-22.391-5.557-16.548 11.464" stroke="#6A2EA0" stroke-width="3" stroke-linecap="round" stroke-linejoin="round"/><path d="m276.56 143.611-32.78-16.929h-20.889" stroke="#6A2EA0" stroke-width="3" stroke-linecap="round" stroke-linejoin="round"/><path d="M242.167 126.682v-7.928h-10.206v7.928M231.961 136.953v3.368a1.676 1.676 0 0 0 1.676 1.677h6.853a1.678 1.678 0 0 0 1.677-1.677v-3.368M242.167 121.404h-6.355M236.527 107.611l1.396 11.142M278.32 176.804c1.586 15.884-7.975 38.988-24.803 59.222l42.922 69.788h-55.212s-16.674-53.644-8.74-85.511c7.933-31.866 15.663-48.803 15.663-48.803" stroke="#6A2EA0" stroke-width="3" stroke-linecap="round" stroke-linejoin="round"/><path d="M283.055 169.268s13.384 43.071 19.024 79.666c9.266 7.858 28.816 31.783 39.808 45.555h-52.392M273.144 305.834s3.949 10.244 4.208 15.372h-38.678s0-6.517 15.853-6.966c9.413-.267 6.271-8.42 6.271-8.42M332.712 294.49c2.224 3.347 5.226 8.16 6.194 11.107l-37.325 10.166s-1.403-6.96 13.468-10.882c7.499-1.986 4.819-8.104 3.592-10.208M276.251 192.055s-9.884-1.48-10.129-13.035" stroke="#6A2EA0" stroke-width="3" stroke-linecap="round" stroke-linejoin="round"/><path d="m290.372 168.799-42.222 2.722 4.602-15.505M290.372 168.797l-2.028-8.012M263.393 136.624s-4.728-16.06 1.964-24.317M236.099 206.896a11.714 11.714 0 0 1-2.806-12.124 39.887 39.887 0 0 1 6.096-11.225M247.477 139.275l-.912 13.731-10.753 28.597 6.446 3.459M259.24 106.602s-11.483 2.02-11.623 22.065M303.875 135.156a8.6 8.6 0 0 0 8.6-8.601 8.6 8.6 0 1 0-17.2 0 8.6 8.6 0 0 0 8.6 8.601Z" stroke="#6A2EA0" stroke-width="3" stroke-linecap="round" stroke-linejoin="round"/><path d="m286.801 181.448 6.229-2.21a29.46 29.46 0 0 0 16.816-15.203 29.47 29.47 0 0 0 1.043-22.648c-4.258-11.513-14.457-26.745-29.061-34.785M281.828 294.49h-43.154M197.238 115.26a18.232 18.232 0 0 0 7.343-12.629 18.245 18.245 0 0 0-4.278-13.969M165.286 76.951s-5.036 25.854 6.517 26.97c6.138 1.08 10.311-4.722 10.311-4.722M185.068 91.826s3.03-1.515 3.107-4.378c.077-2.863-3.107-3.606-3.97-2.252" stroke="#6A2EA0" stroke-width="3" stroke-linecap="round" stroke-linejoin="round"/><path d="M163.911 86.67s-4.615 6.98.288 7.051M208.209 148.838h-.961a4.25 4.25 0 0 1-4.251-4.252v-7.963h9.463v7.963a4.255 4.255 0 0 1-4.251 4.252v0Z" stroke="#6A2EA0" stroke-width="3" stroke-linecap="round" stroke-linejoin="round"/><path d="M202.997 160.786c18.848 0 22.11-18.36 9.463-31.017-4.749-4.75-22.784-21.371-22.784-21.371s-18.659-1.67-12.767 23.398" stroke="#6A2EA0" stroke-width="3" stroke-linecap="round" stroke-linejoin="round"/><path d="m194.699 118.754 10.017 50.515h-30.837M178.523 146.965c-7.12 6.854-14.822 23.426-19.255 30.625-4.434 7.198-8.362 14.074-8.362 14.074M176.91 131.797l-1.235 18.333M180.747 205.176l-4.378-28.352M232.634 284.289l-46.444-43.843-2.841-17.764" stroke="#6A2EA0" stroke-width="3" stroke-linecap="round" stroke-linejoin="round"/><path d="M230.347 263.205 207.732 234.6l-4.735-38.328s8.004-12.173-1.143-27.004M179.575 219.193 133.72 321.388s-10.704-5.311-17.859-7.837c-11.862-4.209-10.746-13.162-10.746-13.162M166.261 190.744l7.036-21.398M129.701 301.955l32.955-100.244" stroke="#6A2EA0" stroke-width="3" stroke-linecap="round" stroke-linejoin="round"/><path d="m134.134 301.478-12.633 3.206-16.386-4.293M200.149 88.787l-14.261 12.839a24.007 24.007 0 0 1-8.803 5.073 46.271 46.271 0 0 1-12.865 1.964s6.699 18.944 8.039 46.166M171.838 112.307l-6.096 1.403M32.253 137.072h92.194M114.893 93.72H99.629v42.903h15.264V93.721ZM99.475 86.67H84.21v49.954h15.264V86.67ZM84.05 75.557H68.785v61.067h15.263V75.557ZM68.631 97.291H53.367v39.332h15.264V97.291ZM72.09 82.973h8.347M72.09 130.127h8.347M94.522 93.488v23.335M88.806 93.488v30.976M114.886 101.957h-7.632M114.886 128.666h-7.632M37.297 136.622l16.07-17.554M201.201 321.502h122.497M93.569 321.502h62.051M298.495 229.291h54.658M207.073 229.291h23.857M175.198 229.291h8.965M18.014 167.809h48.773a26.783 26.783 0 0 1 18.935 7.847 26.8 26.8 0 0 1 7.847 18.94v0c0 9.2 3.653 18.023 10.157 24.53a34.683 34.683 0 0 0 24.523 10.164h24.937M149.833 195.838s8.312.541 11.743-4.174c2.42-3.319 1.697-9.766 1.697-9.766l26.396-33.06 1.073-24.373M151.559 190.52 124.3 163.256l7.239-7.24 25.393 25.397" stroke="#6A2EA0" stroke-width="3" stroke-linecap="round" stroke-linejoin="round"/><path d="m163.098 187.58 30.913 30.92-7.239 7.24-30.387-30.393M224.062 129.754s1.887 6.37 6.945 6.37h12.507l10.003 7.487" stroke="#6A2EA0" stroke-width="3" stroke-linecap="round" stroke-linejoin="round"/><defs><linearGradient id="a" x1="106.104" y1="268.51" x2="295.177" y2="79.472" gradientUnits="userSpaceOnUse"><stop stop-color="#FF4C84"/><stop offset=".3" stop-color="#C064AF"/><stop offset=".63" stop-color="#827CDA"/><stop offset=".87" stop-color="#5B8AF5"/><stop offset="1" stop-color="#4C90FF"/></linearGradient></defs></svg>