<svg width="432" height="445" fill="none" xmlns="http://www.w3.org/2000/svg"><path d="M247.274 98.263a1.579 1.579 0 1 0 0-3.157 1.579 1.579 0 0 0 0 3.157ZM209.366 98.263a1.579 1.579 0 1 0 0-3.157 1.579 1.579 0 0 0 0 3.157ZM171.457 98.263a1.579 1.579 0 1 0 .002-3.158 1.579 1.579 0 0 0-.002 3.158ZM247.274 136.135a1.578 1.578 0 1 0 0-3.156 1.58 1.58 0 1 0 0 3.156ZM247.274 192.944a1.579 1.579 0 1 0 0-3.158 1.579 1.579 0 0 0 0 3.158ZM209.366 136.135a1.578 1.578 0 1 0 0-3.156 1.58 1.58 0 1 0 0 3.156ZM171.457 136.135a1.578 1.578 0 1 0-1.579-1.578c0 .872.707 1.578 1.579 1.578ZM209.366 192.944a1.579 1.579 0 1 0 0-3.158 1.579 1.579 0 0 0 0 3.158ZM171.457 192.944a1.58 1.58 0 1 0 .002-3.158 1.58 1.58 0 0 0-.002 3.158ZM228.32 98.263a1.579 1.579 0 1 0 0-3.157 1.579 1.579 0 0 0 0 3.157ZM190.412 98.263a1.579 1.579 0 1 0 0-3.157 1.579 1.579 0 0 0 0 3.157ZM152.502 98.263a1.579 1.579 0 1 0 .002-3.158 1.579 1.579 0 0 0-.002 3.158ZM133.548 98.263a1.579 1.579 0 1 0 .002-3.158 1.579 1.579 0 0 0-.002 3.158ZM228.32 136.135a1.578 1.578 0 1 0 0-3.156 1.58 1.58 0 1 0 0 3.156ZM228.32 192.944a1.579 1.579 0 1 0 0-3.158 1.579 1.579 0 0 0 0 3.158ZM190.412 136.135a1.578 1.578 0 1 0 0-3.156 1.58 1.58 0 1 0 0 3.156ZM152.502 136.135a1.578 1.578 0 1 0-1.579-1.578c0 .872.707 1.578 1.579 1.578ZM133.548 136.135a1.578 1.578 0 1 0-1.579-1.578c0 .872.707 1.578 1.579 1.578ZM190.412 192.944a1.579 1.579 0 1 0 0-3.158 1.579 1.579 0 0 0 0 3.158ZM152.502 192.944a1.58 1.58 0 1 0 .002-3.158 1.58 1.58 0 0 0-.002 3.158ZM133.548 192.944a1.58 1.58 0 1 0 .002-3.158 1.58 1.58 0 0 0-.002 3.158ZM247.274 117.199a1.578 1.578 0 1 0 0-3.156 1.58 1.58 0 1 0 0 3.156ZM247.274 174.008a1.579 1.579 0 1 0 0-3.158 1.579 1.579 0 0 0 0 3.158ZM209.366 117.199a1.578 1.578 0 1 0 0-3.156 1.578 1.578 0 1 0 0 3.156ZM171.457 117.199a1.578 1.578 0 1 0-1.579-1.578c0 .872.707 1.578 1.579 1.578ZM209.366 174.008a1.579 1.579 0 1 0 0-3.158 1.579 1.579 0 0 0 0 3.158ZM171.457 174.008a1.58 1.58 0 1 0 .002-3.158 1.58 1.58 0 0 0-.002 3.158ZM247.274 155.071a1.578 1.578 0 1 0 0-3.156 1.58 1.58 0 1 0 0 3.156ZM247.274 211.88a1.579 1.579 0 1 0 0-3.158 1.579 1.579 0 0 0 0 3.158ZM209.366 155.071a1.578 1.578 0 1 0 0-3.156 1.58 1.58 0 1 0 0 3.156ZM171.457 155.071a1.578 1.578 0 1 0-1.579-1.578c0 .872.707 1.578 1.579 1.578ZM209.366 211.88a1.579 1.579 0 1 0 0-3.158 1.579 1.579 0 0 0 0 3.158ZM171.457 211.88a1.58 1.58 0 1 0 .002-3.158 1.58 1.58 0 0 0-.002 3.158ZM228.32 117.199a1.578 1.578 0 1 0 0-3.156 1.578 1.578 0 1 0 0 3.156ZM228.32 174.008a1.579 1.579 0 1 0 0-3.158 1.579 1.579 0 0 0 0 3.158ZM190.412 117.199a1.578 1.578 0 1 0 0-3.156 1.578 1.578 0 1 0 0 3.156ZM152.502 117.199a1.578 1.578 0 1 0-1.579-1.578c0 .872.707 1.578 1.579 1.578ZM133.548 117.199a1.578 1.578 0 1 0-1.579-1.578c0 .872.707 1.578 1.579 1.578ZM190.412 174.008a1.579 1.579 0 1 0 0-3.158 1.579 1.579 0 0 0 0 3.158ZM152.502 174.008a1.58 1.58 0 1 0 .002-3.158 1.58 1.58 0 0 0-.002 3.158ZM133.548 174.008a1.58 1.58 0 1 0 .002-3.158 1.58 1.58 0 0 0-.002 3.158ZM228.32 155.071a1.578 1.578 0 1 0 0-3.156 1.58 1.58 0 1 0 0 3.156ZM228.32 211.88a1.579 1.579 0 1 0 0-3.158 1.579 1.579 0 0 0 0 3.158ZM190.412 155.071a1.578 1.578 0 1 0 0-3.156 1.58 1.58 0 1 0 0 3.156ZM152.502 155.071a1.578 1.578 0 1 0-1.579-1.578c0 .872.707 1.578 1.579 1.578ZM133.548 155.071a1.578 1.578 0 1 0-1.579-1.578c0 .872.707 1.578 1.579 1.578ZM190.412 211.88a1.579 1.579 0 1 0 0-3.158 1.579 1.579 0 0 0 0 3.158ZM152.502 211.88a1.58 1.58 0 1 0 .002-3.158 1.58 1.58 0 0 0-.002 3.158ZM133.548 211.88a1.58 1.58 0 1 0 .002-3.158 1.58 1.58 0 0 0-.002 3.158ZM266.229 98.263a1.579 1.579 0 1 0 0-3.157 1.579 1.579 0 0 0 0 3.157ZM266.229 136.135a1.578 1.578 0 1 0 0-3.156 1.58 1.58 0 1 0 0 3.156ZM266.229 192.944a1.579 1.579 0 1 0 0-3.158 1.579 1.579 0 0 0 0 3.158ZM266.229 117.199a1.578 1.578 0 1 0 0-3.156 1.58 1.58 0 1 0 0 3.156ZM266.229 174.008a1.579 1.579 0 1 0 0-3.158 1.579 1.579 0 0 0 0 3.158ZM266.229 155.071a1.578 1.578 0 1 0 0-3.156 1.58 1.58 0 1 0 0 3.156ZM266.229 211.88a1.579 1.579 0 1 0 0-3.158 1.579 1.579 0 0 0 0 3.158ZM114.594 98.263a1.579 1.579 0 1 0 .002-3.158 1.579 1.579 0 0 0-.002 3.158ZM76.686 98.263a1.579 1.579 0 1 0 .001-3.158 1.579 1.579 0 0 0-.001 3.158ZM38.777 98.263a1.579 1.579 0 1 0 .001-3.158 1.579 1.579 0 0 0-.001 3.158ZM114.594 136.135a1.578 1.578 0 1 0-1.579-1.578c0 .872.707 1.578 1.579 1.578ZM114.594 192.944a1.58 1.58 0 1 0 .002-3.158 1.58 1.58 0 0 0-.002 3.158ZM76.686 136.135a1.578 1.578 0 1 0-1.58-1.578c0 .872.708 1.578 1.58 1.578ZM38.777 136.135a1.578 1.578 0 1 0 .002-3.157 1.578 1.578 0 0 0-.002 3.157ZM76.686 192.944a1.58 1.58 0 1 0 0-3.158 1.58 1.58 0 0 0 0 3.158ZM38.777 192.944a1.58 1.58 0 1 0 0-3.158 1.58 1.58 0 0 0 0 3.158ZM95.64 98.263a1.579 1.579 0 1 0 .002-3.158 1.579 1.579 0 0 0-.002 3.158ZM57.73 98.263a1.579 1.579 0 1 0 .002-3.158 1.579 1.579 0 0 0-.001 3.158ZM19.823 98.263a1.579 1.579 0 1 0 .001-3.158 1.579 1.579 0 0 0-.001 3.158ZM95.64 136.135a1.578 1.578 0 1 0-1.58-1.578c0 .872.708 1.578 1.58 1.578ZM95.64 192.944a1.58 1.58 0 1 0 0-3.158 1.58 1.58 0 0 0 0 3.158ZM57.73 136.135a1.578 1.578 0 1 0 .003-3.157 1.578 1.578 0 0 0-.002 3.157ZM19.823 136.135a1.578 1.578 0 1 0 .002-3.157 1.578 1.578 0 0 0-.002 3.157ZM57.73 192.944a1.58 1.58 0 1 0 .002-3.158 1.58 1.58 0 0 0-.001 3.158ZM19.823 192.944a1.58 1.58 0 1 0 0-3.158 1.58 1.58 0 0 0 0 3.158ZM114.594 117.199a1.578 1.578 0 1 0-1.579-1.578c0 .872.707 1.578 1.579 1.578ZM114.594 174.008a1.58 1.58 0 1 0 .002-3.158 1.58 1.58 0 0 0-.002 3.158ZM76.686 117.199a1.578 1.578 0 1 0-1.58-1.578c0 .872.708 1.578 1.58 1.578ZM38.777 117.199a1.578 1.578 0 1 0 .002-3.157 1.578 1.578 0 0 0-.002 3.157ZM76.686 174.008a1.58 1.58 0 1 0 0-3.158 1.58 1.58 0 0 0 0 3.158ZM38.777 174.008a1.58 1.58 0 1 0 0-3.158 1.58 1.58 0 0 0 0 3.158ZM114.594 155.071a1.578 1.578 0 1 0-1.579-1.578c0 .872.707 1.578 1.579 1.578ZM114.594 211.88a1.58 1.58 0 1 0 .002-3.158 1.58 1.58 0 0 0-.002 3.158ZM76.686 155.071a1.578 1.578 0 1 0-1.58-1.578c0 .872.708 1.578 1.58 1.578ZM38.777 155.071a1.578 1.578 0 1 0 .002-3.157 1.578 1.578 0 0 0-.002 3.157ZM76.686 211.88a1.58 1.58 0 1 0 0-3.158 1.58 1.58 0 0 0 0 3.158ZM38.777 211.88a1.58 1.58 0 1 0 0-3.158 1.58 1.58 0 0 0 0 3.158ZM95.64 117.199a1.578 1.578 0 1 0-1.58-1.578c0 .872.708 1.578 1.58 1.578ZM95.64 174.008a1.58 1.58 0 1 0 0-3.158 1.58 1.58 0 0 0 0 3.158ZM57.73 117.199a1.578 1.578 0 1 0 .003-3.157 1.578 1.578 0 0 0-.002 3.157ZM19.823 117.199a1.578 1.578 0 1 0 .002-3.157 1.578 1.578 0 0 0-.002 3.157ZM57.73 174.008a1.58 1.58 0 1 0 .002-3.158 1.58 1.58 0 0 0-.001 3.158ZM19.823 174.008a1.58 1.58 0 1 0 0-3.158 1.58 1.58 0 0 0 0 3.158ZM95.64 155.071a1.578 1.578 0 1 0-1.58-1.578c0 .872.708 1.578 1.58 1.578ZM95.64 211.88a1.58 1.58 0 1 0 0-3.158 1.58 1.58 0 0 0 0 3.158ZM57.73 155.071a1.578 1.578 0 1 0 .003-3.157 1.578 1.578 0 0 0-.002 3.157ZM19.823 155.071a1.578 1.578 0 1 0 .002-3.157 1.578 1.578 0 0 0-.002 3.157ZM57.73 211.88a1.58 1.58 0 1 0 .002-3.158 1.58 1.58 0 0 0-.001 3.158ZM19.823 211.88a1.58 1.58 0 1 0 0-3.158 1.58 1.58 0 0 0 0 3.158ZM247.274 230.816a1.578 1.578 0 1 0 0-3.156 1.58 1.58 0 1 0 0 3.156ZM209.366 230.816a1.578 1.578 0 1 0 0-3.156 1.58 1.58 0 1 0 0 3.156ZM171.457 230.816a1.578 1.578 0 1 0-1.579-1.578c0 .872.707 1.578 1.579 1.578ZM247.274 268.688a1.578 1.578 0 1 0 0-3.156 1.58 1.58 0 1 0 0 3.156ZM247.274 325.497a1.579 1.579 0 1 0 0-3.158 1.579 1.579 0 0 0 0 3.158ZM209.366 268.688a1.578 1.578 0 1 0 0-3.156 1.58 1.58 0 1 0 0 3.156ZM171.457 268.688a1.578 1.578 0 1 0-1.579-1.578c0 .872.707 1.578 1.579 1.578ZM209.366 325.497a1.579 1.579 0 1 0 0-3.158 1.579 1.579 0 0 0 0 3.158ZM171.457 325.497a1.58 1.58 0 1 0 .002-3.158 1.58 1.58 0 0 0-.002 3.158ZM228.32 230.816a1.578 1.578 0 1 0 0-3.156 1.58 1.58 0 1 0 0 3.156ZM190.412 230.816a1.578 1.578 0 1 0 0-3.156 1.58 1.58 0 1 0 0 3.156ZM152.502 230.816a1.578 1.578 0 1 0-1.579-1.578c0 .872.707 1.578 1.579 1.578ZM133.548 230.816a1.578 1.578 0 1 0-1.579-1.578c0 .872.707 1.578 1.579 1.578ZM228.32 268.688a1.578 1.578 0 1 0 0-3.156 1.58 1.58 0 1 0 0 3.156ZM228.32 325.497a1.579 1.579 0 1 0 0-3.158 1.579 1.579 0 0 0 0 3.158ZM190.412 268.688a1.578 1.578 0 1 0 0-3.156 1.58 1.58 0 1 0 0 3.156ZM152.502 268.688a1.578 1.578 0 1 0-1.579-1.578c0 .872.707 1.578 1.579 1.578ZM133.548 268.688a1.578 1.578 0 1 0-1.579-1.578c0 .872.707 1.578 1.579 1.578ZM190.412 325.497a1.579 1.579 0 1 0 0-3.158 1.579 1.579 0 0 0 0 3.158ZM152.502 325.497a1.58 1.58 0 1 0 .002-3.158 1.58 1.58 0 0 0-.002 3.158ZM133.548 325.497a1.58 1.58 0 1 0 .002-3.158 1.58 1.58 0 0 0-.002 3.158ZM247.274 249.752a1.578 1.578 0 1 0 0-3.156 1.58 1.58 0 1 0 0 3.156ZM247.274 306.561a1.579 1.579 0 1 0 0-3.158 1.579 1.579 0 0 0 0 3.158ZM209.366 249.752a1.578 1.578 0 1 0 0-3.156 1.58 1.58 0 1 0 0 3.156ZM171.457 249.752a1.578 1.578 0 1 0-1.579-1.578c0 .872.707 1.578 1.579 1.578ZM209.366 306.561a1.579 1.579 0 1 0 0-3.158 1.579 1.579 0 0 0 0 3.158ZM171.457 306.561a1.58 1.58 0 1 0 .002-3.158 1.58 1.58 0 0 0-.002 3.158ZM247.274 287.625a1.579 1.579 0 1 0 0-3.158 1.579 1.579 0 0 0 0 3.158ZM247.274 344.433a1.578 1.578 0 1 0 0-3.156 1.58 1.58 0 1 0 0 3.156ZM209.366 287.625a1.579 1.579 0 1 0 0-3.158 1.579 1.579 0 0 0 0 3.158ZM171.457 287.625a1.58 1.58 0 1 0 .002-3.158 1.58 1.58 0 0 0-.002 3.158ZM209.366 344.433a1.578 1.578 0 1 0 0-3.156 1.58 1.58 0 1 0 0 3.156ZM171.457 344.433a1.578 1.578 0 1 0-1.579-1.578c0 .872.707 1.578 1.579 1.578ZM228.32 249.752a1.578 1.578 0 1 0 0-3.156 1.58 1.58 0 1 0 0 3.156ZM228.32 306.561a1.579 1.579 0 1 0 0-3.158 1.579 1.579 0 0 0 0 3.158ZM190.412 249.752a1.578 1.578 0 1 0 0-3.156 1.58 1.58 0 1 0 0 3.156ZM152.502 249.752a1.578 1.578 0 1 0-1.579-1.578c0 .872.707 1.578 1.579 1.578ZM133.548 249.752a1.578 1.578 0 1 0-1.579-1.578c0 .872.707 1.578 1.579 1.578ZM190.412 306.561a1.579 1.579 0 1 0 0-3.158 1.579 1.579 0 0 0 0 3.158ZM152.502 306.561a1.58 1.58 0 1 0 .002-3.158 1.58 1.58 0 0 0-.002 3.158ZM133.548 306.561a1.58 1.58 0 1 0 .002-3.158 1.58 1.58 0 0 0-.002 3.158ZM228.32 287.625a1.579 1.579 0 1 0 0-3.158 1.579 1.579 0 0 0 0 3.158ZM228.32 344.433a1.578 1.578 0 1 0 0-3.156 1.58 1.58 0 1 0 0 3.156ZM190.412 287.625a1.579 1.579 0 1 0 0-3.158 1.579 1.579 0 0 0 0 3.158ZM152.502 287.625a1.58 1.58 0 1 0 .002-3.158 1.58 1.58 0 0 0-.002 3.158ZM133.548 287.625a1.58 1.58 0 1 0 .002-3.158 1.58 1.58 0 0 0-.002 3.158ZM190.412 344.433a1.578 1.578 0 1 0 0-3.156 1.58 1.58 0 1 0 0 3.156ZM152.502 344.433a1.578 1.578 0 1 0-1.579-1.578c0 .872.707 1.578 1.579 1.578ZM133.548 344.433a1.578 1.578 0 1 0-1.579-1.578c0 .872.707 1.578 1.579 1.578ZM266.229 230.816a1.578 1.578 0 1 0 0-3.156 1.58 1.58 0 1 0 0 3.156ZM266.229 268.688a1.578 1.578 0 1 0 0-3.156 1.58 1.58 0 1 0 0 3.156ZM266.229 325.497a1.579 1.579 0 1 0 0-3.158 1.579 1.579 0 0 0 0 3.158ZM266.229 249.752a1.578 1.578 0 1 0 0-3.156 1.58 1.58 0 1 0 0 3.156ZM266.229 306.561a1.579 1.579 0 1 0 0-3.158 1.579 1.579 0 0 0 0 3.158ZM266.229 287.625a1.579 1.579 0 1 0 0-3.158 1.579 1.579 0 0 0 0 3.158ZM266.229 344.433a1.578 1.578 0 1 0 0-3.156 1.58 1.58 0 1 0 0 3.156ZM247.274 60.39a1.579 1.579 0 1 0 0-3.157 1.579 1.579 0 0 0 0 3.158ZM209.366 60.39a1.579 1.579 0 1 0 0-3.157 1.579 1.579 0 0 0 0 3.158ZM171.457 60.39a1.579 1.579 0 1 0 .002-3.157 1.579 1.579 0 0 0-.002 3.158ZM228.32 60.39a1.579 1.579 0 1 0 0-3.157 1.579 1.579 0 0 0 0 3.158ZM190.412 60.39a1.579 1.579 0 1 0 0-3.157 1.579 1.579 0 0 0 0 3.158ZM152.502 60.39a1.579 1.579 0 1 0 .002-3.157 1.579 1.579 0 0 0-.002 3.158ZM133.548 60.39a1.579 1.579 0 1 0 .002-3.157 1.579 1.579 0 0 0-.002 3.158ZM247.274 41.454a1.579 1.579 0 1 0 0-3.157 1.579 1.579 0 0 0 0 3.157ZM209.366 41.454a1.579 1.579 0 1 0 0-3.157 1.579 1.579 0 0 0 0 3.157ZM171.457 41.454a1.579 1.579 0 1 0 .002-3.157 1.579 1.579 0 0 0-.002 3.157ZM247.274 79.327a1.579 1.579 0 1 0 0-3.157 1.579 1.579 0 0 0 0 3.157ZM209.366 79.327a1.579 1.579 0 1 0 0-3.157 1.579 1.579 0 0 0 0 3.157ZM171.457 79.327a1.579 1.579 0 1 0 .002-3.158 1.579 1.579 0 0 0-.002 3.158ZM228.32 41.454a1.579 1.579 0 1 0 0-3.157 1.579 1.579 0 0 0 0 3.157ZM190.412 41.454a1.579 1.579 0 1 0 0-3.157 1.579 1.579 0 0 0 0 3.157ZM152.502 41.454a1.579 1.579 0 1 0 .002-3.157 1.579 1.579 0 0 0-.002 3.157ZM133.548 41.454a1.579 1.579 0 1 0 .002-3.157 1.579 1.579 0 0 0-.002 3.157ZM228.32 79.327a1.579 1.579 0 1 0 0-3.157 1.579 1.579 0 0 0 0 3.157ZM190.412 79.327a1.579 1.579 0 1 0 0-3.157 1.579 1.579 0 0 0 0 3.157ZM152.502 79.327a1.579 1.579 0 1 0 .002-3.158 1.579 1.579 0 0 0-.002 3.158ZM133.548 79.327a1.579 1.579 0 1 0 .002-3.158 1.579 1.579 0 0 0-.002 3.158ZM266.229 60.39a1.579 1.579 0 1 0 0-3.157 1.579 1.579 0 0 0 0 3.158ZM266.229 41.454a1.579 1.579 0 1 0 0-3.157 1.579 1.579 0 0 0 0 3.157ZM266.229 79.327a1.579 1.579 0 1 0 0-3.157 1.579 1.579 0 0 0 0 3.157ZM114.594 230.816a1.578 1.578 0 1 0-1.579-1.578c0 .872.707 1.578 1.579 1.578ZM76.686 230.816a1.578 1.578 0 1 0-1.58-1.578c0 .872.708 1.578 1.58 1.578ZM38.777 230.816a1.578 1.578 0 1 0 .002-3.157 1.578 1.578 0 0 0-.002 3.157ZM114.594 268.688a1.578 1.578 0 1 0-1.579-1.578c0 .872.707 1.578 1.579 1.578ZM114.594 325.497a1.58 1.58 0 1 0 .002-3.158 1.58 1.58 0 0 0-.002 3.158ZM76.686 268.688a1.578 1.578 0 1 0-1.58-1.578c0 .872.708 1.578 1.58 1.578ZM38.777 268.688a1.578 1.578 0 1 0 .002-3.157 1.578 1.578 0 0 0-.002 3.157ZM76.686 325.497a1.58 1.58 0 1 0 0-3.158 1.58 1.58 0 0 0 0 3.158ZM38.777 325.497a1.58 1.58 0 1 0 0-3.158 1.58 1.58 0 0 0 0 3.158ZM95.64 230.816a1.578 1.578 0 1 0-1.58-1.578c0 .872.708 1.578 1.58 1.578ZM57.73 230.816a1.578 1.578 0 1 0 .003-3.157 1.578 1.578 0 0 0-.002 3.157ZM19.823 230.816a1.578 1.578 0 1 0 .002-3.157 1.578 1.578 0 0 0-.002 3.157ZM95.64 268.688a1.578 1.578 0 1 0-1.58-1.578c0 .872.708 1.578 1.58 1.578ZM95.64 325.497a1.58 1.58 0 1 0 0-3.158 1.58 1.58 0 0 0 0 3.158ZM57.73 268.688a1.578 1.578 0 1 0 .003-3.157 1.578 1.578 0 0 0-.002 3.157ZM19.823 268.688a1.578 1.578 0 1 0 .002-3.157 1.578 1.578 0 0 0-.002 3.157ZM57.73 325.497a1.58 1.58 0 1 0 .002-3.158 1.58 1.58 0 0 0-.001 3.158ZM19.823 325.497a1.58 1.58 0 1 0 0-3.158 1.58 1.58 0 0 0 0 3.158ZM114.594 249.752a1.578 1.578 0 1 0-1.579-1.578c0 .872.707 1.578 1.579 1.578ZM114.594 306.561a1.58 1.58 0 1 0 .002-3.158 1.58 1.58 0 0 0-.002 3.158ZM76.686 249.752a1.578 1.578 0 1 0-1.58-1.578c0 .872.708 1.578 1.58 1.578ZM38.777 249.752a1.578 1.578 0 1 0 .002-3.157 1.578 1.578 0 0 0-.002 3.157ZM76.686 306.561a1.58 1.58 0 1 0 0-3.158 1.58 1.58 0 0 0 0 3.158ZM38.777 306.561a1.58 1.58 0 1 0 0-3.158 1.58 1.58 0 0 0 0 3.158ZM114.594 287.625a1.58 1.58 0 1 0 .002-3.158 1.58 1.58 0 0 0-.002 3.158ZM114.594 344.433a1.578 1.578 0 1 0-1.579-1.578c0 .872.707 1.578 1.579 1.578ZM76.686 287.625a1.58 1.58 0 1 0 0-3.158 1.58 1.58 0 0 0 0 3.158ZM38.777 287.625a1.58 1.58 0 1 0 0-3.158 1.58 1.58 0 0 0 0 3.158ZM76.686 344.433a1.578 1.578 0 1 0-1.58-1.578c0 .872.708 1.578 1.58 1.578ZM38.777 344.433a1.578 1.578 0 1 0 .002-3.157 1.578 1.578 0 0 0-.002 3.157ZM95.64 249.752a1.578 1.578 0 1 0-1.58-1.578c0 .872.708 1.578 1.58 1.578ZM95.64 306.561a1.58 1.58 0 1 0 0-3.158 1.58 1.58 0 0 0 0 3.158ZM57.73 249.752a1.578 1.578 0 1 0 .003-3.157 1.578 1.578 0 0 0-.002 3.157ZM19.823 249.752a1.578 1.578 0 1 0 .002-3.157 1.578 1.578 0 0 0-.002 3.157ZM57.73 306.561a1.58 1.58 0 1 0 .002-3.158 1.58 1.58 0 0 0-.001 3.158ZM19.823 306.561a1.58 1.58 0 1 0 0-3.158 1.58 1.58 0 0 0 0 3.158ZM95.64 287.625a1.58 1.58 0 1 0 0-3.158 1.58 1.58 0 0 0 0 3.158ZM95.64 344.433a1.578 1.578 0 1 0-1.58-1.578c0 .872.708 1.578 1.58 1.578ZM57.73 287.625a1.58 1.58 0 1 0 .002-3.158 1.58 1.58 0 0 0-.001 3.158ZM19.823 287.625a1.58 1.58 0 1 0 0-3.158 1.58 1.58 0 0 0 0 3.158ZM57.73 344.433a1.578 1.578 0 1 0 .003-3.157 1.578 1.578 0 0 0-.002 3.157ZM19.823 344.433a1.578 1.578 0 1 0 .002-3.157 1.578 1.578 0 0 0-.002 3.157ZM114.594 60.39a1.579 1.579 0 1 0 .002-3.157 1.579 1.579 0 0 0-.002 3.158ZM76.686 60.39a1.579 1.579 0 1 0 .001-3.157 1.579 1.579 0 0 0-.001 3.158ZM38.777 60.39a1.579 1.579 0 1 0 .001-3.157 1.579 1.579 0 0 0-.001 3.158ZM95.64 60.39a1.579 1.579 0 1 0 .002-3.157 1.579 1.579 0 0 0-.002 3.158ZM57.73 60.39a1.579 1.579 0 1 0 .002-3.157 1.579 1.579 0 0 0-.001 3.158ZM19.823 60.39a1.579 1.579 0 1 0 .001-3.157 1.579 1.579 0 0 0-.001 3.158ZM114.594 41.454a1.579 1.579 0 1 0 .002-3.157 1.579 1.579 0 0 0-.002 3.157ZM76.686 41.454a1.579 1.579 0 1 0 .001-3.157 1.579 1.579 0 0 0-.001 3.157ZM38.777 41.454a1.579 1.579 0 1 0 .001-3.157 1.579 1.579 0 0 0-.001 3.157ZM114.594 79.327a1.579 1.579 0 1 0 .002-3.158 1.579 1.579 0 0 0-.002 3.158ZM76.686 79.327a1.579 1.579 0 1 0 .001-3.158 1.579 1.579 0 0 0-.001 3.158ZM38.777 79.327a1.579 1.579 0 1 0 .001-3.158 1.579 1.579 0 0 0-.001 3.158ZM95.64 41.454a1.579 1.579 0 1 0 .002-3.157 1.579 1.579 0 0 0-.002 3.157ZM57.73 41.454a1.579 1.579 0 1 0 .002-3.157 1.579 1.579 0 0 0-.001 3.157ZM19.823 41.454a1.579 1.579 0 1 0 .001-3.157 1.579 1.579 0 0 0-.001 3.157ZM95.64 79.327a1.579 1.579 0 1 0 .002-3.158 1.579 1.579 0 0 0-.002 3.158ZM57.73 79.327a1.579 1.579 0 1 0 .002-3.158 1.579 1.579 0 0 0-.001 3.158ZM19.823 79.327a1.579 1.579 0 1 0 .001-3.158 1.579 1.579 0 0 0-.001 3.158ZM247.274 363.369a1.578 1.578 0 1 0 0-3.156 1.58 1.58 0 1 0 0 3.156ZM209.366 363.369a1.578 1.578 0 1 0 0-3.156 1.58 1.58 0 1 0 0 3.156ZM171.457 363.369a1.578 1.578 0 1 0-1.579-1.578c0 .872.707 1.578 1.579 1.578ZM247.274 401.242a1.579 1.579 0 1 0 0-3.158 1.579 1.579 0 0 0 0 3.158ZM209.366 401.242a1.579 1.579 0 1 0 0-3.158 1.579 1.579 0 0 0 0 3.158ZM171.457 401.242a1.58 1.58 0 1 0 .002-3.158 1.58 1.58 0 0 0-.002 3.158ZM228.32 363.369a1.578 1.578 0 1 0 0-3.156 1.58 1.58 0 1 0 0 3.156ZM190.412 363.369a1.578 1.578 0 1 0 0-3.156 1.58 1.58 0 1 0 0 3.156ZM152.502 363.369a1.578 1.578 0 1 0-1.579-1.578c0 .872.707 1.578 1.579 1.578ZM133.548 363.369a1.578 1.578 0 1 0-1.579-1.578c0 .872.707 1.578 1.579 1.578ZM228.32 401.242a1.579 1.579 0 1 0 0-3.158 1.579 1.579 0 0 0 0 3.158ZM190.412 401.242a1.579 1.579 0 1 0 0-3.158 1.579 1.579 0 0 0 0 3.158ZM152.502 401.242a1.58 1.58 0 1 0 .002-3.158 1.58 1.58 0 0 0-.002 3.158ZM133.548 401.242a1.58 1.58 0 1 0 .002-3.158 1.58 1.58 0 0 0-.002 3.158ZM247.274 382.305a1.578 1.578 0 1 0 0-3.156 1.58 1.58 0 1 0 0 3.156ZM209.366 382.305a1.578 1.578 0 1 0 0-3.156 1.58 1.58 0 1 0 0 3.156ZM171.457 382.305a1.578 1.578 0 1 0-1.579-1.578c0 .872.707 1.578 1.579 1.578ZM247.274 420.178a1.579 1.579 0 1 0 0-3.158 1.579 1.579 0 0 0 0 3.158ZM209.366 420.178a1.579 1.579 0 1 0 0-3.158 1.579 1.579 0 0 0 0 3.158ZM171.457 420.178a1.58 1.58 0 1 0 .002-3.158 1.58 1.58 0 0 0-.002 3.158ZM228.32 382.305a1.578 1.578 0 1 0 0-3.156 1.58 1.58 0 1 0 0 3.156ZM190.412 382.305a1.578 1.578 0 1 0 0-3.156 1.58 1.58 0 1 0 0 3.156ZM152.502 382.305a1.578 1.578 0 1 0-1.579-1.578c0 .872.707 1.578 1.579 1.578ZM133.548 382.305a1.578 1.578 0 1 0-1.579-1.578c0 .872.707 1.578 1.579 1.578ZM228.32 420.178a1.579 1.579 0 1 0 0-3.158 1.579 1.579 0 0 0 0 3.158ZM190.412 420.178a1.579 1.579 0 1 0 0-3.158 1.579 1.579 0 0 0 0 3.158ZM152.502 420.178a1.58 1.58 0 1 0 .002-3.158 1.58 1.58 0 0 0-.002 3.158ZM133.548 420.178a1.58 1.58 0 1 0 .002-3.158 1.58 1.58 0 0 0-.002 3.158ZM266.229 363.369a1.578 1.578 0 1 0 0-3.156 1.58 1.58 0 1 0 0 3.156ZM266.229 401.242a1.579 1.579 0 1 0 0-3.158 1.579 1.579 0 0 0 0 3.158ZM266.229 382.305a1.578 1.578 0 1 0 0-3.156 1.58 1.58 0 1 0 0 3.156ZM266.229 420.178a1.579 1.579 0 1 0 0-3.158 1.579 1.579 0 0 0 0 3.158ZM114.594 363.369a1.578 1.578 0 1 0-1.579-1.578c0 .872.707 1.578 1.579 1.578ZM76.686 363.369a1.578 1.578 0 1 0-1.58-1.578c0 .872.708 1.578 1.58 1.578ZM38.777 363.369a1.578 1.578 0 1 0 .002-3.157 1.578 1.578 0 0 0-.002 3.157ZM114.594 401.242a1.58 1.58 0 1 0 .002-3.158 1.58 1.58 0 0 0-.002 3.158ZM76.686 401.242a1.58 1.58 0 1 0 0-3.158 1.58 1.58 0 0 0 0 3.158ZM38.777 401.242a1.58 1.58 0 1 0 0-3.158 1.58 1.58 0 0 0 0 3.158ZM95.64 363.369a1.578 1.578 0 1 0-1.58-1.578c0 .872.708 1.578 1.58 1.578ZM57.73 363.369a1.578 1.578 0 1 0 .003-3.157 1.578 1.578 0 0 0-.002 3.157ZM19.823 363.369a1.578 1.578 0 1 0 .002-3.157 1.578 1.578 0 0 0-.002 3.157ZM95.64 401.242a1.58 1.58 0 1 0 0-3.158 1.58 1.58 0 0 0 0 3.158ZM57.73 401.242a1.58 1.58 0 1 0 .002-3.158 1.58 1.58 0 0 0-.001 3.158ZM19.823 401.242a1.58 1.58 0 1 0 0-3.158 1.58 1.58 0 0 0 0 3.158ZM114.594 382.305a1.578 1.578 0 1 0-1.579-1.578c0 .872.707 1.578 1.579 1.578ZM76.686 382.305a1.578 1.578 0 1 0-1.58-1.578c0 .872.708 1.578 1.58 1.578ZM38.777 382.305a1.578 1.578 0 1 0 .002-3.157 1.578 1.578 0 0 0-.002 3.157ZM114.594 420.178a1.58 1.58 0 1 0 .002-3.158 1.58 1.58 0 0 0-.002 3.158ZM76.686 420.178a1.58 1.58 0 1 0 0-3.158 1.58 1.58 0 0 0 0 3.158ZM38.777 420.178a1.58 1.58 0 1 0 0-3.158 1.58 1.58 0 0 0 0 3.158ZM95.64 382.305a1.578 1.578 0 1 0-1.58-1.578c0 .872.708 1.578 1.58 1.578ZM57.73 382.305a1.578 1.578 0 1 0 .003-3.157 1.578 1.578 0 0 0-.002 3.157ZM19.823 382.305a1.578 1.578 0 1 0 .002-3.157 1.578 1.578 0 0 0-.002 3.157ZM95.64 420.178a1.58 1.58 0 1 0 0-3.158 1.58 1.58 0 0 0 0 3.158ZM57.73 420.178a1.58 1.58 0 1 0 .002-3.158 1.58 1.58 0 0 0-.001 3.158ZM19.823 420.178a1.58 1.58 0 1 0 0-3.158 1.58 1.58 0 0 0 0 3.158ZM323.178 98.263a1.579 1.579 0 1 0 .002-3.158 1.579 1.579 0 0 0-.002 3.158ZM285.27 98.263a1.579 1.579 0 1 0 0-3.157 1.579 1.579 0 0 0 0 3.157ZM323.178 136.135a1.578 1.578 0 1 0-1.579-1.578c0 .872.707 1.578 1.579 1.578ZM285.27 136.135a1.578 1.578 0 1 0 0-3.156 1.58 1.58 0 1 0 0 3.156ZM323.178 192.944a1.58 1.58 0 1 0 .002-3.158 1.58 1.58 0 0 0-.002 3.158ZM285.27 192.944a1.579 1.579 0 1 0 0-3.158 1.579 1.579 0 0 0 0 3.158ZM342.132 98.263a1.579 1.579 0 1 0 .002-3.158 1.579 1.579 0 0 0-.002 3.158ZM304.224 98.263a1.58 1.58 0 0 0 1.58-1.578 1.58 1.58 0 0 0-3.159 0c0 .871.707 1.578 1.579 1.578ZM342.132 136.135a1.578 1.578 0 1 0-1.579-1.578c0 .872.707 1.578 1.579 1.578ZM342.132 192.944a1.58 1.58 0 1 0 .002-3.158 1.58 1.58 0 0 0-.002 3.158ZM304.224 136.135a1.58 1.58 0 1 0 .002-3.158 1.58 1.58 0 0 0-.002 3.158ZM304.224 192.944a1.58 1.58 0 1 0 .002-3.154 1.58 1.58 0 0 0-.002 3.154ZM323.178 117.199a1.578 1.578 0 1 0-1.579-1.578c0 .872.707 1.578 1.579 1.578ZM285.27 117.199a1.578 1.578 0 1 0 0-3.156 1.58 1.58 0 1 0 0 3.156ZM323.178 174.008a1.58 1.58 0 1 0 .002-3.158 1.58 1.58 0 0 0-.002 3.158ZM285.27 174.008a1.579 1.579 0 1 0 0-3.158 1.579 1.579 0 0 0 0 3.158ZM323.178 155.071a1.578 1.578 0 1 0-1.579-1.578c0 .872.707 1.578 1.579 1.578ZM285.27 155.071a1.578 1.578 0 1 0 0-3.156 1.58 1.58 0 1 0 0 3.156ZM323.178 211.88a1.58 1.58 0 1 0 .002-3.158 1.58 1.58 0 0 0-.002 3.158ZM285.27 211.88a1.579 1.579 0 1 0 0-3.158 1.579 1.579 0 0 0 0 3.158ZM342.132 117.199a1.578 1.578 0 1 0-1.579-1.578c0 .872.707 1.578 1.579 1.578ZM342.132 174.008a1.58 1.58 0 1 0 .002-3.158 1.58 1.58 0 0 0-.002 3.158ZM304.224 117.199a1.58 1.58 0 1 0 .002-3.158 1.58 1.58 0 0 0-.002 3.158ZM304.224 174.008a1.58 1.58 0 1 0 .002-3.154 1.58 1.58 0 0 0-.002 3.154ZM342.132 155.071a1.578 1.578 0 1 0-1.579-1.578c0 .872.707 1.578 1.579 1.578ZM342.132 211.88a1.58 1.58 0 1 0 .002-3.158 1.58 1.58 0 0 0-.002 3.158ZM304.224 155.071a1.58 1.58 0 1 0 .002-3.158 1.58 1.58 0 0 0-.002 3.158ZM304.224 211.88a1.58 1.58 0 1 0 .002-3.154 1.58 1.58 0 0 0-.002 3.154ZM323.178 230.816a1.578 1.578 0 1 0-1.579-1.578c0 .872.707 1.578 1.579 1.578ZM285.27 230.816a1.578 1.578 0 1 0 0-3.156 1.58 1.58 0 1 0 0 3.156ZM323.178 268.688a1.578 1.578 0 1 0-1.579-1.578c0 .872.707 1.578 1.579 1.578ZM285.27 268.688a1.578 1.578 0 1 0 0-3.156 1.58 1.58 0 1 0 0 3.156ZM323.178 325.497a1.58 1.58 0 1 0 .002-3.158 1.58 1.58 0 0 0-.002 3.158ZM285.27 325.497a1.579 1.579 0 1 0 0-3.158 1.579 1.579 0 0 0 0 3.158ZM342.132 230.816a1.578 1.578 0 1 0-1.579-1.578c0 .872.707 1.578 1.579 1.578ZM304.224 230.816a1.58 1.58 0 1 0 .002-3.158 1.58 1.58 0 0 0-.002 3.158ZM342.132 268.688a1.578 1.578 0 1 0-1.579-1.578c0 .872.707 1.578 1.579 1.578ZM342.132 325.497a1.58 1.58 0 1 0 .002-3.158 1.58 1.58 0 0 0-.002 3.158ZM304.224 268.688a1.58 1.58 0 1 0 .002-3.158 1.58 1.58 0 0 0-.002 3.158ZM304.224 325.497a1.58 1.58 0 1 0 .002-3.154 1.58 1.58 0 0 0-.002 3.154ZM323.178 249.752a1.578 1.578 0 1 0-1.579-1.578c0 .872.707 1.578 1.579 1.578ZM285.27 249.752a1.578 1.578 0 1 0 0-3.156 1.58 1.58 0 1 0 0 3.156ZM323.178 306.561a1.58 1.58 0 1 0 .002-3.158 1.58 1.58 0 0 0-.002 3.158ZM285.27 306.561a1.579 1.579 0 1 0 0-3.158 1.579 1.579 0 0 0 0 3.158ZM323.178 287.625a1.58 1.58 0 1 0 .002-3.158 1.58 1.58 0 0 0-.002 3.158ZM285.27 287.625a1.579 1.579 0 1 0 0-3.158 1.579 1.579 0 0 0 0 3.158ZM323.178 344.433a1.578 1.578 0 1 0-1.579-1.578c0 .872.707 1.578 1.579 1.578ZM285.27 344.433a1.578 1.578 0 1 0 0-3.156 1.58 1.58 0 1 0 0 3.156ZM342.132 249.752a1.578 1.578 0 1 0-1.579-1.578c0 .872.707 1.578 1.579 1.578ZM342.132 306.561a1.58 1.58 0 1 0 .002-3.158 1.58 1.58 0 0 0-.002 3.158ZM304.224 249.752a1.58 1.58 0 1 0 .002-3.158 1.58 1.58 0 0 0-.002 3.158ZM304.224 306.561a1.58 1.58 0 1 0 .002-3.154 1.58 1.58 0 0 0-.002 3.154ZM342.132 287.625a1.58 1.58 0 1 0 .002-3.158 1.58 1.58 0 0 0-.002 3.158ZM342.132 344.433a1.578 1.578 0 1 0-1.579-1.578c0 .872.707 1.578 1.579 1.578ZM304.224 287.625a1.58 1.58 0 1 0 .002-3.154 1.58 1.58 0 0 0-.002 3.154ZM304.224 344.433a1.58 1.58 0 1 0 .002-3.158 1.58 1.58 0 0 0-.002 3.158ZM323.178 60.39a1.579 1.579 0 1 0 .002-3.157 1.579 1.579 0 0 0-.002 3.158ZM285.27 60.39a1.579 1.579 0 1 0 0-3.157 1.579 1.579 0 0 0 0 3.158ZM342.132 60.39a1.579 1.579 0 1 0 .002-3.157 1.579 1.579 0 0 0-.002 3.158ZM304.224 60.39a1.58 1.58 0 0 0 1.58-1.578 1.58 1.58 0 0 0-3.159 0c0 .872.707 1.579 1.579 1.579ZM323.178 41.454a1.579 1.579 0 1 0 .002-3.157 1.579 1.579 0 0 0-.002 3.157ZM285.27 41.454a1.579 1.579 0 1 0 0-3.157 1.579 1.579 0 0 0 0 3.157ZM323.178 79.327a1.579 1.579 0 1 0 .002-3.158 1.579 1.579 0 0 0-.002 3.158ZM285.27 79.327a1.579 1.579 0 1 0 0-3.157 1.579 1.579 0 0 0 0 3.157ZM342.132 41.454a1.579 1.579 0 1 0 .002-3.157 1.579 1.579 0 0 0-.002 3.157ZM304.224 41.454a1.58 1.58 0 0 0 1.58-1.578 1.58 1.58 0 0 0-3.159 0c0 .872.707 1.578 1.579 1.578ZM342.132 79.327a1.579 1.579 0 1 0 .002-3.158 1.579 1.579 0 0 0-.002 3.158ZM304.224 79.327a1.58 1.58 0 0 0 1.58-1.578 1.58 1.58 0 0 0-3.159 0c0 .871.707 1.578 1.579 1.578ZM323.178 363.369a1.578 1.578 0 1 0-1.579-1.578c0 .872.707 1.578 1.579 1.578ZM285.27 363.369a1.578 1.578 0 1 0 0-3.156 1.58 1.58 0 1 0 0 3.156ZM323.178 401.242a1.58 1.58 0 1 0 .002-3.158 1.58 1.58 0 0 0-.002 3.158ZM285.27 401.242a1.579 1.579 0 1 0 0-3.158 1.579 1.579 0 0 0 0 3.158ZM342.132 363.369a1.578 1.578 0 1 0-1.579-1.578c0 .872.707 1.578 1.579 1.578ZM304.224 363.369a1.58 1.58 0 1 0 .002-3.158 1.58 1.58 0 0 0-.002 3.158ZM342.132 401.242a1.58 1.58 0 1 0 .002-3.158 1.58 1.58 0 0 0-.002 3.158ZM304.224 401.242a1.58 1.58 0 1 0 .002-3.154 1.58 1.58 0 0 0-.002 3.154ZM323.178 382.305a1.578 1.578 0 1 0-1.579-1.578c0 .872.707 1.578 1.579 1.578ZM285.27 382.305a1.578 1.578 0 1 0 0-3.156 1.58 1.58 0 1 0 0 3.156ZM323.178 420.178a1.58 1.58 0 1 0 .002-3.158 1.58 1.58 0 0 0-.002 3.158ZM285.27 420.178a1.579 1.579 0 1 0 0-3.158 1.579 1.579 0 0 0 0 3.158ZM342.132 382.305a1.578 1.578 0 1 0-1.579-1.578c0 .872.707 1.578 1.579 1.578ZM304.224 382.305a1.58 1.58 0 1 0 .002-3.158 1.58 1.58 0 0 0-.002 3.158ZM342.132 420.178a1.58 1.58 0 1 0 .002-3.158 1.58 1.58 0 0 0-.002 3.158ZM304.224 420.178a1.58 1.58 0 1 0 .002-3.154 1.58 1.58 0 0 0-.002 3.154Z" fill="#CCDFFF"/><path d="M218.725 206.972a5.012 5.012 0 0 0 5.015-5.01 5.012 5.012 0 0 0-5.015-5.01 5.012 5.012 0 0 0-5.015 5.01 5.012 5.012 0 0 0 5.015 5.01Z" fill="#0061FF"/><path d="M354.69 133.24a1.183 1.183 0 0 1-1.184-1.184v-7.259c-2.488.766-7.116 1.515-9.683-2.272l-.047-.071c-4.218-7.243 2.645-26.463 2.938-27.284a1.183 1.183 0 0 1 2.227.805c-1.896 5.247-6.145 20.001-3.143 25.256 2.432 3.511 8.324.821 8.379.789a1.187 1.187 0 0 1 1.69 1.073v8.963a1.176 1.176 0 0 1-1.177 1.184ZM367.287 133.24a1.183 1.183 0 0 1-1.184-1.184v-11.945c0-.655.529-1.184 1.184-1.184.656 0 1.185.529 1.185 1.184v11.945c0 .647-.529 1.184-1.185 1.184Z" fill="#6A2EA0"/><path d="M184.654 360.45H159.05l-40.886-106.713-18.67 106.539H72.28s-10.78-58.86 3.104-103.075c5.583-18.329 11.665-32.026 16.387-41.195 4.17 5.697 12.036 14.494 25.178 22.605 3.317 2.044 8.49 6.249 16.095 8.151 3.902.978 8.419.552 13.695.552 4.178 0 2.961-4.513.458-4.513-1.272 0-2.527-.276-5.766-.331 0 0-.213-5.129-7.881-7.267-7.669-2.138-8.356-.552-8.356-.552l-24.972-32.697h32.546c.008.008 48.262 50.331 51.887 158.496Zm177.934-228.394c-13.45 0-22.903 6.407-30.051 26.345-3.451 7.74-5.449 21.406-5.449 21.406l-28.637-4.356-7.771 9.287s17.912 8.143 30.966 12.032c.585-.781 6.903-8.679 18.062-4.45 0 0-3.072 5.452-5.797 5.681-4.13.355-9.161-.52-11.285-.947 2.653.758 5.078 1.326 7.068 1.586l-1.469 12.814s9.382 8.837 24.467 7.464c15.076-1.373 17.256-3.866 17.256-3.866l3.973-32.855s9.777-1.893 9.674-22.652c.008-12.821-7.313-26.455-21.007-27.489ZM345.387 87.69c-7.321-2.99-10.18 8.663-2.741 11.812 5.094 2.154 8.498 4.15 10.559 6.477 2.496-6.65 8.775-3.298 7.487.995-.869 2.903-12.146 12.797 0 15.788 12.147 2.99 4.826-4.656 11.649-5.981 6.824-1.334 6.99-7.148 4.328-8.474-2.661-1.333-4.659-4.324-1.335-6.983 3.325-2.659 2.33-6.146 0-8.474-2.329-2.327-7.984.995-10.646-1.333-2.661-2.328-5.078-10.746-10.314-9.476-6.16 1.491-1.666 8.64-8.987 5.65Zm-196.541 38.591c3.657 0 6.247-3.63 4.984-7.054-3.712-10.044-11.42-14.226-15.685-15.828a39.186 39.186 0 0 0-4.059-1.088c-8.822-1.563-17.446.426-20.479 2.011-5.576 2.92-8.782 7.914-10.377 13.374-1.248 4.292 1.982 8.585 6.452 8.585-.782 9.696-5.512 20.601-15.543 24.151-11.032 3.914-8.363 14.676-3.735 17.382 0 0 8.585-15.78 22.627-17.469l6.957-.836v-15.323s-2.787-4.473-2.085-7.905h10.67c9.288-1.571 6.563-15.307 6.563-15.307 9.098 0 8.482 13.736 8.387 15.307h5.323Zm43.959-70.64a13.582 13.582 0 0 0 7.139 2.012c6.705 0 12.281-4.829 13.442-11.188l-20.581 9.176Z" fill="url(#a)"/><path d="M374.687 183.073a1.182 1.182 0 0 1-.237-2.343c.158-.039 7.968-2.091 7.968-21.193 0-19.693-12.233-26.747-22.713-26.802h-.087c-7.061 0-24.04 4.663-31.362 47.269a1.182 1.182 0 1 1-2.329-.394c7.621-44.374 26.03-49.242 33.699-49.242h.095c11.57.063 25.075 7.732 25.075 29.169 0 21.382-9.47 23.442-9.873 23.521-.086.015-.165.015-.236.015Z" fill="#6A2EA0"/><path d="M350.402 220.101a65.65 65.65 0 0 1-2.148-.039c-10.173-.363-17.454-4.261-20.882-7.787a1.19 1.19 0 0 1-.324-.955l1.469-12.814a1.182 1.182 0 0 1 1.311-1.041 1.187 1.187 0 0 1 1.043 1.31l-1.398 12.245c3.254 3.085 9.785 6.359 18.875 6.683 11.025.394 18.505-2.549 20.518-3.44l7.124-53.171a1.186 1.186 0 0 1 1.335-1.018 1.186 1.186 0 0 1 1.019 1.333l-7.203 53.803a1.17 1.17 0 0 1-.624.891c-.355.166-7.842 4-20.115 4Z" fill="#6A2EA0"/><path d="M330.997 199.619c-11.546 0-37.585-12.269-40.831-13.816a1.178 1.178 0 0 1-.647-.812 1.17 1.17 0 0 1 .252-1.01l7.772-9.287c.26-.316.663-.465 1.066-.41 1.082.15 26.536 3.637 32.088 5.547a1.186 1.186 0 1 1-.774 2.24c-4.857-1.672-26.907-4.781-30.983-5.349l-6.373 7.606c10.449 4.876 34.481 14.991 40.791 12.624 12.107-8.079 19.484-38.511 19.555-38.811.15-.639.79-1.026 1.429-.876.64.15 1.027.789.877 1.428-.308 1.294-7.708 31.813-20.66 40.31-.064.04-.135.079-.206.103-.876.347-2.021.513-3.356.513ZM299.493 362.746h-26.702a1.186 1.186 0 0 1-1.113-1.594l55.433-150.108a1.186 1.186 0 1 1 2.227.82l-54.841 148.523h24.222c3.278-7.511 31.52-71.926 43.856-91.927 12.857-20.854 14.516-35.237 14.532-35.379a1.186 1.186 0 0 1 1.303-1.05 1.186 1.186 0 0 1 1.05 1.302c-.063.608-1.73 15.07-14.863 36.373-12.952 21.004-43.698 91.628-44.014 92.346-.189.41-.616.694-1.09.694Z" fill="#6A2EA0"/><path d="M373.115 362.746h-20.423a1.183 1.183 0 0 1-1.177-1.065l-9.106-92.488a1.186 1.186 0 0 1 2.361-.228l9.004 91.422h18.196c.316-11.946 2.756-112.875-3.183-145.114a1.19 1.19 0 0 1 .948-1.381 1.19 1.19 0 0 1 1.382.947c6.326 34.353 3.222 145.643 3.19 146.763a1.202 1.202 0 0 1-1.192 1.144Z" fill="#6A2EA0"/><path d="M370.557 382.14h-32.815c-.529 0-.995-.347-1.137-.852-.024-.095-.656-2.359 1.058-4.679 2.275-3.069 7.416-4.679 15.282-4.789 1.856-.024 3.214-.6 4.146-1.752 1.911-2.367 1.54-6.778 1.232-8.277a1.191 1.191 0 0 1 .924-1.396 1.192 1.192 0 0 1 1.398.923c.055.26 1.28 6.517-1.714 10.225-1.382 1.713-3.38 2.596-5.954 2.628-8.83.118-12.163 2.154-13.411 3.834a3.59 3.59 0 0 0-.718 1.76h30.524v-18.21c0-.655.529-1.184 1.185-1.184.655 0 1.184.529 1.184 1.184v19.393c0 .663-.529 1.192-1.184 1.192ZM293.705 382.14H260.89c-.529 0-.995-.347-1.137-.852-.024-.095-.655-2.359 1.058-4.679 2.275-3.069 7.416-4.679 15.282-4.789 1.856-.024 3.215-.6 4.147-1.752 1.911-2.367 1.54-6.778 1.232-8.277a1.19 1.19 0 0 1 .924-1.396 1.193 1.193 0 0 1 1.398.923c.055.26 1.279 6.517-1.714 10.225-1.382 1.713-3.38 2.596-5.955 2.628-8.83.118-12.162 2.154-13.41 3.834a3.583 3.583 0 0 0-.719 1.76h30.524v-18.21c0-.655.53-1.184 1.185-1.184.656 0 1.185.529 1.185 1.184v19.393c0 .663-.529 1.192-1.185 1.192ZM271.709 187.216c-4.462 0-7.518-1.113-7.724-1.192a1.182 1.182 0 0 1-.695-1.523c.23-.615.917-.923 1.525-.694.094.032 7.574 2.722 15.977-.757 5.962-2.557 11.025-.781 11.238-.71.616.22.932.899.711 1.514a1.185 1.185 0 0 1-1.517.711c-.039-.016-4.422-1.523-9.508.662a25.938 25.938 0 0 1-10.007 1.989Z" fill="#6A2EA0"/><path d="M272.215 183.357c-4.88 0-8.15-1.507-8.316-1.586a1.177 1.177 0 0 1-.56-1.578 1.184 1.184 0 0 1 1.571-.568c.048.024 4.525 2.068 10.654 1.097a1.187 1.187 0 1 1 .371 2.343 24.13 24.13 0 0 1-3.72.292ZM298.451 176.635c-.15 0-.3-.032-.442-.087-11.302-4.592-22.548-3.069-22.666-3.053a1.184 1.184 0 1 1-.34-2.344c.482-.071 11.973-1.641 23.89 3.204.608.244.901.939.648 1.538a1.165 1.165 0 0 1-1.09.742ZM99.494 361.46H72.28a1.177 1.177 0 0 1-1.16-.963c-9.794-52.066-3.476-100.432 18.764-143.757.3-.584 1.01-.812 1.595-.513.585.3.814 1.01.514 1.594-21.86 42.583-28.163 90.105-18.726 141.272H98.5l19.902-113.057a1.186 1.186 0 0 1 2.338.41l-20.068 114.036a1.2 1.2 0 0 1-1.177.978Z" fill="#6A2EA0"/><path d="M184.654 361.634H159.05c-.489 0-.932-.3-1.105-.758l-40.886-106.713a1.186 1.186 0 0 1 .679-1.531 1.194 1.194 0 0 1 1.532.679l40.594 105.956h23.558c-.229-5.492-1.492-28.949-7.384-57.29-6.152-29.596-18.741-70.703-43.8-98.831h-32.214a1.183 1.183 0 1 1 0-2.367h32.743c.34 0 .656.142.885.394 25.659 28.539 38.477 70.332 44.716 100.37 6.745 32.491 7.463 58.623 7.471 58.883.008.316-.11.632-.34.853-.221.22-.529.355-.845.355Z" fill="#6A2EA0"/><path d="M132.774 203.146a1.19 1.19 0 0 1-1.176-1.034c-.379-2.896-1.153-12.679 4.794-16.83 3.206-2.232 6.839-4.773 2.227-17.05a1.18 1.18 0 0 1 .695-1.523 1.183 1.183 0 0 1 1.524.695c4.849 12.931 1.303 16.75-3.096 19.819-3.854 2.691-4.494 9.295-3.799 14.581a1.182 1.182 0 0 1-1.018 1.326c-.048.016-.103.016-.151.016ZM100.995 183.602H86.772a1.183 1.183 0 1 1 0-2.367h14.223a1.183 1.183 0 1 1 0 2.367Z" fill="#6A2EA0"/><path d="M163.244 183.602h-21.253a1.183 1.183 0 1 1 0-2.367h21.253a1.182 1.182 0 1 1 0 2.367Z" fill="#6A2EA0"/><path d="M184.67 243.022c-.489 0-.948-.308-1.121-.797l-2.441-7.014c-1.437-1.988-15.084-21.067-19.831-32.57l-20.107-19.37a1.183 1.183 0 1 1 1.643-1.705l20.289 19.544c.118.118.213.252.276.41 4.707 11.591 19.602 32.239 19.752 32.444.071.095.119.197.158.308l2.496 7.18a1.186 1.186 0 0 1-.727 1.507c-.126.039-.26.063-.387.063ZM132.514 167.08h-1.967c-6.476 0-11.744-5.263-11.744-11.732v-20.862c-.884-1.68-2.969-6.083-1.697-8.205.26-.442.908-1.184 2.258-1.184h3.673a1.183 1.183 0 1 1 0 2.367h-3.673a.596.596 0 0 0-.229.032c-.371.489.387 3.337 1.904 6.122.094.174.142.371.142.568v21.154c0 5.16 4.201 9.365 9.374 9.365h1.967c.655 0 1.184.529 1.184 1.184 0 .655-.537 1.191-1.192 1.191ZM220.044 382.574H56.365a1.183 1.183 0 1 1 0-2.367h163.686c.656 0 1.185.528 1.185 1.183a1.19 1.19 0 0 1-1.192 1.184ZM430.168 382.574H246.382a1.183 1.183 0 1 1 0-2.367h183.786a1.183 1.183 0 1 1 0 2.367Z" fill="#6A2EA0"/><path d="M132.491 143.875c-2.077 0-4.233-.607-6.326-1.822a1.178 1.178 0 0 1-.427-1.618 1.18 1.18 0 0 1 1.619-.426c3.436 1.996 6.887 2.012 9.73.048 2.512-1.736 7.313-11.062 4.257-23.844a1.185 1.185 0 0 1 2.306-.553c1.793 7.512.956 13.54-.071 17.272-1.137 4.134-3.151 7.693-5.141 9.066-1.809 1.254-3.838 1.877-5.947 1.877ZM19.617 259.426a1.183 1.183 0 0 1-1.184-1.184v-3.748c0-7.629 6.215-13.839 13.852-13.839h89.899a1.183 1.183 0 1 1 0 2.367H32.285c-6.334 0-11.483 5.144-11.483 11.472v3.748c0 .655-.53 1.184-1.185 1.184ZM140.838 242.162c-.395 0-.782-.197-1.011-.56-.213-.347-5.378-8.474-14.294-5.815a1.187 1.187 0 0 1-1.28-.41L99.091 202.68a1.219 1.219 0 0 1-.244-.805l1.927-26.929a1.173 1.173 0 0 1 1.263-1.096 1.183 1.183 0 0 1 1.098 1.262l-1.895 26.479 24.403 31.71c10.188-2.477 16.135 6.959 16.198 7.054.34.56.166 1.286-.387 1.626a1.1 1.1 0 0 1-.616.181Z" fill="#6A2EA0"/><path d="M146.777 248.277h-11.025c-.048 0-.095 0-.134-.008-.19-.024-4.755-.576-10.97-3.835-.371-.173-9.967-4.876-24.396-16.387-12.897-10.289-18.038-23.805-15.724-41.313 1.5-11.369 6.136-26.526 19.665-34.172 8.134-4.592 15.542-4.252 15.858-4.237a1.185 1.185 0 0 1 1.122 1.247 1.175 1.175 0 0 1-1.248 1.12c-.087-.007-7.14-.299-14.674 3.993-10.117 5.767-16.3 16.656-18.378 32.357-2.195 16.617 2.662 29.422 14.856 39.151 14.192 11.33 23.882 16.072 23.977 16.119 5.457 2.856 9.572 3.511 10.117 3.59h10.946a1.189 1.189 0 0 1 .008 2.375Z" fill="#6A2EA0"/><path d="M192.758 243.022h-55.505a1.183 1.183 0 1 1 0-2.367h55.505a1.183 1.183 0 1 1 0 2.367ZM237.466 243.022h-37.309a1.182 1.182 0 1 1 0-2.367h37.309c9.161 0 17.343-5.807 20.36-14.455l14.231-40.602a1.184 1.184 0 0 1 2.235.781l-14.231 40.603c-3.341 9.586-12.423 16.04-22.595 16.04ZM276.283 178.45c-.127 0-.261-.024-.395-.063a1.186 1.186 0 0 1-.727-1.507l36.203-103.447c4.383-12.514 16.245-20.917 29.513-20.917h9.312c.655 0 1.184.529 1.184 1.184 0 .655-.529 1.183-1.184 1.183h-9.312c-12.265 0-23.227 7.772-27.278 19.331l-36.203 103.447a1.18 1.18 0 0 1-1.113.789Z" fill="#6A2EA0"/><path d="M199.423 244.955c-5.852 0-9.998-4.071-10.196-4.261a1.175 1.175 0 0 1 0-1.672 1.177 1.177 0 0 1 1.674 0c.04.039 3.554 3.456 8.324 3.566-3.806-4.119-10.669-9.728-10.748-9.792a1.269 1.269 0 0 1-.348-.465c-.323-.781-32.885-78.498-58.047-81.102a1.188 1.188 0 0 1-1.066-1.176v-7.345c0-.655.529-1.184 1.184-1.184.656 0 1.185.529 1.185 1.184v6.32c25.825 4.529 56.365 76.257 58.821 82.127 1.485 1.223 9.343 7.764 12.352 11.701a1.2 1.2 0 0 1 .166 1.137 1.196 1.196 0 0 1-.876.741c-.83.15-1.643.221-2.425.221ZM193.736 254.51c-.331 0-.663-.142-.9-.41-.276-.316-6.737-7.843-9.161-11.63a1.176 1.176 0 0 1 .363-1.633 1.178 1.178 0 0 1 1.635.363c2.33 3.645 8.9 11.282 8.964 11.361a1.186 1.186 0 0 1-.127 1.673 1.21 1.21 0 0 1-.774.276ZM197.607 252.68c-.34 0-.68-.143-.909-.427l-5.773-6.943a1.18 1.18 0 0 1 .158-1.665 1.182 1.182 0 0 1 1.667.158l5.773 6.943a1.18 1.18 0 0 1-.916 1.934Z" fill="#6A2EA0"/><path d="M201.76 251.338a1.16 1.16 0 0 1-.908-.426l-5.726-6.888a1.18 1.18 0 0 1 .158-1.665 1.182 1.182 0 0 1 1.667.158l5.725 6.888a1.179 1.179 0 0 1-.916 1.933ZM251.191 261.848c-13.686 0-24.822-11.125-24.822-24.799 0-13.673 11.136-24.798 24.822-24.798 13.687 0 24.823 11.125 24.823 24.798 0 13.674-11.136 24.799-24.823 24.799Zm0-47.23c-12.375 0-22.453 10.06-22.453 22.431 0 12.364 10.07 22.432 22.453 22.432 12.376 0 22.453-10.06 22.453-22.432 0-12.363-10.069-22.431-22.453-22.431ZM110.479 382.574h-33.69a1.183 1.183 0 0 1-1.186-1.184v-20.885c0-.655.53-1.183 1.177-1.183l10.899-.056c.308 0 .616.127.845.348.221.221.347.52.347.836v8.048c1.47.639 5.474 2.138 11.31 2.351 8.608.308 11.333 9.823 11.444 10.226.094.355.023.741-.198 1.033a1.193 1.193 0 0 1-.948.466Zm-32.506-2.367h30.801a16.128 16.128 0 0 0-1.541-2.77c-1.903-2.698-4.304-4.126-7.139-4.221-8.024-.284-12.778-2.817-12.976-2.927a1.186 1.186 0 0 1-.616-1.042v-7.613l-8.53.039v18.534ZM197.015 382.574h-33.692a1.183 1.183 0 0 1-1.184-1.184v-20.885a1.18 1.18 0 0 1 1.176-1.183l10.899-.056c.316 0 .616.127.845.348.221.221.348.52.348.836v8.048c1.469.639 5.473 2.138 11.309 2.351 8.608.308 11.333 9.823 11.444 10.226.095.355.023.741-.198 1.033a1.193 1.193 0 0 1-.947.466Zm-32.499-2.367h30.801a16.115 16.115 0 0 0-1.54-2.77c-1.904-2.698-4.305-4.126-7.14-4.221-8.024-.284-12.778-2.817-12.976-2.927a1.186 1.186 0 0 1-.616-1.042v-7.613l-8.529.039v18.534ZM204.541 160.673a1.14 1.14 0 0 1-.395-.071 1.185 1.185 0 0 1-.727-1.507l20.479-58.173a1.186 1.186 0 0 1 1.508-.726c.616.213.94.892.727 1.507l-20.479 58.173c-.166.49-.624.797-1.113.797ZM220.02 160.673c-.134 0-.261-.023-.395-.071a1.184 1.184 0 0 1-.726-1.507l20.478-58.173a1.19 1.19 0 0 1 1.509-.726c.616.213.939.892.726 1.507l-20.478 58.173c-.166.49-.624.797-1.114.797ZM235.5 160.673a1.14 1.14 0 0 1-.395-.071 1.185 1.185 0 0 1-.727-1.507l20.479-58.173a1.189 1.189 0 0 1 1.508-.726c.616.213.94.892.727 1.507l-20.479 58.173c-.166.49-.624.797-1.113.797ZM250.979 160.673c-.134 0-.261-.023-.395-.071a1.184 1.184 0 0 1-.726-1.507l20.478-58.173a1.186 1.186 0 0 1 1.509-.726c.616.213.939.892.726 1.507l-20.478 58.173c-.166.49-.624.797-1.114.797ZM266.466 160.673a1.15 1.15 0 0 1-.395-.071 1.185 1.185 0 0 1-.726-1.507l20.478-58.173a1.184 1.184 0 0 1 2.235.781l-20.478 58.173a1.19 1.19 0 0 1-1.114.797Z" fill="#6A2EA0"/><path d="M281.819 160.666h-77.27a1.183 1.183 0 1 1 0-2.367h77.27a1.183 1.183 0 1 1 0 2.367ZM286.944 146.069h-77.262a1.183 1.183 0 1 1 0-2.367h77.254c.656 0 1.185.529 1.185 1.183 0 .655-.529 1.184-1.177 1.184ZM291.762 131.472h-76.11a1.183 1.183 0 1 1 0-2.367h76.11a1.183 1.183 0 1 1 0 2.367ZM297.235 116.876h-77.27a1.183 1.183 0 1 1 0-2.367h77.27c.656 0 1.185.528 1.185 1.183s-.537 1.184-1.185 1.184ZM302.298 102.271h-77.271a1.182 1.182 0 1 1 0-2.367h77.271a1.183 1.183 0 1 1 0 2.367ZM220.043 90.53c-.347 0-.679-.15-.916-.425l-27.792-33.588a1.174 1.174 0 0 1-.237-1.026c.087-.363.332-.663.672-.813l21.513-9.539c.339-.15.726-.134 1.05.047.324.182.545.498.6.868l6.279 43.127a1.181 1.181 0 0 1-.695 1.255 1.182 1.182 0 0 1-.474.095Zm-25.88-34.321 24.103 29.13-5.449-37.399-18.654 8.269ZM273.653 178.923c-5.047 0-9.375-1.444-9.627-1.538a1.182 1.182 0 0 1-.735-1.5 1.194 1.194 0 0 1 1.501-.741c.087.031 8.379 2.793 14.831.481a1.184 1.184 0 1 1 .806 2.225c-2.219.797-4.565 1.073-6.776 1.073ZM100.805 351.274H76.788a1.183 1.183 0 1 1 0-2.367h24.017a1.183 1.183 0 1 1 0 2.367ZM183.169 351.274h-28.092a1.183 1.183 0 1 1 0-2.367h28.092a1.183 1.183 0 1 1 0 2.367ZM119.388 186.024c-5.654 0-10.464-1.822-10.725-1.925a1.185 1.185 0 1 1 .853-2.209c.071.031 7.487 2.824 14.248 1.31a1.184 1.184 0 0 1 1.413.891c.143.639-.26 1.27-.9 1.412-1.643.379-3.301.521-4.889.521Z" fill="#6A2EA0"/><defs><linearGradient id="a" x1="341.697" y1="59.234" x2="56.599" y2="344.606" gradientUnits="userSpaceOnUse"><stop stop-color="#FF4C84"/><stop offset=".162" stop-color="#C064AF"/><stop offset=".338" stop-color="#827CDA"/><stop offset=".468" stop-color="#5B8BF5"/><stop offset=".535" stop-color="#4C90FF"/><stop offset="1" stop-color="#FF4C84"/></linearGradient></defs></svg>