<svg width="270" height="270" viewBox="0 0 270 270" fill="none" xmlns="http://www.w3.org/2000/svg">
<path d="M177.696 70.5961C178.69 70.5961 179.496 69.7902 179.496 68.7961C179.496 67.802 178.69 66.9961 177.696 66.9961C176.702 66.9961 175.896 67.802 175.896 68.7961C175.896 69.7902 176.702 70.5961 177.696 70.5961Z" fill="#D7DFFE"/>
<path d="M134.496 70.5961C135.49 70.5961 136.296 69.7902 136.296 68.7961C136.296 67.802 135.49 66.9961 134.496 66.9961C133.502 66.9961 132.696 67.802 132.696 68.7961C132.696 69.7902 133.502 70.5961 134.496 70.5961Z" fill="#D7DFFE"/>
<path d="M91.2961 70.5961C92.2902 70.5961 93.0961 69.7902 93.0961 68.7961C93.0961 67.802 92.2902 66.9961 91.2961 66.9961C90.302 66.9961 89.4961 67.802 89.4961 68.7961C89.4961 69.7902 90.302 70.5961 91.2961 70.5961Z" fill="#D7DFFE"/>
<path d="M177.696 113.796C178.69 113.796 179.496 112.99 179.496 111.996C179.496 111.002 178.69 110.196 177.696 110.196C176.702 110.196 175.896 111.002 175.896 111.996C175.896 112.99 176.702 113.796 177.696 113.796Z" fill="#D7DFFE"/>
<path d="M177.696 178.596C178.69 178.596 179.496 177.79 179.496 176.796C179.496 175.802 178.69 174.996 177.696 174.996C176.702 174.996 175.896 175.802 175.896 176.796C175.896 177.79 176.702 178.596 177.696 178.596Z" fill="#D7DFFE"/>
<path d="M134.496 113.796C135.49 113.796 136.296 112.99 136.296 111.996C136.296 111.002 135.49 110.196 134.496 110.196C133.502 110.196 132.696 111.002 132.696 111.996C132.696 112.99 133.502 113.796 134.496 113.796Z" fill="#D7DFFE"/>
<path d="M91.2961 113.796C92.2902 113.796 93.0961 112.99 93.0961 111.996C93.0961 111.002 92.2902 110.196 91.2961 110.196C90.302 110.196 89.4961 111.002 89.4961 111.996C89.4961 112.99 90.302 113.796 91.2961 113.796Z" fill="#D7DFFE"/>
<path d="M134.496 178.596C135.49 178.596 136.296 177.79 136.296 176.796C136.296 175.802 135.49 174.996 134.496 174.996C133.502 174.996 132.696 175.802 132.696 176.796C132.696 177.79 133.502 178.596 134.496 178.596Z" fill="#D7DFFE"/>
<path d="M91.2961 178.596C92.2902 178.596 93.0961 177.79 93.0961 176.796C93.0961 175.802 92.2902 174.996 91.2961 174.996C90.302 174.996 89.4961 175.802 89.4961 176.796C89.4961 177.79 90.302 178.596 91.2961 178.596Z" fill="#D7DFFE"/>
<path d="M156.096 70.5961C157.09 70.5961 157.896 69.7902 157.896 68.7961C157.896 67.802 157.09 66.9961 156.096 66.9961C155.102 66.9961 154.296 67.802 154.296 68.7961C154.296 69.7902 155.102 70.5961 156.096 70.5961Z" fill="#D7DFFE"/>
<path d="M112.896 70.5961C113.89 70.5961 114.696 69.7902 114.696 68.7961C114.696 67.802 113.89 66.9961 112.896 66.9961C111.902 66.9961 111.096 67.802 111.096 68.7961C111.096 69.7902 111.902 70.5961 112.896 70.5961Z" fill="#D7DFFE"/>
<path d="M69.696 70.5961C70.6901 70.5961 71.496 69.7902 71.496 68.7961C71.496 67.802 70.6901 66.9961 69.696 66.9961C68.7019 66.9961 67.896 67.802 67.896 68.7961C67.896 69.7902 68.7019 70.5961 69.696 70.5961Z" fill="#D7DFFE"/>
<path d="M156.096 113.796C157.09 113.796 157.896 112.99 157.896 111.996C157.896 111.002 157.09 110.196 156.096 110.196C155.102 110.196 154.296 111.002 154.296 111.996C154.296 112.99 155.102 113.796 156.096 113.796Z" fill="#D7DFFE"/>
<path d="M156.096 178.596C157.09 178.596 157.896 177.79 157.896 176.796C157.896 175.802 157.09 174.996 156.096 174.996C155.102 174.996 154.296 175.802 154.296 176.796C154.296 177.79 155.102 178.596 156.096 178.596Z" fill="#D7DFFE"/>
<path d="M112.896 113.796C113.89 113.796 114.696 112.99 114.696 111.996C114.696 111.002 113.89 110.196 112.896 110.196C111.902 110.196 111.096 111.002 111.096 111.996C111.096 112.99 111.902 113.796 112.896 113.796Z" fill="#D7DFFE"/>
<path d="M69.696 113.796C70.6901 113.796 71.496 112.99 71.496 111.996C71.496 111.002 70.6901 110.196 69.696 110.196C68.7019 110.196 67.896 111.002 67.896 111.996C67.896 112.99 68.7019 113.796 69.696 113.796Z" fill="#D7DFFE"/>
<path d="M112.896 178.596C113.89 178.596 114.696 177.79 114.696 176.796C114.696 175.802 113.89 174.996 112.896 174.996C111.902 174.996 111.096 175.802 111.096 176.796C111.096 177.79 111.902 178.596 112.896 178.596Z" fill="#D7DFFE"/>
<path d="M69.696 178.596C70.6901 178.596 71.496 177.79 71.496 176.796C71.496 175.802 70.6901 174.996 69.696 174.996C68.7019 174.996 67.896 175.802 67.896 176.796C67.896 177.79 68.7019 178.596 69.696 178.596Z" fill="#D7DFFE"/>
<path d="M177.696 92.1959C178.69 92.1959 179.496 91.3901 179.496 90.3959C179.496 89.4018 178.69 88.5959 177.696 88.5959C176.702 88.5959 175.896 89.4018 175.896 90.3959C175.896 91.3901 176.702 92.1959 177.696 92.1959Z" fill="#D7DFFE"/>
<path d="M177.696 156.996C178.69 156.996 179.496 156.19 179.496 155.196C179.496 154.202 178.69 153.396 177.696 153.396C176.702 153.396 175.896 154.202 175.896 155.196C175.896 156.19 176.702 156.996 177.696 156.996Z" fill="#D7DFFE"/>
<path d="M134.496 92.1959C135.49 92.1959 136.296 91.3901 136.296 90.3959C136.296 89.4018 135.49 88.5959 134.496 88.5959C133.502 88.5959 132.696 89.4018 132.696 90.3959C132.696 91.3901 133.502 92.1959 134.496 92.1959Z" fill="#D7DFFE"/>
<path d="M91.2961 92.1959C92.2902 92.1959 93.0961 91.3901 93.0961 90.3959C93.0961 89.4018 92.2902 88.5959 91.2961 88.5959C90.302 88.5959 89.4961 89.4018 89.4961 90.3959C89.4961 91.3901 90.302 92.1959 91.2961 92.1959Z" fill="#D7DFFE"/>
<path d="M134.496 156.996C135.49 156.996 136.296 156.19 136.296 155.196C136.296 154.202 135.49 153.396 134.496 153.396C133.502 153.396 132.696 154.202 132.696 155.196C132.696 156.19 133.502 156.996 134.496 156.996Z" fill="#D7DFFE"/>
<path d="M91.2961 156.996C92.2902 156.996 93.0961 156.19 93.0961 155.196C93.0961 154.202 92.2902 153.396 91.2961 153.396C90.302 153.396 89.4961 154.202 89.4961 155.196C89.4961 156.19 90.302 156.996 91.2961 156.996Z" fill="#D7DFFE"/>
<path d="M177.696 135.396C178.69 135.396 179.496 134.59 179.496 133.596C179.496 132.602 178.69 131.796 177.696 131.796C176.702 131.796 175.896 132.602 175.896 133.596C175.896 134.59 176.702 135.396 177.696 135.396Z" fill="#D7DFFE"/>
<path d="M177.696 200.196C178.69 200.196 179.496 199.39 179.496 198.396C179.496 197.402 178.69 196.596 177.696 196.596C176.702 196.596 175.896 197.402 175.896 198.396C175.896 199.39 176.702 200.196 177.696 200.196Z" fill="#D7DFFE"/>
<path d="M134.496 135.396C135.49 135.396 136.296 134.59 136.296 133.596C136.296 132.602 135.49 131.796 134.496 131.796C133.502 131.796 132.696 132.602 132.696 133.596C132.696 134.59 133.502 135.396 134.496 135.396Z" fill="#D7DFFE"/>
<path d="M91.2961 135.396C92.2902 135.396 93.0961 134.59 93.0961 133.596C93.0961 132.602 92.2902 131.796 91.2961 131.796C90.302 131.796 89.4961 132.602 89.4961 133.596C89.4961 134.59 90.302 135.396 91.2961 135.396Z" fill="#D7DFFE"/>
<path d="M134.496 200.196C135.49 200.196 136.296 199.39 136.296 198.396C136.296 197.402 135.49 196.596 134.496 196.596C133.502 196.596 132.696 197.402 132.696 198.396C132.696 199.39 133.502 200.196 134.496 200.196Z" fill="#D7DFFE"/>
<path d="M91.2961 200.196C92.2902 200.196 93.0961 199.39 93.0961 198.396C93.0961 197.402 92.2902 196.596 91.2961 196.596C90.302 196.596 89.4961 197.402 89.4961 198.396C89.4961 199.39 90.302 200.196 91.2961 200.196Z" fill="#D7DFFE"/>
<path d="M156.096 92.1959C157.09 92.1959 157.896 91.3901 157.896 90.3959C157.896 89.4018 157.09 88.5959 156.096 88.5959C155.102 88.5959 154.296 89.4018 154.296 90.3959C154.296 91.3901 155.102 92.1959 156.096 92.1959Z" fill="#D7DFFE"/>
<path d="M156.096 156.996C157.09 156.996 157.896 156.19 157.896 155.196C157.896 154.202 157.09 153.396 156.096 153.396C155.102 153.396 154.296 154.202 154.296 155.196C154.296 156.19 155.102 156.996 156.096 156.996Z" fill="#D7DFFE"/>
<path d="M112.896 92.1959C113.89 92.1959 114.696 91.3901 114.696 90.3959C114.696 89.4018 113.89 88.5959 112.896 88.5959C111.902 88.5959 111.096 89.4018 111.096 90.3959C111.096 91.3901 111.902 92.1959 112.896 92.1959Z" fill="#D7DFFE"/>
<path d="M69.696 92.1959C70.6901 92.1959 71.496 91.3901 71.496 90.3959C71.496 89.4018 70.6901 88.5959 69.696 88.5959C68.7019 88.5959 67.896 89.4018 67.896 90.3959C67.896 91.3901 68.7019 92.1959 69.696 92.1959Z" fill="#D7DFFE"/>
<path d="M112.896 156.996C113.89 156.996 114.696 156.19 114.696 155.196C114.696 154.202 113.89 153.396 112.896 153.396C111.902 153.396 111.096 154.202 111.096 155.196C111.096 156.19 111.902 156.996 112.896 156.996Z" fill="#D7DFFE"/>
<path d="M69.696 156.996C70.6901 156.996 71.496 156.19 71.496 155.196C71.496 154.202 70.6901 153.396 69.696 153.396C68.7019 153.396 67.896 154.202 67.896 155.196C67.896 156.19 68.7019 156.996 69.696 156.996Z" fill="#D7DFFE"/>
<path d="M156.096 135.396C157.09 135.396 157.896 134.59 157.896 133.596C157.896 132.602 157.09 131.796 156.096 131.796C155.102 131.796 154.296 132.602 154.296 133.596C154.296 134.59 155.102 135.396 156.096 135.396Z" fill="#D7DFFE"/>
<path d="M156.096 200.196C157.09 200.196 157.896 199.39 157.896 198.396C157.896 197.402 157.09 196.596 156.096 196.596C155.102 196.596 154.296 197.402 154.296 198.396C154.296 199.39 155.102 200.196 156.096 200.196Z" fill="#D7DFFE"/>
<path d="M112.896 135.396C113.89 135.396 114.696 134.59 114.696 133.596C114.696 132.602 113.89 131.796 112.896 131.796C111.902 131.796 111.096 132.602 111.096 133.596C111.096 134.59 111.902 135.396 112.896 135.396Z" fill="#D7DFFE"/>
<path d="M69.696 135.396C70.6901 135.396 71.496 134.59 71.496 133.596C71.496 132.602 70.6901 131.796 69.696 131.796C68.7019 131.796 67.896 132.602 67.896 133.596C67.896 134.59 68.7019 135.396 69.696 135.396Z" fill="#D7DFFE"/>
<path d="M112.896 200.196C113.89 200.196 114.696 199.39 114.696 198.396C114.696 197.402 113.89 196.596 112.896 196.596C111.902 196.596 111.096 197.402 111.096 198.396C111.096 199.39 111.902 200.196 112.896 200.196Z" fill="#D7DFFE"/>
<path d="M69.696 200.196C70.6901 200.196 71.496 199.39 71.496 198.396C71.496 197.402 70.6901 196.596 69.696 196.596C68.7019 196.596 67.896 197.402 67.896 198.396C67.896 199.39 68.7019 200.196 69.696 200.196Z" fill="#D7DFFE"/>
<path d="M199.296 70.5961C200.29 70.5961 201.096 69.7902 201.096 68.7961C201.096 67.802 200.29 66.9961 199.296 66.9961C198.302 66.9961 197.496 67.802 197.496 68.7961C197.496 69.7902 198.302 70.5961 199.296 70.5961Z" fill="#D7DFFE"/>
<path d="M199.296 113.796C200.29 113.796 201.096 112.99 201.096 111.996C201.096 111.002 200.29 110.196 199.296 110.196C198.302 110.196 197.496 111.002 197.496 111.996C197.496 112.99 198.302 113.796 199.296 113.796Z" fill="#D7DFFE"/>
<path d="M199.296 178.596C200.29 178.596 201.096 177.79 201.096 176.796C201.096 175.802 200.29 174.996 199.296 174.996C198.302 174.996 197.496 175.802 197.496 176.796C197.496 177.79 198.302 178.596 199.296 178.596Z" fill="#D7DFFE"/>
<path d="M199.296 92.1959C200.29 92.1959 201.096 91.3901 201.096 90.3959C201.096 89.4018 200.29 88.5959 199.296 88.5959C198.302 88.5959 197.496 89.4018 197.496 90.3959C197.496 91.3901 198.302 92.1959 199.296 92.1959Z" fill="#D7DFFE"/>
<path d="M199.296 156.996C200.29 156.996 201.096 156.19 201.096 155.196C201.096 154.202 200.29 153.396 199.296 153.396C198.302 153.396 197.496 154.202 197.496 155.196C197.496 156.19 198.302 156.996 199.296 156.996Z" fill="#D7DFFE"/>
<path d="M199.296 135.396C200.29 135.396 201.096 134.59 201.096 133.596C201.096 132.602 200.29 131.796 199.296 131.796C198.302 131.796 197.496 132.602 197.496 133.596C197.496 134.59 198.302 135.396 199.296 135.396Z" fill="#D7DFFE"/>
<path d="M199.296 200.196C200.29 200.196 201.096 199.39 201.096 198.396C201.096 197.402 200.29 196.596 199.296 196.596C198.302 196.596 197.496 197.402 197.496 198.396C197.496 199.39 198.302 200.196 199.296 200.196Z" fill="#D7DFFE"/>
<path d="M177.696 221.796C178.69 221.796 179.496 220.99 179.496 219.996C179.496 219.002 178.69 218.196 177.696 218.196C176.702 218.196 175.896 219.002 175.896 219.996C175.896 220.99 176.702 221.796 177.696 221.796Z" fill="#D7DFFE"/>
<path d="M134.496 221.796C135.49 221.796 136.296 220.99 136.296 219.996C136.296 219.002 135.49 218.196 134.496 218.196C133.502 218.196 132.696 219.002 132.696 219.996C132.696 220.99 133.502 221.796 134.496 221.796Z" fill="#D7DFFE"/>
<path d="M91.2961 221.796C92.2902 221.796 93.0961 220.99 93.0961 219.996C93.0961 219.002 92.2902 218.196 91.2961 218.196C90.302 218.196 89.4961 219.002 89.4961 219.996C89.4961 220.99 90.302 221.796 91.2961 221.796Z" fill="#D7DFFE"/>
<path d="M156.096 221.796C157.09 221.796 157.896 220.99 157.896 219.996C157.896 219.002 157.09 218.196 156.096 218.196C155.102 218.196 154.296 219.002 154.296 219.996C154.296 220.99 155.102 221.796 156.096 221.796Z" fill="#D7DFFE"/>
<path d="M112.896 221.796C113.89 221.796 114.696 220.99 114.696 219.996C114.696 219.002 113.89 218.196 112.896 218.196C111.902 218.196 111.096 219.002 111.096 219.996C111.096 220.99 111.902 221.796 112.896 221.796Z" fill="#D7DFFE"/>
<path d="M69.696 221.796C70.6901 221.796 71.496 220.99 71.496 219.996C71.496 219.002 70.6901 218.196 69.696 218.196C68.7019 218.196 67.896 219.002 67.896 219.996C67.896 220.99 68.7019 221.796 69.696 221.796Z" fill="#D7DFFE"/>
<path d="M199.296 221.796C200.29 221.796 201.096 220.99 201.096 219.996C201.096 219.002 200.29 218.196 199.296 218.196C198.302 218.196 197.496 219.002 197.496 219.996C197.496 220.99 198.302 221.796 199.296 221.796Z" fill="#D7DFFE"/>
<path d="M177.696 27.3961C178.69 27.3961 179.496 26.5903 179.496 25.5961C179.496 24.602 178.69 23.7961 177.696 23.7961C176.702 23.7961 175.896 24.602 175.896 25.5961C175.896 26.5903 176.702 27.3961 177.696 27.3961Z" fill="#D7DFFE"/>
<path d="M134.496 27.3961C135.49 27.3961 136.296 26.5903 136.296 25.5961C136.296 24.602 135.49 23.7961 134.496 23.7961C133.502 23.7961 132.696 24.602 132.696 25.5961C132.696 26.5903 133.502 27.3961 134.496 27.3961Z" fill="#D7DFFE"/>
<path d="M91.2961 27.3961C92.2902 27.3961 93.0961 26.5903 93.0961 25.5961C93.0961 24.602 92.2902 23.7961 91.2961 23.7961C90.302 23.7961 89.4961 24.602 89.4961 25.5961C89.4961 26.5903 90.302 27.3961 91.2961 27.3961Z" fill="#D7DFFE"/>
<path d="M156.096 27.3961C157.09 27.3961 157.896 26.5903 157.896 25.5961C157.896 24.602 157.09 23.7961 156.096 23.7961C155.102 23.7961 154.296 24.602 154.296 25.5961C154.296 26.5903 155.102 27.3961 156.096 27.3961Z" fill="#D7DFFE"/>
<path d="M112.896 27.3961C113.89 27.3961 114.696 26.5903 114.696 25.5961C114.696 24.602 113.89 23.7961 112.896 23.7961C111.902 23.7961 111.096 24.602 111.096 25.5961C111.096 26.5903 111.902 27.3961 112.896 27.3961Z" fill="#D7DFFE"/>
<path d="M69.696 27.3961C70.6901 27.3961 71.496 26.5903 71.496 25.5961C71.496 24.602 70.6901 23.7961 69.696 23.7961C68.7019 23.7961 67.896 24.602 67.896 25.5961C67.896 26.5903 68.7019 27.3961 69.696 27.3961Z" fill="#D7DFFE"/>
<path d="M177.696 5.79604C178.69 5.79604 179.496 4.99016 179.496 3.99604C179.496 3.00193 178.69 2.19604 177.696 2.19604C176.702 2.19604 175.896 3.00193 175.896 3.99604C175.896 4.99016 176.702 5.79604 177.696 5.79604Z" fill="#D7DFFE"/>
<path d="M134.496 5.79604C135.49 5.79604 136.296 4.99016 136.296 3.99604C136.296 3.00193 135.49 2.19604 134.496 2.19604C133.502 2.19604 132.696 3.00193 132.696 3.99604C132.696 4.99016 133.502 5.79604 134.496 5.79604Z" fill="#D7DFFE"/>
<path d="M91.2961 5.79604C92.2902 5.79604 93.0961 4.99016 93.0961 3.99604C93.0961 3.00193 92.2902 2.19604 91.2961 2.19604C90.302 2.19604 89.4961 3.00193 89.4961 3.99604C89.4961 4.99016 90.302 5.79604 91.2961 5.79604Z" fill="#D7DFFE"/>
<path d="M177.696 48.996C178.69 48.996 179.496 48.1901 179.496 47.196C179.496 46.2019 178.69 45.396 177.696 45.396C176.702 45.396 175.896 46.2019 175.896 47.196C175.896 48.1901 176.702 48.996 177.696 48.996Z" fill="#D7DFFE"/>
<path d="M134.496 48.996C135.49 48.996 136.296 48.1901 136.296 47.196C136.296 46.2019 135.49 45.396 134.496 45.396C133.502 45.396 132.696 46.2019 132.696 47.196C132.696 48.1901 133.502 48.996 134.496 48.996Z" fill="#D7DFFE"/>
<path d="M91.2961 48.996C92.2902 48.996 93.0961 48.1901 93.0961 47.196C93.0961 46.2019 92.2902 45.396 91.2961 45.396C90.302 45.396 89.4961 46.2019 89.4961 47.196C89.4961 48.1901 90.302 48.996 91.2961 48.996Z" fill="#D7DFFE"/>
<path d="M156.096 5.79604C157.09 5.79604 157.896 4.99016 157.896 3.99604C157.896 3.00193 157.09 2.19604 156.096 2.19604C155.102 2.19604 154.296 3.00193 154.296 3.99604C154.296 4.99016 155.102 5.79604 156.096 5.79604Z" fill="#D7DFFE"/>
<path d="M112.896 5.79604C113.89 5.79604 114.696 4.99016 114.696 3.99604C114.696 3.00193 113.89 2.19604 112.896 2.19604C111.902 2.19604 111.096 3.00193 111.096 3.99604C111.096 4.99016 111.902 5.79604 112.896 5.79604Z" fill="#D7DFFE"/>
<path d="M69.696 5.79604C70.6901 5.79604 71.496 4.99016 71.496 3.99604C71.496 3.00193 70.6901 2.19604 69.696 2.19604C68.7019 2.19604 67.896 3.00193 67.896 3.99604C67.896 4.99016 68.7019 5.79604 69.696 5.79604Z" fill="#D7DFFE"/>
<path d="M156.096 48.996C157.09 48.996 157.896 48.1901 157.896 47.196C157.896 46.2019 157.09 45.396 156.096 45.396C155.102 45.396 154.296 46.2019 154.296 47.196C154.296 48.1901 155.102 48.996 156.096 48.996Z" fill="#D7DFFE"/>
<path d="M112.896 48.996C113.89 48.996 114.696 48.1901 114.696 47.196C114.696 46.2019 113.89 45.396 112.896 45.396C111.902 45.396 111.096 46.2019 111.096 47.196C111.096 48.1901 111.902 48.996 112.896 48.996Z" fill="#D7DFFE"/>
<path d="M69.696 48.996C70.6901 48.996 71.496 48.1901 71.496 47.196C71.496 46.2019 70.6901 45.396 69.696 45.396C68.7019 45.396 67.896 46.2019 67.896 47.196C67.896 48.1901 68.7019 48.996 69.696 48.996Z" fill="#D7DFFE"/>
<path d="M199.296 27.3961C200.29 27.3961 201.096 26.5903 201.096 25.5961C201.096 24.602 200.29 23.7961 199.296 23.7961C198.302 23.7961 197.496 24.602 197.496 25.5961C197.496 26.5903 198.302 27.3961 199.296 27.3961Z" fill="#D7DFFE"/>
<path d="M199.296 5.79604C200.29 5.79604 201.096 4.99016 201.096 3.99604C201.096 3.00193 200.29 2.19604 199.296 2.19604C198.302 2.19604 197.496 3.00193 197.496 3.99604C197.496 4.99016 198.302 5.79604 199.296 5.79604Z" fill="#D7DFFE"/>
<path d="M199.296 48.996C200.29 48.996 201.096 48.1901 201.096 47.196C201.096 46.2019 200.29 45.396 199.296 45.396C198.302 45.396 197.496 46.2019 197.496 47.196C197.496 48.1901 198.302 48.996 199.296 48.996Z" fill="#D7DFFE"/>
<path d="M264.195 70.5961C265.189 70.5961 265.995 69.7902 265.995 68.7961C265.995 67.802 265.189 66.9961 264.195 66.9961C263.201 66.9961 262.395 67.802 262.395 68.7961C262.395 69.7902 263.201 70.5961 264.195 70.5961Z" fill="#D7DFFE"/>
<path d="M220.995 70.5961C221.989 70.5961 222.795 69.7902 222.795 68.7961C222.795 67.802 221.989 66.9961 220.995 66.9961C220.001 66.9961 219.195 67.802 219.195 68.7961C219.195 69.7902 220.001 70.5961 220.995 70.5961Z" fill="#D7DFFE"/>
<path d="M264.195 113.796C265.189 113.796 265.995 112.99 265.995 111.996C265.995 111.002 265.189 110.196 264.195 110.196C263.201 110.196 262.395 111.002 262.395 111.996C262.395 112.99 263.201 113.796 264.195 113.796Z" fill="#D7DFFE"/>
<path d="M220.995 113.796C221.989 113.796 222.795 112.99 222.795 111.996C222.795 111.002 221.989 110.196 220.995 110.196C220.001 110.196 219.195 111.002 219.195 111.996C219.195 112.99 220.001 113.796 220.995 113.796Z" fill="#D7DFFE"/>
<path d="M264.195 178.596C265.189 178.596 265.995 177.79 265.995 176.796C265.995 175.802 265.189 174.996 264.195 174.996C263.201 174.996 262.395 175.802 262.395 176.796C262.395 177.79 263.201 178.596 264.195 178.596Z" fill="#D7DFFE"/>
<path d="M220.995 178.596C221.989 178.596 222.795 177.79 222.795 176.796C222.795 175.802 221.989 174.996 220.995 174.996C220.001 174.996 219.195 175.802 219.195 176.796C219.195 177.79 220.001 178.596 220.995 178.596Z" fill="#D7DFFE"/>
<path d="M242.595 70.5961C243.589 70.5961 244.395 69.7902 244.395 68.7961C244.395 67.802 243.589 66.9961 242.595 66.9961C241.601 66.9961 240.795 67.802 240.795 68.7961C240.795 69.7902 241.601 70.5961 242.595 70.5961Z" fill="#D7DFFE"/>
<path d="M242.595 113.796C243.589 113.796 244.395 112.99 244.395 111.996C244.395 111.002 243.589 110.196 242.595 110.196C241.601 110.196 240.795 111.002 240.795 111.996C240.795 112.99 241.601 113.796 242.595 113.796Z" fill="#D7DFFE"/>
<path d="M242.595 178.596C243.589 178.596 244.395 177.79 244.395 176.796C244.395 175.802 243.589 174.996 242.595 174.996C241.601 174.996 240.795 175.802 240.795 176.796C240.795 177.79 241.601 178.596 242.595 178.596Z" fill="#D7DFFE"/>
<path d="M264.195 92.1959C265.189 92.1959 265.995 91.3901 265.995 90.3959C265.995 89.4018 265.189 88.5959 264.195 88.5959C263.201 88.5959 262.395 89.4018 262.395 90.3959C262.395 91.3901 263.201 92.1959 264.195 92.1959Z" fill="#D7DFFE"/>
<path d="M220.995 92.1959C221.989 92.1959 222.795 91.3901 222.795 90.3959C222.795 89.4018 221.989 88.5959 220.995 88.5959C220.001 88.5959 219.195 89.4018 219.195 90.3959C219.195 91.3901 220.001 92.1959 220.995 92.1959Z" fill="#D7DFFE"/>
<path d="M264.195 156.996C265.189 156.996 265.995 156.19 265.995 155.196C265.995 154.202 265.189 153.396 264.195 153.396C263.201 153.396 262.395 154.202 262.395 155.196C262.395 156.19 263.201 156.996 264.195 156.996Z" fill="#D7DFFE"/>
<path d="M220.995 156.996C221.989 156.996 222.795 156.19 222.795 155.196C222.795 154.202 221.989 153.396 220.995 153.396C220.001 153.396 219.195 154.202 219.195 155.196C219.195 156.19 220.001 156.996 220.995 156.996Z" fill="#D7DFFE"/>
<path d="M264.195 135.396C265.189 135.396 265.995 134.59 265.995 133.596C265.995 132.602 265.189 131.796 264.195 131.796C263.201 131.796 262.395 132.602 262.395 133.596C262.395 134.59 263.201 135.396 264.195 135.396Z" fill="#D7DFFE"/>
<path d="M220.995 135.396C221.989 135.396 222.795 134.59 222.795 133.596C222.795 132.602 221.989 131.796 220.995 131.796C220.001 131.796 219.195 132.602 219.195 133.596C219.195 134.59 220.001 135.396 220.995 135.396Z" fill="#D7DFFE"/>
<path d="M264.195 200.196C265.189 200.196 265.995 199.39 265.995 198.396C265.995 197.402 265.189 196.596 264.195 196.596C263.201 196.596 262.395 197.402 262.395 198.396C262.395 199.39 263.201 200.196 264.195 200.196Z" fill="#D7DFFE"/>
<path d="M220.995 200.196C221.989 200.196 222.795 199.39 222.795 198.396C222.795 197.402 221.989 196.596 220.995 196.596C220.001 196.596 219.195 197.402 219.195 198.396C219.195 199.39 220.001 200.196 220.995 200.196Z" fill="#D7DFFE"/>
<path d="M242.595 92.1959C243.589 92.1959 244.395 91.3901 244.395 90.3959C244.395 89.4018 243.589 88.5959 242.595 88.5959C241.601 88.5959 240.795 89.4018 240.795 90.3959C240.795 91.3901 241.601 92.1959 242.595 92.1959Z" fill="#D7DFFE"/>
<path d="M242.595 156.996C243.589 156.996 244.395 156.19 244.395 155.196C244.395 154.202 243.589 153.396 242.595 153.396C241.601 153.396 240.795 154.202 240.795 155.196C240.795 156.19 241.601 156.996 242.595 156.996Z" fill="#D7DFFE"/>
<path d="M242.595 135.396C243.589 135.396 244.395 134.59 244.395 133.596C244.395 132.602 243.589 131.796 242.595 131.796C241.601 131.796 240.795 132.602 240.795 133.596C240.795 134.59 241.601 135.396 242.595 135.396Z" fill="#D7DFFE"/>
<path d="M242.595 200.196C243.589 200.196 244.395 199.39 244.395 198.396C244.395 197.402 243.589 196.596 242.595 196.596C241.601 196.596 240.795 197.402 240.795 198.396C240.795 199.39 241.601 200.196 242.595 200.196Z" fill="#D7DFFE"/>
<path d="M264.195 221.796C265.189 221.796 265.995 220.99 265.995 219.996C265.995 219.002 265.189 218.196 264.195 218.196C263.201 218.196 262.395 219.002 262.395 219.996C262.395 220.99 263.201 221.796 264.195 221.796Z" fill="#D7DFFE"/>
<path d="M220.995 221.796C221.989 221.796 222.795 220.99 222.795 219.996C222.795 219.002 221.989 218.196 220.995 218.196C220.001 218.196 219.195 219.002 219.195 219.996C219.195 220.99 220.001 221.796 220.995 221.796Z" fill="#D7DFFE"/>
<path d="M242.595 221.796C243.589 221.796 244.395 220.99 244.395 219.996C244.395 219.002 243.589 218.196 242.595 218.196C241.601 218.196 240.795 219.002 240.795 219.996C240.795 220.99 241.601 221.796 242.595 221.796Z" fill="#D7DFFE"/>
<path d="M264.195 27.3961C265.189 27.3961 265.995 26.5903 265.995 25.5961C265.995 24.602 265.189 23.7961 264.195 23.7961C263.201 23.7961 262.395 24.602 262.395 25.5961C262.395 26.5903 263.201 27.3961 264.195 27.3961Z" fill="#D7DFFE"/>
<path d="M220.995 27.3961C221.989 27.3961 222.795 26.5903 222.795 25.5961C222.795 24.602 221.989 23.7961 220.995 23.7961C220.001 23.7961 219.195 24.602 219.195 25.5961C219.195 26.5903 220.001 27.3961 220.995 27.3961Z" fill="#D7DFFE"/>
<path d="M242.595 27.3961C243.589 27.3961 244.395 26.5903 244.395 25.5961C244.395 24.602 243.589 23.7961 242.595 23.7961C241.601 23.7961 240.795 24.602 240.795 25.5961C240.795 26.5903 241.601 27.3961 242.595 27.3961Z" fill="#D7DFFE"/>
<path d="M264.195 5.79604C265.189 5.79604 265.995 4.99016 265.995 3.99604C265.995 3.00193 265.189 2.19604 264.195 2.19604C263.201 2.19604 262.395 3.00193 262.395 3.99604C262.395 4.99016 263.201 5.79604 264.195 5.79604Z" fill="#D7DFFE"/>
<path d="M220.995 5.79604C221.989 5.79604 222.795 4.99016 222.795 3.99604C222.795 3.00193 221.989 2.19604 220.995 2.19604C220.001 2.19604 219.195 3.00193 219.195 3.99604C219.195 4.99016 220.001 5.79604 220.995 5.79604Z" fill="#D7DFFE"/>
<path d="M264.195 48.996C265.189 48.996 265.995 48.1901 265.995 47.196C265.995 46.2019 265.189 45.396 264.195 45.396C263.201 45.396 262.395 46.2019 262.395 47.196C262.395 48.1901 263.201 48.996 264.195 48.996Z" fill="#D7DFFE"/>
<path d="M220.995 48.996C221.989 48.996 222.795 48.1901 222.795 47.196C222.795 46.2019 221.989 45.396 220.995 45.396C220.001 45.396 219.195 46.2019 219.195 47.196C219.195 48.1901 220.001 48.996 220.995 48.996Z" fill="#D7DFFE"/>
<path d="M242.595 5.79604C243.589 5.79604 244.395 4.99016 244.395 3.99604C244.395 3.00193 243.589 2.19604 242.595 2.19604C241.601 2.19604 240.795 3.00193 240.795 3.99604C240.795 4.99016 241.601 5.79604 242.595 5.79604Z" fill="#D7DFFE"/>
<path d="M242.595 48.996C243.589 48.996 244.395 48.1901 244.395 47.196C244.395 46.2019 243.589 45.396 242.595 45.396C241.601 45.396 240.795 46.2019 240.795 47.196C240.795 48.1901 241.601 48.996 242.595 48.996Z" fill="#D7DFFE"/>
<path d="M69.2819 31.2301C72.2543 31.2301 74.6639 28.8205 74.6639 25.8481C74.6639 22.8757 72.2543 20.4661 69.2819 20.4661C66.3095 20.4661 63.8999 22.8757 63.8999 25.8481C63.8999 28.8205 66.3095 31.2301 69.2819 31.2301Z" fill="#3761FB"/>
<path d="M242.982 241.83C245.954 241.83 248.364 239.421 248.364 236.448C248.364 233.476 245.954 231.066 242.982 231.066C240.01 231.066 237.6 233.476 237.6 236.448C237.6 239.421 240.01 241.83 242.982 241.83Z" fill="#3761FB"/>
<path d="M185.751 44.0552V97.3982" stroke="#5E329C" stroke-width="3" stroke-linecap="round" stroke-linejoin="round"/>
<path d="M199.557 53.5142V83.5292" stroke="#5E329C" stroke-width="3" stroke-linecap="round" stroke-linejoin="round"/>
<path d="M169.2 90.6212H99.7113C94.0009 90.6212 88.5242 92.889 84.4855 96.926C80.4468 100.963 78.1767 106.439 78.1743 112.149V130.149C82.7361 132.997 86.6067 136.825 89.5053 141.355C92.4039 145.885 94.2577 151.004 94.9323 156.339L96.0573 165.213H147.303C146.556 163.019 146.176 160.718 146.178 158.4C146.178 154.502 147.247 150.677 149.27 147.344C151.292 144.011 154.19 141.297 157.648 139.496C161.106 137.696 164.992 136.878 168.882 137.133C172.772 137.388 176.518 138.704 179.712 140.94C181.962 137.255 184.964 134.087 188.523 131.643L190.71 130.149V112.149C190.708 106.443 188.442 100.972 184.409 96.9356C180.376 92.8993 174.906 90.6283 169.2 90.6212ZM213.066 64.0892H159.642L166.896 25.2002H205.785L213.066 64.0892ZM78.1743 236.7H89.8743V220.293H78.3003L78.1743 236.7ZM179.874 236.7H190.44V220.293H179.91L179.874 236.7Z" fill="url(#paint0_linear)"/>
<path d="M190.71 130.68V110.538C190.71 107.922 190.195 105.331 189.193 102.914C188.192 100.497 186.724 98.301 184.873 96.4515C183.023 94.6019 180.826 93.135 178.409 92.1346C175.991 91.1342 173.4 90.6199 170.784 90.6211H98.1001C92.8178 90.6211 87.7518 92.7195 84.0167 96.4547C80.2815 100.19 78.1831 105.256 78.1831 110.538V130.122" stroke="#5E329C" stroke-width="3" stroke-linecap="round" stroke-linejoin="round"/>
<path d="M142.569 165.186H96.0569C96.0569 165.186 93.8069 127.944 67.3919 127.944C54.1079 127.944 46.8989 137.115 46.8989 148.437C46.8977 151.129 47.4269 153.795 48.4563 156.282C49.4856 158.77 50.9949 161.03 52.898 162.934C54.8011 164.838 57.0606 166.348 59.5475 167.378C62.0344 168.409 64.7 168.939 67.3919 168.939C67.3919 168.939 80.0999 202.581 78.1739 236.7" stroke="#5E329C" stroke-width="3" stroke-linecap="round" stroke-linejoin="round"/>
<path d="M67.7879 168.939C74.1701 168.939 79.3439 163.765 79.3439 157.383C79.3439 151.001 74.1701 145.827 67.7879 145.827C61.4057 145.827 56.2319 151.001 56.2319 157.383C56.2319 163.765 61.4057 168.939 67.7879 168.939Z" stroke="#5E329C" stroke-width="3" stroke-linecap="round" stroke-linejoin="round"/>
<path d="M89.9102 197.613L90.4682 185.202C90.467 183.616 90.7783 182.046 91.3843 180.581C91.9903 179.115 92.8791 177.784 93.9999 176.662C95.1207 175.54 96.4516 174.651 97.9165 174.044C99.3813 173.436 100.951 173.124 102.537 173.124H167.238C170.441 173.124 173.514 174.397 175.779 176.662C178.044 178.927 179.316 181.999 179.316 185.202L178.758 197.613H135" stroke="#5E329C" stroke-width="3" stroke-linecap="round" stroke-linejoin="round"/>
<path d="M137.403 165.186H173.16C173.16 165.186 175.41 127.944 201.825 127.944C215.109 127.944 222.318 137.115 222.318 148.437C222.32 151.129 221.79 153.795 220.761 156.282C219.732 158.77 218.222 161.03 216.319 162.934C214.416 164.838 212.157 166.348 209.67 167.378C207.183 168.409 204.517 168.939 201.825 168.939C201.825 168.939 189.162 202.581 191.025 236.7" stroke="#5E329C" stroke-width="3" stroke-linecap="round" stroke-linejoin="round"/>
<path d="M201.429 168.939C207.811 168.939 212.985 163.765 212.985 157.383C212.985 151.001 207.811 145.827 201.429 145.827C195.047 145.827 189.873 151.001 189.873 157.383C189.873 163.765 195.047 168.939 201.429 168.939Z" stroke="#5E329C" stroke-width="3" stroke-linecap="round" stroke-linejoin="round"/>
<path d="M89.9102 220.311H191.16" stroke="#5E329C" stroke-width="3" stroke-linecap="round" stroke-linejoin="round"/>
<path d="M179.667 220.311V236.7" stroke="#5E329C" stroke-width="3" stroke-linecap="round" stroke-linejoin="round"/>
<path d="M89.6402 220.311V236.7H78.2642" stroke="#5E329C" stroke-width="3" stroke-linecap="round" stroke-linejoin="round"/>
<path d="M45.7651 236.7H133.452" stroke="#5E329C" stroke-width="3" stroke-linecap="round" stroke-linejoin="round"/>
<defs>
<linearGradient id="paint0_linear" x1="215.559" y1="30.8432" x2="92.0703" y2="244.719" gradientUnits="userSpaceOnUse">
<stop stop-color="#E64C84"/>
<stop offset="1" stop-color="#7390FC"/>
</linearGradient>
</defs>
</svg>
