<svg width="34" height="61" viewBox="0 0 34 61" fill="none" xmlns="http://www.w3.org/2000/svg">
<path d="M15.4674 0.455378L1.10351 7.4467C1.02122 7.48628 0.951792 7.54833 0.903239 7.62567C0.854686 7.70301 0.828985 7.79251 0.829102 7.88382V27.192C0.829102 27.4605 1.04713 27.678 1.31563 27.678H15.6801C15.9481 27.678 16.1661 27.4605 16.1661 27.192V0.893578C16.1659 0.811241 16.1448 0.730301 16.1048 0.658308C16.0649 0.586317 16.0073 0.525616 15.9376 0.481865C15.8678 0.438116 15.7881 0.412743 15.7059 0.40811C15.6237 0.403479 15.5417 0.419741 15.4674 0.455378Z" fill="#020350"/>
<path d="M15.4783 30.3217L1.12568 36.6756C1.03863 36.7143 0.964665 36.7774 0.912724 36.8573C0.860784 36.9372 0.833098 37.0304 0.833014 37.1256V60.3067C0.832602 60.3888 0.852741 60.4696 0.891593 60.5419C0.930445 60.6141 0.986772 60.6755 1.05544 60.7204C1.1241 60.7653 1.20292 60.7923 1.2847 60.7989C1.36648 60.8056 1.44861 60.7916 1.52361 60.7583L15.8757 54.4549C15.9634 54.4165 16.0379 54.3534 16.0903 54.2733C16.1427 54.1932 16.1705 54.0995 16.1705 54.0038V30.7777C16.1712 30.6952 16.1513 30.614 16.1125 30.5412C16.0737 30.4685 16.0173 30.4067 15.9485 30.3613C15.8797 30.316 15.8006 30.2886 15.7184 30.2817C15.6363 30.2748 15.5538 30.2885 15.4783 30.3217Z" fill="#020350"/>
<path d="M18.6646 45.4949C18.5995 45.4949 18.5351 45.482 18.475 45.4571C18.4149 45.4322 18.3602 45.3957 18.3143 45.3497C18.2683 45.3036 18.2318 45.249 18.207 45.1889C18.1821 45.1287 18.1694 45.0643 18.1694 44.9992V28.1731C18.1694 27.9003 18.3907 27.6785 18.6646 27.6785H33.0124C33.1435 27.6787 33.2692 27.7308 33.3619 27.8235C33.4547 27.9163 33.5068 28.042 33.5069 28.1731V30.6525C33.5069 38.8494 26.862 45.4949 18.6646 45.4949Z" fill="#020350"/>
<path d="M25.8382 9.28401C30.3459 9.28401 33.9997 12.9384 33.9997 17.4455C33.9997 21.9537 30.3459 25.6069 25.8382 25.6069C21.3306 25.6069 17.6768 21.9537 17.6768 17.4455C17.6768 12.9384 21.3306 9.28401 25.8382 9.28401Z" fill="#020350"/>
</svg>
