<?xml version="1.0" encoding="UTF-8" standalone="no"?>
<svg
   width="31.700001"
   height="41.599998"
   viewBox="0 0 31.700001 41.599998"
   fill="none"
   version="1.1"
   id="svg80"
   sodipodi:docname="epli.svg"
   inkscape:version="1.2 (dc2aedaf03, 2022-05-15)"
   xmlns:inkscape="http://www.inkscape.org/namespaces/inkscape"
   xmlns:sodipodi="http://sodipodi.sourceforge.net/DTD/sodipodi-0.dtd"
   xmlns="http://www.w3.org/2000/svg"
   xmlns:svg="http://www.w3.org/2000/svg">
  <defs
     id="defs84" />
  <sodipodi:namedview
     id="namedview82"
     pagecolor="#ffffff"
     bordercolor="#000000"
     borderopacity="0.25"
     inkscape:showpageshadow="2"
     inkscape:pageopacity="0.0"
     inkscape:pagecheckerboard="0"
     inkscape:deskcolor="#d1d1d1"
     showgrid="false"
     inkscape:zoom="8.9064375"
     inkscape:cx="71.858137"
     inkscape:cy="3.0315151"
     inkscape:window-width="1920"
     inkscape:window-height="1017"
     inkscape:window-x="-8"
     inkscape:window-y="-8"
     inkscape:window-maximized="1"
     inkscape:current-layer="svg80" />
  <path
     d="M 14.8,10.4 C 14.7,7.3 12.5,4.7 9.5,4 c 0,3.1 2.2,5.8 5.3,6.4 z m 2.5,0 C 20.4,9.8 22.6,7.1 22.6,4 19.5,4.6 17.3,7.3 17.3,10.4 Z M 16.4,0.1 c 0.6,1 0.8,2.2 0.8,3.3 v 0.9 c 2,-1.9 4.7,-3 7.4,-3 0.2,0.9 0.3,1.7 0.3,2.6 0,4.5 -3.3,8.3 -7.7,8.9 v 0.9 L 16,14.5 14.8,13.7 V 12.8 C 10.4,12.2 7.1,8.4 7.1,3.9 7.1,3 7.2,2.2 7.4,1.3 c 2.8,0 5.4,1 7.4,2.9 V 3.3 C 14.8,2.1 14.4,1 13.7,0 h 2.7 z"
     fill="#006f51"
     id="path76" />
  <path
     d="m 25.7,25.5 c 0.5,0.5 1.1,0.9 1.8,1.1 0.5,0.1 1.2,0.3 1.5,-1.1 0.1,-0.7 0.2,-1.3 0.1,-2 0,-4.3 -1.9,-7.7 -5.7,-8.1 -3.2,-0.4 -7.3,3.4 -10.3,6 2.3,2.8 5.6,-0.1 7.2,-1.6 0.1,0.1 4.1,4.4 5.4,5.7 z m -9.9,14.4 c -1,0.9 -2.3,1.5 -3.7,1.6 C 9.2,41.5 5.1,37.1 3.2,34 1.1,30.9 0,27.3 0,23.6 c 0,-4.9 2.4,-10 8,-10.7 2.8,-0.4 5.8,1.1 8.1,3 2.5,-1.8 5.2,-3.2 7.7,-2.8 5.6,0.7 7.9,5.7 7.9,10.6 0,3.7 -1.1,7.3 -3.2,10.4 -2,3.1 -6.1,7.5 -9,7.5 -1.4,-0.3 -2.7,-0.8 -3.7,-1.7 z M 14.1,17.4 C 12,15.9 10,15.1 8.3,15.3 c -3.9,0.5 -5.9,4 -5.9,8.3 0,3.2 1,6.4 2.8,9.1 2.1,3.3 5.5,6.4 6.9,6.4 0.7,-0.1 1.3,-0.4 1.8,-0.8 -0.9,-0.9 -1.7,-1.8 -2.5,-2.8 l 1.7,-1.8 c 2.1,2.7 5,5.3 6.3,5.3 0.9,-0.2 1.7,-0.6 2.3,-1.2 -2.3,-0.8 -5,-3.5 -6.9,-6 L 16.5,30 c 2.2,2.9 5.1,5.4 6.6,5.6 0.5,0.1 1,-0.1 1.3,-0.5 L 24.5,35 c 0,-0.1 0.1,-0.1 0.2,-0.2 0.3,-0.3 0.5,-0.6 0.8,-1 -2.3,-0.5 -5.1,-3.1 -7.2,-5.7 L 20,26.3 c 2.1,2.7 4.9,5.2 6.2,5.1 0.7,-0.1 1.2,-0.7 1.6,-1.5 0.1,-0.2 0.2,-0.4 0.2,-0.5 0,-0.1 0.1,-0.2 0.1,-0.3 -1.5,-0.1 -3,-0.8 -4.1,-1.9 -1.4,-1.3 -2.6,-2.8 -3.9,-4.2 -2.2,1.8 -5,2.7 -7.4,1.2 -1.2,-0.8 -2.2,-1.8 -3.1,-2.9 1.1,-0.9 2.7,-2.4 4.5,-3.9 z"
     fill="#b42e34"
     id="path78" />
</svg>
