<svg width="24" height="24" viewBox="0 0 24 24" fill="none" xmlns="http://www.w3.org/2000/svg">
<path d="M22.0914 10.4637C22.0818 10.4597 22.072 10.4561 22.0622 10.4527C21.9417 10.4084 21.8149 10.3665 21.6798 10.328C20.1047 9.87976 16.8348 9.87462 16.6964 9.87462H16.0063L14.646 7.59462C14.0255 6.55962 13.4438 5.99878 12.1476 5.99878C12.1475 5.99878 12.1471 5.99878 12.1469 5.99878L6.89593 5.99958C5.85648 5.99974 4.82411 6.69923 4.20166 7.82503C4.2 7.82798 4.19839 7.83092 4.19689 7.83392L3.57557 9.02299L1.23471 9.30505C1.22625 9.30607 1.21779 9.30735 1.20938 9.30885C0.463393 9.44444 0 9.99858 0 10.7551V13.6063C0 14.7674 0.973339 15.324 1.71729 15.5228C1.76721 16.8978 2.90073 18.0012 4.28775 18.0012C5.56002 18.0012 6.61886 17.0723 6.82361 15.8571H17.1997C17.4045 17.0723 18.4636 18.0012 19.7361 18.0012C21.0084 18.0012 22.0672 17.0723 22.272 15.8571H23.5714C23.8081 15.8571 24 15.6652 24 15.4285V12.933C24 12.1135 23.6554 11.0512 22.0914 10.4637ZM22.8732 12.0216L21.875 12.0218V11.6018C21.875 11.5527 21.9079 11.4454 21.9927 11.3479C22.3896 11.5244 22.6825 11.7481 22.8732 12.0216ZM15.0082 9.87462H6.43141C6.35459 9.87462 6.29973 9.8443 6.27948 9.81424C6.25045 9.77117 6.27359 9.69221 6.28913 9.65069L6.75123 8.69149C6.94232 8.30005 7.22566 8.13306 7.6987 8.13306H13.9692L15.0082 9.87462ZM0.857143 11.1331H1.2863C1.52261 11.1331 1.71488 11.3253 1.71488 11.5616V11.9992H0.857143V11.1331ZM4.28775 17.1441C3.34173 17.1441 2.57207 16.3744 2.57207 15.4284C2.57207 14.4826 3.34173 13.713 4.28775 13.713C5.23345 13.713 6.00284 14.4826 6.00284 15.4284C6.00284 16.3744 5.23345 17.1441 4.28775 17.1441ZM19.7361 17.1441C18.7901 17.1441 18.0205 16.3744 18.0205 15.4284C18.0205 14.4826 18.7901 13.713 19.7361 13.713C20.6818 13.713 21.4512 14.4826 21.4512 15.4284C21.4512 16.3744 20.6818 17.1441 19.7361 17.1441ZM23.1429 15H22.272C22.0674 13.7847 21.0085 12.8558 19.7361 12.8558C18.4634 12.8558 17.4043 13.7847 17.1996 15H6.82361C6.61896 13.7847 5.56007 12.8558 4.2877 12.8558C3.13618 12.8558 2.15898 13.6162 1.83177 14.6612C1.43191 14.5357 0.857143 14.2442 0.857143 13.6063V12.8563H2.14345C2.38013 12.8563 2.57202 12.6644 2.57202 12.4277V11.5616C2.57202 10.8527 1.99527 10.2759 1.2863 10.2759H1.05846C1.13427 10.218 1.23139 10.1775 1.35102 10.1544L3.87354 9.85046C4.02257 9.84242 4.15923 9.75676 4.23021 9.62096L4.95418 8.23539C5.42593 7.38494 6.16961 6.85678 6.89604 6.85667L12.1471 6.85587C12.1473 6.85587 12.1475 6.85587 12.1477 6.85587C12.7058 6.85587 13.0501 6.97571 13.3562 7.27587H7.69864C6.89561 7.27587 6.31768 7.62558 5.97996 8.31735L5.50982 9.29321C5.50575 9.30167 5.502 9.31019 5.49846 9.31887C5.35671 9.67014 5.38179 10.0163 5.56891 10.2937C5.75405 10.5679 6.07645 10.7317 6.43136 10.7317H16.6964C16.727 10.7317 19.5864 10.7359 21.1487 11.0785C21.0601 11.2576 21.0178 11.4418 21.0178 11.6018V12.4507C21.0178 12.5644 21.0631 12.6734 21.1435 12.7538C21.2238 12.8341 21.3328 12.8792 21.4464 12.8792C21.4465 12.8792 21.4466 12.8792 21.4467 12.8792L23.1417 12.8786C23.1422 12.8967 23.1428 12.9147 23.1428 12.933V15H23.1429Z" fill="#421C63"/>
<path d="M17.5983 12.0222H6.4315C6.19482 12.0222 6.00293 12.2141 6.00293 12.4508C6.00293 12.6875 6.19482 12.8794 6.4315 12.8794H17.5983C17.835 12.8794 18.0269 12.6875 18.0269 12.4508C18.0269 12.2141 17.835 12.0222 17.5983 12.0222Z" fill="#421C63"/>
<path d="M5.12809 14.9999C4.89141 14.9999 4.69952 15.1917 4.69952 15.4284C4.69952 15.6556 4.5148 15.8404 4.28771 15.8404C4.06052 15.8404 3.8757 15.6556 3.8757 15.4284C3.8757 15.2013 4.06052 15.0166 4.28771 15.0166C4.52439 15.0166 4.71628 14.8247 4.71628 14.588C4.71628 14.3513 4.52439 14.1594 4.28771 14.1594C3.58791 14.1594 3.01855 14.7287 3.01855 15.4284C3.01855 16.1282 3.58791 16.6976 4.28771 16.6976C4.98741 16.6976 5.55666 16.1282 5.55666 15.4284C5.55666 15.1917 5.36482 14.9999 5.12809 14.9999Z" fill="#421C63"/>
<path d="M20.5763 14.9999C20.3397 14.9999 20.1478 15.1917 20.1478 15.4284C20.1478 15.6556 19.963 15.8404 19.736 15.8404C19.5088 15.8404 19.3239 15.6556 19.3239 15.4284C19.3239 15.2013 19.5088 15.0166 19.736 15.0166C19.9726 15.0166 20.1645 14.8247 20.1645 14.588C20.1645 14.3513 19.9726 14.1594 19.736 14.1594C19.0362 14.1594 18.4668 14.7287 18.4668 15.4284C18.4668 16.1282 19.0362 16.6976 19.736 16.6976C20.4357 16.6976 21.0049 16.1282 21.0049 15.4284C21.0049 15.1917 20.8131 14.9999 20.5763 14.9999Z" fill="#421C63"/>
</svg>
