<svg width="42" height="15" viewBox="0 0 42 15" fill="none" xmlns="http://www.w3.org/2000/svg">
<path d="M40.0914 6.46374C40.0818 6.45967 40.072 6.45608 40.0622 6.45271C39.9417 6.40835 39.8149 6.36646 39.6798 6.32799C38.1047 5.87976 34.8348 5.87462 34.6964 5.87462H34.0063L32.646 3.59462C32.0255 2.55962 31.4438 1.99878 30.1476 1.99878C30.1475 1.99878 30.1471 1.99878 30.1469 1.99878L24.8959 1.99958C23.8565 1.99974 22.8241 2.69923 22.2017 3.82503C22.2 3.82798 22.1984 3.83092 22.1969 3.83392L21.5756 5.02299L19.2347 5.30505C19.2263 5.30607 19.2178 5.30735 19.2094 5.30885C18.4634 5.44444 18 5.99858 18 6.75506V9.6063C18 10.7674 18.9733 11.324 19.7173 11.5228C19.7672 12.8978 20.9007 14.0012 22.2878 14.0012C23.56 14.0012 24.6189 13.0723 24.8236 11.8571H35.1997C35.4045 13.0723 36.4636 14.0012 37.7361 14.0012C39.0084 14.0012 40.0672 13.0723 40.272 11.8571H41.5714C41.8081 11.8571 42 11.6652 42 11.4285V8.93301C42 8.11348 41.6554 7.05121 40.0914 6.46374ZM40.8732 8.0216L39.875 8.02181V7.60181C39.875 7.55274 39.9079 7.44539 39.9927 7.34794C40.3896 7.5244 40.6825 7.74812 40.8732 8.0216ZM33.0082 5.87462H24.4314C24.3546 5.87462 24.2997 5.8443 24.2795 5.81424C24.2504 5.77117 24.2736 5.69221 24.2891 5.65069L24.7512 4.69149C24.9423 4.30005 25.2257 4.13306 25.6987 4.13306H31.9692L33.0082 5.87462ZM18.8571 7.13306H19.2863C19.5226 7.13306 19.7149 7.32533 19.7149 7.56164V7.99915H18.8571V7.13306ZM22.2878 13.1441C21.3417 13.1441 20.5721 12.3744 20.5721 11.4284C20.5721 10.4826 21.3417 9.71301 22.2878 9.71301C23.2334 9.71301 24.0028 10.4826 24.0028 11.4284C24.0028 12.3744 23.2334 13.1441 22.2878 13.1441ZM37.7361 13.1441C36.7901 13.1441 36.0205 12.3744 36.0205 11.4284C36.0205 10.4826 36.7901 9.71301 37.7361 9.71301C38.6818 9.71301 39.4512 10.4826 39.4512 11.4284C39.4512 12.3744 38.6818 13.1441 37.7361 13.1441ZM41.1429 11H40.272C40.0674 9.78474 39.0085 8.85581 37.7361 8.85581C36.4634 8.85581 35.4043 9.78474 35.1996 11H24.8236C24.619 9.78474 23.5601 8.85581 22.2877 8.85581C21.1362 8.85581 20.159 9.61621 19.8318 10.6612C19.4319 10.5357 18.8571 10.2442 18.8571 9.6063V8.8563H20.1434C20.3801 8.8563 20.572 8.6644 20.572 8.42773V7.56164C20.572 6.85273 19.9953 6.27592 19.2863 6.27592H19.0585C19.1343 6.21801 19.2314 6.17746 19.351 6.15437L21.8735 5.85046C22.0226 5.84242 22.1592 5.75676 22.2302 5.62096L22.9542 4.23539C23.4259 3.38494 24.1696 2.85678 24.896 2.85667L30.1471 2.85587C30.1473 2.85587 30.1475 2.85587 30.1477 2.85587C30.7058 2.85587 31.0501 2.97571 31.3562 3.27587H25.6986C24.8956 3.27587 24.3177 3.62558 23.98 4.31735L23.5098 5.29321C23.5058 5.30167 23.502 5.31019 23.4985 5.31887C23.3567 5.67014 23.3818 6.01631 23.5689 6.29365C23.7541 6.56794 24.0764 6.73165 24.4314 6.73165H34.6964C34.727 6.73165 37.5864 6.73589 39.1487 7.07853C39.0601 7.25756 39.0178 7.4418 39.0178 7.60176V8.45065C39.0178 8.56439 39.0631 8.6734 39.1435 8.75381C39.2238 8.83412 39.3328 8.87923 39.4464 8.87923C39.4465 8.87923 39.4466 8.87923 39.4467 8.87923L41.1417 8.87864C41.1422 8.89669 41.1428 8.91469 41.1428 8.93301V11H41.1429Z" fill="#421C63"/>
<path d="M35.5983 8.02222H24.4315C24.1948 8.02222 24.0029 8.21411 24.0029 8.4508C24.0029 8.68748 24.1948 8.87937 24.4315 8.87937H35.5983C35.835 8.87937 36.0269 8.68748 36.0269 8.4508C36.0269 8.21406 35.835 8.02222 35.5983 8.02222Z" fill="#421C63"/>
<path d="M23.1281 10.9999C22.8914 10.9999 22.6995 11.1917 22.6995 11.4284C22.6995 11.6556 22.5148 11.8404 22.2877 11.8404C22.0605 11.8404 21.8757 11.6556 21.8757 11.4284C21.8757 11.2013 22.0605 11.0166 22.2877 11.0166C22.5244 11.0166 22.7163 10.8247 22.7163 10.588C22.7163 10.3513 22.5244 10.1594 22.2877 10.1594C21.5879 10.1594 21.0186 10.7287 21.0186 11.4284C21.0186 12.1282 21.5879 12.6976 22.2877 12.6976C22.9874 12.6976 23.5567 12.1282 23.5567 11.4284C23.5567 11.1917 23.3648 10.9999 23.1281 10.9999Z" fill="#421C63"/>
<path d="M38.5763 10.9999C38.3397 10.9999 38.1478 11.1917 38.1478 11.4284C38.1478 11.6556 37.963 11.8404 37.736 11.8404C37.5088 11.8404 37.3239 11.6556 37.3239 11.4284C37.3239 11.2013 37.5088 11.0166 37.736 11.0166C37.9726 11.0166 38.1645 10.8247 38.1645 10.588C38.1645 10.3513 37.9726 10.1594 37.736 10.1594C37.0362 10.1594 36.4668 10.7287 36.4668 11.4284C36.4668 12.1282 37.0362 12.6976 37.736 12.6976C38.4357 12.6976 39.0049 12.1282 39.0049 11.4284C39.0049 11.1917 38.8131 10.9999 38.5763 10.9999Z" fill="#421C63"/>
<rect x="18" y="10" width="1" height="2" fill="#421C63"/>
<path d="M5.12809 11.5885C4.89141 11.5885 4.69952 11.7804 4.69952 12.0171C4.69952 12.2443 4.5148 12.4291 4.28771 12.4291C4.06052 12.4291 3.8757 12.2443 3.8757 12.0171C3.8757 11.79 4.06052 11.6052 4.28771 11.6052C4.52439 11.6052 4.71628 11.4133 4.71628 11.1766C4.71628 10.9399 4.52439 10.748 4.28771 10.748C3.58791 10.748 3.01855 11.3174 3.01855 12.0171C3.01855 12.7169 3.58791 13.2863 4.28771 13.2863C4.98741 13.2863 5.55666 12.7169 5.55666 12.0171C5.55666 11.7804 5.36477 11.5885 5.12809 11.5885Z" fill="#421C63"/>
<path d="M2.16099 2.58481H14.5807C14.8173 2.58481 15.0092 2.39292 15.0092 2.15624C15.0092 1.91956 14.8173 1.72766 14.5807 1.72766H2.16099C1.92431 1.72766 1.73242 1.91956 1.73242 2.15624C1.73242 2.39292 1.92431 2.58481 2.16099 2.58481Z" fill="#421C63"/>
<path fill-rule="evenodd" clip-rule="evenodd" d="M16.7412 0.857117C16.7412 0.384521 16.3564 0 15.8838 0H0.856934C0.384766 0 0 0.384521 0 0.857117V11.5886C0 12.0613 0.384766 12.4457 0.856934 12.4457H1.75146C1.95605 13.661 3.01514 14.5898 4.2876 14.5898C5.56006 14.5898 6.61865 13.661 6.82373 12.4457H19V11.5886H16.7412V0.857117ZM15.8838 0.857117H0.856934V11.5886H1.75146C1.95605 10.3735 3.01514 9.44452 4.2876 9.44452C5.56006 9.44452 6.61914 10.3734 6.82373 11.5886H15.8838V0.857117ZM2.57227 12.017C2.57227 12.9631 3.3418 13.7327 4.2876 13.7327C5.2334 13.7327 6.00293 12.9631 6.00293 12.017C6.00293 11.0712 5.2334 10.3016 4.2876 10.3016C3.3418 10.3016 2.57227 11.0712 2.57227 12.017Z" fill="#421C63"/>
</svg>
