<svg width="40" height="15" viewBox="0 0 40 15" fill="none" xmlns="http://www.w3.org/2000/svg">
<path d="M5.03981 11.3744C4.80723 11.3744 4.61866 11.563 4.61866 11.7955C4.61866 12.0188 4.43714 12.2004 4.21398 12.2004C3.99072 12.2004 3.8091 12.0188 3.8091 11.7955C3.8091 11.5723 3.99072 11.3908 4.21398 11.3908C4.44656 11.3908 4.63513 11.2022 4.63513 10.9696C4.63513 10.737 4.44656 10.5485 4.21398 10.5485C3.5263 10.5485 2.9668 11.1079 2.9668 11.7955C2.9668 12.4832 3.5263 13.0427 4.21398 13.0427C4.90157 13.0427 5.46096 12.4832 5.46096 11.7955C5.46096 11.5629 5.27244 11.3744 5.03981 11.3744Z" fill="#421C63"/>
<path d="M9.2527 11.3744C9.02012 11.3744 8.83154 11.563 8.83154 11.7955C8.83154 12.0188 8.65003 12.2004 8.42687 12.2004C8.20361 12.2004 8.02199 12.0188 8.02199 11.7955C8.02199 11.5723 8.20361 11.3908 8.42687 11.3908C8.65945 11.3908 8.84802 11.2022 8.84802 10.9696C8.84802 10.737 8.65945 10.5485 8.42687 10.5485C7.73919 10.5485 7.17969 11.1079 7.17969 11.7955C7.17969 12.4832 7.73919 13.0427 8.42687 13.0427C9.11445 13.0427 9.67385 12.4832 9.67385 11.7955C9.67385 11.5629 9.48533 11.3744 9.2527 11.3744Z" fill="#421C63"/>
<path d="M36.2195 11.3744C35.9869 11.3744 35.7983 11.563 35.7983 11.7955C35.7983 12.0188 35.6168 12.2004 35.3937 12.2004C35.1704 12.2004 34.9888 12.0188 34.9888 11.7955C34.9888 11.5723 35.1704 11.3908 35.3937 11.3908C35.6262 11.3908 35.8148 11.2022 35.8148 10.9696C35.8148 10.737 35.6262 10.5485 35.3937 10.5485C34.706 10.5485 34.1465 11.1079 34.1465 11.7955C34.1465 12.4832 34.706 13.0427 35.3937 13.0427C36.0812 13.0427 36.6406 12.4832 36.6406 11.7955C36.6406 11.5629 36.4521 11.3744 36.2195 11.3744Z" fill="#421C63"/>
<path d="M39.9907 7.93126L38.9896 3.25786C38.8131 2.37408 37.9701 1.68229 37.0686 1.68229H34.5626V0.842301C34.5626 0.377825 34.1847 0 33.7203 0H0.842301C0.377877 0 0 0.377825 0 0.842301V11.3744C0 11.8388 0.377877 12.2167 0.842301 12.2167H1.72098C1.92224 13.4109 2.96295 14.3236 4.21351 14.3236C5.09203 14.3236 5.86694 13.8728 6.3201 13.1905C6.77336 13.8728 7.54844 14.3236 8.42717 14.3236C9.67741 14.3236 10.7179 13.4109 10.9191 12.2167H32.9019C33.1031 13.4109 34.1438 14.3236 35.3944 14.3236C36.6446 14.3236 37.6851 13.4109 37.8864 12.2167H39.5789C39.8115 12.2167 40.0001 12.0281 40.0001 11.7955V8.01944C40 7.9898 39.9968 7.96027 39.9907 7.93126ZM39.0579 7.59834H36.306C36.2783 7.59261 36.2495 7.58955 36.22 7.58955C35.9831 7.58955 35.7903 7.39682 35.7903 7.15987V4.1984H38.3296L39.0579 7.59834ZM0.842301 0.842354H33.7203V9.90325C33.2968 10.2783 32.9998 10.7929 32.9018 11.3744H10.9192C10.7181 10.1803 9.67751 9.26747 8.42717 9.26747C7.54849 9.26747 6.77336 9.71826 6.3201 10.4004C5.86694 9.71826 5.09203 9.26747 4.21351 9.26747C2.9629 9.26747 1.92208 10.1803 1.72093 11.3744H0.842301V0.842354ZM4.21351 13.4814C3.28387 13.4814 2.52753 12.7251 2.52753 11.7954C2.52753 10.8659 3.28387 10.1097 4.21351 10.1097C5.14283 10.1097 5.8989 10.8659 5.8989 11.7954C5.8989 12.7251 5.14283 13.4814 4.21351 13.4814ZM8.42717 13.4814C7.49753 13.4814 6.7412 12.7251 6.7412 11.7954C6.7412 10.8659 7.49753 10.1097 8.42717 10.1097C9.35649 10.1097 10.1126 10.8659 10.1126 11.7954C10.1126 12.7251 9.35649 13.4814 8.42717 13.4814ZM35.3944 13.4814C34.4648 13.4814 33.7084 12.7251 33.7084 11.7954C33.7084 10.8659 34.4648 10.1097 35.3944 10.1097C36.3237 10.1097 37.0798 10.8659 37.0798 11.7954C37.0798 12.7251 36.3237 13.4814 35.3944 13.4814ZM37.8864 11.3744C37.6853 10.1803 36.6447 9.26747 35.3944 9.26747C35.103 9.26747 34.8233 9.31759 34.5626 9.40871V2.52464H37.0686C37.5424 2.52464 38.0192 2.89888 38.1467 3.3561H35.3692C35.1366 3.3561 34.948 3.54467 34.948 3.77725V7.15987C34.948 7.82608 35.4629 8.37431 36.1157 8.42759C36.1491 8.43612 36.184 8.44065 36.22 8.44065H39.1577V8.85743H38.7477C38.5151 8.85743 38.3266 9.046 38.3266 9.27858C38.3266 9.51116 38.5151 9.69973 38.7477 9.69973H39.1577V11.3745L37.8864 11.3744Z" fill="#421C63"/>
<path d="M2.1067 2.52467H32.4252C32.6578 2.52467 32.8464 2.3361 32.8464 2.10352C32.8464 1.87094 32.6578 1.68237 32.4252 1.68237H2.1067C1.87412 1.68237 1.68555 1.87094 1.68555 2.10352C1.68555 2.3361 1.87412 2.52467 2.1067 2.52467Z" fill="#421C63"/>
</svg>
