<svg width="24" height="24" viewBox="0 0 24 24" fill="none" xmlns="http://www.w3.org/2000/svg">
<path d="M5.12809 15.4298C4.89141 15.4298 4.69952 15.6217 4.69952 15.8584C4.69952 16.0856 4.5148 16.2704 4.28771 16.2704C4.06052 16.2704 3.8757 16.0856 3.8757 15.8584C3.8757 15.6313 4.06052 15.4465 4.28771 15.4465C4.52439 15.4465 4.71628 15.2546 4.71628 15.0179C4.71628 14.7812 4.52439 14.5894 4.28771 14.5894C3.58791 14.5894 3.01855 15.1586 3.01855 15.8584C3.01855 16.5582 3.58791 17.1275 4.28771 17.1275C4.98741 17.1275 5.55666 16.5582 5.55666 15.8584C5.55666 15.6217 5.36477 15.4298 5.12809 15.4298Z" fill="#421C63"/>
<path d="M20.5763 15.4298C20.3397 15.4298 20.1478 15.6217 20.1478 15.8584C20.1478 16.0856 19.963 16.2704 19.736 16.2704C19.5088 16.2704 19.3239 16.0856 19.3239 15.8584C19.3239 15.6313 19.5088 15.4465 19.736 15.4465C19.9726 15.4465 20.1645 15.2546 20.1645 15.0179C20.1645 14.7812 19.9726 14.5894 19.736 14.5894C19.0362 14.5894 18.4668 15.1586 18.4668 15.8584C18.4668 16.5582 19.0362 17.1275 19.736 17.1275C20.4357 17.1275 21.0049 16.5582 21.0049 15.8584C21.0049 15.6217 20.813 15.4298 20.5763 15.4298Z" fill="#421C63"/>
<path d="M22.2857 5.56897H1.71429C0.769018 5.56897 0 6.33799 0 7.28326V14.291C0 15.464 0.993268 16.0201 1.73995 16.2135C1.91357 17.4646 2.98961 18.4312 4.2877 18.4312C5.39871 18.4312 6.3473 17.7229 6.70629 16.7342H17.317C17.6761 17.7229 18.6249 18.4312 19.7361 18.4312C20.8471 18.4312 21.7957 17.7229 22.1547 16.7342H23.5714C23.8081 16.7342 24 16.5423 24 16.3056V7.28326C24 6.33799 23.231 5.56897 22.2857 5.56897ZM23.1429 11.5577H21.4484C21.2073 11.5577 21.0111 11.3615 21.0111 11.1204V7.72522H23.1429V11.5577ZM4.2877 17.574C3.37543 17.574 2.62741 16.8582 2.57518 15.9588C2.5792 15.9422 2.58252 15.9253 2.58455 15.9078C2.59055 15.8562 2.58664 15.8059 2.57512 15.7581C2.62725 14.8587 3.37532 14.1429 4.2877 14.1429C5.23339 14.1429 6.00284 14.9125 6.00284 15.8583C6.00284 16.8043 5.23339 17.574 4.2877 17.574ZM9.4598 7.72522H14.1574V11.5577H9.4598V7.72522ZM8.60266 11.5577H3.00927C2.76814 11.5577 2.57202 11.3615 2.57202 11.1204V7.72522H8.60266V11.5577ZM18.8908 7.72522V11.1381C18.8908 11.3695 18.7026 11.5577 18.4713 11.5577H15.0145V7.72522H18.8908ZM14.1574 12.4148V15.877H9.4598V12.4148H14.1574ZM19.7361 17.574C18.7901 17.574 18.0204 16.8043 18.0204 15.8583C18.0204 14.9125 18.7901 14.1429 19.7361 14.1429C20.6818 14.1429 21.4512 14.9125 21.4512 15.8583C21.4512 16.8043 20.6818 17.574 19.7361 17.574ZM22.3079 15.877C22.3079 15.8708 22.3084 15.8646 22.3084 15.8583C22.3084 14.4398 21.1544 13.2858 19.7361 13.2858C18.3175 13.2858 17.1633 14.4398 17.1633 15.8583C17.1633 15.8646 17.1637 15.8708 17.1638 15.877H15.0145V12.4148H18.4713C19.1752 12.4148 19.7479 11.8421 19.7479 11.1381V7.29665C19.7479 7.05997 19.556 6.86808 19.3194 6.86808H2.14345C1.90677 6.86808 1.71488 7.05997 1.71488 7.29665V11.1204C1.71488 11.8341 2.29554 12.4148 3.00927 12.4148H8.60266V15.877H6.8595C6.85955 15.8708 6.85998 15.8646 6.85998 15.8583C6.85998 14.4398 5.70605 13.2858 4.2877 13.2858C3.05164 13.2858 2.01664 14.162 1.77064 15.3258C1.37593 15.1903 0.857143 14.8971 0.857143 14.291V7.28326C0.857143 6.81059 1.24168 6.42611 1.71429 6.42611H22.2857C22.6077 6.42611 22.8886 6.60477 23.035 6.86808H20.5826C20.3459 6.86808 20.154 7.05997 20.154 7.29665V11.1204C20.154 11.8341 20.7347 12.4148 21.4484 12.4148H23.1429V12.8591H22.7256C22.4889 12.8591 22.297 13.051 22.297 13.2877C22.297 13.5244 22.4889 13.7163 22.7256 13.7163H23.1429V15.877H22.3079Z" fill="#421C63"/>
</svg>
