<svg width="58" height="15" viewBox="0 0 58 15" fill="none" xmlns="http://www.w3.org/2000/svg">
<path d="M5.12809 11.5885C4.89141 11.5885 4.69952 11.7804 4.69952 12.0171C4.69952 12.2443 4.5148 12.4291 4.28771 12.4291C4.06052 12.4291 3.8757 12.2443 3.8757 12.0171C3.8757 11.79 4.06052 11.6052 4.28771 11.6052C4.52439 11.6052 4.71628 11.4133 4.71628 11.1766C4.71628 10.9399 4.52439 10.748 4.28771 10.748C3.58791 10.748 3.01855 11.3174 3.01855 12.0171C3.01855 12.7169 3.58791 13.2863 4.28771 13.2863C4.98741 13.2863 5.55666 12.7169 5.55666 12.0171C5.55666 11.7804 5.36477 11.5885 5.12809 11.5885Z" fill="#421C63"/>
<path d="M2.16099 2.58481H14.5807C14.8173 2.58481 15.0092 2.39292 15.0092 2.15624C15.0092 1.91956 14.8173 1.72766 14.5807 1.72766H2.16099C1.92431 1.72766 1.73242 1.91956 1.73242 2.15624C1.73242 2.39292 1.92431 2.58481 2.16099 2.58481Z" fill="#421C63"/>
<path fill-rule="evenodd" clip-rule="evenodd" d="M16.7412 0.857117C16.7412 0.384521 16.3564 0 15.8838 0H0.856934C0.384766 0 0 0.384521 0 0.857117V11.5886C0 12.0613 0.384766 12.4457 0.856934 12.4457H1.75146C1.95605 13.661 3.01514 14.5898 4.2876 14.5898C5.56006 14.5898 6.61865 13.661 6.82373 12.4457H20V11.5886H16.7412V0.857117ZM15.8838 0.857117H0.856934V11.5886H1.75146C1.95605 10.3735 3.01514 9.44452 4.2876 9.44452C5.56006 9.44452 6.61914 10.3734 6.82373 11.5886H15.8838V0.857117ZM2.57227 12.017C2.57227 12.9631 3.3418 13.7327 4.2876 13.7327C5.2334 13.7327 6.00293 12.9631 6.00293 12.017C6.00293 11.0712 5.2334 10.3016 4.2876 10.3016C3.3418 10.3016 2.57227 11.0712 2.57227 12.017Z" fill="#421C63"/>
<path d="M57.9967 6.21601C58.0072 6.12638 57.99 6.03274 57.9405 5.94901L56.2974 3.16506C55.7339 2.22483 55.2021 1.67578 54.1379 1.58294C54.103 1.57378 54.0663 1.56885 54.0285 1.56885H19.2857C18.5768 1.56885 18 2.1456 18 2.85456V10.0361C18 11.1972 18.9733 11.7538 19.7173 11.9526C19.7672 13.3276 20.9007 14.431 22.2877 14.431C23.56 14.431 24.6188 13.5022 24.8236 12.2869H51.1997C51.4045 13.5022 52.4636 14.431 53.7361 14.431C55.0084 14.431 56.0672 13.5022 56.2719 12.2869H57.5714C57.8081 12.2869 58 12.095 58 11.8584V6.26685C58 6.2496 57.9987 6.23272 57.9967 6.21601ZM56.3084 7.59119C56.3084 7.35488 56.5006 7.16262 56.7369 7.16262H57.1429V8.00637H56.3084V7.59119ZM56.892 5.85885H53.2412L52.1753 3.72515H55.6327L56.892 5.85885ZM18.8571 6.71599H19.3169V8.00631H18.8571V6.71599ZM18.8571 5.85885V3.71781H48.9665C49.4396 3.71781 49.7229 3.88485 49.9131 4.27437L50.6773 5.85885H18.8571ZM22.2877 13.5739C21.3417 13.5739 20.5721 12.8043 20.5721 11.8583C20.5721 10.9124 21.3417 10.1428 22.2877 10.1428C23.2334 10.1428 24.0028 10.9124 24.0028 11.8583C24.0028 12.8043 23.2334 13.5739 22.2877 13.5739ZM53.7361 13.5739C52.7901 13.5739 52.0205 12.8043 52.0205 11.8583C52.0205 10.9124 52.7901 10.1428 53.7361 10.1428C54.6818 10.1428 55.4512 10.9124 55.4512 11.8583C55.4512 12.8043 54.6818 13.5739 53.7361 13.5739ZM56.272 11.4298C56.0674 10.2146 55.0085 9.28571 53.7361 9.28571C52.4634 9.28571 51.4043 10.2146 51.1996 11.4298H24.8236C24.619 10.2146 23.5601 9.28571 22.2877 9.28571C21.1358 9.28571 20.1583 10.0466 19.8314 11.0921C19.4308 10.9675 18.8571 10.6774 18.8571 10.0362V8.86351H19.3169C19.7896 8.86351 20.1741 8.47903 20.1741 8.00637V6.71604H51.3499C51.5866 6.71604 51.7785 6.52415 51.7785 6.28747V6.2669C51.7785 6.20245 51.764 6.13876 51.7359 6.08069L50.6842 3.90017C50.3474 3.21044 49.7696 2.86067 48.9665 2.86067H18.8571V2.85462C18.8571 2.61831 19.0494 2.42604 19.2857 2.42604H53.7986C54.3705 2.42604 54.7179 2.55199 55.0294 2.86801H51.4821C51.3336 2.86801 51.1957 2.94488 51.1176 3.0712C51.0395 3.19747 51.0323 3.35524 51.0987 3.4881L52.5511 6.39547C52.599 6.57987 52.7666 6.71599 52.9659 6.71599H55.7962C55.5824 6.9457 55.4512 7.25331 55.4512 7.59119V8.43494C55.4512 8.67162 55.6431 8.86351 55.8797 8.86351H57.1429V11.4298H56.272Z" fill="#421C63"/>
<path d="M53.7361 8.00635H37.911C37.6743 8.00635 37.4824 8.19824 37.4824 8.43493C37.4824 8.67161 37.6743 8.8635 37.911 8.8635H53.7361C53.9728 8.8635 54.1647 8.67161 54.1647 8.43493C54.1647 8.19824 53.9728 8.00635 53.7361 8.00635Z" fill="#421C63"/>
<path d="M23.1281 11.4298C22.8914 11.4298 22.6995 11.6217 22.6995 11.8584C22.6995 12.0856 22.5148 12.2704 22.2877 12.2704C22.0605 12.2704 21.8757 12.0856 21.8757 11.8584C21.8757 11.6313 22.0605 11.4465 22.2877 11.4465C22.5244 11.4465 22.7163 11.2546 22.7163 11.0179C22.7163 10.7812 22.5244 10.5894 22.2877 10.5894C21.5879 10.5894 21.0186 11.1586 21.0186 11.8584C21.0186 12.5582 21.5879 13.1275 22.2877 13.1275C22.9874 13.1275 23.5567 12.5582 23.5567 11.8584C23.5567 11.6217 23.3648 11.4298 23.1281 11.4298Z" fill="#421C63"/>
<path d="M54.5763 11.4298C54.3397 11.4298 54.1478 11.6217 54.1478 11.8584C54.1478 12.0856 53.963 12.2704 53.736 12.2704C53.5088 12.2704 53.3239 12.0856 53.3239 11.8584C53.3239 11.6313 53.5088 11.4465 53.736 11.4465C53.9726 11.4465 54.1645 11.2546 54.1645 11.0179C54.1645 10.7812 53.9726 10.5894 53.736 10.5894C53.0362 10.5894 52.4668 11.1586 52.4668 11.8584C52.4668 12.5582 53.0362 13.1275 53.736 13.1275C54.4357 13.1275 55.0049 12.5582 55.0049 11.8584C55.0049 11.6217 54.813 11.4298 54.5763 11.4298Z" fill="#421C63"/>
</svg>
