<svg width="24" height="24" viewBox="0 0 24 24" fill="none" xmlns="http://www.w3.org/2000/svg">
<path d="M20.6057 10.0402C20.6119 10.0094 20.6154 9.97794 20.6154 9.94616V7.44159C20.6154 5.59989 18.7997 4.76182 17.8396 4.57594C17.6991 4.5486 17.5536 4.58571 17.4432 4.67685C17.3328 4.76799 17.2688 4.90369 17.2688 5.04687V7.21956C16.9863 7.05598 16.6588 6.96185 16.3094 6.96185H12.9791C11.9211 6.96185 11.0603 7.82121 11.0603 8.87748C11.0603 8.88143 11.0606 8.88539 11.0606 8.88935H8.63539C8.53315 8.88935 8.18496 8.86818 7.98169 8.5965L6.62838 6.67205C6.53855 6.54434 6.39219 6.46831 6.23599 6.46831H1.82695C1.38791 6.46831 1.04584 6.64699 0.88844 6.95855C0.731643 7.26903 0.789865 7.64882 1.04812 8.00115L2.69458 10.3171C1.1004 11.0992 0 12.7385 0 14.6305C0 17.2785 2.15433 19.4329 4.80233 19.4329C6.77366 19.4329 8.47055 18.238 9.20903 16.5345H13.9612C14.2074 16.5345 14.4713 16.4803 14.7275 16.3859C15.4395 18.2056 17.2023 19.4329 19.1977 19.4329C21.8457 19.4329 24 17.2785 24 14.6305C24 12.5021 22.5854 10.6485 20.6057 10.0402ZM12.979 7.92128H16.3094C16.8383 7.92128 17.2687 8.35024 17.2687 8.87754C17.2687 9.40483 16.8383 9.83379 16.3094 9.83379H12.979C12.45 9.83379 12.0196 9.40483 12.0196 8.87754C12.0196 8.3503 12.45 7.92128 12.979 7.92128ZM4.80233 18.4735C2.68331 18.4735 0.959374 16.7496 0.959374 14.6305C0.959374 12.5119 2.68331 10.7882 4.80233 10.7882C5.68339 10.7882 6.49556 11.0871 7.1444 11.5879L6.44951 12.2884C5.97036 11.9499 5.40008 11.7668 4.80203 11.7668C3.22266 11.7668 1.93776 13.0515 1.93776 14.6307C1.93776 16.2101 3.22266 17.495 4.80203 17.495C6.38104 17.495 7.66564 16.2101 7.66564 14.6307C7.66564 14.3658 7.45086 14.151 7.18595 14.151C6.92104 14.151 6.70626 14.3658 6.70626 14.6307C6.70626 15.6811 5.852 16.5356 4.80203 16.5356C3.75169 16.5356 2.89713 15.6811 2.89713 14.6307C2.89713 13.5805 3.75163 12.7261 4.80203 12.7261C5.14368 12.7261 5.47179 12.816 5.75954 12.984L4.46115 14.2931C4.27455 14.4812 4.27581 14.7849 4.46391 14.9714C4.55745 15.0642 4.67959 15.1105 4.80173 15.1105C4.92513 15.1105 5.04853 15.0632 5.1423 14.9687L7.82531 12.2637C8.3375 12.9166 8.64408 13.7382 8.64408 14.6306C8.64408 16.7496 6.92068 18.4735 4.80233 18.4735ZM9.50968 15.5752C9.57084 15.2696 9.60345 14.9539 9.60345 14.6305C9.60345 11.9829 7.44966 9.82882 4.80233 9.82882C4.39735 9.82882 4.00413 9.87972 3.62817 9.97458L1.82791 7.44237C1.82629 7.44009 1.82467 7.43788 1.82305 7.43566C1.82113 7.43302 1.81927 7.43044 1.81741 7.42792C1.82053 7.42792 1.82371 7.42786 1.82701 7.42786H5.98685L7.2004 9.15354C7.2025 9.15648 7.20454 9.15935 7.2067 9.16229C7.67643 9.79938 8.41899 9.8489 8.63539 9.8489H11.3262C11.6604 10.4136 12.276 10.7933 12.9791 10.7933H16.3094C17.3674 10.7933 18.2281 9.93393 18.2281 8.87766C18.2281 8.81758 18.225 8.75821 18.2195 8.69957C18.225 8.67067 18.2281 8.64093 18.2281 8.61047V5.69823C18.8189 5.93855 19.656 6.45344 19.656 7.44165V8.39791H19.2095C18.9446 8.39791 18.7298 8.61269 18.7298 8.8776C18.7298 9.1425 18.9446 9.35728 19.2095 9.35728H19.656V9.76664L19.4286 10.0278C19.4277 10.0288 19.4268 10.0298 19.4259 10.0308L17.2683 12.5094C17.1034 12.6596 16.9563 12.8288 16.8296 13.0132L15.1281 14.9677C15.1196 14.9775 15.1115 14.9876 15.1038 14.998C14.8812 15.3001 14.3365 15.5751 13.9612 15.5751H9.50968V15.5752ZM17.5582 13.6522L18.8569 14.9678C18.9508 15.0628 19.0745 15.1105 19.1983 15.1105C19.3201 15.1105 19.4418 15.0644 19.5353 14.9721C19.7239 14.786 19.7258 14.4823 19.5397 14.2938L18.2411 12.9783C18.5258 12.812 18.8564 12.7161 19.2092 12.7161C20.2713 12.7161 21.1353 13.58 21.1353 14.6418C21.1353 15.7038 20.2713 16.5679 19.2092 16.5679C18.1476 16.5679 17.2838 15.7038 17.2838 14.6418C17.2837 14.2803 17.3841 13.9417 17.5582 13.6522ZM19.1977 18.4735C17.5498 18.4735 16.1 17.4278 15.5684 15.8946C15.68 15.798 15.7803 15.6941 15.8634 15.5842L16.3505 15.0247C16.5383 16.4354 17.7482 17.5274 19.2091 17.5274C20.8002 17.5274 22.0946 16.233 22.0946 14.6419C22.0946 13.0511 20.8002 11.7569 19.2091 11.7569C19.2044 11.7569 19.1998 11.7572 19.195 11.7572L19.9702 10.8669C21.7372 11.2278 23.0406 12.8025 23.0406 14.6306C23.0406 16.7496 21.3167 18.4735 19.1977 18.4735Z" fill="#421C63"/>
</svg>
