<svg width="24" height="24" viewBox="0 0 24 24" fill="none" xmlns="http://www.w3.org/2000/svg">
<path d="M21.3027 14.2095V13.6249C21.3027 12.4968 20.5185 11.733 19.8267 11.059C19.7403 10.9748 19.6542 10.891 19.5701 10.8069C19.105 10.3418 18.723 9.95881 18.4444 9.67955C18.3537 9.58855 18.2738 9.50853 18.2057 9.44027V8.88807C18.439 9.08328 18.7393 9.20104 19.0666 9.20104H19.9444C20.1918 9.20104 20.3924 9.00046 20.3924 8.75306V6.9611C20.3924 6.7137 20.1918 6.51312 19.9444 6.51312H19.0666C18.7393 6.51312 18.439 6.63088 18.2057 6.82609V6.61811C18.2057 6.21431 18.0632 5.31968 16.8361 5.17554V5.11315C16.8361 4.72816 16.6233 4.2879 16.2523 3.90532C15.9524 3.59599 15.6443 3.29684 15.6313 3.2843C15.4537 3.11199 15.1702 3.1163 14.9978 3.29393C14.8255 3.4715 14.8299 3.75513 15.0074 3.92739C15.0105 3.93041 15.3189 4.22983 15.6091 4.52903C15.8709 4.79906 15.94 5.02921 15.94 5.11315V14.1243C15.94 14.8679 15.335 15.4729 14.5914 15.4729C14.5584 15.4729 14.5263 15.4764 14.4954 15.4832H10.0983V13.2002C10.0983 12.734 9.91918 12.3089 9.62631 11.9898C9.9147 11.7457 10.0983 11.3815 10.0983 10.975V10.5069C10.0983 9.77396 9.50205 9.17764 8.76908 9.17764H1.32924C0.596272 9.17769 0 9.77402 0 10.5069V10.9751C0 11.708 0.596272 12.3043 1.32924 12.3043H2.00262C1.79027 12.4346 1.58543 12.578 1.38999 12.7347C1.21354 12.876 0.67663 13.3063 0.67663 14.2223V16.3362C0.67663 17.1192 1.17367 17.7871 1.86637 18.0369C2.12744 19.6342 3.51945 20.8421 5.17006 20.8421C6.78158 20.8421 8.1503 19.6858 8.45465 18.1422H17.3674C17.6702 19.6791 19.0274 20.8421 20.6515 20.8421C22.4979 20.8421 24 19.34 24 17.4936C24 15.8702 22.8384 14.5135 21.3027 14.2095ZM19.0666 7.40909H19.4964V8.30507H19.0666C18.8196 8.30507 18.6187 8.10409 18.6187 7.85708C18.6187 7.61007 18.8196 7.40909 19.0666 7.40909ZM1.32924 11.4083C1.09035 11.4083 0.895976 11.214 0.895976 10.9751V10.5069C0.895976 10.268 1.09035 10.0737 1.32924 10.0737H8.76914C9.00803 10.0737 9.2024 10.268 9.2024 10.5069V10.9751C9.2024 11.214 9.00803 11.4083 8.76914 11.4083H1.32924ZM1.57261 14.2223C1.57261 13.7953 1.75415 13.591 1.95032 13.4338C2.87239 12.6948 3.98564 12.3043 5.16972 12.3043H8.30648C8.8005 12.3043 9.20246 12.7063 9.20246 13.2003V15.9209C9.20246 16.1589 9.38865 16.3554 9.62636 16.3682L9.81771 16.3785C9.82572 16.3789 9.83378 16.3792 9.84179 16.3792H14.5915C14.6283 16.3792 14.6642 16.3747 14.6984 16.3663C15.8867 16.3104 16.8362 15.3261 16.8362 14.1242V6.07974C17.3093 6.16805 17.3098 6.44217 17.3098 6.61811V9.62568C17.3098 9.74451 17.357 9.85841 17.441 9.94246C17.5286 10.0302 17.653 10.1548 17.8102 10.3123C18.089 10.5918 18.4713 10.975 18.9366 11.4404C19.0235 11.5273 19.1123 11.6138 19.2015 11.7008C19.8213 12.3045 20.4068 12.8749 20.4068 13.6249V14.1554C18.7566 14.2753 17.4352 15.5962 17.314 17.2462H2.46858C1.98291 17.2462 1.57261 16.8295 1.57261 16.3362V14.2223ZM6.07572 18.1422C5.87195 18.4255 5.53987 18.6085 5.17023 18.6085C4.80081 18.6085 4.46885 18.4255 4.26512 18.1422H6.07572ZM5.17006 19.9461C4.04903 19.9461 3.09123 19.1854 2.80547 18.1422H3.2674C3.53961 18.9407 4.29805 19.5044 5.17023 19.5044C6.04263 19.5044 6.80124 18.9408 7.0735 18.1422H7.53549C7.24923 19.1848 6.28947 19.9461 5.17006 19.9461ZM20.6515 19.9461C19.2996 19.9461 18.1998 18.8459 18.1998 17.4936C18.1998 16.9756 18.3617 16.4948 18.6369 16.0985L20.3338 17.8094C20.4214 17.8977 20.5366 17.9418 20.6519 17.9418C20.7659 17.9418 20.88 17.8986 20.9674 17.8119C21.1431 17.6377 21.1442 17.3541 20.97 17.1784L20.2515 16.4541C20.3777 16.4055 20.5126 16.3793 20.6517 16.3793C21.2664 16.3793 21.7664 16.8792 21.7664 17.4938C21.7664 18.1085 21.2663 18.6085 20.6517 18.6085C20.0373 18.6085 19.5374 18.1084 19.5374 17.4938C19.5374 17.2464 19.3368 17.0458 19.0894 17.0458C18.842 17.0458 18.6414 17.2464 18.6414 17.4938C18.6414 18.6025 19.5432 19.5045 20.6517 19.5045C21.7604 19.5045 22.6624 18.6025 22.6624 17.4938C22.6624 16.3852 21.7604 15.4833 20.6517 15.4833C20.2704 15.4833 19.9054 15.5894 19.5896 15.7867L19.2727 15.4673C19.6659 15.1989 20.1406 15.0416 20.6515 15.0416C22.0038 15.0416 23.104 16.1416 23.104 17.4937C23.104 18.8459 22.0039 19.9461 20.6515 19.9461Z" fill="#421C63"/>
</svg>
