<svg width="24" height="24" viewBox="0 0 24 24" fill="none" xmlns="http://www.w3.org/2000/svg">
<g clip-path="url(#clip0_1110_6829)">
<path d="M5.03981 16.2125C4.80723 16.2125 4.61866 16.4011 4.61866 16.6337C4.61866 16.8569 4.43714 17.0386 4.21398 17.0386C3.99072 17.0386 3.8091 16.8569 3.8091 16.6337C3.8091 16.4105 3.99072 16.2289 4.21398 16.2289C4.44656 16.2289 4.63513 16.0403 4.63513 15.8077C4.63513 15.5752 4.44656 15.3866 4.21398 15.3866C3.5263 15.3866 2.9668 15.946 2.9668 16.6337C2.9668 17.3214 3.5263 17.8809 4.21398 17.8809C4.90157 17.8809 5.46096 17.3214 5.46096 16.6337C5.46096 16.401 5.27244 16.2125 5.03981 16.2125Z" fill="#421C63"/>
<path d="M9.2527 16.2125C9.02012 16.2125 8.83154 16.4011 8.83154 16.6337C8.83154 16.8569 8.65003 17.0386 8.42687 17.0386C8.20361 17.0386 8.02199 16.8569 8.02199 16.6337C8.02199 16.4105 8.20361 16.2289 8.42687 16.2289C8.65945 16.2289 8.84802 16.0403 8.84802 15.8077C8.84802 15.5752 8.65945 15.3866 8.42687 15.3866C7.73919 15.3866 7.17969 15.946 7.17969 16.6337C7.17969 17.3214 7.73919 17.8809 8.42687 17.8809C9.11445 17.8809 9.67385 17.3214 9.67385 16.6337C9.67385 16.401 9.48533 16.2125 9.2527 16.2125Z" fill="#421C63"/>
<path d="M20.2205 16.2125C19.9879 16.2125 19.7993 16.4011 19.7993 16.6337C19.7993 16.8569 19.6178 17.0386 19.3946 17.0386C19.1714 17.0386 18.9898 16.8569 18.9898 16.6337C18.9898 16.4105 19.1714 16.2289 19.3946 16.2289C19.6272 16.2289 19.8158 16.0403 19.8158 15.8077C19.8158 15.5752 19.6272 15.3866 19.3946 15.3866C18.707 15.3866 18.1475 15.946 18.1475 16.6337C18.1475 17.3214 18.707 17.8809 19.3946 17.8809C20.0822 17.8809 20.6416 17.3214 20.6416 16.6337C20.6416 16.401 20.4531 16.2125 20.2205 16.2125Z" fill="#421C63"/>
<path d="M23.9907 12.7694L22.9896 8.096C22.8131 7.21221 21.9701 6.52042 21.0686 6.52042H18.5626V5.68044C18.5626 5.21596 18.1847 4.83813 17.7203 4.83813H0.842301C0.377877 4.83813 0 5.21596 0 5.68044V16.2125C0 16.6769 0.377877 17.0548 0.842301 17.0548H1.72098C1.92224 18.249 2.96295 19.1618 4.21351 19.1618C5.09203 19.1618 5.86694 18.7109 6.3201 18.0287C6.77336 18.7109 7.54844 19.1618 8.42717 19.1618C9.67741 19.1618 10.7179 18.249 10.9191 17.0548H16.9019C17.1031 18.249 18.1438 19.1618 19.3944 19.1618C20.6446 19.1618 21.6851 18.249 21.8864 17.0548H23.5789C23.8115 17.0548 24.0001 16.8662 24.0001 16.6337V12.8576C24 12.8279 23.9968 12.7984 23.9907 12.7694ZM23.0579 12.4365H20.306C20.2783 12.4307 20.2495 12.4277 20.22 12.4277C19.9831 12.4277 19.7903 12.235 19.7903 11.998V9.03653H22.3296L23.0579 12.4365ZM0.842301 5.68049H17.7203V14.7414C17.2968 15.1165 16.9998 15.631 16.9018 16.2126H10.9192C10.7181 15.0184 9.67751 14.1056 8.42717 14.1056C7.54849 14.1056 6.77336 14.5564 6.3201 15.2386C5.86694 14.5564 5.09203 14.1056 4.21351 14.1056C2.9629 14.1056 1.92208 15.0184 1.72093 16.2126H0.842301V5.68049ZM4.21351 18.3195C3.28387 18.3195 2.52753 17.5632 2.52753 16.6336C2.52753 15.7041 3.28387 14.9479 4.21351 14.9479C5.14283 14.9479 5.8989 15.704 5.8989 16.6336C5.8989 17.5632 5.14283 18.3195 4.21351 18.3195ZM8.42717 18.3195C7.49753 18.3195 6.7412 17.5632 6.7412 16.6336C6.7412 15.7041 7.49753 14.9479 8.42717 14.9479C9.35649 14.9479 10.1126 15.704 10.1126 16.6336C10.1126 17.5632 9.35649 18.3195 8.42717 18.3195ZM19.3944 18.3195C18.4648 18.3195 17.7084 17.5632 17.7084 16.6336C17.7084 15.7041 18.4648 14.9479 19.3944 14.9479C20.3237 14.9479 21.0798 15.704 21.0798 16.6336C21.0798 17.5632 20.3237 18.3195 19.3944 18.3195ZM21.8864 16.2126C21.6853 15.0184 20.6447 14.1056 19.3944 14.1056C19.103 14.1056 18.8233 14.1557 18.5626 14.2468V7.36277H21.0686C21.5424 7.36277 22.0192 7.73702 22.1467 8.19423H19.3692C19.1366 8.19423 18.948 8.3828 18.948 8.61538V11.998C18.948 12.6642 19.4629 13.2124 20.1157 13.2657C20.1491 13.2743 20.184 13.2788 20.22 13.2788H23.1577V13.6956H22.7477C22.5151 13.6956 22.3266 13.8841 22.3266 14.1167C22.3266 14.3493 22.5151 14.5379 22.7477 14.5379H23.1577V16.2126H21.8864V16.2126Z" fill="#421C63"/>
<path d="M2.10572 7.36269H16.4243C16.6568 7.36269 16.8454 7.17412 16.8454 6.94154C16.8454 6.70896 16.6568 6.52039 16.4243 6.52039H2.10572C1.87314 6.52039 1.68457 6.70896 1.68457 6.94154C1.68457 7.17412 1.87314 7.36269 2.10572 7.36269Z" fill="#421C63"/>
</g>
<defs>
<clipPath id="clip0_1110_6829">
<rect width="24" height="24" fill="white"/>
</clipPath>
</defs>
</svg>
