<?xml version="1.0" standalone="no"?>
<!DOCTYPE svg PUBLIC "-//W3C//DTD SVG 1.1//EN" "http://www.w3.org/Graphics/SVG/1.1/DTD/svg11.dtd">
<svg xmlns="http://www.w3.org/2000/svg">
<defs >
<font id="IBMPlexSans" horiz-adv-x="581" ><font-face
    font-family="IBM Plex Sans Light"
    units-per-em="1000"
    panose-1="2 11 4 3 5 2 3 0 2 3"
    ascent="1025"
    descent="-275"
    alphabetic="0" />
<glyph unicode=" " glyph-name="space" horiz-adv-x="236" />
<glyph unicode="!" glyph-name="exclam" horiz-adv-x="272" d="M121 181L105 464V698H167V464L150 181H121ZM136 -9Q111 -9 100 3T88 36V47Q88 67 99 79T136 92Q160 92 172 80T184 47V36Q184 16 172 4T136 -9Z" />
<glyph unicode="&quot;" glyph-name="quotedbl" horiz-adv-x="400" d="M90 472V740H142V472H90ZM258 472V740H310V472H258Z" />
<glyph unicode="#" glyph-name="numbersign" horiz-adv-x="713" d="M416 211H250L213 0H166L202 211H66V255H210L242 443H105V487H250L286 698H333L297 487H463L499 698H547L510 487H647V443H502L471 255H608V211H463L427 0H379L416 211ZM423 255L455 443H289L257
255H423Z" />
<glyph unicode="$" glyph-name="dollar" horiz-adv-x="578" d="M270 -82V0Q191 4 138 36T48 117L91 154Q125 110 167 83T270 51V337L258 339Q205 348 169 364T110 404T77 458T67 523Q67 564 81 595T123 649T187 683T270 698V780H314V699Q383 694 431 667T512 593L468
560Q442 597 405 619T314 647V384L331 381Q384 372 420 355T478 314T510 260T520 194Q520 106 465 57T314 0V-82H270ZM463 191Q463 255 427 287T321 329L314 330V51Q384 57 423 93T463 191ZM124 526Q124 495 133 473T160 435T203 409T260 393L270 391V647Q202 642
163 612T124 526Z" />
<glyph unicode="%" glyph-name="percent" horiz-adv-x="908" d="M185 0L669 698H725L241 0H185ZM221 319Q152 319 111 367T69 514Q69 614 110 662T221 710Q290 710 331 662T373 514Q373 415 332 367T221 319ZM221 357Q266 357 293 389T321 490V539Q321 608 294
640T221 672Q176 672 149 640T121 539V490Q121 421 148 389T221 357ZM687 -12Q618 -12 577 36T535 183Q535 283 576 331T687 379Q756 379 797 331T839 183Q839 84 798 36T687 -12ZM687 26Q732 26 759 58T787 159V208Q787 277 760 309T687 341Q642 341 615 309T587
208V159Q587 90 614 58T687 26Z" />
<glyph unicode="&amp;" glyph-name="ampersand" horiz-adv-x="687" d="M492 95Q479 76 460 57T415 23T355 -2T280 -12Q230 -12 192 2T126 41T85 100T71 175Q71 215 84 245T118 299T166 341T224 375Q184 419 161 459T138 547Q138 582 150 612T186 663T241 697T314
710Q351 710 381 699T433 669T467 623T479 564Q479 529 466 501T429 450T374 406T305 367L486 179Q502 218 509 264T519 361H644V311H566Q557 216 522 141L657 0H583L492 95ZM311 662Q258 662 227 631T195 555V541Q195 506 217 472T273 400Q303 415 330 431T378
467T411 506T423 551V564Q423 587 414 605T390 636T354 655T311 662ZM131 169Q131 109 173 74T284 39Q345 39 388 63T459 130L255 342Q230 329 208 315T168 283T141 242T131 186V169Z" />
<glyph unicode="&apos;" glyph-name="quotesingle" horiz-adv-x="232" d="M90 472V740H142V472H90Z" />
<glyph unicode="(" glyph-name="parenleft" horiz-adv-x="334" d="M92 312Q92 386 106 453T146 577T204 681T274 760H330Q290 724 257 677T199 576T160 462T146 344V278Q146 219 160 160T199 47T257 -55T330 -137H274Q238 -106 205 -60T147 44T107 169T92 312Z" />
<glyph unicode=")" glyph-name="parenright" horiz-adv-x="334" d="M242 312Q242 237 227 170T187 45T129 -59T60 -137H4Q43 -103 76 -56T135 46T174 160T188 278V344Q188 403 174 462T136 575T78 677T4 760H60Q97 728 130 682T188 578T227 453T242 312Z" />
<glyph unicode="*" glyph-name="asterisk" horiz-adv-x="416" d="M122 407L82 436L174 557L29 598L44 647L187 596L183 747H233L229 596L371 647L387 598L242 557L334 436L294 407L208 532L122 407Z" />
<glyph unicode="+" glyph-name="plus" horiz-adv-x="600" d="M273 63V281H65V330H273V548H327V330H535V281H327V63H273Z" />
<glyph unicode="," glyph-name="comma" horiz-adv-x="260" d="M130 92Q155 92 166 79T178 46V33Q178 -9 155 -56T92 -138H44Q77 -104 94 -72T118 -7Q98 -5 90 6T82 34V46Q82 66 93 79T130 92Z" />
<glyph unicode="-" glyph-name="hyphen" horiz-adv-x="397" d="M74 274V335H323V274H74Z" />
<glyph unicode="." glyph-name="period" horiz-adv-x="260" d="M130 -9Q105 -9 94 3T82 36V47Q82 67 93 79T130 92Q154 92 166 80T178 47V36Q178 16 166 4T130 -9Z" />
<glyph unicode="/" glyph-name="slash" horiz-adv-x="356" d="M11 -151L263 740H314L62 -151H11Z" />
<glyph unicode="0" glyph-name="zero" horiz-adv-x="600" d="M300 -12Q64 -12 64 349Q64 710 300 710Q536 710 536 349Q536 -12 300 -12ZM300 40Q388 40 430 110T473 302V396Q473 518 431 588T300 658Q211 658 169 588T127 396V302Q127 180 169 110T300 40Z" />
<glyph unicode="1" glyph-name="one" horiz-adv-x="600" d="M90 0V53H294V654H289L97 483L63 521L262 698H354V53H546V0H90Z" />
<glyph unicode="2" glyph-name="two" horiz-adv-x="600" d="M528 0H80V61L324 295Q373 343 404 393T435 497V516Q435 578 399 617T291 656Q221 656 184 621T130 530L76 550Q86 582 103 611T146 662T209 697T293 710Q342 710 380 696T445 655T485 593T499 511Q499
473 489 440T461 376T417 316T360 257L145 53H528V0Z" />
<glyph unicode="3" glyph-name="three" horiz-adv-x="600" d="M268 392Q340 392 380 427T421 520V533Q421 592 382 624T282 656Q221 656 185 632T126 565L81 597Q93 619 111 639T153 676T210 701T283 710Q326 710 363 698T427 664T469 609T485 535Q485 464 446
424T349 370V366Q380 361 407 348T454 312T487 259T499 189Q499 144 483 107T438 43T367 3T274 -12Q190 -12 138 20T53 102L98 136Q127 91 167 67T273 42Q349 42 392 79T435 183V199Q435 265 393 302T273 340H185V392H268Z" />
<glyph unicode="4" glyph-name="four" horiz-adv-x="600" d="M389 0V146H42V199L360 698H446V196H554V146H446V0H389ZM98 196H389V647H386L98 196Z" />
<glyph unicode="5" glyph-name="five" horiz-adv-x="600" d="M491 645H179L157 353L163 352Q189 389 224 407T315 426Q361 426 399 412T464 370T505 303T520 213Q520 162 505 121T460 50T390 4T296 -12Q255 -12 222 -4T163 20T117 57T80 102L125 136Q154 91 192
67T296 42Q374 42 415 84T457 200V217Q457 290 417 332T299 375Q272 375 251 371T214 358T184 338T157 311L105 319L130 698H491V645Z" />
<glyph unicode="6" glyph-name="six" horiz-adv-x="600" d="M301 -12Q245 -12 203 6T133 58T90 139T75 244Q75 325 97 394T156 521T238 622T333 698H412Q354 658 309 618T230 534T174 438T138 326L142 325Q168 372 210 399T316 427Q362 427 400 412T466 370T509
303T524 214Q524 163 508 122T463 51T393 5T301 -12ZM300 40Q376 40 419 83T462 200V217Q462 290 420 333T300 376Q222 376 180 333T137 217V201Q137 127 180 84T300 40Z" />
<glyph unicode="7" glyph-name="seven" horiz-adv-x="600" d="M180 0L460 646H126V502H72V698H521V645L244 0H180Z" />
<glyph unicode="8" glyph-name="eight" horiz-adv-x="600" d="M300 -12Q243 -12 199 3T125 44T79 106T63 186Q63 259 103 303T210 363V370Q153 386 120 429T86 535Q86 615 142 662T300 710Q401 710 457 663T514 535Q514 472 481 429T390 370V363Q457 348 497 304T537
186Q537 143 522 107T476 44T401 3T300 -12ZM300 40Q381 40 427 77T473 179V202Q473 267 427 304T300 341Q219 341 173 304T127 202V179Q127 115 173 78T300 40ZM300 392Q372 392 412 424T452 516V534Q452 592 412 625T300 658Q228 658 188 625T148 534V516Q148
457 188 425T300 392Z" />
<glyph unicode="9" glyph-name="nine" horiz-adv-x="600" d="M525 454Q525 373 503 304T444 177T362 76T267 0H189Q247 40 292 80T370 164T426 259T462 372L458 373Q432 326 390 299T284 271Q238 271 200 286T134 328T91 395T76 484Q76 535 92 576T137 647T207
693T300 710Q355 710 397 692T467 640T510 559T525 454ZM301 322Q378 322 420 365T463 481V497Q463 571 420 614T301 658Q224 658 181 615T138 498V481Q138 408 180 365T301 322Z" />
<glyph unicode=":" glyph-name="colon" horiz-adv-x="280" d="M140 -9Q115 -9 104 3T92 36V47Q92 67 103 79T140 92Q164 92 176 80T188 47V36Q188 16 176 4T140 -9ZM140 420Q115 420 104 432T92 465V476Q92 496 103 508T140 521Q164 521 176 509T188 476V465Q188
445 176 433T140 420Z" />
<glyph unicode=";" glyph-name="semicolon" horiz-adv-x="280" d="M140 92Q165 92 176 79T188 46V33Q188 -9 165 -56T102 -138H54Q87 -104 104 -72T128 -7Q108 -5 100 6T92 34V46Q92 66 103 79T140 92ZM140 420Q115 420 104 432T92 465V476Q92 496 103 508T140
521Q164 521 176 509T188 476V465Q188 445 176 433T140 420Z" />
<glyph unicode="&lt;" glyph-name="less" horiz-adv-x="600" d="M88 260V316L512 568V508L143 291V285L512 68V8L88 260Z" />
<glyph unicode="=" glyph-name="equal" horiz-adv-x="600" d="M65 377V426H535V377H65ZM65 186V235H535V186H65Z" />
<glyph unicode="&gt;" glyph-name="greater" horiz-adv-x="600" d="M88 68L457 285V291L88 508V568L512 316V260L88 8V68Z" />
<glyph unicode="?" glyph-name="question" horiz-adv-x="469" d="M186 196V363Q274 366 322 406T371 513V532Q371 589 335 623T236 658Q171 658 134 624T81 533L28 552Q38 586 55 615T98 665T159 698T238 710Q329 710 381 660T433 525Q433 479 418 444T377 383T316
342T242 321V196H186ZM214 -9Q190 -9 179 3T167 36V47Q167 68 178 80T214 92Q239 92 250 80T262 47V36Q262 15 251 3T214 -9Z" />
<glyph unicode="@" glyph-name="at" horiz-adv-x="887" d="M678 -121H444Q361 -121 292 -93T173 -10T95 120T67 293Q67 387 95 463T174 594T295 679T451 709Q523 709 590 687T708 617T789 497T820 326Q820 273 811 227T783 145T732 90T658 69Q614 69 590 92T560
152H557Q539 117 509 93T428 69Q391 69 360 82T305 123T268 192T255 288Q255 343 268 384T304 454T359 495T428 509Q478 509 507 486T550 432H554V498H604V183Q604 146 620 130T666 113Q716 113 743 165T771 308V354Q771 424 747 481T679 580T577 643T450 665Q377
665 316 639T210 567T141 459T116 323V267Q116 191 140 128T208 19T312 -52T445 -77H678V-121ZM437 117Q491 117 522 145T554 224V357Q554 403 523 432T437 461Q375 461 345 424T315 320V256Q315 193 345 155T437 117Z" />
<glyph unicode="A" glyph-name="A" horiz-adv-x="625" d="M536 0L460 217H163L87 0H27L274 698H351L599 0H536ZM313 641H309L178 269H444L313 641Z" />
<glyph unicode="B" glyph-name="B" horiz-adv-x="638" d="M99 698H372Q454 698 500 652T547 522Q547 486 538 459T513 414T479 385T440 370V366Q464 363 488 352T531 320T562 269T574 197Q574 154 562 118T526 56T470 15T397 0H99V698ZM159 53H381Q444 53 477
87T510 177V214Q510 268 477 302T381 337H159V53ZM159 389H366Q423 389 453 419T483 498V536Q483 584 453 614T366 645H159V389Z" />
<glyph unicode="C" glyph-name="C" horiz-adv-x="617" d="M335 -12Q205 -12 134 78T63 347Q63 524 134 617T335 710Q419 710 476 670T566 561L517 532Q494 589 448 622T335 656Q237 656 182 586T127 386V307Q127 178 182 110T335 42Q405 42 452 77T522 173L571
144Q540 72 480 30T335 -12Z" />
<glyph unicode="D" glyph-name="D" horiz-adv-x="666" d="M99 698H321Q456 698 529 611T603 349Q603 174 530 87T321 0H99V698ZM322 53Q425 53 482 119T539 303V395Q539 512 482 578T322 645H159V53H322Z" />
<glyph unicode="E" glyph-name="E" horiz-adv-x="574" d="M99 0V698H507V645H159V381H490V328H159V53H507V0H99Z" />
<glyph unicode="F" glyph-name="F" horiz-adv-x="550" d="M99 0V698H498V645H159V381H475V328H159V0H99Z" />
<glyph unicode="G" glyph-name="G" horiz-adv-x="684" d="M553 107H550Q531 53 479 21T345 -12Q280 -12 228 11T140 80T83 193T63 349Q63 437 83 504T140 617T230 686T349 710Q439 710 500 669T593 561L544 532Q518 590 468 623T349 656Q298 656 257 638T187 586T143
503T127 392V307Q127 181 187 112T354 42Q394 42 429 52T492 84T534 137T550 212V296H387V348H609V0H553V107Z" />
<glyph unicode="H" glyph-name="H" horiz-adv-x="701" d="M542 328H159V0H99V698H159V381H542V698H602V0H542V328Z" />
<glyph unicode="I" glyph-name="I" horiz-adv-x="390" d="M63 0V50H165V648H63V698H327V648H225V50H327V0H63Z" />
<glyph unicode="J" glyph-name="J" horiz-adv-x="493" d="M399 698V182Q399 89 348 39T210 -12Q136 -12 88 28T26 134L79 147Q91 101 123 71T212 41Q275 41 307 79T339 191V645H97V698H399Z" />
<glyph unicode="K" glyph-name="K" horiz-adv-x="610" d="M272 360L159 235V0H99V698H159V305H161L273 434L503 698H576L313 401L589 0H515L272 360Z" />
<glyph unicode="L" glyph-name="L" horiz-adv-x="491" d="M99 0V698H159V53H467V0H99Z" />
<glyph unicode="M" glyph-name="M" horiz-adv-x="804" d="M647 621H643L402 194L161 621H157V0H99V698H181L402 305H405L626 698H705V0H647V621Z" />
<glyph unicode="N" glyph-name="N" horiz-adv-x="701" d="M160 616H157V0H99V698H174L541 82H544V698H602V0H527L160 616Z" />
<glyph unicode="O" glyph-name="O" horiz-adv-x="697" d="M349 -12Q215 -12 139 79T63 349Q63 527 139 618T349 710Q482 710 558 618T634 349Q634 172 558 80T349 -12ZM349 42Q399 42 439 59T509 111T554 194T570 305V393Q570 455 554 504T509 586T440 638T349
656Q299 656 258 638T188 587T143 504T127 393V305Q127 243 143 194T188 111T258 60T349 42Z" />
<glyph unicode="P" glyph-name="P" horiz-adv-x="601" d="M99 0V698H373Q464 698 512 646T560 503Q560 412 512 360T373 307H159V0H99ZM159 360H373Q433 360 464 393T496 479V527Q496 578 465 611T373 645H159V360Z" />
<glyph unicode="Q" glyph-name="Q" horiz-adv-x="697" d="M488 -157H387Q356 -157 341 -140T325 -96V-11Q201 -3 132 88T63 349Q63 527 139 618T349 710Q482 710 558 618T634 349Q634 182 568 92T382 -10V-106H488V-157ZM349 42Q399 42 439 59T509 111T554 194T570
305V393Q570 455 554 504T509 586T440 638T349 656Q299 656 258 638T188 587T143 504T127 393V305Q127 243 143 194T188 111T258 60T349 42Z" />
<glyph unicode="R" glyph-name="R" horiz-adv-x="636" d="M159 0H99V698H373Q463 698 511 647T560 504Q560 423 521 373T406 313L578 0H511L344 309H159V0ZM373 360Q433 360 464 393T496 479V527Q496 578 465 611T373 645H159V360H373Z" />
<glyph unicode="S" glyph-name="S" horiz-adv-x="568" d="M284 -12Q198 -12 141 20T42 107L87 144Q124 95 170 68T286 41Q367 41 410 79T454 187Q454 251 417 281T313 325L251 338Q151 358 106 405T61 525Q61 571 77 605T122 663T193 698T285 710Q363 710 417
682T506 603L461 570Q432 612 389 634T282 657Q207 657 164 625T120 527Q120 465 159 436T263 394L325 381Q429 358 471 310T513 190Q513 94 452 41T284 -12Z" />
<glyph unicode="T" glyph-name="T" horiz-adv-x="568" d="M314 645V0H254V645H20V698H548V645H314Z" />
<glyph unicode="U" glyph-name="U" horiz-adv-x="668" d="M153 698V267Q153 209 162 167T192 97T248 56T334 42Q385 42 419 55T475 96T506 166T515 267V698H575V280Q575 203 562 148T521 58T446 5T332 -12Q265 -12 219 5T145 57T105 148T93 280V698H153Z" />
<glyph unicode="V" glyph-name="V" horiz-adv-x="594" d="M258 0L24 698H89L295 61H299L507 698H570L334 0H258Z" />
<glyph unicode="W" glyph-name="W" horiz-adv-x="884" d="M200 0L24 698H88L237 74H240L405 698H478L641 74H644L798 698H860L678 0H608L441 631H439L270 0H200Z" />
<glyph unicode="X" glyph-name="X" horiz-adv-x="592" d="M566 0H494L296 309H294L95 0H26L257 355L33 698H104L295 403H297L490 698H559L333 358L566 0Z" />
<glyph unicode="Y" glyph-name="Y" horiz-adv-x="575" d="M257 0V283L16 698H84L286 346H289L491 698H559L317 286V0H257Z" />
<glyph unicode="Z" glyph-name="Z" horiz-adv-x="570" d="M537 0H37V55L456 645H59V698H521V643L101 53H537V0Z" />
<glyph unicode="[" glyph-name="bracketleft" horiz-adv-x="311" d="M99 -138V760H247V715H149V-93H247V-138H99Z" />
<glyph unicode="\" glyph-name="backslash" horiz-adv-x="356" d="M289 -151L40 740H92L341 -151H289Z" />
<glyph unicode="]" glyph-name="bracketright" horiz-adv-x="311" d="M212 760V-138H64V-93H162V715H64V760H212Z" />
<glyph unicode="^" glyph-name="asciicircum" horiz-adv-x="600" d="M499 306L302 644H298L101 306L57 330L269 698H331L543 330L499 306Z" />
<glyph unicode="_" glyph-name="underscore" horiz-adv-x="567" d="M30 -156V-106H537V-156H30Z" />
<glyph unicode="`" glyph-name="grave" horiz-adv-x="600" d="M193 742L245 768L340 604L302 586L193 742Z" />
<glyph unicode="a" glyph-name="a" horiz-adv-x="527" d="M445 0Q412 0 397 17T380 63V81H375Q358 38 319 13T220 -12Q139 -12 95 27T51 139Q51 207 99 247T259 287H377V347Q377 474 246 474Q195 474 161 453T106 391L70 421Q91 466 134 495T248 524Q338 524 386
479T434 353V50H503V0H445ZM228 37Q259 37 286 45T333 67T365 102T377 149V244H257Q180 244 146 220T111 152V128Q111 83 143 60T228 37Z" />
<glyph unicode="b" glyph-name="b" horiz-adv-x="574" d="M93 740H150V430H153Q172 473 211 498T309 524Q408 524 464 454T520 256Q520 128 464 58T309 -12Q250 -12 212 13T153 82H150V0H93V740ZM296 39Q373 39 416 88T459 220V292Q459 375 416 424T296 473Q266
473 240 465T193 441T162 405T150 359V156Q150 129 161 108T193 71T239 47T296 39Z" />
<glyph unicode="c" glyph-name="c" horiz-adv-x="496" d="M273 -12Q167 -12 110 58T52 256Q52 384 109 454T273 524Q344 524 388 493T455 411L407 387Q389 429 357 451T273 473Q195 473 154 423T113 292V220Q113 139 154 89T273 39Q326 39 362 62T420 128L462
100Q437 49 391 19T273 -12Z" />
<glyph unicode="d" glyph-name="d" horiz-adv-x="574" d="M424 82H421Q401 39 363 14T265 -12Q166 -12 110 58T54 256Q54 384 110 454T265 524Q324 524 363 499T421 430H424V740H481V0H424V82ZM278 39Q308 39 334 47T381 70T412 107T424 156V359Q424 384 413 405T381
441T335 464T278 473Q201 473 158 424T115 292V220Q115 137 158 88T278 39Z" />
<glyph unicode="e" glyph-name="e" horiz-adv-x="543" d="M276 -12Q225 -12 184 6T113 58T68 143T52 256Q52 319 67 368T112 452T183 505T275 524Q324 524 364 506T432 454T475 375T491 272V245H112V220Q112 180 123 147T156 89T209 52T279 38Q391 38 434 141L476
113Q452 56 401 22T276 -12ZM275 476Q238 476 208 463T157 425T124 368T112 294V289H429V297Q429 337 418 370T387 427T338 463T275 476Z" />
<glyph unicode="f" glyph-name="f" horiz-adv-x="309" d="M117 462H29V512H117V655Q117 694 136 717T197 740H287V690H174V512H287V462H174V0H117V462Z" />
<glyph unicode="g" glyph-name="g" horiz-adv-x="529" d="M513 -60Q513 -138 451 -175T267 -212Q150 -212 98 -178T46 -84Q46 -40 69 -14T134 24V32Q86 51 86 102Q86 140 111 160T173 190V194Q128 214 103 254T78 350Q78 389 91 421T128 476T187 511T264 524Q323
524 367 499V524Q367 547 378 561T414 576H502V526H398V477Q424 454 438 422T452 350Q452 311 439 279T401 224T342 188T265 175Q251 175 238 177T212 181Q179 172 158 157T136 115Q136 69 218 69H337Q430 69 471 35T513 -60ZM458 -64Q458 -27 432 -6T337 16H171Q138
5 119 -17T100 -72Q100 -112 133 -138T233 -165H297Q372 -165 415 -141T458 -64ZM265 221Q324 221 357 250T391 334V366Q391 419 358 448T265 478Q205 478 172 449T139 366V334Q139 280 172 251T265 221Z" />
<glyph unicode="h" glyph-name="h" horiz-adv-x="563" d="M93 740H150V431H153Q170 471 206 497T304 524Q386 524 431 474T477 329V0H420V319Q420 397 387 435T289 473Q262 473 237 466T193 445T162 410T150 360V0H93V740Z" />
<glyph unicode="i" glyph-name="i" horiz-adv-x="243" d="M121 651Q101 651 92 661T82 687V697Q82 713 91 723T121 733Q141 733 150 723T160 697V687Q160 671 151 661T121 651ZM93 512H150V0H93V512Z" />
<glyph unicode="j" glyph-name="j" horiz-adv-x="243" d="M93 512H150V-115Q150 -154 131 -177T70 -200H8V-150H93V512ZM121 651Q101 651 92 661T82 687V697Q82 713 91 723T121 733Q141 733 150 723T160 697V687Q160 671 151 661T121 651Z" />
<glyph unicode="k" glyph-name="k" horiz-adv-x="513" d="M93 740H150V251H153L233 336L403 512H473L272 304L495 0H425L231 268L150 186V0H93V740Z" />
<glyph unicode="l" glyph-name="l" horiz-adv-x="264" d="M156 0Q125 0 109 17T93 62V740H150V50H229V0H156Z" />
<glyph unicode="m" glyph-name="m" horiz-adv-x="876" d="M93 0V512H150V431H153Q161 450 173 466T202 496T242 516T298 524Q353 524 395 498T456 416H459Q473 461 512 492T620 524Q702 524 746 474T790 329V0H733V319Q733 473 604 473Q577 473 553 466T511 445T481
409T470 359V0H413V319Q413 473 285 473Q259 473 235 466T191 445T161 410T150 360V0H93Z" />
<glyph unicode="n" glyph-name="n" horiz-adv-x="563" d="M93 0V512H150V431H153Q170 471 206 497T304 524Q386 524 431 474T477 329V0H420V319Q420 397 387 435T289 473Q262 473 237 466T193 445T162 410T150 360V0H93Z" />
<glyph unicode="o" glyph-name="o" horiz-adv-x="550" d="M275 -12Q224 -12 183 6T113 58T68 143T52 256Q52 319 68 368T113 452T183 505T275 524Q326 524 367 506T437 453T482 369T498 256Q498 193 482 143T437 59T367 6T275 -12ZM275 39Q350 39 393 86T437 224V288Q437
378 394 425T275 473Q200 473 157 426T113 288V224Q113 134 156 87T275 39Z" />
<glyph unicode="p" glyph-name="p" horiz-adv-x="574" d="M93 512H150V430H153Q172 473 211 498T309 524Q408 524 464 454T520 256Q520 128 464 58T309 -12Q250 -12 212 13T153 82H150V-200H93V512ZM296 39Q373 39 416 88T459 220V292Q459 375 416 424T296 473Q266
473 240 465T193 441T162 405T150 359V156Q150 129 161 108T193 71T239 47T296 39Z" />
<glyph unicode="q" glyph-name="q" horiz-adv-x="574" d="M424 82H421Q401 39 363 14T265 -12Q166 -12 110 58T54 256Q54 384 110 454T265 524Q324 524 363 499T421 430H424V512H481V-200H424V82ZM278 39Q308 39 334 47T381 70T412 107T424 156V359Q424 384 413
405T381 441T335 464T278 473Q201 473 158 424T115 292V220Q115 137 158 88T278 39Z" />
<glyph unicode="r" glyph-name="r" horiz-adv-x="357" d="M93 0V512H150V420H154Q169 456 205 484T307 512H341V456H296Q232 456 191 428T150 350V0H93Z" />
<glyph unicode="s" glyph-name="s" horiz-adv-x="477" d="M238 -12Q171 -12 124 13T41 86L83 119Q115 77 153 57T242 37Q301 37 333 62T365 134Q365 175 341 198T260 230L218 237Q183 242 154 252T105 279T73 320T61 380Q61 416 74 443T111 488T166 515T235 524Q299
524 340 502T410 445L372 410Q352 434 319 454T232 475Q177 475 147 451T116 383Q116 338 143 318T226 289L267 283Q345 271 382 237T420 140Q420 68 372 28T238 -12Z" />
<glyph unicode="t" glyph-name="t" horiz-adv-x="335" d="M181 0Q150 0 134 17T118 63V462H29V512H87Q108 512 115 520T123 551V655H175V512H291V462H175V50H283V0H181Z" />
<glyph unicode="u" glyph-name="u" horiz-adv-x="563" d="M413 81H409Q402 63 390 46T360 17T318 -4T260 -12Q178 -12 132 38T86 183V512H143V194Q143 115 177 77T275 39Q302 39 326 46T370 67T401 102T413 153V512H470V0H413V81Z" />
<glyph unicode="v" glyph-name="v" horiz-adv-x="476" d="M21 512H81L238 61H242L398 512H456L271 0H206L21 512Z" />
<glyph unicode="w" glyph-name="w" horiz-adv-x="752" d="M33 512H89L212 51H214L350 512H403L540 51H542L664 512H719L575 0H505L376 431H374L246 0H177L33 512Z" />
<glyph unicode="x" glyph-name="x" horiz-adv-x="493" d="M26 0L216 258L33 512H100L246 303H249L398 512H462L280 262L467 0H400L249 216H247L90 0H26Z" />
<glyph unicode="y" glyph-name="y" horiz-adv-x="479" d="M399 512H457L220 -144Q208 -176 191 -188T135 -200H77V-150H163L212 -15L22 512H82L239 61H243L399 512Z" />
<glyph unicode="z" glyph-name="z" horiz-adv-x="446" d="M31 0V49L341 462H40V512H409V467L95 50H417V0H31Z" />
<glyph unicode="{" glyph-name="braceleft" horiz-adv-x="332" d="M179 -138Q150 -138 135 -121T120 -78V191Q120 235 94 256T23 278V344Q67 344 93 365T120 431V700Q120 726 135 743T179 760H269V715H170V437Q170 389 144 357T74 319V303Q117 298 143 266T170
185V-93H269V-138H179Z" />
<glyph unicode="|" glyph-name="bar" horiz-adv-x="285" d="M118 -138V760H167V-138H118Z" />
<glyph unicode="}" glyph-name="braceright" horiz-adv-x="332" d="M153 760Q182 760 197 743T212 700V431Q212 387 238 366T309 344V278Q265 278 239 257T212 191V-78Q212 -104 197 -121T153 -138H63V-93H162V185Q162 233 188 265T259 303V319Q215 324 189 356T162
437V715H63V760H153Z" />
<glyph unicode="~" glyph-name="asciitilde" horiz-adv-x="600" d="M421 245Q387 245 359 254T292 282Q257 298 231 307T176 317Q150 317 131 309T88 281L63 313Q85 338 111 351T179 365Q213 365 241 356T308 328Q343 312 369 303T424 293Q450 293 469 301T512
329L537 297Q515 272 489 259T421 245Z" />
<glyph unicode="&#xa0;" glyph-name="uni00A0" horiz-adv-x="236" />
<glyph unicode="&#xa1;" glyph-name="exclamdown" horiz-adv-x="272" d="M104 -185V49L121 331H150L166 49V-185H104ZM136 420Q111 420 100 432T88 465V476Q88 496 99 508T136 521Q160 521 172 509T184 476V465Q184 445 172 433T136 420Z" />
<glyph unicode="&#xa2;" glyph-name="cent" horiz-adv-x="497" d="M242 -114V-10Q151 0 102 69T52 256Q52 374 101 443T242 522V626H292V523Q353 520 393 490T455 411L409 388Q391 426 363 448T291 473V39Q337 42 369 65T421 127L463 99Q440 51 398 22T292 -11V-114H242ZM113
220Q113 147 146 99T243 42V471Q180 462 147 414T113 292V220Z" />
<glyph unicode="&#xa3;" glyph-name="sterling" horiz-adv-x="589" d="M82 0V71Q124 94 144 136T164 230Q164 248 162 264T156 296H64V346H142Q129 384 117 421T105 503Q105 550 120 588T165 653T234 695T326 710Q398 710 449 681T534 594L488 562Q460 609 420
633T324 657Q252 657 209 617T166 498Q166 455 178 419T202 346H419V296H215Q218 282 220 268T222 236Q222 178 199 131T140 57V54H520V0H82Z" />
<glyph unicode="&#xa4;" glyph-name="currency" horiz-adv-x="602" d="M301 123Q213 123 160 174L55 68L20 103L128 211Q112 238 104 272T95 349Q95 391 103 425T128 487L20 595L55 630L160 524Q213 575 301 575Q389 575 442 524L547 630L582 595L474 487Q490
460 498 426T507 349Q507 307 499 273T474 211L582 103L547 68L442 174Q389 123 301 123ZM301 171Q368 171 407 209T446 321V377Q446 450 407 488T301 527Q234 527 195 489T156 377V321Q156 248 195 210T301 171Z" />
<glyph unicode="&#xa5;" glyph-name="yen" horiz-adv-x="595" d="M327 154V0H268V154H83V202H268V315H83V363H239L39 698H107L298 369H302L490 698H556L356 363H512V315H327V202H512V154H327Z" />
<glyph unicode="&#xa6;" glyph-name="brokenbar" horiz-adv-x="285" d="M118 404V760H167V404H118ZM118 -138V218H167V-138H118Z" />
<glyph unicode="&#xa7;" glyph-name="section" horiz-adv-x="578" d="M442 261Q442 310 412 338T319 385L255 404Q245 406 236 409T218 417Q180 396 158 366T136 294Q136 245 166 217T258 170L322 152Q332 149 341 146T359 138Q397 160 419 189T442 261ZM462 -3Q462
-39 448 -67T409 -115T350 -145T274 -155Q224 -155 184 -141T112 -99L145 -59Q169 -79 200 -92T275 -105Q337 -105 371 -79T406 -4Q406 42 375 66T294 106L229 126Q154 149 117 186T80 281Q80 332 109 369T189 426V432Q155 454 135 485T115 559Q115 595 129 623T168
670T227 700T303 710Q403 710 465 654L432 614Q408 635 377 647T302 660Q240 660 206 634T171 559Q171 513 202 489T283 450L347 430Q423 406 460 369T498 275Q498 223 469 186T388 129V124Q423 102 442 71T462 -3Z" />
<glyph unicode="&#xa8;" glyph-name="dieresis" horiz-adv-x="600" d="M208 627Q187 627 178 637T169 663V673Q169 689 178 699T208 709Q228 709 237 699T247 673V663Q247 647 238 637T208 627ZM392 627Q372 627 363 637T353 663V673Q353 689 362 699T392 709Q413
709 422 699T431 673V663Q431 647 422 637T392 627Z" />
<glyph unicode="&#xa9;" glyph-name="copyright" horiz-adv-x="748" d="M374 -11Q303 -11 243 14T139 86T70 199T45 349Q45 432 70 498T139 612T243 684T374 709Q444 709 504 684T609 612T678 499T703 349Q703 266 678 200T609 86T505 14T374 -11ZM374 32Q436
32 487 54T575 115T632 207T653 322V376Q653 438 633 491T576 583T488 644T374 666Q312 666 261 644T173 583T116 491T95 376V322Q95 260 115 207T172 115T260 54T374 32ZM377 153Q303 153 261 204T219 348Q219 440 261 491T378 543Q428 543 460 520T507 458L466
437Q455 466 434 482T378 498Q328 498 301 465T273 371V324Q273 264 300 231T378 198Q413 198 435 215T473 261L513 238Q496 201 462 177T377 153Z" />
<glyph unicode="&#xaa;" glyph-name="ordfeminine" horiz-adv-x="381" d="M308 356Q264 356 264 396V407H260Q249 385 223 368T149 350Q96 350 68 376T40 444Q40 544 180 544H261V583Q261 625 240 645T177 665Q143 665 119 651T83 611L51 635Q65 663 96 683T179
704Q239 704 273 674T307 586V397H348V356H308ZM158 387Q178 387 196 392T229 406T252 428T261 460V509H179Q87 509 87 454V443Q87 415 105 401T158 387Z" />
<glyph unicode="&#xab;" glyph-name="guillemotleft" horiz-adv-x="497" d="M230 90L35 261V315L230 486L248 447L92 288L248 129L230 90ZM428 90L233 261V315L428 486L446 447L290 288L446 129L428 90Z" />
<glyph unicode="&#xac;" glyph-name="logicalnot" horiz-adv-x="600" d="M478 88V281H65V330H529V88H478Z" />
<glyph unicode="&#xad;" glyph-name="uni00AD" horiz-adv-x="397" d="M74 274V335H323V274H74Z" />
<glyph unicode="&#xae;" glyph-name="registered" horiz-adv-x="472" d="M236 298Q194 298 158 313T96 356T54 421T38 504Q38 549 53 586T95 651T158 694T236 710Q278 710 314 695T376 652T418 587T434 504Q434 459 419 422T377 357T314 314T236 298ZM236 329Q272
329 302 342T354 377T388 430T400 493V515Q400 548 388 578T354 630T302 666T236 679Q200 679 170 666T118 631T84 578T72 515V493Q72 460 84 430T118 378T170 342T236 329ZM196 396H165V607H251Q281 607 298 591T315 544Q315 518 303 504T273 484L323 396H289L242
481H196V396ZM250 506Q282 506 282 535V551Q282 581 250 581H196V506H250Z" />
<glyph unicode="&#xaf;" glyph-name="overscore" horiz-adv-x="600" d="M164 694H436V645H164V694Z" />
<glyph unicode="&#xb0;" glyph-name="degree" horiz-adv-x="466" d="M233 370Q197 370 167 383T115 419T80 473T67 540Q67 576 79 607T114 661T167 697T233 710Q269 710 299 697T351 661T386 607T399 540Q399 504 387 473T352 419T299 383T233 370ZM233 416Q260
416 281 426T317 452T340 491T348 540Q348 565 340 588T317 627T281 654T233 664Q206 664 185 654T149 628T126 588T118 540Q118 514 126 492T149 453T185 426T233 416Z" />
<glyph unicode="&#xb1;" glyph-name="plusminus" horiz-adv-x="600" d="M273 137V350H65V399H273V612H327V399H535V350H327V137H273ZM65 0V49H535V0H65Z" />
<glyph unicode="&#xb2;" glyph-name="twosuperior" horiz-adv-x="346" d="M307 329H41V372L174 480Q209 509 227 535T245 590V598Q245 628 226 647T168 666Q129 666 108 648T76 600L37 614Q49 650 81 677T171 704Q231 704 262 674T294 597Q294 555 269 522T199
453L90 366H307V329Z" />
<glyph unicode="&#xb3;" glyph-name="threesuperior" horiz-adv-x="346" d="M157 539Q202 539 222 556T242 602V607Q242 635 222 651T166 667Q133 667 112 655T76 621L44 646Q61 670 90 687T167 704Q223 704 256 679T290 609Q290 573 269 552T215 524V521Q251
515 274 493T297 431Q297 382 261 353T161 323Q110 323 80 341T31 385L65 410Q81 388 102 374T161 360Q204 360 226 379T249 431V437Q249 469 228 485T162 502H114V539H157Z" />
<glyph unicode="&#xb4;" glyph-name="acute" horiz-adv-x="600" d="M297 586L260 604L355 768L407 742L297 586Z" />
<glyph unicode="&#xb5;" glyph-name="mu" horiz-adv-x="570" d="M93 -200V512H150V194Q150 115 184 77T282 39Q309 39 333 46T377 67T408 103T420 154V512H477V0H420V81H417Q410 63 398 46T368 17T326 -4T269 -12Q178 -12 147 55H144L150 -45V-200H93Z" />
<glyph unicode="&#xb6;" glyph-name="paragraph" horiz-adv-x="628" d="M248 312Q207 312 172 326T110 366T68 427T52 505Q52 547 67 582T109 643T171 683T248 698H540V650H472V-149H419V650H301V-149H248V312Z" />
<glyph unicode="&#xb7;" glyph-name="middot" horiz-adv-x="316" d="M158 255Q133 255 122 267T110 300V311Q110 331 121 343T158 356Q182 356 194 344T206 311V300Q206 280 194 268T158 255Z" />
<glyph unicode="&#xb8;" glyph-name="cedilla" horiz-adv-x="600" d="M311 -205Q275 -205 252 -194T219 -168L247 -137Q257 -149 272 -157T311 -165Q333 -165 347 -156T361 -126Q361 -110 348 -99T296 -83L265 -80L284 13H322L305 -66L307 -68Q327 -63 343 -63Q372
-63 391 -79T411 -127Q411 -164 382 -184T311 -205Z" />
<glyph unicode="&#xb9;" glyph-name="onesuperior" horiz-adv-x="364" d="M57 329V366H174V661H169L65 566L39 593L151 698H220V366H326V329H57Z" />
<glyph unicode="&#xba;" glyph-name="ordmasculine" horiz-adv-x="386" d="M193 350Q123 350 84 397T45 527Q45 609 84 656T193 704Q263 704 302 657T341 527Q341 445 302 398T193 350ZM193 389Q242 389 267 421T292 501V553Q292 601 267 633T193 665Q144 665
119 633T94 553V501Q94 453 119 421T193 389Z" />
<glyph unicode="&#xbb;" glyph-name="guillemotright" horiz-adv-x="497" d="M51 129L207 288L51 447L69 486L264 315V261L69 90L51 129ZM249 129L405 288L249 447L267 486L462 315V261L267 90L249 129Z" />
<glyph unicode="&#xbc;" glyph-name="onequarter" horiz-adv-x="851" d="M57 329V366H174V661H169L65 566L39 593L151 698H220V366H326V329H57ZM184 0L655 698H704L233 0H184ZM723 0V79H525V118L705 369H767V115H827V79H767V0H723ZM723 327H720L566 115H723V327Z" />
<glyph unicode="&#xbd;" glyph-name="onehalf" horiz-adv-x="865" d="M57 329V366H174V661H169L65 566L39 593L151 698H220V366H326V329H57ZM184 0L655 698H704L233 0H184ZM826 0H560V43L693 151Q728 180 746 207T764 261V269Q764 299 745 318T687 337Q648 337
627 319T595 271L556 285Q568 321 600 348T690 375Q750 375 781 345T813 268Q813 226 788 193T718 124L609 37H826V0Z" />
<glyph unicode="&#xbe;" glyph-name="threequarters" horiz-adv-x="829" d="M157 539Q202 539 222 556T242 602V607Q242 635 222 651T166 667Q133 667 112 655T76 621L44 646Q61 670 90 687T167 704Q223 704 256 679T290 609Q290 573 269 552T215 524V521Q251
515 274 493T297 431Q297 382 261 353T161 323Q110 323 80 341T31 385L65 410Q81 388 102 374T161 360Q204 360 226 379T249 431V437Q249 469 228 485T162 502H114V539H157ZM162 0L633 698H682L211 0H162ZM701 0V79H503V118L683 369H745V115H805V79H745V0H701ZM701
327H698L544 115H701V327Z" />
<glyph unicode="&#xbf;" glyph-name="questiondown" horiz-adv-x="463" d="M231 -198Q140 -198 88 -148T36 -13Q36 33 51 68T92 129T153 169T227 190V316H282V149Q194 146 146 106T98 -1V-20Q98 -77 134 -111T233 -146Q297 -146 335 -112T387 -21L440 -40Q431
-74 414 -103T371 -153T310 -186T231 -198ZM256 420Q231 420 220 432T208 465V476Q208 496 219 508T256 521Q280 521 292 509T304 476V465Q304 445 292 433T256 420Z" />
<glyph unicode="&#xc0;" glyph-name="Agrave" horiz-adv-x="625" d="M536 0L460 217H163L87 0H27L274 698H351L599 0H536ZM313 641H309L178 269H444L313 641ZM206 916L258 942L353 778L315 760L206 916Z" />
<glyph unicode="&#xc1;" glyph-name="Aacute" horiz-adv-x="625" d="M536 0L460 217H163L87 0H27L274 698H351L599 0H536ZM313 641H309L178 269H444L313 641ZM310 760L273 778L368 942L420 916L310 760Z" />
<glyph unicode="&#xc2;" glyph-name="Acircumflex" horiz-adv-x="625" d="M536 0L460 217H163L87 0H27L274 698H351L599 0H536ZM313 641H309L178 269H444L313 641ZM348 930L466 791L434 768L313 888L192 768L160 791L278 930H348Z" />
<glyph unicode="&#xc3;" glyph-name="Atilde" horiz-adv-x="625" d="M536 0L460 217H163L87 0H27L274 698H351L599 0H536ZM313 641H309L178 269H444L313 641ZM385 792Q362 792 344 800T306 820Q283 833 268 838T238 844Q221 844 207 837T177 815L152 844Q168 864
190 878T241 892Q264 892 282 884T320 864Q343 851 358 846T388 840Q405 840 419 847T449 869L474 840Q458 820 436 806T385 792Z" />
<glyph unicode="&#xc4;" glyph-name="Adieresis" horiz-adv-x="625" d="M536 0L460 217H163L87 0H27L274 698H351L599 0H536ZM313 641H309L178 269H444L313 641ZM221 800Q200 800 191 810T181 837V847Q181 863 190 873T221 884Q241 884 250 874T260 847V837Q260
821 251 811T221 800ZM405 800Q385 800 376 810T366 837V847Q366 863 375 873T405 884Q426 884 435 874T445 847V837Q445 821 436 811T405 800Z" />
<glyph unicode="&#xc5;" glyph-name="Aring" horiz-adv-x="625" d="M536 0L460 217H163L87 0H27L274 698H351L599 0H536ZM313 641H309L178 269H444L313 641ZM313 755Q267 755 237 784T207 861Q207 907 237 936T313 966Q359 966 389 937T419 861Q419 814 389 785T313
755ZM313 792Q342 792 359 808T376 852V869Q376 898 359 913T313 929Q284 929 267 914T250 869V852Q250 824 267 808T313 792Z" />
<glyph unicode="&#xc6;" glyph-name="AE" horiz-adv-x="888" d="M413 216H178L65 0H3L370 698H822V645H473V381H805V328H473V53H822V0H413V216ZM401 645L203 269H413V645H401Z" />
<glyph unicode="&#xc7;" glyph-name="Ccedilla" horiz-adv-x="617" d="M335 656Q237 656 182 586T127 386V307Q127 178 182 110T335 42Q405 42 452 77T522 173L571 144Q542 76 487 35T353 -11L341 -66L343 -68Q363 -63 379 -63Q408 -63 427 -79T447 -127Q447 -164
418 -184T347 -205Q311 -205 288 -194T255 -168L283 -137Q293 -149 308 -157T347 -165Q369 -165 383 -156T398 -126Q398 -110 385 -99T332 -83L301 -80L315 -11Q195 -5 129 85T63 347Q63 524 134 617T335 710Q419 710 476 670T566 561L517 532Q494 589 448 622T335
656Z" />
<glyph unicode="&#xc8;" glyph-name="Egrave" horiz-adv-x="574" d="M99 0V698H507V645H159V381H490V328H159V53H507V0H99ZM195 916L247 942L342 778L304 760L195 916Z" />
<glyph unicode="&#xc9;" glyph-name="Eacute" horiz-adv-x="574" d="M99 0V698H507V645H159V381H490V328H159V53H507V0H99ZM299 760L262 778L357 942L409 916L299 760Z" />
<glyph unicode="&#xca;" glyph-name="Ecircumflex" horiz-adv-x="574" d="M99 0V698H507V645H159V381H490V328H159V53H507V0H99ZM337 930L455 791L423 768L302 888L181 768L149 791L267 930H337Z" />
<glyph unicode="&#xcb;" glyph-name="Edieresis" horiz-adv-x="574" d="M99 0V698H507V645H159V381H490V328H159V53H507V0H99ZM210 800Q189 800 180 810T170 837V847Q170 863 179 873T210 884Q230 884 239 874T249 847V837Q249 821 240 811T210 800ZM394 800Q374
800 365 810T355 837V847Q355 863 364 873T394 884Q415 884 424 874T434 847V837Q434 821 425 811T394 800Z" />
<glyph unicode="&#xcc;" glyph-name="Igrave" horiz-adv-x="390" d="M63 0V50H165V648H63V698H327V648H225V50H327V0H63ZM344 916L396 942L491 778L453 760L344 916Z" />
<glyph unicode="&#xcd;" glyph-name="Iacute" horiz-adv-x="390" d="M63 0V50H165V648H63V698H327V648H225V50H327V0H63ZM448 760L411 778L506 942L558 916L448 760Z" />
<glyph unicode="&#xce;" glyph-name="Icircumflex" horiz-adv-x="390" d="M63 0V50H165V648H63V698H327V648H225V50H327V0H63ZM486 930L604 791L572 768L451 888L330 768L298 791L416 930H486Z" />
<glyph unicode="&#xcf;" glyph-name="Idieresis" horiz-adv-x="390" d="M63 0V50H165V648H63V698H327V648H225V50H327V0H63ZM359 800Q338 800 329 810T319 837V847Q319 863 328 873T359 884Q379 884 388 874T398 847V837Q398 821 389 811T359 800ZM543 800Q523
800 514 810T504 837V847Q504 863 513 873T543 884Q564 884 573 874T583 847V837Q583 821 574 811T543 800Z" />
<glyph unicode="&#xd0;" glyph-name="Eth" horiz-adv-x="669" d="M102 346H21V392H102V698H324Q459 698 532 611T606 349Q606 174 533 87T324 0H102V346ZM325 53Q428 53 485 119T542 303V395Q542 512 485 578T325 645H162V392H312V346H162V53H325Z" />
<glyph unicode="&#xd1;" glyph-name="Ntilde" horiz-adv-x="701" d="M160 616H157V0H99V698H174L541 82H544V698H602V0H527L160 616ZM422 792Q399 792 381 800T343 820Q320 833 305 838T275 844Q258 844 244 837T214 815L189 844Q205 864 227 878T278 892Q301
892 319 884T357 864Q380 851 395 846T425 840Q442 840 456 847T486 869L511 840Q495 820 473 806T422 792Z" />
<glyph unicode="&#xd2;" glyph-name="Ograve" horiz-adv-x="697" d="M349 -12Q215 -12 139 79T63 349Q63 527 139 618T349 710Q482 710 558 618T634 349Q634 172 558 80T349 -12ZM349 42Q399 42 439 59T509 111T554 194T570 305V393Q570 455 554 504T509 586T440
638T349 656Q299 656 258 638T188 587T143 504T127 393V305Q127 243 143 194T188 111T258 60T349 42ZM242 916L294 942L389 778L351 760L242 916Z" />
<glyph unicode="&#xd3;" glyph-name="Oacute" horiz-adv-x="697" d="M349 -12Q215 -12 139 79T63 349Q63 527 139 618T349 710Q482 710 558 618T634 349Q634 172 558 80T349 -12ZM349 42Q399 42 439 59T509 111T554 194T570 305V393Q570 455 554 504T509 586T440
638T349 656Q299 656 258 638T188 587T143 504T127 393V305Q127 243 143 194T188 111T258 60T349 42ZM346 760L309 778L404 942L456 916L346 760Z" />
<glyph unicode="&#xd4;" glyph-name="Ocircumflex" horiz-adv-x="697" d="M349 -12Q215 -12 139 79T63 349Q63 527 139 618T349 710Q482 710 558 618T634 349Q634 172 558 80T349 -12ZM349 42Q399 42 439 59T509 111T554 194T570 305V393Q570 455 554 504T509
586T440 638T349 656Q299 656 258 638T188 587T143 504T127 393V305Q127 243 143 194T188 111T258 60T349 42ZM384 930L502 791L470 768L349 888L228 768L196 791L314 930H384Z" />
<glyph unicode="&#xd5;" glyph-name="Otilde" horiz-adv-x="697" d="M349 -12Q215 -12 139 79T63 349Q63 527 139 618T349 710Q482 710 558 618T634 349Q634 172 558 80T349 -12ZM349 42Q399 42 439 59T509 111T554 194T570 305V393Q570 455 554 504T509 586T440
638T349 656Q299 656 258 638T188 587T143 504T127 393V305Q127 243 143 194T188 111T258 60T349 42ZM421 792Q398 792 380 800T342 820Q319 833 304 838T274 844Q257 844 243 837T213 815L188 844Q204 864 226 878T277 892Q300 892 318 884T356 864Q379 851 394
846T424 840Q441 840 455 847T485 869L510 840Q494 820 472 806T421 792Z" />
<glyph unicode="&#xd6;" glyph-name="Odieresis" horiz-adv-x="697" d="M349 -12Q215 -12 139 79T63 349Q63 527 139 618T349 710Q482 710 558 618T634 349Q634 172 558 80T349 -12ZM349 42Q399 42 439 59T509 111T554 194T570 305V393Q570 455 554 504T509 586T440
638T349 656Q299 656 258 638T188 587T143 504T127 393V305Q127 243 143 194T188 111T258 60T349 42ZM257 800Q236 800 227 810T217 837V847Q217 863 226 873T257 884Q277 884 286 874T296 847V837Q296 821 287 811T257 800ZM441 800Q421 800 412 810T402 837V847Q402
863 411 873T441 884Q462 884 471 874T481 847V837Q481 821 472 811T441 800Z" />
<glyph unicode="&#xd7;" glyph-name="multiply" horiz-adv-x="600" d="M300 270L132 100L97 135L265 305L97 475L132 510L300 340L468 510L503 475L335 305L503 135L468 100L300 270Z" />
<glyph unicode="&#xd8;" glyph-name="Oslash" horiz-adv-x="697" d="M349 -12Q240 -12 170 50L108 -40L66 -13L135 85Q63 178 63 349Q63 527 139 618T349 710Q455 710 527 649L589 738L631 711L562 613Q634 520 634 349Q634 172 558 80T349 -12ZM127 305Q127 253
138 211T169 136L494 602Q438 656 349 656Q299 656 258 638T188 587T143 504T127 393V305ZM570 393Q570 497 528 562L203 96Q258 42 349 42Q399 42 439 59T509 111T554 194T570 305V393Z" />
<glyph unicode="&#xd9;" glyph-name="Ugrave" horiz-adv-x="668" d="M153 698V267Q153 209 162 167T192 97T248 56T334 42Q385 42 419 55T475 96T506 166T515 267V698H575V280Q575 203 562 148T521 58T446 5T332 -12Q265 -12 219 5T145 57T105 148T93 280V698H153ZM225
916L277 942L372 778L334 760L225 916Z" />
<glyph unicode="&#xda;" glyph-name="Uacute" horiz-adv-x="668" d="M153 698V267Q153 209 162 167T192 97T248 56T334 42Q385 42 419 55T475 96T506 166T515 267V698H575V280Q575 203 562 148T521 58T446 5T332 -12Q265 -12 219 5T145 57T105 148T93 280V698H153ZM329
760L292 778L387 942L439 916L329 760Z" />
<glyph unicode="&#xdb;" glyph-name="Ucircumflex" horiz-adv-x="668" d="M153 698V267Q153 209 162 167T192 97T248 56T334 42Q385 42 419 55T475 96T506 166T515 267V698H575V280Q575 203 562 148T521 58T446 5T332 -12Q265 -12 219 5T145 57T105 148T93 280V698H153ZM367
930L485 791L453 768L332 888L211 768L179 791L297 930H367Z" />
<glyph unicode="&#xdc;" glyph-name="Udieresis" horiz-adv-x="668" d="M153 698V267Q153 209 162 167T192 97T248 56T334 42Q385 42 419 55T475 96T506 166T515 267V698H575V280Q575 203 562 148T521 58T446 5T332 -12Q265 -12 219 5T145 57T105 148T93 280V698H153ZM240
800Q219 800 210 810T200 837V847Q200 863 209 873T240 884Q260 884 269 874T279 847V837Q279 821 270 811T240 800ZM424 800Q404 800 395 810T385 837V847Q385 863 394 873T424 884Q445 884 454 874T464 847V837Q464 821 455 811T424 800Z" />
<glyph unicode="&#xdd;" glyph-name="Yacute" horiz-adv-x="575" d="M257 0V283L16 698H84L286 346H289L491 698H559L317 286V0H257ZM541 760L504 778L599 942L651 916L541 760Z" />
<glyph unicode="&#xde;" glyph-name="Thorn" horiz-adv-x="601" d="M99 0V698H159V549H373Q464 549 512 497T560 354Q560 264 512 212T373 159H159V0H99ZM159 212H373Q433 212 464 245T496 331V377Q496 429 465 462T373 496H159V212Z" />
<glyph unicode="&#xdf;" glyph-name="germandbls" horiz-adv-x="642" d="M606 140Q606 68 560 28T433 -12Q371 -12 327 9T250 76L290 109Q320 71 354 54T436 37Q492 37 521 62T551 134Q551 174 532 196T466 229L430 237Q400 244 375 254T332 280T304 319T293 376Q293
445 344 480T481 516V525Q481 613 443 658T329 703Q253 703 216 658T178 525V0H121V462H33V512H121V521Q121 573 135 616T175 689T240 735T329 752Q378 752 417 736T482 689T523 616T537 521V471H502Q432 471 390 450T348 379Q348 337 370 318T438 288L473 280Q540
263 573 232T606 140Z" />
<glyph unicode="&#xe0;" glyph-name="agrave" horiz-adv-x="528" d="M445 0Q412 0 397 17T380 63V81H375Q358 38 319 13T220 -12Q139 -12 95 27T51 139Q51 207 99 247T259 287H377V347Q377 474 246 474Q195 474 161 453T106 391L70 421Q91 466 134 495T248 524Q338
524 386 479T434 353V50H503V0H445ZM228 37Q259 37 286 45T333 67T365 102T377 149V244H257Q180 244 146 220T111 152V128Q111 83 143 60T228 37ZM401 742L453 768L548 604L510 586L401 742Z" />
<glyph unicode="&#xe1;" glyph-name="aacute" horiz-adv-x="528" d="M445 0Q412 0 397 17T380 63V81H375Q358 38 319 13T220 -12Q139 -12 95 27T51 139Q51 207 99 247T259 287H377V347Q377 474 246 474Q195 474 161 453T106 391L70 421Q91 466 134 495T248 524Q338
524 386 479T434 353V50H503V0H445ZM228 37Q259 37 286 45T333 67T365 102T377 149V244H257Q180 244 146 220T111 152V128Q111 83 143 60T228 37ZM505 586L468 604L563 768L615 742L505 586Z" />
<glyph unicode="&#xe2;" glyph-name="acircumflex" horiz-adv-x="528" d="M445 0Q412 0 397 17T380 63V81H375Q358 38 319 13T220 -12Q139 -12 95 27T51 139Q51 207 99 247T259 287H377V347Q377 474 246 474Q195 474 161 453T106 391L70 421Q91 466 134 495T248
524Q338 524 386 479T434 353V50H503V0H445ZM228 37Q259 37 286 45T333 67T365 102T377 149V244H257Q180 244 146 220T111 152V128Q111 83 143 60T228 37ZM543 756L661 617L629 594L508 715L387 594L355 617L473 756H543Z" />
<glyph unicode="&#xe3;" glyph-name="atilde" horiz-adv-x="528" d="M445 0Q412 0 397 17T380 63V81H375Q358 38 319 13T220 -12Q139 -12 95 27T51 139Q51 207 99 247T259 287H377V347Q377 474 246 474Q195 474 161 453T106 391L70 421Q91 466 134 495T248 524Q338
524 386 479T434 353V50H503V0H445ZM228 37Q259 37 286 45T333 67T365 102T377 149V244H257Q180 244 146 220T111 152V128Q111 83 143 60T228 37ZM580 618Q557 618 539 626T501 646Q478 660 463 665T433 671Q416 671 402 663T372 641L347 670Q363 690 385 704T436
718Q459 718 477 710T515 690Q538 676 553 671T583 665Q600 665 614 673T644 695L669 666Q653 646 631 632T580 618Z" />
<glyph unicode="&#xe4;" glyph-name="adieresis" horiz-adv-x="528" d="M445 0Q412 0 397 17T380 63V81H375Q358 38 319 13T220 -12Q139 -12 95 27T51 139Q51 207 99 247T259 287H377V347Q377 474 246 474Q195 474 161 453T106 391L70 421Q91 466 134 495T248
524Q338 524 386 479T434 353V50H503V0H445ZM228 37Q259 37 286 45T333 67T365 102T377 149V244H257Q180 244 146 220T111 152V128Q111 83 143 60T228 37ZM416 627Q395 627 386 637T377 663V673Q377 689 386 699T416 709Q436 709 445 699T455 673V663Q455 647 446
637T416 627ZM600 627Q580 627 571 637T561 663V673Q561 689 570 699T600 709Q621 709 630 699T639 673V663Q639 647 630 637T600 627Z" />
<glyph unicode="&#xe5;" glyph-name="aring" horiz-adv-x="528" d="M445 0Q412 0 397 17T380 63V81H375Q358 38 319 13T220 -12Q139 -12 95 27T51 139Q51 207 99 247T259 287H377V347Q377 474 246 474Q195 474 161 453T106 391L70 421Q91 466 134 495T248 524Q338
524 386 479T434 353V50H503V0H445ZM228 37Q259 37 286 45T333 67T365 102T377 149V244H257Q180 244 146 220T111 152V128Q111 83 143 60T228 37ZM508 581Q462 581 432 610T402 687Q402 733 432 762T508 792Q554 792 584 763T614 687Q614 640 584 611T508 581ZM508
618Q537 618 554 634T571 678V695Q571 724 554 739T508 755Q479 755 462 740T445 695V678Q445 650 462 634T508 618Z" />
<glyph unicode="&#xe6;" glyph-name="ae" horiz-adv-x="863" d="M255 245Q178 244 144 220T109 152V128Q109 83 140 60T226 37Q257 37 284 45T331 67T363 102T375 149V245H255ZM749 289V297Q749 337 738 370T707 427T658 463T595 476Q558 476 528 463T477 425T444
368T432 294V289H749ZM599 38Q710 38 754 140L796 113Q772 56 722 22T602 -12Q563 -12 531 -2T475 26T434 65T410 111H406Q401 88 386 66T347 26T290 -1T217 -12Q139 -12 94 27T49 137Q49 207 98 248T257 289H375V347Q375 411 342 443T246 475Q193 475 160 454T104
391L68 421Q89 465 132 494T247 524Q288 524 317 513T365 485T395 445T409 401H413Q420 424 436 446T477 485T532 513T600 524Q648 524 687 506T753 454T796 375T811 272V245H432V220Q432 180 443 147T476 89T529 52T599 38Z" />
<glyph unicode="&#xe7;" glyph-name="ccedilla" horiz-adv-x="496" d="M273 524Q344 524 388 493T455 412L407 387Q389 429 357 451T273 473Q195 473 154 423T113 292V220Q113 139 154 89T273 39Q326 39 362 62T420 128L462 100Q439 52 397 22T290 -11L278 -66L280
-68Q300 -63 316 -63Q345 -63 364 -79T384 -127Q384 -164 355 -184T284 -205Q248 -205 225 -194T192 -168L220 -137Q230 -149 245 -157T284 -165Q306 -165 320 -156T335 -126Q335 -110 322 -99T269 -83L238 -80L252 -11Q155 -4 104 65T52 256Q52 384 109 454T273
524Z" />
<glyph unicode="&#xe8;" glyph-name="egrave" horiz-adv-x="543" d="M276 -12Q225 -12 184 6T113 58T68 143T52 256Q52 319 67 368T112 452T183 505T275 524Q324 524 364 506T432 454T475 375T491 272V245H112V220Q112 180 123 147T156 89T209 52T279 38Q391 38
434 141L476 113Q452 56 401 22T276 -12ZM275 476Q238 476 208 463T157 425T124 368T112 294V289H429V297Q429 337 418 370T387 427T338 463T275 476ZM425 742L477 768L572 604L534 586L425 742Z" />
<glyph unicode="&#xe9;" glyph-name="eacute" horiz-adv-x="543" d="M276 -12Q225 -12 184 6T113 58T68 143T52 256Q52 319 67 368T112 452T183 505T275 524Q324 524 364 506T432 454T475 375T491 272V245H112V220Q112 180 123 147T156 89T209 52T279 38Q391 38
434 141L476 113Q452 56 401 22T276 -12ZM275 476Q238 476 208 463T157 425T124 368T112 294V289H429V297Q429 337 418 370T387 427T338 463T275 476ZM529 586L492 604L587 768L639 742L529 586Z" />
<glyph unicode="&#xea;" glyph-name="ecircumflex" horiz-adv-x="543" d="M276 -12Q225 -12 184 6T113 58T68 143T52 256Q52 319 67 368T112 452T183 505T275 524Q324 524 364 506T432 454T475 375T491 272V245H112V220Q112 180 123 147T156 89T209 52T279 38Q391
38 434 141L476 113Q452 56 401 22T276 -12ZM275 476Q238 476 208 463T157 425T124 368T112 294V289H429V297Q429 337 418 370T387 427T338 463T275 476ZM567 756L685 617L653 594L532 715L411 594L379 617L497 756H567Z" />
<glyph unicode="&#xeb;" glyph-name="edieresis" horiz-adv-x="543" d="M276 -12Q225 -12 184 6T113 58T68 143T52 256Q52 319 67 368T112 452T183 505T275 524Q324 524 364 506T432 454T475 375T491 272V245H112V220Q112 180 123 147T156 89T209 52T279 38Q391
38 434 141L476 113Q452 56 401 22T276 -12ZM275 476Q238 476 208 463T157 425T124 368T112 294V289H429V297Q429 337 418 370T387 427T338 463T275 476ZM440 627Q419 627 410 637T401 663V673Q401 689 410 699T440 709Q460 709 469 699T479 673V663Q479 647 470
637T440 627ZM624 627Q604 627 595 637T585 663V673Q585 689 594 699T624 709Q645 709 654 699T663 673V663Q663 647 654 637T624 627Z" />
<glyph unicode="&#xec;" glyph-name="igrave" horiz-adv-x="243" d="M93 0V512H150V0H93ZM15 742L67 768L162 604L124 586L15 742Z" />
<glyph unicode="&#xed;" glyph-name="iacute" horiz-adv-x="243" d="M93 0V512H150V0H93ZM119 586L82 604L177 768L229 742L119 586Z" />
<glyph unicode="&#xee;" glyph-name="icircumflex" horiz-adv-x="243" d="M93 0V512H150V0H93ZM157 756L275 617L243 594L122 715L1 594L-31 617L87 756H157Z" />
<glyph unicode="&#xef;" glyph-name="idieresis" horiz-adv-x="243" d="M93 0V512H150V0H93ZM30 627Q9 627 0 637T-9 663V673Q-9 689 0 699T30 709Q50 709 59 699T69 673V663Q69 647 60 637T30 627ZM214 627Q194 627 185 637T175 663V673Q175 689 184 699T214
709Q235 709 244 699T253 673V663Q253 647 244 637T214 627Z" />
<glyph unicode="&#xf0;" glyph-name="eth" horiz-adv-x="551" d="M413 722L323 658Q356 626 387 585T442 493T480 385T495 262Q495 195 479 144T433 58T364 6T274 -12Q223 -12 182 6T112 58T68 140T52 247Q52 305 67 352T112 432T182 484T274 502Q324 502 360
480T417 414L421 416Q403 479 366 531T282 629L192 564L169 595L253 655Q225 678 193 700T129 740H218Q238 728 255 716T293 684L389 753L413 722ZM274 37Q310 37 339 49T389 85T422 141T434 215V275Q434 316 423 349T390 405T340 440T274 453Q203 453 159 405T114
275V215Q114 174 125 141T158 85T208 50T274 37Z" />
<glyph unicode="&#xf1;" glyph-name="ntilde" horiz-adv-x="563" d="M93 0V512H150V431H153Q170 471 206 497T304 524Q386 524 431 474T477 329V0H420V319Q420 397 387 435T289 473Q262 473 237 466T193 445T162 410T150 360V0H93ZM615 618Q592 618 574 626T536
646Q513 660 498 665T468 671Q451 671 437 663T407 641L382 670Q398 690 420 704T471 718Q494 718 512 710T550 690Q573 676 588 671T618 665Q635 665 649 673T679 695L704 666Q688 646 666 632T615 618Z" />
<glyph unicode="&#xf2;" glyph-name="ograve" horiz-adv-x="550" d="M275 -12Q224 -12 183 6T113 58T68 143T52 256Q52 319 68 368T113 452T183 505T275 524Q326 524 367 506T437 453T482 369T498 256Q498 193 482 143T437 59T367 6T275 -12ZM275 39Q350 39 393
86T437 224V288Q437 378 394 425T275 473Q200 473 157 426T113 288V224Q113 134 156 87T275 39ZM425 742L477 768L572 604L534 586L425 742Z" />
<glyph unicode="&#xf3;" glyph-name="oacute" horiz-adv-x="550" d="M275 -12Q224 -12 183 6T113 58T68 143T52 256Q52 319 68 368T113 452T183 505T275 524Q326 524 367 506T437 453T482 369T498 256Q498 193 482 143T437 59T367 6T275 -12ZM275 39Q350 39 393
86T437 224V288Q437 378 394 425T275 473Q200 473 157 426T113 288V224Q113 134 156 87T275 39ZM529 586L492 604L587 768L639 742L529 586Z" />
<glyph unicode="&#xf4;" glyph-name="ocircumflex" horiz-adv-x="550" d="M275 -12Q224 -12 183 6T113 58T68 143T52 256Q52 319 68 368T113 452T183 505T275 524Q326 524 367 506T437 453T482 369T498 256Q498 193 482 143T437 59T367 6T275 -12ZM275 39Q350
39 393 86T437 224V288Q437 378 394 425T275 473Q200 473 157 426T113 288V224Q113 134 156 87T275 39ZM567 756L685 617L653 594L532 715L411 594L379 617L497 756H567Z" />
<glyph unicode="&#xf5;" glyph-name="otilde" horiz-adv-x="550" d="M275 -12Q224 -12 183 6T113 58T68 143T52 256Q52 319 68 368T113 452T183 505T275 524Q326 524 367 506T437 453T482 369T498 256Q498 193 482 143T437 59T367 6T275 -12ZM275 39Q350 39 393
86T437 224V288Q437 378 394 425T275 473Q200 473 157 426T113 288V224Q113 134 156 87T275 39ZM604 618Q581 618 563 626T525 646Q502 660 487 665T457 671Q440 671 426 663T396 641L371 670Q387 690 409 704T460 718Q483 718 501 710T539 690Q562 676 577 671T607
665Q624 665 638 673T668 695L693 666Q677 646 655 632T604 618Z" />
<glyph unicode="&#xf6;" glyph-name="odieresis" horiz-adv-x="550" d="M275 -12Q224 -12 183 6T113 58T68 143T52 256Q52 319 68 368T113 452T183 505T275 524Q326 524 367 506T437 453T482 369T498 256Q498 193 482 143T437 59T367 6T275 -12ZM275 39Q350 39
393 86T437 224V288Q437 378 394 425T275 473Q200 473 157 426T113 288V224Q113 134 156 87T275 39ZM440 627Q419 627 410 637T401 663V673Q401 689 410 699T440 709Q460 709 469 699T479 673V663Q479 647 470 637T440 627ZM624 627Q604 627 595 637T585 663V673Q585
689 594 699T624 709Q645 709 654 699T663 673V663Q663 647 654 637T624 627Z" />
<glyph unicode="&#xf7;" glyph-name="divide" horiz-adv-x="600" d="M65 281V330H535V281H65ZM300 63Q272 63 261 74T249 103V120Q249 137 260 148T300 159Q328 159 339 148T351 120V103Q351 86 340 75T300 63ZM300 451Q272 451 261 462T249 491V507Q249 524 260
535T300 547Q328 547 339 536T351 507V491Q351 474 340 463T300 451Z" />
<glyph unicode="&#xf8;" glyph-name="oslash" horiz-adv-x="556" d="M36 -10L104 74Q81 108 68 153T55 256Q55 319 71 368T116 452T186 505T278 524Q365 524 424 470L489 551L521 526L451 439Q475 405 488 359T501 256Q501 193 485 143T440 59T370 6T278 -12Q189
-12 131 43L69 -35L36 -10ZM278 39Q353 39 396 86T440 224V288Q440 354 416 396L164 83Q206 39 278 39ZM116 224Q116 161 139 117L391 430Q350 473 278 473Q203 473 160 426T116 288V224Z" />
<glyph unicode="&#xf9;" glyph-name="ugrave" horiz-adv-x="563" d="M413 81H409Q402 63 390 46T360 17T318 -4T260 -12Q178 -12 132 38T86 183V512H143V194Q143 115 177 77T275 39Q302 39 326 46T370 67T401 102T413 153V512H470V0H413V81ZM428 742L480 768L575
604L537 586L428 742Z" />
<glyph unicode="&#xfa;" glyph-name="uacute" horiz-adv-x="563" d="M413 81H409Q402 63 390 46T360 17T318 -4T260 -12Q178 -12 132 38T86 183V512H143V194Q143 115 177 77T275 39Q302 39 326 46T370 67T401 102T413 153V512H470V0H413V81ZM532 586L495 604L590
768L642 742L532 586Z" />
<glyph unicode="&#xfb;" glyph-name="ucircumflex" horiz-adv-x="563" d="M413 81H409Q402 63 390 46T360 17T318 -4T260 -12Q178 -12 132 38T86 183V512H143V194Q143 115 177 77T275 39Q302 39 326 46T370 67T401 102T413 153V512H470V0H413V81ZM570 756L688
617L656 594L535 715L414 594L382 617L500 756H570Z" />
<glyph unicode="&#xfc;" glyph-name="udieresis" horiz-adv-x="563" d="M413 81H409Q402 63 390 46T360 17T318 -4T260 -12Q178 -12 132 38T86 183V512H143V194Q143 115 177 77T275 39Q302 39 326 46T370 67T401 102T413 153V512H470V0H413V81ZM443 627Q422 627
413 637T404 663V673Q404 689 413 699T443 709Q463 709 472 699T482 673V663Q482 647 473 637T443 627ZM627 627Q607 627 598 637T588 663V673Q588 689 597 699T627 709Q648 709 657 699T666 673V663Q666 647 657 637T627 627Z" />
<glyph unicode="&#xfd;" glyph-name="yacute" horiz-adv-x="481" d="M399 512H457L220 -144Q208 -176 191 -188T135 -200H77V-150H163L212 -15L22 512H82L239 61H243L399 512ZM495 586L458 604L553 768L605 742L495 586Z" />
<glyph unicode="&#xfe;" glyph-name="thorn" horiz-adv-x="574" d="M93 740H150V430H153Q172 473 211 498T309 524Q408 524 464 454T520 256Q520 128 464 58T309 -12Q250 -12 212 13T153 82H150V-200H93V740ZM296 39Q373 39 416 88T459 220V292Q459 375 416 424T296
473Q266 473 240 465T193 441T162 405T150 359V156Q150 129 161 108T193 71T239 47T296 39Z" />
<glyph unicode="&#xff;" glyph-name="ydieresis" horiz-adv-x="481" d="M399 512H457L220 -144Q208 -176 191 -188T135 -200H77V-150H163L212 -15L22 512H82L239 61H243L399 512ZM406 627Q385 627 376 637T367 663V673Q367 689 376 699T406 709Q426 709 435 699T445
673V663Q445 647 436 637T406 627ZM590 627Q570 627 561 637T551 663V673Q551 689 560 699T590 709Q611 709 620 699T629 673V663Q629 647 620 637T590 627Z" />
<glyph unicode="&#x2013;" glyph-name="endash" horiz-adv-x="588" d="M36 278V331H552V278H36Z" />
<glyph unicode="&#x2014;" glyph-name="emdash" horiz-adv-x="780" d="M36 278V331H744V278H36Z" />
<glyph unicode="&#x2018;" glyph-name="quoteleft" horiz-adv-x="260" d="M125 510Q101 510 90 522T78 556V569Q78 589 84 612T101 658T128 702T164 740H212Q179 706 162 674T137 609Q157 606 165 595T174 568V556Q174 535 163 523T125 510Z" />
<glyph unicode="&#x2019;" glyph-name="quoteright" horiz-adv-x="260" d="M134 750Q159 750 170 737T182 704V691Q182 649 159 602T96 520H48Q81 554 98 586T122 651Q103 653 95 664T86 692V704Q86 724 97 737T134 750Z" />
<glyph unicode="&#x201a;" glyph-name="quotesinglbase" horiz-adv-x="260" d="M128 107Q153 107 164 94T176 61V48Q176 6 153 -41T90 -123H42Q75 -89 92 -57T116 8Q97 10 89 21T80 49V61Q80 81 91 94T128 107Z" />
<glyph unicode="&#x201c;" glyph-name="quotedblleft" horiz-adv-x="446" d="M125 510Q101 510 90 522T78 556V569Q78 589 84 612T101 658T128 702T164 740H212Q179 706 162 674T137 609Q157 606 165 595T174 568V556Q174 535 163 523T125 510ZM311 510Q287 510
276 522T264 556V569Q264 589 270 612T287 658T314 702T350 740H398Q365 706 348 674T323 609Q343 606 351 595T360 568V556Q360 535 349 523T311 510Z" />
<glyph unicode="&#x201d;" glyph-name="quotedblright" horiz-adv-x="445" d="M134 750Q159 750 170 737T182 704V691Q182 649 159 602T96 520H48Q81 554 98 586T122 651Q103 653 95 664T86 692V704Q86 724 97 737T134 750ZM319 750Q344 750 355 737T367 704V691Q367
649 344 602T281 520H233Q266 554 283 586T307 651Q288 653 280 664T271 692V704Q271 724 282 737T319 750Z" />
<glyph unicode="&#x201e;" glyph-name="quotedblbase" horiz-adv-x="445" d="M128 107Q153 107 164 94T176 61V48Q176 6 153 -41T90 -123H42Q75 -89 92 -57T116 8Q97 10 89 21T80 49V61Q80 81 91 94T128 107ZM313 107Q338 107 349 94T361 61V48Q361 6 338 -41T275
-123H227Q260 -89 277 -57T301 8Q282 10 274 21T265 49V61Q265 81 276 94T313 107Z" />
<glyph unicode="&#x2022;" glyph-name="bullet" horiz-adv-x="372" d="M186 198Q127 198 103 225T78 291V317Q78 356 102 383T186 410Q245 410 269 383T294 317V291Q294 252 270 225T186 198Z" />
<glyph unicode="&#x2039;" glyph-name="guilsinglleft" horiz-adv-x="299" d="M230 90L35 261V315L230 486L248 447L92 288L248 129L230 90Z" />
<glyph unicode="&#x203a;" glyph-name="guilsinglright" horiz-adv-x="299" d="M51 129L207 288L51 447L69 486L264 315V261L69 90L51 129Z" />
</font>
</defs>
</svg>
