<svg fill="none" height="445" viewBox="0 0 432 445" width="432" xmlns="http://www.w3.org/2000/svg" xmlns:xlink="http://www.w3.org/1999/xlink"><linearGradient id="a" gradientUnits="userSpaceOnUse" x1="94.1051" x2="266.012" y1="370.889" y2="72.8724"><stop offset="0" stop-color="#ff4c84"/><stop offset=".2541" stop-color="#d65ca1"/><stop offset=".8228" stop-color="#6e84e8"/><stop offset="1" stop-color="#4c90ff"/></linearGradient><g fill="#ccdfff"><path d="m244.614 97.8218c.87 0 1.576-.7049 1.576-1.5745 0-.8695-.706-1.5744-1.576-1.5744s-1.576.7049-1.576 1.5744c0 .8696.706 1.5745 1.576 1.5745z"/><path d="m206.794 97.8218c.87 0 1.576-.7049 1.576-1.5745 0-.8695-.706-1.5744-1.576-1.5744-.871 0-1.576.7049-1.576 1.5744 0 .8696.705 1.5745 1.576 1.5745z"/><path d="m168.972 97.8218c.871 0 1.576-.7049 1.576-1.5745 0-.8695-.705-1.5744-1.576-1.5744-.87 0-1.576.7049-1.576 1.5744 0 .8696.706 1.5745 1.576 1.5745z"/><path d="m244.614 135.609c.87 0 1.576-.705 1.576-1.575 0-.869-.706-1.574-1.576-1.574s-1.576.705-1.576 1.574c0 .87.706 1.575 1.576 1.575z"/><path d="m244.614 192.29c.87 0 1.576-.705 1.576-1.575 0-.869-.706-1.574-1.576-1.574s-1.576.705-1.576 1.574c0 .87.706 1.575 1.576 1.575z"/><path d="m206.794 135.609c.87 0 1.576-.705 1.576-1.575 0-.869-.706-1.574-1.576-1.574-.871 0-1.576.705-1.576 1.574 0 .87.705 1.575 1.576 1.575z"/><path d="m168.972 135.609c.871 0 1.576-.705 1.576-1.575 0-.869-.705-1.574-1.576-1.574-.87 0-1.576.705-1.576 1.574 0 .87.706 1.575 1.576 1.575z"/><path d="m206.794 192.29c.87 0 1.576-.705 1.576-1.575 0-.869-.706-1.574-1.576-1.574-.871 0-1.576.705-1.576 1.574 0 .87.705 1.575 1.576 1.575z"/><path d="m168.972 192.29c.871 0 1.576-.705 1.576-1.575 0-.869-.705-1.574-1.576-1.574-.87 0-1.576.705-1.576 1.574 0 .87.706 1.575 1.576 1.575z"/><path d="m225.704 97.8218c.87 0 1.576-.7049 1.576-1.5745 0-.8695-.706-1.5744-1.576-1.5744-.871 0-1.576.7049-1.576 1.5744 0 .8696.705 1.5745 1.576 1.5745z"/><path d="m187.883 97.8218c.87 0 1.575-.7049 1.575-1.5745 0-.8695-.705-1.5744-1.575-1.5744-.871 0-1.576.7049-1.576 1.5744 0 .8696.705 1.5745 1.576 1.5745z"/><path d="m150.062 97.8218c.871 0 1.576-.7049 1.576-1.5745 0-.8695-.705-1.5744-1.576-1.5744-.87 0-1.576.7049-1.576 1.5744 0 .8696.706 1.5745 1.576 1.5745z"/><path d="m131.152 97.8218c.87 0 1.576-.7049 1.576-1.5745 0-.8695-.706-1.5744-1.576-1.5744s-1.576.7049-1.576 1.5744c0 .8696.706 1.5745 1.576 1.5745z"/><path d="m225.704 135.609c.87 0 1.576-.705 1.576-1.575 0-.869-.706-1.574-1.576-1.574-.871 0-1.576.705-1.576 1.574 0 .87.705 1.575 1.576 1.575z"/><path d="m225.704 192.29c.87 0 1.576-.705 1.576-1.575 0-.869-.706-1.574-1.576-1.574-.871 0-1.576.705-1.576 1.574 0 .87.705 1.575 1.576 1.575z"/><path d="m187.883 135.609c.87 0 1.575-.705 1.575-1.575 0-.869-.705-1.574-1.575-1.574-.871 0-1.576.705-1.576 1.574 0 .87.705 1.575 1.576 1.575z"/><path d="m150.062 135.609c.871 0 1.576-.705 1.576-1.575 0-.869-.705-1.574-1.576-1.574-.87 0-1.576.705-1.576 1.574 0 .87.706 1.575 1.576 1.575z"/><path d="m131.152 135.609c.87 0 1.576-.705 1.576-1.575 0-.869-.706-1.574-1.576-1.574s-1.576.705-1.576 1.574c0 .87.706 1.575 1.576 1.575z"/><path d="m187.883 192.29c.87 0 1.575-.705 1.575-1.575 0-.869-.705-1.574-1.575-1.574-.871 0-1.576.705-1.576 1.574 0 .87.705 1.575 1.576 1.575z"/><path d="m150.062 192.29c.871 0 1.576-.705 1.576-1.575 0-.869-.705-1.574-1.576-1.574-.87 0-1.576.705-1.576 1.574 0 .87.706 1.575 1.576 1.575z"/><path d="m131.152 192.29c.87 0 1.576-.705 1.576-1.575 0-.869-.706-1.574-1.576-1.574s-1.576.705-1.576 1.574c0 .87.706 1.575 1.576 1.575z"/><path d="m244.614 116.715c.87 0 1.576-.705 1.576-1.574 0-.87-.706-1.575-1.576-1.575s-1.576.705-1.576 1.575c0 .869.706 1.574 1.576 1.574z"/><path d="m244.614 173.396c.87 0 1.576-.705 1.576-1.574 0-.87-.706-1.575-1.576-1.575s-1.576.705-1.576 1.575c0 .869.706 1.574 1.576 1.574z"/><path d="m206.794 116.715c.87 0 1.576-.705 1.576-1.574 0-.87-.706-1.575-1.576-1.575-.871 0-1.576.705-1.576 1.575 0 .869.705 1.574 1.576 1.574z"/><path d="m168.972 116.715c.871 0 1.576-.705 1.576-1.574 0-.87-.705-1.575-1.576-1.575-.87 0-1.576.705-1.576 1.575 0 .869.706 1.574 1.576 1.574z"/><path d="m206.794 173.396c.87 0 1.576-.705 1.576-1.574 0-.87-.706-1.575-1.576-1.575-.871 0-1.576.705-1.576 1.575 0 .869.705 1.574 1.576 1.574z"/><path d="m168.972 173.396c.871 0 1.576-.705 1.576-1.574 0-.87-.705-1.575-1.576-1.575-.87 0-1.576.705-1.576 1.575 0 .869.706 1.574 1.576 1.574z"/><path d="m244.614 154.503c.87 0 1.576-.705 1.576-1.575 0-.869-.706-1.574-1.576-1.574s-1.576.705-1.576 1.574c0 .87.706 1.575 1.576 1.575z"/><path d="m244.614 211.183c.87 0 1.576-.704 1.576-1.574s-.706-1.574-1.576-1.574-1.576.704-1.576 1.574.706 1.574 1.576 1.574z"/><path d="m206.794 154.503c.87 0 1.576-.705 1.576-1.575 0-.869-.706-1.574-1.576-1.574-.871 0-1.576.705-1.576 1.574 0 .87.705 1.575 1.576 1.575z"/><path d="m168.972 154.503c.871 0 1.576-.705 1.576-1.575 0-.869-.705-1.574-1.576-1.574-.87 0-1.576.705-1.576 1.574 0 .87.706 1.575 1.576 1.575z"/><path d="m206.794 211.183c.87 0 1.576-.704 1.576-1.574s-.706-1.574-1.576-1.574c-.871 0-1.576.704-1.576 1.574s.705 1.574 1.576 1.574z"/><path d="m168.972 211.183c.871 0 1.576-.704 1.576-1.574s-.705-1.574-1.576-1.574c-.87 0-1.576.704-1.576 1.574s.706 1.574 1.576 1.574z"/><path d="m225.704 116.715c.87 0 1.576-.705 1.576-1.574 0-.87-.706-1.575-1.576-1.575-.871 0-1.576.705-1.576 1.575 0 .869.705 1.574 1.576 1.574z"/><path d="m225.704 173.396c.87 0 1.576-.705 1.576-1.574 0-.87-.706-1.575-1.576-1.575-.871 0-1.576.705-1.576 1.575 0 .869.705 1.574 1.576 1.574z"/><path d="m187.883 116.715c.87 0 1.575-.705 1.575-1.574 0-.87-.705-1.575-1.575-1.575-.871 0-1.576.705-1.576 1.575 0 .869.705 1.574 1.576 1.574z"/><path d="m150.062 116.715c.871 0 1.576-.705 1.576-1.574 0-.87-.705-1.575-1.576-1.575-.87 0-1.576.705-1.576 1.575 0 .869.706 1.574 1.576 1.574z"/><path d="m131.152 116.715c.87 0 1.576-.705 1.576-1.574 0-.87-.706-1.575-1.576-1.575s-1.576.705-1.576 1.575c0 .869.706 1.574 1.576 1.574z"/><path d="m187.883 173.396c.87 0 1.575-.705 1.575-1.574 0-.87-.705-1.575-1.575-1.575-.871 0-1.576.705-1.576 1.575 0 .869.705 1.574 1.576 1.574z"/><path d="m150.062 173.396c.871 0 1.576-.705 1.576-1.574 0-.87-.705-1.575-1.576-1.575-.87 0-1.576.705-1.576 1.575 0 .869.706 1.574 1.576 1.574z"/><path d="m131.152 173.396c.87 0 1.576-.705 1.576-1.574 0-.87-.706-1.575-1.576-1.575s-1.576.705-1.576 1.575c0 .869.706 1.574 1.576 1.574z"/><path d="m225.704 154.503c.87 0 1.576-.705 1.576-1.575 0-.869-.706-1.574-1.576-1.574-.871 0-1.576.705-1.576 1.574 0 .87.705 1.575 1.576 1.575z"/><path d="m225.704 211.183c.87 0 1.576-.704 1.576-1.574s-.706-1.574-1.576-1.574c-.871 0-1.576.704-1.576 1.574s.705 1.574 1.576 1.574z"/><path d="m187.883 154.503c.87 0 1.575-.705 1.575-1.575 0-.869-.705-1.574-1.575-1.574-.871 0-1.576.705-1.576 1.574 0 .87.705 1.575 1.576 1.575z"/><path d="m150.062 154.503c.871 0 1.576-.705 1.576-1.575 0-.869-.705-1.574-1.576-1.574-.87 0-1.576.705-1.576 1.574 0 .87.706 1.575 1.576 1.575z"/><path d="m131.152 154.503c.87 0 1.576-.705 1.576-1.575 0-.869-.706-1.574-1.576-1.574s-1.576.705-1.576 1.574c0 .87.706 1.575 1.576 1.575z"/><path d="m187.883 211.183c.87 0 1.575-.704 1.575-1.574s-.705-1.574-1.575-1.574c-.871 0-1.576.704-1.576 1.574s.705 1.574 1.576 1.574z"/><path d="m150.062 211.183c.871 0 1.576-.704 1.576-1.574s-.705-1.574-1.576-1.574c-.87 0-1.576.704-1.576 1.574s.706 1.574 1.576 1.574z"/><path d="m131.152 211.183c.87 0 1.576-.704 1.576-1.574s-.706-1.574-1.576-1.574-1.576.704-1.576 1.574.706 1.574 1.576 1.574z"/><path d="m263.525 97.8218c.87 0 1.576-.7049 1.576-1.5745 0-.8695-.706-1.5744-1.576-1.5744s-1.576.7049-1.576 1.5744c0 .8696.706 1.5745 1.576 1.5745z"/><path d="m263.525 135.609c.87 0 1.576-.705 1.576-1.575 0-.869-.706-1.574-1.576-1.574s-1.576.705-1.576 1.574c0 .87.706 1.575 1.576 1.575z"/><path d="m263.525 192.29c.87 0 1.576-.705 1.576-1.575 0-.869-.706-1.574-1.576-1.574s-1.576.705-1.576 1.574c0 .87.706 1.575 1.576 1.575z"/><path d="m263.525 116.715c.87 0 1.576-.705 1.576-1.574 0-.87-.706-1.575-1.576-1.575s-1.576.705-1.576 1.575c0 .869.706 1.574 1.576 1.574z"/><path d="m263.525 173.396c.87 0 1.576-.705 1.576-1.574 0-.87-.706-1.575-1.576-1.575s-1.576.705-1.576 1.575c0 .869.706 1.574 1.576 1.574z"/><path d="m263.525 154.503c.87 0 1.576-.705 1.576-1.575 0-.869-.706-1.574-1.576-1.574s-1.576.705-1.576 1.574c0 .87.706 1.575 1.576 1.575z"/><path d="m263.525 211.183c.87 0 1.576-.704 1.576-1.574s-.706-1.574-1.576-1.574-1.576.704-1.576 1.574.706 1.574 1.576 1.574z"/><path d="m112.241 97.8218c.87 0 1.576-.7049 1.576-1.5745 0-.8695-.706-1.5744-1.576-1.5744s-1.576.7049-1.576 1.5744c0 .8696.706 1.5745 1.576 1.5745z"/><path d="m74.4206 97.8218c.8703 0 1.5759-.7049 1.5759-1.5745 0-.8695-.7056-1.5744-1.5759-1.5744s-1.5759.7049-1.5759 1.5744c0 .8696.7056 1.5745 1.5759 1.5745z"/><path d="m36.5993 97.8218c.8703 0 1.5759-.7049 1.5759-1.5745 0-.8695-.7056-1.5744-1.5759-1.5744s-1.5759.7049-1.5759 1.5744c0 .8696.7056 1.5745 1.5759 1.5745z"/><path d="m112.241 135.609c.87 0 1.576-.705 1.576-1.575 0-.869-.706-1.574-1.576-1.574s-1.576.705-1.576 1.574c0 .87.706 1.575 1.576 1.575z"/><path d="m112.241 192.29c.87 0 1.576-.705 1.576-1.575 0-.869-.706-1.574-1.576-1.574s-1.576.705-1.576 1.574c0 .87.706 1.575 1.576 1.575z"/><path d="m74.4206 135.609c.8703 0 1.5759-.705 1.5759-1.575 0-.869-.7056-1.574-1.5759-1.574s-1.5759.705-1.5759 1.574c0 .87.7056 1.575 1.5759 1.575z"/><path d="m36.5993 135.609c.8703 0 1.5759-.705 1.5759-1.575 0-.869-.7056-1.574-1.5759-1.574s-1.5759.705-1.5759 1.574c0 .87.7056 1.575 1.5759 1.575z"/><path d="m74.4206 192.29c.8703 0 1.5759-.705 1.5759-1.575 0-.869-.7056-1.574-1.5759-1.574s-1.5759.705-1.5759 1.574c0 .87.7056 1.575 1.5759 1.575z"/><path d="m36.5993 192.29c.8703 0 1.5759-.705 1.5759-1.575 0-.869-.7056-1.574-1.5759-1.574s-1.5759.705-1.5759 1.574c0 .87.7056 1.575 1.5759 1.575z"/><path d="m93.3308 97.8218c.8703 0 1.5758-.7049 1.5758-1.5745 0-.8695-.7055-1.5744-1.5758-1.5744-.8704 0-1.5759.7049-1.5759 1.5744 0 .8696.7055 1.5745 1.5759 1.5745z"/><path d="m55.5104 97.8218c.8704 0 1.5759-.7049 1.5759-1.5745 0-.8695-.7055-1.5744-1.5759-1.5744-.8703 0-1.5758.7049-1.5758 1.5744 0 .8696.7055 1.5745 1.5758 1.5745z"/><path d="m17.6891 97.8218c.8704 0 1.5759-.7049 1.5759-1.5745 0-.8695-.7055-1.5744-1.5759-1.5744-.8703 0-1.5758.7049-1.5758 1.5744 0 .8696.7055 1.5745 1.5758 1.5745z"/><path d="m93.3308 135.609c.8703 0 1.5758-.705 1.5758-1.575 0-.869-.7055-1.574-1.5758-1.574-.8704 0-1.5759.705-1.5759 1.574 0 .87.7055 1.575 1.5759 1.575z"/><path d="m93.3308 192.29c.8703 0 1.5758-.705 1.5758-1.575 0-.869-.7055-1.574-1.5758-1.574-.8704 0-1.5759.705-1.5759 1.574 0 .87.7055 1.575 1.5759 1.575z"/><path d="m55.5104 135.609c.8704 0 1.5759-.705 1.5759-1.575 0-.869-.7055-1.574-1.5759-1.574-.8703 0-1.5758.705-1.5758 1.574 0 .87.7055 1.575 1.5758 1.575z"/><path d="m17.6891 135.609c.8704 0 1.5759-.705 1.5759-1.575 0-.869-.7055-1.574-1.5759-1.574-.8703 0-1.5758.705-1.5758 1.574 0 .87.7055 1.575 1.5758 1.575z"/><path d="m55.5104 192.29c.8704 0 1.5759-.705 1.5759-1.575 0-.869-.7055-1.574-1.5759-1.574-.8703 0-1.5758.705-1.5758 1.574 0 .87.7055 1.575 1.5758 1.575z"/><path d="m17.6891 192.29c.8704 0 1.5759-.705 1.5759-1.575 0-.869-.7055-1.574-1.5759-1.574-.8703 0-1.5758.705-1.5758 1.574 0 .87.7055 1.575 1.5758 1.575z"/><path d="m112.241 116.715c.87 0 1.576-.705 1.576-1.574 0-.87-.706-1.575-1.576-1.575s-1.576.705-1.576 1.575c0 .869.706 1.574 1.576 1.574z"/><path d="m112.241 173.396c.87 0 1.576-.705 1.576-1.574 0-.87-.706-1.575-1.576-1.575s-1.576.705-1.576 1.575c0 .869.706 1.574 1.576 1.574z"/><path d="m74.4206 116.715c.8703 0 1.5759-.705 1.5759-1.574 0-.87-.7056-1.575-1.5759-1.575s-1.5759.705-1.5759 1.575c0 .869.7056 1.574 1.5759 1.574z"/><path d="m36.5993 116.715c.8703 0 1.5759-.705 1.5759-1.574 0-.87-.7056-1.575-1.5759-1.575s-1.5759.705-1.5759 1.575c0 .869.7056 1.574 1.5759 1.574z"/><path d="m74.4206 173.396c.8703 0 1.5759-.705 1.5759-1.574 0-.87-.7056-1.575-1.5759-1.575s-1.5759.705-1.5759 1.575c0 .869.7056 1.574 1.5759 1.574z"/><path d="m36.5993 173.396c.8703 0 1.5759-.705 1.5759-1.574 0-.87-.7056-1.575-1.5759-1.575s-1.5759.705-1.5759 1.575c0 .869.7056 1.574 1.5759 1.574z"/><path d="m112.241 154.503c.87 0 1.576-.705 1.576-1.575 0-.869-.706-1.574-1.576-1.574s-1.576.705-1.576 1.574c0 .87.706 1.575 1.576 1.575z"/><path d="m112.241 211.183c.87 0 1.576-.704 1.576-1.574s-.706-1.574-1.576-1.574-1.576.704-1.576 1.574.706 1.574 1.576 1.574z"/><path d="m74.4206 154.503c.8703 0 1.5759-.705 1.5759-1.575 0-.869-.7056-1.574-1.5759-1.574s-1.5759.705-1.5759 1.574c0 .87.7056 1.575 1.5759 1.575z"/><path d="m36.5993 154.503c.8703 0 1.5759-.705 1.5759-1.575 0-.869-.7056-1.574-1.5759-1.574s-1.5759.705-1.5759 1.574c0 .87.7056 1.575 1.5759 1.575z"/><path d="m74.4206 211.183c.8703 0 1.5759-.704 1.5759-1.574s-.7056-1.574-1.5759-1.574-1.5759.704-1.5759 1.574.7056 1.574 1.5759 1.574z"/><path d="m36.5993 211.183c.8703 0 1.5759-.704 1.5759-1.574s-.7056-1.574-1.5759-1.574-1.5759.704-1.5759 1.574.7056 1.574 1.5759 1.574z"/><path d="m93.3308 116.715c.8703 0 1.5758-.705 1.5758-1.574 0-.87-.7055-1.575-1.5758-1.575-.8704 0-1.5759.705-1.5759 1.575 0 .869.7055 1.574 1.5759 1.574z"/><path d="m93.3308 173.396c.8703 0 1.5758-.705 1.5758-1.574 0-.87-.7055-1.575-1.5758-1.575-.8704 0-1.5759.705-1.5759 1.575 0 .869.7055 1.574 1.5759 1.574z"/><path d="m55.5104 116.715c.8704 0 1.5759-.705 1.5759-1.574 0-.87-.7055-1.575-1.5759-1.575-.8703 0-1.5758.705-1.5758 1.575 0 .869.7055 1.574 1.5758 1.574z"/><path d="m17.6891 116.715c.8704 0 1.5759-.705 1.5759-1.574 0-.87-.7055-1.575-1.5759-1.575-.8703 0-1.5758.705-1.5758 1.575 0 .869.7055 1.574 1.5758 1.574z"/><path d="m55.5104 173.396c.8704 0 1.5759-.705 1.5759-1.574 0-.87-.7055-1.575-1.5759-1.575-.8703 0-1.5758.705-1.5758 1.575 0 .869.7055 1.574 1.5758 1.574z"/><path d="m17.6891 173.396c.8704 0 1.5759-.705 1.5759-1.574 0-.87-.7055-1.575-1.5759-1.575-.8703 0-1.5758.705-1.5758 1.575 0 .869.7055 1.574 1.5758 1.574z"/><path d="m93.3308 154.503c.8703 0 1.5758-.705 1.5758-1.575 0-.869-.7055-1.574-1.5758-1.574-.8704 0-1.5759.705-1.5759 1.574 0 .87.7055 1.575 1.5759 1.575z"/><path d="m93.3308 211.183c.8703 0 1.5758-.704 1.5758-1.574s-.7055-1.574-1.5758-1.574c-.8704 0-1.5759.704-1.5759 1.574s.7055 1.574 1.5759 1.574z"/><path d="m55.5104 154.503c.8704 0 1.5759-.705 1.5759-1.575 0-.869-.7055-1.574-1.5759-1.574-.8703 0-1.5758.705-1.5758 1.574 0 .87.7055 1.575 1.5758 1.575z"/><path d="m17.6891 154.503c.8704 0 1.5759-.705 1.5759-1.575 0-.869-.7055-1.574-1.5759-1.574-.8703 0-1.5758.705-1.5758 1.574 0 .87.7055 1.575 1.5758 1.575z"/><path d="m55.5104 211.183c.8704 0 1.5759-.704 1.5759-1.574s-.7055-1.574-1.5759-1.574c-.8703 0-1.5758.704-1.5758 1.574s.7055 1.574 1.5758 1.574z"/><path d="m17.6891 211.183c.8704 0 1.5759-.704 1.5759-1.574s-.7055-1.574-1.5759-1.574c-.8703 0-1.5758.704-1.5758 1.574s.7055 1.574 1.5758 1.574z"/><path d="m244.614 230.077c.87 0 1.576-.705 1.576-1.574 0-.87-.706-1.575-1.576-1.575s-1.576.705-1.576 1.575c0 .869.706 1.574 1.576 1.574z"/><path d="m206.794 230.077c.87 0 1.576-.705 1.576-1.574 0-.87-.706-1.575-1.576-1.575-.871 0-1.576.705-1.576 1.575 0 .869.705 1.574 1.576 1.574z"/><path d="m168.972 230.077c.871 0 1.576-.705 1.576-1.574 0-.87-.705-1.575-1.576-1.575-.87 0-1.576.705-1.576 1.575 0 .869.706 1.574 1.576 1.574z"/><path d="m244.614 267.864c.87 0 1.576-.705 1.576-1.574 0-.87-.706-1.575-1.576-1.575s-1.576.705-1.576 1.575c0 .869.706 1.574 1.576 1.574z"/><path d="m244.614 324.545c.87 0 1.576-.705 1.576-1.574 0-.87-.706-1.575-1.576-1.575s-1.576.705-1.576 1.575c0 .869.706 1.574 1.576 1.574z"/><path d="m206.794 267.864c.87 0 1.576-.705 1.576-1.574 0-.87-.706-1.575-1.576-1.575-.871 0-1.576.705-1.576 1.575 0 .869.705 1.574 1.576 1.574z"/><path d="m168.972 267.864c.871 0 1.576-.705 1.576-1.574 0-.87-.705-1.575-1.576-1.575-.87 0-1.576.705-1.576 1.575 0 .869.706 1.574 1.576 1.574z"/><path d="m206.794 324.545c.87 0 1.576-.705 1.576-1.574 0-.87-.706-1.575-1.576-1.575-.871 0-1.576.705-1.576 1.575 0 .869.705 1.574 1.576 1.574z"/><path d="m168.972 324.545c.871 0 1.576-.705 1.576-1.574 0-.87-.705-1.575-1.576-1.575-.87 0-1.576.705-1.576 1.575 0 .869.706 1.574 1.576 1.574z"/><path d="m225.704 230.077c.87 0 1.576-.705 1.576-1.574 0-.87-.706-1.575-1.576-1.575-.871 0-1.576.705-1.576 1.575 0 .869.705 1.574 1.576 1.574z"/><path d="m187.883 230.077c.87 0 1.575-.705 1.575-1.574 0-.87-.705-1.575-1.575-1.575-.871 0-1.576.705-1.576 1.575 0 .869.705 1.574 1.576 1.574z"/><path d="m150.062 230.077c.871 0 1.576-.705 1.576-1.574 0-.87-.705-1.575-1.576-1.575-.87 0-1.576.705-1.576 1.575 0 .869.706 1.574 1.576 1.574z"/><path d="m131.152 230.077c.87 0 1.576-.705 1.576-1.574 0-.87-.706-1.575-1.576-1.575s-1.576.705-1.576 1.575c0 .869.706 1.574 1.576 1.574z"/><path d="m225.704 267.864c.87 0 1.576-.705 1.576-1.574 0-.87-.706-1.575-1.576-1.575-.871 0-1.576.705-1.576 1.575 0 .869.705 1.574 1.576 1.574z"/><path d="m225.704 324.545c.87 0 1.576-.705 1.576-1.574 0-.87-.706-1.575-1.576-1.575-.871 0-1.576.705-1.576 1.575 0 .869.705 1.574 1.576 1.574z"/><path d="m187.883 267.864c.87 0 1.575-.705 1.575-1.574 0-.87-.705-1.575-1.575-1.575-.871 0-1.576.705-1.576 1.575 0 .869.705 1.574 1.576 1.574z"/><path d="m150.062 267.864c.871 0 1.576-.705 1.576-1.574 0-.87-.705-1.575-1.576-1.575-.87 0-1.576.705-1.576 1.575 0 .869.706 1.574 1.576 1.574z"/><path d="m131.152 267.864c.87 0 1.576-.705 1.576-1.574 0-.87-.706-1.575-1.576-1.575s-1.576.705-1.576 1.575c0 .869.706 1.574 1.576 1.574z"/><path d="m187.883 324.545c.87 0 1.575-.705 1.575-1.574 0-.87-.705-1.575-1.575-1.575-.871 0-1.576.705-1.576 1.575 0 .869.705 1.574 1.576 1.574z"/><path d="m150.062 324.545c.871 0 1.576-.705 1.576-1.574 0-.87-.705-1.575-1.576-1.575-.87 0-1.576.705-1.576 1.575 0 .869.706 1.574 1.576 1.574z"/><path d="m131.152 324.545c.87 0 1.576-.705 1.576-1.574 0-.87-.706-1.575-1.576-1.575s-1.576.705-1.576 1.575c0 .869.706 1.574 1.576 1.574z"/><path d="m244.614 248.971c.87 0 1.576-.705 1.576-1.575 0-.869-.706-1.574-1.576-1.574s-1.576.705-1.576 1.574c0 .87.706 1.575 1.576 1.575z"/><path d="m244.614 305.651c.87 0 1.576-.704 1.576-1.574s-.706-1.574-1.576-1.574-1.576.704-1.576 1.574.706 1.574 1.576 1.574z"/><path d="m206.794 248.971c.87 0 1.576-.705 1.576-1.575 0-.869-.706-1.574-1.576-1.574-.871 0-1.576.705-1.576 1.574 0 .87.705 1.575 1.576 1.575z"/><path d="m168.972 248.971c.871 0 1.576-.705 1.576-1.575 0-.869-.705-1.574-1.576-1.574-.87 0-1.576.705-1.576 1.574 0 .87.706 1.575 1.576 1.575z"/><path d="m206.794 305.651c.87 0 1.576-.704 1.576-1.574s-.706-1.574-1.576-1.574c-.871 0-1.576.704-1.576 1.574s.705 1.574 1.576 1.574z"/><path d="m168.972 305.651c.871 0 1.576-.704 1.576-1.574s-.705-1.574-1.576-1.574c-.87 0-1.576.704-1.576 1.574s.706 1.574 1.576 1.574z"/><path d="m244.614 286.758c.87 0 1.576-.705 1.576-1.575 0-.869-.706-1.574-1.576-1.574s-1.576.705-1.576 1.574c0 .87.706 1.575 1.576 1.575z"/><path d="m244.614 343.439c.87 0 1.576-.705 1.576-1.575 0-.869-.706-1.574-1.576-1.574s-1.576.705-1.576 1.574c0 .87.706 1.575 1.576 1.575z"/><path d="m206.794 286.758c.87 0 1.576-.705 1.576-1.575 0-.869-.706-1.574-1.576-1.574-.871 0-1.576.705-1.576 1.574 0 .87.705 1.575 1.576 1.575z"/><path d="m168.972 286.758c.871 0 1.576-.705 1.576-1.575 0-.869-.705-1.574-1.576-1.574-.87 0-1.576.705-1.576 1.574 0 .87.706 1.575 1.576 1.575z"/><path d="m206.794 343.439c.87 0 1.576-.705 1.576-1.575 0-.869-.706-1.574-1.576-1.574-.871 0-1.576.705-1.576 1.574 0 .87.705 1.575 1.576 1.575z"/><path d="m168.972 343.439c.871 0 1.576-.705 1.576-1.575 0-.869-.705-1.574-1.576-1.574-.87 0-1.576.705-1.576 1.574 0 .87.706 1.575 1.576 1.575z"/><path d="m225.704 248.971c.87 0 1.576-.705 1.576-1.575 0-.869-.706-1.574-1.576-1.574-.871 0-1.576.705-1.576 1.574 0 .87.705 1.575 1.576 1.575z"/><path d="m225.704 305.651c.87 0 1.576-.704 1.576-1.574s-.706-1.574-1.576-1.574c-.871 0-1.576.704-1.576 1.574s.705 1.574 1.576 1.574z"/><path d="m187.883 248.971c.87 0 1.575-.705 1.575-1.575 0-.869-.705-1.574-1.575-1.574-.871 0-1.576.705-1.576 1.574 0 .87.705 1.575 1.576 1.575z"/><path d="m150.062 248.971c.871 0 1.576-.705 1.576-1.575 0-.869-.705-1.574-1.576-1.574-.87 0-1.576.705-1.576 1.574 0 .87.706 1.575 1.576 1.575z"/><path d="m131.152 248.971c.87 0 1.576-.705 1.576-1.575 0-.869-.706-1.574-1.576-1.574s-1.576.705-1.576 1.574c0 .87.706 1.575 1.576 1.575z"/><path d="m187.883 305.651c.87 0 1.575-.704 1.575-1.574s-.705-1.574-1.575-1.574c-.871 0-1.576.704-1.576 1.574s.705 1.574 1.576 1.574z"/><path d="m150.062 305.651c.871 0 1.576-.704 1.576-1.574s-.705-1.574-1.576-1.574c-.87 0-1.576.704-1.576 1.574s.706 1.574 1.576 1.574z"/><path d="m131.152 305.651c.87 0 1.576-.704 1.576-1.574s-.706-1.574-1.576-1.574-1.576.704-1.576 1.574.706 1.574 1.576 1.574z"/><path d="m225.704 286.758c.87 0 1.576-.705 1.576-1.575 0-.869-.706-1.574-1.576-1.574-.871 0-1.576.705-1.576 1.574 0 .87.705 1.575 1.576 1.575z"/><path d="m225.704 343.439c.87 0 1.576-.705 1.576-1.575 0-.869-.706-1.574-1.576-1.574-.871 0-1.576.705-1.576 1.574 0 .87.705 1.575 1.576 1.575z"/><path d="m187.883 286.758c.87 0 1.575-.705 1.575-1.575 0-.869-.705-1.574-1.575-1.574-.871 0-1.576.705-1.576 1.574 0 .87.705 1.575 1.576 1.575z"/><path d="m150.062 286.758c.871 0 1.576-.705 1.576-1.575 0-.869-.705-1.574-1.576-1.574-.87 0-1.576.705-1.576 1.574 0 .87.706 1.575 1.576 1.575z"/><path d="m131.152 286.758c.87 0 1.576-.705 1.576-1.575 0-.869-.706-1.574-1.576-1.574s-1.576.705-1.576 1.574c0 .87.706 1.575 1.576 1.575z"/><path d="m187.883 343.439c.87 0 1.575-.705 1.575-1.575 0-.869-.705-1.574-1.575-1.574-.871 0-1.576.705-1.576 1.574 0 .87.705 1.575 1.576 1.575z"/><path d="m150.062 343.439c.871 0 1.576-.705 1.576-1.575 0-.869-.705-1.574-1.576-1.574-.87 0-1.576.705-1.576 1.574 0 .87.706 1.575 1.576 1.575z"/><path d="m131.152 343.439c.87 0 1.576-.705 1.576-1.575 0-.869-.706-1.574-1.576-1.574s-1.576.705-1.576 1.574c0 .87.706 1.575 1.576 1.575z"/><path d="m263.525 230.077c.87 0 1.576-.705 1.576-1.574 0-.87-.706-1.575-1.576-1.575s-1.576.705-1.576 1.575c0 .869.706 1.574 1.576 1.574z"/><path d="m263.525 267.864c.87 0 1.576-.705 1.576-1.574 0-.87-.706-1.575-1.576-1.575s-1.576.705-1.576 1.575c0 .869.706 1.574 1.576 1.574z"/><path d="m263.525 324.545c.87 0 1.576-.705 1.576-1.574 0-.87-.706-1.575-1.576-1.575s-1.576.705-1.576 1.575c0 .869.706 1.574 1.576 1.574z"/><path d="m263.525 248.971c.87 0 1.576-.705 1.576-1.575 0-.869-.706-1.574-1.576-1.574s-1.576.705-1.576 1.574c0 .87.706 1.575 1.576 1.575z"/><path d="m263.525 305.651c.87 0 1.576-.704 1.576-1.574s-.706-1.574-1.576-1.574-1.576.704-1.576 1.574.706 1.574 1.576 1.574z"/><path d="m263.525 286.758c.87 0 1.576-.705 1.576-1.575 0-.869-.706-1.574-1.576-1.574s-1.576.705-1.576 1.574c0 .87.706 1.575 1.576 1.575z"/><path d="m263.525 343.439c.87 0 1.576-.705 1.576-1.575 0-.869-.706-1.574-1.576-1.574s-1.576.705-1.576 1.574c0 .87.706 1.575 1.576 1.575z"/><path d="m244.614 60.0346c.87 0 1.576-.705 1.576-1.5745 0-.8696-.706-1.5745-1.576-1.5745s-1.576.7049-1.576 1.5745c0 .8695.706 1.5745 1.576 1.5745z"/><path d="m206.794 60.0346c.87 0 1.576-.705 1.576-1.5745 0-.8696-.706-1.5745-1.576-1.5745-.871 0-1.576.7049-1.576 1.5745 0 .8695.705 1.5745 1.576 1.5745z"/><path d="m168.972 60.0346c.871 0 1.576-.705 1.576-1.5745 0-.8696-.705-1.5745-1.576-1.5745-.87 0-1.576.7049-1.576 1.5745 0 .8695.706 1.5745 1.576 1.5745z"/><path d="m225.704 60.0346c.87 0 1.576-.705 1.576-1.5745 0-.8696-.706-1.5745-1.576-1.5745-.871 0-1.576.7049-1.576 1.5745 0 .8695.705 1.5745 1.576 1.5745z"/><path d="m187.883 60.0346c.87 0 1.575-.705 1.575-1.5745 0-.8696-.705-1.5745-1.575-1.5745-.871 0-1.576.7049-1.576 1.5745 0 .8695.705 1.5745 1.576 1.5745z"/><path d="m150.062 60.0346c.871 0 1.576-.705 1.576-1.5745 0-.8696-.705-1.5745-1.576-1.5745-.87 0-1.576.7049-1.576 1.5745 0 .8695.706 1.5745 1.576 1.5745z"/><path d="m131.152 60.0346c.87 0 1.576-.705 1.576-1.5745 0-.8696-.706-1.5745-1.576-1.5745s-1.576.7049-1.576 1.5745c0 .8695.706 1.5745 1.576 1.5745z"/><path d="m244.614 41.1409c.87 0 1.576-.7049 1.576-1.5745 0-.8695-.706-1.5745-1.576-1.5745s-1.576.705-1.576 1.5745c0 .8696.706 1.5745 1.576 1.5745z"/><path d="m206.794 41.1409c.87 0 1.576-.7049 1.576-1.5745 0-.8695-.706-1.5745-1.576-1.5745-.871 0-1.576.705-1.576 1.5745 0 .8696.705 1.5745 1.576 1.5745z"/><path d="m168.972 41.1409c.871 0 1.576-.7049 1.576-1.5745 0-.8695-.705-1.5745-1.576-1.5745-.87 0-1.576.705-1.576 1.5745 0 .8696.706 1.5745 1.576 1.5745z"/><path d="m244.614 78.9281c.87 0 1.576-.7049 1.576-1.5745 0-.8695-.706-1.5744-1.576-1.5744s-1.576.7049-1.576 1.5744c0 .8696.706 1.5745 1.576 1.5745z"/><path d="m206.794 78.9281c.87 0 1.576-.7049 1.576-1.5745 0-.8695-.706-1.5744-1.576-1.5744-.871 0-1.576.7049-1.576 1.5744 0 .8696.705 1.5745 1.576 1.5745z"/><path d="m168.972 78.9281c.871 0 1.576-.7049 1.576-1.5745 0-.8695-.705-1.5744-1.576-1.5744-.87 0-1.576.7049-1.576 1.5744 0 .8696.706 1.5745 1.576 1.5745z"/><path d="m225.704 41.1409c.87 0 1.576-.7049 1.576-1.5745 0-.8695-.706-1.5745-1.576-1.5745-.871 0-1.576.705-1.576 1.5745 0 .8696.705 1.5745 1.576 1.5745z"/><path d="m187.883 41.1409c.87 0 1.575-.7049 1.575-1.5745 0-.8695-.705-1.5745-1.575-1.5745-.871 0-1.576.705-1.576 1.5745 0 .8696.705 1.5745 1.576 1.5745z"/><path d="m150.062 41.1409c.871 0 1.576-.7049 1.576-1.5745 0-.8695-.705-1.5745-1.576-1.5745-.87 0-1.576.705-1.576 1.5745 0 .8696.706 1.5745 1.576 1.5745z"/><path d="m131.152 41.1409c.87 0 1.576-.7049 1.576-1.5745 0-.8695-.706-1.5745-1.576-1.5745s-1.576.705-1.576 1.5745c0 .8696.706 1.5745 1.576 1.5745z"/><path d="m225.704 78.9281c.87 0 1.576-.7049 1.576-1.5745 0-.8695-.706-1.5744-1.576-1.5744-.871 0-1.576.7049-1.576 1.5744 0 .8696.705 1.5745 1.576 1.5745z"/><path d="m187.883 78.9281c.87 0 1.575-.7049 1.575-1.5745 0-.8695-.705-1.5744-1.575-1.5744-.871 0-1.576.7049-1.576 1.5744 0 .8696.705 1.5745 1.576 1.5745z"/><path d="m150.062 78.9281c.871 0 1.576-.7049 1.576-1.5745 0-.8695-.705-1.5744-1.576-1.5744-.87 0-1.576.7049-1.576 1.5744 0 .8696.706 1.5745 1.576 1.5745z"/><path d="m131.152 78.9281c.87 0 1.576-.7049 1.576-1.5745 0-.8695-.706-1.5744-1.576-1.5744s-1.576.7049-1.576 1.5744c0 .8696.706 1.5745 1.576 1.5745z"/><path d="m263.525 60.0346c.87 0 1.576-.705 1.576-1.5745 0-.8696-.706-1.5745-1.576-1.5745s-1.576.7049-1.576 1.5745c0 .8695.706 1.5745 1.576 1.5745z"/><path d="m263.525 41.1409c.87 0 1.576-.7049 1.576-1.5745 0-.8695-.706-1.5745-1.576-1.5745s-1.576.705-1.576 1.5745c0 .8696.706 1.5745 1.576 1.5745z"/><path d="m263.525 78.9281c.87 0 1.576-.7049 1.576-1.5745 0-.8695-.706-1.5744-1.576-1.5744s-1.576.7049-1.576 1.5744c0 .8696.706 1.5745 1.576 1.5745z"/><path d="m112.241 230.077c.87 0 1.576-.705 1.576-1.574 0-.87-.706-1.575-1.576-1.575s-1.576.705-1.576 1.575c0 .869.706 1.574 1.576 1.574z"/><path d="m74.4206 230.077c.8703 0 1.5759-.705 1.5759-1.574 0-.87-.7056-1.575-1.5759-1.575s-1.5759.705-1.5759 1.575c0 .869.7056 1.574 1.5759 1.574z"/><path d="m36.5993 230.077c.8703 0 1.5759-.705 1.5759-1.574 0-.87-.7056-1.575-1.5759-1.575s-1.5759.705-1.5759 1.575c0 .869.7056 1.574 1.5759 1.574z"/><path d="m112.241 267.864c.87 0 1.576-.705 1.576-1.574 0-.87-.706-1.575-1.576-1.575s-1.576.705-1.576 1.575c0 .869.706 1.574 1.576 1.574z"/><path d="m112.241 324.545c.87 0 1.576-.705 1.576-1.574 0-.87-.706-1.575-1.576-1.575s-1.576.705-1.576 1.575c0 .869.706 1.574 1.576 1.574z"/><path d="m74.4206 267.864c.8703 0 1.5759-.705 1.5759-1.574 0-.87-.7056-1.575-1.5759-1.575s-1.5759.705-1.5759 1.575c0 .869.7056 1.574 1.5759 1.574z"/><path d="m36.5993 267.864c.8703 0 1.5759-.705 1.5759-1.574 0-.87-.7056-1.575-1.5759-1.575s-1.5759.705-1.5759 1.575c0 .869.7056 1.574 1.5759 1.574z"/><path d="m74.4206 324.545c.8703 0 1.5759-.705 1.5759-1.574 0-.87-.7056-1.575-1.5759-1.575s-1.5759.705-1.5759 1.575c0 .869.7056 1.574 1.5759 1.574z"/><path d="m36.5993 324.545c.8703 0 1.5759-.705 1.5759-1.574 0-.87-.7056-1.575-1.5759-1.575s-1.5759.705-1.5759 1.575c0 .869.7056 1.574 1.5759 1.574z"/><path d="m93.3308 230.077c.8703 0 1.5758-.705 1.5758-1.574 0-.87-.7055-1.575-1.5758-1.575-.8704 0-1.5759.705-1.5759 1.575 0 .869.7055 1.574 1.5759 1.574z"/><path d="m55.5104 230.077c.8704 0 1.5759-.705 1.5759-1.574 0-.87-.7055-1.575-1.5759-1.575-.8703 0-1.5758.705-1.5758 1.575 0 .869.7055 1.574 1.5758 1.574z"/><path d="m17.6891 230.077c.8704 0 1.5759-.705 1.5759-1.574 0-.87-.7055-1.575-1.5759-1.575-.8703 0-1.5758.705-1.5758 1.575 0 .869.7055 1.574 1.5758 1.574z"/><path d="m93.3308 267.864c.8703 0 1.5758-.705 1.5758-1.574 0-.87-.7055-1.575-1.5758-1.575-.8704 0-1.5759.705-1.5759 1.575 0 .869.7055 1.574 1.5759 1.574z"/><path d="m93.3308 324.545c.8703 0 1.5758-.705 1.5758-1.574 0-.87-.7055-1.575-1.5758-1.575-.8704 0-1.5759.705-1.5759 1.575 0 .869.7055 1.574 1.5759 1.574z"/><path d="m55.5104 267.864c.8704 0 1.5759-.705 1.5759-1.574 0-.87-.7055-1.575-1.5759-1.575-.8703 0-1.5758.705-1.5758 1.575 0 .869.7055 1.574 1.5758 1.574z"/><path d="m17.6891 267.864c.8704 0 1.5759-.705 1.5759-1.574 0-.87-.7055-1.575-1.5759-1.575-.8703 0-1.5758.705-1.5758 1.575 0 .869.7055 1.574 1.5758 1.574z"/><path d="m55.5104 324.545c.8704 0 1.5759-.705 1.5759-1.574 0-.87-.7055-1.575-1.5759-1.575-.8703 0-1.5758.705-1.5758 1.575 0 .869.7055 1.574 1.5758 1.574z"/><path d="m17.6891 324.545c.8704 0 1.5759-.705 1.5759-1.574 0-.87-.7055-1.575-1.5759-1.575-.8703 0-1.5758.705-1.5758 1.575 0 .869.7055 1.574 1.5758 1.574z"/><path d="m112.241 248.971c.87 0 1.576-.705 1.576-1.575 0-.869-.706-1.574-1.576-1.574s-1.576.705-1.576 1.574c0 .87.706 1.575 1.576 1.575z"/><path d="m112.241 305.651c.87 0 1.576-.704 1.576-1.574s-.706-1.574-1.576-1.574-1.576.704-1.576 1.574.706 1.574 1.576 1.574z"/><path d="m74.4206 248.971c.8703 0 1.5759-.705 1.5759-1.575 0-.869-.7056-1.574-1.5759-1.574s-1.5759.705-1.5759 1.574c0 .87.7056 1.575 1.5759 1.575z"/><path d="m36.5993 248.971c.8703 0 1.5759-.705 1.5759-1.575 0-.869-.7056-1.574-1.5759-1.574s-1.5759.705-1.5759 1.574c0 .87.7056 1.575 1.5759 1.575z"/><path d="m74.4206 305.651c.8703 0 1.5759-.704 1.5759-1.574s-.7056-1.574-1.5759-1.574-1.5759.704-1.5759 1.574.7056 1.574 1.5759 1.574z"/><path d="m36.5993 305.651c.8703 0 1.5759-.704 1.5759-1.574s-.7056-1.574-1.5759-1.574-1.5759.704-1.5759 1.574.7056 1.574 1.5759 1.574z"/><path d="m112.241 286.758c.87 0 1.576-.705 1.576-1.575 0-.869-.706-1.574-1.576-1.574s-1.576.705-1.576 1.574c0 .87.706 1.575 1.576 1.575z"/><path d="m112.241 343.439c.87 0 1.576-.705 1.576-1.575 0-.869-.706-1.574-1.576-1.574s-1.576.705-1.576 1.574c0 .87.706 1.575 1.576 1.575z"/><path d="m74.4206 286.758c.8703 0 1.5759-.705 1.5759-1.575 0-.869-.7056-1.574-1.5759-1.574s-1.5759.705-1.5759 1.574c0 .87.7056 1.575 1.5759 1.575z"/><path d="m36.5993 286.758c.8703 0 1.5759-.705 1.5759-1.575 0-.869-.7056-1.574-1.5759-1.574s-1.5759.705-1.5759 1.574c0 .87.7056 1.575 1.5759 1.575z"/><path d="m74.4206 343.439c.8703 0 1.5759-.705 1.5759-1.575 0-.869-.7056-1.574-1.5759-1.574s-1.5759.705-1.5759 1.574c0 .87.7056 1.575 1.5759 1.575z"/><path d="m36.5993 343.439c.8703 0 1.5759-.705 1.5759-1.575 0-.869-.7056-1.574-1.5759-1.574s-1.5759.705-1.5759 1.574c0 .87.7056 1.575 1.5759 1.575z"/><path d="m93.3308 248.971c.8703 0 1.5758-.705 1.5758-1.575 0-.869-.7055-1.574-1.5758-1.574-.8704 0-1.5759.705-1.5759 1.574 0 .87.7055 1.575 1.5759 1.575z"/><path d="m93.3308 305.651c.8703 0 1.5758-.704 1.5758-1.574s-.7055-1.574-1.5758-1.574c-.8704 0-1.5759.704-1.5759 1.574s.7055 1.574 1.5759 1.574z"/><path d="m55.5104 248.971c.8704 0 1.5759-.705 1.5759-1.575 0-.869-.7055-1.574-1.5759-1.574-.8703 0-1.5758.705-1.5758 1.574 0 .87.7055 1.575 1.5758 1.575z"/><path d="m17.6891 248.971c.8704 0 1.5759-.705 1.5759-1.575 0-.869-.7055-1.574-1.5759-1.574-.8703 0-1.5758.705-1.5758 1.574 0 .87.7055 1.575 1.5758 1.575z"/><path d="m55.5104 305.651c.8704 0 1.5759-.704 1.5759-1.574s-.7055-1.574-1.5759-1.574c-.8703 0-1.5758.704-1.5758 1.574s.7055 1.574 1.5758 1.574z"/><path d="m17.6891 305.651c.8704 0 1.5759-.704 1.5759-1.574s-.7055-1.574-1.5759-1.574c-.8703 0-1.5758.704-1.5758 1.574s.7055 1.574 1.5758 1.574z"/><path d="m93.3308 286.758c.8703 0 1.5758-.705 1.5758-1.575 0-.869-.7055-1.574-1.5758-1.574-.8704 0-1.5759.705-1.5759 1.574 0 .87.7055 1.575 1.5759 1.575z"/><path d="m93.3308 343.439c.8703 0 1.5758-.705 1.5758-1.575 0-.869-.7055-1.574-1.5758-1.574-.8704 0-1.5759.705-1.5759 1.574 0 .87.7055 1.575 1.5759 1.575z"/><path d="m55.5104 286.758c.8704 0 1.5759-.705 1.5759-1.575 0-.869-.7055-1.574-1.5759-1.574-.8703 0-1.5758.705-1.5758 1.574 0 .87.7055 1.575 1.5758 1.575z"/><path d="m17.6891 286.758c.8704 0 1.5759-.705 1.5759-1.575 0-.869-.7055-1.574-1.5759-1.574-.8703 0-1.5758.705-1.5758 1.574 0 .87.7055 1.575 1.5758 1.575z"/><path d="m55.5104 343.439c.8704 0 1.5759-.705 1.5759-1.575 0-.869-.7055-1.574-1.5759-1.574-.8703 0-1.5758.705-1.5758 1.574 0 .87.7055 1.575 1.5758 1.575z"/><path d="m17.6891 343.439c.8704 0 1.5759-.705 1.5759-1.575 0-.869-.7055-1.574-1.5759-1.574-.8703 0-1.5758.705-1.5758 1.574 0 .87.7055 1.575 1.5758 1.575z"/><path d="m112.241 60.0346c.87 0 1.576-.705 1.576-1.5745 0-.8696-.706-1.5745-1.576-1.5745s-1.576.7049-1.576 1.5745c0 .8695.706 1.5745 1.576 1.5745z"/><path d="m74.4206 60.0346c.8703 0 1.5759-.705 1.5759-1.5745 0-.8696-.7056-1.5745-1.5759-1.5745s-1.5759.7049-1.5759 1.5745c0 .8695.7056 1.5745 1.5759 1.5745z"/><path d="m36.5993 60.0346c.8703 0 1.5759-.705 1.5759-1.5745 0-.8696-.7056-1.5745-1.5759-1.5745s-1.5759.7049-1.5759 1.5745c0 .8695.7056 1.5745 1.5759 1.5745z"/><path d="m93.3308 60.0346c.8703 0 1.5758-.705 1.5758-1.5745 0-.8696-.7055-1.5745-1.5758-1.5745-.8704 0-1.5759.7049-1.5759 1.5745 0 .8695.7055 1.5745 1.5759 1.5745z"/><path d="m55.5104 60.0346c.8704 0 1.5759-.705 1.5759-1.5745 0-.8696-.7055-1.5745-1.5759-1.5745-.8703 0-1.5758.7049-1.5758 1.5745 0 .8695.7055 1.5745 1.5758 1.5745z"/><path d="m17.6891 60.0346c.8704 0 1.5759-.705 1.5759-1.5745 0-.8696-.7055-1.5745-1.5759-1.5745-.8703 0-1.5758.7049-1.5758 1.5745 0 .8695.7055 1.5745 1.5758 1.5745z"/><path d="m112.241 41.1409c.87 0 1.576-.7049 1.576-1.5745 0-.8695-.706-1.5745-1.576-1.5745s-1.576.705-1.576 1.5745c0 .8696.706 1.5745 1.576 1.5745z"/><path d="m74.4206 41.1409c.8703 0 1.5759-.7049 1.5759-1.5745 0-.8695-.7056-1.5745-1.5759-1.5745s-1.5759.705-1.5759 1.5745c0 .8696.7056 1.5745 1.5759 1.5745z"/><path d="m36.5993 41.1409c.8703 0 1.5759-.7049 1.5759-1.5745 0-.8695-.7056-1.5745-1.5759-1.5745s-1.5759.705-1.5759 1.5745c0 .8696.7056 1.5745 1.5759 1.5745z"/><path d="m112.241 78.9281c.87 0 1.576-.7049 1.576-1.5745 0-.8695-.706-1.5744-1.576-1.5744s-1.576.7049-1.576 1.5744c0 .8696.706 1.5745 1.576 1.5745z"/><path d="m74.4206 78.9281c.8703 0 1.5759-.7049 1.5759-1.5745 0-.8695-.7056-1.5744-1.5759-1.5744s-1.5759.7049-1.5759 1.5744c0 .8696.7056 1.5745 1.5759 1.5745z"/><path d="m36.5993 78.9281c.8703 0 1.5759-.7049 1.5759-1.5745 0-.8695-.7056-1.5744-1.5759-1.5744s-1.5759.7049-1.5759 1.5744c0 .8696.7056 1.5745 1.5759 1.5745z"/><path d="m93.3308 41.1409c.8703 0 1.5758-.7049 1.5758-1.5745 0-.8695-.7055-1.5745-1.5758-1.5745-.8704 0-1.5759.705-1.5759 1.5745 0 .8696.7055 1.5745 1.5759 1.5745z"/><path d="m55.5104 41.1409c.8704 0 1.5759-.7049 1.5759-1.5745 0-.8695-.7055-1.5745-1.5759-1.5745-.8703 0-1.5758.705-1.5758 1.5745 0 .8696.7055 1.5745 1.5758 1.5745z"/><path d="m17.6891 41.1409c.8704 0 1.5759-.7049 1.5759-1.5745 0-.8695-.7055-1.5745-1.5759-1.5745-.8703 0-1.5758.705-1.5758 1.5745 0 .8696.7055 1.5745 1.5758 1.5745z"/><path d="m93.3308 78.9281c.8703 0 1.5758-.7049 1.5758-1.5745 0-.8695-.7055-1.5744-1.5758-1.5744-.8704 0-1.5759.7049-1.5759 1.5744 0 .8696.7055 1.5745 1.5759 1.5745z"/><path d="m55.5104 78.9281c.8704 0 1.5759-.7049 1.5759-1.5745 0-.8695-.7055-1.5744-1.5759-1.5744-.8703 0-1.5758.7049-1.5758 1.5744 0 .8696.7055 1.5745 1.5758 1.5745z"/><path d="m17.6891 78.9281c.8704 0 1.5759-.7049 1.5759-1.5745 0-.8695-.7055-1.5744-1.5759-1.5744-.8703 0-1.5758.7049-1.5758 1.5744 0 .8696.7055 1.5745 1.5758 1.5745z"/><path d="m244.614 362.332c.87 0 1.576-.705 1.576-1.574 0-.87-.706-1.575-1.576-1.575s-1.576.705-1.576 1.575c0 .869.706 1.574 1.576 1.574z"/><path d="m206.794 362.332c.87 0 1.576-.705 1.576-1.574 0-.87-.706-1.575-1.576-1.575-.871 0-1.576.705-1.576 1.575 0 .869.705 1.574 1.576 1.574z"/><path d="m168.972 362.332c.871 0 1.576-.705 1.576-1.574 0-.87-.705-1.575-1.576-1.575-.87 0-1.576.705-1.576 1.575 0 .869.706 1.574 1.576 1.574z"/><path d="m244.614 400.12c.87 0 1.576-.705 1.576-1.575 0-.869-.706-1.574-1.576-1.574s-1.576.705-1.576 1.574c0 .87.706 1.575 1.576 1.575z"/><path d="m206.794 400.12c.87 0 1.576-.705 1.576-1.575 0-.869-.706-1.574-1.576-1.574-.871 0-1.576.705-1.576 1.574 0 .87.705 1.575 1.576 1.575z"/><path d="m168.972 400.12c.871 0 1.576-.705 1.576-1.575 0-.869-.705-1.574-1.576-1.574-.87 0-1.576.705-1.576 1.574 0 .87.706 1.575 1.576 1.575z"/><path d="m225.704 362.332c.87 0 1.576-.705 1.576-1.574 0-.87-.706-1.575-1.576-1.575-.871 0-1.576.705-1.576 1.575 0 .869.705 1.574 1.576 1.574z"/><path d="m187.883 362.332c.87 0 1.575-.705 1.575-1.574 0-.87-.705-1.575-1.575-1.575-.871 0-1.576.705-1.576 1.575 0 .869.705 1.574 1.576 1.574z"/><path d="m150.062 362.332c.871 0 1.576-.705 1.576-1.574 0-.87-.705-1.575-1.576-1.575-.87 0-1.576.705-1.576 1.575 0 .869.706 1.574 1.576 1.574z"/><path d="m131.152 362.332c.87 0 1.576-.705 1.576-1.574 0-.87-.706-1.575-1.576-1.575s-1.576.705-1.576 1.575c0 .869.706 1.574 1.576 1.574z"/><path d="m225.704 400.12c.87 0 1.576-.705 1.576-1.575 0-.869-.706-1.574-1.576-1.574-.871 0-1.576.705-1.576 1.574 0 .87.705 1.575 1.576 1.575z"/><path d="m187.883 400.12c.87 0 1.575-.705 1.575-1.575 0-.869-.705-1.574-1.575-1.574-.871 0-1.576.705-1.576 1.574 0 .87.705 1.575 1.576 1.575z"/><path d="m150.062 400.12c.871 0 1.576-.705 1.576-1.575 0-.869-.705-1.574-1.576-1.574-.87 0-1.576.705-1.576 1.574 0 .87.706 1.575 1.576 1.575z"/><path d="m131.152 400.12c.87 0 1.576-.705 1.576-1.575 0-.869-.706-1.574-1.576-1.574s-1.576.705-1.576 1.574c0 .87.706 1.575 1.576 1.575z"/><path d="m244.614 381.226c.87 0 1.576-.705 1.576-1.575 0-.869-.706-1.574-1.576-1.574s-1.576.705-1.576 1.574c0 .87.706 1.575 1.576 1.575z"/><path d="m206.794 381.226c.87 0 1.576-.705 1.576-1.575 0-.869-.706-1.574-1.576-1.574-.871 0-1.576.705-1.576 1.574 0 .87.705 1.575 1.576 1.575z"/><path d="m168.972 381.226c.871 0 1.576-.705 1.576-1.575 0-.869-.705-1.574-1.576-1.574-.87 0-1.576.705-1.576 1.574 0 .87.706 1.575 1.576 1.575z"/><path d="m244.614 419.013c.87 0 1.576-.705 1.576-1.574 0-.87-.706-1.575-1.576-1.575s-1.576.705-1.576 1.575c0 .869.706 1.574 1.576 1.574z"/><path d="m206.794 419.013c.87 0 1.576-.705 1.576-1.574 0-.87-.706-1.575-1.576-1.575-.871 0-1.576.705-1.576 1.575 0 .869.705 1.574 1.576 1.574z"/><path d="m168.972 419.013c.871 0 1.576-.705 1.576-1.574 0-.87-.705-1.575-1.576-1.575-.87 0-1.576.705-1.576 1.575 0 .869.706 1.574 1.576 1.574z"/><path d="m225.704 381.226c.87 0 1.576-.705 1.576-1.575 0-.869-.706-1.574-1.576-1.574-.871 0-1.576.705-1.576 1.574 0 .87.705 1.575 1.576 1.575z"/><path d="m187.883 381.226c.87 0 1.575-.705 1.575-1.575 0-.869-.705-1.574-1.575-1.574-.871 0-1.576.705-1.576 1.574 0 .87.705 1.575 1.576 1.575z"/><path d="m150.062 381.226c.871 0 1.576-.705 1.576-1.575 0-.869-.705-1.574-1.576-1.574-.87 0-1.576.705-1.576 1.574 0 .87.706 1.575 1.576 1.575z"/><path d="m131.152 381.226c.87 0 1.576-.705 1.576-1.575 0-.869-.706-1.574-1.576-1.574s-1.576.705-1.576 1.574c0 .87.706 1.575 1.576 1.575z"/><path d="m225.704 419.013c.87 0 1.576-.705 1.576-1.574 0-.87-.706-1.575-1.576-1.575-.871 0-1.576.705-1.576 1.575 0 .869.705 1.574 1.576 1.574z"/><path d="m187.883 419.013c.87 0 1.575-.705 1.575-1.574 0-.87-.705-1.575-1.575-1.575-.871 0-1.576.705-1.576 1.575 0 .869.705 1.574 1.576 1.574z"/><path d="m150.062 419.013c.871 0 1.576-.705 1.576-1.574 0-.87-.705-1.575-1.576-1.575-.87 0-1.576.705-1.576 1.575 0 .869.706 1.574 1.576 1.574z"/><path d="m131.152 419.013c.87 0 1.576-.705 1.576-1.574 0-.87-.706-1.575-1.576-1.575s-1.576.705-1.576 1.575c0 .869.706 1.574 1.576 1.574z"/><path d="m263.525 362.332c.87 0 1.576-.705 1.576-1.574 0-.87-.706-1.575-1.576-1.575s-1.576.705-1.576 1.575c0 .869.706 1.574 1.576 1.574z"/><path d="m263.525 400.12c.87 0 1.576-.705 1.576-1.575 0-.869-.706-1.574-1.576-1.574s-1.576.705-1.576 1.574c0 .87.706 1.575 1.576 1.575z"/><path d="m263.525 381.226c.87 0 1.576-.705 1.576-1.575 0-.869-.706-1.574-1.576-1.574s-1.576.705-1.576 1.574c0 .87.706 1.575 1.576 1.575z"/><path d="m263.525 419.013c.87 0 1.576-.705 1.576-1.574 0-.87-.706-1.575-1.576-1.575s-1.576.705-1.576 1.575c0 .869.706 1.574 1.576 1.574z"/><path d="m112.241 362.332c.87 0 1.576-.705 1.576-1.574 0-.87-.706-1.575-1.576-1.575s-1.576.705-1.576 1.575c0 .869.706 1.574 1.576 1.574z"/><path d="m74.4206 362.332c.8703 0 1.5759-.705 1.5759-1.574 0-.87-.7056-1.575-1.5759-1.575s-1.5759.705-1.5759 1.575c0 .869.7056 1.574 1.5759 1.574z"/><path d="m36.5993 362.332c.8703 0 1.5759-.705 1.5759-1.574 0-.87-.7056-1.575-1.5759-1.575s-1.5759.705-1.5759 1.575c0 .869.7056 1.574 1.5759 1.574z"/><path d="m112.241 400.12c.87 0 1.576-.705 1.576-1.575 0-.869-.706-1.574-1.576-1.574s-1.576.705-1.576 1.574c0 .87.706 1.575 1.576 1.575z"/><path d="m74.4206 400.12c.8703 0 1.5759-.705 1.5759-1.575 0-.869-.7056-1.574-1.5759-1.574s-1.5759.705-1.5759 1.574c0 .87.7056 1.575 1.5759 1.575z"/><path d="m36.5993 400.12c.8703 0 1.5759-.705 1.5759-1.575 0-.869-.7056-1.574-1.5759-1.574s-1.5759.705-1.5759 1.574c0 .87.7056 1.575 1.5759 1.575z"/><path d="m93.3308 362.332c.8703 0 1.5758-.705 1.5758-1.574 0-.87-.7055-1.575-1.5758-1.575-.8704 0-1.5759.705-1.5759 1.575 0 .869.7055 1.574 1.5759 1.574z"/><path d="m55.5104 362.332c.8704 0 1.5759-.705 1.5759-1.574 0-.87-.7055-1.575-1.5759-1.575-.8703 0-1.5758.705-1.5758 1.575 0 .869.7055 1.574 1.5758 1.574z"/><path d="m17.6891 362.332c.8704 0 1.5759-.705 1.5759-1.574 0-.87-.7055-1.575-1.5759-1.575-.8703 0-1.5758.705-1.5758 1.575 0 .869.7055 1.574 1.5758 1.574z"/><path d="m93.3308 400.12c.8703 0 1.5758-.705 1.5758-1.575 0-.869-.7055-1.574-1.5758-1.574-.8704 0-1.5759.705-1.5759 1.574 0 .87.7055 1.575 1.5759 1.575z"/><path d="m55.5104 400.12c.8704 0 1.5759-.705 1.5759-1.575 0-.869-.7055-1.574-1.5759-1.574-.8703 0-1.5758.705-1.5758 1.574 0 .87.7055 1.575 1.5758 1.575z"/><path d="m17.6891 400.12c.8704 0 1.5759-.705 1.5759-1.575 0-.869-.7055-1.574-1.5759-1.574-.8703 0-1.5758.705-1.5758 1.574 0 .87.7055 1.575 1.5758 1.575z"/><path d="m112.241 381.226c.87 0 1.576-.705 1.576-1.575 0-.869-.706-1.574-1.576-1.574s-1.576.705-1.576 1.574c0 .87.706 1.575 1.576 1.575z"/><path d="m74.4206 381.226c.8703 0 1.5759-.705 1.5759-1.575 0-.869-.7056-1.574-1.5759-1.574s-1.5759.705-1.5759 1.574c0 .87.7056 1.575 1.5759 1.575z"/><path d="m36.5993 381.226c.8703 0 1.5759-.705 1.5759-1.575 0-.869-.7056-1.574-1.5759-1.574s-1.5759.705-1.5759 1.574c0 .87.7056 1.575 1.5759 1.575z"/><path d="m112.241 419.013c.87 0 1.576-.705 1.576-1.574 0-.87-.706-1.575-1.576-1.575s-1.576.705-1.576 1.575c0 .869.706 1.574 1.576 1.574z"/><path d="m74.4206 419.013c.8703 0 1.5759-.705 1.5759-1.574 0-.87-.7056-1.575-1.5759-1.575s-1.5759.705-1.5759 1.575c0 .869.7056 1.574 1.5759 1.574z"/><path d="m36.5993 419.013c.8703 0 1.5759-.705 1.5759-1.574 0-.87-.7056-1.575-1.5759-1.575s-1.5759.705-1.5759 1.575c0 .869.7056 1.574 1.5759 1.574z"/><path d="m93.3308 381.226c.8703 0 1.5758-.705 1.5758-1.575 0-.869-.7055-1.574-1.5758-1.574-.8704 0-1.5759.705-1.5759 1.574 0 .87.7055 1.575 1.5759 1.575z"/><path d="m55.5104 381.226c.8704 0 1.5759-.705 1.5759-1.575 0-.869-.7055-1.574-1.5759-1.574-.8703 0-1.5758.705-1.5758 1.574 0 .87.7055 1.575 1.5758 1.575z"/><path d="m17.6891 381.226c.8704 0 1.5759-.705 1.5759-1.575 0-.869-.7055-1.574-1.5759-1.574-.8703 0-1.5758.705-1.5758 1.574 0 .87.7055 1.575 1.5758 1.575z"/><path d="m93.3308 419.013c.8703 0 1.5758-.705 1.5758-1.574 0-.87-.7055-1.575-1.5758-1.575-.8704 0-1.5759.705-1.5759 1.575 0 .869.7055 1.574 1.5759 1.574z"/><path d="m55.5104 419.013c.8704 0 1.5759-.705 1.5759-1.574 0-.87-.7055-1.575-1.5759-1.575-.8703 0-1.5758.705-1.5758 1.575 0 .869.7055 1.574 1.5758 1.574z"/><path d="m17.6891 419.013c.8704 0 1.5759-.705 1.5759-1.574 0-.87-.7055-1.575-1.5759-1.575-.8703 0-1.5758.705-1.5758 1.575 0 .869.7055 1.574 1.5758 1.574z"/><path d="m320.342 97.8218c.871 0 1.576-.7049 1.576-1.5745 0-.8695-.705-1.5744-1.576-1.5744-.87 0-1.575.7049-1.575 1.5744 0 .8696.705 1.5745 1.575 1.5745z"/><path d="m282.522 97.8218c.87 0 1.576-.7049 1.576-1.5745 0-.8695-.706-1.5744-1.576-1.5744s-1.576.7049-1.576 1.5744c0 .8696.706 1.5745 1.576 1.5745z"/><path d="m320.342 135.609c.871 0 1.576-.705 1.576-1.575 0-.869-.705-1.574-1.576-1.574-.87 0-1.575.705-1.575 1.574 0 .87.705 1.575 1.575 1.575z"/><path d="m282.522 135.609c.87 0 1.576-.705 1.576-1.575 0-.869-.706-1.574-1.576-1.574s-1.576.705-1.576 1.574c0 .87.706 1.575 1.576 1.575z"/><path d="m320.342 192.29c.871 0 1.576-.705 1.576-1.575 0-.869-.705-1.574-1.576-1.574-.87 0-1.575.705-1.575 1.574 0 .87.705 1.575 1.575 1.575z"/><path d="m282.522 192.29c.87 0 1.576-.705 1.576-1.575 0-.869-.706-1.574-1.576-1.574s-1.576.705-1.576 1.574c0 .87.706 1.575 1.576 1.575z"/><path d="m339.253 97.8218c.87 0 1.575-.7049 1.575-1.5745 0-.8695-.705-1.5744-1.575-1.5744-.871 0-1.576.7049-1.576 1.5744 0 .8696.705 1.5745 1.576 1.5745z"/><path d="m301.432 97.8218c.871 0 1.576-.7049 1.576-1.5745 0-.8695-.705-1.5744-1.576-1.5744-.87 0-1.576.7049-1.576 1.5744 0 .8696.706 1.5745 1.576 1.5745z"/><path d="m339.253 135.609c.87 0 1.575-.705 1.575-1.575 0-.869-.705-1.574-1.575-1.574-.871 0-1.576.705-1.576 1.574 0 .87.705 1.575 1.576 1.575z"/><path d="m339.253 192.29c.87 0 1.575-.705 1.575-1.575 0-.869-.705-1.574-1.575-1.574-.871 0-1.576.705-1.576 1.574 0 .87.705 1.575 1.576 1.575z"/><path d="m301.432 135.609c.871 0 1.576-.705 1.576-1.575 0-.869-.705-1.574-1.576-1.574-.87 0-1.576.705-1.576 1.574 0 .87.706 1.575 1.576 1.575z"/><path d="m301.432 192.29c.871 0 1.576-.705 1.576-1.575 0-.869-.705-1.574-1.576-1.574-.87 0-1.576.705-1.576 1.574 0 .87.706 1.575 1.576 1.575z"/><path d="m320.342 116.715c.871 0 1.576-.705 1.576-1.574 0-.87-.705-1.575-1.576-1.575-.87 0-1.575.705-1.575 1.575 0 .869.705 1.574 1.575 1.574z"/><path d="m282.522 116.715c.87 0 1.576-.705 1.576-1.574 0-.87-.706-1.575-1.576-1.575s-1.576.705-1.576 1.575c0 .869.706 1.574 1.576 1.574z"/><path d="m320.342 173.396c.871 0 1.576-.705 1.576-1.574 0-.87-.705-1.575-1.576-1.575-.87 0-1.575.705-1.575 1.575 0 .869.705 1.574 1.575 1.574z"/><path d="m282.522 173.396c.87 0 1.576-.705 1.576-1.574 0-.87-.706-1.575-1.576-1.575s-1.576.705-1.576 1.575c0 .869.706 1.574 1.576 1.574z"/><path d="m320.342 154.503c.871 0 1.576-.705 1.576-1.575 0-.869-.705-1.574-1.576-1.574-.87 0-1.575.705-1.575 1.574 0 .87.705 1.575 1.575 1.575z"/><path d="m282.522 154.503c.87 0 1.576-.705 1.576-1.575 0-.869-.706-1.574-1.576-1.574s-1.576.705-1.576 1.574c0 .87.706 1.575 1.576 1.575z"/><path d="m320.342 211.183c.871 0 1.576-.704 1.576-1.574s-.705-1.574-1.576-1.574c-.87 0-1.575.704-1.575 1.574s.705 1.574 1.575 1.574z"/><path d="m282.522 211.183c.87 0 1.576-.704 1.576-1.574s-.706-1.574-1.576-1.574-1.576.704-1.576 1.574.706 1.574 1.576 1.574z"/><path d="m339.253 116.715c.87 0 1.575-.705 1.575-1.574 0-.87-.705-1.575-1.575-1.575-.871 0-1.576.705-1.576 1.575 0 .869.705 1.574 1.576 1.574z"/><path d="m339.253 173.396c.87 0 1.575-.705 1.575-1.574 0-.87-.705-1.575-1.575-1.575-.871 0-1.576.705-1.576 1.575 0 .869.705 1.574 1.576 1.574z"/><path d="m301.432 116.715c.871 0 1.576-.705 1.576-1.574 0-.87-.705-1.575-1.576-1.575-.87 0-1.576.705-1.576 1.575 0 .869.706 1.574 1.576 1.574z"/><path d="m301.432 173.396c.871 0 1.576-.705 1.576-1.574 0-.87-.705-1.575-1.576-1.575-.87 0-1.576.705-1.576 1.575 0 .869.706 1.574 1.576 1.574z"/><path d="m339.253 154.503c.87 0 1.575-.705 1.575-1.575 0-.869-.705-1.574-1.575-1.574-.871 0-1.576.705-1.576 1.574 0 .87.705 1.575 1.576 1.575z"/><path d="m339.253 211.183c.87 0 1.575-.704 1.575-1.574s-.705-1.574-1.575-1.574c-.871 0-1.576.704-1.576 1.574s.705 1.574 1.576 1.574z"/><path d="m301.432 154.503c.871 0 1.576-.705 1.576-1.575 0-.869-.705-1.574-1.576-1.574-.87 0-1.576.705-1.576 1.574 0 .87.706 1.575 1.576 1.575z"/><path d="m301.432 211.183c.871 0 1.576-.704 1.576-1.574s-.705-1.574-1.576-1.574c-.87 0-1.576.704-1.576 1.574s.706 1.574 1.576 1.574z"/><path d="m320.342 230.077c.871 0 1.576-.705 1.576-1.574 0-.87-.705-1.575-1.576-1.575-.87 0-1.575.705-1.575 1.575 0 .869.705 1.574 1.575 1.574z"/><path d="m282.522 230.077c.87 0 1.576-.705 1.576-1.574 0-.87-.706-1.575-1.576-1.575s-1.576.705-1.576 1.575c0 .869.706 1.574 1.576 1.574z"/><path d="m320.342 267.864c.871 0 1.576-.705 1.576-1.574 0-.87-.705-1.575-1.576-1.575-.87 0-1.575.705-1.575 1.575 0 .869.705 1.574 1.575 1.574z"/><path d="m282.522 267.864c.87 0 1.576-.705 1.576-1.574 0-.87-.706-1.575-1.576-1.575s-1.576.705-1.576 1.575c0 .869.706 1.574 1.576 1.574z"/><path d="m320.342 324.545c.871 0 1.576-.705 1.576-1.574 0-.87-.705-1.575-1.576-1.575-.87 0-1.575.705-1.575 1.575 0 .869.705 1.574 1.575 1.574z"/><path d="m282.522 324.545c.87 0 1.576-.705 1.576-1.574 0-.87-.706-1.575-1.576-1.575s-1.576.705-1.576 1.575c0 .869.706 1.574 1.576 1.574z"/><path d="m339.253 230.077c.87 0 1.575-.705 1.575-1.574 0-.87-.705-1.575-1.575-1.575-.871 0-1.576.705-1.576 1.575 0 .869.705 1.574 1.576 1.574z"/><path d="m301.432 230.077c.871 0 1.576-.705 1.576-1.574 0-.87-.705-1.575-1.576-1.575-.87 0-1.576.705-1.576 1.575 0 .869.706 1.574 1.576 1.574z"/><path d="m339.253 267.864c.87 0 1.575-.705 1.575-1.574 0-.87-.705-1.575-1.575-1.575-.871 0-1.576.705-1.576 1.575 0 .869.705 1.574 1.576 1.574z"/><path d="m339.253 324.545c.87 0 1.575-.705 1.575-1.574 0-.87-.705-1.575-1.575-1.575-.871 0-1.576.705-1.576 1.575 0 .869.705 1.574 1.576 1.574z"/><path d="m301.432 267.864c.871 0 1.576-.705 1.576-1.574 0-.87-.705-1.575-1.576-1.575-.87 0-1.576.705-1.576 1.575 0 .869.706 1.574 1.576 1.574z"/><path d="m301.432 324.545c.871 0 1.576-.705 1.576-1.574 0-.87-.705-1.575-1.576-1.575-.87 0-1.576.705-1.576 1.575 0 .869.706 1.574 1.576 1.574z"/><path d="m320.342 248.971c.871 0 1.576-.705 1.576-1.575 0-.869-.705-1.574-1.576-1.574-.87 0-1.575.705-1.575 1.574 0 .87.705 1.575 1.575 1.575z"/><path d="m282.522 248.971c.87 0 1.576-.705 1.576-1.575 0-.869-.706-1.574-1.576-1.574s-1.576.705-1.576 1.574c0 .87.706 1.575 1.576 1.575z"/><path d="m320.342 305.651c.871 0 1.576-.704 1.576-1.574s-.705-1.574-1.576-1.574c-.87 0-1.575.704-1.575 1.574s.705 1.574 1.575 1.574z"/><path d="m282.522 305.651c.87 0 1.576-.704 1.576-1.574s-.706-1.574-1.576-1.574-1.576.704-1.576 1.574.706 1.574 1.576 1.574z"/><path d="m320.342 286.758c.871 0 1.576-.705 1.576-1.575 0-.869-.705-1.574-1.576-1.574-.87 0-1.575.705-1.575 1.574 0 .87.705 1.575 1.575 1.575z"/><path d="m282.522 286.758c.87 0 1.576-.705 1.576-1.575 0-.869-.706-1.574-1.576-1.574s-1.576.705-1.576 1.574c0 .87.706 1.575 1.576 1.575z"/><path d="m320.342 343.439c.871 0 1.576-.705 1.576-1.575 0-.869-.705-1.574-1.576-1.574-.87 0-1.575.705-1.575 1.574 0 .87.705 1.575 1.575 1.575z"/><path d="m282.522 343.439c.87 0 1.576-.705 1.576-1.575 0-.869-.706-1.574-1.576-1.574s-1.576.705-1.576 1.574c0 .87.706 1.575 1.576 1.575z"/><path d="m339.253 248.971c.87 0 1.575-.705 1.575-1.575 0-.869-.705-1.574-1.575-1.574-.871 0-1.576.705-1.576 1.574 0 .87.705 1.575 1.576 1.575z"/><path d="m339.253 305.651c.87 0 1.575-.704 1.575-1.574s-.705-1.574-1.575-1.574c-.871 0-1.576.704-1.576 1.574s.705 1.574 1.576 1.574z"/><path d="m301.432 248.971c.871 0 1.576-.705 1.576-1.575 0-.869-.705-1.574-1.576-1.574-.87 0-1.576.705-1.576 1.574 0 .87.706 1.575 1.576 1.575z"/><path d="m301.432 305.651c.871 0 1.576-.704 1.576-1.574s-.705-1.574-1.576-1.574c-.87 0-1.576.704-1.576 1.574s.706 1.574 1.576 1.574z"/><path d="m339.253 286.758c.87 0 1.575-.705 1.575-1.575 0-.869-.705-1.574-1.575-1.574-.871 0-1.576.705-1.576 1.574 0 .87.705 1.575 1.576 1.575z"/><path d="m339.253 343.439c.87 0 1.575-.705 1.575-1.575 0-.869-.705-1.574-1.575-1.574-.871 0-1.576.705-1.576 1.574 0 .87.705 1.575 1.576 1.575z"/><path d="m301.432 286.758c.871 0 1.576-.705 1.576-1.575 0-.869-.705-1.574-1.576-1.574-.87 0-1.576.705-1.576 1.574 0 .87.706 1.575 1.576 1.575z"/><path d="m301.432 343.439c.871 0 1.576-.705 1.576-1.575 0-.869-.705-1.574-1.576-1.574-.87 0-1.576.705-1.576 1.574 0 .87.706 1.575 1.576 1.575z"/><path d="m320.342 60.0346c.871 0 1.576-.705 1.576-1.5745 0-.8696-.705-1.5745-1.576-1.5745-.87 0-1.575.7049-1.575 1.5745 0 .8695.705 1.5745 1.575 1.5745z"/><path d="m282.522 60.0346c.87 0 1.576-.705 1.576-1.5745 0-.8696-.706-1.5745-1.576-1.5745s-1.576.7049-1.576 1.5745c0 .8695.706 1.5745 1.576 1.5745z"/><path d="m339.253 60.0346c.87 0 1.575-.705 1.575-1.5745 0-.8696-.705-1.5745-1.575-1.5745-.871 0-1.576.7049-1.576 1.5745 0 .8695.705 1.5745 1.576 1.5745z"/><path d="m301.432 60.0346c.871 0 1.576-.705 1.576-1.5745 0-.8696-.705-1.5745-1.576-1.5745-.87 0-1.576.7049-1.576 1.5745 0 .8695.706 1.5745 1.576 1.5745z"/><path d="m320.342 41.1409c.871 0 1.576-.7049 1.576-1.5745 0-.8695-.705-1.5745-1.576-1.5745-.87 0-1.575.705-1.575 1.5745 0 .8696.705 1.5745 1.575 1.5745z"/><path d="m282.522 41.1409c.87 0 1.576-.7049 1.576-1.5745 0-.8695-.706-1.5745-1.576-1.5745s-1.576.705-1.576 1.5745c0 .8696.706 1.5745 1.576 1.5745z"/><path d="m320.342 78.9281c.871 0 1.576-.7049 1.576-1.5745 0-.8695-.705-1.5744-1.576-1.5744-.87 0-1.575.7049-1.575 1.5744 0 .8696.705 1.5745 1.575 1.5745z"/><path d="m282.522 78.9281c.87 0 1.576-.7049 1.576-1.5745 0-.8695-.706-1.5744-1.576-1.5744s-1.576.7049-1.576 1.5744c0 .8696.706 1.5745 1.576 1.5745z"/><path d="m339.253 41.1409c.87 0 1.575-.7049 1.575-1.5745 0-.8695-.705-1.5745-1.575-1.5745-.871 0-1.576.705-1.576 1.5745 0 .8696.705 1.5745 1.576 1.5745z"/><path d="m301.432 41.1409c.871 0 1.576-.7049 1.576-1.5745 0-.8695-.705-1.5745-1.576-1.5745-.87 0-1.576.705-1.576 1.5745 0 .8696.706 1.5745 1.576 1.5745z"/><path d="m339.253 78.9281c.87 0 1.575-.7049 1.575-1.5745 0-.8695-.705-1.5744-1.575-1.5744-.871 0-1.576.7049-1.576 1.5744 0 .8696.705 1.5745 1.576 1.5745z"/><path d="m301.432 78.9281c.871 0 1.576-.7049 1.576-1.5745 0-.8695-.705-1.5744-1.576-1.5744-.87 0-1.576.7049-1.576 1.5744 0 .8696.706 1.5745 1.576 1.5745z"/><path d="m320.342 362.332c.871 0 1.576-.705 1.576-1.574 0-.87-.705-1.575-1.576-1.575-.87 0-1.575.705-1.575 1.575 0 .869.705 1.574 1.575 1.574z"/><path d="m282.522 362.332c.87 0 1.576-.705 1.576-1.574 0-.87-.706-1.575-1.576-1.575s-1.576.705-1.576 1.575c0 .869.706 1.574 1.576 1.574z"/><path d="m320.342 400.12c.871 0 1.576-.705 1.576-1.575 0-.869-.705-1.574-1.576-1.574-.87 0-1.575.705-1.575 1.574 0 .87.705 1.575 1.575 1.575z"/><path d="m282.522 400.12c.87 0 1.576-.705 1.576-1.575 0-.869-.706-1.574-1.576-1.574s-1.576.705-1.576 1.574c0 .87.706 1.575 1.576 1.575z"/><path d="m339.253 362.332c.87 0 1.575-.705 1.575-1.574 0-.87-.705-1.575-1.575-1.575-.871 0-1.576.705-1.576 1.575 0 .869.705 1.574 1.576 1.574z"/><path d="m301.432 362.332c.871 0 1.576-.705 1.576-1.574 0-.87-.705-1.575-1.576-1.575-.87 0-1.576.705-1.576 1.575 0 .869.706 1.574 1.576 1.574z"/><path d="m339.253 400.12c.87 0 1.575-.705 1.575-1.575 0-.869-.705-1.574-1.575-1.574-.871 0-1.576.705-1.576 1.574 0 .87.705 1.575 1.576 1.575z"/><path d="m301.432 400.12c.871 0 1.576-.705 1.576-1.575 0-.869-.705-1.574-1.576-1.574-.87 0-1.576.705-1.576 1.574 0 .87.706 1.575 1.576 1.575z"/><path d="m320.342 381.226c.871 0 1.576-.705 1.576-1.575 0-.869-.705-1.574-1.576-1.574-.87 0-1.575.705-1.575 1.574 0 .87.705 1.575 1.575 1.575z"/><path d="m282.522 381.226c.87 0 1.576-.705 1.576-1.575 0-.869-.706-1.574-1.576-1.574s-1.576.705-1.576 1.574c0 .87.706 1.575 1.576 1.575z"/><path d="m320.342 419.013c.871 0 1.576-.705 1.576-1.574 0-.87-.705-1.575-1.576-1.575-.87 0-1.575.705-1.575 1.575 0 .869.705 1.574 1.575 1.574z"/><path d="m282.522 419.013c.87 0 1.576-.705 1.576-1.574 0-.87-.706-1.575-1.576-1.575s-1.576.705-1.576 1.575c0 .869.706 1.574 1.576 1.574z"/><path d="m339.253 381.226c.87 0 1.575-.705 1.575-1.575 0-.869-.705-1.574-1.575-1.574-.871 0-1.576.705-1.576 1.574 0 .87.705 1.575 1.576 1.575z"/><path d="m301.432 381.226c.871 0 1.576-.705 1.576-1.575 0-.869-.705-1.574-1.576-1.574-.87 0-1.576.705-1.576 1.574 0 .87.706 1.575 1.576 1.575z"/><path d="m339.253 419.013c.87 0 1.575-.705 1.575-1.574 0-.87-.705-1.575-1.575-1.575-.871 0-1.576.705-1.576 1.575 0 .869.705 1.574 1.576 1.574z"/><path d="m301.432 419.013c.871 0 1.576-.705 1.576-1.574 0-.87-.705-1.575-1.576-1.575-.87 0-1.576.705-1.576 1.575 0 .869.706 1.574 1.576 1.574z"/></g><path d="m314.378 238.39c-17.067 0-34.007-2.613-34.236-2.645-.646-.102-1.087-.708-.985-1.346.103-.646.702-1.087 1.348-.984.299.047 29.886 4.605 49.931 1.598 7.422-12.013 10.196-36.937 10.196-49.989 0-5.732-1.994-24.452-27.696-24.523-.457 0-.875-.267-1.072-.685l-5.405-11.714c-.276-.59-.015-1.291.575-1.566.591-.276 1.293-.016 1.568.574l5.09 11.037c14.309.276 29.296 7.455 29.296 26.877 0 14.02-2.892 39.361-10.85 51.713-.181.283-.473.472-.812.527-5.208.819-11.086 1.126-16.948 1.126z" fill="#6a2ea0"/><path d="m293.773 157.053c-2.458 0-4.649-.889-6.02-2.503-8.013-8.18-10.077-24.263-10.164-24.94-.079-.645.378-1.236 1.032-1.314.638-.079 1.237.377 1.316 1.023.016.157 2.056 16.012 9.534 23.609.024.024.039.047.063.071 1.111 1.323 3.112 1.929 5.358 1.622 2.269-.307 5.192-1.709 6.571-4.724.276-.59.977-.85 1.568-.582.591.267.851.976.583 1.566-1.489 3.252-4.711 5.574-8.407 6.078-.488.063-.969.094-1.434.094z" fill="#6a2ea0"/><path d="m256.259 194.982-13.946-21.909c-.441-.7-1.45-.724-1.931-.047l-8.17 11.525c-.26.37-.284.858-.056 1.252l13.545 23.436c.433.748 1.505.779 1.978.055l8.572-13.044c.253-.386.253-.882.008-1.268zm-15.199-15.154c-.961 0-1.733-.78-1.733-1.732 0-.96.78-1.732 1.733-1.732s1.734.779 1.734 1.732c.007.96-.773 1.732-1.734 1.732zm89.525 69.3s-23.614-.614-56.613-17.689c-3.483-1.803-7.076-3.377-10.787-4.637-8.068-2.732-21.652-6.715-28.239-5.141-9.716 2.323-65.162 63.648-65.162 63.648s21.936 18.516 38.971 27.081l11.086-19.334 11.464 53.012h41.974l-22.047-60.751 51.153.04c0-.016 24.402-6.196 28.2-36.229zm-179.546-9.25c0-12.848 10.424-23.263 23.283-23.263s23.283 10.415 23.283 23.263zm-66.3681-148.0629c13.0009-6.3215 31.9901-5.0226 51.7441 8.7539 24.662-5.0224 30.225 16.469 30.225 16.469h-81.9691zm232.1251 38.2679c-1.386-1.843-2.592-3.362-3.561-4.685-2.254-3.07-1.805-7.281.937-9.927 3.184-3.07 4.972-7.919 2.364-12.288-3.041-5.1015-14.907-7.8647-18.099-1.606-1.575 3.094 1.789 6.479-1.252 8.526-5.027 3.4-7.746-6.086-13.08-3.661-3.751 1.7-4.168 5.644-3.112 8.707 1.055 3.062.055 7.305-5.934 5.613-7.674-2.165-8.336 10.242-3.632 14.745 5.917 5.66 14.537 2.196 10.361-3.677-1.938-2.724-.843-5.786 2.813-4.558 2.506.835 8.565 2.472 9.298-1.795-.496 4.826 4.507 3.85 6.414 2.409 2.174-1.637 4.396.354 1.119 4.724-2.309 3.07 3.474 6.675 4.278-.237.528-4.542 6.051-2.298 3.388 2.173-2.655 4.464-6.949 12.478-.74 16.083 7.044 4.094 17.799-8.1 8.438-20.546zm-222.9378 228.62h14.4748v7.865c0 3.991-3.239 7.234-7.242 7.234-3.9944 0-7.2407-3.235-7.2407-7.234v-7.865z" fill="url(#a)"/><path d="m268.307 218.544c-.56 0-1.056-.401-1.159-.968-3.38-18.453-1.82-32.82 4.641-42.7 7.029-10.753 18.706-13.666 22.259-14.32v-3.684c0-.653.528-1.181 1.182-1.181s1.182.528 1.182 1.181v4.692c0 .598-.449 1.102-1.04 1.173-.142.016-14.025 1.842-21.605 13.43-6.114 9.36-7.564 23.145-4.294 40.984.118.637-.308 1.259-.954 1.377-.071.008-.142.016-.212.016z" fill="#6a2ea0"/><path d="m262.69 228.266c-.56 0-1.056-.401-1.159-.968-.118-.637.308-1.259.954-1.37 32.833-5.983 61.104-2.314 61.388-2.283.646.087 1.103.677 1.016 1.331-.087.653-.685 1.102-1.331 1.015-.276-.039-28.201-3.652-60.648 2.26-.078.008-.149.015-.22.015z" fill="#6a2ea0"/><path d="m321.918 225.117c-.544 0-1.032-.377-1.151-.929-3.136-14.217-6.303-36.685-6.335-36.913-.094-.645.363-1.244 1.009-1.33.646-.095 1.245.362 1.331 1.007.032.221 3.192 22.61 6.304 36.733.142.637-.26 1.267-.898 1.409-.087.016-.174.023-.26.023z" fill="#6a2ea0"/><path d="m300.273 285.128c-1.095 0-2.206-.063-3.341-.196-8.163-.929-21.416-5.22-38.175-20.39-9.967-9.022-16.578-17.776-16.641-17.862-.394-.52-.284-1.26.236-1.653.52-.394 1.261-.284 1.655.236.26.338 25.994 34.229 53.185 37.323 7.872.897 14.695-1.638 20.29-7.526 10.597-11.156 13.765-31.175 12.496-38.78-.11-.645.331-1.251.969-1.361.647-.111 1.253.33 1.364.968 1.339 8.006-1.986 29.08-13.112 40.794-5.326 5.621-11.677 8.447-18.926 8.447z" fill="#6a2ea0"/><path d="m203.5 322.734c-.158 0-.323-.031-.473-.102-21.448-9.392-42.517-26.238-42.73-26.404-.252-.196-.409-.496-.433-.811-.032-.314.071-.637.284-.881 2.521-2.929 61.86-71.694 74.601-74.047 12.725-2.346 27.846 5.219 28.484 5.542.583.291.812 1.007.52 1.59-.299.582-1.008.811-1.591.519-.15-.078-15.058-7.525-26.987-5.321-9.747 1.795-54.809 51.926-72.435 72.331 4.263 3.306 22.031 16.721 40.263 24.9l15.814-27.585c.323-.566 1.048-.763 1.616-.44.567.322.764 1.047.441 1.613l-16.342 28.506c-.229.37-.622.59-1.032.59z" fill="#6a2ea0"/><path d="m276.526 357.373h-43.148c-.559 0-1.04-.386-1.158-.929-.15-.685-14.79-68.434-17.343-81.479-1.418-7.258-.26-13.603 3.247-17.87 2.695-3.275 6.642-5.07 11.102-5.07h12.221c.654 0 1.182.528 1.182 1.181s-.528 1.181-1.182 1.181h-12.221c-3.798 0-7.005 1.456-9.274 4.212-3.057 3.707-4.034 9.36-2.758 15.917 2.38 12.179 15.349 72.261 17.13 80.495h40.586c-2.411-7.652-13.678-42.755-27.79-76.606-.252-.598.031-1.291.638-1.543s1.292.032 1.544.638c15.925 38.181 28.224 77.944 28.35 78.346.111.362.048.747-.181 1.047-.221.299-.575.48-.945.48z" fill="#6a2ea0"/><path d="m322.604 286.482h-71.379c-.654 0-1.182-.527-1.182-1.181 0-.653.528-1.18 1.182-1.18h71.379c.654 0 1.182.527 1.182 1.18 0 .654-.528 1.181-1.182 1.181z" fill="#6a2ea0"/><path d="m322.604 303.841h-63.886c-.654 0-1.182-.528-1.182-1.181s.528-1.181 1.182-1.181h63.886c.654 0 1.182.528 1.182 1.181s-.528 1.181-1.182 1.181z" fill="#6a2ea0"/><path d="m321.572 379.888c-.071 0-.142-.008-.213-.016-.646-.118-1.072-.724-.954-1.37l44.101-246.569c.118-.646.733-1.071 1.371-.953.646.118 1.072.724.954 1.37l-44.093 246.569c-.103.567-.599.969-1.166.969z" fill="#6a2ea0"/><path d="m169.477 343.84 37.56-6.542-3.538-15.744-12.89-6.464s1.308 16.863-18.958 19.429c0 0-4.995.969-2.174 9.321z" fill="#6a2ea0"/><path d="m255.125 356.192 2.088 23.538h-38.286s-2.253-8.998 6.753-8.998 15.294-3.424 16.586-6.313c1.284-2.89-1.166-8.219-1.166-8.219h14.025z" fill="#6a2ea0"/><path d="m50.1123 126.658h-27.0261c-.654 0-1.1819-.527-1.1819-1.181v-7.156c0-8.093 6.595-14.682 14.695-14.682 8.0999 0 14.6949 6.589 14.6949 14.682v7.156c0 .654-.5279 1.181-1.1819 1.181zm-25.8442-2.362h24.6623v-5.975c0-6.794-5.5313-12.32-12.3311-12.32-6.7999 0-12.3312 5.526-12.3312 12.32z" fill="#6a2ea0"/><path d="m36.5989 106.001c-.654 0-1.1819-.527-1.1819-1.181v-57.2239c0-.6534.5279-1.1808 1.1819-1.1808s1.1819.5274 1.1819 1.1808v57.2239c0 .654-.5279 1.181-1.1819 1.181z" fill="#6a2ea0"/><path d="m211.86 241.059h-109.397c-10.464 0-18.9816-8.502-18.9816-18.965v-133.7269c0-10.4545 8.5097-18.9645 18.9816-18.9645h228.122c.654 0 1.182.5274 1.182 1.1808s-.528 1.1809-1.182 1.1809h-228.122c-9.1639 0-16.6178 7.4472-16.6178 16.6028v133.7269c0 9.156 7.4539 16.603 16.6178 16.603h109.397c.654 0 1.181.528 1.181 1.181 0 .654-.527 1.181-1.181 1.181z" fill="#6a2ea0"/><path d="m285.673 380.99h-108.034c-.654 0-1.182-.528-1.182-1.181 0-.654.528-1.181 1.182-1.181h108.041c.654 0 1.182.527 1.182 1.181 0 .653-.535 1.181-1.189 1.181z" fill="#6a2ea0"/><path d="m117.173 380.911h-51.1838c-.5673 0-1.0558-.401-1.1582-.952-2.4426-12.58-3.1045-30.553 7.5878-44.723 2.1826-2.889 9.2503-8.628 15.0417-9.612 2.0486-9.203 6.138-15.8 12.1578-19.642 8.4147-5.369 17.4447-3.322 17.8307-3.227.536.126.914.598.914 1.149v75.834c-.008.646-.536 1.173-1.19 1.173zm-50.1988-2.362h49.0178v-73.661c-2.38-.339-9.03-.803-15.129 3.094-5.6256 3.597-9.4077 9.966-11.2594 18.909 0 .016-.0078.024-.0078.04-1.5759 8.698-1.7571 31.552-1.7571 31.78-.0079.654-.5516 1.173-1.1898 1.173-.654-.008-1.1819-.535-1.174-1.189.0078-.889.1654-20.822 1.5364-30.568-4.7985 1.228-10.8104 6.015-12.7093 8.526-9.8965 13.123-9.5262 29.844-7.3278 41.896z" fill="#6a2ea0"/><path d="m109.703 313.555c-.654 0-1.182-.527-1.182-1.181v-16.248c0-.653.528-1.181 1.182-1.181s1.182.528 1.182 1.181v16.248c0 .654-.528 1.181-1.182 1.181z" fill="#6a2ea0"/><path d="m117.173 380.911c-.11 0-.228-.016-.339-.047-.622-.189-.985-.843-.796-1.472l16.815-56.319c.678-2.259.252-4.645-1.158-6.534-1.411-1.89-3.577-2.976-5.933-2.976h-8.581c-.654 0-1.182-.527-1.182-1.181 0-.653.528-1.181 1.182-1.181h8.581c3.112 0 5.972 1.433 7.832 3.929 1.859 2.495 2.419 5.636 1.528 8.62l-16.814 56.327c-.15.503-.623.834-1.135.834z" fill="#6a2ea0"/><path d="m142.97 380.99h-94.5518c-.654 0-1.1819-.528-1.1819-1.181 0-.654.5279-1.181 1.1819-1.181h94.5518c.654 0 1.182.527 1.182 1.181 0 .653-.528 1.181-1.182 1.181z" fill="#6a2ea0"/><path d="m109.704 297.37c2.001 0 3.624-1.622 3.624-3.622 0-1.999-1.623-3.621-3.624-3.621-2.002 0-3.625 1.622-3.625 3.621 0 2 1.623 3.622 3.625 3.622z" fill="#0061ff"/><path d="m38.1753 176.151c2.0017 0 3.6245-1.621 3.6245-3.621s-1.6228-3.621-3.6245-3.621c-2.0018 0-3.6245 1.621-3.6245 3.621s1.6227 3.621 3.6245 3.621z" fill="#0061ff"/><path d="m340.829 62.2386c2.001 0 3.624-1.6213 3.624-3.6212 0-2-1.623-3.6213-3.624-3.6213-2.002 0-3.625 1.6213-3.625 3.6213 0 1.9999 1.623 3.6212 3.625 3.6212z" fill="#0061ff"/><path d="m180.445 218.544c-.654 0-1.182-.527-1.182-1.181v-28.08h-38.215c-.654 0-1.182-.528-1.182-1.181v-31.151h-53.9732c-.6539 0-1.1819-.528-1.1819-1.181s.528-1.181 1.1819-1.181h55.1552c.654 0 1.182.528 1.182 1.181v31.151h38.215c.654 0 1.182.527 1.182 1.181v29.261c0 .646-.528 1.181-1.182 1.181z" fill="#6a2ea0"/><path d="m141.048 205.169c-.654 0-1.182-.527-1.182-1.181v-15.886c0-.654.528-1.181 1.182-1.181s1.182.527 1.182 1.181v15.886c0 .654-.528 1.181-1.182 1.181z" fill="#6a2ea0"/><path d="m197.606 241.059c-.654 0-1.182-.528-1.182-1.181 0-12.178-9.912-22.082-22.101-22.082-12.19 0-22.102 9.904-22.102 22.082 0 .653-.528 1.181-1.182 1.181s-1.182-.528-1.182-1.181c0-13.477 10.976-24.444 24.466-24.444 13.489 0 24.465 10.967 24.465 24.444 0 .646-.528 1.181-1.182 1.181z" fill="#6a2ea0"/><path d="m73.1038 225.991c-.654 0-1.1819-.527-1.1819-1.181v-141.3318c0-14.3591 11.6929-26.0417 26.0648-26.0417h156.8703c.654 0 1.181.5275 1.181 1.1809s-.527 1.1808-1.181 1.1808h-156.8781c-13.064 0-23.7011 10.6198-23.7011 23.68v141.3398c.0079.646-.52 1.173-1.174 1.173z" fill="#6a2ea0"/><path d="m130.804 192.054h-12.26c-.654 0-1.182-.528-1.182-1.181v-18.894c0-.653.528-1.181 1.182-1.181h12.26c.654 0 1.182.528 1.182 1.181v18.894c0 .653-.528 1.181-1.182 1.181zm-11.078-2.362h9.897v-16.532h-9.897z" fill="#6a2ea0"/><path d="m130.804 229.124h-12.26c-.654 0-1.182-.527-1.182-1.18v-18.894c0-.653.528-1.181 1.182-1.181h12.26c.654 0 1.182.528 1.182 1.181v18.894c0 .645-.528 1.18-1.182 1.18zm-11.078-2.361h9.897v-16.532h-9.897z" fill="#6a2ea0"/><path d="m254.857 225.117c-.197 0-.402-.047-.591-.157-22.093-12.745-24.063-27.238-24.134-27.852-.079-.646.386-1.236 1.032-1.315.638-.079 1.237.386 1.316 1.031.016.142 1.993 13.982 22.968 26.089.567.323.756 1.047.433 1.614-.22.378-.614.59-1.024.59z" fill="#6a2ea0"/><path d="m236.633 198.155c-.134 0-.268-.024-.394-.071-.615-.221-.938-.898-.717-1.512l2.048-5.739c.221-.614.898-.936 1.513-.716s.938.897.717 1.511l-2.049 5.739c-.173.481-.63.788-1.118.788z" fill="#6a2ea0"/><path d="m231.305 198.155c-.134 0-.267-.024-.394-.071-.614-.221-.937-.898-.717-1.512l4.641-12.997c.221-.614.899-.937 1.513-.716.615.22.938.897.717 1.511l-4.641 12.997c-.181.481-.638.788-1.119.788z" fill="#6a2ea0"/><path d="m239.635 206.405c-.134 0-.268-.024-.394-.071-.615-.22-.938-.897-.717-1.511l3.435-9.613c.221-.614.898-.936 1.513-.716.614.22.937.897.717 1.512l-3.436 9.612c-.181.488-.638.787-1.118.787z" fill="#6a2ea0"/><path d="m244.015 210.782c-.134 0-.268-.024-.394-.071-.614-.22-.937-.897-.717-1.511l3.436-9.613c.22-.614.898-.936 1.513-.716.614.221.937.898.717 1.512l-3.436 9.612c-.181.488-.638.787-1.119.787z" fill="#6a2ea0"/><path d="m286.997 225.165c-.591 0-1.103-.449-1.174-1.055-1.592-14.414-6.556-27.986-6.603-28.12-.229-.614.087-1.291.701-1.52.615-.228 1.292.087 1.521.701.047.142 5.114 13.981 6.737 28.679.071.646-.394 1.228-1.048 1.307-.047.008-.087.008-.134.008z" fill="#6a2ea0"/><path d="m270.632 220.134c-.237 0-.465-.071-.67-.212-.079-.055-7.911-5.409-20.384-7.416-.646-.102-1.08-.709-.977-1.354.102-.646.709-1.079 1.355-.976 13.04 2.102 21.022 7.581 21.353 7.809.536.37.67 1.11.292 1.645-.229.323-.591.504-.969.504z" fill="#6a2ea0"/><path d="m281.923 152.637c-.347 0-.67-.055-.977-.166-.56-.204-1.529-.787-1.71-2.401-.252-2.251.449-10.005.536-10.879.063-.654.63-1.126 1.284-1.071.646.063 1.127.638 1.072 1.283-.213 2.315-.725 8.699-.536 10.4.024.181.079.409.173.448.292.103 1.285-.133 2.388-1.172.472-.449 1.221-.426 1.67.047.449.472.426 1.22-.047 1.669-1.261 1.188-2.655 1.842-3.853 1.842z" fill="#6a2ea0"/><path d="m312.605 118.786c-.197 0-.402-.048-.583-.158l-14.577-8.313c-.567-.323-.764-1.047-.441-1.614s1.048-.763 1.615-.441l14.577 8.314c.567.322.764 1.047.441 1.613-.22.386-.622.599-1.032.599z" fill="#6a2ea0"/><path d="m287.95 153.715c-.591 0-1.095-.44-1.174-1.039-.078-.645.379-1.236 1.025-1.314.173-.024 3.924-.567 4.373-4.244.079-.645.669-1.11 1.316-1.031.646.079 1.111.669 1.032 1.315-.544 4.424-4.444 6.054-6.43 6.298-.047.015-.094.015-.142.015z" fill="#6a2ea0"/><path d="m297.556 171.334c-.741 0-1.466-.048-2.183-.142-6.934-.913-10.251-5.936-10.385-6.148-.354-.551-.197-1.276.355-1.63.551-.354 1.276-.197 1.631.346.047.063 2.931 4.354 8.762 5.094 6.145.787 13.268-2.441 21.171-9.597.481-.44 1.23-.401 1.671.079s.402 1.228-.079 1.669c-7.596 6.865-14.624 10.329-20.943 10.329z" fill="#6a2ea0"/><path d="m218.691 124.399c5.113 0 9.258-4.142 9.258-9.25 0-5.109-4.145-9.25-9.258-9.25s-9.258 4.141-9.258 9.25c0 5.108 4.145 9.25 9.258 9.25z" fill="#ff4c84"/><path d="m218.864 119.746c-.339 0-.662-.141-.882-.401l-5.335-6.038c-.433-.488-.386-1.236.103-1.669.488-.433 1.237-.386 1.67.102l4.294 4.857 6.792-10.801c.347-.551 1.08-.716 1.631-.37.552.347.717 1.079.371 1.63l-7.635 12.139c-.197.315-.536.52-.906.551-.04 0-.071 0-.103 0z" fill="#6a2ea0"/><path d="m226.854 183.355c-.197 0-.402-.048-.591-.158l-.142-.079c-.567-.33-.756-1.047-.425-1.613.331-.567 1.048-.756 1.615-.425l.134.078c.567.323.756 1.047.433 1.614-.22.37-.614.583-1.024.583zm-4.791-3.031c-.228 0-.464-.071-.669-.213l-.134-.094c-.536-.37-.67-1.11-.292-1.646.37-.535 1.111-.669 1.647-.291l.126.087c.536.37.67 1.102.299 1.645-.236.331-.606.512-.977.512zm-4.499-3.44c-.268 0-.543-.095-.764-.284l-.118-.102c-.497-.425-.56-1.165-.134-1.661.425-.496 1.166-.559 1.662-.134l.119.102c.496.425.559 1.165.134 1.661-.237.276-.568.418-.899.418zm-4.113-3.897c-.315 0-.63-.126-.859-.37l-.118-.118c-.441-.481-.417-1.228.063-1.669.481-.441 1.229-.417 1.671.063l.102.11c.449.472.426 1.22-.047 1.669-.229.205-.52.315-.812.315zm-3.601-4.377c-.37 0-.732-.173-.961-.496l-.094-.134c-.379-.535-.253-1.267.283-1.645s1.269-.252 1.647.283l.087.126c.378.535.252 1.267-.276 1.645-.205.15-.441.221-.686.221zm-2.931-4.842c-.433 0-.843-.236-1.056-.645l-.07-.15c-.292-.582-.056-1.291.527-1.582.584-.291 1.293-.055 1.584.527l.071.134c.3.583.063 1.291-.52 1.59-.173.087-.355.126-.536.126zm-2.143-5.235c-.504 0-.969-.323-1.127-.826l-.047-.15c-.197-.622.15-1.283.772-1.48.623-.197 1.285.15 1.482.771l.047.15c.197.622-.15 1.283-.772 1.48-.119.032-.245.055-.355.055zm-1.276-5.518c-.576 0-1.08-.425-1.167-1.008l-.023-.165c-.095-.646.362-1.244 1.008-1.331.647-.094 1.245.362 1.332 1.008l.024.149c.094.646-.347 1.244-.993 1.339-.063 0-.118.008-.181.008zm-.386-5.653h-.008c-.654-.008-1.174-.535-1.174-1.188v-.166c.008-.653.559-1.188 1.197-1.165.654.008 1.174.543 1.166 1.197v.149c0 .654-.527 1.173-1.181 1.173zm.449-5.644c-.055 0-.119-.008-.174-.016-.646-.094-1.095-.693-.992-1.338l.023-.158c.095-.645.701-1.086 1.34-.992.646.095 1.095.693.992 1.339l-.023.157c-.087.583-.591 1.008-1.166 1.008zm1.182-5.542c-.103 0-.213-.016-.323-.048-.631-.173-.993-.826-.82-1.456l.047-.157c.182-.63.836-.992 1.458-.819.63.181.993.827.819 1.456l-.039.15c-.15.535-.63.874-1.142.874zm1.835-5.361c-.149 0-.299-.032-.449-.087-.606-.244-.89-.937-.646-1.543l.063-.149c.252-.607.938-.89 1.545-.638.606.252.89.937.638 1.543l-.055.142c-.182.456-.623.732-1.096.732zm2.49-5.094c-.205 0-.417-.055-.606-.165-.56-.339-.741-1.063-.41-1.622l.094-.157c.347-.551 1.08-.717 1.631-.37.552.346.717 1.07.371 1.629l-.071.118c-.213.363-.607.567-1.009.567z" fill="#6a2ea0"/></svg>