<svg width="387" height="387" viewBox="0 0 387 387" fill="none" xmlns="http://www.w3.org/2000/svg">
<path d="M254.697 101.187C256.122 101.187 257.277 100.032 257.277 98.6073C257.277 97.1824 256.122 96.0273 254.697 96.0273C253.272 96.0273 252.117 97.1824 252.117 98.6073C252.117 100.032 253.272 101.187 254.697 101.187Z" fill="#D7DFFE"/>
<path d="M192.777 101.187C194.202 101.187 195.357 100.032 195.357 98.6073C195.357 97.1824 194.202 96.0273 192.777 96.0273C191.352 96.0273 190.197 97.1824 190.197 98.6073C190.197 100.032 191.352 101.187 192.777 101.187Z" fill="#D7DFFE"/>
<path d="M130.857 101.187C132.282 101.187 133.437 100.032 133.437 98.6073C133.437 97.1824 132.282 96.0273 130.857 96.0273C129.432 96.0273 128.277 97.1824 128.277 98.6073C128.277 100.032 129.432 101.187 130.857 101.187Z" fill="#D7DFFE"/>
<path d="M254.697 163.107C256.122 163.107 257.277 161.952 257.277 160.527C257.277 159.102 256.122 157.947 254.697 157.947C253.272 157.947 252.117 159.102 252.117 160.527C252.117 161.952 253.272 163.107 254.697 163.107Z" fill="#D7DFFE"/>
<path d="M254.697 255.986C256.122 255.986 257.277 254.831 257.277 253.406C257.277 251.981 256.122 250.826 254.697 250.826C253.272 250.826 252.117 251.981 252.117 253.406C252.117 254.831 253.272 255.986 254.697 255.986Z" fill="#D7DFFE"/>
<path d="M192.777 163.107C194.202 163.107 195.357 161.952 195.357 160.527C195.357 159.102 194.202 157.947 192.777 157.947C191.352 157.947 190.197 159.102 190.197 160.527C190.197 161.952 191.352 163.107 192.777 163.107Z" fill="#D7DFFE"/>
<path d="M130.857 163.107C132.282 163.107 133.437 161.952 133.437 160.527C133.437 159.102 132.282 157.947 130.857 157.947C129.432 157.947 128.277 159.102 128.277 160.527C128.277 161.952 129.432 163.107 130.857 163.107Z" fill="#D7DFFE"/>
<path d="M192.777 255.986C194.202 255.986 195.357 254.831 195.357 253.406C195.357 251.981 194.202 250.826 192.777 250.826C191.352 250.826 190.197 251.981 190.197 253.406C190.197 254.831 191.352 255.986 192.777 255.986Z" fill="#D7DFFE"/>
<path d="M130.857 255.986C132.282 255.986 133.437 254.831 133.437 253.406C133.437 251.981 132.282 250.826 130.857 250.826C129.432 250.826 128.277 251.981 128.277 253.406C128.277 254.831 129.432 255.986 130.857 255.986Z" fill="#D7DFFE"/>
<path d="M223.737 101.187C225.162 101.187 226.317 100.032 226.317 98.6073C226.317 97.1824 225.162 96.0273 223.737 96.0273C222.312 96.0273 221.157 97.1824 221.157 98.6073C221.157 100.032 222.312 101.187 223.737 101.187Z" fill="#D7DFFE"/>
<path d="M161.817 101.187C163.242 101.187 164.397 100.032 164.397 98.6073C164.397 97.1824 163.242 96.0273 161.817 96.0273C160.392 96.0273 159.237 97.1824 159.237 98.6073C159.237 100.032 160.392 101.187 161.817 101.187Z" fill="#D7DFFE"/>
<path d="M99.8974 101.187C101.322 101.187 102.477 100.032 102.477 98.6073C102.477 97.1824 101.322 96.0273 99.8974 96.0273C98.4725 96.0273 97.3174 97.1824 97.3174 98.6073C97.3174 100.032 98.4725 101.187 99.8974 101.187Z" fill="#D7DFFE"/>
<path d="M223.737 163.107C225.162 163.107 226.317 161.952 226.317 160.527C226.317 159.102 225.162 157.947 223.737 157.947C222.312 157.947 221.157 159.102 221.157 160.527C221.157 161.952 222.312 163.107 223.737 163.107Z" fill="#D7DFFE"/>
<path d="M223.737 255.986C225.162 255.986 226.317 254.831 226.317 253.406C226.317 251.981 225.162 250.826 223.737 250.826C222.312 250.826 221.157 251.981 221.157 253.406C221.157 254.831 222.312 255.986 223.737 255.986Z" fill="#D7DFFE"/>
<path d="M161.817 163.107C163.242 163.107 164.397 161.952 164.397 160.527C164.397 159.102 163.242 157.947 161.817 157.947C160.392 157.947 159.237 159.102 159.237 160.527C159.237 161.952 160.392 163.107 161.817 163.107Z" fill="#D7DFFE"/>
<path d="M99.8974 163.107C101.322 163.107 102.477 161.952 102.477 160.527C102.477 159.102 101.322 157.947 99.8974 157.947C98.4725 157.947 97.3174 159.102 97.3174 160.527C97.3174 161.952 98.4725 163.107 99.8974 163.107Z" fill="#D7DFFE"/>
<path d="M161.817 255.986C163.242 255.986 164.397 254.831 164.397 253.406C164.397 251.981 163.242 250.826 161.817 250.826C160.392 250.826 159.237 251.981 159.237 253.406C159.237 254.831 160.392 255.986 161.817 255.986Z" fill="#D7DFFE"/>
<path d="M99.8974 255.986C101.322 255.986 102.477 254.831 102.477 253.406C102.477 251.981 101.322 250.826 99.8974 250.826C98.4725 250.826 97.3174 251.981 97.3174 253.406C97.3174 254.831 98.4725 255.986 99.8974 255.986Z" fill="#D7DFFE"/>
<path d="M254.697 132.146C256.122 132.146 257.277 130.991 257.277 129.566C257.277 128.141 256.122 126.986 254.697 126.986C253.272 126.986 252.117 128.141 252.117 129.566C252.117 130.991 253.272 132.146 254.697 132.146Z" fill="#D7DFFE"/>
<path d="M254.697 225.025C256.122 225.025 257.277 223.87 257.277 222.445C257.277 221.02 256.122 219.865 254.697 219.865C253.272 219.865 252.117 221.02 252.117 222.445C252.117 223.87 253.272 225.025 254.697 225.025Z" fill="#D7DFFE"/>
<path d="M192.777 132.146C194.202 132.146 195.357 130.991 195.357 129.566C195.357 128.141 194.202 126.986 192.777 126.986C191.352 126.986 190.197 128.141 190.197 129.566C190.197 130.991 191.352 132.146 192.777 132.146Z" fill="#D7DFFE"/>
<path d="M130.857 132.146C132.282 132.146 133.437 130.991 133.437 129.566C133.437 128.141 132.282 126.986 130.857 126.986C129.432 126.986 128.277 128.141 128.277 129.566C128.277 130.991 129.432 132.146 130.857 132.146Z" fill="#D7DFFE"/>
<path d="M192.777 225.025C194.202 225.025 195.357 223.87 195.357 222.445C195.357 221.02 194.202 219.865 192.777 219.865C191.352 219.865 190.197 221.02 190.197 222.445C190.197 223.87 191.352 225.025 192.777 225.025Z" fill="#D7DFFE"/>
<path d="M130.857 225.025C132.282 225.025 133.437 223.87 133.437 222.445C133.437 221.02 132.282 219.865 130.857 219.865C129.432 219.865 128.277 221.02 128.277 222.445C128.277 223.87 129.432 225.025 130.857 225.025Z" fill="#D7DFFE"/>
<path d="M254.697 194.066C256.122 194.066 257.277 192.911 257.277 191.486C257.277 190.061 256.122 188.906 254.697 188.906C253.272 188.906 252.117 190.061 252.117 191.486C252.117 192.911 253.272 194.066 254.697 194.066Z" fill="#D7DFFE"/>
<path d="M254.697 286.947C256.122 286.947 257.277 285.792 257.277 284.367C257.277 282.942 256.122 281.787 254.697 281.787C253.272 281.787 252.117 282.942 252.117 284.367C252.117 285.792 253.272 286.947 254.697 286.947Z" fill="#D7DFFE"/>
<path d="M192.777 194.066C194.202 194.066 195.357 192.911 195.357 191.486C195.357 190.061 194.202 188.906 192.777 188.906C191.352 188.906 190.197 190.061 190.197 191.486C190.197 192.911 191.352 194.066 192.777 194.066Z" fill="#D7DFFE"/>
<path d="M130.857 194.066C132.282 194.066 133.437 192.911 133.437 191.486C133.437 190.061 132.282 188.906 130.857 188.906C129.432 188.906 128.277 190.061 128.277 191.486C128.277 192.911 129.432 194.066 130.857 194.066Z" fill="#D7DFFE"/>
<path d="M192.777 286.947C194.202 286.947 195.357 285.792 195.357 284.367C195.357 282.942 194.202 281.787 192.777 281.787C191.352 281.787 190.197 282.942 190.197 284.367C190.197 285.792 191.352 286.947 192.777 286.947Z" fill="#D7DFFE"/>
<path d="M130.857 286.947C132.282 286.947 133.437 285.792 133.437 284.367C133.437 282.942 132.282 281.787 130.857 281.787C129.432 281.787 128.277 282.942 128.277 284.367C128.277 285.792 129.432 286.947 130.857 286.947Z" fill="#D7DFFE"/>
<path d="M223.737 132.146C225.162 132.146 226.317 130.991 226.317 129.566C226.317 128.141 225.162 126.986 223.737 126.986C222.312 126.986 221.157 128.141 221.157 129.566C221.157 130.991 222.312 132.146 223.737 132.146Z" fill="#D7DFFE"/>
<path d="M223.737 225.025C225.162 225.025 226.317 223.87 226.317 222.445C226.317 221.02 225.162 219.865 223.737 219.865C222.312 219.865 221.157 221.02 221.157 222.445C221.157 223.87 222.312 225.025 223.737 225.025Z" fill="#D7DFFE"/>
<path d="M161.817 132.146C163.242 132.146 164.397 130.991 164.397 129.566C164.397 128.141 163.242 126.986 161.817 126.986C160.392 126.986 159.237 128.141 159.237 129.566C159.237 130.991 160.392 132.146 161.817 132.146Z" fill="#D7DFFE"/>
<path d="M99.8974 132.146C101.322 132.146 102.477 130.991 102.477 129.566C102.477 128.141 101.322 126.986 99.8974 126.986C98.4725 126.986 97.3174 128.141 97.3174 129.566C97.3174 130.991 98.4725 132.146 99.8974 132.146Z" fill="#D7DFFE"/>
<path d="M161.817 225.025C163.242 225.025 164.397 223.87 164.397 222.445C164.397 221.02 163.242 219.865 161.817 219.865C160.392 219.865 159.237 221.02 159.237 222.445C159.237 223.87 160.392 225.025 161.817 225.025Z" fill="#D7DFFE"/>
<path d="M99.8974 225.025C101.322 225.025 102.477 223.87 102.477 222.445C102.477 221.02 101.322 219.865 99.8974 219.865C98.4725 219.865 97.3174 221.02 97.3174 222.445C97.3174 223.87 98.4725 225.025 99.8974 225.025Z" fill="#D7DFFE"/>
<path d="M223.737 194.066C225.162 194.066 226.317 192.911 226.317 191.486C226.317 190.061 225.162 188.906 223.737 188.906C222.312 188.906 221.157 190.061 221.157 191.486C221.157 192.911 222.312 194.066 223.737 194.066Z" fill="#D7DFFE"/>
<path d="M223.737 286.947C225.162 286.947 226.317 285.792 226.317 284.367C226.317 282.942 225.162 281.787 223.737 281.787C222.312 281.787 221.157 282.942 221.157 284.367C221.157 285.792 222.312 286.947 223.737 286.947Z" fill="#D7DFFE"/>
<path d="M161.817 194.066C163.242 194.066 164.397 192.911 164.397 191.486C164.397 190.061 163.242 188.906 161.817 188.906C160.392 188.906 159.237 190.061 159.237 191.486C159.237 192.911 160.392 194.066 161.817 194.066Z" fill="#D7DFFE"/>
<path d="M99.8974 194.066C101.322 194.066 102.477 192.911 102.477 191.486C102.477 190.061 101.322 188.906 99.8974 188.906C98.4725 188.906 97.3174 190.061 97.3174 191.486C97.3174 192.911 98.4725 194.066 99.8974 194.066Z" fill="#D7DFFE"/>
<path d="M161.817 286.947C163.242 286.947 164.397 285.792 164.397 284.367C164.397 282.942 163.242 281.787 161.817 281.787C160.392 281.787 159.237 282.942 159.237 284.367C159.237 285.792 160.392 286.947 161.817 286.947Z" fill="#D7DFFE"/>
<path d="M99.8974 286.947C101.322 286.947 102.477 285.792 102.477 284.367C102.477 282.942 101.322 281.787 99.8974 281.787C98.4725 281.787 97.3174 282.942 97.3174 284.367C97.3174 285.792 98.4725 286.947 99.8974 286.947Z" fill="#D7DFFE"/>
<path d="M285.657 101.187C287.082 101.187 288.237 100.032 288.237 98.6073C288.237 97.1824 287.082 96.0273 285.657 96.0273C284.232 96.0273 283.077 97.1824 283.077 98.6073C283.077 100.032 284.232 101.187 285.657 101.187Z" fill="#D7DFFE"/>
<path d="M285.657 163.107C287.082 163.107 288.237 161.952 288.237 160.527C288.237 159.102 287.082 157.947 285.657 157.947C284.232 157.947 283.077 159.102 283.077 160.527C283.077 161.952 284.232 163.107 285.657 163.107Z" fill="#D7DFFE"/>
<path d="M285.657 255.986C287.082 255.986 288.237 254.831 288.237 253.406C288.237 251.981 287.082 250.826 285.657 250.826C284.232 250.826 283.077 251.981 283.077 253.406C283.077 254.831 284.232 255.986 285.657 255.986Z" fill="#D7DFFE"/>
<path d="M285.657 132.146C287.082 132.146 288.237 130.991 288.237 129.566C288.237 128.141 287.082 126.986 285.657 126.986C284.232 126.986 283.077 128.141 283.077 129.566C283.077 130.991 284.232 132.146 285.657 132.146Z" fill="#D7DFFE"/>
<path d="M285.657 225.025C287.082 225.025 288.237 223.87 288.237 222.445C288.237 221.02 287.082 219.865 285.657 219.865C284.232 219.865 283.077 221.02 283.077 222.445C283.077 223.87 284.232 225.025 285.657 225.025Z" fill="#D7DFFE"/>
<path d="M285.657 194.066C287.082 194.066 288.237 192.911 288.237 191.486C288.237 190.061 287.082 188.906 285.657 188.906C284.232 188.906 283.077 190.061 283.077 191.486C283.077 192.911 284.232 194.066 285.657 194.066Z" fill="#D7DFFE"/>
<path d="M285.657 286.947C287.082 286.947 288.237 285.792 288.237 284.367C288.237 282.942 287.082 281.787 285.657 281.787C284.232 281.787 283.077 282.942 283.077 284.367C283.077 285.792 284.232 286.947 285.657 286.947Z" fill="#D7DFFE"/>
<path d="M254.697 317.906C256.122 317.906 257.277 316.751 257.277 315.326C257.277 313.901 256.122 312.746 254.697 312.746C253.272 312.746 252.117 313.901 252.117 315.326C252.117 316.751 253.272 317.906 254.697 317.906Z" fill="#D7DFFE"/>
<path d="M192.777 317.906C194.202 317.906 195.357 316.751 195.357 315.326C195.357 313.901 194.202 312.746 192.777 312.746C191.352 312.746 190.197 313.901 190.197 315.326C190.197 316.751 191.352 317.906 192.777 317.906Z" fill="#D7DFFE"/>
<path d="M130.857 317.906C132.282 317.906 133.437 316.751 133.437 315.326C133.437 313.901 132.282 312.746 130.857 312.746C129.432 312.746 128.277 313.901 128.277 315.326C128.277 316.751 129.432 317.906 130.857 317.906Z" fill="#D7DFFE"/>
<path d="M223.737 317.906C225.162 317.906 226.317 316.751 226.317 315.326C226.317 313.901 225.162 312.746 223.737 312.746C222.312 312.746 221.157 313.901 221.157 315.326C221.157 316.751 222.312 317.906 223.737 317.906Z" fill="#D7DFFE"/>
<path d="M161.817 317.906C163.242 317.906 164.397 316.751 164.397 315.326C164.397 313.901 163.242 312.746 161.817 312.746C160.392 312.746 159.237 313.901 159.237 315.326C159.237 316.751 160.392 317.906 161.817 317.906Z" fill="#D7DFFE"/>
<path d="M99.8974 317.906C101.322 317.906 102.477 316.751 102.477 315.326C102.477 313.901 101.322 312.746 99.8974 312.746C98.4725 312.746 97.3174 313.901 97.3174 315.326C97.3174 316.751 98.4725 317.906 99.8974 317.906Z" fill="#D7DFFE"/>
<path d="M285.657 317.906C287.082 317.906 288.237 316.751 288.237 315.326C288.237 313.901 287.082 312.746 285.657 312.746C284.232 312.746 283.077 313.901 283.077 315.326C283.077 316.751 284.232 317.906 285.657 317.906Z" fill="#D7DFFE"/>
<path d="M254.697 39.2655C256.122 39.2655 257.277 38.1104 257.277 36.6855C257.277 35.2606 256.122 34.1055 254.697 34.1055C253.272 34.1055 252.117 35.2606 252.117 36.6855C252.117 38.1104 253.272 39.2655 254.697 39.2655Z" fill="#D7DFFE"/>
<path d="M192.777 39.2655C194.202 39.2655 195.357 38.1104 195.357 36.6855C195.357 35.2606 194.202 34.1055 192.777 34.1055C191.352 34.1055 190.197 35.2606 190.197 36.6855C190.197 38.1104 191.352 39.2655 192.777 39.2655Z" fill="#D7DFFE"/>
<path d="M130.857 39.2655C132.282 39.2655 133.437 38.1104 133.437 36.6855C133.437 35.2606 132.282 34.1055 130.857 34.1055C129.432 34.1055 128.277 35.2606 128.277 36.6855C128.277 38.1104 129.432 39.2655 130.857 39.2655Z" fill="#D7DFFE"/>
<path d="M223.737 39.2655C225.162 39.2655 226.317 38.1104 226.317 36.6855C226.317 35.2606 225.162 34.1055 223.737 34.1055C222.312 34.1055 221.157 35.2606 221.157 36.6855C221.157 38.1104 222.312 39.2655 223.737 39.2655Z" fill="#D7DFFE"/>
<path d="M161.817 39.2655C163.242 39.2655 164.397 38.1104 164.397 36.6855C164.397 35.2606 163.242 34.1055 161.817 34.1055C160.392 34.1055 159.237 35.2606 159.237 36.6855C159.237 38.1104 160.392 39.2655 161.817 39.2655Z" fill="#D7DFFE"/>
<path d="M99.8974 39.2655C101.322 39.2655 102.477 38.1104 102.477 36.6855C102.477 35.2606 101.322 34.1055 99.8974 34.1055C98.4725 34.1055 97.3174 35.2606 97.3174 36.6855C97.3174 38.1104 98.4725 39.2655 99.8974 39.2655Z" fill="#D7DFFE"/>
<path d="M254.697 8.30648C256.122 8.30648 257.277 7.15138 257.277 5.72648C257.277 4.30159 256.122 3.14648 254.697 3.14648C253.272 3.14648 252.117 4.30159 252.117 5.72648C252.117 7.15138 253.272 8.30648 254.697 8.30648Z" fill="#D7DFFE"/>
<path d="M192.777 8.30648C194.202 8.30648 195.357 7.15138 195.357 5.72648C195.357 4.30159 194.202 3.14648 192.777 3.14648C191.352 3.14648 190.197 4.30159 190.197 5.72648C190.197 7.15138 191.352 8.30648 192.777 8.30648Z" fill="#D7DFFE"/>
<path d="M130.857 8.30648C132.282 8.30648 133.437 7.15138 133.437 5.72648C133.437 4.30159 132.282 3.14648 130.857 3.14648C129.432 3.14648 128.277 4.30159 128.277 5.72648C128.277 7.15138 129.432 8.30648 130.857 8.30648Z" fill="#D7DFFE"/>
<path d="M254.697 70.2264C256.122 70.2264 257.277 69.0713 257.277 67.6464C257.277 66.2215 256.122 65.0664 254.697 65.0664C253.272 65.0664 252.117 66.2215 252.117 67.6464C252.117 69.0713 253.272 70.2264 254.697 70.2264Z" fill="#D7DFFE"/>
<path d="M192.777 70.2264C194.202 70.2264 195.357 69.0713 195.357 67.6464C195.357 66.2215 194.202 65.0664 192.777 65.0664C191.352 65.0664 190.197 66.2215 190.197 67.6464C190.197 69.0713 191.352 70.2264 192.777 70.2264Z" fill="#D7DFFE"/>
<path d="M130.857 70.2264C132.282 70.2264 133.437 69.0713 133.437 67.6464C133.437 66.2215 132.282 65.0664 130.857 65.0664C129.432 65.0664 128.277 66.2215 128.277 67.6464C128.277 69.0713 129.432 70.2264 130.857 70.2264Z" fill="#D7DFFE"/>
<path d="M223.737 8.30648C225.162 8.30648 226.317 7.15138 226.317 5.72648C226.317 4.30159 225.162 3.14648 223.737 3.14648C222.312 3.14648 221.157 4.30159 221.157 5.72648C221.157 7.15138 222.312 8.30648 223.737 8.30648Z" fill="#D7DFFE"/>
<path d="M161.817 8.30648C163.242 8.30648 164.397 7.15138 164.397 5.72648C164.397 4.30159 163.242 3.14648 161.817 3.14648C160.392 3.14648 159.237 4.30159 159.237 5.72648C159.237 7.15138 160.392 8.30648 161.817 8.30648Z" fill="#D7DFFE"/>
<path d="M99.8974 8.30648C101.322 8.30648 102.477 7.15138 102.477 5.72648C102.477 4.30159 101.322 3.14648 99.8974 3.14648C98.4725 3.14648 97.3174 4.30159 97.3174 5.72648C97.3174 7.15138 98.4725 8.30648 99.8974 8.30648Z" fill="#D7DFFE"/>
<path d="M223.737 70.2264C225.162 70.2264 226.317 69.0713 226.317 67.6464C226.317 66.2215 225.162 65.0664 223.737 65.0664C222.312 65.0664 221.157 66.2215 221.157 67.6464C221.157 69.0713 222.312 70.2264 223.737 70.2264Z" fill="#D7DFFE"/>
<path d="M161.817 70.2264C163.242 70.2264 164.397 69.0713 164.397 67.6464C164.397 66.2215 163.242 65.0664 161.817 65.0664C160.392 65.0664 159.237 66.2215 159.237 67.6464C159.237 69.0713 160.392 70.2264 161.817 70.2264Z" fill="#D7DFFE"/>
<path d="M99.8974 70.2264C101.322 70.2264 102.477 69.0713 102.477 67.6464C102.477 66.2215 101.322 65.0664 99.8974 65.0664C98.4725 65.0664 97.3174 66.2215 97.3174 67.6464C97.3174 69.0713 98.4725 70.2264 99.8974 70.2264Z" fill="#D7DFFE"/>
<path d="M285.657 39.2655C287.082 39.2655 288.237 38.1104 288.237 36.6855C288.237 35.2606 287.082 34.1055 285.657 34.1055C284.232 34.1055 283.077 35.2606 283.077 36.6855C283.077 38.1104 284.232 39.2655 285.657 39.2655Z" fill="#D7DFFE"/>
<path d="M285.657 8.30648C287.082 8.30648 288.237 7.15138 288.237 5.72648C288.237 4.30159 287.082 3.14648 285.657 3.14648C284.232 3.14648 283.077 4.30159 283.077 5.72648C283.077 7.15138 284.232 8.30648 285.657 8.30648Z" fill="#D7DFFE"/>
<path d="M285.657 70.2264C287.082 70.2264 288.237 69.0713 288.237 67.6464C288.237 66.2215 287.082 65.0664 285.657 65.0664C284.232 65.0664 283.077 66.2215 283.077 67.6464C283.077 69.0713 284.232 70.2264 285.657 70.2264Z" fill="#D7DFFE"/>
<path d="M378.68 101.187C380.104 101.187 381.26 100.032 381.26 98.6073C381.26 97.1824 380.104 96.0273 378.68 96.0273C377.255 96.0273 376.1 97.1824 376.1 98.6073C376.1 100.032 377.255 101.187 378.68 101.187Z" fill="#D7DFFE"/>
<path d="M316.76 101.187C318.185 101.187 319.34 100.032 319.34 98.6073C319.34 97.1824 318.185 96.0273 316.76 96.0273C315.335 96.0273 314.18 97.1824 314.18 98.6073C314.18 100.032 315.335 101.187 316.76 101.187Z" fill="#D7DFFE"/>
<path d="M378.68 163.107C380.104 163.107 381.26 161.952 381.26 160.527C381.26 159.102 380.104 157.947 378.68 157.947C377.255 157.947 376.1 159.102 376.1 160.527C376.1 161.952 377.255 163.107 378.68 163.107Z" fill="#D7DFFE"/>
<path d="M316.76 163.107C318.185 163.107 319.34 161.952 319.34 160.527C319.34 159.102 318.185 157.947 316.76 157.947C315.335 157.947 314.18 159.102 314.18 160.527C314.18 161.952 315.335 163.107 316.76 163.107Z" fill="#D7DFFE"/>
<path d="M378.68 255.986C380.104 255.986 381.26 254.831 381.26 253.406C381.26 251.981 380.104 250.826 378.68 250.826C377.255 250.826 376.1 251.981 376.1 253.406C376.1 254.831 377.255 255.986 378.68 255.986Z" fill="#D7DFFE"/>
<path d="M316.76 255.986C318.185 255.986 319.34 254.831 319.34 253.406C319.34 251.981 318.185 250.826 316.76 250.826C315.335 250.826 314.18 251.981 314.18 253.406C314.18 254.831 315.335 255.986 316.76 255.986Z" fill="#D7DFFE"/>
<path d="M347.72 101.187C349.145 101.187 350.3 100.032 350.3 98.6073C350.3 97.1824 349.145 96.0273 347.72 96.0273C346.295 96.0273 345.14 97.1824 345.14 98.6073C345.14 100.032 346.295 101.187 347.72 101.187Z" fill="#D7DFFE"/>
<path d="M347.72 163.107C349.145 163.107 350.3 161.952 350.3 160.527C350.3 159.102 349.145 157.947 347.72 157.947C346.295 157.947 345.14 159.102 345.14 160.527C345.14 161.952 346.295 163.107 347.72 163.107Z" fill="#D7DFFE"/>
<path d="M347.72 255.986C349.145 255.986 350.3 254.831 350.3 253.406C350.3 251.981 349.145 250.826 347.72 250.826C346.295 250.826 345.14 251.981 345.14 253.406C345.14 254.831 346.295 255.986 347.72 255.986Z" fill="#D7DFFE"/>
<path d="M378.68 132.146C380.104 132.146 381.26 130.991 381.26 129.566C381.26 128.141 380.104 126.986 378.68 126.986C377.255 126.986 376.1 128.141 376.1 129.566C376.1 130.991 377.255 132.146 378.68 132.146Z" fill="#D7DFFE"/>
<path d="M316.76 132.146C318.185 132.146 319.34 130.991 319.34 129.566C319.34 128.141 318.185 126.986 316.76 126.986C315.335 126.986 314.18 128.141 314.18 129.566C314.18 130.991 315.335 132.146 316.76 132.146Z" fill="#D7DFFE"/>
<path d="M378.68 225.025C380.104 225.025 381.26 223.87 381.26 222.445C381.26 221.02 380.104 219.865 378.68 219.865C377.255 219.865 376.1 221.02 376.1 222.445C376.1 223.87 377.255 225.025 378.68 225.025Z" fill="#D7DFFE"/>
<path d="M316.76 225.025C318.185 225.025 319.34 223.87 319.34 222.445C319.34 221.02 318.185 219.865 316.76 219.865C315.335 219.865 314.18 221.02 314.18 222.445C314.18 223.87 315.335 225.025 316.76 225.025Z" fill="#D7DFFE"/>
<path d="M378.68 194.066C380.104 194.066 381.26 192.911 381.26 191.486C381.26 190.061 380.104 188.906 378.68 188.906C377.255 188.906 376.1 190.061 376.1 191.486C376.1 192.911 377.255 194.066 378.68 194.066Z" fill="#D7DFFE"/>
<path d="M316.76 194.066C318.185 194.066 319.34 192.911 319.34 191.486C319.34 190.061 318.185 188.906 316.76 188.906C315.335 188.906 314.18 190.061 314.18 191.486C314.18 192.911 315.335 194.066 316.76 194.066Z" fill="#D7DFFE"/>
<path d="M378.68 286.947C380.104 286.947 381.26 285.792 381.26 284.367C381.26 282.942 380.104 281.787 378.68 281.787C377.255 281.787 376.1 282.942 376.1 284.367C376.1 285.792 377.255 286.947 378.68 286.947Z" fill="#D7DFFE"/>
<path d="M316.76 286.947C318.185 286.947 319.34 285.792 319.34 284.367C319.34 282.942 318.185 281.787 316.76 281.787C315.335 281.787 314.18 282.942 314.18 284.367C314.18 285.792 315.335 286.947 316.76 286.947Z" fill="#D7DFFE"/>
<path d="M347.72 132.146C349.145 132.146 350.3 130.991 350.3 129.566C350.3 128.141 349.145 126.986 347.72 126.986C346.295 126.986 345.14 128.141 345.14 129.566C345.14 130.991 346.295 132.146 347.72 132.146Z" fill="#D7DFFE"/>
<path d="M347.72 225.025C349.145 225.025 350.3 223.87 350.3 222.445C350.3 221.02 349.145 219.865 347.72 219.865C346.295 219.865 345.14 221.02 345.14 222.445C345.14 223.87 346.295 225.025 347.72 225.025Z" fill="#D7DFFE"/>
<path d="M347.72 194.066C349.145 194.066 350.3 192.911 350.3 191.486C350.3 190.061 349.145 188.906 347.72 188.906C346.295 188.906 345.14 190.061 345.14 191.486C345.14 192.911 346.295 194.066 347.72 194.066Z" fill="#D7DFFE"/>
<path d="M347.72 286.947C349.145 286.947 350.3 285.792 350.3 284.367C350.3 282.942 349.145 281.787 347.72 281.787C346.295 281.787 345.14 282.942 345.14 284.367C345.14 285.792 346.295 286.947 347.72 286.947Z" fill="#D7DFFE"/>
<path d="M378.68 317.906C380.104 317.906 381.26 316.751 381.26 315.326C381.26 313.901 380.104 312.746 378.68 312.746C377.255 312.746 376.1 313.901 376.1 315.326C376.1 316.751 377.255 317.906 378.68 317.906Z" fill="#D7DFFE"/>
<path d="M316.76 317.906C318.185 317.906 319.34 316.751 319.34 315.326C319.34 313.901 318.185 312.746 316.76 312.746C315.335 312.746 314.18 313.901 314.18 315.326C314.18 316.751 315.335 317.906 316.76 317.906Z" fill="#D7DFFE"/>
<path d="M347.72 317.906C349.145 317.906 350.3 316.751 350.3 315.326C350.3 313.901 349.145 312.746 347.72 312.746C346.295 312.746 345.14 313.901 345.14 315.326C345.14 316.751 346.295 317.906 347.72 317.906Z" fill="#D7DFFE"/>
<path d="M378.68 39.2655C380.104 39.2655 381.26 38.1104 381.26 36.6855C381.26 35.2606 380.104 34.1055 378.68 34.1055C377.255 34.1055 376.1 35.2606 376.1 36.6855C376.1 38.1104 377.255 39.2655 378.68 39.2655Z" fill="#D7DFFE"/>
<path d="M316.76 39.2655C318.185 39.2655 319.34 38.1104 319.34 36.6855C319.34 35.2606 318.185 34.1055 316.76 34.1055C315.335 34.1055 314.18 35.2606 314.18 36.6855C314.18 38.1104 315.335 39.2655 316.76 39.2655Z" fill="#D7DFFE"/>
<path d="M347.72 39.2655C349.145 39.2655 350.3 38.1104 350.3 36.6855C350.3 35.2606 349.145 34.1055 347.72 34.1055C346.295 34.1055 345.14 35.2606 345.14 36.6855C345.14 38.1104 346.295 39.2655 347.72 39.2655Z" fill="#D7DFFE"/>
<path d="M378.68 8.30648C380.104 8.30648 381.26 7.15138 381.26 5.72648C381.26 4.30159 380.104 3.14648 378.68 3.14648C377.255 3.14648 376.1 4.30159 376.1 5.72648C376.1 7.15138 377.255 8.30648 378.68 8.30648Z" fill="#D7DFFE"/>
<path d="M316.76 8.30648C318.185 8.30648 319.34 7.15138 319.34 5.72648C319.34 4.30159 318.185 3.14648 316.76 3.14648C315.335 3.14648 314.18 4.30159 314.18 5.72648C314.18 7.15138 315.335 8.30648 316.76 8.30648Z" fill="#D7DFFE"/>
<path d="M378.68 70.2264C380.104 70.2264 381.26 69.0713 381.26 67.6464C381.26 66.2215 380.104 65.0664 378.68 65.0664C377.255 65.0664 376.1 66.2215 376.1 67.6464C376.1 69.0713 377.255 70.2264 378.68 70.2264Z" fill="#D7DFFE"/>
<path d="M316.76 70.2264C318.185 70.2264 319.34 69.0713 319.34 67.6464C319.34 66.2215 318.185 65.0664 316.76 65.0664C315.335 65.0664 314.18 66.2215 314.18 67.6464C314.18 69.0713 315.335 70.2264 316.76 70.2264Z" fill="#D7DFFE"/>
<path d="M347.72 8.30648C349.145 8.30648 350.3 7.15138 350.3 5.72648C350.3 4.30159 349.145 3.14648 347.72 3.14648C346.295 3.14648 345.14 4.30159 345.14 5.72648C345.14 7.15138 346.295 8.30648 347.72 8.30648Z" fill="#D7DFFE"/>
<path d="M347.72 70.2264C349.145 70.2264 350.3 69.0713 350.3 67.6464C350.3 66.2215 349.145 65.0664 347.72 65.0664C346.295 65.0664 345.14 66.2215 345.14 67.6464C345.14 69.0713 346.295 70.2264 347.72 70.2264Z" fill="#D7DFFE"/>
<path d="M350.854 44.7624C355.114 44.7624 358.568 41.3086 358.568 37.0482C358.568 32.7877 355.114 29.334 350.854 29.334C346.593 29.334 343.14 32.7877 343.14 37.0482C343.14 41.3086 346.593 44.7624 350.854 44.7624Z" fill="#3761FB"/>
<path d="M45.1244 252.452C49.3848 252.452 52.8386 248.998 52.8386 244.738C52.8386 240.477 49.3848 237.023 45.1244 237.023C40.8639 237.023 37.4102 240.477 37.4102 244.738C37.4102 248.998 40.8639 252.452 45.1244 252.452Z" fill="#3761FB"/>
<path d="M207.264 317.545H147.421C140.518 317.549 133.896 314.812 129.01 309.935C124.124 305.059 121.374 298.442 121.363 291.539V292.184" stroke="#5E329C" stroke-width="3" stroke-linecap="round" stroke-linejoin="round"/>
<path d="M121.363 121.002V100.439C121.363 92.8883 124.363 85.6467 129.702 80.3075C135.041 74.9683 142.283 71.9688 149.834 71.9688H264.644C272.194 71.9688 279.436 74.9683 284.775 80.3075C290.114 85.6467 293.114 92.8883 293.114 100.439V317.546" stroke="#5E329C" stroke-width="3" stroke-linecap="round" stroke-linejoin="round"/>
<path d="M270.417 326.074C273.364 321.664 274.937 316.478 274.937 311.173C274.939 307.652 274.247 304.165 272.901 300.911C271.554 297.657 269.58 294.701 267.091 292.21C264.601 289.719 261.646 287.744 258.393 286.396C255.139 285.048 251.653 284.354 248.131 284.354C242.826 284.352 237.64 285.922 233.228 288.868C228.816 291.813 225.376 296.001 223.344 300.901C221.313 305.801 220.78 311.194 221.813 316.397C222.846 321.601 225.4 326.381 229.15 330.133C232.9 333.885 237.679 336.44 242.881 337.476C248.084 338.512 253.477 337.982 258.379 335.952C263.28 333.923 267.469 330.485 270.417 326.074Z" fill="url(#paint0_linear)"/>
<path d="M87.3203 135.076H181.49C185.696 135.08 189.73 136.75 192.706 139.722C195.683 142.694 197.36 146.724 197.37 150.93V196.545H178.343" stroke="#5E329C" stroke-width="3" stroke-linecap="round" stroke-linejoin="round"/>
<path d="M160.54 196.582H121.389" stroke="#5E329C" stroke-width="3" stroke-linecap="round" stroke-linejoin="round"/>
<path d="M246.816 169.145V196.596H233.606" stroke="#5E329C" stroke-width="3" stroke-linecap="round" stroke-linejoin="round"/>
<path d="M246.816 169.145L223.712 141.139H205.368V196.596H215.856" stroke="#5E329C" stroke-width="3" stroke-linecap="round" stroke-linejoin="round"/>
<path d="M224.757 209.236C229.958 209.236 234.174 205.02 234.174 199.819C234.174 194.618 229.958 190.402 224.757 190.402C219.556 190.402 215.34 194.618 215.34 199.819C215.34 205.02 219.556 209.236 224.757 209.236Z" stroke="#5E329C" stroke-width="3" stroke-linecap="round" stroke-linejoin="round"/>
<path d="M169.441 209.236C174.642 209.236 178.858 205.02 178.858 199.819C178.858 194.618 174.642 190.402 169.441 190.402C164.241 190.402 160.024 194.618 160.024 199.819C160.024 205.02 164.241 209.236 169.441 209.236Z" stroke="#5E329C" stroke-width="3" stroke-linecap="round" stroke-linejoin="round"/>
<path d="M155.084 196.583C155.689 193.914 157.018 191.462 158.924 189.498C160.83 187.533 163.239 186.131 165.889 185.445C168.539 184.759 171.326 184.815 173.946 185.608C176.566 186.401 178.917 187.899 180.742 189.939" stroke="#5E329C" stroke-width="3" stroke-linecap="round" stroke-linejoin="round"/>
<path d="M131.645 166.022V135.475" stroke="#5E329C" stroke-width="3" stroke-linecap="round" stroke-linejoin="round"/>
<path d="M110.411 160.294V135.475" stroke="#5E329C" stroke-width="3" stroke-linecap="round" stroke-linejoin="round"/>
<path d="M99.1367 223.635H171.854" stroke="#5E329C" stroke-width="3" stroke-linecap="round" stroke-linejoin="round"/>
<path d="M70.3057 244.57H196.094" stroke="#5E329C" stroke-width="3" stroke-linecap="round" stroke-linejoin="round"/>
<path d="M99.1367 268.074H171.854" stroke="#5E329C" stroke-width="3" stroke-linecap="round" stroke-linejoin="round"/>
<path d="M246.042 168.99H237.205C232.733 168.99 228.445 167.213 225.283 164.051C222.121 160.89 220.345 156.601 220.345 152.129V141.203" stroke="#5E329C" stroke-width="3" stroke-linecap="round" stroke-linejoin="round"/>
<path d="M230.304 302.697L248.106 322.86L273.557 282.328" stroke="#5E329C" stroke-width="3" stroke-linecap="round" stroke-linejoin="round"/>
<defs>
<linearGradient id="paint0_linear" x1="164.217" y1="187.54" x2="274.937" y2="187.54" gradientUnits="userSpaceOnUse">
<stop stop-color="#E64C84"/>
<stop offset="0.63" stop-color="#9B78D2"/>
<stop offset="1" stop-color="#7390FC"/>
</linearGradient>
</defs>
</svg>
