<svg width="338" height="338" viewBox="0 0 338 338" fill="none" xmlns="http://www.w3.org/2000/svg">
<path d="M231.061 256.615C231.061 256.615 231.061 264.15 231.061 270.449C231.061 276.748 223.082 284.269 223.082 284.269H219.554H208.84H205.312C205.312 284.269 197.333 276.748 197.333 270.449C197.333 264.15 197.333 256.615 197.333 256.615H207.742H220.652H231.061ZM129.965 112.358H84.0399V206.027L155.525 205.743L129.965 112.358Z" fill="url(#paint0_linear_2091_2988)"/>
<path d="M189.215 207.125H84.0394C83.4357 207.125 82.9484 206.638 82.9484 206.034V112.358C82.9484 111.754 83.4357 111.267 84.0394 111.267H216.375C216.979 111.267 217.466 111.754 217.466 112.358V137.648C217.466 138.252 216.979 138.739 216.375 138.739C215.771 138.739 215.284 138.252 215.284 137.648V113.449H85.1304V204.936H189.208C189.812 204.936 190.299 205.423 190.299 206.027C190.299 206.631 189.812 207.125 189.215 207.125Z" fill="#6A2EA0"/>
<path d="M140.199 234.852C139.595 234.852 139.108 234.365 139.108 233.761V206.034C139.108 205.431 139.595 204.943 140.199 204.943C140.802 204.943 141.29 205.431 141.29 206.034V233.761C141.29 234.365 140.795 234.852 140.199 234.852Z" fill="#6A2EA0"/>
<path d="M160.819 234.852C160.216 234.852 159.728 234.365 159.728 233.761V206.034C159.728 205.431 160.216 204.943 160.819 204.943C161.423 204.943 161.91 205.431 161.91 206.034V233.761C161.91 234.365 161.423 234.852 160.819 234.852Z" fill="#6A2EA0"/>
<path d="M119.52 241.987C118.916 241.987 118.429 241.5 118.429 240.896C118.429 236.358 122.124 232.67 126.655 232.67H177.25C177.854 232.67 178.341 233.157 178.341 233.761C178.341 234.365 177.854 234.852 177.25 234.852H126.655C123.324 234.852 120.611 237.565 120.611 240.896C120.611 241.5 120.123 241.987 119.52 241.987Z" fill="#6A2EA0"/>
<path d="M115.047 70.4476C116.895 70.4476 118.393 68.9496 118.393 67.1017C118.393 65.2538 116.895 63.7559 115.047 63.7559C113.199 63.7559 111.701 65.2538 111.701 67.1017C111.701 68.9496 113.199 70.4476 115.047 70.4476Z" fill="#0061FF"/>
<path d="M149.96 70.4476C151.808 70.4476 153.306 68.9496 153.306 67.1017C153.306 65.2538 151.808 63.7559 149.96 63.7559C148.112 63.7559 146.614 65.2538 146.614 67.1017C146.614 68.9496 148.112 70.4476 149.96 70.4476Z" fill="#0061FF"/>
<path d="M201.253 70.4476C203.101 70.4476 204.599 68.9496 204.599 67.1017C204.599 65.2538 203.101 63.7559 201.253 63.7559C199.405 63.7559 197.907 65.2538 197.907 67.1017C197.907 68.9496 199.405 70.4476 201.253 70.4476Z" fill="#0061FF"/>
<path d="M214.193 262.986H195.856C195.253 262.986 194.765 262.499 194.765 261.895C194.765 261.292 195.253 260.804 195.856 260.804H214.193C214.797 260.804 215.284 261.292 215.284 261.895C215.284 262.499 214.797 262.986 214.193 262.986Z" fill="#6A2EA0"/>
<path d="M242.32 285.36H163.336C162.732 285.36 162.245 284.872 162.245 284.269C162.245 283.665 162.732 283.178 163.336 283.178H242.32C242.924 283.178 243.411 283.665 243.411 284.269C243.411 284.872 242.924 285.36 242.32 285.36Z" fill="#6A2EA0"/>
<path d="M234.733 275.73C230.617 275.73 227.271 272.384 227.271 268.267C227.271 264.15 230.617 260.804 234.733 260.804C238.85 260.804 242.196 264.15 242.196 268.267C242.196 272.384 238.85 275.73 234.733 275.73ZM234.733 262.986C231.824 262.986 229.453 265.357 229.453 268.267C229.453 271.176 231.824 273.548 234.733 273.548C237.643 273.548 240.014 271.176 240.014 268.267C240.014 265.357 237.65 262.986 234.733 262.986Z" fill="#6A2EA0"/>
<path d="M165.031 82.0705H150.389C149.785 82.0705 149.298 81.5832 149.298 80.9795C149.298 80.3758 149.785 79.8885 150.389 79.8885H165.031C172.094 79.8885 177.84 74.1423 177.84 67.0797C177.84 60.017 172.094 54.2709 165.031 54.2709H96.8337C89.7711 54.2636 84.025 60.0097 84.025 67.0724C84.025 74.135 89.7711 79.8812 96.8337 79.8812H132.707C133.311 79.8812 133.798 80.3685 133.798 80.9722C133.798 81.5759 133.311 82.0633 132.707 82.0633H96.8337C88.571 82.0705 81.8429 75.3425 81.8429 67.0724C81.8429 58.8023 88.571 52.0815 96.8337 52.0815H165.031C173.301 52.0815 180.022 58.8096 180.022 67.0724C180.022 75.3352 173.301 82.0705 165.031 82.0705Z" fill="#6A2EA0"/>
<path d="M150.44 145.707C149.96 145.707 149.523 145.394 149.392 144.907L131.659 81.2703C131.499 80.6884 131.841 80.0847 132.416 79.9247C132.998 79.7647 133.594 80.0993 133.761 80.6812L151.494 144.318C151.654 144.9 151.32 145.503 150.738 145.663C150.636 145.692 150.542 145.707 150.44 145.707Z" fill="#6A2EA0"/>
<path d="M214.084 248.992C213.48 248.992 212.993 248.505 212.993 247.901V231.259C212.993 222.189 220.375 214.806 229.446 214.806H244.778C249.79 214.806 253.87 210.726 253.87 205.714C253.87 200.703 249.79 196.622 244.778 196.622H215.699C204.694 196.622 195.74 187.668 195.74 176.663V162.8C195.74 153.373 188.073 145.707 178.647 145.707H176.465C175.861 145.707 175.374 145.22 175.374 144.616C175.374 144.012 175.861 143.525 176.465 143.525H178.647C189.274 143.525 197.922 152.173 197.922 162.8V176.663C197.922 186.468 205.894 194.44 215.699 194.44H244.778C250.997 194.44 256.052 199.495 256.052 205.714C256.052 211.933 250.997 216.988 244.778 216.988H229.446C221.576 216.988 215.175 223.389 215.175 231.259V247.901C215.175 248.505 214.687 248.992 214.084 248.992Z" fill="#6A2EA0"/>
<path d="M178.931 243.486H84.3886C83.7849 243.486 83.2976 242.998 83.2976 242.395C83.2976 241.791 83.7849 241.304 84.3886 241.304H178.931C179.534 241.304 180.022 241.791 180.022 242.395C180.022 242.998 179.534 243.486 178.931 243.486Z" fill="#6A2EA0"/>
<defs>
<linearGradient id="paint0_linear_2091_2988" x1="72.1056" y1="124.297" x2="227.583" y2="279.775" gradientUnits="userSpaceOnUse">
<stop stop-color="#4C90FF"/>
<stop offset="0.1157" stop-color="#538EFB"/>
<stop offset="0.2734" stop-color="#6487EF"/>
<stop offset="0.4552" stop-color="#817DDB"/>
<stop offset="0.655" stop-color="#A96DC0"/>
<stop offset="0.8671" stop-color="#DB5A9D"/>
<stop offset="1" stop-color="#FF4C84"/>
</linearGradient>
</defs>
</svg>
