<svg width="238" height="265" viewBox="0 0 238 265" fill="none" xmlns="http://www.w3.org/2000/svg">
<path d="M233.051 244.212L21.2368 264.167L10.4355 104.345L230.397 101.233L233.051 244.212Z" fill="#F03613"/>
<path d="M39.3613 136.291C39.3613 136.291 50.8033 135.742 64.8999 134.918C64.8999 134.918 64.9914 139.312 65.3576 146.452C65.3576 146.452 59.5908 146.726 52.451 147.184C52.451 147.184 52.451 149.472 52.7256 154.049C54.3732 153.958 56.8447 153.866 63.3438 153.5C63.3438 153.5 63.4353 157.71 63.893 164.667C63.893 164.667 59.9569 164.759 53.3663 165.125L54.0071 175.835C46.9588 176.018 41.4666 176.384 41.4666 176.384C41.4666 176.384 40.7344 159.816 39.3613 136.291Z" fill="white"/>
<path d="M67.2793 135.742C67.2793 135.742 75.7922 135.376 93.0925 134.369C93.0925 134.369 93.184 138.396 93.6417 145.079C93.6417 145.079 88.5157 145.353 80.2774 145.994C80.2774 145.994 80.2774 148.008 80.4605 150.937C81.0097 150.937 82.7489 150.937 91.1702 150.479C91.1702 150.479 91.1702 153.591 91.6279 160.091C91.6279 160.091 87.3257 160.182 81.0097 160.457L81.3759 164.301L94.374 163.569C94.374 163.569 94.374 167.139 94.6486 174.096C94.6486 174.096 83.5727 174.37 69.2931 174.919C69.2931 174.828 68.6523 159.175 67.2793 135.742Z" fill="white"/>
<path d="M111.217 161.463C111.217 161.463 110.211 161.646 109.387 161.646L110.119 173.272C110.119 173.272 103.712 173.455 97.4871 173.821C97.4871 173.821 97.1209 158.626 96.114 134.094C100.691 132.996 104.901 132.355 108.563 132.172C121.012 131.623 127.969 136.749 128.335 146.451C128.609 152.218 126.229 155.88 122.385 158.168C123.758 161.006 126.321 165.766 130.165 172.997C130.165 172.997 125.039 173.638 117.167 174.828C117.167 174.919 114.97 169.702 111.217 161.463ZM115.611 147.641C115.52 144.255 113.597 141.875 110.027 142.058C109.478 142.058 109.021 142.149 108.38 142.332C108.746 148.465 109.021 153.408 109.021 153.408C113.14 153.5 115.794 151.944 115.611 147.641Z" fill="white"/>
<path d="M129.616 147.642C129.616 147.642 130.806 147.733 132.911 147.642L132.271 132.813C136.39 131.989 140.051 131.44 143.346 131.348C158.45 130.707 165.59 137.481 166.139 152.035C166.688 166.59 159.365 172.814 143.987 173.455C140.875 173.546 137.488 173.455 133.735 173.089L133.186 158.351L129.799 158.626C129.982 158.626 130.074 154.873 129.616 147.642ZM152.683 152.401C152.317 143.889 150.12 140.593 145.086 141.234C145.177 143.431 145.269 145.536 145.36 147.55L148.015 147.459C148.015 147.459 147.923 150.479 148.472 157.527L145.909 157.619C146.092 161.555 146.367 163.935 146.367 163.935C151.035 163.935 153.049 161.464 152.683 152.401Z" fill="white"/>
<path d="M173.187 130.707C183.072 129.975 191.86 129.7 191.86 129.7C191.86 129.7 196.345 148.74 201.929 171.166C201.929 171.166 195.338 171.349 188.473 171.716C188.473 171.716 188.198 169.702 187.375 165.4C185.544 165.491 182.981 165.491 179.777 165.674L179.411 170.251C179.411 170.251 173.461 170.342 166.688 170.709C166.688 170.617 169.525 154.141 173.187 130.707ZM180.693 156.063L185.727 155.88L182.523 139.22C182.066 142.241 181.425 148.282 180.693 156.063Z" fill="white"/>
<path d="M200.007 146.085C211.907 145.902 216.484 145.628 216.484 145.628C216.575 154.232 216.758 155.697 216.758 155.697C206.964 155.971 200.556 156.337 200.556 156.337C200.373 149.015 200.007 146.085 200.007 146.085Z" fill="white"/>
<path d="M54.4638 212.998C54.0976 198.718 60.3221 191.579 71.7641 191.304C81.8331 191.029 87.966 197.162 88.7898 207.14C88.7898 207.14 80.46 207.414 75.7001 207.872C75.334 203.021 74.0525 201.007 71.8556 201.007C69.018 201.098 67.645 204.028 67.828 212.723C68.1026 221.694 69.8418 224.623 73.1371 224.532C75.2425 224.44 76.7986 223.067 77.2563 219.406L71.4895 219.772C71.4895 219.772 71.581 216.843 71.2149 210.71C71.2149 210.71 80.3685 210.618 89.7052 210.344C90.4375 227.918 83.5722 233.594 72.5879 233.868C62.3359 234.143 54.8299 228.559 54.4638 212.998Z" fill="white"/>
<path d="M91.4446 217.85C91.3531 215.561 91.5361 213.181 92.0853 211.076C92.0853 211.076 95.3806 211.442 103.527 211.808C103.344 213.09 103.344 214.554 103.344 215.744C103.436 219.955 104.351 221.603 105.907 221.603C107.921 221.511 108.836 219.223 108.562 207.506C108.47 202.472 107.921 197.529 106.914 191.121C106.914 191.121 111.125 190.755 119.363 190.023C120.37 195.881 121.102 201.922 121.194 207.689C121.56 223.25 117.532 232.129 106.273 232.404C96.5706 232.679 91.6277 227.369 91.4446 217.85Z" fill="white"/>
<path d="M139.959 189.748C128.7 190.114 122.476 198.261 122.933 211.625C123.391 225.172 129.524 232.312 141.057 232.038C151.767 231.763 158.449 225.63 158.266 210.71C157.9 197.254 152.408 189.473 139.959 189.748ZM144.444 210.893C144.627 220.504 143.346 222.609 140.874 222.701C138.22 222.793 136.847 220.23 136.572 211.351C136.389 202.105 137.488 199.451 140.142 199.359C142.797 199.268 144.261 201.465 144.444 210.893Z" fill="white"/>
<path d="M129.249 184.164C129.158 181.418 131.263 179.496 134.101 179.404C137.305 179.313 139.044 181.327 139.135 183.981C139.227 187.551 136.847 188.833 134.284 188.924C130.897 189.016 129.249 186.727 129.249 184.164Z" fill="white"/>
<path d="M142.705 183.615C142.614 181.052 144.353 179.038 147.465 178.947C150.669 178.855 152.133 180.961 152.225 183.524C152.316 186.636 150.211 188.283 147.557 188.375C144.719 188.466 142.797 186.636 142.705 183.615Z" fill="white"/>
<path d="M160.188 190.206C160.188 190.206 171.63 189.839 185.727 189.29C185.727 189.29 185.727 193.684 186.001 200.824C186.001 200.824 180.234 201.007 173.003 201.281C173.003 201.281 173.003 203.57 173.186 208.147C174.834 208.147 177.305 208.055 183.804 207.781C183.804 207.781 183.804 211.991 184.17 219.04C184.17 219.04 180.234 219.04 173.644 219.314L174.101 230.024C167.053 230.115 161.561 230.39 161.561 230.39C161.561 230.39 161.195 213.639 160.188 190.206Z" fill="white"/>
<path d="M230.946 112.675L11.2589 113.499L10.3435 103.155L230.946 101.599V112.675Z" fill="#B4291F"/>
<path d="M236.255 105.26L3.29529 108.464L0 67.6389L237.902 69.3781L236.255 105.26Z" fill="#F03613"/>
<path d="M133.826 70.6597H119.455C118.906 70.6597 105.908 70.5681 91.3534 68.2797C70.0255 64.8929 56.8443 58.6685 51.0775 49.2402C48.1484 44.3888 45.86 36.4252 51.4437 25.807C56.9359 15.1888 64.7164 12.6258 70.2086 12.3512C81.1929 11.802 93.6418 19.491 108.288 35.9675C118.265 47.1349 125.588 58.2108 125.863 58.6685L133.826 70.6597ZM71.3986 27.7293C71.307 27.7293 71.1239 27.7293 71.0324 27.7293C70.117 27.7293 67.8286 27.9123 65.1741 32.8553C62.5196 38.0728 63.8011 40.2697 64.3503 41.0935C65.8148 43.4734 71.4901 49.3318 93.7334 52.9017C97.1202 53.4509 100.416 53.817 103.528 54.1832C92.9095 40.9104 79.4537 27.7293 71.3986 27.7293Z" fill="#F03613"/>
<path d="M127.693 70.6597C127.418 70.6597 127.235 70.6597 127.052 70.6597L116.434 70.5682L119.729 60.4992C119.912 59.95 124.214 46.9518 131.446 33.313C141.972 13.5412 153.323 2.4653 165.222 0.359973C178.404 -1.92843 188.473 7.13364 194.605 15.0973C203.668 26.8139 205.864 37.4321 201.288 46.7688C195.887 57.6616 181.973 64.6183 158.54 68.2798C144.261 70.4766 130.988 70.6597 127.693 70.6597ZM169.25 15.4634C168.792 15.4634 168.335 15.4634 167.877 15.555C156.801 17.4772 145.084 38.7136 138.402 54.8239C158.906 53.634 182.98 48.9656 187.466 39.812C189.662 35.4183 185.91 29.0108 182.431 24.434C177.763 18.4841 173.369 15.4634 169.25 15.4634Z" fill="#F03613"/>
<path d="M141.058 60.7739C141.698 69.836 137.579 76.4266 128.609 77.0674C119.547 77.7081 114.512 71.1175 113.871 62.0555C113.231 52.9934 117.167 45.0297 126.229 44.389C135.199 43.7482 140.417 51.7119 141.058 60.7739Z" fill="#F03613"/>
</svg>
