<svg width="80" height="80" viewBox="0 0 80 80" fill="none" xmlns="http://www.w3.org/2000/svg">
<path d="M69.6139 0.15444V42.471C69.7683 46.9498 69.6139 51.583 67.6062 55.444C62.0463 66.2548 50.7722 75.6757 39.807 80C35.4826 78.1467 31.1583 75.9846 27.2973 73.0502C22.0463 69.0347 16.9498 63.7838 13.7066 58.3784C11.5444 54.9807 10.3089 51.2741 10 47.2587V0L69.6139 0.15444Z" fill="#005596"/>
<path d="M42.8971 1.69881C42.7426 3.24321 41.3527 4.78762 39.9627 5.25094C38.7272 5.71426 37.3372 5.55982 35.9473 5.55982V1.54437C36.8739 1.85325 37.6461 2.77989 37.955 3.70653H38.1094C39.1905 2.16213 41.0438 1.38993 42.8971 1.69881Z" fill="white"/>
<path d="M34.8651 2.47105V4.01545L34.2473 4.63322H32.7029V5.25098H34.2473L34.8651 6.17762V10.6564H32.7029V6.4865C32.5485 6.33206 32.3941 6.4865 32.0852 6.33206C32.0852 7.72202 32.0852 9.11198 32.0852 10.5019H28.6875L31.6219 8.64866V5.09654H31.0041C31.0041 5.86874 31.0041 6.94982 30.8497 7.72202L30.5408 7.87646V3.24325C31.313 2.62549 32.0852 2.16217 32.8574 1.69885H33.784L34.8651 2.47105Z" fill="white"/>
<path d="M44.2853 3.24321L44.1309 3.08877L44.2853 1.54437L46.6019 1.69881L44.2853 3.24321Z" fill="white"/>
<path d="M27.9141 3.39769V1.69885C28.8407 1.69885 29.7673 1.69885 30.694 1.69885L27.9141 3.39769Z" fill="white"/>
<path d="M27.9141 4.47878V4.01546L31.4662 1.69885V2.00773L27.9141 4.47878Z" fill="white"/>
<path d="M47.3753 3.70654V7.72198L47.0664 7.87642V2.77989L47.3753 2.62545C47.3753 2.77989 47.3753 3.08877 47.5297 3.24321L50.0008 1.54437H50.6185L47.3753 3.70654Z" fill="white"/>
<path d="M53.8625 2.62546C54.0169 2.31658 53.708 2.0077 53.708 1.69882H54.0169C54.3258 2.0077 54.4802 2.47102 54.7891 2.62546C55.098 2.47102 54.6347 2.0077 54.7891 1.69882H57.569L56.6424 3.86098H52.627V1.69882C53.2447 1.38994 53.3992 2.47102 53.8625 2.62546Z" fill="white"/>
<path d="M59.2677 1.69881C57.4144 3.86098 55.7155 6.6409 56.951 9.42082C57.1055 9.7297 57.4144 9.88414 57.7233 9.88414C58.0321 9.88414 58.4955 9.7297 58.6499 9.42082C58.8043 9.26638 58.6499 8.80306 58.4955 8.64862C58.1866 8.1853 57.4144 8.33974 57.1055 8.49418C56.951 8.03086 56.951 7.4131 57.1055 6.79534H59.731C59.731 8.1853 60.1943 10.0386 58.4955 10.6563C57.8777 10.8108 57.4144 10.8108 57.1055 10.5019C55.7155 9.42082 56.1788 7.25866 56.4877 5.71426C56.7966 4.3243 57.2599 2.77989 58.0321 1.54437C58.341 1.69881 58.8043 1.54437 59.2677 1.69881Z" fill="white"/>
<path d="M26.6803 3.08875H22.9737C22.9737 3.24319 22.8193 3.55207 22.9737 3.70651H26.0625L26.6803 4.32427V5.86868L26.0625 6.48644H24.0548C24.0548 6.64088 23.9004 6.94976 24.0548 7.1042H24.2092H26.6803V10.6563C25.9081 10.8108 25.2903 10.6563 24.5181 10.6563V8.18528C24.3637 8.18528 23.9004 8.03084 23.9004 8.33972C23.9004 9.11192 23.9004 9.88412 23.9004 10.6563H20.6571L23.5915 8.6486V8.33972C23.5915 7.25864 23.5915 6.17756 23.437 5.09647H22.9737C22.9737 5.86868 22.9737 6.79532 22.8193 7.56752L22.6648 7.8764V3.70651L22.5104 3.55207C21.5838 4.01539 20.6571 4.63315 19.7305 5.25092V4.94203C20.6571 4.32427 21.5838 3.70651 22.5104 3.08875C22.6648 2.93431 22.356 2.93431 22.2015 2.77987L20.6571 1.69879C22.6648 1.69879 24.5181 1.69879 26.6803 1.69879V3.08875Z" fill="white"/>
<path d="M51.2353 2.00773L48.1465 4.1699V3.86101L51.2353 1.69885V2.00773Z" fill="white"/>
<path d="M47.3741 1.69885V2.00773C46.293 2.77993 45.2119 3.39769 44.1309 4.01545V3.70657C45.2119 3.08881 46.293 2.31661 47.3741 1.69885Z" fill="white"/>
<path d="M60.8105 3.86101V1.69885H64.0538L60.8105 3.86101Z" fill="white"/>
<path d="M67.7623 2.31661C67.9167 2.62549 67.7623 2.93437 67.6079 3.24325C67.299 3.55213 66.9901 3.55213 66.6812 3.55213C66.5268 3.55213 66.3723 3.24325 66.2179 3.24325V4.47878C66.6812 4.63322 67.299 4.47878 67.9167 4.47878C67.9167 5.25098 67.9167 6.17762 67.9167 6.94982C66.5268 7.87646 65.1368 8.8031 63.9013 9.5753C63.7469 9.42086 64.0557 8.95754 63.7469 8.95754C63.2835 9.42086 62.9747 10.1931 62.3569 10.5019C62.048 10.6564 61.5847 10.6564 61.2758 10.5019C60.9669 10.3475 60.9669 9.88418 60.9669 9.5753C60.9669 9.26642 61.2758 8.95754 61.5847 8.8031C61.8936 8.8031 62.048 8.8031 62.2025 8.8031L62.3569 9.26642C62.5113 8.8031 62.3569 8.49422 62.3569 8.0309C61.8936 7.87646 61.2758 8.0309 60.8125 7.87646V5.40542L64.8279 2.77993C64.9824 2.93437 64.6735 3.39769 64.9824 3.39769H65.1368C65.4457 2.62549 66.2179 1.85329 66.9901 1.69885C67.299 1.69885 67.6079 2.00773 67.7623 2.31661Z" fill="white"/>
<path d="M21.7382 3.08879C21.2749 3.55211 20.5027 4.01543 19.7305 4.47875V1.85327L21.7382 3.08879Z" fill="white"/>
<path d="M18.4946 1.85329C18.3401 3.24325 17.1046 4.63321 15.7147 5.25098C14.4791 5.7143 13.0892 5.55986 11.6992 5.55986C11.6992 4.32433 11.6992 3.08881 11.6992 1.85329C12.6259 2.00773 13.3981 2.93437 13.7069 3.86101C14.0158 3.70657 14.3247 3.24325 14.6336 2.93437C15.7147 2.00773 17.1046 1.69885 18.4946 1.85329Z" fill="white"/>
<path d="M64.826 2.16215L60.8105 4.78763V4.47875L64.826 1.85327V2.16215Z" fill="white"/>
<path d="M42.4317 2.16215C42.4317 2.62547 41.9684 3.08879 41.6595 3.55211C40.7329 4.47875 39.4974 4.94207 38.2619 5.09651L38.1074 4.94207C38.4163 3.55211 39.8063 2.31659 41.1962 2.16215C41.6595 2.16215 41.9684 2.00771 42.4317 2.16215Z" fill="#005596"/>
<path d="M18.0315 2.31656C17.2593 4.16985 15.406 5.09649 13.5527 5.09649C13.8616 3.70653 15.2516 2.62545 16.6415 2.31656C17.1049 2.16212 17.5682 2.31656 18.0315 2.31656Z" fill="#005596"/>
<path d="M21.1203 3.08877C20.9658 3.39765 20.5025 3.55209 20.1936 3.86097C20.0392 3.39765 20.1936 2.93433 20.1936 2.47101C20.5025 2.62545 20.8114 2.77989 21.1203 3.08877Z" fill="#005596"/>
<path d="M33.9382 2.62547C34.0926 2.77991 34.247 3.08879 34.0926 3.39767C33.9382 3.55211 33.7837 3.86099 33.6293 3.86099C33.3204 4.01543 33.166 3.86099 32.8571 3.70655C32.7026 3.39767 32.5482 3.08879 32.7026 2.77991C32.8571 2.62547 33.0115 2.47103 33.166 2.31659C33.4748 2.31659 33.7837 2.47103 33.9382 2.62547Z" fill="#005596"/>
<path d="M13.2435 4.94207H12.1624C12.1624 4.16987 12.0079 3.08879 12.1624 2.31659C12.9346 3.08879 13.2435 4.01543 13.2435 4.94207Z" fill="#005596"/>
<path d="M37.1824 3.39767C37.3368 3.86099 37.4912 4.47875 37.4912 4.94207H36.4102V2.31659C36.719 2.62547 37.0279 3.08879 37.1824 3.39767Z" fill="#005596"/>
<path d="M50.9261 7.72197C50.7716 6.17757 50.9261 4.32429 50.9261 2.77989L51.2349 2.47101V7.41309L50.9261 7.72197Z" fill="white"/>
<path d="M59.5743 5.71429C58.8021 5.86873 58.0299 5.71429 57.4121 5.71429C57.8754 4.63321 58.4932 3.55213 59.4198 2.62549V2.77993L59.5743 5.71429Z" fill="white"/>
<path d="M50.4628 8.03089L48.764 9.11197C48.764 7.41313 48.6095 5.86873 48.764 4.16989L50.4628 3.08881C50.6172 4.78765 50.4628 6.48649 50.4628 8.03089Z" fill="white"/>
<path d="M46.6033 8.33975L45.0589 9.26639C44.9044 7.56755 45.0589 5.86871 45.0589 4.16987L46.6033 3.24323C46.6033 4.94207 46.6033 6.64091 46.6033 8.33975Z" fill="white"/>
<path d="M18.3398 3.86103V8.03091L18.6487 7.72203V3.39771L18.3398 3.86103Z" fill="white"/>
<path d="M42.5859 4.01547V7.72203L43.0493 7.56759V3.39771L42.5859 4.01547Z" fill="white"/>
<path d="M30.232 8.18535C29.6143 8.49423 29.151 8.95755 28.5332 9.26643V4.47879L30.232 3.39771C30.3865 5.09655 30.232 6.48651 30.232 8.18535Z" fill="white"/>
<path d="M52.4708 4.16992L52.3164 4.4788H56.3318V4.16992H52.4708Z" fill="white"/>
<path d="M22.2008 8.03093C21.583 8.49425 21.1197 8.80313 20.502 9.11201V5.251L22.2008 4.16992V8.03093Z" fill="white"/>
<path d="M25.9075 4.78765C26.062 5.09653 25.9075 5.40541 25.7531 5.55985C25.5987 5.71429 25.1353 5.86873 24.8265 5.71429C24.672 5.71429 24.5176 5.40541 24.5176 5.25097C24.5176 4.94209 24.672 4.63321 24.9809 4.47877C25.2898 4.16989 25.7531 4.47877 25.9075 4.78765Z" fill="#005596"/>
<path d="M40.5804 9.11199C40.5804 7.87646 40.4259 6.64094 40.5804 5.40542C41.1981 5.25098 41.8159 4.78766 42.2792 4.32434V8.0309L40.5804 9.11199Z" fill="white"/>
<path d="M17.8766 8.18534L16.1777 9.26643V5.40542C16.7955 5.09654 17.2588 4.78766 17.7221 4.32434C17.8766 5.7143 17.8766 7.10426 17.8766 8.18534Z" fill="white"/>
<path d="M44.5943 9.57535L44.2854 9.88423C44.131 8.18538 44.2854 6.48654 44.2854 4.7877L44.5943 4.47882C44.5943 6.17766 44.5943 7.8765 44.5943 9.57535Z" fill="white"/>
<path d="M48.3011 4.47882C48.3011 6.17766 48.4555 7.72206 48.3011 9.42091L47.9922 9.57535V4.63326L48.3011 4.47882Z" fill="white"/>
<path d="M28.2229 9.5753L27.9141 9.72974V4.9421L28.2229 4.78766C28.2229 6.33206 28.2229 8.0309 28.2229 9.5753Z" fill="white"/>
<path d="M54.7887 8.18536L53.2443 9.26644C53.0898 7.87648 53.2443 6.33208 53.0898 4.94211C53.5532 4.78767 54.3254 4.94211 54.7887 4.94211V8.18536Z" fill="white"/>
<path d="M52.4707 4.94208V9.72972L52.7796 9.57528V4.94208H52.4707Z" fill="white"/>
<path d="M55.252 4.94208V7.87644L55.5608 7.722V4.94208H55.252Z" fill="white"/>
<path d="M65.1356 5.86872C65.29 6.02316 65.1356 6.33204 65.1356 6.64092C64.9811 6.9498 64.6723 6.9498 64.3634 6.9498C64.0545 6.9498 63.9001 6.79536 63.7456 6.48648C63.5912 6.33204 63.7456 6.02316 63.9001 5.71428C64.0545 5.55984 64.2089 5.4054 64.5178 5.4054C64.6723 5.4054 64.9811 5.55984 65.1356 5.86872Z" fill="#005596"/>
<path d="M19.7305 5.86876L19.8849 9.72976L20.0393 9.57532V5.55988L19.7305 5.86876Z" fill="white"/>
<path d="M40.1155 9.42086L39.9611 9.5753C39.8066 8.33978 39.9611 6.94982 39.8066 5.71429H40.1155V9.42086Z" fill="white"/>
<path d="M15.5605 5.71429V9.88418L15.715 9.72974V5.71429H15.5605Z" fill="white"/>
<path d="M35.9473 5.86871V9.72972L36.2561 9.57528V5.86871H35.9473Z" fill="white"/>
<path d="M38.4162 5.86871C38.5707 6.64091 38.4162 7.41312 38.4162 8.03088L36.7174 9.2664C36.563 8.18532 36.563 6.94979 36.7174 5.86871H38.4162Z" fill="white"/>
<path d="M38.8789 5.86871V7.87644L39.1878 7.56756V5.86871H38.8789Z" fill="white"/>
<path d="M11.6992 5.86871V9.72972L12.0081 9.57528V5.86871H11.6992Z" fill="white"/>
<path d="M14.0151 5.86871C14.0151 6.64091 14.0151 7.41312 14.0151 8.18532L12.4707 9.2664V5.86871H14.0151Z" fill="white"/>
<path d="M14.7874 7.722L14.4785 7.87644C14.4785 7.25867 14.4785 6.48647 14.4785 5.86871H14.7874V7.722Z" fill="white"/>
<path d="M59.4203 6.48649C58.6481 6.64093 57.7214 6.48649 56.9492 6.48649L57.1037 6.17761H59.4203V6.48649Z" fill="white"/>
<path d="M67.916 7.87645L63.7461 10.6564V10.193L67.7615 7.56757L67.916 7.87645Z" fill="white"/>
<path d="M43.0518 8.4942C41.9708 9.26641 40.8897 10.0386 39.8086 10.6564V10.193L43.0518 8.03088V8.4942Z" fill="white"/>
<path d="M39.1904 8.64862L36.1016 10.8108V10.3475C37.1826 9.57526 38.2637 8.9575 39.3448 8.1853V8.64862H39.1904Z" fill="white"/>
<path d="M51.3917 8.64862L48.1484 10.8108V10.3475C49.2295 9.57526 50.3106 8.9575 51.3917 8.1853V8.64862Z" fill="white"/>
<path d="M14.9425 8.64862L11.8537 10.6563L11.6992 10.193L14.788 8.1853L14.9425 8.64862Z" fill="white"/>
<path d="M55.7139 8.49418L52.4707 10.6563V10.193L55.5595 8.1853L55.7139 8.49418Z" fill="white"/>
<path d="M28.0685 10.6563H27.9141V10.3475L31.0029 8.1853V8.64862L28.0685 10.6563Z" fill="white"/>
<path d="M22.9736 8.64862L19.8848 10.6563V10.193L22.9736 8.1853V8.64862Z" fill="white"/>
<path d="M18.6493 8.64862L15.5605 10.6563V10.3475L18.6493 8.1853V8.64862Z" fill="white"/>
<path d="M47.5284 8.64866C46.4473 9.42086 45.3662 10.0386 44.2852 10.6564V10.3475L47.374 8.33978L47.5284 8.64866Z" fill="white"/>
<path d="M67.9153 10.8108H64.5176C65.5987 10.0386 66.8342 9.26644 67.9153 8.64868V10.8108Z" fill="white"/>
<path d="M55.5591 10.6564H52.9336C53.8602 10.0386 54.6324 9.57528 55.5591 8.95752V10.6564Z" fill="white"/>
<path d="M18.6488 10.6564H16.1777C16.9499 10.0386 17.8766 9.57528 18.6488 8.95752V10.6564Z" fill="white"/>
<path d="M51.391 10.6564C50.6188 10.8108 49.6921 10.6564 48.9199 10.6564L51.391 8.95752V10.6564Z" fill="white"/>
<path d="M39.1898 10.6564C38.4176 10.6564 37.6454 10.6564 36.7188 10.6564L39.0354 9.112L39.1898 10.6564Z" fill="white"/>
<path d="M43.051 10.6564C42.2788 10.6564 41.5066 10.6564 40.7344 10.6564C41.3521 10.1931 42.2788 9.57532 43.051 9.112C43.2054 9.57532 43.051 10.1931 43.051 10.6564Z" fill="white"/>
<path d="M47.5295 10.6564H45.2129L47.5295 9.112C47.5295 9.57532 47.5295 10.1931 47.5295 10.6564Z" fill="white"/>
<path d="M14.9417 10.6564H12.4707C13.2429 10.1931 14.0151 9.57532 14.7873 9.112V10.6564H14.9417Z" fill="white"/>
<path d="M13.0892 27.027H13.2436C14.1703 26.5637 15.2513 25.9459 16.3324 25.7915C16.9502 25.6371 17.7224 25.7915 18.1857 26.2548C18.3401 26.1004 18.1857 25.7915 17.8768 25.7915L17.4135 25.6371C18.4946 25.0193 19.4212 24.2471 20.3479 23.3205C21.5834 22.8571 22.8189 22.8571 24.2089 22.8571C24.5178 22.7027 24.9811 22.7027 25.4444 22.7027C25.29 22.8571 25.1355 22.8571 24.9811 23.0116C24.6722 23.4749 24.3633 23.9382 24.0544 24.4015C24.3633 24.2471 24.6722 23.9382 24.9811 23.6293C25.5988 23.0116 26.0622 22.7027 26.5255 21.9305C29.3054 21.7761 31.7764 22.7027 34.4019 23.0116C35.483 24.0927 37.1818 24.0927 38.4174 24.7104C41.3517 25.9459 44.4405 26.7181 47.6838 26.8726C46.6027 26.4093 45.3672 26.5637 44.2861 26.2548C42.4328 25.7915 40.5795 25.4826 39.0351 24.7104C40.4251 25.0193 41.9695 24.7104 43.5139 24.7104L43.3595 25.0193C43.6683 25.0193 43.9772 24.556 44.2861 24.556C45.8305 23.6293 47.9927 23.6293 49.8459 23.7838C49.2282 24.0927 48.456 24.0927 47.8382 24.7104C49.5371 24.0927 51.3903 23.6293 53.3981 23.3205C55.0969 23.0116 56.6413 22.5483 58.1857 22.0849C58.0313 22.3938 57.8768 22.5483 57.8768 23.0116C58.0313 23.3205 58.3401 23.4749 58.1857 23.7838C57.5679 24.2471 56.7957 23.9382 56.0235 24.0927C55.0969 25.1737 53.5525 24.8649 52.1625 25.1737C50.1548 25.3282 48.7649 27.027 46.7571 27.3359C46.6027 27.4903 46.4483 27.4903 46.2938 27.6448C46.9116 27.4903 47.6838 27.3359 48.456 27.027C50.4637 25.7915 52.7803 25.1737 55.2513 25.0193C55.4058 24.8649 55.7147 24.8649 55.8691 24.7104C56.4869 26.1004 58.0313 26.5637 59.1123 27.4903C59.4212 27.6448 59.7301 27.6448 60.1934 27.7992C58.8035 27.027 56.7957 26.4093 56.178 24.7104C57.1046 24.7104 58.1857 24.7104 58.649 23.9382C58.8035 23.3205 58.0313 23.4749 58.1857 23.0116C58.3401 22.7027 58.4946 22.5483 58.8035 22.2394C58.9579 22.3938 59.1123 22.7027 59.2668 23.0116C59.7301 23.4749 60.1934 23.7838 60.8112 24.0927C61.2745 24.7104 61.8923 25.0193 62.51 25.3282C63.5911 26.5637 64.9811 27.1815 66.371 27.7992V25.0193V12.0463H67.761L67.6066 46.6409C67.761 51.583 65.7533 55.7529 62.9734 59.6139C56.9502 67.7992 48.456 74.4402 39.6529 78.1467C29.7687 74.1313 19.7301 65.4826 14.0158 55.5985C12.6259 52.973 11.6992 50.0386 11.6992 46.7954V30.2703V12.0463H13.0892V27.027Z" fill="white"/>
<path d="M66.3717 39.0734C66.3717 42.3166 66.3717 46.0232 66.2173 49.4209C65.5995 54.6719 62.2018 58.6873 58.8041 62.7027C53.2443 68.8803 46.7578 73.668 39.6536 76.7568C29.9238 72.5869 19.8852 63.9383 14.6342 54.2085C13.7076 52.2008 13.0898 50.0386 13.0898 47.722V29.6525V29.4981H66.2173V39.0734H66.3717Z" fill="#005596"/>
<path d="M47.5289 43.5521C50.1544 42.3166 52.7799 40.9266 55.4054 39.6911L63.2818 43.7066V45.251L55.4054 41.2355L47.5289 45.0965L39.8069 41.2355L31.9305 45.0965L24.054 41.2355L16.332 45.0965V43.3977L24.054 39.5367L31.9305 43.3977L39.6525 39.5367L47.5289 43.5521Z" fill="white"/>
<path d="M55.4054 43.3977L63.1274 47.4131C63.1274 47.8765 63.1274 48.4942 63.1274 49.112L55.4054 45.0965L47.5289 48.9576L39.8069 45.0965L31.9305 49.112L24.054 45.251L16.332 49.112V47.4131L24.054 43.5521L31.776 47.4131C34.4015 46.1776 37.027 44.7877 39.6525 43.3977L47.5289 47.4131L55.4054 43.3977Z" fill="white"/>
<path d="M63.1273 52.973L55.4053 49.112L47.5288 52.973L39.8068 49.112C37.1813 50.3475 34.5558 51.7375 31.9303 52.973L24.2083 49.112L16.4863 52.973V51.2741L24.2083 47.4131L31.9303 51.2741L39.8068 47.2587L47.5288 51.1197L55.4053 47.1042L63.2817 51.1197L63.1273 52.973Z" fill="white"/>
</svg>
