<svg width="80" height="80" viewBox="0 0 80 80" fill="none" xmlns="http://www.w3.org/2000/svg">
<path d="M73.9364 1.04871V0H7C7 0 7 0.375462 7 1.04871C7 6.51238 7.37547 32.303 14.7682 47.4769C23.9089 66.2243 35.9626 77.2552 40.2093 79.8446L40.4682 80L40.7142 79.8446C44.9738 77.2552 57.0275 66.1596 66.1552 47.4769C73.5609 32.303 73.9493 6.51238 73.9364 1.04871Z" fill="#0072BC"/>
<path d="M44.0281 4.00064C44.7544 4.23619 45.525 4.30262 46.2809 4.19485C46.5269 4.00065 46.3715 3.7417 46.4751 3.5475C46.5787 3.35329 46.8247 3.7417 46.98 3.89707C47.0525 4.18904 47.083 4.48984 47.0707 4.79042C46.8875 4.97003 46.6678 5.10809 46.4265 5.19522C46.1853 5.28235 45.928 5.3165 45.6724 5.29535H44.1317C44.0281 5.29535 44.0281 5.38599 44.0281 5.59314C44.779 5.73556 46.022 5.48956 46.2809 6.53827C46.4751 6.93963 46.4751 7.58698 46.98 7.83298L47.6274 7.98835C47.5954 8.14017 47.5284 8.28242 47.4318 8.4038C47.3351 8.52517 47.2115 8.62231 47.0707 8.68749C46.8595 8.71547 46.6457 8.6597 46.4751 8.53212C46.0737 8.18255 46.022 7.58699 45.5818 7.23741C45.5148 7.58866 45.5462 7.95156 45.6724 8.28612C45.9652 9.10641 46.47 9.83454 47.1354 10.3965C47.5886 10.5389 47.8345 9.83978 48.0805 10.2929C48.1092 10.5542 48.0577 10.818 47.9328 11.0493C47.8079 11.2805 47.6156 11.4683 47.3814 11.5876C47.2396 11.676 47.0759 11.7229 46.9088 11.7229C46.7418 11.7229 46.578 11.676 46.4363 11.5876C46.0679 11.3358 45.7542 11.0122 45.5139 10.6362C45.2736 10.2603 45.1118 9.83963 45.038 9.39957C44.9344 9.39957 44.8438 9.14064 44.6884 9.24422C44.2353 9.69736 44.6884 10.2929 44.9344 10.7461C45.1933 10.8885 45.1933 11.1863 45.0898 11.5358C44.9862 11.8854 44.5848 12.3904 44.3388 12.8306C44.1165 12.541 43.9336 12.2232 43.7951 11.8854C43.7951 11.743 43.7951 11.4841 43.6397 11.3934C43.4843 11.3028 43.2901 11.4841 43.2901 11.6394C43.3234 12.0304 43.4386 12.4099 43.6282 12.7534C43.8178 13.097 44.0776 13.3967 44.3906 13.6333H44.546C44.792 12.9341 45.3875 12.3386 45.5947 11.6394C45.7371 11.6394 45.9443 11.8336 46.0349 11.989C46.4881 13.3873 45.3358 15.2776 46.8376 16.2745C47.0836 16.2745 47.5368 15.9767 47.6403 16.4298C47.6349 16.6103 47.5917 16.7875 47.5137 16.9503C47.4356 17.1131 47.3244 17.2577 47.1872 17.375C46.993 17.4786 46.8894 17.4786 46.8376 17.5692C46.5039 17.6401 46.1574 17.6224 45.8326 17.518C45.5078 17.4135 45.216 17.2258 44.9862 16.9736C44.1964 16.1838 44.792 15.1351 44.546 14.1382C44.4614 14.1138 44.3716 14.1138 44.287 14.1382L44.1964 14.2806C44.6366 16.1321 42.5521 16.87 41.9048 18.3201C41.7494 18.3201 41.6458 18.0741 41.5941 17.8799C41.5191 17.5968 41.513 17.2998 41.576 17.0138C41.6391 16.7278 41.7695 16.461 41.9566 16.2356C42.0472 16.0285 41.9566 15.9767 41.8012 15.8861C41.6225 16.2894 41.3135 16.621 40.9237 16.8276C40.534 17.0342 40.0861 17.1039 39.652 17.0254C39.3811 16.989 39.1226 16.8891 38.8976 16.7339C38.6726 16.5787 38.4875 16.3724 38.3573 16.1321C38.2583 15.8382 38.2278 15.5256 38.2682 15.2182C38.3086 14.9107 38.4188 14.6166 38.5903 14.3583C38.8881 14.2547 38.9399 14.6043 39.1471 14.6043C39.4501 14.7409 39.7869 14.784 40.1146 14.7281C40.4422 14.6722 40.7458 14.5198 40.9863 14.2903C41.2268 14.0609 41.3934 13.765 41.4648 13.4404C41.5362 13.1157 41.509 12.7772 41.3869 12.468C41.0786 11.8733 40.5626 11.4125 39.9368 11.1733C40.636 10.8238 41.9825 11.8725 42.086 10.4742C42.1524 10.0432 42.1089 9.60247 41.9596 9.1928C41.8102 8.78314 41.5598 8.41783 41.2315 8.13077C40.1719 7.41345 38.9923 6.89165 37.7488 6.59006C37.3992 6.33112 36.9461 5.9945 36.9461 5.54135C36.9461 5.0882 36.9461 5.0882 37.1014 4.98463C37.1873 4.96832 37.2761 4.97957 37.3551 5.01678C37.4342 5.05398 37.4995 5.11524 37.5416 5.19177C37.5044 5.3958 37.5167 5.60579 37.5775 5.80406C37.6384 6.00233 37.7459 6.1831 37.8912 6.33112C38.134 6.52376 38.4191 6.65591 38.723 6.71669C39.0269 6.77747 39.3409 6.76513 39.639 6.68069C39.8462 6.59006 39.9886 6.59006 40.0922 6.33112C40.1197 6.30634 40.1395 6.27423 40.1493 6.23856C40.1592 6.20289 40.1586 6.16514 40.1478 6.12977C40.1369 6.09441 40.1161 6.06288 40.0879 6.03892C40.0597 6.01495 40.0253 5.99954 39.9886 5.9945C39.7426 5.9945 39.5873 6.33112 39.2895 6.24049C39.2895 6.13692 39.1471 6.03333 39.2895 5.89092C39.4452 5.75715 39.6144 5.64 39.7944 5.54135C40.3382 5.43777 40.8431 5.68377 41.2833 5.54135C41.2833 5.54135 41.2833 5.24356 41.2833 5.19177C39.7944 4.98462 38.2019 5.19178 36.8943 4.28548C36.8032 4.16769 36.7426 4.02929 36.7178 3.88252C36.6929 3.73574 36.7046 3.5851 36.7518 3.44392C36.9978 2.74478 37.8006 2.6412 38.4997 2.55057C40.4108 2.72017 42.2798 3.21039 44.0281 4.00064Z" fill="white"/>
<path d="M63.2813 3.21088C63.3526 3.87533 63.2421 4.54666 62.9617 5.15321C62.6812 5.75976 62.2413 6.27877 61.6888 6.65481C60.5352 7.1168 59.2774 7.25556 58.0507 7.05617C57.8679 7.08576 57.6935 7.15424 57.5394 7.25698C57.3853 7.35972 57.255 7.49433 57.1574 7.65173C57.1574 7.94951 57.002 8.19551 57.1574 8.35087C57.3127 8.50624 57.3516 8.10487 57.5069 8.0013C57.586 7.89339 57.6892 7.80554 57.8084 7.74483C57.9276 7.68411 58.0594 7.65223 58.1931 7.65173C58.5427 7.65173 58.7499 7.94951 58.9441 8.10488C58.9841 8.32962 58.9784 8.56013 58.9272 8.7826C58.876 9.00508 58.7805 9.21492 58.6463 9.39958C58.6463 9.49021 58.6463 9.59379 58.8534 9.69737H58.9441C59.1901 9.39959 59.1901 9.05001 59.3454 8.79107C59.5346 8.94278 59.6774 9.14458 59.7575 9.37349C59.8377 9.60239 59.8519 9.84919 59.7986 10.0858C59.695 10.2282 59.449 10.4871 59.5396 10.7849L59.695 10.9273C60.0446 10.6813 60.0446 10.2282 60.3423 9.98221C60.4977 10.4354 60.7437 10.9273 60.4977 11.3805C60.3941 11.5747 60.1481 11.6265 60.2388 11.9243C60.3234 11.9487 60.4131 11.9487 60.4977 11.9243L60.9379 11.3287C61.0671 11.7019 61.0671 12.1078 60.9379 12.481C60.9379 12.7788 60.0963 13.0766 60.6919 13.4261C60.8861 13.4261 60.8861 13.0766 61.1451 13.1283C61.4946 13.4261 61.3911 13.8275 61.2875 14.1771C61.1936 14.5728 60.9867 14.9326 60.6919 15.2128C60.6713 15.2382 60.6575 15.2683 60.6517 15.3004C60.6458 15.3325 60.6482 15.3656 60.6585 15.3966C60.6688 15.4276 60.6868 15.4554 60.7107 15.4776C60.7347 15.4998 60.7638 15.5156 60.7955 15.5236C61.0415 15.5236 61.1451 15.174 61.3911 15.174C61.5698 15.6135 61.606 16.0981 61.4946 16.5593C61.2343 17.0869 60.8361 17.5342 60.3423 17.854C60.3423 18.0482 60.3423 18.1 60.4459 18.2036L61.1451 17.7505C61.2481 17.9613 61.2835 18.1989 61.2464 18.4306C61.2093 18.6623 61.1016 18.877 60.9379 19.0452C60.6563 19.5702 60.2466 20.0156 59.7468 20.3399C59.758 20.3833 59.783 20.4219 59.818 20.4499C59.853 20.478 59.8962 20.4938 59.941 20.4952C60.3405 20.3643 60.7133 20.1625 61.0415 19.8997C61.2357 20.1457 60.9379 20.3917 60.9379 20.5988C60.6683 21.0685 60.2948 21.4702 59.846 21.7731C59.3971 22.0761 58.8849 22.2723 58.3485 22.3467C58.2449 22.3467 58.2449 22.5409 58.2449 22.5927C58.5945 22.6962 58.6981 22.9422 58.8016 23.24C58.1638 23.6275 57.447 23.8665 56.7042 23.9392C56.6006 23.9392 56.6006 24.0816 56.6006 24.1851C56.7948 24.4829 57.4034 24.1852 57.4034 24.5865C56.7121 24.7353 55.9972 24.7353 55.3059 24.5865C55.2024 24.6901 55.3059 24.7807 55.3059 24.9361C55.8497 24.9361 55.6555 25.4799 55.8497 25.7388C55.8497 25.933 55.5519 25.9848 55.5001 25.9848C54.7902 26.0633 54.0738 26.0633 53.3639 25.9848C53.3639 25.9848 53.3639 26.1402 53.3639 26.3344C53.3639 26.5286 53.6616 26.3344 53.7652 26.5804C52.9826 26.7233 52.1782 26.6924 51.4089 26.4897C51.4089 26.4897 51.2664 26.3862 51.1629 26.4897C51.0593 26.5933 51.0593 26.6839 51.1629 26.7357C51.2664 26.7875 51.4089 26.8393 51.5124 27.0335C50.9112 27.2021 50.2752 27.2021 49.6739 27.0335C49.415 26.8781 48.8194 27.0335 48.8712 26.6322C48.8726 25.7322 48.8207 24.833 48.7159 23.9392H42.6307C42.5401 23.732 42.2812 23.5896 42.333 23.2918C42.6811 23.5515 43.0955 23.7075 43.5284 23.7418C43.9614 23.7762 44.3952 23.6875 44.78 23.486C44.8835 22.9422 45.3237 23.3954 45.6733 23.2918C46.1401 23.3265 46.6027 23.1831 46.968 22.8904C47.6542 22.4373 47.3046 21.3886 48.2627 21.1426C49.661 20.0421 51.7455 20.6894 53.4415 20.2492C54.1277 19.9903 55.1376 19.4465 55.28 18.6438C55.6296 16.8571 54.2313 15.5624 54.5809 13.711C54.6845 12.6623 55.4872 11.8207 55.1376 10.6684C55.0268 10.5782 54.8972 10.514 54.7583 10.4804C54.6194 10.4468 54.4747 10.4447 54.3349 10.4742C52.6906 11.7689 54.9305 14.5137 52.4835 15.1093C52.2375 15.1093 52.1339 14.7597 52.0951 14.5655C51.9915 13.8663 52.4317 13.1154 52.0951 12.4163C51.9526 10.5648 49.8552 9.37369 50.5543 7.23742C51.7066 3.89708 55.539 5.14 57.7918 3.54751C58.0035 3.36932 58.2577 3.2489 58.5297 3.19793C58.3098 3.93536 57.8552 4.58087 57.235 5.03642C56.6395 5.29537 55.7979 5.38599 55.4483 6.08513C55.4483 6.18871 55.4483 6.29228 55.539 6.29228C55.6296 6.29228 55.8885 6.08514 56.1345 6.04629C56.857 5.68246 57.5421 5.24883 58.1802 4.75159C59.8842 4.46364 61.5028 3.80026 62.9188 2.80952C62.9711 2.80445 63.0239 2.8117 63.073 2.8307C63.122 2.8497 63.1659 2.87992 63.2011 2.91894C63.2364 2.95796 63.262 3.00469 63.2759 3.05538C63.2898 3.10608 63.2917 3.15933 63.2813 3.21088Z" fill="white"/>
<path d="M23.0819 4.95876C23.8853 5.69753 24.7517 6.36469 25.6713 6.95261C25.6713 6.95261 25.6713 6.74546 25.6713 6.65483C25.6713 6.5642 25.6713 6.39588 25.5807 6.30525C24.7261 5.60611 23.3279 5.01055 23.3279 3.71584L23.4314 3.61226C25.4253 6.00747 29.5166 4.06541 30.6171 7.49638C31.614 9.78802 28.7138 11.0827 29.0634 13.3226C29.191 13.5778 29.2575 13.8593 29.2575 14.1447C29.2575 14.4301 29.191 14.7116 29.0634 14.9669C28.921 15.174 28.6232 15.174 28.5714 14.9669C28.283 14.8595 28.0311 14.6722 27.8454 14.4269C27.6597 14.1815 27.5477 13.8882 27.5227 13.5815C27.2249 12.5846 27.7687 11.6783 27.5227 10.7332C27.5227 10.4872 27.1214 10.4872 26.8236 10.539C26.5258 10.5907 26.474 10.8367 26.3186 10.9791C26.0209 12.8306 27.1731 14.5784 26.5776 16.4687C26.2738 16.9738 26.085 17.5395 26.0246 18.1258C25.9642 18.7121 26.0336 19.3044 26.228 19.8608C28.0665 22.0618 31.2126 19.6149 33.3101 21.3627C33.4525 21.4533 33.6078 21.7123 33.9056 21.7123C33.9578 21.4361 34.0985 21.1844 34.3064 20.9952C34.5142 20.806 34.778 20.6896 35.0579 20.6636C35.3039 21.0131 34.7083 21.3627 35.0579 21.6087C35.4463 21.6087 35.7053 21.2591 36.0548 21.1038C36.1973 21.0131 36.4044 21.0131 36.6504 20.9096C36.3095 20.8815 35.9782 20.7829 35.6774 20.6203C35.3765 20.4576 35.1127 20.2343 34.9025 19.9644C35.2521 19.7573 35.7053 19.7573 36.0548 19.5113C35.3557 19.3689 34.4494 18.9157 34.3588 18.2166C34.3588 17.9188 34.4494 17.867 34.4494 17.6728C34.7541 17.7921 35.0283 17.9779 35.2521 18.2166C35.622 18.3449 36.0138 18.3977 36.4044 18.3719C36.7488 18.7466 37.2013 19.0045 37.6991 19.1099C37.7897 19.1099 37.8933 19.1099 37.8933 18.9675C37.656 18.7803 37.3828 18.6437 37.0906 18.5661C36.8337 18.3518 36.6256 18.0849 36.4805 17.7834C36.3353 17.4819 36.2564 17.1528 36.249 16.8183C36.3075 16.6928 36.3902 16.5802 36.4925 16.4869C36.5947 16.3935 36.7144 16.3214 36.8446 16.2745C37.2978 16.2745 37.1942 16.8701 37.3495 17.1679C37.5403 17.3937 37.7911 17.561 38.0729 17.6503C38.3547 17.7397 38.656 17.7475 38.942 17.6728C39.4968 17.4505 40.1047 17.3964 40.6899 17.5174C40.9359 17.4139 41.0395 17.6728 41.0395 17.9188C41.0395 18.1648 40.6899 18.5661 40.6899 18.8639L40.5863 19.5631C40.1117 19.7962 39.7003 20.1404 39.387 20.5663C39.0738 20.9923 38.8678 21.4876 38.7867 22.0101C38.0487 21.0649 38.7867 20.0162 39.188 19.1099C39.2916 18.8639 39.5376 18.7215 39.6412 18.4626C39.4858 18.3719 39.2916 18.2684 39.188 18.4626C38.6614 18.9967 38.2707 19.6493 38.0487 20.3658C37.9297 20.7062 37.9079 21.0731 37.9856 21.4252C38.0634 21.7774 38.2376 22.1009 38.4889 22.3596C38.7514 22.6468 39.1022 22.8382 39.4858 22.9034C39.5152 22.8847 39.5394 22.8589 39.5562 22.8283C39.573 22.7978 39.5818 22.7635 39.5818 22.7286C39.5818 22.6938 39.573 22.6595 39.5562 22.6289C39.5394 22.5984 39.5152 22.5725 39.4858 22.5538C39.2398 22.5538 39.2398 22.3078 39.2398 22.1136C39.3289 21.5152 39.6498 20.9757 40.1332 20.6118C40.0958 21.0093 39.9953 21.3982 39.8354 21.7641C39.9388 22.5444 40.121 23.3121 40.3792 24.0557H32.3649C32.101 25.1308 31.9964 26.2388 32.0542 27.3443C31.5622 27.7974 30.7595 27.5903 30.2157 27.4478C30.0603 27.3443 29.8661 27.3443 29.8143 27.2407C29.7626 27.1371 30.2157 26.9041 29.9697 26.7487C29.2996 26.9093 28.6132 26.9919 27.9241 26.9947C27.8205 26.9947 27.7169 26.9947 27.7169 26.9041C27.7169 26.8134 28.1701 26.6451 27.9241 26.3991L27.8205 26.2955C27.0449 26.4043 26.2543 26.3061 25.5289 26.0107C25.3735 25.3116 26.8236 25.8553 26.1244 25.0526C25.764 25.1622 25.3834 25.1888 25.0113 25.1305C24.6391 25.0722 24.2849 24.9305 23.9752 24.716C24.0788 24.5218 24.1306 24.2758 24.3248 24.1722C24.519 24.0686 24.5837 24.1722 24.5837 24.1722C24.4802 23.6284 23.781 23.9262 23.4314 23.7191C23.0819 23.5119 22.8359 23.6284 22.6287 23.3825C22.7652 23.2016 22.9167 23.0327 23.0819 22.8775C23.2761 22.8775 23.3797 22.8775 23.535 22.8775C23.6904 22.8775 23.6256 22.6315 23.535 22.5279C22.9555 22.4804 22.394 22.3033 21.8921 22.0097C21.3901 21.7162 20.9605 21.3136 20.6349 20.8319C20.6071 20.565 20.6071 20.296 20.6349 20.0292C20.8938 20.0292 21.0362 20.3269 21.2434 20.0292C21.1398 19.6796 20.7902 19.6407 20.6349 19.4336C20.3114 19.0226 20.1543 18.505 20.1947 17.9835C20.4407 17.9835 20.8938 18.4885 20.9326 17.9835C20.6397 17.8569 20.3904 17.6471 20.2155 17.3801C20.0406 17.1132 19.9478 16.8008 19.9487 16.4817L20.0523 15.9767C20.2982 15.9767 20.596 16.4817 20.7514 16.1321C20.4215 15.8801 20.1706 15.5389 20.0284 15.1489C19.8861 14.7589 19.8585 14.3363 19.9487 13.9311C20.0523 13.8405 20.0523 13.7887 20.1558 13.8405C20.2594 13.8922 20.5054 14.3842 20.7514 14.3842C20.9974 14.3842 20.7514 14.19 20.7514 14.1382C20.5118 13.8309 20.354 13.4677 20.2929 13.0828C20.2317 12.6979 20.2692 12.3037 20.4018 11.9372C20.6478 11.9372 20.6478 12.2868 20.855 12.494C20.8674 12.5212 20.8875 12.5442 20.9128 12.5603C20.9381 12.5764 20.9674 12.5848 20.9974 12.5846C21.2045 12.2868 20.855 12.1444 20.8938 11.8854C20.8253 11.4299 20.9368 10.9656 21.2045 10.5907C21.347 10.8885 21.593 11.2899 21.9425 11.2899C22.2403 11.0439 21.6965 10.9403 21.6965 10.6943C21.6194 10.4838 21.5887 10.2591 21.6065 10.0356C21.6244 9.81213 21.6904 9.59516 21.8001 9.3996C22.0461 9.49023 22.1497 10.293 22.3957 9.83981C22.293 9.55745 22.2525 9.25622 22.2771 8.95677C22.3017 8.65732 22.3907 8.36673 22.5381 8.1049C22.6273 7.98597 22.7509 7.89734 22.8922 7.85103C23.0335 7.80471 23.1856 7.80294 23.3279 7.84596C23.8328 7.94954 23.5868 8.70047 24.1306 8.5451C24.2859 8.3509 24.1306 8.00132 24.1306 7.75533C23.4832 6.65483 21.9814 7.40576 21.0362 7.05619C19.8475 6.82528 18.7942 6.14323 18.0972 5.15296C17.8673 4.84285 17.7195 4.47969 17.6674 4.09717C17.6154 3.71465 17.6608 3.32518 17.7995 2.9649C19.5052 3.76716 21.2715 4.43384 23.0819 4.95876Z" fill="white"/>
<path d="M36.5975 5.04937C36.507 5.49033 36.5759 5.94906 36.7917 6.34408C38.1511 7.79415 40.6758 7.44458 41.5821 9.3478C41.7374 9.788 41.841 10.4871 41.4914 10.8367C40.687 10.6347 39.8435 10.648 39.0458 10.8753C38.2481 11.1026 37.5243 11.5358 36.947 12.1314C36.9211 11.8286 36.9609 11.5238 37.0637 11.2377C37.1665 10.9517 37.3298 10.6913 37.5426 10.4742C38.1511 9.86569 39.2387 10.0728 39.7436 9.27012C39.7861 9.15077 39.7941 9.02186 39.7666 8.89818C39.7391 8.77451 39.6773 8.66109 39.5882 8.57098C38.4698 8.18739 37.2778 8.06775 36.1055 8.22141C35.6523 8.32499 35.0568 8.32499 34.8108 8.92056C34.8108 9.07592 34.9014 9.42549 34.5518 9.3737C34.2728 9.30342 34.0124 9.17319 33.7888 8.99208C33.5652 8.81097 33.3838 8.58333 33.2571 8.32498C33.1224 7.94189 33.0984 7.52863 33.1877 7.1325C33.277 6.73637 33.476 6.3734 33.762 6.08514C34.5521 5.4105 35.5586 5.04282 36.5975 5.04937Z" fill="white"/>
<path d="M64.0835 5.29536C64.0835 5.69672 63.5398 5.89092 63.1902 5.9945C63.0348 5.78735 63.3844 5.54135 63.3844 5.34715C63.6304 5.29536 63.8893 5.15294 64.0835 5.29536Z" fill="white"/>
<path d="M17.9394 5.85207V5.95565C17.4863 6.05923 17.3439 5.65787 17.1367 5.39893V5.29535C17.5899 5.15293 17.6934 5.65787 17.9394 5.85207Z" fill="white"/>
<path d="M38.2417 5.39894C38.2417 5.65788 38.3452 5.95565 38.3452 6.20165C38.0874 6.03978 37.8949 5.79224 37.8015 5.50252C37.7497 5.29536 38.151 5.29536 38.2417 5.39894Z" fill="white"/>
<path d="M65.5346 5.74849C65.5287 6.35029 65.3578 6.93894 65.0405 7.45032C64.7232 7.96169 64.2716 8.37617 63.735 8.64863C63.4478 8.79058 63.1489 8.90754 62.8416 8.99821C62.8416 8.70042 63.0358 8.35085 62.6863 8.19548C62.3367 8.04012 61.8965 8.19549 61.8965 7.84592C62.2461 7.40572 61.8965 6.74541 62.5956 6.55121C63.611 6.34022 64.5637 5.89709 65.3792 5.2565L65.5346 5.74849Z" fill="white"/>
<path d="M18.9888 6.79724C19.2348 6.95261 19.0924 7.40575 19.183 7.75532C19.2737 8.1049 19.442 8.19552 19.442 8.35089C19.1467 8.44175 18.831 8.44175 18.5357 8.35089C18.3933 8.5451 18.3933 8.89467 18.2897 9.14066C17.7459 9.34782 17.3446 8.89466 16.7878 8.64867C16.4075 8.36628 16.1008 7.99653 15.8935 7.57063C15.6861 7.14473 15.5844 6.67519 15.5967 6.20167C15.6378 6.03508 15.7117 5.87833 15.8139 5.74052C15.9161 5.60272 16.0448 5.48661 16.1923 5.39896C16.9412 6.16553 17.9262 6.65802 18.9888 6.79724Z" fill="white"/>
<path d="M22.3819 7.59993C21.9987 8.05808 21.6483 8.54264 21.3332 9.05001C20.88 9.05001 20.4916 8.64864 20.1421 8.29907C19.7925 7.9495 19.4429 7.49635 19.5853 7.00436C20.4589 7.41664 21.4162 7.62052 22.3819 7.59993Z" fill="white"/>
<path d="M61.5866 7.30212C61.3532 7.82265 60.9258 8.23147 60.3954 8.44146C60.2401 8.54504 59.8905 8.70041 59.6963 8.44146C59.5859 8.36073 59.4933 8.25815 59.4242 8.1401C59.3552 8.02205 59.3112 7.89106 59.2949 7.75527C60.0869 7.83557 60.8848 7.67779 61.5866 7.30212Z" fill="white"/>
<path d="M65.9751 8.00128C66.0787 8.29906 65.7809 8.54506 65.6385 8.70043C65.451 8.86663 65.2237 8.98143 64.9786 9.03361C64.7336 9.0858 64.4792 9.07361 64.2402 8.99821C64.4862 8.64864 65.03 8.35085 65.2889 8.00128H65.9751Z" fill="white"/>
<path d="M16.1912 8.79103C16.3984 8.89461 16.4372 8.89461 16.5408 9.04998C16.3663 9.09007 16.184 9.07834 16.0161 9.01624C15.8482 8.95415 15.7021 8.84437 15.5957 8.7004C15.5003 8.62981 15.4201 8.54067 15.36 8.43832C15.3 8.33598 15.2612 8.22254 15.2461 8.10484C15.7899 7.94947 15.9452 8.54504 16.1912 8.79103Z" fill="white"/>
<path d="M62.3356 8.64861C62.1343 9.30096 61.7364 9.87522 61.1963 10.2929H60.9892C60.8535 9.92988 60.6312 9.60545 60.3418 9.34775V9.04997C60.7325 8.85675 61.1014 8.62237 61.4423 8.35083C61.7919 8.35083 61.9861 8.64861 62.3356 8.64861Z" fill="white"/>
<path d="M67.0231 8.70044C66.833 9.51231 66.3867 10.2415 65.7502 10.7801C65.1137 11.3187 64.3207 11.6381 63.4886 11.6912H63.385C63.5404 11.3417 63.9806 10.9921 63.8381 10.6425C63.3209 10.4093 62.7889 10.2104 62.2456 10.0469C62.1421 9.74915 62.3881 9.69737 62.4916 9.49021C63.2471 9.63032 64.0183 9.66518 64.7833 9.59379C65.5699 9.40826 66.3247 9.10721 67.0231 8.70044Z" fill="white"/>
<path d="M18.4448 9.69736C18.5355 9.83978 18.8851 10.0469 18.8851 10.2929C18.4386 10.4775 17.9675 10.5952 17.4868 10.6425L17.3961 10.7461C17.5399 11.2721 17.7216 11.787 17.9399 12.2868C17.2588 12.3528 16.5733 12.216 15.9697 11.8935C15.3662 11.5709 14.8714 11.0771 14.5478 10.4742C14.3092 9.95626 14.2412 9.37599 14.3536 8.81696C15.5822 9.5553 17.0212 9.86495 18.4448 9.69736Z" fill="white"/>
<path d="M20.983 9.5938C20.8406 10.0987 20.6334 10.5389 20.491 10.9921C20.062 10.8024 19.6843 10.5132 19.3894 10.1484C19.0944 9.78367 18.8906 9.35387 18.7949 8.89466L18.9891 8.79108C19.7918 8.54508 20.2838 9.3478 20.983 9.5938Z" fill="white"/>
<path d="M39.2384 9.17947C39.0442 9.52904 38.5911 9.28304 38.2415 9.43841C36.4936 10.3318 35.1083 13.1283 32.8555 11.9243C32.011 11.5606 31.3228 10.9092 30.9135 10.0858C30.8781 9.74156 30.9457 9.3946 31.1077 9.08884C31.2031 9.0015 31.3278 8.95306 31.4572 8.95306C31.5866 8.95306 31.7113 9.0015 31.8068 9.08884C32.4024 9.78798 33.0109 10.8367 34.0596 10.8367C35.7557 10.7331 36.7914 9.14062 38.4487 8.88168L39.2384 9.17947Z" fill="white"/>
<path d="M63.281 10.8885C62.9482 11.6255 62.339 12.2021 61.5849 12.4939H61.4425C61.473 11.954 61.4206 11.4126 61.2871 10.8885L61.792 10.3965C62.2775 10.5917 62.7748 10.756 63.281 10.8885Z" fill="white"/>
<path d="M67.3718 10.3965C67.3718 10.9921 66.6727 11.1863 66.2325 11.3416H66.1289L66.9316 10.3965H67.3718Z" fill="white"/>
<path d="M19.2341 10.6425C19.5011 10.9472 19.8057 11.2169 20.1404 11.4452C20.1404 11.8854 19.7908 12.2868 19.8815 12.7399L19.7908 12.8305C19.0917 12.5328 18.0948 11.8854 18.043 10.9403C18.3925 10.8367 18.7939 10.8367 19.2341 10.6425Z" fill="white"/>
<path d="M68.2787 11.3416C68.2787 12.7399 66.984 13.5815 65.9741 14.2806C65.662 14.4772 65.3007 14.5816 64.9318 14.5816C64.563 14.5816 64.2017 14.4772 63.8896 14.2806C63.8896 14.19 63.4882 14.19 63.6307 14.0346C63.8896 13.5815 64.3298 13.1413 64.2392 12.6363C63.9802 12.4939 63.6307 12.4939 63.3847 12.2868C63.1387 12.0796 63.1387 12.2868 63.1387 12.2868V12.1961C64.7701 12.2109 66.3915 11.9392 67.9291 11.3934L68.2787 11.3416Z" fill="white"/>
<path d="M14.6512 12.235C15.4534 12.4752 16.271 12.6612 17.0982 12.7917C17.0898 13.3966 17.2228 13.9951 17.4866 14.5395C17.2342 14.7707 16.9141 14.9145 16.5736 14.9495C16.2331 14.9845 15.8904 14.9088 15.5963 14.7337C14.9836 14.4904 14.4476 14.0867 14.0445 13.5651C13.6413 13.0435 13.3858 12.4231 13.3047 11.7689L13.3953 11.6653C13.8473 11.7709 14.274 11.9645 14.6512 12.235Z" fill="white"/>
<path d="M63.7341 12.9859C63.7341 13.3355 63.2809 13.5815 63.0349 13.931C62.6864 14.2928 62.2339 14.5371 61.7402 14.6302C61.896 14.0932 61.896 13.5229 61.7402 12.9859C62.1934 12.7917 62.6465 12.1443 63.0349 12.6363L63.7341 12.9859Z" fill="white"/>
<path d="M19.5838 13.4391C19.4867 14.0176 19.4867 14.6083 19.5838 15.1869C19.5838 15.1869 19.5838 15.4329 19.4413 15.4329C18.9547 15.2371 18.5227 14.9264 18.1823 14.5273C17.8418 14.1282 17.6031 13.6527 17.4863 13.1413C17.8795 13.0572 18.265 12.9403 18.6386 12.7917L19.5838 13.4391Z" fill="white"/>
<path d="M68.3309 13.8404C68.1343 14.2721 67.7963 14.6237 67.3728 14.8374H66.0781C66.8808 14.5396 67.3728 13.3355 68.3309 13.8404Z" fill="white"/>
<path d="M15.0535 15.1869C14.646 15.2587 14.2265 15.2114 13.8453 15.0507C13.464 14.8899 13.1373 14.6225 12.9043 14.2806V14.19C13.9012 13.931 14.3544 14.8373 15.0535 15.1869Z" fill="white"/>
<path d="M64.1355 14.9798C64.1355 15.4329 63.54 15.6789 63.281 15.9767C62.891 16.2552 62.4516 16.4573 61.9863 16.5723C62.0901 16.1163 62.0901 15.6429 61.9863 15.1869C62.4913 14.9798 62.9315 14.2806 63.54 14.6302L64.1355 14.9798Z" fill="white"/>
<path d="M19.4432 15.9767C19.5338 16.3263 19.5338 16.7276 19.5856 17.0254C19.0288 16.9912 18.4872 16.83 18.0024 16.5539C17.5176 16.2778 17.1026 15.8944 16.7891 15.4329L17.8378 14.9798C18.3945 15.3293 18.7959 15.8861 19.4432 15.9767Z" fill="white"/>
<path d="M69.1446 15.0833C69.054 16.1321 68.0053 16.9218 67.1508 17.4268C66.2027 17.8511 65.1932 18.1221 64.16 18.2295V18.1259C64.3542 17.8799 64.8074 17.621 64.7038 17.1808C64.6002 16.7406 63.8622 16.7276 63.5645 16.3263L64.6132 15.2258C66.123 15.3871 67.6479 15.3392 69.1446 15.0833Z" fill="white"/>
<path d="M16.3986 15.5753C16.5939 16.0438 16.9225 16.4444 17.3437 16.7276C17.1365 17.0772 16.541 16.7276 16.4374 17.1808C16.3338 17.6339 16.8905 18.0741 17.0977 18.4755C16.1136 18.46 15.1435 18.2395 14.2493 17.8281C13.3948 17.4268 11.9577 16.624 12.2037 15.2387C13.5654 15.6304 14.9918 15.7449 16.3986 15.5753Z" fill="white"/>
<path d="M45.1302 17.621C45.018 18.146 45.0865 18.6934 45.3244 19.1747C45.3244 19.4206 45.8293 19.5242 45.7258 19.8738C45.5834 20.0162 45.2338 20.0162 44.9748 20.0162C44.4758 19.7341 44.1048 19.2703 43.9391 18.7215C43.8355 18.0742 43.4341 17.0772 44.1333 16.4817C44.4089 16.9076 44.7447 17.2913 45.1302 17.621Z" fill="white"/>
<path d="M64.1365 17.3749C64.1365 17.7763 63.6316 17.8799 63.282 18.1259C62.7958 18.393 62.2429 18.5143 61.6895 18.4754C61.7606 18.0419 61.7251 17.5975 61.5859 17.1807C61.9603 17.0895 62.328 16.9727 62.6864 16.8312C63.1914 16.378 63.7351 17.1807 64.1365 17.3749Z" fill="white"/>
<path d="M19.5325 17.5304C19.5442 18.0072 19.6316 18.4792 19.7914 18.9286C18.8779 18.8938 18.0102 18.5199 17.3574 17.8799L17.0078 17.4268C17.2787 17.2884 17.5601 17.1715 17.8494 17.0772C18.3789 17.3275 18.9489 17.481 19.5325 17.5304Z" fill="white"/>
<path d="M59.0981 18.1259C59.2102 18.5308 59.177 18.9623 59.0044 19.3453C58.8318 19.7284 58.5306 20.039 58.1529 20.2233C58.2333 20.7202 58.1672 21.2298 57.9625 21.6897C57.7579 22.1496 57.4236 22.5398 57.0007 22.8127L56.0555 23.1623C55.8927 23.5253 55.6346 23.8374 55.3086 24.0653C54.9826 24.2933 54.6009 24.4287 54.2041 24.457C53.9476 24.7893 53.5951 25.0346 53.1944 25.1596C52.7937 25.2847 52.3642 25.2835 51.9642 25.1561C51.8607 25.0655 51.5111 24.9619 51.6147 24.716L51.7183 24.6124C52.0266 24.7611 52.369 24.8252 52.7103 24.7979C53.0516 24.7706 53.3795 24.6529 53.6603 24.457C53.993 24.0595 54.2161 23.5819 54.3077 23.0717C54.4112 23.0717 54.4501 23.1623 54.4501 23.3177C54.4306 23.533 54.4306 23.7497 54.4501 23.965C54.6883 23.9213 54.9144 23.827 55.1132 23.6885C55.312 23.5501 55.4788 23.3706 55.6024 23.1623C55.9172 22.6953 56.0422 22.1258 55.9519 21.5698C56.0149 21.5481 56.0832 21.5481 56.1461 21.5698C56.4051 21.8158 56.3015 22.1654 56.3015 22.515C56.5792 22.5018 56.8477 22.4111 57.0765 22.2532C57.3053 22.0953 57.4853 21.8765 57.5962 21.6216C57.733 21.3719 57.8131 21.0951 57.831 20.811C57.8489 20.5268 57.8041 20.2422 57.6998 19.9773C57.5962 19.7702 57.3502 19.7313 57.3502 19.5242C57.6998 19.3818 57.8422 20.2233 58.1918 19.7313C58.5414 19.2393 58.8521 19.1746 58.8521 18.825C58.7444 18.3448 58.5173 17.8995 58.1918 17.5303V17.3361C58.3955 17.3847 58.5843 17.4819 58.7422 17.6194C58.9 17.757 59.0221 17.9308 59.0981 18.1259Z" fill="#0072BC"/>
<path d="M23.2745 17.7246C23.0745 17.9953 22.9509 18.3148 22.9168 18.6496C22.8826 18.9844 22.9391 19.3223 23.0803 19.6278L23.3781 19.8738C23.5335 19.7702 23.5334 19.4206 23.7794 19.4206C23.9737 19.7702 23.7794 20.2234 23.7794 20.7153C23.804 21.0115 23.9037 21.2965 24.0691 21.5435C24.2344 21.7904 24.4601 21.9911 24.7246 22.1266C25.0742 22.2819 25.0742 21.9324 25.0742 21.777C25.0742 21.6216 25.1777 21.5828 25.2684 21.6864C25.359 21.79 25.3719 22.2819 25.4237 22.5797C25.6324 23.0507 25.9577 23.4606 26.3689 23.7708C26.576 23.8744 26.9256 23.7709 26.822 23.5249L26.9256 22.9811C27.0162 22.9811 27.1716 23.0847 27.1716 23.1753C27.1072 23.4808 27.146 23.7991 27.2819 24.0803C27.4178 24.3614 27.6431 24.5895 27.9225 24.7289C28.4334 25.0312 29.0429 25.1196 29.6186 24.9749C29.7092 25.0785 29.6186 25.1691 29.7092 25.2209C29.2705 25.411 28.7826 25.4557 28.3167 25.3486C27.8507 25.2414 27.4313 24.988 27.1198 24.6254C27.1198 24.224 26.6149 24.47 26.3171 24.224C25.3201 23.978 25.3719 22.6315 24.3232 22.4761C24.0122 22.2023 23.7626 21.8658 23.5908 21.4887C23.4189 21.1116 23.3288 20.7025 23.3263 20.2881C22.9249 20.0809 22.5754 19.8349 22.5236 19.4854C22.4114 19.1557 22.3995 18.8001 22.4893 18.4636C22.5792 18.1272 22.7668 17.8249 23.0285 17.5951L23.2745 17.7246Z" fill="#0072BC"/>
<path d="M69.145 17.7763C69.0176 18.0481 68.8097 18.2741 68.5495 18.4237C67.7468 18.9286 66.698 18.6179 65.8047 18.5791C66.452 18.2295 67.2548 18.0741 67.9539 17.621C68.3536 17.6497 68.7513 17.7016 69.145 17.7763Z" fill="white"/>
<path d="M43.2526 18.1259C42.8166 18.6011 42.5206 19.1875 42.3972 19.8205C42.2738 20.4534 42.3279 21.1081 42.5535 21.7123C41.9967 21.8158 41.5954 21.2721 41.2588 20.8189C41.0858 20.4525 40.9961 20.0524 40.9961 19.6472C40.9961 19.242 41.0858 18.8419 41.2588 18.4755C41.386 18.5649 41.4884 18.6852 41.5565 18.8251C41.7119 18.9675 41.9579 19.2782 42.2557 19.1746C42.5535 19.0711 42.2557 18.8251 42.2557 18.5791C42.2557 18.3331 42.8124 17.8799 43.0584 17.621C43.1738 17.7652 43.2416 17.9416 43.2526 18.1259Z" fill="white"/>
<path d="M14.4451 18.4755C14.9007 18.5463 15.3395 18.6999 15.7398 18.9286C15.2326 19.0683 14.7009 19.0954 14.1821 19.0082C13.6633 18.921 13.1698 18.7215 12.7361 18.4237C12.5937 18.2295 12.3477 18.1259 12.3477 17.8799C12.6118 17.7631 12.9046 17.727 13.1892 17.7763L14.4451 18.4755Z" fill="white"/>
<path d="M69.6243 19.1746C69.6243 19.8738 68.7698 20.3658 68.3296 20.7671C67.0981 21.4476 65.6916 21.7451 64.2901 21.6216C63.9003 21.4516 63.5677 21.173 63.332 20.8189C63.5845 20.5776 63.8727 20.3767 64.1865 20.2234C64.2901 19.9644 64.6397 19.8738 64.4843 19.6278C64.329 19.3818 63.7852 18.9675 63.6816 18.6179C65.5952 19.2492 67.6268 19.4396 69.6243 19.1746Z" fill="white"/>
<path d="M17.8353 18.825C17.7447 19.071 17.3951 19.1746 17.2397 19.5242C17.0526 19.7837 16.9002 20.0666 16.7866 20.3657C17.2397 20.5729 17.6929 20.8189 18.0813 21.0131C17.7835 21.272 17.9777 21.8158 17.4339 21.8676C15.6343 22.3208 12.2551 21.1685 11.8926 19.4206C12.2462 19.4842 12.5963 19.5663 12.9413 19.6666C14.6001 19.966 16.3109 19.6285 17.7317 18.7215C17.7317 18.7215 17.7447 18.7215 17.8353 18.825Z" fill="white"/>
<path d="M63.4896 19.317C63.632 19.5242 63.891 19.6278 63.891 19.8738C63.5476 20.139 63.1524 20.3291 62.7308 20.4317C62.3092 20.5343 61.8708 20.5471 61.444 20.4693C61.4957 20.087 61.4957 19.6994 61.444 19.317C61.3404 18.7215 62.0395 19.071 62.3373 18.9286C62.5142 18.8084 62.7196 18.737 62.9329 18.7215L63.4896 19.317Z" fill="white"/>
<path d="M43.4849 18.9286C43.6792 19.6278 44.6243 19.9644 44.5337 20.7671C44.6712 21.0459 44.8759 21.2861 45.1292 21.4662C45.4426 21.5375 45.7693 21.5247 46.0762 21.4293C46.3831 21.3338 46.6594 21.159 46.8771 20.9225C47.0713 20.9225 47.2267 20.8189 47.2267 21.0131C47.2418 21.3504 47.1611 21.6851 46.9938 21.9784C46.8265 22.2717 46.5796 22.5116 46.2815 22.6703C45.9237 22.7921 45.5395 22.8142 45.17 22.7344C44.8006 22.6546 44.4598 22.4758 44.1841 22.2172C43.8208 21.8336 43.5778 21.352 43.4849 20.8318C43.4094 20.8062 43.3275 20.8062 43.2519 20.8318C43.2979 21.7431 43.6285 22.617 44.197 23.3306C43.9307 23.4482 43.6324 23.4725 43.3505 23.3997C43.0686 23.3268 42.8195 23.1611 42.6434 22.9293C42.3456 22.7351 42.0996 22.4761 42.0996 22.2301C42.4525 22.273 42.8106 22.2377 43.1483 22.1265C43.1483 21.8806 42.9023 21.5828 42.9023 21.4274C42.774 20.9962 42.7602 20.5389 42.8624 20.1008C42.9645 19.6626 43.1791 19.2586 43.4849 18.9286Z" fill="white"/>
<path d="M20.1405 19.5371C20.2311 19.8867 20.1405 20.2363 20.2311 20.6765C19.2927 20.8398 18.3266 20.6849 17.4863 20.2363C17.4863 19.6795 18.0431 19.33 18.2891 19.084C18.8928 19.2853 19.512 19.4369 20.1405 19.5371Z" fill="white"/>
<path d="M41.7364 22.5668C41.6329 23.1105 41.8918 23.4601 41.8918 23.8615H41.0373C40.621 22.907 40.5344 21.841 40.7913 20.8318C40.9337 21.518 41.9565 21.8158 41.7364 22.5668Z" fill="white"/>
<path d="M63.0338 21.518C63.0338 21.8676 63.2798 22.1654 63.1892 22.515C62.3281 22.4891 61.487 22.2488 60.7422 21.8158C60.8696 21.5155 61.0543 21.2428 61.286 21.0131C61.8945 21.3627 62.9302 20.3657 63.0338 21.518Z" fill="white"/>
<path d="M20.2839 21.1167C20.4851 21.391 20.6709 21.6763 20.8406 21.9712C20.0379 22.4114 18.9892 22.2172 18.0958 22.5668C18.0493 22.2882 18.0859 22.0021 18.201 21.7442C18.3161 21.4863 18.5047 21.268 18.7432 21.1167C19.2564 21.1426 19.7706 21.1426 20.2839 21.1167Z" fill="white"/>
<path d="M69.0289 22.2172C68.9253 22.515 68.6275 22.6704 68.2779 22.8646C67.7212 23.2659 67.1256 23.0199 66.5819 22.8646C66.0799 22.6935 65.608 22.4445 65.1836 22.1266C65.8827 21.9324 66.5819 22.023 67.2292 21.777C67.8507 21.9712 68.4204 22.1266 69.0289 22.2172Z" fill="white"/>
<path d="M16.139 22.5668C15.3492 22.9163 14.2487 23.5637 13.3036 23.0199C13.0632 22.9075 12.8442 22.7542 12.6562 22.5668C13.0576 22.4114 13.6014 22.4114 13.951 22.0618C14.6501 22.3208 15.401 22.3208 16.139 22.5668Z" fill="white"/>
<path d="M61.8954 23.2659C62.0146 23.4859 62.0886 23.7275 62.113 23.9765C62.1375 24.2256 62.1119 24.477 62.0378 24.716C61.6882 24.716 61.4422 24.3664 60.9891 24.3664C60.3935 24.0168 59.4484 23.6155 59.1895 22.7221C59.539 22.4632 59.9922 22.4632 60.3417 22.1136C60.7431 22.5667 61.5847 22.4114 61.8954 23.2659Z" fill="white"/>
<path d="M68.68 24.0556C67.6831 25.3504 65.7281 25.3504 64.0838 25.2597C63.4497 25.0183 62.922 24.5595 62.5949 23.965L62.3359 22.9681C62.7373 22.9681 63.1387 23.2659 63.54 22.9681L63.7342 22.1136C65.2454 23.0674 66.9236 23.7264 68.68 24.0556Z" fill="white"/>
<path d="M22.3808 22.8645C21.5945 23.6072 20.6321 24.1374 19.5842 24.4053C19.4982 24.1398 19.4865 23.8559 19.5504 23.5843C19.6143 23.3127 19.7514 23.0638 19.9467 22.8645C20.3481 22.515 20.9436 22.5668 21.3968 22.2172L22.4455 22.761L22.3808 22.8645Z" fill="white"/>
<path d="M17.7463 22.8645L17.9405 23.1105L19.2352 22.9163C19.1945 23.892 18.7877 24.8165 18.0959 25.5057C17.1507 26.3085 15.7525 25.8553 14.6002 25.6093C14.1468 25.5054 13.7192 25.3107 13.3432 25.037C12.9671 24.7633 12.6504 24.4163 12.4121 24.0168C12.9625 23.9926 13.5112 23.9407 14.0564 23.8615C15.2836 23.5813 16.4589 23.1094 17.5392 22.4632C17.7463 22.4114 17.6945 22.761 17.7463 22.8645Z" fill="white"/>
<path d="M60.3945 24.457C60.4447 24.7071 60.443 24.9649 60.3896 25.2143C60.3361 25.4637 60.2321 25.6995 60.0838 25.9071C59.3329 25.454 58.2324 25.1562 57.8828 24.211C58.3484 24.097 58.7879 23.8948 59.1775 23.6155C59.552 23.9386 59.96 24.2208 60.3945 24.457Z" fill="white"/>
<path d="M23.5336 24.3146C22.9387 25.0784 22.1462 25.6649 21.2419 26.0107C21.1139 25.7718 21.0469 25.5049 21.0469 25.2339C21.0469 24.9628 21.1139 24.6959 21.2419 24.457C21.4879 24.211 21.8375 23.965 22.1871 23.6673C22.5974 23.9554 23.0523 24.1742 23.5336 24.3146Z" fill="white"/>
<path d="M20.58 24.716C20.5319 25.005 20.5426 25.3008 20.6116 25.5856C20.6805 25.8703 20.8063 26.1382 20.9814 26.3732H21.331C21.073 27.0765 20.7012 27.7326 20.2305 28.3153C19.6176 29.0333 18.8174 29.5672 17.9191 29.8575C17.0207 30.1478 16.0595 30.1831 15.1423 29.9595C14.5496 29.8259 14.012 29.5142 13.6016 29.0662C15.8217 28.149 17.7506 26.6452 19.1818 24.716C19.5831 25.0655 20.1398 24.716 20.58 24.6253V24.716Z" fill="white"/>
<path d="M62.4897 25.1562C62.5933 25.1562 62.5933 24.9102 62.5933 24.8066C64.1148 26.379 65.9936 27.5605 68.0699 28.2505C67.9793 28.6001 67.5779 28.8461 67.2802 29.0533C65.7783 29.8948 63.9787 29.2993 62.5933 28.7555C61.5834 28.147 60.3923 27.901 60.0039 26.658C60.0039 26.658 60.0039 26.5027 60.0039 26.412C60.3535 26.5027 60.3535 26.0625 60.5477 25.9071C60.7125 25.545 60.8006 25.1527 60.8066 24.7548C61.3763 24.8066 61.8942 25.2598 62.4897 25.1562Z" fill="white"/>
<path d="M58.5037 25.7129C58.5526 26.0177 58.5375 26.3293 58.4595 26.628C58.3815 26.9266 58.2422 27.2058 58.0506 27.4478C57.5925 27.24 57.1931 26.922 56.8881 26.5221C56.5831 26.1221 56.382 25.6528 56.3027 25.1562C56.8465 25.1562 57.3514 25.1562 57.8046 25.1562L58.5037 25.7129Z" fill="white"/>
<path d="M25.1243 25.6093C25.085 25.8852 24.9414 26.1355 24.7229 26.3085C24.0801 26.6958 23.4658 27.1285 22.8845 27.6032C22.6961 27.3891 22.5651 27.1306 22.504 26.8521C22.4428 26.5735 22.4535 26.284 22.5349 26.0107C22.8845 25.6611 23.234 25.5058 23.5836 25.208C24.0882 25.374 24.6028 25.5081 25.1243 25.6093Z" fill="white"/>
<path d="M66.3247 25.8035C66.8815 26.2566 67.477 26.5027 67.982 26.9558C67.7806 27.0973 67.5463 27.1847 67.3014 27.2096C67.0566 27.2345 66.8094 27.1962 66.5837 27.0982C65.9752 26.658 65.289 26.3084 64.6805 25.9071L64.5898 25.8035C65.1673 25.7582 65.7473 25.7582 66.3247 25.8035Z" fill="white"/>
<path d="M59.1886 26.2567C60.7584 29.3471 63.3667 31.7857 66.5555 33.1445C66.6979 33.1445 66.9051 33.1445 67.0475 33.2869C66.7939 33.7361 66.412 34.0993 65.9506 34.33C65.4893 34.5607 64.9696 34.6483 64.4581 34.5817C61.1177 34.2321 58.2176 31.0859 56.8711 28.1858C56.9027 27.919 56.9547 27.6549 57.0265 27.396H57.13L58.0752 28.0952C58.7743 27.8362 58.9685 27.0464 59.1239 26.4509V26.2955L59.1886 26.2567Z" fill="white"/>
<path d="M56.4946 27.3054L55.8991 28.7037C55.6926 28.5445 55.5096 28.3571 55.3553 28.147C54.8953 27.8028 54.5628 27.3155 54.4102 26.7616V26.6063C55.0241 26.6219 55.6341 26.5026 56.1969 26.2567C56.3457 26.3816 56.4537 26.5483 56.5068 26.7353C56.5599 26.9223 56.5557 27.1209 56.4946 27.3054Z" fill="white"/>
<path d="M16.7885 26.5027C16.3319 26.972 15.8136 27.3771 15.2478 27.7067C14.8822 27.7657 14.5085 27.7514 14.1485 27.6647C13.7884 27.578 13.4491 27.4207 13.1504 27.2018V27.0982C13.7278 26.9737 14.2631 26.7016 14.704 26.3085C15.3929 26.4262 16.0898 26.4912 16.7885 26.5027Z" fill="white"/>
<path d="M27.171 26.658C27.0156 27.5514 25.9669 28.0563 25.4231 28.7555C25.1896 28.5038 25.0215 28.1986 24.9334 27.8668C24.8454 27.535 24.8401 27.1866 24.9182 26.8523L25.2677 26.412C25.8794 26.6202 26.5265 26.7038 27.171 26.658Z" fill="white"/>
<path d="M22.835 28.0563C23.081 28.0563 23.1845 27.9009 23.3787 27.7974L24.3239 27.2018C24.4968 27.8611 24.5238 28.5502 24.4031 29.221C24.2823 29.8919 24.0167 30.5283 23.6247 31.0859C22.3693 32.5762 20.6817 33.6394 18.7955 34.1285C17.5008 34.3745 15.494 34.6205 14.5488 33.5329C16.3639 32.8128 17.9991 31.7035 19.3392 30.2832C20.4699 29.2616 21.3854 28.0248 22.0322 26.6451C22.0199 26.932 22.0886 27.2165 22.2306 27.4662C22.3726 27.7158 22.5821 27.9203 22.835 28.0563Z" fill="white"/>
<path d="M53.9588 27.0076C53.9588 27.7067 55.1111 28.0563 54.5544 28.8461C54.412 29.105 54.3084 29.4028 54.0106 29.5452C53.5057 28.7555 52.5605 28.2505 52.5605 27.2018C53.0318 27.1817 53.5 27.1166 53.9588 27.0076Z" fill="white"/>
<path d="M28.9177 27.3054C28.9177 28.2505 27.9208 28.9497 27.1699 29.6488C26.9239 29.6488 26.9239 29.2992 26.8203 29.105C26.3672 28.3541 27.2734 27.8103 27.5194 27.3054C27.9805 27.4025 28.4567 27.4025 28.9177 27.3054Z" fill="white"/>
<path d="M52.3144 28.0563C52.1567 28.331 51.9404 28.5674 51.6808 28.7487C51.4211 28.93 51.1246 29.0517 50.8125 29.105C50.8643 28.6231 50.8643 28.1369 50.8125 27.655C51.2524 27.572 51.6853 27.4551 52.1072 27.3054C52.1072 27.4478 52.2108 27.7974 52.3144 28.0563Z" fill="white"/>
<path d="M49.7257 29.4546C49.8126 29.6765 49.8776 29.9063 49.9199 30.1408C49.7706 30.2864 49.5838 30.3877 49.3804 30.4334C49.1769 30.4791 48.9648 30.4675 48.7676 30.3997C48.8712 29.4546 48.8712 28.3541 48.9229 27.3572C50.373 27.2018 49.3243 28.8461 49.7257 29.4546Z" fill="white"/>
<path d="M30.6669 27.901C30.7576 28.4059 30.408 28.8461 30.162 29.2992C29.7088 29.105 29.1651 28.7555 29.1133 28.3541C29.1381 28.0723 29.222 27.7988 29.3593 27.5514C29.7809 27.7159 30.2195 27.8331 30.6669 27.901Z" fill="white"/>
<path d="M50.2706 27.6549C50.4648 28.2505 50.2706 29.105 50.6202 29.6488C50.6039 29.8883 50.5515 30.124 50.4648 30.3479C50.2736 29.7473 50.1562 29.1255 50.1152 28.4965L50.2188 27.6549H50.2706Z" fill="white"/>
<path d="M32.3641 30.594C32.1907 30.6406 32.0083 30.6425 31.8339 30.5995C31.6596 30.5565 31.499 30.4699 31.3672 30.348C31.5591 29.576 31.7061 28.7936 31.8074 28.0046C31.8074 27.7974 32.0145 27.7974 32.0534 27.7974L32.3641 30.594Z" fill="white"/>
<path d="M31.2112 28.0563C31.2366 28.8448 31.0816 29.6286 30.758 30.348C30.1625 29.5452 31.1076 28.7555 31.2112 28.0563Z" fill="white"/>
<path d="M53.4159 29.4546C53.0417 33.2794 53.9528 37.1199 56.0053 40.369C56.5491 41.3271 57.3 42.2722 57.8568 43.3209C57.445 43.3667 57.0282 43.3182 56.6379 43.1792C56.2476 43.0401 55.894 42.8141 55.604 42.5182C53.8789 40.8766 52.5783 38.8408 51.8138 36.5856C51.0493 34.3304 50.8438 31.9233 51.2149 29.5711C51.6681 29.2215 52.2636 29.1309 52.6132 28.626C52.9043 28.8784 53.1728 29.1557 53.4159 29.4546Z" fill="white"/>
<path d="M56.0553 29.2993L56.4955 28.8461C56.7655 29.218 56.9874 29.6226 57.1558 30.0502C57.2124 30.4443 57.3257 30.828 57.4924 31.1895V31.3967C58.3461 34.4989 60.2037 37.2307 62.7749 39.1649C63.0641 39.312 63.3338 39.4946 63.5776 39.7087C62.5072 40.0373 61.3682 40.0725 60.2796 39.8106C59.191 39.5487 58.1927 38.9993 57.3889 38.2198C55.9395 36.7891 54.8905 35.0035 54.3463 33.041C54.0063 32.1134 53.8523 31.1279 53.8932 30.1408C54.021 30.168 54.1539 30.1594 54.2773 30.116C54.4006 30.0726 54.5096 29.9961 54.5923 29.8948C54.8442 29.5323 55.0325 29.1295 55.149 28.7037C55.5504 28.8461 55.6022 29.5453 56.0553 29.2993Z" fill="white"/>
<path d="M26.318 28.7555C26.3519 29.2744 26.5673 29.7648 26.9265 30.1408L27.2761 30.0502C27.456 31.7101 27.2156 33.3886 26.577 34.9312C25.9739 36.2252 25.0467 37.3414 23.8852 38.1717C22.7238 39.0019 21.3676 39.518 19.9481 39.6698L18.8605 39.4756H18.6016C21.2603 37.6971 23.3008 35.1364 24.4407 32.1476C24.7205 31.1843 24.9027 30.1954 24.9845 29.1957C25.2434 29.105 25.334 29.4546 25.593 29.4028C25.7606 29.1162 26.0143 28.8897 26.318 28.7555Z" fill="white"/>
<path d="M29.1662 29.2992C29.6194 29.7524 30.461 29.7524 30.215 30.3997C30.7587 33.9861 30.5127 37.9738 27.9751 40.5244C26.9968 41.5328 25.8861 42.4039 24.6736 43.1138C24.2616 43.2789 23.8227 43.3667 23.3789 43.3727L23.5343 43.2691C26.6675 40.5762 27.4184 36.9769 27.9751 33.2481V29.5452C28.3247 29.4028 28.5189 29.0533 28.7649 28.8461C28.946 28.9475 29.0875 29.1072 29.1662 29.2992Z" fill="white"/>
<path d="M64.2381 29.8042C65.0361 30.4742 65.9043 31.0559 66.8275 31.5391C66.7239 31.7462 66.478 31.7462 66.2837 31.7462C65.4171 31.6987 64.5758 31.4374 63.8348 30.9856C63.0938 30.5337 62.4762 29.9054 62.0371 29.1568L64.2381 29.8042Z" fill="white"/>
<path d="M18.1851 30.3997C17.24 31.1895 16.2948 32.5878 14.793 31.8887V31.798C15.3305 31.5324 15.8068 31.1576 16.1913 30.6975C16.8626 30.6502 17.5292 30.5507 18.1851 30.3997Z" fill="white"/>
<path d="M32.364 31.0989C32.856 33.4941 31.6649 35.3844 30.7586 37.3782C30.5644 37.2358 30.6679 36.8862 30.7586 36.6791C31.1283 34.9771 31.181 33.2214 30.9139 31.5003C31.0164 31.2506 31.1514 31.0155 31.3153 30.8011C31.6441 30.9627 31.9994 31.0636 32.364 31.0989Z" fill="white"/>
<path d="M49.9197 30.84C50.0437 31.2164 50.2273 31.5705 50.4635 31.8887C50.4065 33.541 50.6075 35.1922 51.059 36.7827C51.059 37.1322 51.059 37.4818 50.8131 37.7278C50.4635 37.5854 50.2693 37.1322 50.0233 36.7827C49.1141 35.0068 48.6351 33.0421 48.625 31.0471V30.9435C49.0585 31.0162 49.5033 30.9807 49.9197 30.84Z" fill="white"/>
<path d="M58.2956 31.4485C60.2077 33.5721 62.3483 35.4782 64.6785 37.1322C64.7821 37.2747 64.4843 37.2358 64.4325 37.2747C63.3724 37.2958 62.3272 37.0226 61.413 36.4855C60.4988 35.9484 59.7513 35.1684 59.2537 34.2321C58.7163 33.3025 58.2822 32.317 57.959 31.2931L58.2956 31.4485Z" fill="white"/>
<path d="M23.4287 32.2382C22.8281 33.7832 22.0037 35.2315 20.9817 36.5367C19.6421 37.2109 18.1162 37.4204 16.6444 37.1322C16.5409 37.1322 16.3984 37.1322 16.3984 36.9251C17.8905 36.3522 19.2228 35.4285 20.2826 34.2321C21.391 33.7521 22.404 33.0768 23.2733 32.2382H23.4287Z" fill="white"/>
<path d="M49.3227 36.7827C49.5472 37.9818 49.8988 39.1537 50.3715 40.2784C50.3808 40.3913 50.3621 40.5048 50.3169 40.6087C50.2717 40.7127 50.2015 40.8038 50.1125 40.874C49.9947 40.9853 49.8441 41.0556 49.6831 41.0743C49.522 41.0929 49.3593 41.059 49.2192 40.9775C48.4682 40.628 48.8696 39.1261 47.7691 39.6828C47.5231 39.8382 47.6655 40.1878 47.7691 40.382C48.4258 41.5918 49.2496 42.7032 50.2161 43.6835C50.3715 44.1237 49.9183 44.1237 49.6723 44.279L48.4682 44.3826C48.5057 44.7787 48.4198 45.1766 48.2222 45.522C47.9245 45.522 47.7691 45.276 47.5231 45.3277C47.1735 45.8715 47.07 46.9202 46.073 46.8167C45.7235 46.4671 46.073 46.1175 45.9306 45.6773C45.7882 45.2371 45.4775 44.4732 44.7783 44.1755C44.5546 44.1791 44.3356 44.2406 44.1427 44.354C43.9499 44.4675 43.7897 44.629 43.6778 44.8228C43.5007 45.4327 43.4541 46.0731 43.5411 46.7022C43.6281 47.3313 43.8467 47.935 44.1828 48.4739C44.4094 48.696 44.6883 48.8575 44.9937 48.9435C45.2992 49.0295 45.6214 49.0372 45.9306 48.9659C46.1766 49.2637 46.0212 49.7686 45.827 50.0664C45.6864 50.3241 45.486 50.5444 45.2428 50.7089C44.9995 50.8733 44.7204 50.9771 44.4288 51.0115C43.9661 50.9863 43.5198 50.8324 43.14 50.567C42.7603 50.3016 42.4622 49.9354 42.2795 49.5097C41.8393 48.8235 41.9818 48.0207 41.5804 47.3216C41.5804 47.3216 41.3862 47.0756 41.2826 47.1662C41.2111 47.5121 41.2111 47.869 41.2826 48.2149C41.5158 48.9257 41.5516 49.6864 41.3862 50.4159C41.3439 50.5689 41.2687 50.7107 41.1658 50.8315C41.0629 50.9522 40.9349 51.049 40.7906 51.1151C40.5822 51.103 40.3818 51.0304 40.214 50.9062C40.0461 50.7821 39.9181 50.6117 39.8455 50.4159C39.7115 49.6817 39.7604 48.9258 39.9879 48.2149C40.0428 47.9023 40.0428 47.5825 39.9879 47.2698C39.9879 47.1662 39.8455 47.1662 39.7419 47.1662C39.237 48.0207 39.237 50.0664 37.6445 50.6619C37.1913 50.8173 36.4922 51.0115 36.1426 50.6619C35.9193 50.5201 35.7394 50.3192 35.6229 50.0816C35.5064 49.8441 35.4577 49.5789 35.4823 49.3154C35.6377 48.9659 35.8837 49.3154 36.1297 49.1212C37.528 48.6163 37.8775 47.1274 37.9811 45.7291C37.8775 45.3277 37.4373 44.525 36.8288 44.4344C36.2203 44.3438 35.6377 44.9782 35.3917 45.7291C35.1845 46.2729 35.3917 47.0238 34.7443 46.8684L33.9416 46.0269C33.6113 45.975 33.275 45.975 32.9447 46.0269C32.8929 45.6792 32.8929 45.3258 32.9447 44.9782C32.9447 44.6804 32.6469 44.6804 32.4915 44.5768C31.9996 44.3308 31.0933 44.6804 30.8473 44.1755C30.6013 43.6705 31.4428 43.5281 31.7018 43.1785C32.5637 42.3507 33.2468 41.3548 33.7086 40.2525C33.7086 39.9935 33.7086 39.6958 33.5532 39.644C32.6599 39.3462 32.9576 41.1976 32.0125 41.1976C31.847 41.1879 31.6866 41.1365 31.5463 41.0482C31.406 40.96 31.2902 40.8377 31.2098 40.6927C31.0156 39.644 31.8054 38.647 32.0125 37.5983C31.972 36.9283 32.1058 36.2592 32.4009 35.6563C32.6081 35.0089 32.7505 34.3616 32.9576 33.7142C34.306 38.3195 36.9862 42.4232 40.6612 45.509C44.2773 42.2616 46.9066 38.062 48.2481 33.3905C48.4195 34.5722 48.7825 35.7179 49.3227 36.7827Z" fill="white"/>
<path d="M57.8023 39.8252C58.1907 40.4726 58.7474 41.1199 59.1876 41.8191C56.8442 40.8221 54.449 36.7826 54.4102 35.0348C55.0057 36.7826 56.896 38.0773 57.8023 39.8252Z" fill="white"/>
<path d="M26.7709 36.7826C26.2872 37.9687 25.7383 39.1271 25.1266 40.2524C24.2261 40.9807 23.1328 41.4307 21.9805 41.5472C22.9075 40.6658 23.7287 39.6795 24.4275 38.6082C25.2302 37.9479 26.02 37.3135 26.8227 36.5107L26.7709 36.7826Z" fill="white"/>
<path d="M26.227 44.9652C26.227 45.3148 25.7738 45.263 25.5278 45.509C25.3029 45.7219 25.0992 45.956 24.9193 46.2081C24.5731 46.0129 24.1759 45.9272 23.78 45.9621C23.4629 46.0123 23.1666 46.1515 22.9255 46.3635C22.878 46.0646 22.9189 45.7583 23.0431 45.4823C23.1673 45.2063 23.3694 44.9725 23.6246 44.8098C24.0097 44.5314 24.4792 44.3947 24.9535 44.4231C25.4279 44.4514 25.8778 44.6429 26.227 44.9652Z" fill="white"/>
<path d="M55.9013 46.0657C55.8821 45.8459 55.8015 45.6359 55.6687 45.4597C55.5359 45.2834 55.3564 45.148 55.1504 45.0688C55.3575 44.6157 55.8107 44.6157 56.1473 44.3697C56.5644 44.3263 56.9847 44.4122 57.3514 44.6157C57.5761 44.7653 57.7522 44.9774 57.858 45.2258C57.9639 45.4743 57.9948 45.7482 57.947 46.0139C57.5974 46.3117 57.2478 45.7679 56.8465 45.8586C56.4451 45.9492 56.1991 46.2599 55.9013 46.0657Z" fill="white"/>
<path d="M57.4941 50.6101C57.4588 50.7345 57.3879 50.8458 57.2899 50.9302C57.192 51.0146 57.0715 51.0684 56.9433 51.085C56.8151 51.1015 56.6848 51.0801 56.5687 51.0233C56.4526 50.9665 56.3557 50.8769 56.29 50.7655C56.1864 50.2606 55.5391 50.6101 55.3449 50.7655C54.7881 50.9597 54.3997 50.6619 53.9466 50.6619C53.9207 51.0629 53.9207 51.4651 53.9466 51.866C53.9466 51.9566 54.089 52.0602 54.2961 51.9566C54.5033 51.853 54.3997 51.6071 54.4386 51.3611C54.5945 51.4301 54.7191 51.5547 54.7881 51.7106C55.1377 52.0602 53.9984 52.6558 54.9953 52.6558C55.1206 52.5154 55.2088 52.3459 55.2518 52.1627C55.2947 51.9795 55.2911 51.7885 55.2413 51.607C55.5391 51.5164 55.798 51.5164 55.9404 51.7106C56.4842 52.2026 55.798 52.6558 55.5909 53.1607C55.5909 53.4067 54.7881 53.5103 55.0989 54.0541C54.5421 54.0541 53.9984 54.054 53.8042 53.6009C53.4587 52.7781 52.9268 52.0468 52.2505 51.4646C52.4447 51.1669 52.2505 50.9079 52.2505 50.6619L52.1469 50.7655C52.1705 50.7203 52.1826 50.6701 52.1822 50.6192C52.1818 50.5682 52.1689 50.5182 52.1446 50.4734C52.1203 50.4287 52.0853 50.3906 52.0429 50.3625C52.0004 50.3344 51.9516 50.3172 51.9009 50.3123C51.4478 50.4677 51.9009 50.8173 51.7974 51.1151C51.7989 51.2894 51.7494 51.4605 51.6549 51.607C51.4478 51.4646 51.4478 51.1151 51.2018 51.0115C51.1552 51.0048 51.1078 51.0109 51.0644 51.0291C51.0211 51.0474 50.9835 51.0771 50.9558 51.1151C51.1794 51.5969 51.2297 52.1411 51.0982 52.6558C51.0982 52.9018 50.7486 52.7593 50.6062 52.7593C50.3696 52.6463 50.159 52.4856 49.9874 52.2873C49.8159 52.089 49.6871 51.8574 49.6093 51.607C49.6056 51.2535 49.6959 50.9053 49.8711 50.5981C50.0463 50.291 50.3 50.036 50.6062 49.8592C50.7486 49.7168 51.2018 49.8592 51.0982 49.5096V49.419C50.6451 49.419 50.1013 49.8592 49.8035 49.419C49.1044 48.4739 48.3534 47.5158 47.6543 46.4671C47.7967 46.3246 47.7579 45.9751 48.0039 45.8715C48.2499 45.7679 48.5994 46.1175 48.7548 45.8715C48.9102 45.6255 49.0008 45.2759 49.0008 44.9264C49.2986 44.8228 49.6481 44.8228 49.6481 45.1724C49.7582 45.3932 49.8066 45.6396 49.7884 45.8857C49.7702 46.1318 49.6859 46.3684 49.5446 46.5706C49.4539 46.6742 49.6481 46.726 49.6999 46.726C50.0495 46.726 50.1531 46.3246 50.3473 46.1175C50.4553 46.3994 50.5019 46.7012 50.484 47.0026C50.4662 47.304 50.3843 47.5981 50.2437 47.8653C50.359 47.8894 50.478 47.8894 50.5933 47.8653C50.8393 47.6193 50.8393 47.2698 51.0464 47.1144C51.4996 47.3734 51.4996 48.1631 51.9916 48.5127C52.7943 48.4221 53.2863 47.218 54.1408 47.8136H54.4386C54.5421 47.464 54.089 47.3734 53.8948 47.2698H53.3899C53.3899 46.972 53.7394 46.7648 53.9854 46.6742C54.2314 46.5836 54.7881 46.8684 55.0341 46.6742C54.8917 46.3246 54.4386 46.3246 54.089 46.2211C54.089 45.9751 54.5421 45.8715 54.6846 45.6255C54.8917 45.6255 55.1377 45.4313 55.2801 45.6255C55.4225 45.8197 55.5909 46.1175 55.7333 46.3246C55.8757 46.5318 56.4324 47.0238 56.0828 47.2698C55.7333 47.5158 55.3837 47.7747 55.2801 48.2149C54.9306 48.4739 54.5421 48.2149 54.1408 48.4739C53.7394 48.7328 53.2863 48.2667 53.0403 48.6163C53.2863 48.9658 53.7912 48.8234 54.089 49.16C54.3868 49.4967 54.089 49.9628 54.6846 49.9628C54.7881 49.9628 54.6846 49.7686 54.6846 49.7686C54.7881 49.5096 54.5421 49.2636 54.5421 48.9658C54.925 48.9251 55.3122 48.9603 55.6815 49.0694C55.8368 49.2636 55.8368 49.7686 56.1864 49.6132C56.3288 49.419 56.1864 49.0176 56.0311 48.8234C55.8757 48.6292 55.9404 48.8234 55.9404 48.7199C56.1501 48.6064 56.3928 48.5698 56.6266 48.6163C57.2351 48.7198 57.1316 49.6132 57.6365 49.6132C57.8307 49.419 57.6365 49.1601 57.6365 48.9658C57.6365 48.7716 57.3387 48.7198 57.3387 48.5645C57.6365 48.4739 57.7789 48.5645 57.9861 48.8234C58.1108 49.0291 58.1611 49.2713 58.1285 49.5096C57.9472 49.8462 57.6494 50.0016 57.4941 50.6101Z" fill="white"/>
<path d="M57.7522 50.8043C57.9982 50.2994 58.05 50.0534 58.296 49.8462C58.542 49.6391 58.5031 49.406 58.542 49.1471C58.765 49.2109 58.9668 49.3335 59.1263 49.5021C59.2857 49.6706 59.3969 49.8789 59.4483 50.1052C59.4735 50.4832 59.3996 50.8612 59.2338 51.2018C59.068 51.5424 58.8162 51.8339 58.5031 52.0472C58.2988 52.1836 58.0626 52.2649 57.8176 52.283C57.5726 52.3012 57.3271 52.2556 57.1049 52.1508C57.0013 52.1508 56.8459 51.9437 57.0013 51.853C57.5968 51.5423 57.5968 51.2445 57.7522 50.8043Z" fill="white"/>
<path d="M32.7513 46.3635L33.8 46.5577C33.0102 47.5546 32.2593 48.5515 31.366 49.4967C30.983 49.3452 30.5631 49.3136 30.1619 49.406C30.1619 49.4967 30.1619 49.7038 30.3172 49.7038C30.7087 49.6907 31.0948 49.7978 31.4235 50.0108C31.7522 50.2237 32.0077 50.5323 32.1557 50.895C32.3629 52.0472 30.861 51.8013 30.5632 52.7464C30.3172 52.6428 30.1619 52.2932 29.9677 52.0472C29.7087 51.5941 30.5114 51.2445 30.1619 50.7525C29.7087 50.8432 29.6181 51.2963 29.6181 51.7495V52.099C29.5563 52.1208 29.4893 52.1225 29.4265 52.1039C29.3637 52.0853 29.3085 52.0473 29.2685 51.9955C29.1649 51.7495 29.0096 51.5423 29.1132 51.2963C29.2167 51.0503 29.6181 50.7525 29.1132 50.4936C28.8154 50.5972 28.7118 50.9467 28.7118 51.2963C28.7118 51.6459 28.8154 51.6459 28.8154 51.8919C28.168 52.4486 28.1162 53.1866 27.7667 53.6915C27.4645 53.8401 27.1323 53.9173 26.7956 53.9173C26.4589 53.9173 26.1268 53.8401 25.8246 53.6915C25.5657 53.2384 25.0219 52.85 25.3197 52.2932C25.475 52.1508 25.6174 51.9437 25.9152 51.9437C25.8847 52.1045 25.8922 52.2702 25.9371 52.4275C25.9821 52.5849 26.0633 52.7296 26.1742 52.85C26.5237 52.7464 26.1742 52.3968 26.2648 52.0472C26.295 51.8747 26.366 51.7118 26.4718 51.5722C26.5777 51.4326 26.7153 51.3202 26.8733 51.2445C26.8733 51.6977 26.8733 52.1508 27.3135 52.2932C27.5725 52.1508 27.2229 51.9437 27.2229 51.8012C27.3135 51.4517 27.3135 50.9985 27.7667 50.7525C27.8702 50.7525 27.922 50.7525 27.922 50.5454C27.922 50.3382 27.922 50.403 27.922 50.2994C27.0157 50.403 26.226 51.1021 25.3326 50.649C25.0675 50.8215 24.7553 50.9074 24.4393 50.895C23.9343 50.7525 23.6883 50.0534 22.9374 50.1052C22.6914 49.9498 22.795 49.6002 22.6914 49.2507C22.8856 48.9529 23.041 48.6033 23.3905 48.4609L24.1933 48.5515C24.0897 48.9011 23.3388 49.1471 23.8437 49.6002H23.9343C24.1127 49.3266 24.3564 49.1016 24.6435 48.9456C24.9305 48.7897 25.2519 48.7076 25.5786 48.7069C25.488 48.9529 25.0348 49.1471 25.1384 49.4967C25.488 49.9498 25.5786 49.3025 25.8375 49.2507C25.9403 49.1853 26.0556 49.1423 26.1761 49.1245C26.2965 49.1066 26.4194 49.1143 26.5367 49.1471C26.3295 49.406 25.98 49.6002 26.1871 49.9498C26.2777 49.9498 26.3295 50.0534 26.5367 49.9498C26.7827 49.3025 27.43 49.1471 28.0256 49.0565L28.2845 48.9529C28.0256 48.8105 27.5854 48.8105 27.43 48.5515H26.4202C26.0706 48.202 25.9152 47.5028 25.3197 47.5028C25.208 47.2796 25.1633 47.0288 25.1909 46.7807C25.2184 46.5327 25.3171 46.2978 25.475 46.1045C25.6043 45.9148 25.773 45.7552 25.9696 45.6368C26.1663 45.5184 26.3862 45.4438 26.6144 45.4183C26.7887 45.4112 26.9608 45.4601 27.1053 45.558C27.2498 45.6559 27.3591 45.7975 27.4171 45.9621C27.4171 45.9621 27.4171 45.9621 27.4171 46.1045C27.4171 46.2469 27.1711 46.1045 27.0157 46.2081C26.8604 46.3117 26.6662 46.3117 26.5626 46.5577C26.8215 47.0108 27.0675 46.3635 27.4171 46.5577C27.9609 46.5577 28.2198 47.0626 28.414 47.4122V47.5028C27.9609 47.5028 27.6113 47.3086 27.2617 47.5028C27.3653 48.1113 27.9609 47.5028 28.2198 47.8524L29.2556 48.6033C29.7605 48.7069 29.5145 48.0078 29.8641 47.8524C29.9547 47.7618 30.0583 47.5546 30.1101 47.5028C30.2528 47.7942 30.4779 48.0373 30.7574 48.202C31.0034 48.1113 30.6539 47.8524 30.6539 47.6582C30.5884 47.431 30.5863 47.1903 30.648 46.962C30.7096 46.7338 30.8325 46.5268 31.0034 46.3635C30.9128 46.713 31.107 46.9073 31.353 47.1533C31.4297 47.145 31.5021 47.1134 31.5602 47.0626C31.3754 46.6019 31.3392 46.0949 31.4566 45.6125C31.6119 45.3148 31.9097 44.8098 32.2593 45.0688C32.6089 45.3277 32.3629 46.1045 32.7513 46.3635Z" fill="white"/>
<path d="M22.225 49.4967C22.3077 49.8588 22.4786 50.1949 22.7226 50.475C22.9665 50.7551 23.276 50.9705 23.6233 51.1021C23.6444 51.5106 23.7319 51.9129 23.8823 52.2932C23.5872 52.3251 23.2888 52.298 23.0043 52.2136C22.7198 52.1291 22.4549 51.989 22.225 51.8012C22.0109 51.5702 21.8584 51.2891 21.7815 50.9836C21.7045 50.6782 21.7057 50.3583 21.7848 50.0534C21.9273 49.8462 21.9273 49.6003 22.225 49.4967Z" fill="white"/>
<path d="M40.093 51.5035C40.3016 51.6373 40.5443 51.7085 40.7921 51.7085C41.04 51.7085 41.2827 51.6373 41.4913 51.5035C41.7823 51.2159 42.0192 50.8782 42.1904 50.5065C43.4851 51.3999 43.3298 52.9018 44.6245 53.7433C45.868 54.5529 47.2578 55.1115 48.7158 55.3876C48.8919 55.5657 49.0442 55.7659 49.1689 55.9832C49.1595 56.0913 49.1282 56.1963 49.077 56.292C49.0259 56.3877 48.9558 56.472 48.8711 56.5399C49.6765 56.9136 50.3786 57.478 50.9168 58.1842C51.3576 58.8257 51.6413 59.562 51.7447 60.3335C51.8482 61.105 51.7686 61.89 51.5123 62.625C51.2571 63.197 50.856 63.6918 50.3493 64.0599C49.8426 64.4281 49.248 64.6565 48.6251 64.7224H48.4309C48.2367 64.7224 47.9778 64.7224 47.8871 64.5671C47.8871 63.9197 48.4309 63.9197 48.9359 63.5184C49.2457 63.2573 49.4686 62.9081 49.575 62.5172C49.6814 62.1264 49.6662 61.7123 49.5314 61.3303C49.4636 60.8468 49.3006 60.3815 49.0516 59.9615C48.8027 59.5414 48.4729 59.175 48.0814 58.8833C48.0814 59.3882 48.3273 60.0744 47.7318 60.424C47.6132 60.4652 47.4857 60.4738 47.3627 60.4487C47.2397 60.4236 47.1256 60.3659 47.0326 60.2816C46.1393 59.3365 45.9839 58.1842 44.9352 57.239C44.0936 56.2939 42.9414 55.6465 42.1516 54.6496C42.048 56.2421 42.7472 57.5368 42.5918 58.9869C42.5905 59.1012 42.557 59.2129 42.4952 59.309C42.4334 59.4052 42.3457 59.482 42.2422 59.5307C41.9444 59.0905 41.802 58.0806 41.2453 58.236C40.9993 58.3395 40.8957 59.2847 40.8957 59.7767C40.8957 59.9838 40.8957 60.1262 40.6497 60.1262C40.5746 60.1209 40.5024 60.0951 40.4408 60.0518C40.3792 60.0085 40.3306 59.9491 40.3002 59.8802L40.0542 58.3395C40.0542 58.1324 39.8082 58.1324 39.7046 58.236C39.4124 58.6329 39.1771 59.0687 39.0055 59.5307C38.7595 59.44 38.6559 59.1811 38.5523 58.9351C38.4487 57.3815 39.4586 56.1385 39.109 54.5978C38.1121 56.2421 35.9629 56.6953 35.2249 58.482C34.7718 59.1423 34.6293 60.2816 33.723 60.6312C33.5839 60.6764 33.4326 60.6651 33.3018 60.5997C33.171 60.5343 33.0711 60.42 33.0239 60.2816C32.9683 60.0433 32.9625 59.796 33.0071 59.5554C33.0517 59.3147 33.1455 59.0859 33.2828 58.8833C33.1275 58.8833 32.8815 58.9869 32.6743 59.0387C32.1523 59.4451 31.7679 60.0022 31.5734 60.6345C31.3788 61.2668 31.3835 61.9437 31.5868 62.5732C31.95 63.3452 32.4755 64.0297 33.1275 64.58C33.2828 64.826 33.0239 64.9684 32.7779 64.9684C32.2898 65.0177 31.7972 64.9439 31.3449 64.754C30.8926 64.564 30.495 64.2639 30.1885 63.8809C29.7301 63.2963 29.418 62.6105 29.2784 61.8808C29.1387 61.1511 29.1756 60.3986 29.3858 59.686C29.8946 58.4435 30.8067 57.4083 31.9752 56.747C31.8847 56.4209 31.8847 56.0763 31.9752 55.7501C32.5319 55.1416 33.477 55.4005 34.1762 55.1416C34.7933 55.0367 35.3821 54.8055 35.9057 54.4624C36.4292 54.1193 36.8763 53.6717 37.2188 53.1478C37.6787 52.0775 38.3034 51.0858 39.0702 50.2088C39.2363 50.7536 39.6015 51.2158 40.093 51.5035Z" fill="white"/>
<path d="M50.3735 53.1996C50.2948 53.4176 50.2761 53.6528 50.3194 53.8806C50.3627 54.1083 50.4663 54.3202 50.6195 54.4943C50.7101 54.4943 50.8137 54.5978 50.9172 54.6496C51.0208 54.7014 50.8137 54.9474 50.7101 54.9474C50.0239 54.7403 49.1694 54.8438 48.7162 54.0411C48.5473 53.7197 48.459 53.362 48.459 52.9989C48.459 52.6357 48.5473 52.2781 48.7162 51.9566L48.9752 51.6071C49.0731 51.9607 49.2498 52.2877 49.4919 52.5635C49.7341 52.8393 50.0354 53.0567 50.3735 53.1996Z" fill="white"/>
<path d="M32.6091 53.588C32.4155 53.9782 32.1163 54.3064 31.7456 54.5353C31.3749 54.7641 30.9474 54.8845 30.5117 54.8827C30.5117 54.5331 30.8613 54.2353 30.9131 53.8857C30.9649 53.5362 30.9131 53.1348 31.0167 52.7852C31.4496 52.4449 31.9134 52.1458 32.402 51.8919C32.5712 52.1367 32.6785 52.419 32.7146 52.7144C32.7507 53.0098 32.7145 53.3096 32.6091 53.588Z" fill="white"/>
<path d="M57.1052 54.0929C57.0924 54.3874 57.0136 54.6752 56.8747 54.9352C56.7358 55.1951 56.5402 55.4205 56.3025 55.5948C55.8182 55.9146 55.2292 56.0352 54.6582 55.9314C54.5546 55.9314 54.451 55.789 54.5546 55.6854C55.1113 55.6854 55.1113 55.1934 55.2538 54.8438C55.3064 54.5788 55.3064 54.3061 55.2538 54.0411C55.7823 53.7189 56.2262 53.275 56.5485 52.7464C57.0016 52.9924 57.0016 53.588 57.1052 54.0929Z" fill="white"/>
<path d="M26.2251 54.4943C26.4711 54.8438 26.3158 55.2452 26.5747 55.543C26.8336 55.8408 27.1185 55.789 27.0149 56.035C26.6081 56.109 26.1887 56.0697 25.8028 55.9212C25.4168 55.7728 25.0792 55.521 24.8268 55.1934C24.6546 54.8707 24.5645 54.5105 24.5645 54.1447C24.5645 53.7789 24.6546 53.4187 24.8268 53.096L24.9175 52.9924C25.2217 53.594 25.6711 54.1102 26.2251 54.4943Z" fill="white"/>
<path d="M39.8467 59.1811C39.9373 59.6731 39.9373 60.3334 40.4423 60.5794C40.9472 60.8254 41.0378 60.4758 41.232 60.1262L41.491 59.2847H41.5816C41.7204 59.871 41.9906 60.4182 42.3719 60.8847C42.7532 61.3512 43.2356 61.725 43.7826 61.9777C44.1029 62.1845 44.476 62.2945 44.8572 62.2945C45.2385 62.2945 45.6116 62.1845 45.9318 61.9777C46.0003 61.9724 46.069 61.9811 46.134 62.0033C46.1989 62.0254 46.2587 62.0606 46.3096 62.1067C46.3605 62.1527 46.4014 62.2086 46.43 62.2711C46.4585 62.3335 46.4741 62.401 46.4756 62.4697C46.4592 62.8261 46.3607 63.174 46.1878 63.4862C46.0149 63.7983 45.7722 64.0663 45.4787 64.2693C45.0067 64.5115 44.4717 64.6029 43.946 64.5312C43.4204 64.4594 42.9295 64.2279 42.5397 63.8679C42.4879 63.8688 42.4367 63.8561 42.3913 63.8311C42.3459 63.8061 42.3078 63.7697 42.2808 63.7255C42.1423 64.4854 42.2467 65.2695 42.579 65.9667C42.9113 66.6639 43.4548 67.2387 44.1322 67.6096C44.3369 67.7098 44.5644 67.7542 44.7917 67.7383C45.0191 67.7224 45.2382 67.6467 45.4269 67.519C45.4633 67.4986 45.5051 67.4897 45.5467 67.4935C45.5883 67.4972 45.6278 67.5135 45.66 67.5401C45.6922 67.5667 45.7156 67.6024 45.7272 67.6425C45.7387 67.6827 45.7378 67.7254 45.7247 67.765C45.7036 68.0745 45.5934 68.3712 45.4073 68.6194C45.2212 68.8675 44.9672 69.0564 44.676 69.1633C44.2904 69.2704 43.8829 69.2703 43.4974 69.163C43.1119 69.0558 42.7629 68.8455 42.4879 68.5548C42.3843 69.9531 42.7339 71.8563 41.6334 72.4389C41.1932 72.6331 41.3356 73.4358 40.9343 73.7336C40.8992 73.7704 40.857 73.7998 40.8103 73.8198C40.7635 73.8398 40.7132 73.8501 40.6624 73.8501C40.6115 73.8501 40.5612 73.8398 40.5145 73.8198C40.4677 73.7998 40.4256 73.7704 40.3905 73.7336C39.8985 73.4876 40.1445 72.7885 39.7949 72.4389C38.5002 71.5844 38.8498 70.1473 38.7462 68.6972V68.5418C38.4684 68.8314 38.1092 69.0298 37.7162 69.1107C37.3231 69.1916 36.9148 69.1513 36.5452 68.995C36.2739 68.9021 36.0378 68.7281 35.8687 68.4965C35.6996 68.2649 35.6059 67.9869 35.6001 67.7003C35.6001 67.4543 35.6001 67.3507 35.7036 67.3507C36.0932 67.4915 36.5165 67.5099 36.9168 67.4034C37.3171 67.297 37.6753 67.0708 37.9435 66.7551C38.3871 66.4155 38.7291 65.9607 38.9322 65.4402C39.1354 64.9198 39.1919 64.3536 39.0958 63.8032C38.7462 63.8032 38.5002 64.2564 38.1506 64.3081C37.7222 64.495 37.2482 64.5516 36.7878 64.4711C36.3273 64.3905 35.9008 64.1762 35.5612 63.855C35.3419 63.6454 35.1741 63.3879 35.0708 63.1026C34.9674 62.8174 34.9315 62.5122 34.9657 62.2107C35.2117 61.8611 35.7684 62.2107 36.1568 62.1071C36.9686 61.9946 37.7339 61.6609 38.3687 61.1425C39.0035 60.6241 39.4835 59.9411 39.7561 59.1682L39.8467 59.1811Z" fill="white"/>
<path d="M48.2233 24.4052C48.4559 26.8169 48.3863 29.2482 48.0162 31.6427C47.8273 32.2943 47.6973 32.9616 47.6278 33.6365C46.3313 37.9396 43.9297 41.8278 40.6622 44.9134L40.5587 44.8098C37.7608 42.3975 35.5831 39.3485 34.2087 35.9194C32.8344 32.4903 32.3036 28.7813 32.6609 25.1044L32.7516 24.4052H48.2233Z" fill="white"/>
<path d="M38.7987 27.9009C38.8894 27.9009 39.0447 27.9009 39.1483 28.0563C39.2519 28.2117 39.1483 28.3541 38.9412 28.3541C38.9412 28.2505 38.8376 28.2505 38.7987 28.2505H38.6952C38.5916 28.4965 38.3456 28.1469 38.242 28.4059C37.996 28.1469 38.3456 28.0045 38.3456 27.7067C38.3456 27.7067 38.242 27.5514 38.1514 27.7067C37.996 28.1987 37.5429 27.6031 37.2969 27.7067C37.2969 28.0045 37.6464 27.9009 37.8018 28.0563C37.8924 28.4965 37.5429 28.0563 37.4004 28.2505C37.4004 28.4965 37.75 28.4965 37.8924 28.7036C37.996 29.105 37.5429 28.6001 37.4004 28.7036C37.5429 29.0532 38.242 28.8979 38.1514 29.4028C38.1514 29.7006 38.3456 29.7524 38.4492 29.9466C38.242 30.1926 38.4492 30.4386 38.3456 30.6457C38.1514 30.6457 37.996 30.4386 37.75 30.5421V30.6457C37.9435 30.8134 38.1934 30.9013 38.4492 30.8917C38.5916 30.9953 38.5916 31.1377 38.5916 31.3449H38.1514C38.242 31.5391 38.488 31.5391 38.6952 31.6944C38.9023 31.8498 38.6952 31.8886 38.7987 31.9922C38.8905 32.4769 39.0072 32.9566 39.1483 33.4293C39.1483 33.5329 39.1483 33.7401 39.2907 33.7401C39.4979 33.5329 39.2907 33.2869 39.2907 33.0927C39.0436 32.4827 38.8782 31.8428 38.7987 31.1895C38.7987 30.8917 38.6434 30.5421 38.5916 30.2443C38.649 30.1213 38.7184 30.0042 38.7987 29.8948C38.8349 29.7799 38.8651 29.6632 38.8894 29.5452C38.86 29.5353 38.8281 29.5353 38.7987 29.5452C38.6952 29.5452 38.6434 29.7524 38.488 29.7006C38.3326 29.6488 38.488 29.597 38.488 29.4028C38.488 29.2086 38.6952 29.1438 38.7987 29.0532H38.9412C39.2389 29.0532 39.2389 29.2474 39.2907 29.4028C39.3425 29.5582 39.4979 29.4028 39.4979 29.4028C39.4764 28.8968 39.407 28.3939 39.2907 27.9009L38.7987 27.7067H38.5916C38.5893 27.7339 38.5933 27.7613 38.6031 27.7868C38.6129 27.8122 38.6283 27.8352 38.6483 27.8538C38.6682 27.8725 38.6921 27.8865 38.7181 27.8946C38.7442 27.9028 38.7717 27.9049 38.7987 27.9009ZM38.7987 28.8461H38.5916C38.488 28.9496 38.4492 29.0532 38.3456 29.0532C38.3456 28.8461 38.488 28.7036 38.5916 28.4059C38.6586 28.4296 38.7317 28.4296 38.7987 28.4059C38.8922 28.4111 38.9824 28.4415 39.0599 28.494C39.1375 28.5464 39.1993 28.6189 39.2389 28.7036C39.1483 28.9496 38.9412 28.8461 38.7987 28.8461Z" fill="#0072BC"/>
<path d="M40.4433 26.8523C40.7929 26.9558 40.8835 26.658 41.0389 26.5027C41.2331 26.6063 41.2849 26.7616 41.5827 26.7616C41.5827 26.6581 41.738 26.658 41.738 26.5027H41.5827C41.5295 26.5082 41.4758 26.503 41.4246 26.4874C41.3735 26.4718 41.326 26.4462 41.2849 26.4121C41.0389 26.3085 40.7929 26.3085 40.7929 26.6063C40.5339 26.8523 40.3397 26.3085 40.0938 26.5027C40.1934 26.635 40.3111 26.7526 40.4433 26.8523Z" fill="#0072BC"/>
<path d="M38.9402 26.8523C39.0585 26.7535 39.1592 26.6352 39.2379 26.5027C39.1473 26.5027 39.0437 26.412 38.9402 26.412C38.8366 26.412 38.6942 26.658 38.7977 26.8523H38.9402Z" fill="#0072BC"/>
<path d="M38.0742 26.8522L38.4627 27.0076V26.8522C38.3204 26.7326 38.1518 26.6483 37.9707 26.6062C37.8671 26.7616 37.6211 27.0076 37.6211 27.2018C37.893 27.3054 37.9966 26.9558 38.0742 26.8522Z" fill="#0072BC"/>
<path d="M42.6816 27.0982C42.7723 27.1017 42.8622 27.0807 42.9419 27.0374C43.0217 26.9942 43.0883 26.9302 43.1348 26.8523C42.9794 26.658 42.7852 26.8523 42.6298 26.8523C42.4744 26.8523 42.5392 26.6063 42.332 26.658V26.7616C42.332 26.8523 42.4356 27.0982 42.6816 27.0982Z" fill="#0072BC"/>
<path d="M41.582 27.0982C41.841 27.3054 41.8928 27.0076 42.087 26.8523C42.2812 26.6969 41.9834 26.8523 41.8928 26.7616C41.8021 26.671 41.582 26.9558 41.582 27.0982Z" fill="#0072BC"/>
<path d="M40.7919 27.2018C40.7901 27.2147 40.791 27.2279 40.7947 27.2405C40.7985 27.253 40.8048 27.2646 40.8134 27.2744C40.822 27.2843 40.8327 27.2921 40.8446 27.2975C40.8566 27.3028 40.8695 27.3055 40.8826 27.3054C41.0379 27.2018 41.1415 27.0982 41.1415 26.9558C40.9344 26.7616 40.7919 27.0982 40.7919 27.2018Z" fill="#0072BC"/>
<path d="M39.4962 27.4478C39.5603 27.411 39.6155 27.3607 39.658 27.3003C39.7005 27.2399 39.7293 27.1709 39.7422 27.0982C39.7422 27.0076 39.6386 26.9558 39.5868 27.0076C39.4755 27.1133 39.3757 27.2304 39.2891 27.3572C39.2891 27.4478 39.3667 27.4478 39.4962 27.4478Z" fill="#0072BC"/>
<path d="M36.9465 27.5514C37.0501 27.0982 37.3996 27.655 37.5421 27.4478C37.4514 27.2018 37.1925 27.2018 36.9465 27.0076C36.8429 27.0982 36.8429 27.3054 36.7911 27.4478C36.7393 27.5902 36.8429 27.5514 36.9465 27.5514Z" fill="#0072BC"/>
<path d="M40.3379 27.0982V27.2018C40.3379 27.3054 40.5321 27.3572 40.6875 27.3054C40.8428 27.2536 40.4415 27.0982 40.3379 27.0982Z" fill="#0072BC"/>
<path d="M39.1485 27.3054C39.0449 27.15 38.7989 27.3054 38.6953 27.15V27.3054C38.7989 27.3054 38.9413 27.5514 39.1485 27.3054Z" fill="#0072BC"/>
<path d="M43.9382 27.9009C44.0288 27.7067 43.7828 27.7067 43.7828 27.6549C43.7828 27.6031 44.1324 27.5514 44.1842 27.3054C44.0564 27.2735 43.922 27.2798 43.7977 27.3235C43.6735 27.3672 43.5648 27.4465 43.4851 27.5514C43.4851 27.7067 43.3297 28.0045 43.4851 28.1469C43.6404 28.2894 43.7828 28.0045 43.9382 27.9009Z" fill="#0072BC"/>
<path d="M42.5391 27.5514C42.5391 28.0563 42.4355 28.4965 42.4355 29.0532C42.6815 29.2992 42.7851 28.7555 43.0311 28.7555H42.8369C42.5909 28.4059 43.0829 28.4059 43.1865 28.1081C43.0311 28.1081 42.9405 28.1081 42.8369 28.1081C42.5909 27.7067 43.1865 27.7067 43.2901 27.409C43.0311 27.2018 42.7851 27.5514 42.5391 27.5514Z" fill="#0072BC"/>
<path d="M40.8837 27.6549C40.7931 27.6549 40.8837 27.9009 41.0391 27.9009C41.1945 27.9009 41.2333 27.655 41.2851 27.4478C41.3369 27.2406 41.0391 27.5514 40.8837 27.6549Z" fill="#0072BC"/>
<path d="M36.2474 28.0563C36.351 27.7974 36.597 27.901 36.7912 27.7974C36.9854 27.6938 36.4546 27.655 36.2474 27.5514C36.1972 27.6243 36.1621 27.7066 36.1443 27.7933C36.1265 27.8801 36.1264 27.9695 36.1438 28.0563H36.2474Z" fill="#0072BC"/>
<path d="M40.0938 28.7037C40.1973 28.9497 40.6375 28.9497 40.6375 29.2992C40.5339 29.4546 40.3397 29.105 40.1973 29.2992C40.3397 29.4546 40.6375 29.8042 40.7929 29.7524C40.6893 28.9497 41.0389 28.0045 40.288 27.5514C40.0937 27.7974 40.4433 27.901 40.534 28.0045C40.534 28.4059 40.288 27.901 40.0938 28.0045C40.1973 28.3023 40.4433 28.3541 40.534 28.5483C40.6246 28.7425 40.288 28.4965 40.0938 28.7037Z" fill="#0072BC"/>
<path d="M39.5894 28.0563C39.5894 28.1469 39.7448 28.0563 39.8484 27.9009C39.9519 27.7456 39.8484 27.6549 39.7448 27.6549C39.6412 27.6549 39.4988 27.9009 39.5894 28.0563Z" fill="#0072BC"/>
<path d="M41.582 28.1469V28.2505C41.7108 28.2095 41.8281 28.139 41.9248 28.0446C42.0215 27.9502 42.0947 27.8345 42.1388 27.7067C41.9575 27.4478 41.841 28.0045 41.582 28.1469Z" fill="#0072BC"/>
<path d="M45.1306 28.0563C45.1306 28.147 45.2342 28.2505 45.1306 28.3541C45.0271 28.4577 45.3249 28.4965 45.3249 28.3541C45.3249 28.2117 45.4802 28.0045 45.3249 27.8492C45.1695 27.6938 45.0271 27.7456 44.8329 27.7456C44.6387 27.7456 44.6775 27.6032 44.5739 27.655C44.4703 27.7067 44.6775 27.8492 44.6775 28.0045C44.6775 28.1599 45.0789 27.901 45.1306 28.0563Z" fill="#0072BC"/>
<path d="M40.9346 28.4965C41.2324 28.4059 41.3877 28.2505 41.3877 28.0045V27.9009C41.0382 27.9009 41.0382 28.2505 40.8828 28.4059L40.9346 28.4965Z" fill="#0072BC"/>
<path d="M36.7797 28.147C36.7271 28.0956 36.6586 28.0636 36.5854 28.0563C36.5854 28.2505 36.3395 28.4059 36.4819 28.6001C36.7797 28.6001 36.702 28.3541 36.7797 28.147Z" fill="#0072BC"/>
<path d="M36.2479 28.3541C36.1869 28.2571 36.0947 28.1838 35.9864 28.1461C35.8782 28.1085 35.7604 28.1088 35.6523 28.1469C35.7217 28.2368 35.8127 28.3077 35.9168 28.353C36.021 28.3982 36.1349 28.4164 36.2479 28.4059V28.3541Z" fill="#0072BC"/>
<path d="M44.1338 28.2505C44.1338 28.3541 44.1338 28.6001 44.3798 28.4965C44.6258 28.393 44.5352 28.4965 44.3798 28.4059C44.2244 28.3153 44.2244 28.0563 44.082 28.0563L44.1338 28.2505Z" fill="#0072BC"/>
<path d="M46.0242 28.8461C46.0242 28.7037 46.2831 28.4965 46.2831 28.3541H46.1796C45.9336 28.7037 45.83 28.147 45.584 28.2505V28.4059C45.6741 28.6 45.8301 28.7559 46.0242 28.8461Z" fill="#0072BC"/>
<path d="M39.5866 28.7555L39.8456 28.8461C39.8456 28.7037 39.988 28.6001 39.988 28.4059C39.988 28.2117 39.988 28.4059 39.8456 28.4059C39.7032 28.4059 39.496 28.6001 39.5866 28.7555Z" fill="#0072BC"/>
<path d="M42.4374 29.8041C42.3338 29.4028 41.9843 29.8948 41.8418 29.8041C41.7383 29.4546 42.0878 29.4546 42.1914 29.2474C42.295 29.0403 41.8936 29.2474 41.8418 29.1568C41.7383 28.8072 42.0878 28.7554 42.1914 28.5483C42.295 28.3411 41.8936 28.4577 41.8418 28.6519C41.3887 28.5483 41.2333 28.8979 40.9355 29.1568C40.9355 29.2474 40.9355 29.2474 41.0391 29.351L41.5829 29.0014C41.6089 29.2338 41.6089 29.4682 41.5829 29.7006C41.5829 30.1019 41.2333 29.7006 41.0391 29.8041C40.8449 29.9077 41.2851 29.9466 41.3887 30.1019C41.7383 30.1408 42.0878 29.8948 42.4374 29.8041Z" fill="#0072BC"/>
<path d="M35.6514 28.8461C35.755 28.8461 35.755 28.7036 35.8456 28.6001C35.9363 28.4965 35.4054 28.4059 35.496 28.7036C35.3018 28.7554 35.4831 28.8461 35.6514 28.8461Z" fill="#0072BC"/>
<path d="M43.6785 30.2443C43.4517 30.717 43.3072 31.2249 43.2512 31.7462C43.2619 31.7622 43.2763 31.7754 43.2932 31.7845C43.3102 31.7936 43.3291 31.7983 43.3483 31.7983C43.3676 31.7983 43.3865 31.7936 43.4034 31.7845C43.4204 31.7754 43.4348 31.7622 43.4454 31.7462L44.028 29.8948C44.0423 29.8437 44.0673 29.7961 44.1013 29.7554C44.1353 29.7146 44.1775 29.6815 44.2252 29.6583C44.2729 29.635 44.325 29.6222 44.3781 29.6205C44.4311 29.6189 44.4839 29.6285 44.533 29.6488C44.6236 29.7524 44.779 29.8041 44.779 29.9984C44.779 30.1926 44.779 30.3997 45.0768 30.3479C45.3745 30.2961 45.4781 30.2443 45.6723 30.0501C45.8665 29.8559 45.4781 30.0501 45.3745 29.8948C45.4781 29.8041 45.7241 29.8948 45.8277 29.7524C45.3745 29.5452 45.9313 29.2992 45.6723 29.105C45.5817 29.105 45.4781 29.105 45.4781 29.1956C45.3228 29.7524 45.2321 29.0532 44.9732 29.105C44.9732 29.1956 45.0768 29.2992 45.0768 29.4028C45.0768 29.5064 45.0768 29.8041 44.9732 29.8041C44.8696 29.8041 44.6236 29.4028 44.274 29.2992C44.1834 28.8461 44.7272 29.1956 44.8826 28.9496C45.0379 28.7036 44.6236 28.8461 44.4294 28.7554C44.2352 28.6648 44.1316 28.7554 43.9374 28.6001C43.4325 28.4965 44.1316 28.9496 43.9374 29.105H43.8338C43.6785 29.105 43.5879 28.9496 43.4843 29.105C43.3807 29.2604 43.9374 29.5064 43.6785 29.8041V29.7006C43.4843 29.597 43.4325 29.5064 43.2383 29.597C43.4239 29.7836 43.5731 30.0031 43.6785 30.2443Z" fill="#0072BC"/>
<path d="M37.2948 29.9984C37.1006 29.7524 37.5408 29.5452 37.4502 29.1957C37.1912 29.105 37.2948 29.4546 37.0488 29.4546C37.051 29.4066 37.0429 29.3586 37.0251 29.3139C37.0072 29.2692 36.98 29.2289 36.9452 29.1957L37.1006 28.7555C36.8416 28.4059 36.9452 29.0533 36.6992 28.9497C36.8416 29.5452 37.0488 30.0502 37.1912 30.594C37.2948 30.6975 37.3984 30.6975 37.4502 30.594C37.5019 30.4904 37.6444 30.0502 37.5408 29.8042C37.3984 29.8042 37.3984 29.9984 37.2948 29.9984Z" fill="#0072BC"/>
<path d="M36.2488 29.2992C36.3523 29.105 36.4947 28.9497 36.2488 28.8461C36.1452 28.9497 36.0028 29.105 36.1063 29.2992C36.2099 29.4935 36.2488 29.4028 36.2488 29.2992Z" fill="#0072BC"/>
<path d="M46.1773 29.4546C46.3715 29.4546 46.6304 29.1957 46.6304 29.0532C46.5268 28.9645 46.4085 28.8944 46.2808 28.8461C46.3715 29.105 45.9313 29.1957 46.1773 29.4546Z" fill="#0072BC"/>
<path d="M35.3014 29.6488C35.1978 29.1957 35.651 29.5452 35.8452 29.4028C36.0394 29.2604 35.405 29.1957 35.1072 29.105C35.0763 29.285 35.0763 29.4689 35.1072 29.6488L35.2496 29.7524C35.2676 29.7423 35.2821 29.727 35.2913 29.7085C35.3005 29.6901 35.304 29.6693 35.3014 29.6488Z" fill="#0072BC"/>
<path d="M35.8457 30.2444C35.8457 30.4903 36.2471 30.3997 36.3506 30.4904C36.4542 30.581 36.4542 30.8399 36.7002 30.7493C36.7286 30.5425 36.7763 30.3387 36.8426 30.1408C36.8426 29.8042 36.4542 30.3479 36.4542 29.8948C36.4542 29.7524 36.7908 29.4546 36.4542 29.4028C36.2471 29.6488 36.1046 29.8042 36.2471 30.1408C36.1435 30.3479 36.0011 30.1408 35.8457 30.2444Z" fill="#0072BC"/>
<path d="M46.0234 30.0502C46.0234 30.1408 46.0234 30.2444 46.1788 30.2444C46.3625 30.1137 46.5168 29.9461 46.632 29.7524C46.6013 29.7144 46.5614 29.6849 46.516 29.6667C46.4707 29.6486 46.4214 29.6424 46.373 29.6488C46.373 29.7524 46.0234 29.8948 46.0234 30.0502Z" fill="#0072BC"/>
<path d="M45.5808 30.5939C45.4772 30.348 45.1277 30.4904 44.8817 30.4904C44.6357 30.4904 44.7263 29.8948 44.2732 29.8948C44.1825 30.2444 44.7781 30.4904 44.5321 30.8399C44.3767 30.7493 44.2732 30.5939 44.1307 30.5939C44.1307 30.8399 44.3767 30.9435 44.3767 31.1895L43.082 33.1445V33.2869C43.132 33.344 43.201 33.3808 43.2762 33.3905C43.6705 32.6355 44.1026 31.9009 44.5709 31.1895C44.813 31.213 45.0565 31.1633 45.2701 31.0471C45.1795 30.7493 44.9205 31.1895 44.7263 30.9435C44.5321 30.6975 45.3219 30.7493 45.5808 30.5939Z" fill="#0072BC"/>
<path d="M42.3319 32.9374C42.5391 32.0958 42.7851 31.1895 43.0311 30.2444C43.0023 30.1638 42.9467 30.0954 42.8737 30.0507C42.8007 30.0059 42.7146 29.9875 42.6297 29.9984C42.6297 30.2444 42.8887 30.4904 42.6297 30.7493C42.5391 30.7493 42.4355 30.7493 42.3319 30.7493C42.3158 30.823 42.3282 30.9 42.3666 30.9649C42.4051 31.0298 42.4667 31.0777 42.5391 31.0989L42.0859 32.8467C42.0859 32.9374 42.2801 33.041 42.3319 32.9374Z" fill="#0072BC"/>
<path d="M40.4434 30.1408C40.534 30.348 40.6893 30.348 40.7929 30.3998C41.0389 31.1895 40.7929 32.2382 41.1425 32.9892C41.2331 33.0927 41.2849 33.0927 41.2849 32.9892C41.2932 32.0797 41.1756 31.1734 40.9353 30.2962C40.7929 30.2444 40.6635 29.9984 40.4434 30.1408Z" fill="#0072BC"/>
<path d="M45.5825 31.2931C44.728 32.5878 44.0289 33.8825 43.1355 35.1772C43.0319 35.1772 43.0319 35.0736 42.9802 35.0736C43.2424 34.5064 43.5635 33.9683 43.9382 33.4682C44.1324 32.782 44.728 32.2771 44.974 31.6815L44.8834 31.5779C44.7798 31.5779 44.7798 31.5779 44.728 31.6815C43.9382 32.782 43.3297 34.0249 42.54 35.1772C42.4364 35.1772 42.3328 35.1772 42.3328 35.0736C42.3328 34.6205 42.6306 34.3745 42.6824 33.9214C42.8479 33.4201 42.9649 32.9042 43.0319 32.3806C42.6881 33.2272 42.3899 34.0916 42.1386 34.9701C42.035 35.0736 41.9444 35.0736 41.8926 34.9701C41.8926 33.5718 42.035 32.0829 42.035 30.6328C42.1386 30.4256 42.3846 30.4256 42.4882 30.2832C42.2422 30.0761 42.035 30.2832 41.789 30.2832C41.6854 31.7721 41.6337 33.274 41.543 34.6723C41.3209 34.5706 41.0855 34.5009 40.8439 34.4651L40.2483 30.2314C40.1447 30.0243 39.9894 29.7783 39.6916 29.7783C39.6916 30.0243 39.8987 30.0243 40.0412 30.2314C40.1836 30.4386 40.2483 30.9306 40.0412 31.1766C39.834 31.4226 39.6398 30.9306 39.4456 30.7234C39.286 30.568 39.0728 30.4799 38.85 30.4774C38.9407 30.7234 39.1996 30.7234 39.342 30.9306C39.5944 32.2114 39.7459 33.5101 39.7952 34.8147C39.6449 34.8363 39.4923 34.8363 39.342 34.8147C39.1996 34.4651 38.9925 34.0767 38.85 33.6236C38.3969 33.028 38.3969 32.1217 38.0473 31.5261C37.9437 31.3319 37.8531 31.1766 37.6977 31.1766C37.5942 31.6297 38.0473 31.9793 38.1509 32.3806C38.4705 33.1594 38.7344 33.9598 38.9407 34.7759L38.85 34.9183C38.5393 34.9183 38.2933 35.0218 38.2027 34.7759C37.6954 33.7873 37.0926 32.8506 36.403 31.9793L35.9499 31.6815C35.6003 31.6815 35.9499 31.3319 35.8075 31.073C35.7163 31.0349 35.6295 30.9871 35.5485 30.9306C35.4579 30.827 35.5485 30.7234 35.7039 30.7234L35.3543 30.3739C35.2508 30.2314 35.5485 30.2832 35.5485 30.1279C35.2551 29.938 35.0091 29.938 34.8105 30.1279C34.8105 30.2832 35.1083 30.3738 35.1083 30.581L35.0048 30.7234C34.9012 30.9824 35.2508 30.9824 35.3543 31.1766C35.2508 31.2801 35.1601 31.2801 35.1083 31.3319C35.1083 31.6297 35.5485 31.6815 35.7039 31.7721L36.157 31.8757C36.8409 32.7681 37.4107 33.7423 37.8531 34.7759C37.8531 35.0218 37.6977 35.2678 37.6977 35.6174C37.6977 35.967 37.6977 36.3166 38.0473 36.4719L37.4518 38.906C37.4518 39.2038 37.8013 39.1131 38.0473 39.2038V39.1131C37.9437 39.0096 37.8531 38.906 37.8013 38.906C37.8823 38.1097 38.0472 37.3242 38.2933 36.5626C38.3969 36.4719 38.3969 36.5626 38.5005 36.5626C38.4484 36.8782 38.348 37.1839 38.2027 37.4688C38.2027 37.4688 38.2027 37.8184 38.3969 37.7148C38.5039 37.2557 38.6877 36.818 38.9407 36.4201C39.0091 36.3945 39.0836 36.3895 39.1549 36.4056C39.2262 36.4217 39.2912 36.4582 39.342 36.5108L39.096 37.5595C39.096 37.6631 39.2902 37.7666 39.342 37.7666C39.4508 37.3214 39.6026 36.8878 39.7952 36.4719C40.1447 36.3295 40.3389 36.9251 40.6885 37.0675C40.5187 38.0618 40.4021 39.0645 40.3389 40.0712C40.3389 40.3172 40.6885 40.3172 40.8439 40.2654C40.9992 40.2136 40.5849 40.0712 40.5849 39.9676L40.8439 37.5206L40.9345 37.3782C41.2841 37.3782 41.543 37.1711 41.789 37.0287C41.6854 36.8215 41.4395 36.5755 41.6337 36.3813C41.8279 36.1871 41.9444 36.3813 42.035 36.4719C42.2347 37.106 42.3522 37.763 42.3846 38.4269C42.4882 38.4269 42.5917 38.5693 42.7342 38.5693L42.3846 36.4719V36.3813C42.4882 36.3813 42.5917 36.3813 42.5917 36.4719C42.837 37.3237 43.0358 38.1881 43.1873 39.0613C43.1873 39.0613 42.9413 39.2167 43.0837 39.4109C43.2261 39.6051 43.3815 39.3203 43.4851 39.2167C43.6405 38.2716 42.9413 37.4689 42.8377 36.5237L42.9413 36.4201C43.0319 36.4201 43.1873 36.3295 43.2909 36.4201C43.4851 37.1193 43.7311 37.8184 43.8864 38.5176C43.8864 38.7118 43.5369 38.7118 43.7311 38.8671C43.9253 39.0225 44.0807 38.7636 44.236 38.7636C44.0807 38.0256 43.7311 37.3264 43.5369 36.5237C43.8864 36.2777 43.8347 35.6304 43.8347 35.229C43.7311 35.1254 43.5369 35.0736 43.5369 34.983C44.3266 33.6883 45.0258 32.536 45.7249 31.3837L46.5276 30.8399C46.5276 30.8399 46.5277 30.8399 46.4241 30.6846C46.0745 31.0471 45.8415 31.1895 45.5825 31.2931Z" fill="#0072BC"/>
<path d="M38.8906 30.2444C39.046 30.348 39.292 30.6975 39.4991 30.3998C39.4242 30.313 39.3304 30.2446 39.2249 30.1997C39.1194 30.1548 39.0051 30.1347 38.8906 30.1408V30.2444Z" fill="#0072BC"/>
<path d="M45.9328 30.6975C45.8292 30.6975 45.9328 30.6975 45.9328 30.8399C46.1787 30.7493 46.5283 30.6975 46.6319 30.3997C46.5351 30.3678 46.4467 30.3147 46.373 30.2444C46.373 30.5939 46.0234 30.4904 45.9328 30.6975Z" fill="#0072BC"/>
<path d="M37.1931 31.7462C37.1025 31.5391 37.0507 31.1895 36.7918 31.0989C36.494 31.3967 36.248 31.0989 36.002 31.0989L35.8984 31.1895C36.1226 31.298 36.3568 31.3847 36.5976 31.4484C36.9472 31.1895 36.7788 31.8886 37.1931 31.7462Z" fill="#0072BC"/>
<path d="M37.3984 32.4842C37.6056 33.097 37.8566 33.6941 38.1493 34.2709C38.2399 34.2709 38.3435 34.3745 38.3435 34.2709C38.1064 33.5807 37.8074 32.9134 37.4502 32.2771C37.2541 32.0683 36.9852 31.9431 36.6992 31.9275C36.6992 32.3418 37.1912 32.0958 37.3984 32.4842Z" fill="#0072BC"/>
<path d="M39.2891 40.1748C39.3863 40.2529 39.4985 40.3104 39.6187 40.3438C39.7389 40.3772 39.8646 40.3858 39.9882 40.369C39.9882 40.2784 39.7422 40.2784 39.6386 40.123L39.9882 38.2845C40.0918 37.9738 40.1954 37.7278 39.9882 37.5854C39.7422 38.4269 39.5868 39.3203 39.2891 40.1748Z" fill="#0072BC"/>
<path d="M41.5828 37.7278C41.4922 37.6242 41.4922 37.8314 41.4922 37.9349C41.6346 38.5305 41.4922 39.3721 41.5828 40.123C41.5858 40.1632 41.6031 40.201 41.6317 40.2295C41.6602 40.258 41.698 40.2754 41.7382 40.2784C41.8679 39.5156 41.8679 38.7365 41.7382 37.9738C41.6346 37.9349 41.7382 37.7278 41.5828 37.7278Z" fill="#0072BC"/>
<path d="M42.5391 39.7216C42.3619 39.4404 42.2886 39.1061 42.332 38.7765C42.332 38.6341 42.332 38.3234 41.9824 38.2845V38.4269C42.1739 38.9358 42.21 39.49 42.086 40.0194C42.1896 40.1748 42.332 40.123 42.4356 40.123C42.4356 39.8252 42.7851 39.9288 42.8887 39.7216C42.7851 39.5792 42.6298 39.7216 42.5391 39.7216Z" fill="#0072BC"/>
<path d="M38.4473 38.3234C38.2093 38.7935 38.0559 39.3019 37.9941 39.8252H38.3437C38.3234 39.3804 38.4076 38.9369 38.5897 38.5305C38.4861 38.4269 38.4861 38.3234 38.4473 38.3234Z" fill="#0072BC"/>
<path d="M41.2851 40.2525V38.647C41.2851 38.647 41.1427 38.5046 41.0391 38.5046C40.9355 38.9966 41.1427 39.7993 40.9355 40.3431C41.1328 40.4516 41.3616 40.4882 41.5829 40.4467C41.7383 40.2525 41.2851 40.4726 41.2851 40.2525Z" fill="#0072BC"/>
<path d="M39.0449 38.9578H38.9413C38.824 39.3335 38.7417 39.7192 38.6953 40.1101C38.7989 40.1101 38.9413 40.1101 39.0449 40.0065C38.8895 39.7216 39.2391 39.3203 39.0449 38.9578Z" fill="#0072BC"/>
<path d="M41.4913 35.3326C41.2841 35.8375 40.9346 36.5366 41.2841 37.1322C41.2121 37.1829 41.1262 37.2101 41.0382 37.2101C40.9501 37.2101 40.8642 37.1829 40.7922 37.1322C40.339 36.6791 39.847 36.1871 40.093 35.4879C40.0908 35.4109 40.105 35.3342 40.1347 35.2631C40.1644 35.1919 40.2089 35.1279 40.2652 35.0752C40.3216 35.0226 40.3884 34.9825 40.4614 34.9577C40.5344 34.9329 40.6118 34.9238 40.6886 34.9312C40.8828 35.0736 41.2841 34.9312 41.4913 35.3326Z" fill="white"/>
<path d="M39.6406 35.4879C39.4982 35.7339 39.9901 36.4331 39.291 36.3295C38.8886 36.3558 38.4848 36.3075 38.0999 36.1871C38.0999 35.8893 37.8927 35.5786 38.0999 35.3326C38.6954 35.3844 39.2392 35.242 39.6406 35.4879Z" fill="white"/>
<path d="M43.3289 35.5786C43.3289 35.8375 43.4325 36.0835 43.2383 36.2389C42.7035 36.2665 42.1676 36.2665 41.6328 36.2389C41.84 35.9411 41.6328 35.5397 41.9824 35.4361C42.4355 35.5786 43.0311 35.2419 43.3289 35.5786Z" fill="white"/>
<path d="M40.0539 31.6426L40.4294 34.6464C40.297 34.6446 40.1667 34.6806 40.0539 34.7499C39.9503 33.6494 39.8986 32.536 39.6914 31.4225C39.8986 31.4225 39.9503 31.4225 40.0539 31.6426Z" fill="white"/>
</svg>
