<svg width="80" height="80" viewBox="0 0 80 80" fill="none" xmlns="http://www.w3.org/2000/svg">
<path d="M10.0273 6.16887H68.6316V51.4073L57.8361 68.3717L39.8436 78.139L21.3369 68.3717L10.0273 51.4073V6.16887Z" fill="white"/>
<path d="M31.4444 13.7977V24.0586H35.5776V13.7977H31.4444ZM43.6588 13.7977V24.0586H47.7919V13.7977H43.6588ZM37.1403 9.18134V24.0689H42.1063V9.18134H37.1403ZM53.4056 69.8111C61.6822 63.4057 67.7277 54.2758 67.7277 43.2335V26.6084H43.2578C43.1858 26.6907 43.1447 26.7729 43.155 26.8552C43.227 27.688 50.4343 27.8319 50.9895 29.8985C51.668 32.4277 43.7205 33.3222 43.8439 34.7308C44.0495 37.0441 63.759 37.3525 47.8022 44.3748C45.674 45.3104 44.8103 45.7422 44.8823 46.6367C45.0262 48.2612 58.3201 49.9884 58.3201 56.1367C58.3201 61.5551 51.1951 64.1563 51.1951 66.7369C51.1951 67.8679 52.0073 68.8343 53.4056 69.8111ZM11.519 26.6084V43.2335C11.519 52.055 15.3745 59.6427 21.1424 65.606C24.926 60.4241 33.6755 58.6865 33.84 56.3424C34.0765 53.186 23.6202 52.9084 24.8746 47.891C26.1906 42.6166 41.9726 41.6193 33.182 39.1723C30.8275 38.5143 27.4449 37.5582 27.9179 35.6869C28.5862 33.0138 36.5337 31.9548 36.6263 30.7416C36.7085 29.6312 29.4087 29.7134 29.933 27.616C30.0256 27.2356 30.3546 26.9066 30.807 26.5981H11.519V26.6084ZM39.6182 0H70.2364V43.2335C70.2364 61.1027 55.4002 74.8284 39.6182 80C23.8361 74.8181 9 61.1027 9 43.2335V0H39.6182Z" fill="#012D98"/>
</svg>
