<svg width="80" height="80" viewBox="0 0 80 80" fill="none" xmlns="http://www.w3.org/2000/svg">
<path d="M40 77C60.4345 77 77 60.4345 77 40C77 19.5655 60.4345 3 40 3C19.5655 3 3 19.5655 3 40C3 60.4345 19.5655 77 40 77Z" fill="#01208D"/>
<path d="M15.9443 50.6279C15.6093 49.7447 14.8784 49.1052 14.2998 48.283C14.7871 48.1917 15.0916 48.3744 15.3352 48.5875C15.6093 48.8312 15.9443 49.1052 16.1879 48.5875C16.3706 48.2526 16.6447 47.7958 16.2184 47.4913C14.5739 46.3036 14.8175 44.2937 14.3608 42.6797C14.0258 41.553 13.9649 40.2435 13.7517 39.0254C13.4167 37.0764 13.9344 35.1884 14.1171 33.3003C14.4521 30.2246 15.9747 27.7275 17.8019 25.3522C18.1064 24.9258 17.8324 24.195 18.5632 23.9818C19.02 25.474 19.7204 25.5044 21.2126 24.1036C18.5632 23.6468 20.2686 21.6978 19.9945 20.297C19.3245 20.7234 19.4464 21.302 19.355 21.7892C19.2636 22.3373 19.5682 23.2205 18.7764 23.3118C18.076 23.4032 17.3451 22.5505 17.2842 22.0937C17.071 19.9316 16.7361 17.7999 17.4365 15.6073C17.8628 14.2674 18.8982 13.232 19.0505 11.7703C19.0809 11.5875 18.8373 11.1003 19.3854 11.1917C19.7204 11.2526 19.9031 11.4353 20.025 11.7398C20.969 14.2674 22.1566 16.6122 24.4406 18.2567C25.141 18.7439 25.6282 19.4748 24.3797 20.1752C23.6488 20.6015 22.8875 21.1497 22.4003 21.9415C22.2175 22.246 22.0348 22.6419 22.4003 22.8855C22.6439 23.0682 22.918 22.855 23.192 22.7332C25.0801 21.9719 26.5418 20.4493 28.4908 19.8402C31.4447 18.9266 34.4291 18.8657 37.383 19.8402C37.9007 20.0229 38.0834 20.3884 38.0529 20.8756C37.8398 23.6468 37.4134 26.3875 35.8908 28.8238C35.434 29.5242 34.8859 29.3719 34.3073 29.3719C30.7138 29.4937 28.1863 31.5645 27.5468 35.0057C29.6784 35.3102 31.7492 34.9447 33.7896 34.3357C34.2159 34.2139 34.5813 34.153 34.6727 33.6657C34.9772 32.4476 35.6472 31.4427 36.6826 30.8032C37.3525 30.3768 37.1394 29.7982 37.1089 29.3415C37.0175 28.3061 37.4439 27.4534 37.9311 26.6312C38.0529 26.4485 38.3575 26.2353 38.5402 26.2657C38.8752 26.2962 38.9361 26.6312 38.9361 26.9661C38.9361 27.7579 38.8143 28.5801 39.3929 29.3719C39.9715 28.4279 40.0628 27.4534 39.7583 26.5094C39.3928 25.4131 39.8801 24.4081 39.7583 23.3423C39.6974 22.7941 40.0933 22.8246 40.4282 23.0682C41.0373 23.4945 41.1591 24.1341 41.1287 24.804C41.0982 25.6262 41.0982 26.418 41.1287 27.2402C41.1287 27.5447 40.9764 28.0929 41.4636 28.0929C41.9509 28.1234 42.0727 27.6057 42.0422 27.2098C41.9509 26.0526 42.0118 24.8345 41.6464 23.7686C41.0373 22.1242 41.0373 20.1752 39.4538 18.9266C39.2406 18.7744 39.0883 18.4089 39.0883 18.1349C39.0579 17.6476 38.9361 16.9472 39.4842 16.7645C40.0324 16.5818 40.1846 17.3127 40.3369 17.6476C40.885 19.018 42.1336 19.962 42.5295 21.3933C42.834 22.4592 43.3517 23.5859 43.3822 24.6213C43.4735 27.3011 44.6916 29.8896 44.0826 32.6303C44.6307 31.8081 45.118 30.9859 45.0571 29.981C44.9657 28.2756 45.3616 26.5398 44.8439 24.8345C44.7525 24.4995 44.8743 24.2254 45.1484 24.0731C45.5443 23.86 45.9402 23.9513 46.2752 24.195C48.1328 25.5653 49.8077 27.1184 51.3912 28.7933C53.1879 30.6814 55.0151 32.8435 58.0908 32.7826C59.918 32.7522 61.5015 31.9299 62.7805 30.8641C63.5723 30.1941 64.1509 28.8847 64.1509 27.7275C64.1509 26.8139 64.1509 25.7785 63.3591 24.9258C62.9023 24.4081 62.476 24.2559 61.8365 24.2254C59.5221 24.0731 57.2381 24.469 54.9237 24.2863C52.518 24.1036 50.569 22.7028 48.3155 22.0937C48.1328 22.0328 48.0414 21.6065 47.7978 21.2106C48.7418 21.2106 49.5336 21.1801 50.3254 21.2106C52.0003 21.241 53.127 20.1447 54.1624 19.1703C55.1064 18.3176 54.2842 17.3736 53.1879 16.5818C54.9846 16.1554 56.5377 15.4855 58.0908 16.734C58.5171 17.0995 59.0957 17.069 59.4612 16.6427C59.9484 16.0336 59.3394 15.8509 59.0044 15.4855C57.3599 13.8106 55.3196 12.8057 53.0661 12.3184C51.5435 12.0139 50.5385 10.5217 48.8636 10.674C48.3764 10.7044 47.8587 10.5826 47.3105 10.674C48.4678 11.6485 49.29 13.0493 51.2085 12.8361C51.7566 12.7752 52.7616 13.0797 52.8529 13.902C52.9443 14.8155 51.8175 14.8764 51.3912 15.455C51.3608 15.4855 51.2389 15.5159 51.178 15.4855C49.8381 14.3283 48.3155 14.1456 46.6101 14.3892C45.9097 14.4806 46.3665 13.8106 46.3665 13.4756C47.0974 13.3538 47.341 12.7448 47.6151 12.1662C47.6455 12.1357 47.4019 11.8921 47.341 11.8921C46.5797 12.0139 46.3361 12.5925 46.1838 13.232C45.5138 13.8106 45.0266 15.3637 43.8998 14.3283C42.8036 13.3234 44.2653 12.6534 44.7525 11.9225C45.057 11.4657 45.4225 11.0699 46.0315 10.3694C43.3517 10.3085 40.9459 10.004 38.5402 10.8871C40.0933 10.8871 41.6463 10.8871 43.1994 10.8871C43.5649 10.8871 44.1435 10.6435 44.2957 11.1003C44.4785 11.7398 43.6867 11.9225 43.4126 12.3793C43.169 12.7448 42.8645 12.7752 42.5295 12.4707C41.1896 11.1612 40.4891 11.618 39.271 12.9884C37.8702 14.6024 35.6472 15.1201 33.3937 14.3283C32.6933 14.0847 31.9624 13.5974 31.2924 14.6024C31.0184 14.9982 29.9221 15.2723 29.648 14.5415C29.3435 13.7192 29.5262 12.5925 30.4702 12.1966C32.9369 11.1003 35.434 10.1258 38.1443 9.51677C41.0982 8.87726 44.1435 9.33405 47.006 8.2073C47.4933 8.02459 48.1937 8.02459 48.6505 8.23776C50.4167 9.02952 52.4266 9.02952 54.071 10.1867C54.4669 10.4608 54.9846 10.7349 55.4719 10.7349C58.6085 10.8262 60.5879 12.9275 62.6587 14.7851C63.9073 15.9118 65.3385 16.795 66.5566 18.0435C68.4142 19.9925 69.2669 22.3069 70.0587 24.7127C70.6982 26.7225 70.5764 28.702 70.211 30.8032C69.9369 32.5085 69.8151 34.1225 68.8406 35.6452C66.9525 38.5991 64.1509 40.3044 60.9533 40.8221C58.2431 41.2789 55.411 40.6394 52.7007 39.4822C50.3558 38.4773 48.62 36.8937 46.8842 35.2188C46.1229 34.4575 45.1484 34.2748 44.2957 33.7571C43.7171 33.4221 43.3517 34.153 43.2299 34.7011C42.9558 35.8888 42.6513 37.046 42.0422 38.1118C41.6463 38.8122 41.4027 39.5126 40.3978 38.7818C39.8801 38.3859 39.5756 38.9036 39.3929 39.3299C39.271 39.604 39.2101 40.0303 39.6669 39.9999C41.9813 39.9085 41.0373 41.8271 40.7328 42.3143C39.4233 44.3546 40.276 46.3645 40.5501 48.3744C40.7023 49.5011 41.9509 49.6534 42.8036 49.5011C46.8842 48.8921 50.9953 49.3793 55.076 49.1357C55.685 49.1052 56.2636 49.2575 56.8422 49.4098C59.5525 50.1102 62.3846 49.7447 65.0949 50.6279C66.7393 51.176 68.5056 50.7497 70.211 50.567C71.2159 50.4756 72.1904 50.5365 73.104 50.9933C74.1089 51.4806 74.0175 52.0287 73.3476 52.8509C71.7945 54.8303 69.5714 55.683 67.4093 56.7184C64.4859 58.1497 61.4101 59.3069 58.913 61.5604C57.9081 62.4435 56.6595 62.3217 55.4414 61.4995C54.5278 60.8904 53.5838 60.4336 52.4875 61.5299C51.4217 62.5958 51.3303 63.5703 52.1221 64.7275C52.4875 65.2756 52.8225 65.9456 52.2134 66.311C51.4217 66.7373 50.6908 67.8032 49.564 67.0114C49.2595 66.7982 49.0159 66.5242 48.7114 66.3719C47.4628 65.702 46.2752 65.3365 44.7221 65.4279C41.3723 65.6715 37.9311 66.1283 34.5813 65.4888C33.2414 65.2147 31.9319 64.6666 30.592 64.2098C30.257 64.088 29.2217 63.8748 29.983 62.8699C30.257 62.5044 29.5262 62.5958 29.2521 62.5349C26.2068 61.7736 23.0398 61.9563 19.964 60.8904C15.7616 59.4287 12.8686 56.6575 10.4324 53.1554C9.39697 51.6633 8.27022 50.2015 7.41755 48.5571C7.17392 48.1308 6.80849 47.7044 6.77804 47.2172C6.71713 45.4205 6.53442 43.6238 6.07763 41.8575C5.98627 41.5225 5.92536 41.0657 6.3517 40.548C7.60026 42.3752 9.1229 43.9283 9.97557 45.9686C10.2801 46.6995 10.4019 47.5217 11.2241 47.9176C11.3155 48.0699 11.3764 48.2221 11.4678 48.3744C11.5287 48.3135 11.5896 48.283 11.6505 48.2221C11.4982 48.1308 11.3459 48.0089 11.2241 47.9176C11.4373 47.0954 10.4933 46.669 10.4933 45.6641C11.8027 46.395 13.0513 46.6995 13.5994 48.3135C13.904 49.2271 15.0307 49.897 15.7616 50.6888C15.8529 50.7801 15.9443 50.902 16.0357 50.9933C16.2184 51.2065 16.4315 51.4196 16.6143 51.6328C16.6752 51.6937 16.797 51.8155 16.797 51.7851C16.9492 51.6633 16.9188 51.5719 16.7665 51.4501C16.6752 51.1456 16.4924 50.9324 16.1575 50.8715C16.1575 50.841 16.0357 50.7192 15.9443 50.6279ZM18.5937 53.46C18.6546 53.5818 18.6241 53.8254 18.8373 53.5818C18.7459 53.5513 18.6546 53.5209 18.5937 53.46C18.5328 53.4295 18.5023 53.3686 18.4414 53.3077C18.4414 53.3382 18.4414 53.3991 18.4719 53.3991C18.5023 53.46 18.5328 53.46 18.5937 53.46ZM20.7254 54.9826C20.7254 55.1044 20.7558 55.2567 20.7558 55.3785C20.8167 55.348 20.8776 55.3176 20.9081 55.2871C20.8776 55.1958 20.7863 55.1044 20.7254 54.9826C20.5731 54.739 20.3599 54.6476 20.0859 54.7085C20.1468 54.2517 19.8118 54.1604 19.4768 54.0995C19.4159 54.0386 19.4159 53.7645 19.2332 54.0386C19.3245 54.069 19.3854 54.069 19.4768 54.0995C19.4464 54.5258 19.7204 54.6476 20.0859 54.7085C20.2381 54.9522 20.4513 55.0435 20.7254 54.9826ZM20.4208 51.6328C20.6949 51.9982 20.9385 52.3637 21.4562 52.0592C21.1822 51.7242 20.7863 51.6633 20.4208 51.6328C20.2381 51.0542 19.8118 50.8715 19.0505 50.7801C19.5073 51.3587 19.9336 51.5415 20.4208 51.6328ZM35.4949 13.7497C36.2258 13.5974 36.7739 13.2624 36.8348 12.4402C36.8348 12.3489 36.6826 12.1357 36.6217 12.1357C35.9517 12.2575 35.769 12.8666 35.434 13.3234C35.3731 13.4147 35.3426 13.5061 35.2817 13.567C35.0686 13.6888 34.9163 13.8715 35.1599 14.1151C35.2513 13.9933 35.3731 13.8715 35.4949 13.7497ZM59.0348 55.6221C60.0093 55.3785 60.0398 54.4649 59.7048 53.9777C59.0957 53.1554 58.4562 52.2723 56.9945 52.7291C55.6241 53.1554 55.1978 53.8863 55.4414 55.1349C55.5937 55.9875 56.0809 57.0534 56.9336 56.962C57.634 56.8707 58.9435 56.9316 59.0348 55.6221ZM62.1105 19.9925C61.7756 19.5357 61.5319 18.5917 60.8315 19.2007C60.2834 19.6575 59.8875 19.5357 59.3394 19.5052C58.5171 19.4748 57.6645 19.2312 56.8422 19.5357C56.8422 19.688 56.8422 19.8098 56.8422 19.962C58.578 19.9925 60.3443 19.9925 62.1105 19.9925C62.5369 21.1497 63.7245 21.6978 64.3336 22.7941C64.6077 23.2814 64.3336 24.0731 65.1558 24.2559C65.7649 24.4081 65.7344 24.8649 65.7649 25.4131C65.8258 26.7834 66.0085 28.1538 66.2217 29.5242C66.2826 29.8592 66.313 30.3464 66.8916 30.3464C67.5616 30.3464 67.6225 29.8287 67.6834 29.4024C67.8356 27.9102 67.3484 26.5094 66.9525 25.0781C66.4348 23.1291 64.8208 21.8806 63.9986 20.1143C63.755 19.5966 63.4809 19.018 62.8414 19.0789C62.0801 19.1703 63.2373 19.7184 62.7196 19.9316C62.5064 20.0534 62.2933 19.9925 62.1105 19.9925ZM26.9986 36.0715C26.9377 36.4978 26.8463 36.8024 26.8768 37.1069C27.3031 39.9694 28.5517 42.4361 30.5311 44.5678C31.5665 45.6945 32.9978 46.1818 34.2159 46.9431C35.4645 47.7349 36.9871 48.1308 38.3575 48.7398C38.6315 48.8616 38.8143 48.8616 38.997 48.6484C39.271 48.3439 38.9056 48.2221 38.7838 48.0699C37.8398 46.9736 36.5303 46.1818 35.2817 46.0295C33.82 45.8468 33.5155 45.2378 33.211 44.0501C32.7542 42.1925 32.2974 40.1826 30.6529 39.0559C29.3739 38.1423 28.4299 36.9242 26.9986 36.0715ZM29.2521 58.1497C30.0134 59.0633 30.7138 59.8855 31.3838 60.7077C30.7138 59.8246 31.6579 57.5406 29.2521 58.1497ZM57.3904 38.4164C58.8521 39.3299 59.9789 38.4468 61.1056 37.9596C59.918 38.0814 58.7303 38.2336 57.3904 38.4164ZM19.7813 16.46C18.9287 17.069 18.6241 18.0131 17.9846 19.1703C19.355 18.4699 19.2332 17.2517 19.7813 16.46ZM65.4299 34.5793C64.7295 34.8229 64.0595 35.097 63.6941 35.9497C64.7904 35.9497 65.1254 35.2797 65.4299 34.5793ZM18.7459 50.6583L18.8068 50.567H18.685L18.7459 50.6583Z" fill="#9EA5AC"/>
<path d="M55.5601 45.6642C54.1897 44.4156 51.9362 45.8164 50.5963 44.0502C50.3831 43.7761 49.8654 43.5629 49.5 43.8065C49.1041 44.0806 49.2868 44.5374 49.4391 44.9333C49.4695 45.0247 49.5304 45.116 49.5913 45.2074C49.835 45.7555 50.2918 46.4864 49.7436 46.8823C49.165 47.2782 48.556 46.6996 48.0687 46.2732C45.2671 43.837 44.2012 40.7613 44.8103 37.107C44.8712 36.6806 45.0539 36.102 45.3584 35.9498C45.9066 35.6452 46.3025 36.2543 46.5765 36.6197C48.0383 38.5991 50.1395 39.9086 51.8753 41.614C53.6415 43.3193 56.1082 43.8065 58.4531 44.4156C58.7881 44.507 59.2753 44.507 59.2753 44.9333C59.2753 45.451 58.7271 45.2683 58.4226 45.2683C57.4481 45.2074 56.565 45.3292 55.5601 45.6642Z" fill="#9EA5AC"/>
<path d="M25.6545 66.4025C23.1573 66.3416 20.6602 66.2502 18.1936 66.8593C17.2191 67.1029 17.0363 66.1284 16.3359 65.6411C17.0059 65.2453 17.5236 65.2148 18.1936 65.2453C20.9343 65.3366 23.7664 65.9457 26.2331 63.9358C27.3294 63.0222 28.1516 63.8444 28.7911 64.7885C28.9433 65.0321 28.7911 65.5193 29.187 65.5193C29.9483 65.5193 30.8619 64.5144 31.2273 66.2502C31.3796 67.0115 32.9936 66.1284 33.7549 67.042C34.0594 67.3769 34.9121 66.6765 35.6125 66.8288C36.0693 66.9202 36.6479 66.9811 36.7392 67.4074C36.8306 68.0165 36.1911 67.9556 35.7647 68.0469C33.7549 68.4428 31.9277 69.6 29.8265 69.6609C29.1565 69.6913 28.517 69.8436 27.8775 69.8132C27.2684 69.7827 26.1722 70.27 26.3853 68.8082C26.4158 68.656 25.8067 67.8337 24.9845 68.1383C23.7664 68.5341 22.4569 68.2601 21.2084 68.3514C20.9038 68.3819 20.6298 68.321 20.3557 68.1383C20.0512 67.9555 19.6248 67.8642 19.6553 67.4379C19.6857 66.9506 20.2339 66.9811 20.4775 66.9506C22.0915 66.7983 23.7359 67.0115 25.3499 66.5243C25.4108 66.5243 25.5326 66.4634 25.6545 66.4025Z" fill="#9EA5AC"/>
<path d="M55.8633 15.3639C54.8279 15.3943 54.0056 15.7293 53.153 16.0034C52.8789 16.0947 52.5135 16.0947 52.3612 15.7597C52.2089 15.3943 52.5135 15.303 52.7571 15.0898C53.8229 14.1458 54.7974 13.9326 55.8633 15.3639Z" fill="#9EA5AC"/>
<path d="M59.0651 55.5918C58.6083 55.5309 58.182 55.6831 57.7557 55.805C57.0857 56.0181 56.3548 55.9572 56.1721 55.1654C55.9894 54.4041 56.6898 54.0387 57.2989 53.8255C57.9079 53.5819 58.4256 53.8864 58.8824 54.3432C59.3392 54.8 59.4001 55.135 59.0651 55.5918C59.0347 55.6222 59.0651 55.5918 59.0651 55.5918Z" fill="#9EA5AC"/>
</svg>
