<svg width="80" height="80" viewBox="0 0 80 80" fill="none" xmlns="http://www.w3.org/2000/svg">
<g clip-path="url(#clip0_2491:55301)">
<path d="M39.7784 79.7635C39.6128 79.7635 39.4236 79.7161 39.2343 79.6215C32.7293 76.7356 26.792 73.2111 21.588 69.1662C19.3644 67.4157 17.3301 65.3105 15.3668 62.6848L15.3431 62.6611L15.3195 62.6375C15.0829 62.4719 14.941 62.259 14.8464 61.9988L14.8227 61.9515L14.5152 61.5967L14.4916 61.573C13.9712 60.9817 13.5454 60.4613 13.2852 59.8462V59.8226L13.2615 59.7989C10.3757 55.7067 8.36503 51.0467 7.32422 45.961V45.9373L7.30057 45.8427C7.11133 45.275 6.9221 44.7309 6.9694 44.1632V44.1159V44.0686C6.51997 42.3891 6.28342 40.615 6.28342 38.6517C6.28342 32.9273 6.28342 27.2028 6.28342 21.4784C6.28342 14.8078 6.28342 7.87699 6.25977 1.08811C6.25977 0.733289 6.30707 0.520397 6.40169 0.425779C6.47266 0.354815 6.68555 0.307506 7.04037 0.307506C29.7488 0.307506 51.9132 0.283851 72.9422 0.236542C73.3443 0.236542 73.5572 0.283851 73.6755 0.402124C73.7701 0.520397 73.8174 0.733289 73.8174 1.11176C73.7701 4.54169 73.7465 8.01892 73.7228 11.3779C73.7228 12.8445 73.6992 14.2874 73.6992 15.754C73.6992 15.8959 73.6755 16.0378 73.6518 16.1798C73.6282 16.2507 73.6282 16.3217 73.6045 16.4163V16.44L73.5809 17.6464V17.67C73.6755 18.427 73.6755 19.2076 73.5809 19.9645V19.9882V21.4311C73.5809 22.5429 73.5809 23.6783 73.6045 24.7901C73.6518 31.5789 73.6992 38.6044 72.3981 45.4406C72.2799 46.1029 72.0906 46.7889 71.9014 47.4512C71.8068 47.7587 71.7358 48.0662 71.6412 48.3974C71.2391 49.8403 70.6477 51.7327 69.7488 53.5304L69.6069 53.7906V53.8616C69.6069 54.0508 69.5596 54.0982 69.5123 54.1455L69.4413 54.1928L69.4177 54.2637C67.6909 58.1194 65.7039 61.2892 63.3384 63.9148L63.3148 63.9385L63.2911 63.9621C63.1728 64.1987 63.0546 64.4116 62.8417 64.5062L62.7944 64.5299L62.7707 64.5772C60.3579 67.534 57.2828 70.136 52.7884 72.9746C49.7843 74.8669 46.5673 76.4991 43.4685 78.084C42.4514 78.6044 41.4106 79.1484 40.3698 79.6688C40.1569 79.7161 39.9676 79.7635 39.7784 79.7635Z" fill="white"/>
<path d="M73.9361 15.754C73.9834 10.8811 73.9834 5.98462 74.0544 1.11177C74.0781 0.212892 73.8179 0 72.9426 0C50.9675 0.0473093 29.016 0.0709639 7.0408 0.0709639C6.21289 0.0709639 6 0.283856 6 1.11177C6.02365 13.6251 6 26.162 6.02365 38.6753C6.02365 40.5204 6.23655 42.3655 6.73329 44.1632C6.68598 44.8255 6.89888 45.4169 7.08811 46.0319C8.12892 51.0704 10.0923 55.7303 13.0727 59.9409C13.3566 60.6268 13.8297 61.1946 14.3028 61.7386V61.7623C14.3974 61.8805 14.492 61.9752 14.6103 62.0934C14.7049 62.4009 14.8941 62.6611 15.1543 62.8504C16.9758 65.2868 19.0337 67.4867 21.4228 69.3554C26.8634 73.6132 32.8007 77.0432 39.1165 79.8344C39.6132 80.0473 39.9917 80.0236 40.4412 79.7871C44.6044 77.6109 48.8859 75.6002 52.8835 73.0692C56.6209 70.7037 60.1218 68.0781 62.9367 64.6245C63.2206 64.5062 63.3625 64.246 63.5044 63.9858C66.1064 61.0999 68.0461 57.8119 69.6073 54.2637C69.7966 54.1455 69.8439 53.9799 69.8202 53.767C69.8675 53.696 69.8912 53.6251 69.9385 53.5778C70.7664 51.9219 71.3341 50.1715 71.8309 48.3974C72.0911 47.4039 72.3986 46.4341 72.5878 45.4406C74.1254 37.469 73.8179 29.4264 73.7942 21.3838C73.7942 21.2182 73.7942 21.0763 73.7942 20.9107C73.7942 20.6032 73.7942 20.272 73.7942 19.9645C73.8888 19.1839 73.8888 18.3797 73.7942 17.5991C73.8179 17.1969 73.8179 16.8184 73.8179 16.4163C73.8652 16.2034 73.9361 15.9905 73.9361 15.754ZM8.86221 1.7741C26.3903 1.75044 43.9184 1.75044 61.4228 1.72679C61.7776 1.72679 62.1325 1.67948 62.4873 1.67948C64.3087 1.67948 66.1064 1.67948 67.9278 1.67948H68.4009C68.6375 1.67948 68.874 1.67948 69.1106 1.67948C69.56 1.67948 70.0331 1.67948 70.4826 1.67948C70.9083 1.67948 71.3341 1.67948 71.7362 1.67948C71.7599 2.22354 71.2632 2.24719 70.9556 2.38912C64.8054 5.44057 59.7433 9.81668 55.1543 14.8551C52.3158 17.9775 49.7138 21.3128 47.5376 24.9556C47.372 25.003 47.3247 25.1449 47.301 25.2868C46.8516 25.8309 46.4258 26.3986 46.1656 27.0846L46.1183 27.1082V27.1792C45.8344 27.3921 45.6688 27.6759 45.5742 28.0071L45.5506 28.0544C44.9592 28.8587 44.4861 29.7339 44.084 30.6328C42.4755 33.1165 41.3164 35.8604 39.8971 38.5807C39.5896 37.8947 39.3294 37.327 39.0692 36.783C37.508 32.3832 35.3318 28.3146 32.8953 24.3406C27.2892 15.2099 20.0745 7.73507 10.2815 3.02779C9.52454 2.67297 8.69663 2.46008 7.84506 1.7741H8.86221ZM25.9172 42.602C26.6742 42.2708 27.3838 41.7977 28.0461 41.2773C28.4719 41.23 28.6848 40.8752 28.9923 40.615C29.3471 40.3312 29.702 40.1183 30.1041 40.5441C30.1041 41.4193 30.1041 42.2708 30.1041 43.1461C29.5364 43.7138 28.8504 43.3826 28.2117 43.4063C27.1709 43.4772 26.1064 43.4299 24.8054 43.4299C25.3258 43.0514 25.6097 42.8386 25.9172 42.602ZM24.0958 42.5547C23.6464 42.8386 23.4808 42.6493 23.4335 42.1999C23.4335 41.6558 23.4335 41.0881 23.4335 40.5441C23.2915 39.4796 23.7646 39.1484 24.8054 39.2194C26.2957 39.314 27.8096 39.243 29.631 39.243C28.8977 39.6925 28.4246 40 27.9515 40.2839C27.1709 40.7806 26.3903 41.2537 25.6097 41.7504C25.113 42.0106 24.5925 42.2708 24.0958 42.5547ZM27.9752 37.4926C27.8096 37.4926 27.6677 37.4926 27.5021 37.4926H24.427C24.1904 37.4926 23.9539 37.4689 23.7173 37.4689C23.4098 37.0905 23.5281 36.641 23.5281 36.2153C23.4808 31.508 23.5281 26.8007 23.9539 22.1171C24.0485 21.8096 24.1195 21.5021 24.2141 21.1946C24.285 21.029 24.3797 20.887 24.4506 20.7215C25.5387 19.8936 26.0118 19.9645 27.6913 21.1946C30.3643 23.8912 31.8782 27.3684 33.7705 30.5854C33.9598 30.9166 34.1727 31.2478 34.3856 31.5789C34.6931 32.4069 35.0006 33.2348 35.521 33.9681C35.6866 34.4885 35.8285 35.0325 36.207 35.4583C36.3489 35.8604 36.5381 36.2389 36.6564 36.6647C36.7274 36.9249 37.0349 37.1851 36.7274 37.5163C36.3726 37.8947 36.0887 37.4689 35.7812 37.4926C35.3081 37.398 34.835 37.398 34.3619 37.4926C33.4157 37.4926 32.4695 37.4926 31.5234 37.4926C30.3406 37.3743 29.1579 37.3743 27.9752 37.4926ZM31.1685 40.5914C31.3105 40.1656 31.5234 40.3075 31.7362 40.4967C32.0438 40.7806 32.4459 40.9225 32.848 41.0408C33.5813 41.6558 34.4092 42.1053 35.2608 42.531C35.5683 42.7676 35.8285 43.0514 36.2306 43.1461C36.2779 43.217 36.3253 43.3116 36.3962 43.3826C34.8823 43.4063 33.3448 43.4299 31.8309 43.4299C31.547 43.4299 31.2632 43.4772 31.1685 43.1224V40.5914ZM35.3554 41.5139C34.5748 41.0645 33.9125 40.3785 32.9426 40.2839C32.8007 39.7161 31.9728 40 31.8072 39.2194C33.5813 39.2194 35.3318 39.2194 37.0822 39.2194C37.508 39.2194 37.6263 39.4559 37.6499 39.8108C37.7209 40.5441 37.7918 41.301 37.8628 42.0343C37.9574 42.9568 37.3424 42.7676 36.9639 42.4837C36.4672 42.1053 35.9468 41.7741 35.3554 41.5139ZM15.6984 41.2537C15.8403 40.9935 15.6274 40.6387 15.9349 40.3785C16.408 40.5677 16.7865 41.0171 17.3069 41.0881C17.8273 41.6322 18.537 41.916 19.1993 42.2708C19.696 42.602 20.2164 42.9332 20.7132 43.2407C20.6895 43.3353 20.6895 43.4299 20.6659 43.5245H16.1242C16.0532 43.5245 15.9823 43.5009 15.9113 43.5009C15.8403 43.3826 15.7694 43.2643 15.6747 43.1697C15.8167 42.531 15.793 41.8924 15.6984 41.2537ZM19.4595 41.4666C18.6552 40.8989 17.8273 40.3312 16.8811 40.0237C16.9284 39.6925 16.5736 39.6215 16.1715 39.243C18.0875 39.243 19.7433 39.1721 21.3755 39.2667C22.3927 39.3377 21.6357 40.3075 21.9432 40.7806C21.8486 41.1118 21.8486 41.4193 21.9432 41.7504C21.8959 42.0106 21.8486 42.2708 21.8013 42.5547C20.9734 42.1762 20.2164 41.8214 19.4595 41.4666ZM7.37197 33.2821C7.37197 24.7428 7.44293 16.2034 7.49024 7.6641C7.49024 6.69426 7.2537 5.70077 7.49024 4.589C11.7954 6.1029 15.7457 8.04258 18.5843 11.78C19.081 12.6316 19.6014 13.4831 20.0982 14.3584C20.2164 14.5949 20.3111 14.8078 20.4293 15.0444C21.5648 17.5281 21.825 20.1538 21.8486 22.8504C21.8486 27.3211 21.825 31.8155 21.8723 36.2862C21.8723 37.1614 21.7303 37.5872 20.7368 37.4689C20.0035 37.398 19.2466 37.4926 18.5133 37.5163C18.2058 37.5163 17.8746 37.5163 17.5671 37.5163C17.165 37.5163 16.7865 37.5163 16.3844 37.5163H15.9113C14.0189 37.5163 12.1266 37.5163 10.2342 37.5163H8.34181C8.10526 37.5163 7.86872 37.4926 7.63217 37.4926C7.20639 36.097 7.37197 34.6777 7.37197 33.2821ZM14.5393 43.1461C14.4684 43.4299 14.2082 43.4299 13.9953 43.5245C12.6943 43.4299 11.3933 43.3353 10.0923 43.5718C9.97398 43.4063 9.85571 43.4536 9.71378 43.5482C9.66647 43.4536 9.64281 43.359 9.64281 43.3116C9.64281 42.9805 10.2342 43.0278 10.2578 42.7203C10.8965 42.531 11.3933 42.1289 11.9137 41.7268C12.0792 41.7504 12.1739 41.6795 12.1975 41.5375C12.9072 41.372 13.2856 40.686 13.9953 40.5204C14.3737 40.4258 14.4684 40.4731 14.5393 40.8043C14.5393 41.5849 14.5393 42.3655 14.5393 43.1461ZM7.67948 42.3655C7.65582 42.2235 7.63217 42.1053 7.63217 41.9633C7.63217 41.7977 7.63217 41.6558 7.60852 41.4902C7.89237 40.7806 7.56121 40.071 7.63217 39.3613H13.948C13.1674 39.8817 12.5287 40.3075 11.8664 40.7333C11.6771 40.7333 11.5115 40.8043 11.4169 41.0171C10.9675 41.1354 10.5653 41.372 10.2342 41.7031C9.76109 41.7977 9.38261 42.0816 9.05145 42.4128C8.57836 42.6257 8.10526 42.8386 7.67948 42.3655ZM18.7262 64.1987C18.466 64.1987 18.2294 64.1514 18.0166 63.9621C17.9219 63.7019 17.7564 63.5127 17.4962 63.3944C17.1886 63.016 16.8575 62.6138 16.5263 62.2354C16.408 62.0934 16.2661 61.9278 16.1478 61.7859C16.0769 61.715 16.0059 61.644 15.9349 61.573C13.9007 58.5925 11.89 55.6357 10.589 52.2531C9.73743 50.0532 9.02779 47.8297 8.57836 45.5352C8.64932 45.4642 8.74394 45.3696 8.8149 45.2986C13.0727 45.275 17.3069 45.2513 21.5648 45.2277C22.2034 45.2277 22.8421 45.2277 23.4808 45.2277C23.7883 45.275 24.0958 45.2986 24.4033 45.2986C24.7108 45.2986 25.0183 45.275 25.3495 45.2277C25.8226 45.2277 26.3193 45.2277 26.7924 45.2277C27.1709 45.275 27.5494 45.2986 27.9279 45.2986C28.33 45.2986 28.7321 45.275 29.1106 45.2277C30.3879 45.2277 31.6416 45.2277 32.919 45.2277C33.534 45.3223 34.1727 45.3223 34.7877 45.2277C35.2608 45.2277 35.7339 45.2277 36.2306 45.2277C36.3016 45.2277 36.3726 45.2277 36.4672 45.204C36.5618 45.2277 36.6801 45.2513 36.7747 45.275C36.7274 45.5115 36.7037 45.7481 36.6564 45.9846C34.835 49.1543 32.8717 52.2294 30.4826 54.997C27.2182 58.7818 23.5281 62.0225 18.9627 64.1987C18.8918 64.1987 18.8208 64.1987 18.7262 64.1987ZM72.2093 15.7303V16.2271C72.2093 18.8291 72.2093 21.4311 72.2093 24.0331C72.2093 24.5062 72.2093 24.9793 72.2093 25.4524C72.2093 26.162 72.2093 26.8717 72.2093 27.5813C72.1384 30.3962 72.0438 33.2348 71.9965 36.0497C71.9491 38.7226 71.618 41.372 71.1449 43.9976C71.0739 44.4234 71.0503 44.8492 71.0266 45.275C70.9793 45.3459 70.9556 45.4406 70.9083 45.5115C70.861 45.7481 70.8137 45.9846 70.7901 46.2448C70.6245 46.3867 70.5772 46.576 70.5772 46.7652C70.5772 46.8125 70.5772 46.8835 70.5772 46.9545C70.5535 47.0254 70.5535 47.12 70.5299 47.191C70.4826 47.262 70.4589 47.3329 70.4116 47.4039C70.3643 47.7114 70.317 47.9953 70.2697 48.3028C70.2224 48.3974 70.175 48.5157 70.1041 48.6103C70.0804 48.7522 70.0568 48.8941 70.0331 49.0361C69.9622 49.2017 69.9148 49.3909 69.8439 49.5565C69.8202 49.6274 69.7966 49.6984 69.7966 49.7694C69.5364 50.0532 69.3944 50.3607 69.3944 50.7392V50.7629L69.1342 51.4725C69.016 51.5671 68.945 51.6854 68.945 51.8273C68.945 51.8746 68.945 51.8983 68.945 51.9456C68.0934 53.7433 67.2892 55.5648 66.2484 57.2679C66.0355 57.599 65.9882 58.1431 65.4205 58.1194L65.3731 58.1668C65.4914 58.5925 65.2312 58.9001 65.042 59.2312C63.9775 60.958 62.7475 62.5665 61.3282 64.0095C61.2572 64.0804 61.1863 64.175 61.1153 64.246V64.2697V64.2933C61.0443 64.3879 60.9734 64.4589 60.9024 64.5535C60.1455 64.7901 60.0035 65.7362 59.3176 66.0438C58.8445 66.6115 58.5133 67.3211 57.6381 67.3921V67.4157C57.094 68.5275 56.0059 69.0952 55.0361 69.7102C53.0727 70.9166 51.275 72.4069 49.0988 73.2584C47.1591 74.3938 45.1957 75.5293 43.1614 76.4518C42.7593 76.641 42.4045 76.8303 42.0497 77.0668C40.8196 77.9184 39.6132 78.5098 38.0284 77.6818C32.0438 74.5358 26.0591 71.366 20.997 66.8007C20.9024 66.7297 20.8315 66.6115 20.7368 66.5405C20.1928 66.1384 20.2401 65.8782 20.8551 65.547C22.3454 64.7428 23.741 63.8202 25.0893 62.7794C30.4589 58.7108 34.4565 53.5068 37.5789 47.6168C39.8971 43.2407 41.9787 38.7463 44.2022 34.2992C45.1011 32.5251 46.0473 30.7747 46.9698 29.0242C47.0408 28.9296 47.0881 28.8587 47.1591 28.764L47.1827 28.7404C47.2064 28.6694 47.2537 28.5985 47.3247 28.5511C47.4193 28.4565 47.5375 28.3619 47.6322 28.2673C47.8214 27.6523 48.2235 27.1555 48.602 26.6351C48.7439 26.2566 48.9332 25.9255 49.2643 25.6653C49.359 25.5234 49.4536 25.3578 49.5482 25.2158V25.003C49.6192 24.9083 49.6665 24.8374 49.7374 24.7428L49.7611 24.6954C49.8557 24.5535 49.9503 24.4116 50.0213 24.2933C50.2105 24.1987 50.2815 24.0331 50.2815 23.8202H50.2578C50.3525 23.7256 50.4471 23.6546 50.5417 23.56C50.7546 23.2525 50.9675 22.945 51.1804 22.6375C51.275 22.5429 51.3459 22.4483 51.4406 22.3536C51.6062 22.1407 51.7717 21.9042 51.9373 21.6913C52.1029 21.573 52.2685 21.4311 52.3868 21.2655C52.505 21.0999 52.5996 20.9344 52.647 20.7215C52.8362 20.6505 52.9072 20.5086 52.9072 20.3193C52.9072 20.2957 52.9072 20.2957 52.9072 20.272C53.0964 20.272 53.2147 20.1538 53.2856 19.9882C53.5458 19.6807 53.7824 19.3731 54.0426 19.0656C54.2555 18.971 54.3974 18.8291 54.4447 18.5925C54.7049 18.285 54.9651 17.9775 55.2253 17.6464C55.5092 17.5044 55.6747 17.2679 55.7221 16.9604C55.864 16.9367 56.0059 16.9131 56.1478 16.9131C56.4553 16.0852 57.1886 15.5884 57.8037 15.0444C57.9692 14.7368 58.1821 14.4766 58.537 14.3584C59.2703 13.838 59.767 13.081 60.382 12.4423C60.4766 12.3714 60.5476 12.2768 60.6422 12.2058C60.7132 12.1348 60.8078 12.0639 60.8788 11.9929C60.9261 11.9692 60.997 11.9692 61.068 11.9692C61.1153 11.5198 61.3992 11.3069 61.8013 11.1886C62.1088 10.9048 62.4163 10.5973 62.7238 10.3134C62.8421 10.1005 63.0313 10.0769 63.2442 10.0769V10.1005C63.3152 10.0059 63.4098 9.91129 63.4808 9.81668C63.6227 9.67475 63.7883 9.53282 63.9302 9.39089C64.0248 9.31993 64.1195 9.27262 64.1904 9.20166C64.285 9.10704 64.3797 9.03607 64.4743 8.94145C65.3022 7.82969 66.6268 7.42756 67.6913 6.67061C68.8031 5.86635 70.0804 5.34595 71.3105 4.70727C71.9728 4.35245 72.2803 4.44707 72.2567 5.29864C72.2093 7.38025 72.2567 9.46186 72.2803 11.5435C72.2803 11.709 72.2803 11.851 72.2803 12.0166C72.162 13.1993 71.7836 14.4766 72.2093 15.7303Z" fill="black"/>
<path d="M16.123 43.5245C16.0521 43.5245 15.9811 43.5009 15.9102 43.5009C16.0048 43.4536 16.0757 43.4536 16.123 43.5245Z" fill="black"/>
<path d="M47.2533 28.5038C47.2059 28.5512 47.1586 28.6221 47.1113 28.6931C47.135 28.6221 47.1823 28.5512 47.2533 28.5038Z" fill="black"/>
<path d="M18.0172 63.9621C17.9226 63.7019 17.757 63.5127 17.4968 63.3944C17.1893 63.016 16.8581 62.6138 16.5506 62.2354C16.4087 62.0934 16.2904 61.9278 16.1485 61.7859C16.0775 61.715 16.0066 61.644 15.9356 61.573C13.9013 58.5925 11.8906 55.6357 10.566 52.2294C9.71442 50.0296 9.00478 47.806 8.55534 45.5115C8.53168 45.6061 8.50803 45.6771 8.48438 45.7717C8.50803 45.7008 8.53168 45.6061 8.55534 45.5115C8.6263 45.4406 8.69727 45.3459 8.79189 45.275C13.0497 45.2513 17.2839 45.2277 21.5417 45.204C22.1804 45.204 22.8191 45.204 23.4578 45.204C23.5287 45.1804 23.5287 45.1804 23.4578 45.204C24.0728 45.2986 24.7115 45.2986 25.3265 45.204C25.7996 45.204 26.2963 45.204 26.7694 45.204C27.55 45.3223 28.3306 45.2986 29.1112 45.204C30.3886 45.204 31.6423 45.204 32.9196 45.204C33.5346 45.2986 34.1733 45.2986 34.7883 45.204C35.2614 45.204 35.7345 45.204 36.2313 45.204C36.3022 45.204 36.3732 45.204 36.4678 45.1804C36.5624 45.204 36.6807 45.2277 36.7753 45.2513C36.728 45.4879 36.7044 45.7244 36.6571 45.961C34.8356 49.1307 32.8723 52.2058 30.4832 54.9734C27.2188 58.7581 23.5287 61.9988 18.9634 64.175C18.6322 64.246 18.3011 64.1987 18.0172 63.9621Z" fill="#039EF6"/>
<path d="M72.1844 25.4287C72.1844 26.1384 72.1844 26.848 72.1844 27.5577C72.1135 30.3726 72.0189 33.2111 71.9715 36.026C71.9242 38.699 71.5931 41.3483 71.12 43.974C71.049 44.3998 71.0254 44.8255 71.0017 45.2513C70.9544 45.3223 70.9307 45.4169 70.8834 45.4879C70.8361 45.7244 70.8125 45.9846 70.7652 46.2212C70.5523 46.4104 70.5523 46.6706 70.5759 46.9308C70.5523 47.0018 70.5523 47.0727 70.5286 47.1674C70.4813 47.2383 70.4576 47.3093 70.4103 47.4039C70.363 47.7114 70.3157 47.9953 70.2684 48.3028C70.2211 48.3974 70.1738 48.5157 70.1028 48.6103C70.0792 48.7522 70.0555 48.8941 70.0319 49.0361C69.9609 49.2017 69.9136 49.3672 69.8426 49.5565C69.819 49.6274 69.7953 49.6984 69.7953 49.7694C69.5351 50.0532 69.3932 50.3607 69.3932 50.7629C69.2986 50.9994 69.2039 51.236 69.133 51.4725C69.2986 51.6381 69.2986 51.6381 69.133 51.4725C68.9674 51.5908 68.9201 51.7564 68.9438 51.9456C68.0922 53.7433 67.2879 55.5648 66.2471 57.2679C66.0342 57.5991 65.9869 58.1431 65.4192 58.1195L65.3719 58.1668C65.4902 58.5925 65.23 58.9001 65.0407 59.2312C63.9763 60.958 62.7462 62.5665 61.327 64.0095C61.256 64.0804 61.185 64.175 61.1141 64.246L61.0904 64.2697C61.0668 64.2933 61.0668 64.2933 61.0904 64.2697C61.0194 64.3643 60.9485 64.4589 60.8775 64.5535C60.0969 64.7901 59.9786 65.7363 59.2927 66.0438C58.8196 66.6115 58.4884 67.3211 57.6132 67.3921V67.4157C57.0455 68.5275 55.981 69.0952 55.0112 69.6866C53.0478 70.893 51.2501 72.3832 49.0739 73.2348C47.1342 74.3938 45.1708 75.5056 43.1129 76.4281C42.7108 76.6174 42.3559 76.8066 42.0011 77.0432C40.7711 77.8947 39.5647 78.4861 37.9798 77.6582C31.9952 74.5121 26.0106 71.3424 20.9485 66.7771C20.8539 66.7061 20.7829 66.5878 20.6883 66.5169C20.1442 66.1147 20.1915 65.8545 20.8066 65.5234C22.2968 64.7191 23.6924 63.7729 25.0407 62.7558C30.4103 58.6872 34.408 53.4831 37.5304 47.5931C39.8485 43.217 41.9301 38.7226 44.1537 34.2756C45.0289 32.5015 45.9987 30.751 46.9213 29.0006C46.9922 28.906 47.0632 28.835 47.1105 28.7404L47.1342 28.7167C47.1578 28.6458 47.2051 28.5748 47.2761 28.5275C47.3707 28.4329 47.489 28.3383 47.5836 28.2436C47.7728 27.6286 48.175 27.1319 48.5534 26.6115C48.6954 26.233 48.8846 25.9018 49.2158 25.6416C49.3104 25.4997 49.405 25.3341 49.4996 25.1922C49.4996 25.1212 49.4996 25.0503 49.4996 24.9793C49.5706 24.8847 49.6179 24.8137 49.6889 24.7191L49.7125 24.6718C49.7362 24.5299 49.7598 24.4116 49.8545 24.317C49.7598 24.4116 49.7125 24.5299 49.7125 24.6718C49.8071 24.5299 49.9018 24.3879 49.9727 24.2697C50.162 24.175 50.2329 24.0095 50.2329 23.7966H50.2093C50.3039 23.7256 50.3985 23.631 50.4931 23.56C50.706 23.2525 50.9189 22.945 51.1318 22.6375C51.2264 22.5429 51.2974 22.4483 51.392 22.3773C51.5576 22.1644 51.7232 21.9279 51.8888 21.715C52.2199 21.4548 52.5274 21.1946 52.5984 20.7451C52.7876 20.6505 52.8822 20.5086 52.8586 20.2957C53.0478 20.2957 53.1661 20.1774 53.2371 20.0118C53.4973 19.7043 53.7338 19.3968 53.994 19.0893C53.994 19.0183 53.994 19.0183 53.994 19.0893C54.2069 18.9947 54.3488 18.8527 54.3961 18.6162C54.6563 18.3087 54.9165 18.0012 55.1767 17.67C55.1767 17.5754 55.1767 17.5754 55.1767 17.67C55.4606 17.5281 55.6262 17.2915 55.6735 16.984C55.8154 16.9604 55.9574 16.9604 56.0993 16.9367C56.4068 16.1088 57.1401 15.6121 57.7551 15.068C57.9207 14.7605 58.1336 14.5003 58.4884 14.382C59.2217 13.8616 59.7184 13.1047 60.3335 12.466C60.4281 12.395 60.499 12.3004 60.5937 12.2295C60.6646 12.1585 60.7592 12.0875 60.8302 12.0166C60.8775 11.9929 60.9485 11.9929 61.0194 11.9929C61.0668 11.5435 61.3506 11.3306 61.7527 11.2123C62.0602 10.9284 62.3678 10.6209 62.6753 10.3371C62.7935 10.1242 62.9828 10.1005 63.1957 10.1005V10.1242C63.2666 10.0296 63.3613 9.93495 63.4322 9.84033C63.5741 9.6984 63.7397 9.55648 63.8817 9.41455C63.9763 9.34358 64.0472 9.29627 64.1419 9.22531C64.2365 9.13069 64.3311 9.05973 64.4257 8.96511C65.2536 7.85334 66.5783 7.45121 67.6427 6.69426C68.7545 5.89001 70.0319 5.3696 71.2619 4.73093C71.9242 4.37611 72.2317 4.47073 72.2081 5.32229C72.1608 7.4039 72.2081 9.48551 72.2317 11.5671C72.4683 11.3542 72.4683 11.3542 72.2317 11.5671C72.2317 11.7327 72.2317 11.8746 72.2317 12.0402C72.4446 12.8208 72.4446 12.8208 72.2317 12.0402C72.1844 13.2939 71.806 14.5476 72.2317 15.8013C72.2317 15.9669 72.2317 16.1325 72.2317 16.298C72.4919 16.984 72.4919 16.984 72.2317 16.298C72.2317 18.9001 72.2317 21.5021 72.2317 24.1041C72.2081 24.4826 72.1844 24.9556 72.1844 25.4287Z" fill="#00984D"/>
</g>
<defs>
<clipPath id="clip0_2491:55301">
<rect width="80" height="80" fill="white"/>
</clipPath>
</defs>
</svg>
