<svg width="80" height="80" viewBox="0 0 80 80" fill="none" xmlns="http://www.w3.org/2000/svg">
<g clip-path="url(#clip0_2491:55334)">
<path d="M39.7015 0.0252446C28.9725 0.0252446 18.2436 0.0504891 7.53992 0C6.32818 0 6 0.328179 6 1.53992C6.05049 13.9097 6.02524 26.2543 6.02524 38.6242C6.02524 41.3506 6.40391 44.0265 6.95929 46.7024C8.24677 52.7359 11.0994 57.9867 14.9366 62.7075C21.3992 70.6343 29.7046 76.0366 39.1209 79.8738C39.4743 80.0252 39.8782 80.0505 40.2316 79.899C42.6551 78.7883 45.1543 77.8037 47.4768 76.491C56.2619 71.6188 63.7091 65.2572 68.7075 56.3711C71.4339 51.5241 73.1505 46.2985 73.201 40.7447C73.3525 27.6175 73.2263 14.5156 73.2768 1.38845C73.2768 0.252446 72.9233 0 71.8378 0C61.1341 0.0504891 50.4052 0.0252446 39.7015 0.0252446Z" fill="#FCFCFC"/>
<path d="M39.7015 0.0252446C50.4304 0.0252446 61.1341 0.0504891 71.8631 0C72.9486 0 73.302 0.252446 73.302 1.38845C73.2515 14.5156 73.3777 27.6176 73.2263 40.7447C73.1758 46.2985 71.4591 51.5242 68.7327 56.3711C63.7343 65.2572 56.2872 71.5936 47.5021 76.491C45.1796 77.7785 42.6803 78.763 40.2569 79.899C39.9034 80.0758 39.4995 80.0253 39.1461 79.8738C29.7551 76.0366 21.4244 70.6343 14.9618 62.7075C11.0994 57.9868 8.27201 52.7359 6.98454 46.7024C6.40391 44.0265 6.05049 41.3506 6.05049 38.6242C6.02524 26.2543 6.05049 13.9098 6 1.53992C6 0.328179 6.32818 0 7.53992 0C18.2436 0.0504891 28.9725 0.0252446 39.7015 0.0252446ZM11.0742 13.3039C10.7207 12.9757 10.4683 12.6223 10.746 12.0921C10.8722 11.8397 11.0994 11.663 11.3518 11.764C12.4374 12.1931 13.6239 11.9912 14.7599 12.4708C16.3755 13.1272 18.2689 12.8242 19.9602 12.5465C20.6671 12.4456 21.2477 12.3446 21.9041 12.5718C23.5702 13.1777 25.4383 12.6728 27.1045 13.4806C27.3064 13.5816 27.7103 13.4554 27.9375 13.3039C28.7958 12.7233 29.4522 13.1524 30.0581 13.733C30.9921 14.6166 32.0271 15.6769 33.0874 16.0555C34.9808 16.7371 35.6624 17.9741 36.0915 19.6403C36.3944 20.7763 36.7479 22.0133 37.3033 22.8968C38.0353 24.0076 38.2121 24.9669 38.0101 26.1534C37.9849 26.2796 38.0101 26.4058 38.0606 26.532C38.7927 28.4506 37.9091 29.9148 36.5964 31.2023C35.9653 31.8081 35.6624 32.6665 34.905 33.1714C34.5264 33.4238 34.9555 33.7015 35.1827 33.9539C36.1925 35.1152 37.7577 35.7211 38.4645 37.1852C38.616 37.4882 38.8432 37.9678 39.2723 37.8164C39.7267 37.6649 39.4995 37.16 39.4995 36.8066C39.5248 25.497 39.5248 14.1874 39.55 2.87788C39.55 1.8681 39.2723 1.48943 38.1868 1.48943C28.8968 1.51467 19.6068 1.48943 10.3168 1.48943C7.59041 1.48943 7.59041 1.48943 7.59041 4.1906C7.59041 16.1313 7.59041 28.072 7.59041 40.0126C7.59041 43.3954 8.0953 46.7024 9.2313 49.8833C11.6295 56.5226 15.6939 62.1269 20.7933 66.8728C25.8422 71.5683 31.6232 75.3045 38.1111 77.8037C39.4743 78.3339 39.4743 78.3591 39.4743 76.8697C39.4743 65.1815 39.4743 53.4932 39.4995 41.805C39.4995 40.77 39.6005 39.7854 38.2121 39.4825C37.8334 39.4068 37.4547 38.9271 37.2275 38.5484C36.3944 37.2105 35.208 36.2259 34.0467 35.1909C33.1379 34.3831 32.6583 34.4336 32.2039 35.4939C32.0776 35.7715 31.9514 36.0492 31.7494 36.2512C30.4367 37.6144 29.1745 38.9271 27.0792 39.331C25.5898 39.634 24.4033 38.7252 23.0148 38.8766C22.0555 38.9776 21.071 38.8261 20.5914 37.7154C20.4651 37.4377 20.1874 37.3115 19.8593 37.261C18.9252 37.1348 18.0164 37.059 17.9154 35.7968C17.8902 35.4434 17.3601 35.3424 17.0066 35.2162C16.0726 34.888 15.0628 34.3326 14.9113 33.449C14.7346 32.5907 14.3055 32.2373 13.7501 31.8334C13.1442 31.4295 12.6393 30.7226 12.9423 30.1925C13.4976 29.208 13.018 28.7031 12.4121 28.1477C11.68 27.4913 11.4528 26.7845 12.0082 25.9262C12.3364 25.4213 12.2102 24.9921 11.9072 24.5377C11.6043 24.1338 11.579 23.5784 11.3771 23.1745C10.9227 22.2405 11.7558 21.4579 11.5033 20.6248C10.8974 18.5548 11.4276 16.4342 11.1246 14.3389C11.1246 14.3137 11.3266 14.2379 11.4276 14.1874C12.5131 14.8438 12.0839 16.0303 12.2607 16.9643C12.5383 18.378 11.3771 19.9432 12.6646 21.3317C12.7403 21.4074 12.6646 21.7103 12.5636 21.7861C11.3014 22.8211 12.2354 23.8056 12.7151 24.6639C13.119 25.3708 13.4471 25.9009 12.6646 26.5068C12.3869 26.734 12.3364 27.1127 12.5888 27.2641C13.8006 27.87 13.8511 29.2332 14.5831 30.2177C13.5481 30.2177 13.6491 30.6721 14.1792 31.2275C14.4822 31.5305 14.8608 31.6567 15.2648 31.8082C15.8454 32.0354 16.628 32.2626 15.8959 33.1714C15.5929 33.55 16.0473 33.5753 16.1736 33.7772C16.9309 35.0395 18.9757 34.7365 19.4049 36.4027C19.4301 36.4784 19.7078 36.5541 19.8593 36.5289C20.5661 36.3774 21.0205 36.7813 21.2982 37.2862C21.8031 38.1193 22.5604 38.1445 23.3683 38.195C23.6964 38.2203 24.0246 38.2708 24.3528 38.397C25.6655 38.8766 27.1802 38.8514 28.19 38.2203C29.8814 37.1095 31.598 35.7968 32.2039 33.6762C31.9262 33.55 31.7494 33.8025 31.5222 33.853C31.1436 33.9035 30.6892 34.3579 30.4115 33.853C30.1338 33.3986 30.7902 33.449 30.9164 33.1714C31.0678 32.8179 31.295 32.5655 30.9921 32.1363C30.7144 31.7577 30.462 31.7324 30.0328 31.8334C28.9978 32.0606 27.9375 32.2626 26.8772 32.414C26.5996 32.4645 26.1704 32.6917 26.0694 32.2626C25.9684 31.7829 26.4228 31.8839 26.751 31.7829C27.3821 31.6062 27.988 31.3537 28.6191 31.1518C29.5027 30.8489 29.326 30.3187 28.8463 29.8391C28.0133 28.9808 26.9782 28.5768 25.7917 28.8293C23.3935 29.3594 20.9448 29.3089 18.5213 29.5614C17.6882 29.6371 16.9056 29.4604 16.1988 28.804C16.426 28.7536 16.5775 28.6778 16.7037 28.6778C19.3291 28.9808 21.9546 28.5516 24.5548 28.4506C25.0849 28.4254 25.615 28.5011 26.1199 28.1982C26.4986 27.971 26.6753 27.6933 26.3471 27.4408C25.2616 26.532 24.2771 25.6485 22.5352 25.9514C19.6321 26.4563 16.6784 26.6583 13.7248 25.7242C16.9561 26.0271 20.1117 25.5727 23.2925 24.9669C22.9391 24.159 22.207 24.0328 21.8283 23.5027C21.0962 22.4929 20.1622 22.291 18.9 22.3414C17.4358 22.4172 15.8454 22.2152 14.3307 21.6598C14.0783 21.5589 13.6491 21.5084 13.8006 21.1045C13.9268 20.751 14.1792 21.054 14.4064 21.0792C15.8706 21.2812 17.2843 21.887 18.799 21.7103C19.2029 21.6598 19.7583 21.6093 19.3039 21.1297C18.7485 20.5238 18.3193 19.5645 17.2843 19.6908C16.325 19.817 15.5677 19.0849 14.6336 19.1859C14.3307 19.2111 13.6491 18.378 13.4471 17.8227C14.4822 18.2266 15.3657 19.0092 16.7542 18.8324C15.4667 17.3683 14.053 16.207 12.9423 14.4904C14.4064 14.869 14.7599 16.409 16.0221 16.8129C15.9211 16.308 15.9464 15.8536 15.7444 15.5254C15.5424 15.172 15.7192 15.071 15.9211 14.97C16.1988 14.8438 16.2745 15.071 16.2998 15.2982C16.325 15.8788 16.7794 16.3332 16.6784 16.9896C16.5775 17.7217 17.0571 18.1508 17.7387 18.479C17.6882 17.8227 17.6125 17.2673 17.5873 16.7119C17.5873 16.5099 17.5368 16.2575 17.8145 16.207C18.0921 16.1565 18.1426 16.3837 18.1679 16.6109C18.2436 17.2673 18.5213 17.8732 18.4708 18.5548C18.4203 19.5645 19.2534 20.4986 20.3137 20.751C20.4904 20.3219 19.733 19.6908 20.4904 19.4636C21.0458 19.2868 21.1972 19.9685 21.172 20.2966C20.9195 22.3414 22.5352 22.8716 23.7217 23.7551C24.5043 21.988 23.4692 20.2209 23.9994 18.5043C24.378 19.7917 24.8324 21.0792 24.8072 22.3667C24.782 24.2348 25.4383 25.6232 26.852 26.734C27.1802 26.9864 27.4579 27.0369 27.7356 26.5573C27.9628 26.1281 27.4831 25.1941 28.3162 25.3455C28.8716 25.4465 28.4677 26.3048 28.5434 26.8097C28.5434 26.8855 28.5181 26.9864 28.5434 27.0622C28.7453 27.971 29.0988 29.107 30.0076 29.1575C30.9669 29.208 30.5377 27.9962 30.7144 27.3399C30.8154 26.936 30.6134 26.2039 31.2698 26.3048C31.7999 26.3806 31.8757 27.1632 31.699 27.5418C31.2698 28.4254 31.5222 29.2332 31.6485 30.0915C31.7242 30.5964 31.6737 31.2275 32.2796 31.2528C32.6835 31.2528 32.9359 30.6721 33.0369 30.2177C33.7438 27.0622 34.0467 23.8814 33.5418 20.6753C33.4913 20.3471 33.3146 19.8927 33.8952 19.7665C34.4001 21.5589 34.7031 23.3512 34.5264 25.2193C34.3496 27.2641 34.0719 29.3089 33.5166 31.3033C33.4408 31.5809 33.2894 32.0101 33.7438 32.1616C34.1224 32.2878 34.2487 31.9344 34.3749 31.6819C34.6526 31.0761 35.0312 30.4954 34.9555 29.7886C34.9303 29.4099 35.1322 29.208 35.4604 29.208C35.9653 29.208 35.7128 29.6119 35.7381 29.8643C35.8391 30.4449 35.1827 30.7984 35.3847 31.5557C36.5207 30.2682 37.8334 29.2584 37.48 27.2894C37.3537 26.633 37.3537 25.9009 37.5557 25.1941C37.6567 24.8154 37.6567 24.2095 37.1265 24.159C36.0663 24.0581 36.2177 23.3765 36.2682 22.7201C36.2935 22.291 36.2682 21.9375 35.8896 21.6093C35.5109 21.2812 35.3342 20.852 35.3594 20.2714C35.3847 19.4383 34.9555 18.6557 34.6021 17.9489C34.3244 17.3683 33.668 17.5702 33.1379 17.6712C33.0369 17.6964 32.8097 17.5197 32.734 17.3935C32.0019 15.9798 30.5882 15.2982 29.4774 14.3137C29.1997 14.0612 28.8968 13.834 28.7706 14.2884C28.4677 15.2225 27.8618 14.7681 27.3569 14.6923C26.2461 14.4904 25.2868 13.2786 23.9741 14.2127C23.8479 14.2884 23.5702 14.2127 23.3683 14.137C22.409 13.7583 21.4497 13.1019 20.4146 13.9855C20.3137 14.0865 19.9602 14.036 19.8088 13.935C18.9757 13.3039 18.0669 13.6068 17.1581 13.5563C16.527 13.5058 15.9211 14.0612 15.4667 13.834C14.9618 13.5816 14.4317 13.3796 13.9268 13.1019C12.9675 12.4203 11.5538 12.6475 11.0742 13.3039ZM67.0413 43.9255C67.0413 43.0925 67.1928 42.2089 66.9909 41.4263C66.6627 40.2398 67.1171 39.4068 67.7987 38.5737C68.2531 38.0183 68.3288 37.362 68.3288 36.6804C68.3288 36.2259 68.1773 35.9483 67.6472 36.125C66.0063 36.6551 64.3402 36.6046 62.6993 36.3017C61.6138 36.0997 60.3515 36.5289 59.569 36.1755C58.1805 35.5443 57.1707 35.8725 56.06 36.4784C55.5551 36.7561 55.2016 36.6804 54.8735 36.2764C54.3433 35.6201 53.9142 35.822 53.2831 36.2764C52.45 36.9076 51.5917 37.8416 50.3547 36.958C50.0013 36.7056 49.6731 37.0338 49.5216 37.3115C49.0672 38.2455 48.6633 39.2048 47.3001 38.6494C47.1991 38.5989 46.9972 38.9019 46.8204 39.0028C45.7097 39.7602 44.9524 40.9719 44.1193 41.9312C43.0338 43.1682 41.4434 44.5819 41.7463 46.7024C41.7715 46.9549 41.5191 47.2326 41.4686 47.5103C41.3171 48.4191 40.989 49.5551 41.4434 50.2367C42.5036 51.8271 43.4124 53.6699 45.634 54.4273C44.8261 51.1202 43.3619 47.9899 43.9173 44.2032C44.5989 45.0363 44.5989 45.6422 44.5484 46.2733C44.296 48.5705 45.3563 50.5901 45.9116 52.7107C46.0379 53.1651 46.366 53.6699 47.0224 53.5437C47.6788 53.3923 47.6535 52.8369 47.603 52.332C47.5778 51.8271 47.5525 51.3222 47.5021 50.8425C47.2748 48.722 46.8204 46.6267 46.8962 44.4809C46.9467 43.2439 47.1234 42.0322 47.2244 40.7952C47.7545 41.2749 47.6283 41.7293 47.603 42.1837C47.4768 44.9353 47.5525 47.687 48.1837 50.3881C48.3099 50.9435 48.3099 51.8271 49.0167 51.9281C49.875 52.029 50.3042 51.2465 50.6576 50.5901C50.8091 50.2872 50.9858 49.9338 50.9606 49.6308C50.8091 48.4191 50.9606 47.2326 50.9101 46.0461C50.8343 44.4557 51.0615 42.8905 51.0363 41.3001C51.0363 40.9972 51.011 40.3913 51.5412 40.467C52.0208 40.5428 51.8189 41.0982 51.7684 41.4263C51.5412 43.3449 51.6926 45.2887 51.6674 47.2073C51.6674 47.788 51.6169 48.3938 51.6926 48.9745C51.7684 49.4036 51.7936 49.8328 52.5257 49.3026C53.8384 48.3433 54.1414 47.1064 54.2171 45.6422C54.3433 43.0925 53.586 40.4923 54.7725 38.0183C54.8987 37.7406 54.8482 37.2357 55.3026 37.3367C55.8075 37.4629 55.4793 37.8668 55.3784 38.1698C54.621 40.6942 55.2521 43.2439 55.1259 45.7936C55.1259 46.0713 55.2774 46.2733 55.6056 46.2228C56.3881 46.0966 58.0795 44.178 58.0543 43.3449C58.029 41.8555 58.4834 40.467 58.9126 39.0786C59.0388 38.6747 59.0893 37.9173 59.9729 37.7911C59.5942 39.2553 59.2408 40.6185 58.8873 41.9565C58.8116 42.2846 58.6601 42.6381 58.9883 42.8905C59.3922 43.1682 59.7204 42.9158 59.9729 42.6128C60.4778 42.007 60.9826 41.4263 61.0836 40.568C61.2351 39.432 61.8157 38.4475 62.8507 37.6649C62.8255 38.3717 62.5478 38.8261 62.3206 39.3058C62.1944 39.5582 62.0682 39.9117 62.3711 40.0884C62.6235 40.2398 62.8255 39.9874 63.0275 39.8359C63.2547 39.6592 63.4566 39.4068 63.6838 39.2553C64.6431 38.6999 65.3247 37.6396 66.6122 37.6144C66.3345 38.3212 65.7034 38.4475 65.2742 38.8009C64.8956 39.1291 64.1635 39.432 64.3907 40.0126C64.5926 40.5175 65.2237 39.9874 65.6529 40.0631C65.7539 40.0884 65.8296 40.1893 65.9811 40.3156C65.249 40.7195 64.5674 40.9719 63.81 40.9214C63.2799 40.8709 62.8255 40.9972 62.4216 41.3758C61.8662 41.9565 63.1284 41.906 62.7245 42.4614C61.841 42.3099 61.0079 42.4614 60.2758 43.042C60.0738 43.2187 59.8971 43.3954 59.9476 43.6731C59.9981 44.0013 60.3263 43.9255 60.5535 44.0265C61.1846 44.279 61.9419 43.7741 62.674 44.4304C61.5633 44.9101 60.5535 45.1373 59.4427 45.112C59.0388 45.0868 58.5844 44.9606 58.231 45.2887C57.5494 45.8694 56.3629 46.3743 56.5901 47.2831C56.7668 48.0152 57.9785 47.8889 58.7611 47.7122C60.4778 47.3336 62.2954 47.9647 63.9615 47.1316C64.214 47.0054 64.7188 46.8792 64.7946 47.3083C64.8703 47.7375 64.4159 47.9394 64.012 47.9647C61.8915 48.0152 59.7962 48.5453 57.6756 48.4948C56.2367 48.4696 54.6968 48.1666 53.687 49.6813C53.5103 49.959 52.9296 50.06 53.1063 50.5396C53.2578 51.0193 53.7627 51.0698 54.1666 51.0698C55.959 51.0698 57.7766 51.2212 59.569 50.9688C60.7302 50.7921 61.8915 50.7416 63.0527 50.6406C61.4875 51.7009 59.7204 51.7766 58.0038 51.9028C56.2619 52.029 54.4948 51.8523 52.7529 51.7261C51.9198 51.6756 51.2887 52.0038 50.6829 52.4582C50.2285 52.8116 50.2537 53.3165 50.7586 53.4175C51.9199 53.6447 53.0054 54.3768 54.1414 54.3263C55.8832 54.2506 57.6251 54.5535 59.3418 54.1496C59.8214 54.0486 60.6545 53.7709 61.0584 54.5787C58.9883 55.1846 56.9183 54.8817 54.8735 55.0584C52.9044 55.2099 51.1373 54.0991 49.1934 54.4778C48.8653 54.5535 48.4613 54.4273 48.3351 54.8312C48.2089 55.2856 48.5371 55.5633 48.9157 55.6895C50.5566 56.2449 52.1471 57.0527 53.9647 57.078C55.6813 57.078 57.3727 57.5829 59.3418 57.2042C58.8116 58.0373 58.2815 58.0373 57.7513 58.0877C54.4948 58.3907 51.4907 57.1789 48.3856 56.5478C47.9817 56.4721 47.5273 55.7905 47.1991 56.3206C46.8457 56.9517 47.7293 57.0022 48.0322 57.3556C48.1332 57.4819 48.3099 57.5576 48.4613 57.6081C48.9157 57.7343 49.7236 57.5576 49.5974 58.2645C49.4711 58.9713 48.739 58.3654 48.3099 58.4917C48.2594 58.5169 48.2089 58.6179 48.1332 58.7441C49.0167 59.7539 49.9255 60.6879 51.4907 60.3345C51.7431 60.284 52.0713 60.385 52.349 60.4607C53.3335 60.7637 54.2928 61.2181 54.924 59.8801C54.9744 59.7539 55.3026 59.7286 55.5046 59.7286C57.196 59.7791 58.7359 58.9965 60.3768 58.7946C60.8312 58.7441 61.3613 58.5926 61.3361 57.9868C61.2856 56.9517 62.0429 56.6488 62.7245 56.2449C63.0275 56.0682 63.5071 56.0682 63.5576 55.5885C63.6586 54.9322 64.0877 54.5787 64.6431 54.3263C65.2237 54.0739 65.5267 53.7204 64.9965 53.0641C64.6684 52.6602 64.8451 52.231 65.0218 51.7766C65.2995 50.9183 66.183 50.2114 66.0063 49.3026C65.8044 48.2929 66.1325 47.586 66.6374 46.8539C66.9656 46.3743 67.1928 45.9703 66.6879 45.415C66.082 44.7334 66.2335 44.2032 67.0413 43.9255C68.0006 45.2635 67.622 46.5257 66.8141 47.7627C66.7636 47.8384 66.7384 47.9394 66.7636 47.9899C67.319 49.3026 66.385 50.2367 65.9306 51.297C65.8044 51.6251 65.3247 52.1048 65.8044 52.3825C66.8646 53.0136 66.1325 53.7204 65.7539 54.0486C64.2644 55.4118 62.8003 56.7498 61.9924 58.6431C61.8915 58.8956 61.6895 59.0218 61.437 59.0975C59.9476 59.5014 58.4834 59.9558 56.994 60.3345C56.2367 60.5112 55.1764 59.8549 54.8987 61.2181C54.8735 61.2938 54.6968 61.3695 54.5705 61.3695C53.3083 61.3443 52.0208 61.2686 50.7586 61.1423C48.6633 60.9404 47.3506 59.249 46.2146 57.6586C45.6592 56.8508 45.3563 56.977 44.8261 57.5071C43.7406 58.5674 42.7813 59.8549 41.3676 60.4607C40.3074 60.9151 39.9287 61.6725 39.9034 62.6823C39.8782 67.5292 39.9034 72.3509 39.8782 77.1979C39.8782 78.0057 40.0044 78.2329 40.888 77.8795C49.2692 74.3705 56.6406 69.3973 62.5731 62.455C68.4298 55.6138 71.7621 47.7375 71.8126 38.6494C71.8631 26.6583 71.8126 14.6923 71.8378 2.70117C71.8378 1.66614 71.4844 1.46418 70.5251 1.46418C60.6797 1.48943 50.8596 1.48943 41.0142 1.46418C40.0297 1.46418 39.853 1.74187 39.853 2.67592C39.8782 17.343 39.8782 32.0354 39.8782 46.7024C39.8782 50.5649 39.9034 54.4273 39.8782 58.3149C39.8782 59.2237 40.0297 59.2995 40.8122 58.8198C42.0745 58.0373 43.0085 56.9265 44.1193 56.0177C45.0281 55.2856 44.8009 55.0079 43.9931 54.5535C42.3269 53.6447 41.4686 52.029 40.686 50.4386C40.2064 49.4793 40.2569 48.1666 40.6355 47.1316C40.888 46.4248 41.0899 45.7431 41.2414 45.0111C41.4434 44.0518 41.3676 42.941 42.7561 42.739C42.9075 42.7138 43.1095 42.4361 43.1347 42.2846C43.2105 41.1991 43.5891 40.467 44.8009 40.3661C44.9524 40.3661 45.1796 40.1641 45.2553 40.0126C45.9116 38.8009 46.2651 37.2357 48.2341 37.6396C48.6128 37.7154 48.5876 37.2357 48.739 37.0085C49.2187 36.1755 50.2537 35.4686 50.8596 35.8725C52.0461 36.6551 52.5762 36.0492 53.2578 35.3929C53.8637 34.787 54.4948 34.6608 55.0754 35.3676C55.4036 35.7715 55.6813 35.822 56.1357 35.5696C57.196 34.989 58.3572 35.2919 59.4427 35.3929C59.8214 35.4181 60.3263 35.5696 60.5787 35.4434C61.7905 34.787 63.0275 36.0997 64.1887 35.2919C64.214 35.2667 64.3654 35.3424 64.4159 35.3929C64.946 35.9987 65.6024 35.7968 66.2588 35.6706C66.9404 35.5443 67.6472 35.5443 68.3541 35.3171C69.2376 35.0395 69.3891 35.4686 69.1871 36.4279C68.9094 37.7659 68.5308 39.0533 67.5967 40.0884C67.3443 40.3661 67.7482 40.5175 67.7482 40.7447C67.7229 41.8302 68.3036 43.0925 67.0413 43.9255Z" fill="#34353C"/>
<path d="M67.0416 43.9255C68.3038 43.0672 67.7232 41.8302 67.698 40.6942C67.698 40.4923 67.3193 40.3156 67.5465 40.0379C68.4806 39.0028 68.8592 37.7154 69.1369 36.3774C69.3389 35.4434 69.1622 34.9889 68.3038 35.2666C67.597 35.4938 66.9154 35.4938 66.2085 35.6201C65.5522 35.7463 64.9211 35.9482 64.3657 35.3424C64.3152 35.2919 64.189 35.2162 64.1385 35.2414C62.9772 36.0492 61.715 34.7365 60.5285 35.3929C60.2761 35.5443 59.7712 35.3929 59.3925 35.3424C58.307 35.2414 57.1457 34.9385 56.0855 35.5191C55.6311 35.7715 55.3534 35.721 55.0252 35.3171C54.4446 34.6103 53.8135 34.7365 53.2076 35.3424C52.526 36.024 51.9959 36.6298 50.8094 35.822C50.2035 35.4181 49.1685 36.125 48.6888 36.958C48.5626 37.1852 48.5626 37.6649 48.1839 37.5891C46.2149 37.1852 45.8614 38.7504 45.2051 39.9621C45.1293 40.1136 44.9021 40.3156 44.7507 40.3156C43.5389 40.3913 43.135 41.1486 43.0845 42.2341C43.0845 42.4109 42.8573 42.6633 42.7059 42.6885C41.3174 42.8905 41.3931 43.976 41.1912 44.9606C41.0397 45.6926 40.8378 46.3742 40.5853 47.0811C40.2066 48.1161 40.1562 49.4288 40.6358 50.3881C41.4184 51.9533 42.2767 53.5942 43.9428 54.503C44.7507 54.9321 44.9779 55.2098 44.0691 55.9672C42.9583 56.876 42.0243 57.9867 40.762 58.7693C39.9794 59.249 39.8027 59.1732 39.828 58.2644C39.8532 54.402 39.828 50.5396 39.828 46.6519C39.828 31.9848 39.828 17.2925 39.8027 2.62543C39.8027 1.69138 39.9794 1.41369 40.964 1.41369C50.8094 1.43893 60.6295 1.43893 70.4749 1.41369C71.4342 1.41369 71.7876 1.61565 71.7876 2.65067C71.7623 14.6418 71.8128 26.6078 71.7623 38.5989C71.7119 47.687 68.3796 55.5633 62.5228 62.4045C56.5904 69.3468 49.219 74.2947 40.8378 77.829C39.9794 78.1824 39.828 77.9552 39.828 77.1474C39.8532 72.3004 39.828 67.4787 39.8532 62.6317C39.8532 61.622 40.2571 60.8646 41.3174 60.4102C42.7311 59.7791 43.6904 58.5169 44.7759 57.4566C45.3313 56.9265 45.609 56.8002 46.1644 57.6081C47.3004 59.1985 48.6131 60.8899 50.7084 61.0918C51.9454 61.218 53.2328 61.2938 54.5203 61.319C54.6213 61.319 54.8232 61.2433 54.8485 61.1676C55.1009 59.8044 56.1865 60.4607 56.9438 60.284C58.4332 59.9053 59.8974 59.4509 61.3868 59.047C61.6393 58.9713 61.8412 58.8451 61.9422 58.5926C62.7753 56.6993 64.2142 55.3613 65.7037 53.9981C66.0823 53.6699 66.8397 52.9631 65.7541 52.332C65.2745 52.0543 65.7541 51.5494 65.8804 51.2464C66.3348 50.1862 67.2688 49.2521 66.7134 47.9394C66.6882 47.8889 66.7387 47.7627 66.7639 47.7122C67.6222 46.551 68.0009 45.2887 67.0416 43.9255Z" fill="#FCFCFC"/>
<path d="M11.5032 14.2379C11.4022 14.2884 11.175 14.3389 11.2003 14.3894C11.5032 16.4594 10.9731 18.6052 11.5789 20.6753C11.8314 21.5084 10.9731 22.2909 11.4527 23.225C11.6547 23.6289 11.6799 24.1843 11.9828 24.5882C12.311 25.0426 12.4372 25.4465 12.0838 25.9766C11.5284 26.835 11.7556 27.5418 12.4877 28.1982C13.0936 28.7283 13.5732 29.2332 13.0179 30.243C12.7149 30.7984 13.2451 31.48 13.8257 31.8839C14.4063 32.2878 14.8355 32.6412 14.9869 33.4995C15.1636 34.3831 16.1734 34.9385 17.0822 35.2666C17.4357 35.3929 17.9658 35.4938 17.991 35.8473C18.092 37.1095 19.0008 37.2105 19.9349 37.3115C20.2378 37.3619 20.5407 37.4882 20.667 37.7659C21.1466 38.8766 22.1311 39.0281 23.0904 38.9271C24.4789 38.7756 25.6401 39.6592 27.1548 39.3815C29.2501 38.9776 30.5123 37.6649 31.8251 36.3017C32.027 36.0997 32.1532 35.822 32.2795 35.5443C32.7591 34.4841 33.2135 34.4336 34.1223 35.2414C35.2836 36.2764 36.4448 37.261 37.3031 38.5989C37.5303 38.9776 37.909 39.432 38.2877 39.533C39.6761 39.8359 39.5751 40.8204 39.5751 41.8555C39.5499 53.5437 39.5499 65.2319 39.5499 76.9202C39.5499 78.4096 39.5499 78.3591 38.1867 77.8542C31.6736 75.355 25.9178 71.6188 20.8689 66.9233C15.7695 62.1773 11.7051 56.573 9.30691 49.9337C8.17091 46.7529 7.66602 43.4459 7.66602 40.0631C7.66602 28.1224 7.66602 16.1818 7.66602 4.24108C7.66602 1.53992 7.66602 1.53992 10.3924 1.53992C19.6824 1.53992 28.9724 1.56516 38.2624 1.53992C39.3479 1.53992 39.6256 1.89334 39.6256 2.92837C39.6004 14.2379 39.6004 25.5475 39.5751 36.857C39.5751 37.2105 39.8023 37.7154 39.3479 37.8668C38.9188 38.0183 38.6916 37.5387 38.5401 37.2357C37.808 35.7715 36.2681 35.1657 35.2583 34.0044C35.0311 33.752 34.602 33.4743 34.9806 33.2218C35.7632 32.7169 36.0661 31.8586 36.672 31.2528C37.9595 29.9653 38.843 28.5263 38.1362 26.5825C38.0857 26.4563 38.0605 26.3301 38.0857 26.2038C38.2877 25.0174 38.111 24.0833 37.3789 22.9473C36.8235 22.089 36.4448 20.8268 36.1671 19.6908C35.7127 18.0246 35.0564 16.7624 33.163 16.106C32.1027 15.7274 31.0677 14.6671 30.1337 13.7835C29.5278 13.2029 28.8714 12.7737 28.0131 13.3544C27.7859 13.5058 27.382 13.6321 27.1801 13.5311C25.5392 12.7233 23.6458 13.2281 21.9797 12.6223C21.3233 12.3698 20.7427 12.4708 20.0358 12.597C18.3445 12.8747 16.4511 13.1777 14.8355 12.5213C13.6995 12.0417 12.513 12.2436 11.4275 11.8145C11.175 11.7135 10.9731 11.9154 10.8216 12.1426C10.5439 12.6475 10.7711 13.0262 11.1498 13.3544C11.2507 13.6068 11.7809 13.7583 11.5032 14.2379Z" fill="#1F00FB"/>
<path d="M11.5034 14.2379C11.7558 13.733 11.2509 13.6068 11.0742 13.3039C11.5539 12.6475 12.9676 12.4203 13.9269 12.9757C14.4317 13.2534 14.9619 13.4553 15.4668 13.7078C15.9212 13.935 16.527 13.3796 17.1582 13.4301C18.067 13.4806 18.9758 13.2029 19.8088 13.8088C19.9603 13.9098 20.2885 13.9602 20.4147 13.8593C21.4497 12.9757 22.409 13.6321 23.3683 14.0107C23.5703 14.0865 23.848 14.1874 23.9742 14.0865C25.2617 13.1777 26.2462 14.3894 27.357 14.5661C27.8618 14.6671 28.4677 15.0962 28.7707 14.1622C28.9221 13.7078 29.1998 13.935 29.4775 14.1874C30.5883 15.172 32.0272 15.8536 32.7341 17.2673C32.8098 17.3935 33.0117 17.5702 33.138 17.545C33.6933 17.4187 34.3245 17.242 34.6021 17.8227C34.9556 18.5547 35.3847 19.3121 35.3595 20.1452C35.3342 20.7258 35.511 21.1549 35.8896 21.4831C36.2683 21.8113 36.2935 22.1647 36.2683 22.5939C36.2178 23.2502 36.0663 23.9318 37.1266 24.0328C37.6567 24.0833 37.6567 24.6892 37.5558 25.0678C37.3538 25.7747 37.3538 26.5068 37.48 27.1631C37.8587 29.1322 36.5207 30.142 35.3847 31.4295C35.1828 30.6974 35.8644 30.3187 35.7382 29.7381C35.6877 29.5109 35.9401 29.0817 35.4605 29.0817C35.1323 29.0817 34.9051 29.2837 34.9556 29.6624C35.0313 30.3692 34.6526 30.9498 34.3749 31.5557C34.2487 31.8081 34.0973 32.1616 33.7438 32.0353C33.2894 31.8839 33.4409 31.4547 33.5166 31.177C34.072 29.1827 34.3245 27.1379 34.5264 25.0931C34.7031 23.225 34.4002 21.4326 33.8953 19.6403C33.3147 19.7665 33.4914 20.2209 33.5419 20.5491C34.0468 23.7804 33.7438 26.9359 33.037 30.0915C32.936 30.5459 32.6836 31.1265 32.2796 31.1265C31.6738 31.1013 31.7243 30.4702 31.6485 29.9653C31.5223 29.107 31.2699 28.2991 31.699 27.4156C31.8757 27.0369 31.8 26.2543 31.2699 26.1786C30.6135 26.0776 30.8155 26.8097 30.7145 27.2136C30.5378 27.87 30.9417 29.0817 30.0076 29.0312C29.0988 28.9807 28.7454 27.8447 28.5435 26.9359C28.5182 26.8602 28.5687 26.7592 28.5435 26.6835C28.4677 26.1786 28.8716 25.3203 28.3163 25.2193C27.4832 25.0678 27.9628 26.0271 27.7356 26.431C27.4579 26.9107 27.1802 26.8855 26.8521 26.6078C25.4384 25.497 24.7568 24.1085 24.8073 22.2405C24.8325 20.953 24.3781 19.6655 23.9994 18.378C23.4693 20.0947 24.5043 21.8618 23.7217 23.6289C22.5352 22.7958 20.8944 22.2657 21.1468 20.2461C21.1973 19.918 21.0458 19.2364 20.4652 19.4131C19.7079 19.6403 20.4652 20.2714 20.2885 20.7005C19.2282 20.4481 18.3951 19.514 18.4456 18.5043C18.4961 17.8227 18.2437 17.2168 18.1427 16.5604C18.1174 16.3332 18.067 16.1313 17.7893 16.1565C17.5116 16.207 17.5621 16.4595 17.5621 16.6614C17.5873 17.2168 17.663 17.7974 17.7135 18.4285C17.0319 18.1256 16.5523 17.6712 16.6533 16.9391C16.7542 16.2827 16.2998 15.8283 16.2746 15.2477C16.2746 15.0205 16.1736 14.7933 15.8959 14.9195C15.694 15.0205 15.5173 15.1215 15.7192 15.4749C15.8959 15.8031 15.8959 16.2575 15.9969 16.7624C14.7347 16.3585 14.3813 14.8186 12.9171 14.4399C14.0278 16.1818 15.4415 17.3178 16.729 18.7819C15.3405 18.9839 14.4822 18.1761 13.422 17.7722C13.6492 18.3023 14.3308 19.1606 14.6085 19.1354C15.5425 19.0344 16.2998 19.7665 17.2591 19.6403C18.2942 19.514 18.7233 20.4733 19.2787 21.0792C19.7331 21.5841 19.1777 21.6093 18.7738 21.6598C17.2591 21.8365 15.8454 21.2307 14.3813 21.0287C14.1541 21.0035 13.9016 20.6753 13.7754 21.054C13.6239 21.4579 14.0531 21.5084 14.3055 21.6093C15.8202 22.1647 17.4106 22.3919 18.9758 22.2909C20.238 22.2152 21.172 22.4172 21.9041 23.4522C22.2828 23.9571 23.0149 24.0833 23.3683 24.9164C20.1875 25.5475 17.0319 25.9766 13.8006 25.6737C16.7542 26.5825 19.7079 26.4058 22.611 25.9009C24.3529 25.598 25.3374 26.4815 26.4229 27.3903C26.7511 27.6428 26.5491 27.9205 26.1957 28.1477C25.6908 28.4759 25.1607 28.3749 24.6305 28.4001C22.0051 28.5263 19.4049 28.9303 16.7795 28.6273C16.6533 28.6021 16.5018 28.7031 16.2746 28.7535C17.0067 29.4099 17.764 29.6119 18.5971 29.5109C21.0206 29.2584 23.4693 29.2837 25.8675 28.7788C27.054 28.5263 28.0891 28.9303 28.9221 29.7886C29.4018 30.2682 29.5532 30.7984 28.6949 31.1013C28.0638 31.3032 27.4579 31.5809 26.8268 31.7324C26.5239 31.8081 26.0442 31.7324 26.1452 32.212C26.2462 32.616 26.6754 32.3888 26.953 32.3635C28.0133 32.1868 29.0736 32.0101 30.1086 31.7829C30.5125 31.6819 30.7902 31.7072 31.0679 32.0858C31.3708 32.4897 31.1436 32.7674 30.9922 33.1209C30.866 33.4238 30.2096 33.3733 30.4873 33.8025C30.7902 34.3073 31.2446 33.8529 31.598 33.8025C31.8252 33.7772 32.002 33.4995 32.2796 33.6257C31.6485 35.7715 29.9319 37.0842 28.2658 38.1698C27.2812 38.8261 25.7413 38.8261 24.4286 38.3465C24.1257 38.2455 23.7722 38.1698 23.4441 38.1445C22.6362 38.0688 21.8789 38.0688 21.374 37.2357C21.0963 36.7561 20.6419 36.3269 19.9351 36.4784C19.7836 36.5036 19.5059 36.4279 19.4807 36.3522C19.0515 34.686 17.0319 34.989 16.2494 33.7267C16.1231 33.5248 15.6687 33.4995 15.9717 33.1209C16.7038 32.212 15.9212 31.9848 15.3405 31.7577C14.9366 31.6062 14.5327 31.48 14.255 31.177C13.7249 30.6216 13.6239 30.1672 14.6589 30.1672C13.9016 29.1827 13.8511 27.8195 12.6646 27.2136C12.3869 27.0874 12.4374 26.6835 12.7404 26.4563C13.5482 25.8504 13.22 25.3203 12.7908 24.6134C12.3112 23.7551 11.3772 22.7706 12.6394 21.7356C12.7404 21.6598 12.7908 21.3569 12.7404 21.2812C11.4529 19.918 12.6394 18.3275 12.3364 16.9139C12.1597 16.0808 12.6141 14.9195 11.5034 14.2379ZM30.1844 34.1306C27.357 34.6608 24.7063 36.024 21.7527 36.0492C24.8577 36.7561 27.5084 35.3929 30.1844 34.1306ZM24.6558 32.5907C22.5352 32.3635 20.5157 33.0199 18.4456 32.8684C18.2689 32.8432 18.0922 32.9694 18.1175 33.1461C18.1679 33.4743 18.4709 33.4743 18.6981 33.4743C20.0613 33.3985 21.4497 33.449 22.7877 33.1966C23.3683 33.0956 24.2519 33.5753 24.6558 32.5907ZM30.3611 17.4692C29.8057 17.7469 29.8562 18.1761 29.9571 18.58C30.3611 20.3976 31.0932 22.1395 30.8912 24.0833C30.866 24.361 30.8407 24.7649 31.2194 24.7649C31.6485 24.7649 31.5223 24.3358 31.5223 24.0833C31.5476 21.8113 30.9417 19.6655 30.3611 17.4692ZM27.7861 21.4831C27.7104 19.7665 27.4327 18.0751 26.5996 16.5352C26.9026 18.1761 26.7511 19.9432 27.7861 21.4831Z" fill="#FCFCFC"/>
<path d="M67.0411 43.9255C66.2333 44.178 66.0566 44.7334 66.612 45.314C67.1169 45.8694 66.8897 46.2733 66.5615 46.7529C66.0566 47.485 65.7284 48.1919 65.9304 49.2016C66.1071 50.1104 65.2488 50.8173 64.9458 51.6756C64.7944 52.13 64.5924 52.5844 64.9206 52.9631C65.4507 53.5942 65.1478 53.9476 64.5672 54.2253C63.9865 54.4778 63.5574 54.8059 63.4816 55.4875C63.4059 55.9672 62.9515 55.9672 62.6486 56.1439C61.967 56.5478 61.2096 56.8507 61.2601 57.8858C61.2854 58.4916 60.7805 58.6431 60.3008 58.6936C58.6599 58.8955 57.12 59.6781 55.4286 59.6276C55.2267 59.6276 54.8985 59.6529 54.848 59.7791C54.2169 61.0918 53.2323 60.6374 52.2731 60.3597C51.9954 60.284 51.6672 60.183 51.4147 60.2335C49.8496 60.5869 48.9408 59.6781 48.0572 58.6431C48.1582 58.5169 48.1834 58.4159 48.2339 58.3907C48.6631 58.2897 49.3952 58.8703 49.5214 58.1635C49.6476 57.4566 48.8398 57.6333 48.3854 57.5071C48.2339 57.4566 48.0572 57.3809 47.9562 57.2547C47.6533 56.9012 46.7697 56.8507 47.1232 56.2196C47.4261 55.6642 47.9057 56.3458 48.3097 56.4468C51.4147 57.0779 54.4188 58.2897 57.6754 57.9867C58.2055 57.9363 58.7357 57.9363 59.2658 57.1032C57.2967 57.4818 55.6306 57.0022 53.8887 56.977C52.0963 56.977 50.5059 56.1439 48.8398 55.5885C48.4864 55.4623 48.1329 55.1846 48.2592 54.7302C48.3854 54.3263 48.7893 54.4273 49.1175 54.3768C51.0613 53.9981 52.8537 55.1089 54.7975 54.9574C56.8171 54.7807 58.8871 55.0836 60.9824 54.4778C60.5785 53.6699 59.7202 53.9224 59.2658 54.0486C57.5239 54.4525 55.782 54.1496 54.0654 54.2253C52.9294 54.2758 51.8439 53.5437 50.6826 53.3165C50.1778 53.2155 50.1778 52.6854 50.6069 52.3572C51.2128 51.8776 51.8439 51.5494 52.677 51.6251C54.4188 51.7513 56.186 51.928 57.9278 51.8018C59.6445 51.7008 61.4116 51.5999 62.9767 50.5396C61.8155 50.6406 60.6542 50.7163 59.493 50.8678C57.7006 51.1202 55.883 50.9688 54.0907 50.9688C53.6867 50.9688 53.1819 50.893 53.0304 50.4386C52.8537 49.959 53.4343 49.8832 53.611 49.5803C54.6208 48.0404 56.1607 48.3686 57.5997 48.3938C59.7454 48.4443 61.8155 47.9142 63.936 47.8637C64.3147 47.8637 64.7944 47.6365 64.7186 47.2073C64.6429 46.7782 64.138 46.9044 63.8856 47.0306C62.2194 47.8637 60.4018 47.2326 58.6852 47.6112C57.9026 47.7879 56.6909 47.8889 56.5141 47.1821C56.2869 46.2733 57.4987 45.7684 58.155 45.1878C58.5085 44.8848 58.9629 45.011 59.3668 45.011C60.4523 45.0615 61.4873 44.8343 62.5981 44.3294C61.866 43.6731 61.1087 44.178 60.4775 43.9255C60.2503 43.8245 59.9474 43.9003 59.8717 43.5721C59.8212 43.2944 59.9726 43.0925 60.1998 42.941C60.9319 42.3604 61.765 42.2089 62.6486 42.3604C63.0525 41.805 61.7903 41.8555 62.3456 41.2748C62.7243 40.8709 63.1787 40.77 63.7341 40.8204C64.4914 40.8709 65.173 40.5932 65.9051 40.2146C65.7284 40.0884 65.6527 39.9621 65.5769 39.9621C65.1478 39.9116 64.5167 40.4165 64.3147 39.9116C64.0875 39.331 64.7944 39.0281 65.1983 38.6999C65.6274 38.3465 66.2585 38.195 66.5362 37.5134C65.2235 37.5639 64.5419 38.5989 63.6079 39.1543C63.3554 39.3058 63.1787 39.5582 62.9515 39.7349C62.7495 39.8864 62.5476 40.1641 62.2951 39.9874C61.9922 39.7854 62.0932 39.4572 62.2447 39.2048C62.4719 38.7252 62.7495 38.2707 62.7748 37.5639C61.7398 38.3465 61.1844 39.331 61.0077 40.467C60.8814 41.3253 60.4018 41.906 59.8969 42.5118C59.6445 42.7895 59.291 43.0672 58.9124 42.7895C58.5842 42.5623 58.7104 42.1837 58.8114 41.8555C59.1648 40.4923 59.5182 39.1543 59.8969 37.6901C59.0133 37.8163 58.9629 38.5737 58.8366 38.9776C58.4075 40.3408 57.9531 41.7545 57.9783 43.2439C58.0036 44.077 56.3122 45.9956 55.5296 46.1218C55.2014 46.1723 55.05 45.9703 55.05 45.6926C55.1509 43.1429 54.5198 40.5932 55.3024 38.0688C55.4034 37.7659 55.7316 37.3872 55.2267 37.2357C54.7723 37.1095 54.848 37.6396 54.6965 37.9173C53.51 40.3913 54.2674 42.9915 54.1411 45.5412C54.0654 47.0054 53.7877 48.2423 52.4498 49.2016C51.6924 49.757 51.6672 49.3279 51.6167 48.8735C51.541 48.2928 51.5662 47.7122 51.5915 47.1063C51.6419 45.1878 51.4905 43.2439 51.6924 41.3253C51.7429 40.9972 51.9196 40.4418 51.4652 40.366C50.9603 40.2651 50.9603 40.8709 50.9603 41.1991C50.9856 42.7895 50.7584 44.3547 50.8341 45.9451C50.8846 47.1316 50.7331 48.3433 50.8846 49.5298C50.9351 49.8328 50.7331 50.1862 50.5817 50.4891C50.2282 51.1707 49.7991 51.9281 48.9408 51.8271C48.2087 51.7261 48.2339 50.8678 48.1077 50.2872C47.4766 47.586 47.4261 44.8343 47.5271 42.0827C47.5523 41.6283 47.6785 41.1739 47.1484 40.6942C47.0222 41.9312 46.8707 43.1429 46.8202 44.3799C46.7445 46.5257 47.1989 48.621 47.4261 50.7416C47.4766 51.2464 47.5018 51.7513 47.5271 52.231C47.5523 52.7359 47.6028 53.2913 46.9464 53.4427C46.3153 53.5942 45.9619 53.0893 45.8357 52.6097C45.2803 50.4891 44.1948 48.4695 44.4725 46.1723C44.5482 45.5664 44.523 44.9353 43.8414 44.1022C43.2607 47.8889 44.7502 51.0192 45.558 54.3263C43.3365 53.5437 42.4277 51.7261 41.3674 50.1357C40.913 49.4541 41.2159 48.3181 41.3926 47.4093C41.4431 47.1316 41.6956 46.8539 41.6703 46.6015C41.3926 44.4809 42.9831 43.0672 44.0433 41.8302C44.8764 40.8709 45.6337 39.6592 46.7445 38.9019C46.9212 38.7756 47.1232 38.4979 47.2241 38.5484C48.5873 39.1038 48.966 38.1445 49.4457 37.2105C49.5719 36.9328 49.9001 36.6046 50.2787 36.8571C51.5157 37.7659 52.374 36.8066 53.2071 36.1755C53.813 35.721 54.2421 35.4938 54.7975 36.1755C55.1257 36.6046 55.5044 36.6551 55.984 36.3774C57.0948 35.7715 58.1045 35.4434 59.493 36.0745C60.2756 36.4279 61.5378 35.9987 62.6233 36.2007C64.2642 36.5289 65.9556 36.5794 67.5713 36.024C68.1014 35.8473 68.2529 36.125 68.2529 36.5794C68.2529 37.261 68.2024 37.9173 67.7227 38.4727C67.0411 39.3058 66.5867 40.1388 66.9149 41.3253C67.1926 42.2089 67.0411 43.0925 67.0411 43.9255Z" fill="#1F00FB"/>
<path d="M30.1836 34.1306C27.5077 35.4181 24.857 36.7561 21.752 36.0492C24.7056 36.024 27.3562 34.6608 30.1836 34.1306Z" fill="#34353C"/>
<path d="M24.656 32.5907C24.2521 33.5753 23.3685 33.0956 22.7879 33.1966C21.4499 33.449 20.0615 33.4238 18.6983 33.4743C18.4711 33.4743 18.1681 33.4743 18.1177 33.1461C18.0924 32.9441 18.2691 32.8432 18.4458 32.8684C20.5159 33.0199 22.5354 32.3635 24.656 32.5907Z" fill="#34353C"/>
<path d="M30.3612 17.4692C30.9419 19.6655 31.5477 21.8113 31.5477 24.0833C31.5477 24.3358 31.6739 24.7649 31.2448 24.7649C30.8661 24.7649 30.8914 24.361 30.9166 24.0833C31.1186 22.1647 30.3612 20.3976 29.9826 18.58C29.8563 18.1761 29.8058 17.7469 30.3612 17.4692Z" fill="#34353C"/>
<path d="M27.7861 21.4831C26.7511 19.9684 26.9278 18.2013 26.5996 16.5352C27.4327 18.0751 27.7104 19.7665 27.7861 21.4831Z" fill="#34353C"/>
</g>
<defs>
<clipPath id="clip0_2491:55334">
<rect width="80" height="80" fill="white"/>
</clipPath>
</defs>
</svg>
