<svg width="80" height="80" viewBox="0 0 80 80" fill="none" xmlns="http://www.w3.org/2000/svg">
<path d="M66.356 0.209424V53.7173C66.356 54.0314 66.2513 60.1047 57.3508 68.6911C53.3717 72.5654 46.2513 77.9058 40.2827 80C34.1047 77.801 27.089 72.5654 23.0052 68.6911C14.1047 60.1047 14 54.0314 14 53.7173V0H66.356" fill="#003D84"/>
<path d="M64.4704 1.88483H15.7793C18.9207 12.356 30.3343 25.2356 40.0725 25.2356H40.1772C49.9154 25.1309 61.329 12.2513 64.4704 1.88483Z" fill="#94C2E9"/>
<path d="M64.2617 54.4503C57.7696 46.911 46.4607 40.6283 40.178 40.5236H40.0732C33.7905 40.6283 22.3769 46.911 15.9895 54.4503L15.8848 54.555C16.4083 56.5445 18.0837 61.1518 24.2617 67.1204C28.1361 70.8901 34.7329 75.7068 40.178 77.9058C45.7277 75.7068 52.2198 70.8901 56.0942 67.1204C62.2722 61.1518 63.9476 56.5445 64.4711 54.555C64.3664 54.555 64.3664 54.555 64.2617 54.4503Z" fill="#94C2E9"/>
<path d="M64.4717 20V28.0628H46.7754L46.8801 27.9581C54.9429 25.9686 60.7021 22.4084 64.4717 20Z" fill="white"/>
<path d="M15.7793 20V28.0628H33.4756L33.3709 27.9581C25.4128 25.9686 19.6536 22.4084 15.7793 20Z" fill="white"/>
<path d="M60.0735 36.1256L40.1782 34.0314H40.0735L20.1782 36.1256H19.9688H40.0735H40.1782H60.2829H60.0735Z" fill="white"/>
<path d="M40.1771 31.7278H24.6797L24.7844 31.8325L40.0724 33.4031H40.1771L55.465 31.8325L55.6744 31.7278H40.1771Z" fill="white"/>
</svg>
