<svg width="80" height="80" viewBox="0 0 80 80" fill="none" xmlns="http://www.w3.org/2000/svg">
<g clip-path="url(#clip0_2491:55316)">
<path d="M12.8288 30.7381C12.9315 30.7267 13.0342 30.6981 13.1368 30.6981C21.2949 30.6981 29.4529 30.6981 37.6109 30.6981C37.7136 30.6981 37.8163 30.6981 37.9247 30.6981C37.9247 20.4464 37.9247 10.2232 37.9247 0C27.2736 0 16.6511 0 6 0C6 0.171147 6 0.32518 6 0.473508C6 15.506 6 30.5384 6 45.5708C6 47.1853 6.07987 48.7998 6.29095 50.4029C6.62754 52.953 7.23226 55.4346 8.14505 57.8421C10.5126 64.1004 14.3691 69.2519 19.7203 73.2625C25.0259 77.2388 31.0103 79.4409 37.6223 79.9201C39.6647 80.0685 41.7071 80.0057 43.7437 79.7775C46.1569 79.5037 48.513 78.9845 50.8121 78.1915C56.3516 76.2861 61.0923 73.1484 65.023 68.8127C67.9782 65.5551 70.2202 61.8527 71.7434 57.7166C73.1696 53.8373 73.82 49.8267 73.8143 45.6906C73.7972 30.5555 73.8086 15.4204 73.8086 0.279541C73.8086 0.188262 73.7972 0.0969835 73.7915 0.00570491C63.129 0.00570491 52.5007 0.00570491 41.8782 0.00570491C41.8782 10.246 41.8782 20.4635 41.8782 30.7153C50.2986 30.7153 58.6963 30.7153 67.0882 30.7153C67.1053 30.7495 67.1224 30.778 67.1395 30.8122C66.6717 31.1773 66.2325 31.5824 65.7418 31.9076C64.1388 32.9687 62.3531 33.6133 60.5104 34.0812C56.7167 35.0396 52.8544 35.5815 48.9637 35.8953C46.8072 36.0665 44.6394 36.1691 42.4715 36.2262C38.4381 36.3289 34.4162 36.1463 30.3942 35.8154C27.7072 35.5929 25.0259 35.2963 22.3788 34.7714C20.1482 34.3322 17.9575 33.7674 15.8809 32.809C14.7513 32.2898 13.6845 31.6794 12.8402 30.7381H12.8288Z" fill="white"/>
<path d="M12.8288 30.7324C13.6731 31.6737 14.7399 32.2841 15.8695 32.8033C17.9461 33.756 20.1368 34.3265 22.3674 34.7657C25.0145 35.2906 27.6958 35.5872 30.3828 35.8097C34.4048 36.1406 38.4267 36.3232 42.4601 36.2205C44.628 36.1634 46.7901 36.0665 48.9523 35.8896C52.843 35.5758 56.7053 35.0339 60.499 34.0754C62.3474 33.6076 64.1331 32.963 65.7304 31.9019C66.2211 31.5767 66.666 31.1716 67.1281 30.8065C67.111 30.7723 67.0939 30.7438 67.0768 30.7095C58.6792 30.7095 50.2815 30.7095 41.8668 30.7095C41.8668 20.4635 41.8668 10.246 41.8668 0C52.4893 0 63.1233 0 73.7801 0C73.7858 0.0912786 73.7972 0.182557 73.7972 0.273836C73.7972 15.409 73.7858 30.5441 73.8029 45.6849C73.8086 49.821 73.1582 53.8316 71.732 57.7109C70.2145 61.847 67.9725 65.5437 65.0116 68.807C61.0752 73.1427 56.3401 76.2804 50.8007 78.1858C48.5073 78.9788 46.1455 79.498 43.7323 79.7718C41.6956 80.0057 39.6533 80.0628 37.6109 79.9144C30.9989 79.4352 25.0202 77.2331 19.7089 73.2568C14.352 69.2462 10.5012 64.089 8.13364 57.8364C7.22085 55.4346 6.61613 52.9473 6.27954 50.3972C6.07987 48.7998 6 47.1853 6 45.5708C6 30.5384 6 15.506 6 0.473508C6 0.32518 6 0.171147 6 0C16.6454 0 27.2736 0 37.919 0C37.919 10.2232 37.919 20.4464 37.919 30.6981C37.8049 30.6981 37.7022 30.6981 37.6052 30.6981C29.4472 30.6981 21.2892 30.6981 13.1311 30.6981C13.0285 30.6981 12.9258 30.7267 12.8288 30.7324C12.8915 30.6411 12.9429 30.5441 13.017 30.4585C15.7953 27.0584 18.5736 23.6583 21.3519 20.2639C25.3168 15.4147 29.2817 10.5712 33.2467 5.72203C33.3037 5.65357 33.3494 5.57941 33.4292 5.47101C26.4749 5.47101 19.5834 5.47101 12.6633 5.47101C12.6633 5.60793 12.6633 5.72203 12.6633 5.83613C12.6633 13.9827 12.6633 22.1294 12.669 30.276C12.6747 30.4243 12.7774 30.5783 12.8288 30.7324ZM39.9842 53.4836C41.7755 55.5259 44.1088 56.2904 46.7445 56.336C49.4258 56.3817 51.6849 55.3947 53.5562 53.4722C54.429 54.4933 55.4958 55.2179 56.7281 55.7028C58.3026 56.3246 59.9342 56.4672 61.6001 56.2619C62.9636 56.0907 64.2415 55.6571 65.3938 54.887C65.6049 54.7443 65.7247 54.5675 65.7989 54.3336C66.2838 52.8218 66.6432 51.2815 66.8714 49.7126C66.9342 49.279 66.9684 48.8398 67.0197 48.4062C66.9285 48.4233 66.8999 48.4575 66.8714 48.4918C66.067 49.6156 64.9774 50.3402 63.6881 50.7851C62.0508 51.3556 60.3564 51.4469 58.6506 51.2187C56.865 50.9791 55.2733 50.2831 53.9726 48.9995C53.8015 48.8284 53.6417 48.6401 53.4763 48.4632C52.2897 49.6784 51.7648 50.0777 50.7836 50.4885C48.9238 51.2644 46.9841 51.4697 44.9988 51.2358C43.0078 51.0019 41.3134 50.169 40.0184 48.6002C39.9842 48.5602 39.9442 48.526 39.9043 48.4918C37.9874 50.3287 35.7226 51.2872 33.0869 51.3214C30.4398 51.3556 28.1636 50.4714 26.3551 48.4918C24.5067 50.5056 22.1905 51.3385 19.5263 51.3214C16.8736 51.3043 14.546 50.5056 12.8003 48.372C12.7946 48.5716 12.8174 48.7542 12.8345 48.9367C13.0399 50.8878 13.4734 52.7876 14.1124 54.6417C14.1694 54.8071 14.3235 54.9782 14.4775 55.0695C15.9151 55.9196 17.4726 56.3303 19.1441 56.336C20.9183 56.3417 22.6184 56.028 24.1987 55.1893C25.0202 54.7558 25.7447 54.1967 26.338 53.4722C29.6811 57.3629 36.6297 57.2317 39.9842 53.4836ZM67.0483 30.6354C67.0711 30.6297 67.0882 30.6183 67.111 30.6126C67.1167 30.5213 67.1224 30.43 67.1224 30.333C67.1224 22.1864 67.1224 14.0398 67.1224 5.89318C67.1224 5.37973 67.1624 5.44249 66.6889 5.44249C60.0826 5.44249 53.4763 5.44249 46.87 5.44249C46.7217 5.44249 46.5733 5.44249 46.3337 5.44249C53.2709 13.8858 60.1567 22.2606 67.0483 30.6354ZM39.91 57.7908C37.668 62.6628 35.4602 67.4606 33.2524 72.2641C37.6394 73.4393 42.8366 73.331 46.813 72.1843C44.5253 67.4093 42.2376 62.6342 39.91 57.7908ZM22.0023 46.2954C18.8874 41.9596 15.8125 37.6867 12.6976 33.3509C12.6805 33.4707 12.6747 33.4993 12.6747 33.5278C12.6747 36.791 12.6747 40.0485 12.6747 43.3117C12.6747 43.403 12.6919 43.5057 12.7432 43.5798C13.7587 45.0688 15.1165 46.0957 16.9192 46.3239C18.1458 46.4779 19.4008 46.4209 20.6445 46.4323C21.0781 46.438 21.506 46.3467 22.0023 46.2954ZM57.9546 46.284C58.5194 46.3581 58.9929 46.438 59.4721 46.4779C61.0695 46.6148 62.6441 46.5293 64.1445 45.8789C65.2227 45.4168 66.2154 44.8292 66.9399 43.8822C67.0426 43.751 67.111 43.557 67.111 43.3916C67.1224 40.2253 67.1167 37.0591 67.1167 33.8929C67.1167 33.7959 67.1053 33.6932 67.0939 33.5221C64.0361 37.795 61.0239 41.9996 57.9546 46.284ZM26.1155 57.2944C23.7651 59.3425 21.4375 61.3792 19.0928 63.4272C20.4163 64.9904 21.8711 66.371 23.5084 67.5975C25.6762 64.8363 27.8327 62.0923 30.012 59.3197C28.4089 59.16 27.0568 58.6579 26.1155 57.2944ZM49.9449 59.1143C52.09 61.9611 54.1951 64.7565 56.3173 67.569C57.9432 66.331 59.3866 64.9733 60.6873 63.4272C58.2969 61.3678 55.9294 59.3311 53.5447 57.2773C52.5977 58.3613 51.4339 58.9945 49.9449 59.1143Z" fill="#11368F"/>
<path d="M39.984 53.4836C36.6295 57.2374 29.6866 57.3629 26.3492 53.4779C25.7559 54.1967 25.0257 54.7558 24.2099 55.1951C22.6296 56.0337 20.9295 56.3474 19.1553 56.3417C17.4838 56.336 15.9263 55.9196 14.4887 55.0753C14.3347 54.984 14.1806 54.8128 14.1236 54.6474C13.4846 52.7933 13.051 50.8936 12.8457 48.9425C12.8286 48.7599 12.8057 48.5717 12.8114 48.3777C14.5629 50.5113 16.8848 51.31 19.5375 51.3271C22.196 51.3443 24.5179 50.517 26.3663 48.4975C28.1748 50.4714 30.4511 51.3557 33.0981 51.3271C35.7338 51.2929 37.9987 50.3345 39.9155 48.4975C39.9554 48.5317 39.9954 48.566 40.0296 48.6059C41.3246 50.1805 43.019 51.0134 45.01 51.2416C46.9953 51.4755 48.935 51.2701 50.7948 50.4942C51.776 50.0835 52.3009 49.6841 53.4875 48.469C53.653 48.6515 53.807 48.8341 53.9838 49.0053C55.2846 50.2831 56.8705 50.9849 58.6619 51.2245C60.3676 51.4527 62.0563 51.3614 63.6993 50.7909C64.9886 50.3459 66.084 49.6214 66.8827 48.4975C66.9055 48.4633 66.9397 48.4291 67.031 48.4119C66.9854 48.8455 66.9454 49.2848 66.8827 49.7184C66.6545 51.2872 66.2951 52.8275 65.8101 54.3393C65.736 54.5732 65.6162 54.7501 65.4051 54.8927C64.2527 55.6572 62.9748 56.0964 61.6113 56.2676C59.9455 56.473 58.3139 56.3303 56.7393 55.7085C55.5071 55.2236 54.4402 54.4991 53.5674 53.4779C51.6962 55.4004 49.437 56.3874 46.7557 56.3417C44.1086 56.2904 41.7753 55.5259 39.984 53.4836Z" fill="white"/>
<path d="M12.8277 30.7324C12.7764 30.5784 12.6737 30.4243 12.6737 30.276C12.668 22.1294 12.668 13.9827 12.668 5.83612C12.668 5.72202 12.668 5.60793 12.668 5.47101C19.588 5.47101 26.4796 5.47101 33.4339 5.47101C33.354 5.5794 33.3083 5.65357 33.2513 5.72202C29.2864 10.5712 25.3215 15.4147 21.3566 20.2639C18.5783 23.664 15.8 27.0584 13.0217 30.4586C12.9475 30.5441 12.8905 30.6411 12.8277 30.7324C12.8277 30.7381 12.8277 30.7324 12.8277 30.7324Z" fill="white"/>
<path d="M67.0483 30.6354C60.1568 22.2606 53.271 13.8858 46.3281 5.44248C46.5677 5.44248 46.7161 5.44248 46.8644 5.44248C53.4707 5.44248 60.0769 5.44248 66.6832 5.44248C67.1624 5.44248 67.1168 5.37973 67.1168 5.89317C67.1168 14.0398 67.1168 22.1864 67.1168 30.333C67.1168 30.4243 67.1111 30.5156 67.1054 30.6126C67.0883 30.624 67.0654 30.6297 67.0483 30.6354Z" fill="white"/>
<path d="M39.9115 57.7908C42.2334 62.6342 44.5211 67.4092 46.8145 72.1842C42.8382 73.3309 37.6467 73.4393 33.2539 72.2641C35.4674 67.4606 37.6695 62.6627 39.9115 57.7908Z" fill="white"/>
<path d="M22.0017 46.2954C21.5054 46.3468 21.0775 46.4324 20.644 46.4324C19.4003 46.4267 18.1452 46.4837 16.9187 46.324C15.1159 46.0958 13.7524 45.0689 12.7427 43.5799C12.6913 43.5057 12.6742 43.403 12.6742 43.3118C12.6685 40.0485 12.6685 36.791 12.6742 33.5278C12.6742 33.4993 12.6799 33.4708 12.697 33.351C15.8119 37.6867 18.8869 41.9654 22.0017 46.2954Z" fill="white"/>
<path d="M57.9551 46.284C61.0243 41.9996 64.0365 37.7951 67.0943 33.5221C67.1057 33.6989 67.1172 33.7959 67.1172 33.8929C67.1172 37.0591 67.1229 40.2254 67.1114 43.3916C67.1114 43.557 67.0373 43.7453 66.9403 43.8822C66.2158 44.835 65.2174 45.4169 64.1449 45.879C62.6445 46.5236 61.0757 46.6149 59.4726 46.478C58.9934 46.438 58.5199 46.3582 57.9551 46.284Z" fill="white"/>
<path d="M26.1165 57.2945C27.0578 58.6523 28.4099 59.16 30.013 59.3197C27.8337 62.098 25.6772 64.8363 23.5094 67.5975C21.8777 66.371 20.423 64.9904 19.0938 63.4272C21.4385 61.3792 23.7718 59.3483 26.1165 57.2945Z" fill="white"/>
<path d="M49.9434 59.1143C51.4266 58.9945 52.5904 58.3613 53.5431 57.2831C55.9278 59.3311 58.2896 61.3735 60.6856 63.4329C59.3906 64.979 57.9416 66.3367 56.3157 67.5747C54.1992 64.7622 52.0884 61.9611 49.9434 59.1143Z" fill="white"/>
</g>
<defs>
<clipPath id="clip0_2491:55316">
<rect width="80" height="80" fill="white"/>
</clipPath>
</defs>
</svg>
