<svg width="80" height="80" viewBox="0 0 80 80" fill="none" xmlns="http://www.w3.org/2000/svg">
<path d="M54.7487 15.7853C54.5932 17.5511 54.2823 20.3165 53.9084 22.4081H53.8899C51.8035 21.7611 49.6678 21.2856 47.5039 20.9866C47.8493 18.8241 48.073 16.6439 48.174 14.4563C50.3928 14.759 52.5891 15.2079 54.7487 15.8001V15.7853ZM45.6307 14.1379C45.5287 16.3243 45.3038 18.5033 44.957 20.6645V20.6978C41.2387 20.3969 37.4964 20.6464 33.851 21.4382C34.3012 26.5196 36.1261 31.3827 39.13 35.5058C37.8898 37.3499 36.4082 39.0195 34.7247 40.4701C29.7122 34.3656 26.7284 25.292 26.4174 15.9037C32.6648 14.1032 39.197 13.504 45.6677 14.1379H45.6307ZM25.0292 26.2027C25.5097 28.3349 26.1621 30.4248 26.9801 32.4516C24.9379 33.2351 22.9407 34.1312 20.9977 35.1356C20.1504 33.0662 19.4417 30.9428 18.8764 28.7793C20.4387 28.0389 23.0301 26.9283 25.0292 26.1879V26.2027ZM22.0305 37.4975C23.9722 36.489 25.9695 35.5916 28.013 34.8098C29.6266 38.187 31.7325 41.3059 34.2619 44.0648C38.4494 41.1329 41.7591 37.1155 43.8353 32.4442C46.056 32.5907 48.2466 33.0378 50.3471 33.7733C47.5669 41.1772 41.2105 48.2962 33.1661 53.2642C28.4863 48.7577 24.7027 43.4053 22.0157 37.49L22.0305 37.4975ZM42.7469 49.2661C44.3553 47.7845 45.8409 46.1751 47.1893 44.4535C48.8893 45.8345 50.6666 47.1175 52.5127 48.2962C51.1443 50.0645 49.6603 51.7402 48.0703 53.3124C46.6192 52.2943 44.3683 50.6395 42.758 49.2661H42.7469ZM54.0379 46.2527C52.1958 45.0797 50.421 43.8042 48.7219 42.4322V42.3693C50.84 39.2971 52.4928 35.929 53.627 32.3739C48.9991 30.2119 43.8692 29.3531 38.7894 29.8899C37.8113 27.91 37.1017 25.8085 36.6793 23.6409C44.4905 22.36 53.8602 24.2962 62.1231 28.7348C60.5581 35.0397 57.8135 40.9912 54.0342 46.2749L54.0379 46.2527ZM71.478 0H8C8 35.8612 18.2619 60.8829 39.8001 80C61.3531 60.9125 71.5039 35.9241 71.5039 0" fill="#17678B"/>
</svg>
