<svg width="80" height="80" viewBox="0 0 80 80" fill="none" xmlns="http://www.w3.org/2000/svg">
<path d="M39.9761 80L39.7884 79.8976C20.6928 69.6587 11 58.0205 11 45.3072V0H68.9352V45.3072C68.9352 58.0205 59.2423 69.6587 40.1468 79.8976L39.9761 80Z" fill="white"/>
<path d="M55.8295 39.1638H55.5564C55.5052 40.0683 54.9079 41.4164 53.2356 41.4164H47.2629C43.8329 41.4164 43.1161 44.1468 43.1161 44.1468L43.0649 44.1979L42.9967 44.1468C42.9967 44.1468 42.28 41.4164 38.8499 41.4164H32.8772C31.2049 41.4164 30.6076 40.0683 30.5393 39.1638H30.2834C30.2834 39.7099 30.1981 43.6348 33.8158 43.6348H40.0445C41.1025 43.6348 42.3312 44.5051 42.3312 45.8703V47.3379L43.4233 46.5529V45.8874C43.4233 45.0171 44.0035 43.6348 46.0513 43.6348H52.297C55.9318 43.6348 55.8295 39.7099 55.8295 39.1638Z" fill="#305876"/>
<path d="M53.8669 34.0956C49.7713 34.0956 46.9727 36.2457 46.9727 40.4437C46.9727 44.8806 49.9419 46.7747 53.7133 46.7747C58.0819 46.7747 60.8464 44.1809 60.744 40.5632C60.6416 36.9454 58.2355 34.0956 53.8669 34.0956ZM53.4232 45.6485C50.5733 45.6485 48.116 43.4642 48.116 40.3925C48.116 37.4744 50.2832 35.1365 53.2867 35.1365C55.9829 35.1365 58.4573 37.5085 58.4573 40.4266C58.4573 43.3447 56.2559 45.6485 53.4232 45.6485Z" fill="#305876"/>
<path d="M46.2398 56.1263C45.233 56.5188 44.1579 56.7406 43.0828 56.7748H43.0487C41.9736 56.7406 40.8985 56.5188 39.8917 56.1263C37.2466 55.1365 35.0794 54.9488 32.3832 55.4437C31.2228 55.6826 30.0794 56.0239 28.9531 56.4505C29.1579 56.8772 29.5333 57.6792 29.7893 58.1912C30.7449 57.8328 31.7176 57.5427 32.7074 57.3379C34.6699 56.9796 36.5129 56.9454 39.192 57.9352C40.4207 58.413 41.7347 58.669 43.0487 58.7031C44.3627 58.669 45.6596 58.3959 46.8883 57.9352C49.5675 56.9454 51.4275 56.9796 53.3729 57.3379C54.3627 57.5427 55.3525 57.8328 56.291 58.1912C56.547 57.6621 56.9395 56.8601 57.1272 56.4505C56.018 56.0239 54.8746 55.6826 53.7142 55.4437C51.0521 54.9318 48.8849 55.1365 46.2398 56.1263Z" fill="#305876"/>
<path d="M53.7314 51.7065C51.0352 51.2116 48.868 51.4164 46.2229 52.3891C45.2161 52.7816 44.1581 53.0034 43.083 53.0546H43.0489C41.9738 53.0205 40.8987 52.7986 39.8919 52.4061C37.2468 51.4334 35.0796 51.2287 32.3833 51.7236C30.1649 52.1331 27.5028 53.3276 27.4004 53.3788L28.2024 55.1195C28.2195 55.1024 30.7451 53.9761 32.7417 53.6007C34.7041 53.2423 36.5471 53.2082 39.2263 54.198C40.455 54.6758 41.7519 54.9318 43.0659 54.9659C44.3799 54.9318 45.6768 54.6587 46.9055 54.198C49.5847 53.2082 51.4448 53.2423 53.3902 53.6007C55.3697 53.9591 57.8953 55.1024 57.9294 55.1195L58.7315 53.3618C58.612 53.3106 55.9669 52.116 53.7314 51.7065Z" fill="#305876"/>
<path d="M46.2391 59.8294C45.2323 60.2219 44.1572 60.4437 43.0821 60.4779H43.048C41.9729 60.4437 40.8978 60.2219 39.891 59.8294C37.2459 58.8567 35.0787 58.6519 32.3825 59.1468C31.9729 59.2151 31.5633 59.3174 31.1367 59.4369C31.3586 59.983 31.6487 60.6826 31.8705 61.2287C32.1606 61.1605 32.4507 61.0922 32.7237 61.041C34.6862 60.6826 36.5292 60.6485 39.2084 61.6383C40.4371 62.1161 41.734 62.3721 43.048 62.4062C44.362 62.3721 45.6589 62.099 46.8876 61.6383C49.5667 60.6485 51.4268 60.6826 53.3722 61.041C53.6452 61.0922 53.9353 61.1605 54.2254 61.2287C54.4473 60.6656 54.7374 59.9659 54.9592 59.4369C54.5497 59.3174 54.1231 59.2151 53.7135 59.1468C51.0514 58.6519 48.8842 58.8567 46.2391 59.8294Z" fill="#305876"/>
<path d="M50.3517 5.785C50.1128 6.02391 49.4814 6.63824 48.5941 7.55975L47.7237 3.05463C46.0514 4.5222 44.6691 6.29695 43.6623 8.27647L42.6043 4.96589C42.6043 4.96589 40.0787 7.66213 38.7306 12.372L37.4848 8.8908C37.4848 8.8908 34.5667 13.6178 33.7818 17.9693L32.3654 13.9932C32.3654 13.9932 29.7715 18.5836 28.5599 23.3106L27.4166 20.2219C27.4166 20.2219 25.4882 23.3447 24.7545 30.1536L23.7647 27.1331C23.7647 27.1331 21.0343 31.5871 21.0343 37.2696C21.0343 41.4505 22.007 44.1638 22.536 45.3243C20.8978 49.6587 19.6521 54.1468 18.7988 58.7031C18.7988 58.7031 20.1128 59.1809 20.7613 61.1434C20.7613 61.1434 21.734 50.6826 25.5394 42.2014C29.3449 33.7202 33.2698 28.4642 38.4575 21.4335C44.2425 13.6178 50.2664 7.3379 51.0002 6.48466C51.734 5.63142 51.0855 5.06828 50.3517 5.785ZM28.3381 33.2765C26.478 36.4505 24.8227 39.744 23.3893 43.1229C22.8773 41.8601 21.0855 36.7065 23.048 30.9386C23.048 30.9386 23.7647 32.901 25.1128 37.3208C25.1128 37.3208 25.5736 28.7202 26.8876 24.5222L28.85 30.2048C28.85 30.2048 29.4132 21.9966 31.6657 17.6451L33.5429 23.4812C33.5429 23.4812 34.6862 15.8703 36.6657 12.5256L38.2698 17.1502C38.2698 17.1502 39.6179 11.1775 41.6145 8.29353L42.9627 12.2355C42.9627 12.2355 44.2937 8.27647 46.5975 5.54609L47.4336 8.77135C45.9831 10.3072 44.1572 12.2867 42.3313 14.4369C38.6282 18.7543 32.4678 26.1263 28.3381 33.2765Z" fill="#305876"/>
<path d="M39.9761 80L39.7884 79.8976C20.6928 69.6587 11 58.0205 11 45.3072V0H68.9352V45.3072C68.9352 58.0205 59.2423 69.6587 40.1468 79.8976L39.9761 80ZM11.7679 0.767918V45.3072C11.7679 57.6792 21.256 69.0444 39.959 79.1297C58.6792 69.0444 68.1672 57.6792 68.1672 45.3072V0.767918H11.7679Z" fill="#305876"/>
</svg>
