<svg width="80" height="80" viewBox="0 0 80 80" fill="none" xmlns="http://www.w3.org/2000/svg">
<path d="M8 0H71.7917V45.891C71.7917 76.9406 43.2807 80 39.8308 80C36.3808 80 8 76.9406 8 45.891V0Z" fill="#004996"/>
<path d="M9.75781 1.75751H70.0996V45.6957C70.0996 75.3783 43.1508 78.3075 39.8961 78.3075C36.6415 78.3075 9.75781 75.3783 9.75781 45.6957V1.75751Z" fill="white"/>
<path d="M11.7109 44.0032C11.7109 43.9382 11.7109 27.5997 11.7109 27.5997C11.7109 27.5346 68.2122 27.5997 68.2122 27.5997L68.2773 43.808L58.2528 38.6656L49.5303 40.7486L40.4172 38.6656C40.287 38.6656 31.3041 40.7486 31.3041 40.7486L22.1259 38.6656L11.7109 44.0032Z" fill="#0C8041"/>
<path d="M10.6035 26.1676L40.5466 26.0374L26.226 7.16031L10.6035 26.1676Z" fill="#004996"/>
<path d="M9.5625 26.6884L26.2265 6.37918L41.5234 26.5582L9.5625 26.6884ZM26.2265 7.94143L11.6455 25.6469L39.5706 25.5167L26.2265 7.94143Z" fill="white"/>
<path d="M26.0312 26.1025L54.8677 26.0374L40.482 7.03012L26.0312 26.1025Z" fill="#004996"/>
<path d="M25.0547 26.6233L40.4819 6.24899L55.8439 26.5582L25.0547 26.6233ZM40.4819 7.81124L27.0075 25.5818L53.8911 25.5167L40.4819 7.81124Z" fill="white"/>
<path d="M40.416 26.1025L69.1874 26.0374L54.8017 6.89993L40.416 26.1025Z" fill="#004996"/>
<path d="M39.4395 26.6233L54.8015 6.1188L70.1636 26.5582L39.4395 26.6233ZM54.8015 7.68105L41.3923 25.5818L68.2108 25.5167L54.8015 7.68105Z" fill="white"/>
<path d="M68.4067 46.4768C68.4067 46.5419 68.667 55.5899 65.6727 60.4068C55.9087 75.9642 42.6947 76.55 40.4164 76.55C38.3334 76.55 22.1251 76.1595 14.379 59.6908C10.9941 52.5956 11.9705 46.2164 11.9705 46.2164L22.1251 41.2042L31.2382 43.2221L40.2862 41.1391C40.4164 41.1391 49.3993 43.2221 49.3993 43.2221L57.9917 41.2042L68.4067 46.4768Z" fill="#004996"/>
<path d="M65.8033 49.4711L57.8619 44.9797L49.2045 47.1929L40.1565 45.1099L30.9783 47.1929L21.9303 45.1099L14.054 49.3409L13.5332 48.4296L21.8001 44.0684L30.9783 46.1514L40.1565 44.0684L49.2045 46.1514L57.9921 43.9382L66.3241 48.5598L65.8033 49.4711Z" fill="white"/>
</svg>
