<svg width="80" height="80" viewBox="0 0 80 80" fill="none" xmlns="http://www.w3.org/2000/svg">
<path fill-rule="evenodd" clip-rule="evenodd" d="M11 0.0027771H68.1912L68.0525 33.2344C67.2817 52.5953 57.9943 69.4607 39.633 79.9972C20.1696 69.3664 11.6502 52.9197 11.0568 33.6919L11 0.0027771Z" fill="white"/>
<path fill-rule="evenodd" clip-rule="evenodd" d="M40.7047 16.3871C40.7047 14.4224 41.2873 12.5019 42.3788 10.8684C43.4703 9.2348 45.0217 7.96161 46.8368 7.20977C48.6519 6.45793 50.6492 6.26121 52.5761 6.6445C54.503 7.02778 56.2729 7.97385 57.6622 9.36307C59.0514 10.7523 59.9975 12.5223 60.3807 14.4492C60.764 16.3761 60.5673 18.3733 59.8155 20.1884C59.0636 22.0035 57.7904 23.5549 56.1569 24.6464C54.5233 25.7379 52.6028 26.3205 50.6382 26.3205C48.0036 26.3205 45.477 25.274 43.6141 23.4111C41.7513 21.5482 40.7047 19.0216 40.7047 16.3871ZM12.5514 4.54735H46.1116C46.1116 4.54735 43.6688 5.46652 42.0828 7.03036L12.5528 7.02205L12.5514 4.54735ZM12.5514 11.7898V9.29156H40.1016C39.5332 10.0707 39.2532 10.5393 38.743 11.7871L12.5514 11.7898ZM12.5514 16.5937V14.0982H38.0706C37.8876 14.8094 37.8404 15.6398 37.8072 16.5826L12.5514 16.5937ZM12.5514 18.8687H38.0207C38.145 19.7154 38.3683 20.5446 38.6861 21.3392H12.5514V18.8687ZM13.9627 44.7595C12.8536 39.9889 12.4294 35.095 12.5514 29.6964C14.7086 30.0194 15.2437 27.1219 17.3455 27.3645C19.0979 27.5267 21.2274 27.4185 22.8439 26.7184C23.8144 26.5021 24.8375 26.0169 25.8939 26.3954C26.7022 25.9102 27.2415 26.9333 27.7794 27.3659C30.5286 26.6394 31.8762 29.3068 33.8435 30.6544C35.4337 30.4922 37.2124 29.469 38.4532 31.0592C40.3664 31.22 42.1715 31.5708 43.6813 32.7298C44.3551 32.6494 44.5713 31.787 45.1633 31.5708C47.1847 30.8706 49.2601 30.2495 50.878 28.579C52.4945 28.3904 54.3814 28.0674 55.7304 29.1183L57.5327 30.1969C58.7194 29.8724 59.4473 28.7412 60.4441 28.1478C61.4145 27.9329 62.3032 27.5017 63.3555 27.5017C64.4646 26.9624 65.4461 25.7895 66.6592 25.5192C66.687 29.347 66.583 33.9637 66.1865 38.0396C62.629 38.3363 59.4209 37.9856 55.8371 38.0937C55.5806 38.1006 55.5182 38.163 55.6486 38.2823C56.4804 38.8202 57.6699 38.7938 58.56 39.3331C58.6723 39.4427 58.4213 39.5758 58.3173 39.5758L38.1843 39.4676C38.1177 39.4848 38.0573 39.5202 38.0097 39.5698C37.9621 39.6194 37.9293 39.6813 37.9149 39.7485C37.9005 39.8157 37.9051 39.8856 37.9282 39.9504C37.9513 40.0151 37.9919 40.0721 38.0456 40.1151C39.5013 40.6807 41.0374 41.0578 42.5195 41.5167C42.5875 41.5688 42.6355 41.6427 42.6555 41.726C42.6754 41.8093 42.6661 41.897 42.629 41.9742C42.6062 42.0227 42.5722 42.0651 42.5297 42.0979C42.4873 42.1307 42.4377 42.1529 42.385 42.1628L22.1965 42.0532C21.5504 42.081 20.634 41.8647 20.1488 42.4844C20.067 42.8892 20.1751 43.3162 20.5799 43.4008C21.8194 43.7779 23.1406 43.9401 24.2719 44.5099C24.4937 44.74 24.2344 45.1199 23.9488 45.1574L14.0306 45.1282L13.9627 44.7595ZM40.0711 52.9253L41.2717 48.92L43.5925 48.4251L41.9441 53.5755C41.6849 54.234 39.9297 54.2576 40.0711 52.9253ZM41.6821 56.3912C41.6238 56.1582 41.6428 55.9125 41.7362 55.6911L45.241 49.1751C45.5363 48.9325 46.0215 48.7966 46.3501 49.0365C46.5128 49.1884 46.6198 49.3905 46.654 49.6104C46.6882 49.8304 46.6475 50.0554 46.5386 50.2495L43.1697 56.6644C42.7843 57.2605 41.8443 56.9583 41.6821 56.3912ZM34.7502 57.7665L34.0265 54.1619C34.5658 54.0233 35.356 53.8223 35.8953 53.6878L36.558 57.5378C36.6495 57.8858 36.1879 58.2226 35.7803 58.2739C35.4364 58.3017 34.9179 58.231 34.7557 57.7665H34.7502ZM40.5037 54.4655C40.7061 55.4762 39.7952 58.4861 39.1007 59.4565C39.5374 58.0563 40.1585 55.9212 40.5092 54.4655H40.5037ZM35.6361 58.9644C35.6624 58.8826 35.8551 58.9255 35.9134 58.9255L36.4679 61.2561C35.9577 60.7972 35.9383 59.5564 35.6416 58.9644H35.6361ZM35.4517 60.9192L36.8797 63.7224C36.9337 64.1813 36.583 64.478 36.4222 64.8815C36.3247 63.516 35.9985 62.1766 35.4572 60.9192H35.4517ZM38.5835 65.7174C39.4999 62.9142 40.4163 60.0846 41.7362 57.4435H41.9247L41.9913 57.8691C40.6714 60.6183 39.6344 63.3259 38.5835 66.3108V65.7174ZM35.0801 64.6929C34.5408 66.5521 34.8916 68.7633 33.7853 70.3771C33.4359 68.2504 34.2441 66.4176 35.0801 64.6929ZM42.7053 70.1109C43.9988 67.6584 44.5076 64.6125 44.5076 61.8896C45.3699 65.7438 44.7502 69.9487 43.2945 73.2913L42.7053 70.1109ZM39.5526 78.0133C39.1755 74.32 39.0674 70.5268 38.0428 67.0706C37.6921 67.6903 37.5035 68.4985 37.1542 69.1501C37.5313 71.6831 37.5313 74.1896 37.3954 76.8584C35.7317 76.534 36.0756 74.5667 35.8593 73.2192C35.7789 68.2878 39.579 64.783 38.6321 59.6326C38.255 63.4604 36.26 66.5867 34.6115 69.8752C34.1804 71.3295 33.7492 73.2982 34.4729 74.7802C34.4466 74.887 34.3107 74.8343 34.2303 74.8343L33.7187 74.3214C32.9091 70.7639 32.7746 66.4522 33.3139 62.8144C32.482 64.8939 31.7237 67.0997 31.9663 69.5522C32.586 70.8734 32.8051 72.3943 33.0754 73.8763C32.8869 73.9845 32.7524 73.7613 32.5902 73.599C32.0245 70.8498 31.0499 68.1783 29.2975 65.9143C29.5401 66.8307 30.1876 67.7735 30.4066 68.7717C30.6839 69.7948 30.9459 70.8512 30.9196 72.0047L30.6285 72.1115C26.0201 67.9606 21.5712 63.3578 18.9828 58.2102C23.6965 56.8626 29.2504 55.4124 34.0209 54.173C33.734 52.8781 33.447 51.5389 33.2099 50.4104C33.1226 49.8364 33.5163 49.2624 33.9211 49.2624C34.1531 49.2446 34.385 49.2985 34.5853 49.4168C34.7857 49.535 34.9448 49.712 35.0413 49.9237C35.3921 51.1354 35.6402 52.4913 35.8898 53.6989L38.9495 52.8421C39.152 52.7672 39.3807 52.4109 39.2185 52.142C39.1245 51.9917 38.9823 51.8778 38.8151 51.8189L36.1809 51.1174C35.8565 51.0093 35.6846 50.585 35.9037 50.3896C37.5479 49.6894 39.4819 49.3858 41.2606 48.9283C41.6502 47.797 41.7681 45.0298 43.4789 45.4845C43.8019 45.5386 44.0043 45.9226 44.0722 46.132C44.1526 46.9402 43.684 47.9773 43.5828 48.4334L44.179 48.2615L52.8578 46.0502C52.9295 46.0208 52.9892 45.9678 53.027 45.9001C53.0648 45.8323 53.0784 45.7538 53.0657 45.6772C53.0574 45.5497 52.9576 45.4554 52.8037 45.4C52.1063 45.2662 51.4277 45.0488 50.7823 44.7525C50.5688 44.5765 50.5952 44.4503 50.8641 44.3754C54.4216 43.2164 58.1676 42.5426 61.7792 41.464C61.8083 41.4515 61.8041 41.4294 61.7792 41.41C61.2939 41.0329 60.2694 41.2713 60.243 40.5476L66.0243 39.0586C64.3232 51.41 58.3215 63.459 47.6297 72.4581C48.1413 70.6793 48.761 68.6843 48.6002 66.6352H48.5184C48.0609 68.6025 47.2789 70.4894 45.9314 72.1336C45.4198 72.8074 46.2544 74.3435 44.9609 74.4503C45.015 71.7551 46.0118 69.3844 47.1708 67.2009C46.3061 67.9005 45.5865 68.7623 45.0524 69.738C44.8098 71.4363 44.136 72.9724 43.4886 74.5085C43.4082 75.0478 44.0001 75.6176 43.2196 75.802C42.5181 74.5903 42.5458 72.9461 42.1951 71.4903C41.8443 68.8216 41.9247 65.8311 42.0065 63.136C40.0392 67.2314 40.4427 72.4872 41.6821 76.7725C41.6558 76.9347 41.5365 77.0955 41.4048 77.0955C39.6802 73.1069 39.9602 67.7707 40.5799 63.459C39.6635 64.7525 39.3142 66.3704 39.0175 67.987C39.5568 71.1673 40.1488 74.3477 40.2028 77.6348C40.0933 77.8996 39.7966 77.9537 39.554 78.0077L39.5526 78.0133ZM11 0.0027771H68.1912L68.0525 33.2344C67.2817 52.5953 57.9943 69.4607 39.633 79.9972C20.1696 69.3664 11.6502 52.9197 11.0568 33.6919L11 0.0027771Z" fill="#305496"/>
</svg>
