<svg width="80" height="80" viewBox="0 0 80 80" fill="none" xmlns="http://www.w3.org/2000/svg">
<g clip-path="url(#clip0_2491:55309)">
<path d="M42.666 30.3651V16.9047L60.8248 16.0793L78.9835 16.9047V40.4603C78.92 50.1111 69.9676 58.4921 60.8248 62.873C51.5549 58.5555 42.666 50.2381 42.666 40.5238V38.873V30.3651Z" fill="white"/>
<path d="M71.3643 35.6349C71.3643 35.4445 71.2374 35.3175 71.0469 35.3175C70.8564 35.3175 70.7294 35.4445 70.7294 35.6349C70.7294 35.8254 70.8564 35.9524 71.0469 35.9524C71.2374 35.9524 71.4278 35.8254 71.3643 35.6349ZM47.9358 35.7619C47.9993 35.7619 45.9675 38.873 47.3009 40.5238C47.4913 40.7778 48.0628 38.746 50.412 37.4762C50.4755 37.4762 50.9199 37.1587 52.2532 37.4127C52.3802 37.4127 51.7453 38.1111 51.6818 38.1746V38.2381C52.6977 38.4286 53.9675 39.0635 54.5389 40.0794C54.5389 40.0794 54.5389 40.0794 54.6024 40.0794C54.7294 40.0794 55.7453 39.0635 56.8882 38.873L58.5389 39.381C58.5389 39.381 57.5231 41.0953 57.4596 41.4762C57.4596 41.4762 57.4596 41.5397 57.5231 41.5397C57.5866 41.5397 60.6977 40.2064 61.2691 39.9524C68.7612 41.0953 75.1739 36.0159 75.1739 36.0159C74.031 35.5079 69.9675 33.7302 63.3643 33.7302C62.412 33.3492 60.6977 31.5714 60.6977 31.5714C60.2532 31.8254 57.5231 33.2857 56.5707 33.5397C56.5707 33.6032 57.0786 34.3016 57.1421 34.3016C56.6342 34.4286 53.5866 35 51.4913 35C51.0469 35 50.6024 34.873 50.2215 34.6826C48.5707 33.8572 46.7294 31.5714 46.6659 31.5714C46.412 31.5714 45.904 34.1746 47.9358 35.7619ZM62.5389 33.6667C62.6024 33.7302 62.6659 33.7302 62.7294 33.7937C60.3167 33.9206 57.777 34.4286 57.777 34.3651C57.777 34.3651 57.7136 34.3016 57.6501 34.2381C57.6501 34.2381 57.2691 33.7937 57.2691 33.7302C59.4278 33.0318 60.6977 32.1429 60.7612 32.1429C61.9675 33.2857 61.904 33.2857 62.5389 33.6667ZM71.6818 35.6349C71.6818 35.9524 71.4278 36.2699 71.0469 36.2699C70.6659 36.2699 70.412 36.0159 70.412 35.6984C70.412 35.381 70.6659 35.0635 71.0469 35.0635C71.4278 35 71.6818 35.3175 71.6818 35.6349ZM69.2056 38.4921L68.6977 37.5397L68.8882 37.2222C69.0786 37.6032 69.3326 37.9841 69.904 38.3651C69.6501 38.3651 69.4596 38.4286 69.2056 38.4921ZM68.1263 38.5556L68.5072 37.7302L68.9516 38.5556C68.6977 38.6191 68.4437 38.6826 68.1897 38.746L68.1263 38.5556ZM65.8405 36.3968L66.2215 35.5714L66.6659 36.3333L66.285 37.1587L65.8405 36.3968ZM66.158 37.4127L65.777 38.1746L65.3326 37.4127L65.7136 36.5873L66.158 37.4127ZM66.8564 36.5873L67.3009 37.4127L66.9199 38.2381L66.4755 37.4127L66.8564 36.5873ZM66.9834 36.3968L67.3643 35.5714L67.8088 36.3968L67.4278 37.2222L66.9834 36.3968ZM67.9358 36.6508L68.4437 37.5397L67.9993 38.3651L67.4913 37.4762L67.9358 36.6508ZM67.9993 38.8095C68.0628 38.8095 67.9993 38.8095 67.9993 38.8095V38.8095ZM67.3009 39L66.9834 38.4921L67.3643 37.6667L67.8723 38.5556L67.6818 38.873C67.5548 38.9365 67.4278 38.9365 67.3009 39ZM66.7294 39.0635L66.9199 38.6826L67.1104 39C66.9199 39.0635 66.7929 39.0635 66.7294 39.0635ZM66.285 39.127L65.904 38.4286L66.285 37.6667L66.7294 38.4921L66.412 39.127C66.412 39.127 66.3485 39.127 66.285 39.127ZM65.5231 39.1905L65.777 38.6826L66.031 39.127C65.8405 39.1905 65.7135 39.1905 65.5231 39.1905ZM65.2691 39.254L64.8247 38.4921L65.2056 37.7302L65.6501 38.4921L65.2691 39.254ZM59.1739 36.7143L59.6183 37.4762L59.2374 38.2381L58.7929 37.4762L59.1739 36.7143ZM58.6659 37.2857L58.2215 36.5238L58.6024 35.6984L59.0469 36.4603L58.6659 37.2857ZM59.7453 37.7302L60.1897 38.5556L60.0628 38.873C59.8723 38.8095 59.6818 38.8095 59.4913 38.746L59.4278 38.5556L59.7453 37.7302ZM59.3009 36.4603L59.6818 35.6349L60.1262 36.3968L59.7453 37.2222L59.3009 36.4603ZM60.3167 36.7143L60.7612 37.5397L60.3167 38.3016L59.8723 37.4762L60.3167 36.7143ZM60.3167 38.8095L60.3802 38.9365C60.3167 38.9365 60.3167 38.9365 60.2532 38.9365L60.3167 38.8095ZM60.4437 36.4603L60.8247 35.6984L61.2691 36.5238L60.8882 37.2857L60.4437 36.4603ZM61.3961 36.7143L61.8405 37.4762L61.4596 38.2381L61.0151 37.4762L61.3961 36.7143ZM61.5231 36.4603L61.904 35.6349L62.3485 36.3968L61.9675 37.2222L61.5231 36.4603ZM62.4755 36.6508L62.9199 37.4127L62.5389 38.2381L62.0945 37.4762L62.4755 36.6508ZM62.6024 36.4603L62.9834 35.6349L63.4278 36.3968L63.0469 37.2222L62.6024 36.4603ZM63.5548 36.6508L63.9993 37.4127L63.6183 38.2381L63.1739 37.4762L63.5548 36.6508ZM63.6818 36.3968L64.0628 35.5714L64.5072 36.3333L64.1262 37.1587L63.6818 36.3968ZM64.6342 36.6508L65.0786 37.4127L64.6977 38.2381L64.2532 37.4762L64.6342 36.6508ZM64.3802 39.254L64.6977 38.6826L65.0151 39.254C64.8247 39.254 64.6342 39.254 64.3802 39.254ZM64.1897 39.254L63.7453 38.4921L64.1262 37.6667L64.5707 38.4286L64.1897 39.254ZM63.3643 39.254L63.6183 38.746L63.9358 39.3175C63.7453 39.254 63.5548 39.254 63.3643 39.254ZM63.0469 39.254L62.6659 38.4921L63.0469 37.6667L63.4913 38.4286L63.0469 39.254C63.1104 39.254 63.0469 39.254 63.0469 39.254ZM62.285 39.1905L62.5389 38.746L62.7929 39.254C62.6024 39.1905 62.4755 39.1905 62.285 39.1905ZM61.904 39.127L61.5866 38.4921L61.9675 37.7302L62.412 38.4921L62.0945 39.127C62.031 39.127 61.9675 39.127 61.904 39.127ZM61.2691 39.0635L61.3961 38.746L61.5866 39.0635C61.5231 39.0635 61.3961 39.0635 61.2691 39.0635ZM60.6977 38.9365L60.4437 38.4921L60.8247 37.6667L61.2691 38.4286L61.0151 38.9365C60.9516 39 60.8247 39 60.6977 38.9365ZM59.1739 39.5079C59.9358 39.6984 60.3802 39.7619 60.6342 39.8254L58.3485 40.7778L59.1739 39.5079ZM58.3485 38.4286L58.6659 37.7937L59.1104 38.5556L59.0469 38.6191C58.7929 38.5556 58.6024 38.4921 58.3485 38.4286ZM58.158 38.3016L57.7136 37.5397L58.0945 36.7778L58.5389 37.5397L58.158 38.3016ZM57.5866 37.2857L57.1421 36.5238L57.5231 35.7619L57.9675 36.5238L57.5866 37.2857ZM57.3961 38.1746L57.5866 37.7937L57.8405 38.3016C57.7135 38.2381 57.5866 38.2381 57.3961 38.1746ZM56.6342 37.5397L57.0151 36.7778L57.4596 37.5397L57.2056 38.1111C57.0786 38.1111 57.0151 38.0476 56.8882 38.0476L56.6342 37.5397ZM53.904 36.5873L54.285 35.7619L54.7294 36.5238L54.3485 37.2222C54.285 37.2222 54.285 37.2222 54.2215 37.1587L53.904 36.5873ZM53.9675 37.1587C53.8405 37.1587 53.777 37.0953 53.6501 37.0953L53.777 36.8413L53.9675 37.1587ZM54.8564 36.8413L55.2374 37.5397C55.0469 37.4762 54.7929 37.4127 54.6024 37.3492L54.8564 36.8413ZM54.9834 36.5873L55.3643 35.7619L55.8088 36.5238L55.3643 37.3492L54.9834 36.5873ZM55.9358 36.7778L56.3802 37.5397L56.2532 37.7937C55.9993 37.7302 55.7453 37.6667 55.5548 37.6032L55.9358 36.7778ZM56.0628 36.5238L56.4437 35.7619L56.8882 36.5238L56.5072 37.3492L56.0628 36.5238ZM56.4437 37.9206L56.5072 37.7937L56.5707 37.9206C56.5707 37.9206 56.5072 37.9206 56.4437 37.9206ZM52.3167 37.9206C52.4437 37.7302 52.5072 37.6032 52.5707 37.4762C53.9675 37.7937 56.2532 38.6191 56.3802 38.6826C55.9358 38.9365 55.3009 39.127 54.9199 39.5714C54.031 38.6191 53.2056 38.2381 52.3167 37.9206ZM53.3961 37.0318C53.2691 37.0318 53.1421 36.9683 53.0151 36.9683L52.7612 36.5873L53.1421 35.8254L53.5866 36.5873L53.3961 37.0318ZM52.6342 36.9048L52.7612 36.9683C52.6977 36.9048 52.6342 36.9048 52.6342 36.9048ZM51.7453 36.6508L52.1262 35.8889L52.5707 36.6508L52.4437 36.9683C52.2532 36.9683 52.0628 36.9683 51.9358 36.9048L51.7453 36.6508ZM50.6024 36.6508L51.0469 35.8254L51.4913 36.5873L51.3643 36.8413C51.1739 36.8413 50.9834 36.9048 50.7929 36.9048L50.6024 36.6508ZM50.2215 36.0159C50.2215 35.9524 50.285 35.7619 50.285 35.6349C50.3485 35.4445 50.3485 35.254 50.3485 35.254C50.412 35.254 50.4755 35.3175 50.4755 35.3175H50.5389C53.0786 35.9524 62.7294 33.4762 68.7612 34.873C69.1421 34.9365 69.5866 35 69.9675 35.0635C69.9675 35.1905 69.904 35.5714 69.904 35.6349C69.904 36.2064 70.412 36.5873 71.0469 36.5238C71.9358 36.4603 72.0628 35.6349 72.0628 35.6349C72.1897 35.6349 72.8882 35.8889 72.8882 35.9524C72.3802 36.2064 71.1739 37.0318 70.5389 37.2857C70.6024 37.3492 70.7294 37.4127 70.8564 37.4762C70.8564 37.4762 73.0151 36.2699 73.3961 36.1429C73.4596 36.1429 73.6501 36.2699 73.777 36.2699C73.2691 36.5238 70.4755 38.1111 70.412 38.0476C68.8247 37.2222 68.8882 35.8889 69.2056 35.127C69.0151 35 68.8247 35 68.8247 35C68.8247 35 68.3802 35.8889 68.6977 36.8413L68.5072 37.2222L67.9993 36.3333L68.5072 35.381C68.4437 35.381 68.3802 35.3175 68.3167 35.3175L67.8723 36.1429L67.4278 35.3175L67.5548 35.127C67.4913 35.127 67.4278 35.127 67.3643 35.127C67.3009 35.127 67.1739 35.127 67.1104 35.127L67.2374 35.381L66.8564 36.2064L66.412 35.381L66.5389 35.0635C66.4755 35.0635 66.3485 35.0635 66.285 35.0635C66.2215 35.0635 66.2215 35.0635 66.2215 35.0635C66.158 35.0635 66.031 35.0635 65.9675 35.0635L66.158 35.381L65.777 36.2064L65.6501 36.4603L65.2691 37.2857L64.8247 36.5238L65.2056 35.6984L65.3326 35.4445L65.5231 35.0635C65.4596 35.0635 65.3326 35.0635 65.2691 35.0635C65.2056 35.0635 65.2056 35.0635 65.1421 35.0635C65.0786 35.0635 64.9516 35.0635 64.8882 35.0635L65.0786 35.4445L64.6977 36.2699L64.2532 35.5079L64.4437 35.127C64.3802 35.127 63.8723 35.127 63.8088 35.127L63.9993 35.5079L63.6183 36.3333L63.1739 35.5714L63.3643 35.1905C63.3009 35.1905 62.7929 35.1905 62.7294 35.1905L62.9199 35.5714L62.5389 36.3968L62.0945 35.6349L62.2215 35.0635C62.158 35.0635 61.7136 35.0635 61.5866 35.0635L61.777 35.381L61.3961 36.2064L60.9516 35.4445L61.1421 35.127C61.0786 35.127 60.6342 35.127 60.5707 35.1905L60.7612 35.5079L60.3167 36.2064L59.8723 35.4445L59.9993 35.1905C59.9358 35.1905 59.5548 35.1905 59.4913 35.254L59.6183 35.4445L59.2374 36.2699L58.7929 35.5079L58.9199 35.3175C58.8564 35.3175 58.5389 35.3175 58.4755 35.381L58.6024 35.5714L58.2215 36.3968L57.777 35.6349L57.8405 35.4445C57.777 35.4445 57.4596 35.4445 57.3961 35.4445L57.4596 35.5714L57.0786 36.3333L56.6342 35.5714L56.6977 35.4445C56.6342 35.4445 56.3802 35.4445 56.3167 35.4445V35.5079L55.9358 36.3333L55.4913 35.5079C55.4278 35.5079 55.2374 35.5079 55.2374 35.5079L54.8564 36.3333L54.412 35.5714C54.3485 35.5714 54.0945 35.5714 54.0945 35.5714L53.777 36.3333L53.3326 35.6349H52.9516L52.6342 36.3333L52.2532 35.6984H51.8723L51.5548 36.3333L51.1739 35.6984H50.7294L50.412 36.3333L50.2215 36.0159ZM48.3802 35.7619C48.3802 35.7619 47.9993 35.381 47.7453 35.0635C46.7294 33.8572 46.7929 32.3968 46.7929 32.2699C47.4278 32.9048 48.8247 34.6826 50.031 35.127C50.031 35.127 49.4596 36.2699 50.0945 37.1587C49.0786 37.4762 48.0628 38.746 47.3643 39.5714C47.1104 37.7937 48.4437 35.8254 48.3802 35.7619ZM65.7136 36.1429L65.2691 35.381L65.1421 35.6349L65.5866 36.3968L65.7136 36.1429Z" fill="#2C3667"/>
<path d="M41.6504 30.4921V38.8095V40.8413C41.6504 40.9048 41.6504 40.9683 41.6504 41.0317C42.0313 51.1905 51.4282 59.8254 60.825 63.9524C61.2694 63.7619 61.6504 63.5714 62.0948 63.3175C62.0948 63.3175 62.0948 63.3175 62.1583 63.3175C64.5075 62.1111 66.9837 60.5238 68.952 59C69.5234 58.5556 70.0948 58.1111 70.6028 57.6667C75.2377 53.7302 79.9996 47.8889 79.9996 40.3968V16.0159L60.825 15.127L41.6504 16.0159V30.4921ZM42.6663 30.3651V16.9048L60.825 16.0794L78.9837 16.9048V40.4603C78.9202 50.1111 69.9679 58.4921 60.825 62.873C51.5552 58.5556 42.6663 50.2381 42.6663 40.5238V38.873V30.3651Z" fill="#2C3667"/>
<path d="M50.5401 25.3492C50.7305 25.3492 50.8575 25.2222 50.8575 25.0317C50.8575 24.8413 50.7305 24.7143 50.5401 24.7143C50.3496 24.7143 50.2226 24.8413 50.2226 25.0317C50.2226 25.2222 50.4131 25.3492 50.5401 25.3492ZM74.9845 20.9048C74.921 20.9048 73.0797 23.1905 71.4289 24.0159C71.048 24.2063 70.6035 24.3333 70.1591 24.3333C68.0639 24.2698 65.0162 23.7619 64.5083 23.6349C64.5718 23.6349 65.0797 22.9365 65.0797 22.873C64.1274 22.619 61.3337 21.2222 60.9528 20.9048C60.9528 20.9048 59.2385 22.6825 58.2861 23.0635C51.6829 23.0635 47.6194 24.8413 46.4766 25.3492C46.4766 25.3492 52.8893 30.4286 60.3813 29.2857C60.9528 29.4762 64.0639 30.873 64.1274 30.873C64.1909 30.873 64.1908 30.873 64.1908 30.8095C64.1274 30.4286 63.1115 28.7143 63.1115 28.7143L64.7623 28.2063C65.8416 28.4603 66.921 29.4127 67.048 29.4127C67.1115 29.4127 67.1115 29.4127 67.1115 29.4127C67.6829 28.3968 69.0162 27.7619 69.9686 27.5714V27.5079C69.9051 27.4444 69.2702 26.8095 69.3972 26.746C70.7305 26.5555 71.175 26.8095 71.2385 26.8095C73.5877 28.0794 74.1591 30.1111 74.3496 29.8571C75.6829 28.2063 73.6512 25.0952 73.7147 25.0952C75.7464 23.5714 75.2385 20.9048 74.9845 20.9048ZM59.1115 23.0635C59.7464 22.619 59.7464 22.6825 60.9528 21.5397C61.0162 21.4762 62.2861 22.4286 64.4448 23.127C64.4448 23.1905 64.0639 23.6349 64.0639 23.6349C64.0004 23.6984 64.0004 23.7619 63.9369 23.7619C63.9369 23.8254 61.3972 23.254 58.9845 23.254C58.9845 23.1905 59.048 23.127 59.1115 23.0635ZM50.6035 24.3968C50.9845 24.3968 51.2385 24.6508 51.2385 25.0317C51.2385 25.3492 50.921 25.6032 50.6035 25.6032C50.2226 25.6032 49.9686 25.3492 49.9686 24.9682C49.9686 24.6508 50.2226 24.3968 50.6035 24.3968ZM51.8099 27.6984C52.3178 27.3809 52.6353 27 52.8258 26.5555L53.0162 26.873L52.5083 27.8254C52.1908 27.8254 52.0004 27.7619 51.8099 27.6984ZM53.3972 28.1429C53.1432 28.0794 52.8893 28.0159 52.6353 27.9524L53.0797 27.127L53.4607 27.9524L53.3972 28.1429ZM55.3655 26.5555L54.9845 25.7302L55.4289 24.9682L55.8099 25.7936L55.3655 26.5555ZM55.8734 26.0476L56.2543 26.873L55.8734 27.5714L55.4924 26.8095L55.8734 26.0476ZM55.2385 26.8095L54.794 27.6349L54.3496 26.8095L54.794 25.9841L55.2385 26.8095ZM54.2226 26.5555L53.8416 25.7302L54.2861 24.9048L54.667 25.7302L54.2226 26.5555ZM54.0956 26.8095L53.5877 27.6984L53.2067 26.873L53.7147 25.9841L54.0956 26.8095ZM53.9051 28.2698L53.7147 27.9524L54.2226 27.0635L54.6035 27.8889L54.2861 28.3968C54.2226 28.3333 54.0321 28.2698 53.9051 28.2698ZM54.6035 28.3968L54.794 28.0794L54.9845 28.4603C54.794 28.4603 54.7305 28.3968 54.6035 28.3968ZM55.2385 28.5238L54.921 27.8889L55.3655 27.0635L55.7464 27.8254L55.3655 28.5238C55.302 28.5238 55.2385 28.5238 55.2385 28.5238ZM55.6194 28.5238L55.8734 28.0794L56.1274 28.5873C55.9369 28.5873 55.8099 28.5873 55.6194 28.5238ZM56.3813 28.6508L56.0004 27.8889L56.4448 27.127L56.8258 27.8889L56.3813 28.6508ZM62.8575 26.9365L62.4131 27.6984L62.0321 26.9365L62.4766 26.1746L62.8575 26.9365ZM62.6035 25.8571L63.048 25.0952L63.4289 25.9206L62.9845 26.6825L62.6035 25.8571ZM62.2861 27.9524L62.1591 28.0794C61.9686 28.1429 61.7782 28.1428 61.5877 28.2063L61.4607 27.8889L61.9051 27.0635L62.2861 27.9524ZM61.9051 26.619L61.5242 25.7936L61.9686 25.0317L62.3496 25.8571L61.9051 26.619ZM61.7782 26.873L61.3337 27.6984L60.9528 26.873L61.3972 26.0476L61.7782 26.873ZM61.3337 28.2698C61.2702 28.2698 61.2702 28.2698 61.2067 28.2698L61.2702 28.1429L61.3337 28.2698ZM60.7623 26.619L60.3813 25.8571L60.8258 25.0317L61.2067 25.7936L60.7623 26.619ZM60.6353 26.873L60.1909 27.6349L59.8099 26.873L60.2543 26.1111L60.6353 26.873ZM59.6829 26.619L59.302 25.7936L59.7464 25.0317L60.1274 25.8571L59.6829 26.619ZM59.5559 26.873L59.1115 27.6349L58.7305 26.8095L59.175 26.0476L59.5559 26.873ZM58.6036 26.619L58.2226 25.7936L58.667 25.0317L59.048 25.8571L58.6036 26.619ZM58.4766 26.873L58.0321 27.6349L57.6512 26.8095L58.0956 26.0476L58.4766 26.873ZM57.5242 26.619L57.1432 25.7936L57.5877 25.0317L57.9686 25.8571L57.5242 26.619ZM57.3972 26.8095L56.9528 27.5714L56.5718 26.8095L57.0162 26.0476L57.3972 26.8095ZM56.6353 28.6508L56.9528 28.0794L57.2702 28.6508C57.0162 28.6508 56.8258 28.6508 56.6353 28.6508ZM57.0797 27.8254L57.5242 27.0635L57.9051 27.8889L57.4607 28.6508L57.0797 27.8254ZM57.7147 28.6508L58.0321 28.0794L58.2861 28.5873C58.0956 28.6508 57.9051 28.6508 57.7147 28.6508ZM58.5401 28.6508L58.1591 27.8889L58.6036 27.127L58.9845 27.9524L58.5401 28.6508C58.6035 28.6508 58.5401 28.6508 58.5401 28.6508ZM58.8575 28.5873L59.1115 28.0794L59.3655 28.5238C59.175 28.5873 59.048 28.5873 58.8575 28.5873ZM59.5559 28.5238L59.2385 27.8889L59.6829 27.127L60.0639 27.8889L59.7464 28.5238C59.6829 28.5238 59.6194 28.5238 59.5559 28.5238ZM60.0004 28.5238L60.1909 28.2063L60.3178 28.5238C60.2543 28.4603 60.1274 28.4603 60.0004 28.5238ZM60.5718 28.3968L60.3178 27.8889L60.7623 27.127L61.1432 27.9524L60.9528 28.3333C60.8258 28.3968 60.6988 28.3968 60.5718 28.3968ZM63.302 30.1746L61.0162 29.2222C61.2702 29.1587 61.7782 29.1587 62.4766 28.9048L63.302 30.1746ZM62.6035 28.0159L62.5401 27.9524L62.9845 27.1905L63.302 27.8254C63.048 27.8889 62.794 27.9524 62.6035 28.0159ZM63.1115 26.9365L63.5559 26.1746L63.9369 26.9365L63.4924 27.6984L63.1115 26.9365ZM63.6829 25.9206L64.1274 25.1587L64.5083 25.9206L64.0639 26.6825L63.6829 25.9206ZM63.7464 27.6984L64.0004 27.1905L64.1908 27.5714C64.0639 27.5714 63.9369 27.6349 63.7464 27.6984ZM64.7623 27.3809C64.6353 27.3809 64.5718 27.4444 64.4448 27.4444L64.1908 26.873L64.6353 26.1111L65.0162 26.873L64.7623 27.3809ZM67.4289 26.619C67.3655 26.619 67.3655 26.619 67.302 26.6825L66.921 25.9841L67.3655 25.2222L67.7464 26.0476L67.4289 26.619ZM67.8734 26.2381L68.0004 26.4921C67.8734 26.4921 67.8099 26.5555 67.6829 26.5555L67.8734 26.2381ZM67.048 26.746C66.8575 26.8095 66.6035 26.873 66.4131 26.9365L66.794 26.2381L67.048 26.746ZM66.2226 26.746L65.7782 25.9206L66.2226 25.1587L66.6035 25.9841L66.2226 26.746ZM66.0956 27C65.8416 27.0635 65.6512 27.127 65.3972 27.1905L65.2702 26.9365L65.7147 26.1746L66.0956 27ZM65.1432 26.6825L64.7623 25.9206L65.2067 25.1587L65.5877 25.9206L65.1432 26.6825ZM65.0797 27.3175L65.1432 27.1905L65.2067 27.3175C65.1432 27.3175 65.0797 27.3175 65.0797 27.3175ZM66.7305 28.9048C66.2861 28.5238 65.7147 28.2698 65.2702 28.0159C65.3972 27.9524 67.6829 27.127 69.0797 26.8095C69.1432 26.9365 69.1432 27.127 69.3337 27.254C68.4448 27.6349 67.6194 28.0159 66.7305 28.9048ZM68.0004 25.9841L68.4448 25.2222L68.8258 25.9841L68.5718 26.3651C68.4448 26.3651 68.3178 26.4286 68.1909 26.4286L68.0004 25.9841ZM68.8893 26.3016L68.9528 26.1746L69.0162 26.2381C68.9528 26.3016 68.9528 26.3016 68.8893 26.3016ZM69.7782 26.2381C69.5877 26.2381 69.3972 26.2381 69.2702 26.3016L69.1432 25.9841L69.5877 25.2222L69.9686 25.9841L69.7782 26.2381ZM70.8575 26.3651C70.667 26.3016 70.4766 26.3016 70.2861 26.3016L70.1591 26.0476L70.6035 25.2857L71.048 26.1111L70.8575 26.3651ZM71.175 25.7936L70.8575 25.1587H70.4131L70.0321 25.7936L69.7147 25.1587H69.3337L68.9528 25.7936L68.6353 25.0952H68.2543L67.8734 25.7936L67.4924 25.0317C67.4924 25.0317 67.302 25.0317 67.175 25.0317L66.7305 25.7936L66.3496 24.9682C66.3496 24.9682 66.1591 24.9682 66.0956 24.9682L65.6512 25.7302L65.2702 24.9048V24.8413C65.2702 24.8413 64.9528 24.8413 64.8893 24.8413L64.9528 24.9682L64.5083 25.7302L64.1274 24.9682L64.1908 24.8413C64.1274 24.8413 63.8099 24.8413 63.7464 24.8413L63.8099 25.0317L63.3655 25.7936L62.9845 24.9682L63.1115 24.7778C63.048 24.7778 62.7305 24.7778 62.667 24.7143L62.794 24.9048L62.3496 25.6667L61.9686 24.8413L62.0956 24.6508C62.0321 24.6508 61.7147 24.6508 61.5877 24.5873L61.7147 24.8413L61.2702 25.6032L60.9528 24.8413L61.1432 24.5238C61.0797 24.5238 60.6353 24.5238 60.5718 24.4603L60.6988 24.7778L60.2543 25.6032L59.8734 24.7778L60.0639 24.4603C60.0004 24.4603 59.5559 24.4603 59.4289 24.4603L59.6194 24.8413L59.175 25.6032L58.794 24.7778L58.9845 24.3968C58.921 24.3968 58.4131 24.3968 58.3496 24.3968L58.5401 24.7778L58.0956 25.5397L57.7147 24.7143L57.9051 24.3333C57.8416 24.3333 57.3337 24.3333 57.2702 24.3333L57.4607 24.7143L57.0162 25.5397L56.6353 24.7143L56.8258 24.3333C56.7623 24.3333 56.6353 24.3333 56.5718 24.3333C56.5083 24.3333 56.4448 24.3333 56.4448 24.3333C56.3813 24.3333 56.2543 24.3333 56.1909 24.3333L56.3813 24.7143L56.5083 24.9682L56.8893 25.7936L56.4448 26.5555L56.0639 25.7302L55.9369 25.5397L55.5559 24.7143L55.7464 24.3968C55.6829 24.3968 55.5559 24.3968 55.4924 24.3968H55.4289C55.3655 24.3968 55.2385 24.3968 55.175 24.3968L55.302 24.7143L54.794 25.5397L54.4131 24.7143L54.5401 24.4603C54.4766 24.4603 54.3496 24.4603 54.2861 24.4603C54.2226 24.4603 54.1591 24.4603 54.0956 24.4603L54.2226 24.6508L53.7147 25.5397L53.2702 24.7143C53.2067 24.7143 53.1432 24.7778 53.0797 24.7778L53.5877 25.7302L53.0797 26.619L52.8893 26.2381C53.1432 25.2857 52.7623 24.3968 52.7623 24.3968C52.7623 24.3968 52.5718 24.3968 52.3813 24.5238C52.6988 25.2857 52.7623 26.5555 51.175 27.4444C51.1115 27.4444 48.3178 25.9206 47.8099 25.6667C47.9369 25.6667 48.1274 25.4762 48.1909 25.5397C48.5083 25.6667 50.667 26.873 50.7305 26.873C50.8575 26.8095 50.9845 26.746 51.048 26.6825C50.3496 26.3651 49.1432 25.6032 48.6988 25.3492C48.7623 25.2857 49.3972 25.0317 49.5242 25.0317C49.5242 25.0317 49.6512 25.9206 50.5401 25.9206C51.2385 25.9206 51.6829 25.6032 51.6829 25.0317C51.6829 24.9682 51.6194 24.5873 51.6194 24.4603C52.0004 24.3968 52.4448 24.3333 52.8258 24.2698C58.8575 22.873 68.5718 25.3492 71.048 24.7143H71.1115C71.175 24.7143 71.2385 24.7143 71.2385 24.6508C71.2385 24.6508 71.302 24.8413 71.302 25.0317C71.3655 25.1587 71.3655 25.3492 71.3655 25.4127L71.175 25.7936ZM74.2226 28.9682C73.5242 28.0794 72.5083 26.873 71.4924 26.5555C72.1274 25.6667 71.5559 24.5238 71.5559 24.5238C72.7623 24.1428 74.1591 22.3651 74.794 21.6667C74.794 21.7936 74.8575 23.1905 73.8416 24.4603C73.5877 24.7778 73.2067 25.1587 73.2067 25.1587C73.2067 25.2222 74.5401 27.127 74.2226 28.9682ZM56.0639 25.7936L56.5083 25.0317L56.3813 24.7778L55.9369 25.5397L56.0639 25.7936Z" fill="#2C3667"/>
<path d="M51.4276 46.4286C51.5546 46.4286 51.6816 46.3016 51.7451 46.1746C51.7451 46.0476 51.6181 45.9206 51.4911 45.9206C51.3641 45.9206 51.2372 46.0476 51.1737 46.1746C51.1102 46.3016 51.2372 46.4286 51.4276 46.4286ZM72.507 42.619C72.4435 42.619 70.8562 44.5873 69.3959 45.3492C69.0784 45.4762 68.634 45.6032 68.3165 45.6032C66.4753 45.5397 63.8721 45.0952 63.4276 44.9683L63.9356 44.3333C63.1102 44.0794 60.6975 42.873 60.38 42.619C60.38 42.619 58.8562 44.1429 58.0308 44.5238C52.3165 44.5238 48.8245 46.1111 47.8086 46.4921C47.8086 46.4921 53.3324 50.873 59.8086 49.8571C60.3165 50.0476 62.9832 51.1905 63.0467 51.1905C63.1102 51.1905 63.1102 51.1905 63.1102 51.127C63.0467 50.8095 62.2213 49.3492 62.2213 49.3492L63.6816 48.9048C64.634 49.0952 65.5229 49.9841 65.6499 49.9841C65.7134 49.9841 65.6499 49.9841 65.7134 49.9841C66.2213 49.0952 67.3642 48.5873 68.1895 48.3968V48.3333C68.1261 48.2698 67.6181 47.6984 67.6816 47.6984C68.8245 47.5079 69.2054 47.7619 69.2689 47.7619C71.3007 48.8413 71.8086 50.619 71.9356 50.4286C73.0784 48.9683 71.3642 46.3016 71.3642 46.3016C73.1419 44.9048 72.6975 42.619 72.507 42.619ZM58.7927 44.4603C59.3641 44.0794 59.3007 44.0794 60.38 43.1905C60.4435 43.127 61.5229 43.9524 63.3642 44.5238C63.3642 44.5873 63.0467 44.9683 63.0467 44.9683C62.9832 45.0317 62.9832 45.0317 62.9197 45.0952C62.9197 45.0952 60.6975 44.6508 58.6022 44.6508C58.6657 44.5238 58.7292 44.5238 58.7927 44.4603ZM51.4276 45.6032C51.7451 45.6032 51.9991 45.8571 51.9991 46.1111C51.9991 46.4286 51.7451 46.619 51.4276 46.619C51.1102 46.619 50.8562 46.3651 50.8562 46.1111C50.8562 45.8571 51.1102 45.6032 51.4276 45.6032ZM52.4435 48.4603C52.888 48.2063 53.1419 47.8254 53.2689 47.5079L53.3959 47.8254L52.9515 48.6508C52.8245 48.5873 52.634 48.5238 52.4435 48.4603ZM53.8403 48.8413C53.6499 48.7778 53.3959 48.7143 53.2054 48.6508L53.5864 47.9524L53.9673 48.6508L53.8403 48.8413ZM55.5546 47.4444L55.2372 46.746L55.6181 46.0476L55.9356 46.746L55.5546 47.4444ZM55.9991 47L56.3165 47.6984L55.9991 48.3968L55.6816 47.6984L55.9991 47ZM55.4276 47.6984L55.0467 48.3968L54.7292 47.6984L55.1102 47L55.4276 47.6984ZM54.6022 47.5079L54.2213 46.8095L54.6022 46.1111L54.9832 46.8095L54.6022 47.5079ZM54.4753 47.6984L54.0308 48.4603L53.7134 47.7619L54.1578 47L54.4753 47.6984ZM54.2848 48.9683L54.1578 48.6508L54.6022 47.8889L54.9197 48.5873L54.6657 49.0317C54.5388 49.0317 54.4118 48.9683 54.2848 48.9683ZM54.8562 49.0952L54.9832 48.8413L55.1737 49.1587C55.1102 49.0952 54.9832 49.0952 54.8562 49.0952ZM55.4276 49.1587L55.1737 48.5873L55.5546 47.8889L55.8721 48.5873L55.5546 49.1587C55.4911 49.1587 55.4911 49.1587 55.4276 49.1587ZM55.7451 49.2222L55.9356 48.8413L56.1895 49.2857C56.0626 49.2222 55.9356 49.2222 55.7451 49.2222ZM56.4435 49.2857L56.1261 48.5873L56.507 47.8889L56.8245 48.5873L56.4435 49.2857ZM62.0308 47.7619L61.6499 48.3968L61.2689 47.7619L61.6499 47.0635L62.0308 47.7619ZM61.7768 46.873L62.1578 46.2381L62.5388 46.9365L62.1578 47.5714L61.7768 46.873ZM61.5229 48.6508L61.4594 48.7778C61.2689 48.8413 61.1419 48.8413 60.9515 48.9048L60.8245 48.6508L61.2054 47.9524L61.5229 48.6508ZM61.2054 47.5714L60.8245 46.873L61.2054 46.1746L61.5864 46.873L61.2054 47.5714ZM61.0784 47.7619L60.6975 48.4603L60.3165 47.7619L60.6975 47.0635L61.0784 47.7619ZM60.761 48.9683C60.761 48.9683 60.6975 48.9683 60.634 48.9683L60.6975 48.8413L60.761 48.9683ZM60.253 47.5714L59.9356 46.873L60.3165 46.1746L60.634 46.873L60.253 47.5714ZM60.1261 47.7619L59.7451 48.4603L59.4276 47.7619L59.8086 47.0635L60.1261 47.7619ZM59.3007 47.5079L58.9197 46.8095L59.3007 46.1111L59.6816 46.8095L59.3007 47.5079ZM59.1737 47.7619L58.7927 48.3968L58.4118 47.6984L58.7927 47L59.1737 47.7619ZM58.3483 47.5079L58.0308 46.8095L58.4118 46.1111L58.7927 46.8095L58.3483 47.5079ZM58.2213 47.6984L57.8403 48.3968L57.5229 47.6984L57.9038 47L58.2213 47.6984ZM57.3959 47.5079L57.0784 46.8095L57.4594 46.1111L57.8403 46.8095L57.3959 47.5079ZM57.3324 47.6984L56.9514 48.3968L56.634 47.6984L57.0149 47L57.3324 47.6984ZM56.634 49.2857L56.888 48.8413L57.1419 49.3492C57.0149 49.2857 56.8245 49.2857 56.634 49.2857ZM57.0149 48.5873L57.3959 47.8889L57.7768 48.5873L57.3959 49.2857L57.0149 48.5873ZM57.5864 49.2857L57.8403 48.7778L58.0943 49.2222C57.9038 49.2857 57.7768 49.2857 57.5864 49.2857ZM58.2848 49.2857L57.9673 48.6508L58.3483 47.9524L58.7292 48.6508L58.2848 49.2857C58.3483 49.2857 58.3483 49.2857 58.2848 49.2857ZM58.6022 49.2222L58.8562 48.7778L59.0467 49.1587C58.8562 49.2222 58.7292 49.2222 58.6022 49.2222ZM59.1737 49.2222L58.9197 48.6508L59.3007 47.9524L59.6181 48.6508L59.3007 49.1587C59.3007 49.1587 59.2372 49.1587 59.1737 49.2222ZM59.5546 49.1587L59.7451 48.8413L59.8721 49.0952C59.7451 49.0952 59.6816 49.1587 59.5546 49.1587ZM60.0626 49.0952L59.8721 48.6508L60.253 47.9524L60.634 48.6508L60.38 49.0317C60.253 49.0317 60.1895 49.0317 60.0626 49.0952ZM62.4118 50.619L60.4435 49.7936C60.634 49.7302 61.0784 49.7302 61.7134 49.5397L62.4118 50.619ZM61.7768 48.7143L62.0943 48.0159L62.3483 48.5873C62.2213 48.5873 61.9673 48.6508 61.7768 48.7143ZM62.2213 47.8254L62.6022 47.127L62.9197 47.8254L62.5388 48.5238L62.2213 47.8254ZM62.7292 46.9365L63.1102 46.2381L63.4276 46.9365L63.0467 47.6349L62.7292 46.9365ZM62.7927 48.4603L63.0467 48.0159L63.2372 48.3333C63.1102 48.3968 62.9197 48.3968 62.7927 48.4603ZM63.6816 48.2063C63.6181 48.2063 63.4911 48.2698 63.4276 48.2698L63.1737 47.7619L63.5546 47.0635L63.8721 47.7619L63.6816 48.2063ZM65.9673 47.5714C65.9038 47.5714 65.9038 47.5714 65.8403 47.5714L65.5229 47L65.9038 46.3016L66.2848 47L65.9673 47.5714ZM66.3483 47.1905L66.4753 47.381C66.4118 47.381 66.2848 47.4444 66.2213 47.4444L66.3483 47.1905ZM65.6499 47.6349C65.4594 47.6984 65.2689 47.7619 65.0784 47.7619L65.3959 47.1905L65.6499 47.6349ZM64.9515 47.6349L64.5705 46.9365L64.9515 46.3016L65.3324 47L64.9515 47.6349ZM64.8245 47.8254C64.634 47.8889 64.4435 47.9524 64.1895 48.0159L64.0626 47.7619L64.4435 47.127L64.8245 47.8254ZM63.9991 47.5714L63.6816 46.873L64.0626 46.2381L64.38 46.9365L63.9991 47.5714ZM63.9356 48.1429L63.9991 48.0159L64.0626 48.0794C63.9991 48.0794 63.9356 48.1429 63.9356 48.1429ZM65.3959 49.4762C65.0149 49.1587 64.507 48.9048 64.1261 48.7143C64.1895 48.6508 66.1578 47.9524 67.4276 47.6984C67.4911 47.8254 67.4911 47.9524 67.6181 48.0794C66.8562 48.3968 66.1578 48.7143 65.3959 49.4762ZM66.4753 47L66.8562 46.3016L67.1737 47L66.9832 47.3175C66.8562 47.3175 66.7927 47.381 66.6657 47.381L66.4753 47ZM67.2372 47.254H67.3641C67.3007 47.254 67.3007 47.254 67.2372 47.254ZM67.9991 47.1905C67.8721 47.1905 67.6816 47.1905 67.5546 47.1905L67.4276 46.9365L67.8086 46.3016L68.1261 47L67.9991 47.1905ZM68.9515 47.3175C68.8245 47.254 68.634 47.254 68.4435 47.254L68.3165 47.0635L68.6975 46.3651L69.0784 47.0635L68.9515 47.3175ZM69.2054 46.8095L68.888 46.2381H68.507L68.1895 46.8095L67.9356 46.2381H67.6181L67.3007 46.8095L66.9832 46.2381H66.6657L66.3483 46.873L66.0308 46.2381C66.0308 46.2381 65.8403 46.2381 65.7768 46.2381L65.3959 46.873L65.0784 46.1746C65.0784 46.1746 64.9514 46.1746 64.888 46.1746L64.507 46.873L64.1895 46.1746V46.1111C64.1895 46.1111 63.9356 46.1111 63.8721 46.1111L63.9356 46.2381L63.5546 46.873L63.2372 46.1746L63.3007 46.0476C63.2372 46.0476 62.9832 46.0476 62.9197 46.0476L62.9832 46.1746L62.6022 46.873L62.2848 46.1746L62.3483 46.0476C62.2848 46.0476 62.0308 46.0476 61.9673 46.0476L62.0308 46.2381L61.6499 46.873L61.2689 46.1746L61.3959 45.9841C61.3324 45.9841 61.0149 45.9841 60.9515 45.9841L61.0784 46.1746L60.6975 46.873L60.38 46.1746L60.507 45.9206C60.4435 45.9206 60.0626 45.9206 59.9991 45.9206L60.1261 46.1746L59.7451 46.873L59.3641 46.1746L59.4911 45.9206C59.4276 45.9206 59.0467 45.9206 58.9832 45.9206L59.1737 46.2381L58.7927 46.9365L58.4118 46.2381L58.6022 45.9206C58.5388 45.9206 58.0943 45.9206 58.0308 45.9206L58.2213 46.2381L57.8403 46.9365L57.4594 46.2381L57.6499 45.9206C57.5864 45.9206 57.1419 45.9206 57.0784 45.9206L57.2689 46.2381L56.888 46.9365L56.5705 46.2381L56.761 45.9206C56.6975 45.9206 56.634 45.9206 56.507 45.9206C56.4435 45.9206 56.4435 45.9206 56.38 45.9206C56.3165 45.9206 56.253 45.9206 56.1895 45.9206L56.38 46.2381L56.507 46.4286L56.8245 47.127L56.507 47.5079L56.1895 46.8095L56.0626 46.619L55.7451 45.9206L55.9356 45.6032C55.8721 45.6032 55.8086 45.6032 55.6816 45.6032H55.6181C55.5546 45.6032 55.4911 45.6032 55.4276 45.6032L55.5546 45.8571L55.1737 46.5556L54.7292 45.8571L54.8562 45.6032C54.7927 45.6032 54.7292 45.6032 54.6022 45.6032C54.5388 45.6032 54.4753 45.6032 54.4118 45.6032L54.4753 45.7937L54.0943 46.4921L53.7768 45.8571C53.7134 45.8571 53.6499 45.9206 53.5864 45.9206L54.0308 46.746L53.5864 47.5079L53.3959 47.1905C53.6499 46.3651 53.2689 45.6032 53.2689 45.6032C53.2689 45.6032 53.0784 45.6032 52.888 45.7302C53.1419 46.3651 53.2054 47.5079 51.8086 48.2063C51.7451 48.2063 49.3324 46.873 48.888 46.6825C49.0149 46.6825 49.1419 46.5556 49.2054 46.5556C49.4594 46.6825 51.3641 47.6984 51.3641 47.6984C51.4911 47.6349 51.5546 47.5714 51.6816 47.5079C51.1102 47.254 50.0308 46.5556 49.6499 46.3651C49.7134 46.3016 50.2848 46.1111 50.4118 46.1111C50.4118 46.1111 50.5388 46.873 51.3007 46.873C51.8721 46.873 52.253 46.619 52.3165 46.1111C52.3165 46.0476 52.253 45.7302 52.253 45.6032C52.634 45.5397 52.9515 45.4762 53.2689 45.4127C58.5388 44.2064 66.8562 46.3651 69.0784 45.7937H69.1419C69.2054 45.7937 69.2054 45.7937 69.2689 45.7302C69.2689 45.7302 69.3324 45.9206 69.3324 46.0476C69.3959 46.1746 69.3959 46.3016 69.3959 46.3651L69.2054 46.8095ZM71.8721 49.5397C71.3007 48.7778 70.4118 47.6984 69.5229 47.4444C70.0943 46.6825 69.5864 45.6667 69.5864 45.6667C70.6657 45.3492 71.8086 43.7619 72.38 43.1905C72.38 43.3175 72.4435 44.5238 71.5546 45.6032C71.3641 45.8571 71.0467 46.1746 71.0467 46.2381C70.9832 46.3016 72.1261 48.0159 71.8721 49.5397ZM56.1261 46.8095L56.507 46.1111L56.38 45.9206L55.9991 46.619L56.1261 46.8095Z" fill="#2C3667"/>
<path d="M19.1746 64.0159C19.1746 64.0159 4.38095 58.1111 0.253968 44.3333L0 15.1905H0.190476H0V15H38.2222V44.0794C38.2222 44.1429 36.7619 55.7619 19.3651 63.9524L19.3016 64.0159H19.1746Z" fill="white"/>
<path d="M19.1746 64.0159C19.1746 64.0159 4.38095 58.1111 0.253968 44.3333L0 15.1905H0.190476H0V15H38.2222V44.0794C38.2222 44.1429 36.7619 55.7619 19.3651 63.9524L19.3016 64.0159H19.1746ZM17.0159 62.4921C18.2222 63.127 19.0476 63.5079 19.3016 63.5714C32.1905 57.4762 36.1905 49.4762 37.3968 45.9206C37.7778 44.8413 37.8413 44.1429 37.9048 44.0159V15.381H0.380952L0.634921 44.2698C3.68254 54.4286 12.6984 60.2698 17.0159 62.4921Z" fill="#2C3667"/>
<path d="M19.174 26.6825C31.301 25.8572 32.1264 16.3333 32.1264 16.3333H24.1264C24.0629 22.5556 19.7455 21.9841 19.2375 22.0476H19.174C19.174 22.0476 14.7931 22.1746 14.2852 16.3333H6.28516C6.28516 16.3333 7.23754 26.1746 19.174 26.6825Z" fill="#2C3667"/>
<path d="M33.461 16.3968C33.461 16.3968 32.3817 27.254 19.1753 27.8254C6.4769 27.3809 4.82611 16.3968 4.82611 16.3968H1.08008V19.1905C9.46103 29.7936 18.4134 28.9048 19.1118 28.9048C19.1118 28.9048 28.8261 29.7302 37.2071 19.1905V16.3968H33.461Z" fill="#2C3667"/>
<path d="M4.69816 38.9365L5.71404 38.0476L2.7934 35.1905L1.01562 37.1587L1.14261 41.9841H4.69816V38.9365Z" fill="#2C3667"/>
<path d="M15.4288 42.2381V38.9365L16.6352 37.9206L13.778 35.0635L10.9844 37.9841L11.8733 38.9365L11.9368 42.2381H15.4288Z" fill="#2C3667"/>
<path d="M19.1744 29.8571C7.17436 29.9206 1.01562 20.6508 1.01562 20.6508L1.07912 31.8889C2.85689 31.8889 4.25372 30.0476 4.25372 30.0476C5.96801 31.7619 7.93626 31.6349 7.93626 31.6349C10.349 31.8889 11.6823 30.2381 11.6823 30.2381C13.2061 32.0794 15.4918 31.9524 15.4918 31.9524C16.8251 32.1429 18.7934 30.746 19.1109 30.5556C19.3013 30.6825 21.3966 32.1429 22.7934 31.9524C22.7934 31.9524 25.0156 32.0794 26.6029 30.2381C26.6029 30.2381 27.9363 31.8889 30.349 31.6349C30.349 31.6349 32.3172 31.7619 34.0315 30.0476C34.0315 30.0476 35.4283 31.8889 37.2061 31.8889L37.2696 20.6508C37.2696 20.6508 31.1109 29.8571 19.1744 29.8571Z" fill="#2C3667"/>
<path d="M19.1744 31.8254C17.4601 33.3492 15.6823 33.0952 15.6823 33.0952C13.5236 33.1587 11.6188 31.7619 11.6188 31.7619C10.7934 32.9048 8.25372 33.0317 8.25372 33.0317C6.15848 33.0952 4.19023 31.6349 4.19023 31.6349C2.72991 33.2857 1.01562 33.0317 1.01562 33.0317V35.254L2.7934 33.4762L6.72991 37.1587L8.12674 35.6349L9.96801 37.2857L13.6505 33.4762L17.6505 37.0952L19.1744 35.7619L20.6982 37.0952L24.6982 33.4762L28.3807 37.2857L30.222 35.6349L31.6188 37.1587L35.5553 33.4762L37.3331 35.254V33.0317C37.3331 33.0317 35.6823 33.2857 34.222 31.6349C34.222 31.6349 32.2537 33.0952 30.1585 33.0317C30.1585 33.0317 27.6188 32.9048 26.7934 31.6984C26.7934 31.6984 24.8886 33.0952 22.7299 33.0317C22.7299 33.0317 20.9521 33.2857 19.2378 31.7619" fill="#2C3667"/>
<path d="M32.6992 38.0476L33.7151 39V41.9841H37.2707L37.3976 37.2222L35.6199 35.1905L32.6992 38.0476Z" fill="#2C3667"/>
<path d="M26.4758 42.2381L26.5392 39L27.4281 37.9841L24.6345 35.0635L21.7773 37.9206L22.9837 39V42.2381H26.4758Z" fill="#2C3667"/>
<path d="M19.2376 52.5238L20.6344 51.4444L24.063 55.3175L28.2535 51.3175L29.6503 52.6508L31.3011 51.3175L32.6344 52.3968L33.3963 51.4444L32.19 50.4286L33.3963 49.3492V46.746H35.2376L35.6186 46.5556L36.2535 45.5397L35.0471 44.5238C35.0471 44.5238 34.4122 45.4762 33.3328 45.4127C33.3328 45.4127 31.936 45.5397 31.4916 44.5238C31.4916 44.5238 30.8566 45.5397 29.6503 45.4762C29.6503 45.4762 28.317 45.4127 27.7455 44.5873C27.7455 44.5873 26.9836 45.5397 25.6503 45.3492C25.6503 45.3492 24.7614 45.6032 24.1265 44.5873C24.1265 44.5873 23.4281 45.4762 22.2852 45.4127C22.2852 45.4127 21.3328 45.5397 20.6344 44.5238C20.6344 44.5238 19.9995 45.4127 19.1741 45.4127C18.2852 45.4127 17.6503 44.5238 17.6503 44.5238C16.9519 45.5397 15.9995 45.4127 15.9995 45.4127C14.8566 45.4762 14.1582 44.5873 14.1582 44.5873C13.5233 45.6032 12.6344 45.3492 12.6344 45.3492C11.3011 45.5397 10.5392 44.5873 10.5392 44.5873C9.96776 45.4127 8.63443 45.4762 8.63443 45.4762C7.42808 45.5397 6.79315 44.5238 6.79315 44.5238C6.34871 45.5397 4.95189 45.4127 4.95189 45.4127C3.87252 45.4762 3.2376 44.5238 3.2376 44.5238L2.03125 45.5397L2.66617 46.5556L3.17411 46.746H4.88839V49.3492L6.09474 50.4286L4.88839 51.4444L5.6503 52.3968L6.98363 51.3175L8.63443 52.6508L10.0313 51.3175L14.2217 55.3175L17.7773 51.3175L19.2376 52.5238ZM14.2852 53.7936L11.2376 51.0635L12.4439 49.9841V46.746H15.936L15.9995 49.9841L17.0789 50.873L14.2852 53.7936ZM24.19 53.9206L21.3963 50.9365L22.4757 50.0476V46.8095H26.0312L26.2217 50.1111L27.3011 50.9365L24.19 53.9206Z" fill="#2C3667"/>
<path d="M26.8564 57.8571H19.1738H11.6818L11.1738 58.1111C17.4595 61.9841 18.7294 62.6825 19.0468 62.746C19.3008 62.746 19.9357 62.6825 27.3008 58.1746L26.8564 57.8571Z" fill="#2C3667"/>
</g>
<defs>
<clipPath id="clip0_2491:55309">
<rect width="80" height="80" fill="white"/>
</clipPath>
</defs>
</svg>
