<svg width="80" height="80" viewBox="0 0 80 80" fill="none" xmlns="http://www.w3.org/2000/svg">
<g clip-path="url(#clip0_2491:55303)">
<path d="M39.8528 80.0014C72.1825 64.5199 73.8408 43.8013 73.8408 43.8013V0H6V43.8013C6 43.8013 7.65974 64.5199 39.9908 80.0014" fill="#0054A6"/>
<path d="M21.477 13.1948L8.07227 26.6686H34.9493L21.477 13.1948ZM12.4048 25.3808L21.477 16.2142V19.4364L15.5326 25.3808H12.4048ZM18.4858 25.3329L21.6151 22.2924V25.2836L18.4858 25.3329Z" fill="white"/>
<path d="M58.0182 13.1948L44.6191 26.6686H71.4934L58.0182 13.1948ZM57.9492 25.2342L56.4768 23.7647L57.9492 22.1994V25.2342ZM57.9492 19.249L55.0073 22.1994L53.5293 20.6369L57.9492 16.2142V19.249Z" fill="white"/>
<path d="M47.3136 19.1589C49.806 19.1589 51.8265 17.1384 51.8265 14.646C51.8265 12.1536 49.806 10.1331 47.3136 10.1331C44.8213 10.1331 42.8008 12.1536 42.8008 14.646C42.8008 17.1384 44.8213 19.1589 47.3136 19.1589Z" fill="white"/>
<path d="M50.345 17.8147C49.5391 19.0405 48.1541 19.8549 46.5761 19.8549C44.0823 19.8549 42.0604 17.8288 42.0604 15.3448C42.0604 13.7626 42.8748 12.3762 44.1034 11.5689L39.7328 7.1955L20.3711 26.6671H59.1974L50.345 17.8147ZM29.1643 20.7242L39.7596 10.0824V13.261L30.7748 22.2924L29.1643 20.7242ZM32.2274 23.7873L39.7836 16.186V19.3646L33.8392 25.3526L32.2274 23.7873ZM39.8526 25.2836L36.7177 25.3329L39.8526 22.2924V25.2836Z" fill="white"/>
<path d="M65.8277 37.6344C59.3804 45.9697 52.8387 37.5653 52.8387 37.5653C46.2532 46.0331 39.9017 37.5653 39.9017 37.5653C33.0387 46.0796 26.7703 37.5653 26.7703 37.5653C20.416 46.0796 13.7812 37.7386 13.7812 37.7386V37.7175V33.6724C13.7812 33.6724 20.416 42.0077 26.7703 33.4822C26.7703 33.4822 33.0387 42.0077 39.9017 33.4822C39.9017 33.4822 46.2532 41.9584 52.8387 33.4822C52.8387 33.4822 59.3804 41.8175 65.8277 33.4822V37.671V37.6344Z" fill="white"/>
<path d="M65.8277 48.889C59.3804 57.23 52.8387 48.82 52.8387 48.82C46.2532 57.2878 39.9017 48.82 39.9017 48.82C33.0387 57.3371 26.7703 48.82 26.7703 48.82C20.416 57.3371 13.7812 49.0017 13.7812 49.0017V48.9736V44.9285C13.7812 44.9285 20.416 53.2582 26.7703 44.7411C26.7703 44.7411 33.0387 53.2582 39.9017 44.7411C39.9017 44.7411 46.2532 53.2173 52.8387 44.7411C52.8387 44.7411 59.3804 53.0792 65.8277 44.7411V48.9355V48.889Z" fill="white"/>
<path d="M52.8398 55.8647C46.2544 64.341 39.9029 55.8647 39.9029 55.8647C33.0399 64.3875 26.7715 55.8647 26.7715 55.8647V59.9408C26.7715 59.9408 33.0399 68.4635 39.9029 59.9408C39.9029 59.9408 46.2544 68.4227 52.8398 59.9408V55.8647Z" fill="white"/>
<path d="M52.9573 14.646C52.9573 12.6622 51.0549 11.0518 48.7189 11.0518C46.3862 11.0518 44.4805 12.6622 44.4805 14.646C44.4805 16.6326 46.3845 18.2402 48.7189 18.2402C51.0566 18.2388 52.9573 16.6326 52.9573 14.646Z" fill="#ED1C24"/>
</g>
<defs>
<clipPath id="clip0_2491:55303">
<rect width="80" height="80" fill="white"/>
</clipPath>
</defs>
</svg>
