<svg width="80" height="80" viewBox="0 0 80 80" fill="none" xmlns="http://www.w3.org/2000/svg">
<g clip-path="url(#clip0_2491:55349)">
<path d="M40.536 0.0339271C30.324 0.0339271 20.078 0.0678541 9.86599 0C8.3732 0 8 0.339271 8 1.86599C8.06785 17.0653 8.06785 32.2646 8.03393 47.464C8.03393 54.3851 10.0017 60.6616 13.9712 66.3613C24.4207 81.3571 46.2358 84.5802 60.4512 73.1468C65.3707 69.2112 68.8991 64.3596 70.9347 58.2528C71.9864 55.1315 72.8346 52.0441 72.8685 48.7871C72.9364 33.0789 72.9025 17.3707 72.9364 1.66243C72.9364 0.271417 72.4614 0 71.2061 0C60.9941 0.0678541 50.7481 0.0339271 40.536 0.0339271Z" fill="#F8FAF7"/>
<path d="M40.536 0.0339271C50.7481 0.0339271 60.9941 0.0678541 71.2061 0C72.4953 0 72.9364 0.271416 72.9364 1.66243C72.9025 17.3707 72.9364 33.0789 72.8685 48.7871C72.8685 52.0441 71.9864 55.1315 70.9347 58.2528C68.8991 64.3257 65.3707 69.1773 60.4512 73.1467C46.2019 84.5801 24.4207 81.391 13.9712 66.3613C10.0017 60.6616 8.03393 54.3851 8.03393 47.4639C8.06785 32.2646 8.06785 17.0653 8 1.86599C8 0.339271 8.3732 0 9.86599 0C20.078 0.0678541 30.324 0.0339271 40.536 0.0339271ZM69.8829 58.4563C70.4936 57.9474 70.4936 57.1671 70.7311 56.4885C72.2239 51.8405 72.0204 47.0229 72.0882 42.2053C72.1221 40.5089 71.715 40 69.9508 40C52.4444 40.0679 34.9381 40.0339 17.3978 40.0339C15.0908 40.0339 12.7498 40.1018 10.4427 40C9.11959 39.9321 8.78032 40.441 8.81425 41.6624C8.8821 43.8677 8.78032 46.0729 8.8821 48.2782C9.05174 52.1459 9.52672 55.9118 11.3588 59.4063C11.8677 61.6455 12.9194 63.1382 15.2943 63.9864C20.5191 65.8524 25.4046 65.6828 30.2222 62.799C33.1739 61.0348 35.6845 58.7277 38.3986 56.6921C43.9966 52.5191 49.5267 51.3316 55.9389 55.9796C58.8227 58.0831 61.8083 59.983 65.201 61.1705C68.6616 62.3919 69.1366 62.1204 69.8829 58.4563ZM17.9067 20.4919C18.1442 20.6276 18.3478 20.8651 18.5852 20.8991C25.2689 22.324 31.1383 25.4453 36.7023 29.2451C37.8558 30.0254 39.145 30.6701 40.3664 31.3486C40.8075 31.5861 41.2824 31.8575 41.7913 31.6879C44.3698 30.9075 47.05 30.4326 49.3232 28.8041C53.3944 25.8863 57.4656 23.0025 61.5708 20.1187C64.9296 19.3384 67.9152 17.4724 71.3079 16.8617C72.0882 16.726 72.0543 16.1154 72.0543 15.5725C72.0543 11.1281 72.0204 6.6497 72.0543 2.20526C72.0543 1.15352 71.6132 0.780322 70.6633 0.848176C70.1544 0.882103 69.6455 0.848176 69.1366 0.848176C50.307 0.848176 31.4436 0.848176 12.6141 0.848176C11.698 0.848176 10.8159 0.882103 9.89992 0.848176C9.22137 0.814249 8.8821 1.08567 8.8821 1.83206C8.8821 7.7693 8.91603 13.6726 8.8821 19.6098C8.8821 20.3223 9.11959 20.6616 9.86599 20.6276C12.5462 20.5598 15.2265 20.5259 17.9067 20.4919Z" fill="#018D01"/>
<path d="M17.9074 20.4919C15.2272 20.5259 12.5469 20.5598 9.8667 20.5937C9.1203 20.5937 8.88281 20.2545 8.88281 19.5759C8.88281 13.6387 8.88281 7.73538 8.88281 1.79814C8.88281 1.05175 9.22208 0.814258 9.90062 0.814258C10.8167 0.848185 11.6988 0.814258 12.6148 0.814258C31.4443 0.814258 50.3077 0.814258 69.1373 0.814258C69.6462 0.814258 70.1551 0.848185 70.664 0.814258C71.6479 0.746404 72.0889 1.1196 72.055 2.17134C72.0211 6.61578 72.055 11.0942 72.055 15.5386C72.055 16.0814 72.0889 16.6921 71.3086 16.8278C67.9159 17.4385 64.8964 19.3045 61.5715 20.0848C60.1127 19.4741 58.9252 17.9474 57.0932 18.4903C56.0414 18.7956 55.295 18.4903 54.4129 17.9813C52.0041 16.4886 49.3917 15.5725 46.6097 14.9618C44.0991 14.3851 41.5206 14.7583 39.0779 14.1137C37.2458 13.6048 35.8209 13.978 34.3281 14.9618C32.2246 16.3868 29.748 17.1332 27.3052 16.9975C24.2518 16.8278 21.8429 17.8796 19.502 19.542C18.9931 19.9152 18.586 20.4241 17.9074 20.4919Z" fill="#97D4F8"/>
<path d="M11.3925 59.4402C9.56043 55.9457 9.08545 52.1459 8.91582 48.3121C8.81403 46.1069 8.94974 43.9016 8.84796 41.6964C8.81403 40.475 9.15331 39.9661 10.4765 40.0339C12.7835 40.1357 15.1245 40.0679 17.4315 40.0679C34.9379 40.0679 52.4442 40.1018 69.9845 40.0339C71.7487 40.0339 72.1558 40.5428 72.1219 42.2392C72.0541 47.0568 72.2576 51.8405 70.7648 56.5225C70.5613 57.201 70.5613 57.9813 69.9167 58.4902C69.272 58.6259 69.0685 58.0831 68.7292 57.7438C66.049 55.0975 63.6402 52.1798 60.451 50.0763C55.7691 46.989 50.714 46.0729 45.3195 47.4639C40.8751 48.6175 36.8717 50.8567 32.9362 53.1298C26.2186 56.9635 19.3314 59.9491 11.3925 59.4402Z" fill="#97D4F8"/>
<path d="M17.9062 20.4919C18.5848 20.4241 18.9919 19.9152 19.4669 19.542C21.8079 17.8796 24.2506 16.8278 27.2701 16.9975C29.7129 17.1332 32.1895 16.3868 34.293 14.9618C35.7858 13.944 37.2107 13.6048 39.0428 14.1137C41.4856 14.7583 44.064 14.3851 46.5746 14.9618C49.3566 15.6064 51.969 16.5225 54.3778 17.9813C55.226 18.5242 56.0063 18.8295 57.0581 18.4903C58.8901 17.9474 60.0776 19.4741 61.5364 20.0848C57.4652 22.9686 53.36 25.8524 49.2888 28.7701C47.0157 30.3986 44.3354 30.8736 41.757 31.6539C41.2141 31.8236 40.7731 31.5522 40.332 31.3147C39.1107 30.6361 37.8214 30.0254 36.6679 29.2112C31.1378 25.4453 25.2684 22.324 18.6187 20.933C18.3473 20.8651 18.1437 20.6616 17.9062 20.4919Z" fill="#F8FAF7"/>
<path d="M11.3926 59.4402C19.3315 59.9152 26.2187 56.9635 32.9023 53.0619C36.8379 50.7888 40.8413 48.5496 45.2857 47.3961C50.6801 46.0051 55.7352 46.9211 60.4172 50.0085C63.6063 52.112 66.0151 55.0636 68.6954 57.676C69.0346 58.0153 69.2382 58.5581 69.8828 58.4224C69.1364 62.0865 68.6615 62.3579 65.2348 61.1705C61.8421 59.983 58.8565 58.0831 55.9727 55.9796C49.5605 51.3316 44.0304 52.5191 38.4324 56.6921C35.7183 58.7277 33.2077 61.0348 30.256 62.799C25.4384 65.6828 20.5529 65.8524 15.3281 63.9864C12.9532 63.2061 11.8676 61.6794 11.3926 59.4402Z" fill="#F8FAF7"/>
</g>
<defs>
<clipPath id="clip0_2491:55349">
<rect width="80" height="80" fill="white"/>
</clipPath>
</defs>
</svg>
