<svg width="80" height="80" viewBox="0 0 80 80" fill="none" xmlns="http://www.w3.org/2000/svg">
<g clip-path="url(#clip0_2491:55295)">
<path d="M39.7194 0.0239808C29.9353 0.0239808 20.1511 0.0479616 10.3669 0C9.26379 0 9 0.28777 9 1.39089C9.04796 15.3477 9.02398 29.3285 9.02398 43.3093C9.02398 49.1127 10.4628 54.5324 13.3645 59.5204C19.1918 69.5204 27.9928 75.8513 38.6882 79.8321C39.4796 80.1199 40.1511 80.024 40.8705 79.7602C48.3285 77.0264 54.9233 72.9736 60.3669 67.1463C66.482 60.5995 70.271 52.9736 70.3429 43.8609C70.4388 29.6403 70.3669 15.4436 70.3909 1.22302C70.3909 0.28777 70.1511 0.0239808 69.1918 0.0239808C59.3597 0.0479616 49.5516 0.0239808 39.7194 0.0239808Z" fill="#FDFEFE"/>
<path d="M39.7194 0.0239808C49.5516 0.0239808 59.3597 0.0479616 69.1918 0C70.1511 0 70.3909 0.263789 70.3909 1.19904C70.3669 15.4197 70.4388 29.6163 70.3429 43.8369C70.295 52.9496 66.506 60.5755 60.3669 67.1223C54.9233 72.9496 48.3285 77.0024 40.8705 79.7362C40.1511 80 39.4796 80.0959 38.6882 79.8082C27.9928 75.8273 19.1918 69.4964 13.3645 59.4964C10.4628 54.5324 9.02398 49.1127 9.02398 43.3094C9.02398 29.3285 9.04796 15.3477 9 1.39089C9 0.28777 9.26379 0 10.3669 0C20.1511 0.0479616 29.9353 0.0239808 39.7194 0.0239808ZM21.542 65.6355C21.7338 65.2038 21.9257 64.8201 22.0935 64.4125C25.307 56.7626 28.4005 49.0648 31.7818 41.5108C33.4364 37.8177 34.4436 34.1487 34.06 30.1199C33.964 29.0168 33.6763 27.53 34.2278 26.8825C34.8753 26.1151 36.4101 26.7866 37.5372 26.6187C38.7602 26.4508 39.048 26.9065 39.048 28.1055C39 43.8369 39.024 59.5683 39.024 75.3237C39.024 75.6355 39.048 75.9712 39.024 76.283C39 76.6667 39.2638 76.7626 39.5516 76.7866C39.8873 76.8106 40.199 76.7386 40.247 76.307C40.271 75.9952 40.247 75.6595 40.247 75.3477C40.247 59.6883 40.247 44.0288 40.247 28.3693C40.247 28.0096 40.271 27.6499 40.247 27.2902C40.223 26.7626 40.4388 26.5947 40.9424 26.5947C42.0935 26.6187 43.2686 26.6427 44.4197 26.5947C45.1391 26.5707 45.3789 26.7626 45.3789 27.53C45.3309 29.8801 45.3549 32.2302 45.3069 34.6043C45.283 35.4916 45.4029 36.307 45.7626 37.1463C47.0096 40.0719 48.2086 43.0456 49.4077 45.9712C51.9976 52.2782 54.5875 58.5612 57.2014 64.8681C57.3453 65.2038 57.3213 65.9233 57.9448 65.7314C58.5923 65.5396 58.5923 64.8681 58.4245 64.3166C58.2806 63.8849 57.9928 63.5012 57.801 63.0695C54.2518 54.4604 50.6787 45.8513 47.1535 37.2182C46.8897 36.5947 46.53 36.0192 46.53 35.2998C46.554 32.6619 46.5779 30.024 46.554 27.3861C46.554 26.7386 46.7938 26.5707 47.3933 26.5947C48.4005 26.6427 49.4077 26.6667 50.3909 26.5947C51.3741 26.5228 51.7098 26.7866 51.6619 27.8177C51.5899 30.2398 51.6619 32.6859 51.6139 35.1319C51.5899 35.8753 51.8058 36.4029 52.3333 36.9305C54.5875 39.1367 56.8417 41.3429 59.048 43.5971C61.494 46.0911 63.9161 48.6571 66.3861 51.223C67.1535 50.1439 66.8897 49.5923 66.2662 48.9688C62.0216 44.7962 57.8249 40.5995 53.5803 36.4029C53.1487 35.9712 52.789 35.5875 52.789 34.8921C52.8369 32.446 52.8369 30.024 52.789 27.5779C52.789 26.8585 52.9808 26.5947 53.7242 26.6187C55.6906 26.6667 57.6331 26.5947 59.5995 26.6427C60.5588 26.6667 60.8225 26.4508 60.5588 25.4676C56.7218 11.1271 40.3669 4.72422 27.8729 12.7578C22.8369 15.9952 19.7674 20.6475 18.4724 26.6187C20.8465 26.6187 23.1247 26.6427 25.4029 26.5947C26.0743 26.5947 26.4101 26.6667 26.3861 27.482C26.3381 30 26.3621 32.518 26.3861 35.036C26.3861 35.5875 26.1703 35.8993 25.7866 36.259C21.47 40.4796 17.2014 44.7242 12.8609 48.9209C12.1894 49.5683 12.0695 50.1679 12.4293 50.9832C12.5492 50.9113 12.6211 50.8873 12.693 50.8393C17.5132 46.1151 22.3333 41.3909 27.1535 36.6667C27.5611 36.283 27.5851 35.8513 27.5851 35.3717C27.5851 32.8058 27.6091 30.2638 27.5612 27.6978C27.5372 26.9065 27.705 26.5228 28.5923 26.5947C29.6235 26.6667 30.6787 26.6667 31.7098 26.5947C32.5971 26.5228 32.765 26.8825 32.765 27.6978C32.717 30.024 32.741 32.3261 32.765 34.6523C32.765 35.3957 32.6211 36.0671 32.3333 36.7386C28.5204 45.7554 24.7314 54.7962 20.8945 63.8369C20.6547 64.5803 20.5588 65.1799 21.542 65.6355ZM39.6235 2.85372C30.6307 2.85372 21.6619 2.8777 12.6691 2.82974C11.7818 2.82974 11.542 3.04556 11.542 3.95683C11.5899 9.54436 11.5659 15.1319 11.5659 20.7194C11.5659 22.446 11.5659 24.1487 11.5659 25.8753C11.5659 26.211 11.47 26.6187 12.0456 26.6187C12.5012 26.6187 12.8369 26.5947 12.8609 26.0192C12.8609 25.8273 12.9568 25.6355 12.9808 25.4436C15.4029 12.8058 26.6739 3.57314 39.7194 3.57314C52.765 3.57314 64.036 12.8777 66.4341 25.6355C66.53 26.1631 66.482 26.7386 67.2734 26.6187C68.0647 26.4988 67.705 25.8513 67.705 25.4676C67.729 18.3693 67.705 11.247 67.753 4.14868C67.753 3.09352 67.5132 2.82974 66.4341 2.82974C57.5132 2.85372 48.5683 2.85372 39.6235 2.85372ZM39.7194 4.53237C27.2254 4.46043 16.1703 13.5252 13.8921 25.7554C13.8441 26.0192 13.5324 26.4269 13.988 26.5707C14.3477 26.6906 14.8273 26.7866 15.1151 26.4748C15.307 26.259 15.307 25.8753 15.3789 25.5635C17.753 14.1007 28.5683 4.67626 42.2374 6.09113C53.2446 7.21823 61.7098 15.012 64.036 25.7794C64.2038 26.5228 64.4916 26.7386 65.1391 26.6187C65.9784 26.4508 65.4988 25.8273 65.4029 25.4916C62.789 13.1894 52.2374 4.60432 39.7194 4.53237ZM39.4077 6.93046C38.4484 6.90648 37.2254 7.0024 36.0024 7.17026C26.4341 8.53717 18.1367 16.3789 16.2662 25.7794C16.0983 26.5707 16.3381 26.6187 16.9856 26.6427C17.729 26.6427 17.6811 26.1151 17.777 25.6835C18.7602 21.4628 20.7506 17.7698 23.8921 14.7962C30.1511 8.84892 37.6091 6.85851 45.8825 9.20863C54.2518 11.5827 59.5036 17.3141 61.6379 25.7794C61.8297 26.4988 62.1175 26.7626 62.765 26.6187C63.5803 26.4269 63.0767 25.8273 62.9808 25.4676C60.4149 14.5084 50.8705 6.93046 39.4077 6.93046Z" fill="#0352A5"/>
<path d="M21.5422 65.6355C20.559 65.1798 20.6549 64.5803 20.9667 63.8129C24.7796 54.7962 28.5926 45.7554 32.4055 36.7146C32.6933 36.0432 32.8372 35.3717 32.8372 34.6283C32.8132 32.3022 32.7892 30 32.8372 27.6739C32.8611 26.8825 32.6693 26.5228 31.782 26.5707C30.7508 26.6427 29.6957 26.6427 28.6645 26.5707C27.7772 26.4988 27.6093 26.8825 27.6333 27.6739C27.6813 30.2398 27.6333 32.7818 27.6573 35.3477C27.6573 35.8273 27.6093 36.259 27.2256 36.6427C22.4055 41.3669 17.5854 46.0911 12.7652 50.8153C12.7173 50.8633 12.6213 50.8873 12.5014 50.9592C12.1417 50.1439 12.2616 49.5683 12.9331 48.8969C17.2496 44.7002 21.5422 40.4556 25.8587 36.235C26.2185 35.8753 26.4583 35.5635 26.4583 35.012C26.4343 32.494 26.4103 29.976 26.4583 27.458C26.4822 26.6427 26.1465 26.5707 25.475 26.5707C23.1969 26.5947 20.9187 26.5947 18.5446 26.5947C19.8635 20.6235 22.9331 15.9712 27.9451 12.7338C40.4151 4.70024 56.794 11.1031 60.6309 25.4436C60.8947 26.4269 60.6309 26.6667 59.6717 26.6187C57.7053 26.5468 55.7628 26.6187 53.7964 26.5947C53.053 26.5707 52.8372 26.8345 52.8611 27.554C52.9091 30 52.9091 32.4221 52.8611 34.8681C52.8372 35.5635 53.2209 35.9712 53.6525 36.3789C57.8731 40.5755 62.0938 44.7722 66.3384 48.9448C66.9619 49.5683 67.2257 50.1439 66.4583 51.199C63.9882 48.6091 61.5902 46.0671 59.1201 43.5731C56.9139 41.3189 54.6597 39.1127 52.4055 36.9065C51.8779 36.3789 51.6621 35.8513 51.6861 35.1079C51.734 32.6619 51.6621 30.2398 51.734 27.7938C51.758 26.7626 51.4223 26.4748 50.4631 26.5707C49.4798 26.6667 48.4726 26.6187 47.4655 26.5707C46.8659 26.5468 46.6261 26.7146 46.6261 27.3621C46.6501 30 46.6261 32.6379 46.6021 35.2758C46.6021 35.9952 46.9619 36.5707 47.2256 37.1942C50.7748 45.8273 54.324 54.4364 57.8731 63.0456C58.041 63.4772 58.3527 63.8369 58.4966 64.2926C58.6645 64.8441 58.6885 65.4916 58.017 65.7074C57.3935 65.8993 57.4175 65.1798 57.2736 64.8441C54.6597 58.5611 52.0698 52.2542 49.4798 45.9472C48.2568 42.9976 47.0818 40.048 45.8348 37.1223C45.4751 36.283 45.3551 35.4676 45.3791 34.5803C45.4271 32.2302 45.3791 29.8561 45.4511 27.506C45.475 26.7626 45.2352 26.5468 44.4918 26.5707C43.3408 26.6187 42.1657 26.5947 41.0146 26.5707C40.511 26.5707 40.2712 26.7386 40.3192 27.2662C40.3432 27.6259 40.3192 27.9856 40.3192 28.3453C40.3192 44.0048 40.3192 59.6643 40.3192 75.3237C40.3192 75.6355 40.3192 75.9712 40.3192 76.283C40.2952 76.7146 39.9595 76.7866 39.6237 76.7626C39.336 76.7386 39.0722 76.6427 39.0962 76.259C39.1201 75.9472 39.0962 75.6115 39.0962 75.2997C39.0962 59.5683 39.0722 43.8369 39.1201 28.0815C39.1201 26.8585 38.8324 26.4269 37.6093 26.5947C36.4822 26.7626 34.9475 26.0911 34.3 26.8585C33.7484 27.506 34.0122 28.9928 34.1321 30.0959C34.5158 34.1487 33.5086 37.8177 31.8539 41.4868C28.4727 49.0408 25.3791 56.7386 22.1657 64.3885C21.9259 64.8201 21.734 65.2038 21.5422 65.6355ZM40.0554 21.295C43.077 20.9113 45.7628 21.3189 47.9211 23.4532C48.3048 23.8369 48.5926 23.6451 48.9283 23.3573C49.9115 22.446 51.0866 21.9185 52.3815 21.5348C53.7964 21.1031 55.2592 21.271 56.77 21.3189C56.3384 20.5755 55.7628 20.3597 55.0434 20.3117C52.8611 20.1679 50.8468 20.6475 49.0962 21.9664C48.5446 22.3981 48.1609 22.3022 47.6573 21.9185C46.3623 20.9353 44.8755 20.3597 43.2448 20.2638C42.1177 20.1918 40.8707 19.9281 40.0554 21.295ZM48.089 15.5636C47.6093 14.7962 47.0098 14.5084 46.2424 14.4365C44.348 14.2926 42.5494 14.6283 41.0146 15.7074C39.9834 16.4269 39.312 16.4508 38.2568 15.7074C36.6261 14.5324 34.6837 14.1966 32.6933 14.4125C32.2616 14.4604 31.7101 14.6283 31.758 15.1079C31.806 15.5636 32.3575 15.2998 32.6693 15.2998C34.4199 15.2758 36.2664 15.3237 37.5614 16.4508C39.0962 17.7698 40.1273 17.6739 41.7101 16.5228C43.5086 15.2038 45.7628 15.1559 48.089 15.5636ZM39.0482 21.295C38.7844 20.5755 38.2568 20.3118 37.5854 20.2398C35.4271 19.976 33.4367 20.4556 31.7101 21.7026C30.8707 22.3022 30.3911 22.1583 29.6717 21.6547C27.9211 20.4077 25.9307 19.952 23.7964 20.1679C23.3887 20.2158 22.8851 20.3357 22.8851 20.7674C22.9091 21.1271 23.4127 21.1031 23.7724 21.0791C26.2185 21.0072 28.4247 21.5827 30.2233 23.3333C30.535 23.6451 30.7508 23.693 31.1105 23.3813C33.4127 21.3669 36.0746 20.8153 39.0482 21.295Z" fill="#FDFEFE"/>
<path d="M39.624 2.85372C48.5688 2.85372 57.5137 2.8777 66.4585 2.82973C67.5137 2.82973 67.7774 3.09352 67.7774 4.14868C67.7295 11.247 67.7535 18.3693 67.7295 25.4676C67.7295 25.8513 68.0892 26.4988 67.2978 26.6187C66.5065 26.7386 66.5544 26.1631 66.4585 25.6355C64.0604 12.9017 52.7894 3.59712 39.7439 3.57314C26.6983 3.57314 15.4273 12.8058 13.0053 25.4436C12.9573 25.6355 12.8854 25.8273 12.8854 26.0192C12.8614 26.5707 12.5256 26.6187 12.07 26.6187C11.4945 26.6187 11.5904 26.211 11.5904 25.8753C11.5904 24.1487 11.5904 22.446 11.5904 20.7194C11.5904 15.1319 11.6144 9.54436 11.5664 3.95683C11.5664 3.04556 11.8062 2.82973 12.6935 2.82973C21.6623 2.85372 30.6312 2.85372 39.624 2.85372Z" fill="#FDFEFE"/>
<path d="M39.7195 4.53238C52.2375 4.60432 62.7891 13.1895 65.427 25.4676C65.4989 25.8273 66.0025 26.4509 65.1632 26.5947C64.5157 26.7146 64.2039 26.4988 64.0601 25.7554C61.7579 14.988 53.2927 7.19425 42.2615 6.06715C28.5684 4.65228 17.7771 14.0767 15.403 25.5396C15.331 25.8513 15.331 26.235 15.1392 26.4509C14.8514 26.7626 14.3718 26.6667 14.0121 26.5468C13.5565 26.4029 13.8682 25.9952 13.9162 25.7314C16.1704 13.5252 27.2255 4.46043 39.7195 4.53238Z" fill="#FDFEFE"/>
<path d="M39.4076 6.93045C50.8705 6.93045 60.4148 14.5084 63.0047 25.4676C63.0767 25.8273 63.6043 26.4269 62.7889 26.6187C62.1414 26.7866 61.8537 26.4988 61.6618 25.7794C59.5036 17.3141 54.2757 11.5827 45.9064 9.20863C37.633 6.85851 30.175 8.84892 23.916 14.7962C20.7745 17.7458 18.7841 21.4388 17.8009 25.6834C17.705 26.1151 17.729 26.6427 17.0095 26.6427C16.3621 26.6427 16.1223 26.5707 16.2901 25.7794C18.1606 16.3789 26.458 8.53716 36.0263 7.17026C37.2254 7.00239 38.4484 6.90647 39.4076 6.93045Z" fill="#FDFEFE"/>
<path d="M40.0547 21.295C40.894 19.9281 42.117 20.1918 43.2202 20.2638C44.8509 20.3597 46.3377 20.9353 47.6326 21.9185C48.1602 22.3261 48.5199 22.3981 49.0715 21.9664C50.8221 20.6235 52.8365 20.1679 55.0187 20.3118C55.7381 20.3597 56.3137 20.5755 56.7453 21.3189C55.2345 21.295 53.7717 21.1271 52.3568 21.5348C51.0859 21.9185 49.8868 22.446 48.9036 23.3573C48.5919 23.6451 48.3041 23.8369 47.8964 23.4532C45.7381 21.3189 43.0523 20.9113 40.0547 21.295Z" fill="#0352A5"/>
<path d="M48.0898 15.5635C45.7877 15.1559 43.5335 15.2278 41.7109 16.5468C40.1282 17.6978 39.097 17.7698 37.5623 16.4748C36.2673 15.3477 34.3968 15.2998 32.6702 15.3237C32.3584 15.3237 31.8069 15.5875 31.7589 15.1319C31.7109 14.6283 32.2385 14.4844 32.6942 14.4364C34.7085 14.2206 36.651 14.5564 38.2577 15.7314C39.2889 16.4748 39.9843 16.4508 41.0155 15.7314C42.5503 14.6523 44.3728 14.3165 46.2433 14.4604C47.0107 14.4844 47.6102 14.7722 48.0898 15.5635Z" fill="#0352A5"/>
<path d="M39.0487 21.295C36.075 20.8153 33.3892 21.3669 31.111 23.3813C30.7513 23.693 30.5355 23.6451 30.2237 23.3333C28.4252 21.5588 26.2189 21.0072 23.7729 21.0791C23.4132 21.0791 22.8856 21.1271 22.8856 20.7674C22.8616 20.3357 23.3652 20.2158 23.7969 20.1679C25.9312 19.976 27.9216 20.4077 29.6722 21.6547C30.3916 22.1583 30.8712 22.3261 31.7105 21.7026C33.4371 20.4556 35.4276 19.976 37.5858 20.2398C38.2573 20.3118 38.7849 20.5755 39.0487 21.295Z" fill="#0352A5"/>
</g>
<defs>
<clipPath id="clip0_2491:55295">
<rect width="80" height="80" fill="white"/>
</clipPath>
</defs>
</svg>
