<svg width="80" height="80" viewBox="0 0 80 80" fill="none" xmlns="http://www.w3.org/2000/svg">
<path d="M9 0V39.6496C9 45.3567 9.4005 48.8611 11.6033 54.1677C12.1039 55.4693 12.5044 56.1702 13.2053 57.4718C19.2128 68.5857 26.1214 73.3917 37.5357 78.7985C38.637 79.2991 39.2378 79.5995 40.3392 80C41.4406 79.4994 42.0413 79.2991 43.1427 78.7985C54.5569 73.3917 61.5657 68.5857 67.4731 57.4718C68.174 56.2703 68.4743 55.4693 69.0751 54.1677C71.2778 48.8611 71.6783 45.3567 71.6783 39.6496V0H9ZM71.5782 39.6496C71.5782 40.6508 71.5782 41.5519 71.5782 42.3529C71.2778 42.5532 70.1765 42.9537 68.5745 42.9537H63.4681C62.0663 42.9537 59.8636 43.0538 58.0613 44.7559C56.3592 46.3579 53.7559 49.6621 51.8536 51.3642C49.3504 53.4668 45.3454 55.4693 40.5394 55.4693C35.7334 55.4693 31.7284 53.4668 29.2253 51.3642C27.2228 49.6621 24.6195 46.3579 23.0175 44.7559C21.2153 42.9537 19.0125 42.9537 17.6108 42.9537H12.3041C10.7021 42.9537 9.60075 42.4531 9.30038 42.3529C9.30038 41.4518 9.30038 40.5507 9.30038 39.6496V37.9474C9.70088 38.2478 11.5031 39.3492 14.4068 39.3492C14.4068 39.3492 18.8123 39.2491 20.1139 39.3492C20.9149 39.3492 23.2178 39.7497 25.02 41.3517C26.7222 42.9537 28.4243 45.3567 30.3267 47.1589C32.7297 49.3617 35.7334 51.3642 40.5394 51.3642C45.3454 51.3642 48.3492 49.3617 50.7522 47.1589C52.6546 45.3567 54.3567 42.9537 56.0588 41.3517C57.8611 39.7497 60.164 39.4493 60.965 39.3492C62.2666 39.2491 66.6721 39.3492 66.6721 39.3492C69.6758 39.3492 71.4781 38.2478 71.7785 37.9474V39.6496H71.5782ZM69.1752 51.0638C69.1752 51.0638 66.1715 51.164 64.8698 51.164C62.1665 51.164 60.965 53.1665 59.4631 54.8686C58.3617 56.1702 55.8586 59.3742 52.0538 61.577C49.2503 63.179 45.2453 65.0814 40.4393 65.0814C35.6333 65.0814 31.6283 63.179 28.8248 61.577C24.9199 59.3742 22.4168 56.1702 21.4155 54.8686C19.9136 53.0663 18.7121 51.0638 15.9086 51.0638C14.607 51.0638 11.6033 51.0638 11.6033 51.0638C11.2028 51.0638 10.8023 50.9637 10.602 50.8636C10.1014 49.3617 9.801 48.0601 9.60075 46.6583C9.801 46.7584 10.602 47.0588 11.7034 47.0588H16.3091C17.7109 47.0588 19.3129 46.9587 21.1151 48.761C22.8173 50.363 24.8198 53.4668 28.4243 56.2703C31.0275 58.2728 35.5332 60.2753 40.3392 60.2753C45.1452 60.2753 49.6508 58.2728 52.2541 56.2703C55.8586 53.567 57.8611 50.4631 59.5632 48.761C61.3655 46.9587 62.9675 47.0588 64.3692 47.0588H69.0751C70.1765 47.0588 70.9775 46.7584 71.1777 46.6583C70.9775 48.0601 70.6771 49.4618 70.1765 50.8636C69.9762 50.9637 69.5757 51.0638 69.1752 51.0638ZM65.4706 35.7447H59.9637C58.1615 35.7447 55.6583 36.3454 53.7559 37.8473C51.9537 39.3492 49.3504 43.0538 47.5482 44.5557C45.6458 46.1577 43.4431 47.1589 40.3392 47.1589C37.2353 47.1589 35.0325 46.0576 33.1302 44.5557C31.3279 43.0538 28.7247 39.3492 26.9224 37.8473C25.1201 36.3454 22.5169 35.7447 20.7146 35.7447H15.3079C11.403 35.7447 9.60075 33.6421 9.20025 33.2416V27.9349C9.50063 29.1364 11.0025 32.5407 17.3104 32.5407C24.4193 32.5407 27.3229 29.2365 29.1252 27.3342C29.1252 27.3342 35.3329 19.4243 37.2353 17.3217C38.9374 15.3191 39.8385 15.3191 40.4393 15.3191C40.9399 15.3191 41.841 15.4193 43.6433 17.3217C45.4456 19.4243 51.7534 27.3342 51.7534 27.3342C53.5557 29.2365 56.4593 32.5407 63.5682 32.5407C69.8761 32.5407 71.378 29.1364 71.6783 27.9349V33.2416C71.1777 33.7422 69.3755 35.7447 65.4706 35.7447Z" fill="#007439"/>
</svg>
