<svg width="80" height="80" viewBox="0 0 80 80" fill="none" xmlns="http://www.w3.org/2000/svg">
<g clip-path="url(#clip0_2491:55296)">
<path d="M39.7439 0.568321H69.8918V43.1726C69.8918 60.784 55.2625 74.3101 39.7171 79.4116C24.1918 74.3101 9.5625 60.784 9.5625 43.1726V0.568321H39.7439Z" fill="white" stroke="#007BC1" stroke-width="1.68" stroke-miterlimit="3.86"/>
<path d="M16.4882 62.3819C16.4882 62.3819 20.413 54.8734 24.8526 58.163C30.6963 62.5157 33.7854 59.5537 33.7854 57.8888C33.7854 56.224 36.393 52.2323 41.1401 55.1809C46.1882 58.3368 48.7089 52.1989 48.7089 52.1989C48.7089 52.1989 49.7987 48.4012 54.6796 50.3C59.5605 52.1989 60.3696 49.4843 61.1853 47.8596C62.001 46.2348 63.6257 44.6034 65.5179 45.6933C66.6733 46.3371 68.0263 46.5301 69.3157 46.2348L69.3959 47.9733C69.3959 47.9733 66.7816 49.5712 65.5981 48.7488C64.4147 47.9264 63.833 50.514 62.6763 52.2658C61.5196 54.0175 56.4715 55.2946 54.1314 54.5591C51.7912 53.8236 51.5572 60.3025 48.4013 61.145C45.2455 61.9875 41.8088 58.4304 39.7494 60.0953C37.6901 61.7601 36.3194 67.5169 31.9801 67.2628C27.6408 67.0088 28.3094 65.2169 25.9625 65.8654C23.6157 66.514 22.3587 70.1112 22.3587 70.1112L17.558 63.9331L16.4749 62.3819H16.4882ZM9.55469 0.528206H69.8372V12.3226C69.8372 12.3226 61.4728 18.173 53.67 18.28C45.8673 18.387 42.7849 25.0598 42.3503 25.1667C41.0131 25.5077 36.7273 30.8433 34.9153 31.6189C32.6353 32.5951 29.3992 37.5428 18.4272 36.4998C16.1539 36.2791 9.64829 36.4998 9.64829 36.4998L9.55469 0.528206Z" fill="#007BC1"/>
<path d="M54.0578 39.1141L54.3854 39.6557L54.7866 40.458L55.5822 41.7952L55.8497 42.4639L55.4485 41.929L55.0473 41.1266L54.5191 40.7254L54.118 41.1266V39.7894L53.8505 39.1208H54.0578V39.1141ZM51.5772 39.1208L51.3098 39.9231L51.176 40.458L51.3098 40.9929L51.7109 41.3941L52.2458 41.7952L52.9144 42.1964L53.5831 42.4639L54.3854 42.5976L54.9203 42.865H54.2517L53.7168 42.9987V43.2662L54.3854 44.2023L53.7168 43.6674L53.3156 42.9987L52.647 42.3301L51.7109 41.7952L51.5772 42.1964L52.2458 43.1325L53.0482 44.0685L53.1819 45.1316L53.0482 44.336L52.5133 43.8011L51.9784 43.3999L51.5772 42.865L51.3098 43.3999L51.4435 44.0685L51.8447 44.7371L52.1121 45.5395L51.7109 45.0046L51.4435 44.7371L51.3098 45.1383V46.1814L51.176 45.2453L51.0423 44.443L50.7749 43.6473L50.6411 42.845L50.5074 41.9089V40.9728L50.6411 39.9031L50.9086 39.094L51.5772 39.1208ZM50.7481 39.1208L50.24 39.7894L49.3039 40.7254L48.9027 41.2603L48.5016 41.6615L47.6992 42.7313V43.5069L48.2341 44.3092L49.0365 44.9779L49.9725 45.379L49.0365 45.5127L48.6353 45.9139L48.5016 46.5825L48.2341 47.5186L48.3679 46.5825L47.9667 45.5127L47.1577 43.6674L46.7632 44.336L46.489 44.8441L46.3553 45.5127L46.2216 46.0476V47.5186L46.3553 48.0535L46.0879 47.2512L45.8204 47.1174L45.553 47.6523L45.1518 48.7221L46.2216 44.443L44.6169 46.0476L44.2157 46.7163L43.8146 47.2512L43.6808 47.6523L43.5471 48.1872L43.2797 48.7221L42.8785 49.257L43.146 48.7221L43.4134 47.6523L43.5471 46.9837L41.9424 48.3209L41.2738 49.1233L40.4715 49.7919L41.2738 48.8558L42.2099 47.9198L43.0122 46.9837L43.9483 46.1814L45.553 44.3159L46.3553 43.2461L47.0239 42.1763L47.8263 41.374L48.4949 40.5717L49.0298 39.6356L49.2371 39.094L50.7481 39.1208ZM39.3348 39.1208L39.5488 39.6623L39.8162 40.1972L40.6186 41.5345L40.886 42.2031L41.1535 42.738L40.7523 42.0694L40.2174 41.4008L39.8162 40.7321L39.2814 40.0635L39.1476 40.7321L38.8802 41.6682L38.7531 42.6043V42.738L38.6194 43.5403L38.7531 42.6043V40.331L38.8802 39.6623L39.0139 39.1275H39.3348V39.1208ZM35.624 39.1208L35.2763 39.3949L34.7414 40.331V41.267L35.2763 42.2031L35.8112 43.0054L36.0787 43.6741L36.3461 44.4697L36.6136 45.1383L37.1485 46.743L37.4159 47.4116L37.6834 48.214L37.9508 48.8826L37.2822 47.4116L36.881 47.0104L36.6136 47.5453L36.3461 48.7489V46.3418L36.2124 45.9407L35.945 46.2081L35.4101 47.5453L35.1426 48.3477L35.6775 46.4756L35.8112 45.1383L35.6775 44.0752L34.8752 42.4705L34.474 41.8019L34.0728 40.9996L33.8054 40.0635L33.5379 39.9298H33.2705L33.1368 40.0635L33.003 40.331L32.6019 41.4008V43.4066L33.1368 45.272L33.4042 46.3418L33.5379 47.2779L33.7853 48.1872L33.5179 47.3849L33.1167 46.4488L32.8493 45.6465L32.4481 45.379L32.0469 45.5127L31.7795 45.9139L31.512 46.5825L31.1109 47.2512L31.2446 46.85L31.3783 46.5825L31.512 46.3151V46.0476H31.2446L30.7164 46.3151L30.4489 46.4488L31.3783 45.7802L32.0469 45.1116L32.3144 44.3159V42.7112L32.1806 41.9089V40.9728L32.3144 40.1705H31.1109L30.4422 40.3042L29.9073 40.8391L29.7736 41.374L29.6399 42.0426V42.8383L29.3724 44.1755L29.2387 44.4363L29.3724 44.7037L29.6399 44.8374L29.9073 44.9712L29.5062 44.8374H29.2387L28.8376 44.9712L28.4364 45.2386L28.9713 44.4363L29.2387 43.5069L29.3724 42.7046L29.2387 42.0359L28.8376 42.8383L28.5701 43.5069L28.1689 44.1755L27.634 44.7037L28.1689 44.0351L28.3027 43.6339V43.099H27.9015L27.3666 43.3665L26.8317 43.7677L26.2968 44.0351L27.634 42.9653L28.8376 41.7618L29.6399 40.4246L29.7736 40.0234V39.6222L28.8376 39.4885L28.1689 39.6222L27.5003 39.8897L26.9654 40.4246L26.5643 40.9595L26.1631 41.6281L25.8956 42.2967L25.6282 43.099L26.0294 41.4944V41.0932L25.6282 41.3606L25.227 41.4944L24.8259 41.6281L24.4247 41.7618L24.6921 41.6281L24.9596 41.3606L25.227 41.2269V40.9595L24.8259 40.8257H23.0874L23.6223 40.692H24.291L24.9596 40.5583L25.6282 40.4246L26.1631 40.2908L26.698 40.1571L27.0992 39.8897L27.2329 39.4885L26.698 39.2211L26.0294 39.0873H25.4945L24.8259 39.2211L24.291 39.3548L23.6223 39.6222L23.0874 39.8897L22.693 40.1571L23.4886 39.4885L23.6223 39.3548L23.0874 39.2211L21.8906 39.3548L23.2279 39.0873H35.624V39.1208Z" fill="white"/>
<path d="M23.2886 39.1074L23.7834 38.987L24.0508 38.7196L23.6497 38.5859L23.1148 38.4521H22.4462L21.6438 38.5859L22.4462 38.3184L23.1148 38.1847L23.9171 38.3184L24.5857 38.4521L25.3881 38.5859L26.3241 38.8533H27.2602L28.33 38.5859L30.7303 38.987L33.0036 38.7196L35.1432 38.1847L37.0153 37.1149L38.6133 35.9114L39.6831 34.5742L40.4854 33.3707L40.7529 32.4413L40.6192 31.5052L39.8168 30.7029L38.4796 30.168L36.8816 29.6331L33.1373 29.0982L31.3989 28.9645L30.0617 28.8308L29.3931 28.9645L28.7312 29.2319L27.9288 29.6331L26.9928 30.168L26.1904 30.7029L25.5218 31.2378L24.9869 31.6389L24.7195 32.0401V32.9695L25.2543 34.8416L24.7195 35.5102L25.1206 34.8416V34.4404L24.8532 34.173L24.7195 33.7718L24.452 33.6381L24.3183 33.7718L24.1846 34.173L23.9171 34.4404L24.1846 33.6381L24.452 32.9695V31.6389L23.5159 31.7727L22.9811 32.1738L22.4462 32.575L21.918 32.9695L22.3124 32.575L22.7136 32.0401L23.2485 31.6389L24.0508 31.3715L25.3881 30.8366L25.923 30.5692L26.3241 30.168L26.859 29.9005L27.2602 29.4994L27.6614 29.2319L28.1963 28.8308H24.3183L23.5159 29.0982L22.7136 29.4994L22.3124 29.9005L22.045 30.3017L21.7775 30.7029L21.6438 31.2378L21.3831 31.7727L20.9819 32.4413L20.8482 32.575L20.0458 33.5044L20.5807 32.8425L20.8482 32.575V32.3076L20.3133 32.702L20.0458 32.8425L20.9819 31.9064L21.2493 31.2378L20.9819 30.9703L20.5807 31.1041L20.1795 31.2378L19.6447 31.5052L20.1795 31.1041L20.8482 30.8366L21.3831 30.5692L21.5101 30.168L21.3831 30.0343H20.7144L20.0458 30.3017L19.5109 30.5692L20.447 30.0343L21.5101 29.6331L22.3124 29.3656L22.7136 28.9645L22.1787 28.697L21.2493 28.5633H20.1795L19.3772 28.9645L20.0458 28.2959V28.0284L19.2435 27.761L20.5807 28.0284L21.7775 28.1621L23.1148 28.2959L24.3183 28.4296H28.9986L28.7312 28.1621L28.4637 27.8947L28.1963 27.6272L27.9288 27.3598L27.5276 26.9586L26.9928 26.5575L26.1904 25.7551L27.2602 26.5575L27.7951 26.8249V26.4237L27.5276 25.3539L28.0625 26.4237L28.1963 26.8249L28.5974 27.6272L28.8649 27.8947L29.1323 28.0284L29.3931 28.2959L30.1954 28.1621L31.1315 28.0284L32.2013 27.8947H33.1373L34.0734 27.761L34.742 27.6272L35.2769 27.4935L35.4106 27.3598V27.2261L35.2769 27.0924L35.0095 26.8249L34.6083 26.6912L33.1373 25.8888L31.9338 24.9595L31.2652 24.1571L30.1954 22.5524L29.928 22.0175L29.5268 21.6164L28.9986 21.4827L27.9288 21.7501L27.1265 22.1513L26.4579 22.5524L26.0567 23.0873L25.5218 23.6222L24.7195 24.6853L24.3183 25.0865L23.9171 24.8257L23.5159 24.5583H21.918L21.3831 24.8257L20.8482 24.9595L20.3133 25.2202L20.447 25.0865L20.7144 24.8257L20.8482 24.6853L20.9819 24.5583L20.1795 24.2908L19.5109 24.1571L18.7086 24.0234L17.9062 23.8897H19.2435L19.9121 24.0234H20.447L21.1089 24.1571L21.7775 24.2908H23.7834L24.3183 24.1571L24.7195 24.0234V23.6222H23.9171L23.2485 23.4885L22.5799 23.3548L22.045 23.2211L21.3831 22.9536L20.8482 22.6862L20.1795 22.5524L19.5109 22.285L19.1098 22.1513L18.7086 22.0175H18.04L18.4411 21.8838H18.8423L19.2435 21.7501L19.1098 21.6164L18.8423 21.4827L18.5749 21.2152L19.1098 21.4827L19.9121 22.0175L20.7144 22.4187L22.045 22.8199L23.1148 22.9536L23.9171 23.2211L24.5857 23.0873L24.8532 22.5524L24.5857 22.4187L24.1846 22.285L23.9171 22.1513L23.7834 21.8838L24.1846 22.1513H25.5218L26.3241 21.7501L27.1265 21.4827L27.9288 21.0815L28.0625 20.5466L27.7951 19.7443L27.3939 19.2094L26.7253 18.8082L25.923 18.6745H25.1206L24.1846 18.8082L23.2485 19.2094L22.4462 19.6105L22.9811 19.2094L23.6497 18.9419L24.3183 18.5407L24.452 18.1396L24.0508 17.6047L23.5159 17.471L22.7136 17.7384L21.918 18.1396L20.9819 18.6745L20.0458 19.3431L19.1098 19.7443L18.3074 20.0117L19.1098 19.6105L19.7784 19.2094L19.9121 18.6745L18.8423 18.5407H19.7784L20.8482 18.407L21.6438 18.0058L22.045 17.6047L21.918 17.2035L21.3831 17.0765H20.7144L19.9121 17.2035L20.3133 16.9427L20.447 16.6686L20.3133 16.5349L20.0458 16.2741L20.7144 16.5349L21.2493 16.809L22.045 16.9427H22.7136L23.5159 17.0765L24.3183 17.3372L24.9869 17.6047L25.7892 18.0058L25.3881 17.7384L25.1206 17.3372L24.7195 17.0765L24.0508 16.809L24.3183 16.5349V16.1404L24.1846 15.6055L23.7834 14.9369L23.3822 14.1346L22.9811 13.4659L22.5799 12.6636L22.3124 12.1287L22.7136 12.6636L23.2485 13.4659L23.6497 13.8671L24.0508 13.4659V14.1346L24.3183 15.4718L25.1206 16.809L25.7892 17.2035L26.3241 17.6047L26.9928 17.7384L26.4579 16.1404L26.5916 15.4718L26.9928 14.6695V14.1346L26.859 13.5997L26.4579 13.1985L25.923 12.7973L25.2543 12.3962L24.5857 12.1287L23.9171 11.8613L23.2485 11.7275H23.9171L24.452 11.5938L24.5857 11.1926L23.7834 10.3903L24.452 10.7915L24.9869 11.4601L25.5218 12.2624L26.5916 12.7973V12.2624L25.923 11.4601L25.2543 10.3903L25.1206 10.2566L24.9869 9.45424L25.2543 10.3903L25.6555 10.7915L26.1904 11.1926L26.5916 11.7275L26.859 11.1926L26.7253 10.524L26.3241 9.72169L26.0567 9.05307L26.4579 9.58796L26.7253 9.72169L26.859 9.45424V8.38445L26.9928 9.18679L27.1265 10.1229L27.3939 10.9252L27.5276 11.7275L27.6614 12.6636V13.5997L27.5276 14.6695L27.1265 15.873L27.5276 15.2043L28.0625 14.8032L28.8649 13.7334L29.2594 13.3322L29.6672 12.7973L30.1954 12.3962L30.5966 11.7275L30.4629 10.9252L29.928 10.1229L29.1323 9.45424L28.1963 9.05307H29.1323L29.5268 8.65859L29.6672 7.85625L29.928 7.05391V7.98997L30.1954 8.92603L30.5966 9.98913L30.9978 10.9252L31.3989 10.2566L31.6664 9.58796L31.9338 9.05307V8.51818L32.0676 7.98997L31.9338 7.45508V6.92018L31.8001 6.51901L32.2013 7.18763L32.335 7.32135L32.6024 6.92018L33.0036 5.8504L32.6024 7.45508L32.4687 7.85625L32.335 8.51818L32.2013 8.92603L31.9338 9.98913L32.8699 9.18679L33.5385 8.51818L34.0734 7.85625L34.3409 7.32135L34.4746 6.78646L34.742 6.38529L34.8757 5.8504L35.2769 5.18178L35.0095 5.8504L34.742 6.92018L34.6083 7.5888L35.4106 6.92018L36.213 6.11784L37.0153 5.44923L37.6839 4.78061L36.0793 6.65274L35.1432 7.45508L34.3409 8.38445L33.4048 9.32052L32.6024 10.2566L31.8001 11.3264L31.1315 12.3962L30.3291 13.1985L29.6672 14.0008L29.1323 14.9369L28.7312 16.0067L28.4637 16.9427L28.33 18.0058L28.4637 19.0756L28.8649 20.0117L29.1323 20.2791L29.3931 19.878L29.5268 19.3431L29.6672 18.9419V19.878L30.0617 20.9478L30.7303 22.0175L31.5327 22.9536L32.335 23.756L33.1373 24.2908L33.9397 24.4179L34.6083 24.0234L34.4746 23.6222V23.3548L34.2071 22.5524V22.4187L34.3409 22.285L34.4746 22.1513V22.0175L34.8757 22.285L35.2769 21.7501L35.6781 21.0815L36.6141 20.5466L36.7479 19.4768L37.0153 18.6745L37.2828 18.1396L37.5502 17.7384L37.811 17.471L38.2121 17.2035L38.4796 16.9427L38.747 16.5349L38.8808 16.0067V15.4718L38.747 14.9369L38.3459 14.2683L38.0784 13.5997L37.6839 13.0648L37.2828 12.3962L37.0153 11.7275L37.5502 12.5299L38.3459 13.8671L39.0145 14.5357L39.2819 12.931L39.5494 11.0589V11.8613L39.4157 12.6636V14.2683L39.2819 14.9369L39.1482 15.4718V16.1404L39.2819 16.809L38.747 17.471L37.9514 18.2733L37.4098 19.0756L37.6839 19.7443L38.3459 19.2094L39.5494 18.0058L40.218 17.471L40.8866 16.9427L41.5552 16.2741L42.8925 15.2043L43.4274 14.1346V13.1985L43.0262 12.3962L42.3576 11.5938L42.0901 10.7915L41.8227 10.1229L41.5552 9.32052L41.2878 8.65859L41.0203 7.85625L40.7529 7.18763L40.218 5.58295L41.0203 7.18763L41.4215 7.5888L41.6889 7.05391L41.8227 5.8504V8.12369L42.0901 8.51818L42.2238 8.38445L42.4913 7.72252L42.7587 6.92018L43.0262 6.25157L42.625 7.98997L42.4913 9.32052L42.625 10.3903L42.8925 11.3264L43.2936 11.995L43.8285 12.7973L44.2297 13.4659L44.4971 14.402L44.6309 14.5357H45.032L45.2928 14.2683L45.5669 13.1985V11.1926L45.2928 10.2566L45.1658 9.18679L44.6309 7.32135L44.4971 6.25157L45.032 8.12369L45.2928 8.78562L45.694 9.18679L46.0951 9.05307L46.4963 8.51818L46.7638 7.85625L46.8975 7.5888L46.7638 7.98997L46.63 8.25742V8.51818H46.8975L47.1649 8.38445L47.4324 8.12369L47.6998 7.98997L46.7638 8.78562L46.2289 9.45424L45.8344 10.2566V11.8613L45.9614 12.6636V13.4659L45.8344 14.402H47.0312L47.8335 14.1346L48.2347 13.7334L48.5022 13.1985V11.7275L48.6359 10.9252L48.9033 10.3903V10.1229L48.7696 9.85541L48.5022 9.72169L48.2347 9.58796L48.6359 9.72169H48.9033L49.3045 9.58796L49.7057 9.18679L49.1708 9.98913L48.9033 10.9252L48.7696 11.8613L49.037 12.3962L49.3045 11.7275L49.5719 10.9252L49.9731 10.2566L50.508 9.85541L49.9731 10.3903L49.8394 10.9252V11.1926L49.9731 11.4601L50.2406 11.3264L50.7755 11.0589L51.3103 10.7915L51.8452 10.524L49.8394 12.1287L49.3045 12.7973L48.9033 13.4659L48.3684 14.5357L48.5022 14.9369L49.3045 15.0706L49.9731 14.9369L50.6417 14.5357L51.1766 14.1346L51.7115 13.4659L52.1127 12.7973L52.3801 12.1287L52.5139 11.4601V11.995L52.2464 12.5299L52.1127 12.931V13.4659L52.5139 13.1985L52.915 13.0648L53.3162 12.931L53.7174 12.7973L53.4432 12.931L53.1825 13.1985L52.915 13.3322V13.5997L53.3162 13.7334H54.513L53.8511 13.8671L53.1825 14.0008H52.5139L51.979 14.1346L51.4441 14.402L51.0429 14.6695L50.9092 15.0706L51.4441 15.3381L52.1127 15.4718H52.6476L53.9848 15.2043L55.0479 14.6695L54.6467 14.9369V15.2043H56.2514L55.5828 15.3381H54.9142L54.3793 15.4718L54.2456 15.7392L54.513 16.0067L55.0479 16.1404H55.7165L56.5189 15.873L55.8503 16.2741L55.0479 16.4079L54.3793 16.2741L53.577 16.1404L52.7813 15.873L51.8452 15.7392H50.9092L49.8394 16.0067L47.4324 15.6055L45.1658 15.7392L43.0262 16.4079L41.1541 17.3372L39.5494 18.6745L38.4796 19.878L37.811 21.2152L37.4098 22.285L37.5502 23.2211L38.4796 24.0234L39.6831 24.5583L41.2878 24.9595L43.1599 25.3539L45.032 25.6214L46.7638 25.7551L48.2347 25.8888L48.7696 25.7551L50.3743 24.9595L51.1766 24.5583L51.979 24.0234L52.6476 23.4885L53.4432 22.6862L53.577 21.6164L53.1825 20.6803L52.915 19.7443L53.4432 18.9419L53.0487 19.6105L53.1825 20.1454L53.3162 20.4129L53.4432 20.814L53.7174 20.9478L53.8511 20.6803L54.1119 20.4129L54.2456 20.1454L53.9848 20.814L53.8511 21.6164L53.7174 22.285V23.0873L54.6467 22.9536L55.3154 22.5524L55.7165 22.0175L56.2514 21.6164L55.8503 22.1513L54.9142 23.0873L54.1119 23.3548L53.4432 23.4885L52.7813 23.756L52.3801 24.1571L51.8452 24.4179L51.4441 24.8257L50.9092 25.2202L50.508 25.4877L49.9731 25.8888L50.6417 25.7551H51.3103L51.979 25.8888H53.1825L53.8511 25.7551L54.6467 25.6214L55.4491 25.2202L55.8503 24.8257L56.3851 24.0234L56.6526 23.4885L56.7863 22.8199L57.1875 22.285L57.5887 21.6164L58.1236 21.0815L57.3212 22.1513L57.4549 22.285L57.8561 22.0844L58.1236 21.8838L58.6584 21.4827L57.9898 22.0175L57.8561 22.0844L57.5887 22.285L57.1875 22.8199L56.92 23.4885L57.1875 23.6222H57.5887L57.9898 23.4885L58.5247 23.2211L57.9898 23.6222L57.3212 23.8897L56.92 24.1571L56.6526 24.4179L56.92 24.6853L57.4549 24.5583L58.1236 24.2908L58.7922 24.1571L57.7224 24.5583L56.6526 24.9595L55.8503 25.3539L55.4491 25.7551L55.984 25.8888L56.92 26.1563H57.9898L58.7922 25.6214L58.6584 26.0226L58.1236 26.29V26.6912L58.9259 26.8249H57.5887L56.3851 26.6912L55.1816 26.5575L53.9848 26.4237H50.1068L48.6359 26.5575L48.7696 26.6912L49.037 26.9586L49.3045 27.2261L49.5719 27.3598H48.6359L48.3684 27.2261L48.101 26.9586L47.8335 26.8249L47.5661 26.6912H46.63L45.694 26.5575L44.7646 26.4237L43.8285 26.29L43.0262 26.1563H42.2238L41.4215 26.29L40.7529 26.4237L40.4854 26.6912L40.218 26.9586V27.0924L40.6192 27.3598L42.3576 27.6272L44.096 28.2959L46.7638 30.168L47.8335 31.2378L48.7696 32.0401L49.5719 32.575L50.2406 32.8425L51.8452 32.3076L52.6476 31.3715L53.1825 30.4354L53.8511 29.4994L54.2456 29.9005L54.6467 30.0343L55.1816 30.168H55.7165L56.2514 30.0343L56.7863 29.9005L57.3212 29.6331L57.8561 29.3656L57.7224 29.6331L57.4549 29.7668L57.3212 30.0343L57.1875 30.168L57.9898 30.3017L58.6584 30.4354L59.4608 30.5692L60.2631 30.7029L59.5945 30.8366H58.9259L58.391 30.7029L57.7224 30.5692H57.0538L56.5189 30.4354H54.3793L53.8511 30.5692L53.4432 30.7029V31.1041H54.9142L55.5828 31.3715L56.2514 31.5052L56.7863 31.7727L57.4549 31.9064L57.9898 32.1738L58.6584 32.3076L59.0596 32.575H59.5945L60.1294 32.702H59.7282L59.3271 32.8425H58.9259L59.1933 32.9695L59.3271 33.1099L59.5945 33.2369L59.862 33.5044L59.0596 32.9695L58.391 32.702L57.4549 32.3076L56.1177 31.9064L55.0479 31.6389L54.2456 31.5052L53.577 31.6389L53.3162 32.1738L53.577 32.3076L53.9848 32.4413L54.3793 32.575V32.8425L53.9848 32.575L53.577 32.4413H53.0487L52.6476 32.575L51.8452 32.8425L51.0429 33.1099L50.3743 33.5044L50.1068 34.0393L50.3743 34.8416L50.7755 35.3765L51.4441 35.7777L52.2464 35.9114H53.0487L53.9848 35.644L54.9142 35.3765L55.8503 34.9753L55.1816 35.3765L54.513 35.644L53.9848 36.0451L53.7174 36.4463L54.1119 36.9812L54.7805 37.1149L55.4491 36.8475L56.2514 36.3126L57.1875 35.7777L58.1236 35.2428L59.0596 34.7079L59.862 34.4404L59.0596 34.9753L58.391 35.3765L58.2573 35.7777L59.3271 35.9114L58.391 36.0451L57.3212 36.1789L56.5189 36.4463L56.1177 36.9812L56.3851 37.2486L56.7863 37.5161H57.5887L58.2573 37.3824L57.8561 37.6498L57.7224 37.7835L57.8561 38.051L58.1236 38.3184L57.5887 37.9173L56.92 37.7835L56.1177 37.6498L55.4491 37.5161L54.6467 37.3824L53.8511 37.2486L53.1825 36.9812L52.3801 36.4463L53.1825 37.2486L53.577 37.5161L54.1119 37.6498L53.8511 37.9173V38.4521L53.9848 38.987L54.0584 39.1074H53.8444L53.0487 37.7835L52.5139 37.2486L51.8452 36.9812L51.1766 36.8475L51.5778 37.6498L51.7115 38.3184L51.5778 39.1074H50.9092L51.0429 38.7196L50.7487 39.1074H49.2443L49.4382 38.5859L49.7057 37.5161L49.8394 36.58L49.7057 35.5102L49.3045 34.4404L49.037 34.3067L48.7696 34.5742L48.5022 35.644V34.7079L48.101 33.6381L47.5661 32.702L46.7638 31.6389L45.8344 30.8366L45.032 30.4354L44.2297 30.3017L43.5611 30.5692L43.9622 31.7727V32.1738L43.8285 32.4413L43.6948 32.575V32.702L43.2936 32.4413L43.0262 32.8425L42.4913 33.5044L41.6889 34.0393L41.2878 35.9114L40.6192 36.8475L40.0843 37.2486L39.4157 37.9173L39.2819 38.4521V38.987L39.3354 39.1074H39.0145V37.7835L39.4157 36.9812L40.3517 36.1789L40.7529 35.5102L40.4854 34.8416L39.1482 35.9114L38.6133 36.58L36.6141 38.1847L35.9455 38.8533L35.6179 39.1074H23.2886Z" fill="white"/>
<path d="M42.2499 25.1667L43.1592 25.3606L45.0313 25.6281L46.7697 25.7618L48.234 25.8955L48.7689 25.7618L50.3736 24.9595L51.1759 24.5583L51.9782 24.0234L52.6469 23.4885L53.4492 22.6862L53.5829 21.6164L53.1818 20.6803L52.9143 19.7509L53.4492 18.9486L53.048 19.6172L53.1818 20.1521L53.3155 20.4129L53.4492 20.814L53.7167 20.9478L53.8504 20.6803L54.1178 20.4129L54.2515 20.1521L53.9841 20.8207L53.8504 21.6231L53.7167 22.2917V23.094L54.6527 22.9603L55.3213 22.5591L55.7225 22.0242L56.2574 21.6231L55.8562 22.158L54.9269 23.094L54.1245 23.3615L53.4559 23.4952L52.7873 23.7626L52.3861 24.1638L51.8512 24.4313L51.45 24.8324L50.9151 25.2336L50.514 25.501L49.9791 25.9022L50.6477 25.7685H51.3163L51.9849 25.9022H53.1751L53.8437 25.7685L54.646 25.6348L55.4417 25.2336L55.8429 24.8324L56.3778 24.0301L56.6452 23.4952L56.7789 22.8266L57.1801 22.2917L57.5813 21.6231L58.1161 21.0882L57.3138 22.158L57.4475 22.2917L57.8554 22.1112L58.1228 21.9106L58.6577 21.5094L57.9891 22.0443L57.8554 22.1112L57.5879 22.3117L57.1868 22.8466L56.9193 23.5153L57.1868 23.649H57.5879L57.9891 23.5153L58.524 23.2478L57.9891 23.649L57.3205 23.9164L56.9193 24.1839L56.6519 24.4513L56.9193 24.7188L57.4542 24.585L58.1228 24.3176L58.7915 24.1839L57.7217 24.585L56.6519 24.9862L55.8495 25.3874L55.4484 25.7886L55.9833 25.9223L56.9193 26.1897H57.9891L58.7915 25.6548L58.6577 26.056L58.1228 26.3234V26.7246L58.9252 26.8583H57.5879L56.3844 26.7246L55.1809 26.5909L53.9841 26.4572H50.1061L48.6352 26.5909L48.7689 26.7246L49.0363 26.9921L49.3038 27.2595L49.5712 27.3932H48.6352L48.3677 27.2595L48.1003 26.9921L47.8328 26.8583L47.5654 26.7246H46.636L45.6999 26.5909L44.7639 26.4572L43.8278 26.3234L43.0255 26.1897H42.2231L41.4208 26.3234L41.0865 26.3903C41.4743 26.0025 41.8621 25.6013 42.2499 25.1935V25.1667ZM40.2908 27.1993L40.6185 27.42L42.3569 27.6874L44.0953 28.356L46.7697 30.2282L47.8261 31.2378L48.7622 32.0401L49.5645 32.575L50.2332 32.8425L51.8378 32.3076L52.6402 31.3715L53.1751 30.4354L53.8437 29.4994L54.2449 29.9005L54.646 30.0343L55.1742 30.168H55.7091L56.244 30.0343L56.7789 29.9005L57.3138 29.6331L57.8487 29.3656L57.715 29.6331L57.4475 29.7668L57.3138 30.0343L57.1801 30.168L57.9824 30.3017L58.651 30.4354L59.4534 30.5692L60.2557 30.7029L59.5871 30.8366H58.9185L58.3836 30.7029L57.715 30.5692H57.0464L56.5115 30.4354H54.3853L53.8504 30.5692L53.4492 30.7029V31.1041H54.9202L55.5888 31.3715L56.2574 31.5052L56.7923 31.7727L57.4609 31.9064L57.9958 32.1738L58.6644 32.3076L59.0656 32.575H59.6005L60.1354 32.7087H59.7342L59.333 32.8425H58.9319L59.1993 32.9762L59.333 33.1099L59.6005 33.2436L59.8679 33.5111L59.0656 32.9762L58.397 32.7087L57.4609 32.3076L56.1237 31.9064L55.0539 31.6389L54.2582 31.5052L53.5896 31.6389L53.3222 32.1738L53.5896 32.3076L53.9908 32.4413L54.392 32.575V32.8425L53.9908 32.575L53.5896 32.4413H53.0547L52.6536 32.575L51.8512 32.8425L51.0489 33.1099L50.3803 33.5111L50.1128 34.046L50.3803 34.8483L50.7814 35.3832L51.45 35.7844L52.2524 35.9181H53.0547L53.9908 35.6506L54.9269 35.3832L55.8562 34.982L55.1876 35.3832L54.519 35.6506L53.9841 36.0518L53.7167 36.4463L54.1178 36.9812L54.7864 37.1149L55.4551 36.8475L56.2574 36.3126L57.1935 35.7844L58.1295 35.2495L59.0656 34.7146L59.8679 34.4471L59.0656 34.982L58.397 35.3832L58.2632 35.7844L59.333 35.9181L58.397 36.0518L57.3272 36.1855L56.5248 36.4463L56.1237 36.9812L56.3911 37.2486L56.7923 37.5161H57.5946L58.2632 37.3824L57.8621 37.6498L57.7284 37.7835L57.8621 38.051L58.1295 38.3184L57.5946 37.9173L56.926 37.7835L56.1237 37.6498L55.4551 37.5161L54.6594 37.3824L53.8571 37.2486L53.1884 36.9812L52.3861 36.4463L53.1884 37.2486L53.5896 37.5161L54.1245 37.6498L53.8571 37.9173V38.4522L53.9908 38.987L54.392 39.6557L54.7931 40.458L55.5888 41.7952L55.8562 42.4639L55.4551 41.929L55.0539 41.1266L54.5257 40.7255L54.1245 41.1266V39.7894L53.8571 39.1208L53.4559 38.4522L53.0547 37.7835L52.5198 37.2486L51.8512 36.9812L51.1692 36.8207L51.5704 37.6231L51.7041 38.2917L51.5704 39.094L51.3029 39.8964L51.1692 40.4313L51.3029 40.9662L51.7041 41.3673L52.239 41.7685L52.9076 42.1697L53.5762 42.4371L54.3786 42.5708L54.9135 42.8383H54.2449L53.71 42.972V43.2394L54.3786 44.1755L53.71 43.6406L53.3088 42.972L52.6402 42.3034L51.7041 41.7685L51.5704 42.1697L52.239 43.1057L53.0414 44.0418L53.1751 45.1049L53.0414 44.3092L52.5065 43.7743L51.9716 43.3732L51.5704 42.8383L51.3029 43.3732L51.4367 44.0418L51.8378 44.7104L52.1053 45.5127L51.7041 44.9779L51.4367 44.7104L51.3029 45.1116V46.1814L51.1692 45.2453L51.0355 44.443L50.7681 43.6473L50.6343 42.845L50.5006 41.9089V40.9728L50.6343 39.9031L51.0355 38.6995L50.2332 39.7693L49.2971 40.7054L48.8959 41.2403L48.4948 41.6415L47.6924 42.7112V43.5069L48.2273 44.3092L49.0296 44.9779L49.9657 45.379L49.0296 45.5127L48.6285 45.9139L48.4948 46.5825L48.2273 47.5186L48.361 46.5825L47.9599 45.5127L47.1575 43.6674L46.763 44.336L46.4889 44.8441L46.3552 45.5127L46.2215 46.0476V47.5186L46.3552 48.0535L46.0877 47.2512L45.8203 47.1174L45.5528 47.6523L45.1517 48.7221L46.2215 44.443L44.6168 46.0476L44.2156 46.7163L43.8144 47.2512L43.6807 47.6523L43.547 48.1872L43.2795 48.7221L42.8784 49.257L43.1458 48.7221L43.4133 47.6523L43.547 46.9837L41.9423 48.3209L41.2737 49.1233L40.4714 49.7919L41.2737 48.8558L42.2098 47.9198L43.0121 46.9837L43.9482 46.1814L45.5528 44.3159L46.3552 43.2461L47.0238 42.1764L47.8261 41.374L48.4948 40.5717L49.0296 39.6356L49.4308 38.5658L49.6983 37.496L49.832 36.56L49.6983 35.4969L49.2971 34.4271L49.0296 34.2934L48.7622 34.5608L48.4948 35.6306V34.6945L48.0936 33.6247L47.5587 32.6887L46.763 31.6189L45.8203 30.8366L45.0179 30.4354L44.2156 30.3017L43.547 30.5692L43.9482 31.7727V32.1738L43.8144 32.4413L43.6807 32.575V32.7087L43.2795 32.4413L43.0121 32.8425L42.4772 33.5111L41.6749 34.046L41.2737 35.9181L40.6051 36.8475L40.0702 37.2486L39.4016 37.9173L39.2678 38.4522V38.987L39.5353 39.6557L39.8027 40.1906L40.6051 41.5278L40.8725 42.1964L41.14 42.7313L40.7388 42.0627L40.2039 41.3941L39.8027 40.7255L39.2678 40.0568L39.1341 40.7255L38.8667 41.6615L38.7396 42.5976V42.7313L38.6059 43.5336L38.7396 42.5976V40.3243L38.8667 39.6557L39.0004 39.1208V37.7835L39.4016 36.9812L40.3376 36.1855L40.7388 35.5169L40.4714 34.8483L39.1341 35.9181L38.6059 36.5867L36.6001 38.1914L35.9314 38.86L35.2628 39.3949L34.7279 40.331V41.267L35.2628 42.2031L35.7977 43.0054L36.0652 43.6741L36.3326 44.4697L36.6001 45.1383L37.135 46.743L37.4024 47.4116L37.6699 48.214L37.9373 48.8826L37.2687 47.4116L36.8675 47.0104L36.6001 47.5453L36.3326 48.7488V46.3418L36.1989 45.9407L35.9314 46.2081L35.3966 47.5453L35.1291 48.3477L35.664 46.4756L35.7977 45.1383L35.664 44.0752L34.8617 42.4705L34.4605 41.8019L34.0593 40.9996L33.7919 40.0635L33.5244 39.9298H33.257L33.1233 40.0635L32.9895 40.331L32.5884 41.4008V43.4066L33.1233 45.272L33.3907 46.3418L33.5244 47.2779L33.7852 48.1872L33.5177 47.3849L33.1166 46.4488L32.8491 45.6465L32.448 45.379L32.0468 45.5127L31.7793 45.9139L31.5119 46.5825L31.1107 47.2512L31.2444 46.85L31.3782 46.5825L31.5119 46.3151V46.0476H31.2444L30.7162 46.3151L30.4488 46.4488L31.3782 45.7802L32.0468 45.1116L32.3142 44.3159V42.7112L32.1805 41.9089V40.9728L32.3142 40.1705H31.1107L30.4421 40.3042L29.9072 40.8391L29.7735 41.374L29.6398 42.0426V42.8383L29.3723 44.1755L29.2386 44.4363L29.3723 44.7037L29.6398 44.8374L29.9072 44.9712L29.506 44.8374H29.2386L28.8374 44.9712L28.4363 45.2386L28.9711 44.4363L29.2386 43.5069L29.3723 42.7046L29.2386 42.0359L28.8374 42.8383L28.57 43.5069L28.1688 44.1755L27.6339 44.7037L28.1688 44.0351L28.3025 43.6339V43.099H27.9014L27.3665 43.3665L26.8316 43.7677L26.2967 44.0351L27.6339 42.9653L28.8374 41.7618L29.6398 40.4246L29.7735 40.0234V39.6222L28.8374 39.4885L28.1688 39.6222L27.5002 39.8897L26.9653 40.4246L26.5641 40.9595L26.163 41.6281L25.8955 42.2967L25.6281 43.099L26.0292 41.4944V41.0932L25.6281 41.3606L25.2269 41.4944L24.8257 41.6281L24.4246 41.7618L24.692 41.6281L24.9594 41.3606L25.2269 41.2269V40.9595L24.8257 40.8257H23.0873L23.6222 40.692H24.2908L24.9594 40.5583L25.6281 40.4246L26.163 40.2908L26.6978 40.1571L27.099 39.8897L27.2327 39.4885L26.6978 39.2211L26.0292 39.0873H25.4943L24.8257 39.2211L24.2908 39.3548L23.6222 39.6222L23.0873 39.8897L22.6928 40.1571L23.4885 39.4885L23.6222 39.3548L23.0873 39.2211L21.8905 39.3548L23.2277 39.0873L23.7626 38.9536L24.0301 38.6862L23.6289 38.5524L23.094 38.4187H22.4254L21.623 38.5524L22.4254 38.285L23.094 38.1513L23.8963 38.285L24.565 38.4187L25.3673 38.5524L26.3034 38.8199H27.2394L28.3092 38.5524L30.7162 38.9536L32.9828 38.6862L35.1224 38.158L36.9945 37.0882L38.5992 35.8914L39.6623 34.5541L40.4647 33.3506L40.7321 32.4145L40.5984 31.4785L39.8027 30.7029L38.4655 30.168L37.3355 29.7936C38.305 28.9979 39.2879 28.1287 40.2908 27.1458V27.1993Z" fill="#007BC1"/>
</g>
<defs>
<clipPath id="clip0_2491:55296">
<rect width="80" height="80" fill="white"/>
</clipPath>
</defs>
</svg>
