<svg width="80" height="80" viewBox="0 0 80 80" fill="none" xmlns="http://www.w3.org/2000/svg">
<path d="M29.163 26.3959C28.1477 25.7868 27.3355 24.9746 26.3203 24.5685H27.7416C27.9447 24.9746 28.1477 25.3807 28.9599 25.7868C28.7569 25.9898 28.9599 26.1928 29.163 26.3959Z" fill="#007DC5"/>
<path d="M55.1524 53.6041C54.9494 54.4162 54.5433 55.0254 53.9341 55.8376H50.2793C51.2945 55.6345 51.9037 55.4315 52.7158 54.6193C53.325 54.2132 54.1372 53.8071 55.1524 53.6041Z" fill="#007DC5"/>
<path d="M25.5066 32.6904H22.867C22.664 32.4874 22.664 32.2843 22.4609 32.0813C22.867 30.6599 22.867 29.0356 24.2883 28.2234C25.5066 29.2386 25.5066 31.066 25.5066 32.6904Z" fill="#007DC5"/>
<path d="M54.7449 69.2386C52.7145 70.4568 50.481 71.6751 48.4505 72.4873L40.3287 76.9543C37.283 74.9239 34.0343 73.2995 30.9886 71.4721C29.5673 70.6599 28.1459 69.8477 26.7246 69.0355H54.7449V69.2386Z" fill="#007DC5"/>
<path d="M46.4211 55.6345L29.5684 55.4315L29.7714 55.2284C30.1775 54.6193 30.3805 54.2132 30.9897 54.6193C31.5988 54.2132 31.8019 54.0102 32.0049 53.401V53.198C33.2232 51.9797 35.0506 52.7919 36.675 51.3706C37.081 50.7614 37.2841 50.7614 37.8932 50.5584H38.2993C38.7054 50.3553 39.3146 50.1523 39.5176 49.9492C40.1267 49.7462 40.9389 51.1675 41.7511 51.5736C42.9694 52.1827 43.9846 51.7767 44.9998 51.1675L45.609 50.7614C46.0151 51.1675 46.2181 51.5736 46.6242 51.9797C47.4364 52.9949 46.4211 54.6193 46.4211 55.6345Z" fill="#007DC5"/>
<path d="M73.8321 46.0914C73.8321 49.5431 72.8169 52.7919 70.9895 55.8376H69.5682H60.2281L60.025 55.4315C59.0098 53.198 61.6494 51.5736 60.6342 48.934C58.8068 46.4975 57.1824 48.5279 55.355 48.3249C54.9489 47.9188 54.5428 47.5127 54.1367 47.1066C54.3398 46.9036 54.3398 46.4975 54.3398 46.0914H73.8321Z" fill="#007DC5"/>
<path d="M49.8723 54.8223V55.6345H48.0449C48.6541 55.4315 49.2632 55.2284 49.8723 54.8223Z" fill="#007DC5"/>
<path d="M32.6128 46.9035C32.2067 48.7309 29.9732 49.5431 28.5519 50.5583C24.694 49.9492 23.4758 52.9949 22.0544 55.6345H11.09H10.4808H9.66865C7.84124 52.5888 6.82601 49.3401 6.41992 46.2944H29.9732C29.7702 46.7005 29.5671 47.1066 29.3641 47.5126C30.7854 46.7005 31.1915 46.0913 32.6128 46.9035Z" fill="#007DC5"/>
<path d="M17.9954 31.6751C18.1984 32.0812 18.4015 32.2843 18.6045 32.6904H6.21875V24.3655H22.2594C20.2289 26.3959 19.4167 28.8325 17.9954 31.6751Z" fill="#007DC5"/>
<path d="M73.8319 24.3655C73.8319 27.2081 73.8319 29.8477 73.8319 32.6904H43.5781C43.5781 32.2843 43.5781 31.8782 43.9842 31.8782H44.3903C44.5934 31.4721 44.7964 31.066 44.5934 30.6599L45.6086 30.4568L45.8116 29.2386C46.8269 29.6447 47.436 29.6447 48.4512 29.4416V29.0355C48.4512 28.6294 48.2482 28.2233 48.2482 28.0203L48.0451 27.6142C48.8573 28.0203 48.8573 28.2233 49.8725 28.0203V27.0051C50.0756 26.3959 50.0756 24.9746 50.6847 24.5685H55.7609C56.37 25.9898 56.9791 27.6142 57.9944 28.6294C60.0248 30.2538 61.8522 31.4721 64.6949 30.8629C65.9131 30.0508 66.7253 29.6447 66.3192 27.8173C64.2888 27.6142 62.4614 27.6142 61.0401 25.7868C60.837 25.3807 60.634 24.9746 60.634 24.5685H73.8319V24.3655Z" fill="#007DC5"/>
<path d="M57.1824 69.2386C54.5428 71.066 51.7002 72.4873 49.0606 73.7056L48.6545 73.9086L40.3296 78.5787C36.2687 75.9391 31.8017 73.5025 27.3347 71.066C26.9286 70.8629 26.3194 70.4568 25.9133 70.2538C25.3042 69.8477 24.6951 69.6447 24.0859 69.2386H24.6951C26.7255 70.4568 28.5529 71.4721 30.5834 72.4873C33.8321 74.3147 37.0809 75.9391 40.1265 77.9695L40.3296 78.1726L48.8575 73.2995C51.4971 72.0812 54.1367 70.6599 56.5732 69.0355H57.1824V69.2386Z" fill="#007DC5"/>
<path d="M55.7618 69.2385C53.5283 70.6598 51.0917 71.8781 48.8582 73.0964L40.5334 77.7664C35.8633 74.7208 30.7872 72.0812 25.9141 69.2385H26.9293C28.3506 70.0507 29.7719 70.8629 31.1932 71.6751C34.2389 73.2994 37.4877 75.1269 40.5334 77.1573L48.6552 72.6903C50.6856 71.6751 52.9191 70.6599 54.9496 69.4416H55.7618V69.2385Z" fill="#007DC5"/>
<path d="M73.833 11.9797H60.2289C59.6198 11.3705 58.8076 10.7614 57.7923 10.3553C56.371 9.54313 54.7467 8.73095 53.1223 8.32486C51.2949 7.30963 48.8583 7.71572 47.437 8.52791C45.8127 8.32486 45.0005 9.34009 43.7822 10.1523L43.5792 9.34009L43.7822 9.54313V9.34009C43.7822 9.13704 43.7822 8.934 43.7822 8.73095C43.1731 8.12182 42.5639 7.10659 41.5487 7.10659H40.7365L40.9396 7.91877C41.1426 8.73095 40.3304 10.1523 40.7365 11.1675C40.1274 11.3705 39.5182 11.5736 38.9091 11.7766H25.102C23.2746 10.3553 21.2441 8.934 19.2137 6.2944C18.6045 7.91877 17.7924 10.3553 18.6045 11.9797H6.21875C6.21875 8.32486 6.21875 4.87308 6.21875 1.21826C14.5436 1.21826 23.2746 1.21826 31.8025 1.21826H42.97C44.1883 1.21826 45.6096 1.21826 46.8279 1.21826H51.2949C52.5132 1.21826 53.5284 1.21826 54.7467 1.21826C56.168 1.21826 57.3863 1.21826 58.8076 1.21826C60.4319 1.21826 61.8533 1.21826 63.4776 1.21826C64.4929 1.21826 65.305 1.21826 66.3203 1.21826C68.9599 1.21826 71.3964 1.21826 73.833 1.21826C73.833 5.07613 73.833 8.52791 73.833 11.9797Z" fill="#007DC5"/>
<path d="M56.5735 69.2385C54.1369 70.8629 51.4973 72.2842 48.8577 73.5025L40.3298 78.3756L40.1268 78.1725C37.0811 76.1421 33.8324 74.3147 30.5836 72.6903C28.5532 71.6751 26.7258 70.4568 24.6953 69.4416H25.7105C30.5836 72.2842 35.6598 74.7208 40.3298 77.9695L48.6547 73.2994C50.8882 72.2842 53.3248 70.8629 55.5583 69.4416H56.5735V69.2385Z" fill="#007DC5"/>
<path d="M27.539 57.0558C27.336 57.0558 27.336 56.8528 27.539 57.0558C27.336 57.0558 27.539 57.0558 27.539 57.0558Z" fill="black"/>
<path d="M75.0508 0.609137V0.203046H74.6447C53.934 0 33.0203 0 12.5127 0H5V1.21827C5 6.29442 5 11.5736 5 16.4467C5 27.0051 5 36.9543 5 45.2792C5.20305 52.3858 10.2792 60.1015 15.1523 64.5685C19.6193 68.4264 24.8985 71.269 29.7716 73.9086C33.0203 75.736 36.6751 77.7665 39.7208 79.797L39.9239 80L49.264 74.7208C61.6497 68.8325 75.0508 58.2741 74.8477 45.8883C74.8477 40.8122 74.8477 35.9391 74.8477 31.066C75.0508 21.1168 75.0508 10.7614 75.0508 0.609137ZM49.0609 73.7056L48.6548 73.9086L40.3299 78.5787C36.269 75.9391 31.802 73.5025 27.335 71.066C26.9289 70.8629 26.3198 70.4568 25.9137 70.2538C25.3046 69.8477 24.6954 69.6447 24.0863 69.2386H56.9797C54.3401 71.066 51.7005 72.4873 49.0609 73.7056ZM61.0406 12.7919C61.2437 12.9949 61.4467 13.198 61.6497 13.6041H74.0355C74.0355 16.8528 74.0355 19.8985 74.0355 22.9442H60.6345C60.6345 23.1472 60.6345 23.3503 60.8376 23.7563C60.8376 23.9594 60.8376 24.1624 61.0406 24.5685H74.2386C74.2386 27.4112 74.2386 30.0508 74.2386 32.8934H43.5787C43.5787 33.0964 43.5787 33.2995 43.7817 33.2995C43.9848 33.2995 44.1878 33.5025 44.3909 33.7056C44.797 33.9086 45.203 34.1117 45.6091 34.5178H74.0355V44.67H54.7462C54.7462 44.8731 54.7462 45.0761 54.7462 45.4822C54.7462 45.6853 54.7462 45.8883 54.5431 46.2944H74.0355C74.0355 49.7462 73.0203 52.9949 71.1929 56.0406H69.7716H60.4315L60.8376 56.8528V57.0558L60.6345 56.8528L59.6193 56.4467C59.2132 56.2437 58.6041 56.4467 58.198 56.6497C57.9949 56.8528 57.7919 57.0558 57.5888 57.4619H68.9594H70.1777H70.5838C70.3807 57.665 70.3807 57.868 70.1777 58.0711C69.7716 58.8832 69.1624 59.4924 68.5533 60.1015C66.1167 62.9442 63.0711 65.5838 59.8223 67.8173H59.4162H58.6041H21.8528C21.0406 67.2081 20.0254 66.599 19.2132 65.9898C19.0102 65.7868 18.8071 65.7868 18.6041 65.5838C18.401 65.3807 18.198 65.3807 17.9949 65.1777C17.7919 64.9746 17.5888 64.9746 17.3858 64.7716C16.9797 64.3655 16.5736 63.9594 15.9645 63.7563C14.5431 62.5381 13.3249 61.1167 12.1066 59.4924C11.4975 58.6802 11.0914 57.868 10.4822 56.8528H11.2944H11.9036H20.8376C21.2437 56.8528 21.2437 56.4467 21.4467 56.2437C21.6497 56.0406 21.8528 55.8376 21.8528 55.4315H10.8883H10.2792H9.67005C7.84264 52.3858 6.82741 49.1371 6.42132 46.0914H29.9746C30.1777 45.8883 30.3807 45.4822 30.3807 45.2792C30.5838 45.0761 30.7868 44.67 30.9898 44.467H6.21827C6.21827 41.2183 6.21827 37.7665 6.21827 34.1117H19.2132C19.2132 33.9086 19.0102 33.7056 19.0102 33.2995C19.0102 33.0964 18.8071 32.8934 18.6041 32.4873H6.21827C6.21827 29.8477 6.21827 27.0051 6.21827 24.1624H22.2589C22.4619 23.9594 22.868 23.7563 23.0711 23.3503C23.2741 23.1472 23.2741 23.1472 23.4772 23.1472C23.6802 23.1472 24.0863 23.3503 24.2893 23.3503C24.8985 23.5533 25.5076 23.7563 25.9137 24.1624H27.335C27.335 23.9594 27.132 23.7563 27.132 23.3503C27.132 23.1472 27.132 22.9442 26.9289 22.9442C26.9289 22.7411 26.9289 22.7411 26.9289 22.7411H6.21827V13.6041H21.0406C21.0406 13.401 21.0406 13.401 21.0406 13.198C20.8376 13.198 21.0406 13.198 20.6345 13.401C20.2284 13.6041 19.6193 13.401 19.4162 13.198C19.2132 12.9949 19.2132 12.7919 19.2132 12.7919C19.0102 12.5888 18.8071 12.3858 18.6041 11.9797H6.21827C6.21827 8.32487 6.21827 4.8731 6.21827 1.21827C14.5431 1.21827 23.2741 1.21827 31.802 1.21827H42.9695C44.1878 1.21827 45.6091 1.21827 46.8274 1.21827H51.2944C52.5127 1.21827 53.5279 1.21827 54.7462 1.21827C56.1675 1.21827 57.3858 1.21827 58.8071 1.21827C60.4315 1.21827 61.8528 1.21827 63.4772 1.21827C64.4924 1.21827 65.3046 1.21827 66.3198 1.21827C68.9594 1.21827 71.3959 1.21827 73.8325 1.21827C73.8325 4.8731 73.8325 8.32487 73.8325 11.7766H60.2284C60.4315 12.1827 60.8376 12.5888 61.0406 12.7919Z" fill="black"/>
<path d="M27.3355 22.9442H6.21875V13.6041H21.0411C21.4472 16.0406 24.899 14.6193 25.5081 16.6497C25.5081 17.0558 25.7111 17.4619 25.9142 17.868C26.7264 19.6954 26.7264 19.6954 24.6959 20.3046L26.5233 21.3198L25.7111 22.335H26.7264C27.1325 22.5381 27.1325 22.5381 27.3355 22.9442Z" fill="white"/>
<path d="M55.7616 24.3655H50.4824H50.6855C50.8885 24.1624 50.8885 23.9594 51.0916 23.7563C51.2946 23.5533 51.2946 23.3502 51.4977 22.9442H55.3555C55.5586 23.1472 55.5586 23.3502 55.5586 23.7563C55.5586 23.9594 55.7616 24.1624 55.7616 24.3655Z" fill="black"/>
<path d="M73.833 13.604H61.4472C61.2441 13.401 61.0411 13.1979 60.838 12.7918C60.635 12.5888 60.4319 12.3857 60.2289 11.9797C59.6198 11.3705 58.8076 10.7614 57.7923 10.3553C56.371 9.5431 54.7467 8.73092 53.1223 8.32483C51.2949 7.3096 48.8583 7.71569 47.437 8.52787C45.8127 8.32483 45.0005 9.34006 43.7822 10.1522L43.5792 9.34006L43.7822 9.5431V9.34006C43.7822 9.13701 43.7822 8.93397 43.7822 8.73092C43.1731 8.12178 42.5639 7.10656 41.5487 7.10656H40.7365L40.9396 7.91874C41.1426 8.73092 40.3304 10.1522 40.7365 11.1675C40.1274 11.3705 39.5182 11.5736 38.9091 11.7766C38.503 11.7766 38.3 11.9797 37.8939 11.9797C37.4878 12.1827 36.8786 12.3857 36.4726 12.3857C35.8634 12.5888 35.2543 12.7918 34.8482 13.1979H27.3355C26.9294 12.9949 26.7264 12.7918 26.3203 12.3857C25.9142 12.1827 25.7111 11.9797 25.305 11.5736C23.2746 10.3553 21.2441 8.93397 19.2137 6.29437C18.6045 7.91874 17.7924 10.3553 18.6045 11.9797C18.8076 12.3857 19.0106 12.5888 19.2137 12.7918L19.4167 12.9949C19.8228 13.401 20.2289 13.401 20.635 13.1979C21.0411 12.9949 20.838 13.1979 21.0411 12.9949C21.0411 13.1979 21.0411 13.1979 21.0411 13.401C21.4472 15.8375 24.899 14.4162 25.5081 16.4467C25.5081 16.8527 25.7111 17.2588 25.9142 17.6649C26.7264 19.4923 26.7264 19.4923 24.6959 20.1015L26.5233 21.1167L25.7111 22.1319H26.7264C27.1325 22.1319 27.1325 22.335 27.3355 22.538V22.7411C27.3355 22.9441 27.3355 23.1472 27.5385 23.1472C27.5385 23.3502 27.7416 23.7563 27.7416 23.9593C27.9446 24.3654 28.1477 24.7715 28.9599 25.1776C28.9599 25.3807 29.1629 25.5837 29.1629 25.7868C28.1477 25.1776 27.3355 24.3654 26.3203 23.9593C25.7111 23.7563 25.305 23.3502 24.6959 23.1472C24.4929 22.9441 24.0868 22.9441 23.8837 22.9441C23.6807 22.9441 23.6807 23.1472 23.4776 23.1472C23.2746 23.3502 22.8685 23.5533 22.6654 23.9593C20.4319 25.9898 19.6198 28.4263 18.1984 31.269C18.4015 31.6751 18.6045 31.8781 18.8076 32.2842C19.0106 32.4873 19.0106 32.6903 19.2137 33.0964C19.2137 33.2994 19.4167 33.5025 19.4167 33.9086H6.21875C6.21875 37.5634 6.21875 41.0152 6.21875 44.2639H30.9903C30.7873 44.467 30.5842 44.67 30.3812 45.0761C30.1781 45.2791 30.1781 45.4822 29.9751 45.8883C29.772 46.2944 29.569 46.7005 29.366 47.1066C30.5842 46.4974 31.1934 45.8883 32.4116 46.7005C32.0055 48.5279 29.772 49.3401 28.3507 50.3553C24.4929 49.7461 23.2746 52.7918 21.8533 55.4314C21.6502 55.6345 21.4472 55.8375 21.4472 56.2436C21.2441 56.4467 21.2441 56.8527 21.0411 57.0558H12.1071H11.4979H10.4827C11.0918 57.868 11.4979 58.6802 12.1071 59.4923C13.3253 61.1167 14.5436 62.538 15.9649 63.7563C16.371 64.1624 16.7771 64.5685 17.3863 64.7715C17.5893 64.9746 17.7924 64.9746 17.9954 65.1776C18.1984 65.3807 18.4015 65.3807 18.6045 65.5837C18.8076 65.7868 19.0106 65.7868 19.2137 65.9898C20.0259 66.5989 20.838 67.2081 21.8533 67.8172H58.1984H59.0106H59.4167C62.6654 65.5837 65.7111 62.9441 68.1477 60.1015C68.7568 59.4923 69.3659 58.6802 69.772 58.071C69.9751 57.868 69.9751 57.6649 70.1781 57.4619H69.772H68.5538H57.1832C57.3863 57.0558 57.5893 56.8527 57.7923 56.6497C58.1984 56.4467 58.8076 56.2436 59.2137 56.4467L60.2289 56.8527H60.4319L60.0258 56.0406L59.8228 55.6345C58.8076 53.401 61.4472 51.7766 60.4319 49.137C58.6045 46.7005 56.9802 48.7309 55.1528 48.5279C54.7467 48.1218 54.3406 47.7157 53.9345 47.3096C54.1375 47.1066 54.1375 46.7005 54.1375 46.2944C54.1375 46.0913 54.3406 45.8883 54.3406 45.4822C54.3406 45.2791 54.3406 45.0761 54.3406 44.67H73.6299V34.3147H45.2035C44.7974 34.1116 44.3913 33.9086 43.9852 33.5025C43.7822 33.2994 43.5791 33.2994 43.3761 33.0964C43.3761 32.8934 43.3761 32.8934 43.1731 32.6903C43.1731 32.2842 43.1731 31.8781 43.5792 31.8781H43.9852C44.1883 31.472 44.3913 31.0659 44.1883 30.6599L45.2035 30.4568L45.4066 29.2385C46.4218 29.6446 47.0309 29.6446 48.0462 29.4416V29.0355C48.0462 28.6294 47.8431 28.2233 47.8431 28.0203L47.6401 27.6142C48.4522 28.0203 48.4522 28.2233 49.4675 28.0203V27.005C49.6705 26.3959 49.6705 24.9746 50.2797 24.5685H50.4827C50.6857 24.3654 50.6857 24.1624 50.8888 23.9593C51.0918 23.7563 51.0918 23.5533 51.2949 23.1472H55.1528C55.3558 23.3502 55.3558 23.5533 55.3558 23.9593C55.5588 24.1624 55.5588 24.3654 55.7619 24.7715C56.371 26.1929 56.9802 27.8172 57.9954 28.8324C60.0258 30.4568 61.8533 31.6751 64.6959 31.0659C65.9142 30.2538 66.7264 29.8477 66.3203 28.0203C64.2898 27.8172 62.4624 27.8172 61.0411 25.9898C60.838 25.5837 60.635 25.1776 60.635 24.7715C60.635 24.5685 60.4319 24.3654 60.4319 23.9593C60.4319 23.7563 60.4319 23.5533 60.2289 23.1472H73.6299C73.833 19.8984 73.833 16.6497 73.833 13.604ZM28.7568 24.9746C28.5538 24.7715 28.3507 24.5685 28.3507 24.3654C28.1477 24.1624 28.1477 23.9593 28.1477 23.5533C28.1477 23.3502 28.1477 23.1472 27.9446 22.7411C27.7416 22.1319 27.5385 21.7258 26.7264 21.7258L27.1325 21.1167L25.9142 20.3045C28.1477 19.4923 26.1172 17.6649 26.1172 16.2436C25.305 14.0101 22.2594 15.4314 21.6502 13.604C21.6502 13.401 21.4472 13.401 21.4472 13.1979C21.4472 12.9949 21.2441 12.9949 21.2441 12.9949C20.838 12.7918 20.635 12.9949 20.2289 12.9949C20.0259 12.9949 19.8228 12.9949 19.8228 12.9949C19.8228 12.9949 19.6198 12.9949 19.6198 12.7918C19.6198 12.3857 19.4167 12.1827 19.2137 11.9797C18.4015 10.7614 19.0106 8.73092 19.4167 7.51265C20.838 9.34006 22.6654 10.7614 24.4929 11.9797C24.899 12.1827 25.102 12.3857 25.5081 12.7918C25.9142 12.9949 26.1172 13.1979 26.5233 13.604C27.1325 14.0101 27.5385 14.4162 28.1477 14.8223C29.772 16.8527 29.9751 19.6954 31.3964 21.7258L30.3812 22.9441L29.772 23.7563L29.1629 24.3654L28.7568 24.9746ZM23.6807 34.3147C23.4776 34.1116 23.4776 33.9086 23.2746 33.5025C23.0715 33.2994 22.8685 33.0964 22.8685 32.6903C22.6654 32.4873 22.6654 32.2842 22.4624 32.0812C22.8685 30.6599 22.8685 29.0355 24.2898 28.2233C25.5081 29.2385 25.5081 31.0659 25.5081 32.6903C25.5081 32.8934 25.5081 33.0964 25.5081 33.5025C25.5081 33.7055 25.5081 33.9086 25.5081 33.9086C26.3203 33.9086 27.1325 34.1116 27.7416 34.3147H23.6807ZM27.3355 57.0558C27.3355 57.0558 27.3355 56.8527 27.3355 57.0558C27.3355 57.0558 27.5385 57.0558 27.3355 57.0558ZM47.0309 56.4467C47.437 56.2436 47.8431 56.0406 48.2492 55.6345C48.8583 55.2284 49.2644 55.0253 50.0766 54.8223V55.6345H50.2797C51.2949 55.4314 51.904 55.2284 52.7162 54.4162C53.5284 54.2132 54.3406 53.8071 55.1528 53.604C54.9497 54.4162 54.5436 55.0253 53.9345 55.8375C53.7314 56.0406 53.5284 56.2436 53.3253 56.6497C53.1223 56.8527 52.9193 57.0558 52.7162 57.4619L28.5538 57.2588C28.7568 57.0558 28.9599 56.8527 29.366 56.4467C29.569 56.2436 29.772 56.0406 29.772 55.6345L29.9751 55.4314C30.3812 54.8223 30.5842 54.4162 31.1934 54.8223C31.8025 54.4162 32.0055 54.2132 32.2086 53.604V53.401C33.4269 52.1827 35.2543 52.9949 36.8786 51.5736C37.2847 50.9644 37.4878 50.9644 38.0969 50.7614H38.503C38.9091 50.5583 39.5182 50.3553 39.7213 50.1522C40.3304 49.9492 41.1426 51.3705 41.9548 51.7766C43.1731 52.3857 44.1883 51.9796 45.2035 51.3705L45.6096 50.7614C46.0157 51.1675 46.2187 51.5736 46.6248 51.9796C47.234 52.9949 46.4218 54.6192 46.4218 55.8375V56.8527C46.6248 56.6497 46.8279 56.6497 47.0309 56.4467ZM66.9294 21.5228C63.0715 21.5228 60.635 19.0863 57.9954 16.2436C57.9954 16.2436 57.7923 16.0406 57.5893 15.8375L57.3863 15.6345C57.3863 15.8375 57.3863 15.8375 57.3863 15.8375C57.3863 16.0406 57.3863 16.2436 57.5893 16.6497C57.9954 17.6649 59.4167 18.6802 59.2137 20.1015C59.8228 21.1167 59.8228 21.9289 60.0258 22.9441C60.0258 23.1472 60.0258 23.3502 60.0258 23.7563C60.0258 23.9593 60.0258 24.1624 60.2289 24.5685C60.4319 25.1776 60.4319 25.5837 60.838 26.1928C62.2593 27.8172 64.0868 28.2233 66.1172 28.4264C66.3203 29.4416 65.5081 30.0507 64.6959 30.4568C62.2593 31.0659 60.4319 29.6446 58.6045 28.2233C57.5893 27.2081 56.9802 25.9898 56.371 24.5685C56.168 24.3654 56.168 24.1624 55.9649 23.7563C55.9649 23.5533 55.7619 23.3502 55.7619 22.9441C55.3558 22.1319 55.1528 21.3198 54.7467 20.5076C54.5436 20.3045 54.5436 19.8984 54.3406 19.6954C54.1375 19.2893 53.9345 19.0863 53.7314 18.6802C53.7314 18.6802 53.7314 18.4771 53.5284 18.2741L53.3253 18.071C53.1223 17.868 53.1223 17.6649 52.9193 17.6649C52.7162 17.4619 52.5132 17.2588 52.3101 17.0558C52.1071 16.8527 52.1071 16.8527 51.904 16.8527C51.904 16.8527 51.904 16.8527 51.701 16.8527C51.0918 16.4467 50.2797 16.2436 49.4675 16.2436C49.2644 16.2436 49.2644 16.2436 49.2644 16.2436H49.0614L48.8583 16.4467L49.0614 16.6497C49.2644 16.6497 49.2644 16.8527 49.2644 16.8527C49.8736 17.0558 50.6857 17.2588 51.2949 17.4619C51.4979 17.4619 51.701 17.6649 51.904 17.868C52.1071 18.071 52.3101 18.2741 52.3101 18.6802C51.701 19.0863 50.0766 18.4771 50.6857 19.6954C51.2949 20.7106 51.0918 22.1319 50.6857 23.3502C50.4827 23.5533 50.4827 23.7563 50.2797 24.1624C50.2797 24.1624 50.2797 24.3654 50.0766 24.3654C49.8736 24.3654 49.6705 24.5685 49.4675 24.9746C49.2644 25.5837 49.2644 26.5989 49.0614 27.2081V27.8172C48.2492 28.0203 47.6401 26.3959 47.0309 27.6142C47.234 28.2233 47.6401 28.6294 47.6401 29.2385C46.8279 29.4416 45.8126 29.0355 45.2035 28.6294L45.0005 30.6599C44.5944 30.2538 43.9852 30.6599 43.7822 30.0507C43.1731 30.6599 44.3913 31.0659 43.9852 31.8781C43.1731 31.8781 42.767 32.6903 42.97 33.2994C42.97 33.5025 43.1731 33.9086 43.1731 34.1116C43.5791 34.3147 43.9852 34.5177 44.3913 34.7208C46.6248 35.939 48.4522 37.5634 50.4827 39.3908C53.3253 40.8121 54.1375 36.1421 56.9802 36.9543C57.9954 37.1573 59.2137 37.5634 60.0258 37.9695C59.2137 38.1725 58.1984 38.5786 57.3863 39.3908C57.5893 39.5939 57.5893 40 57.7923 40.203C55.9649 40.6091 54.1375 40.203 52.9193 41.6243C53.5284 42.6395 53.9345 43.8578 53.9345 45.2791C53.9345 45.4822 53.9345 45.6852 53.9345 46.0913C53.9345 46.2944 53.9345 46.4974 53.9345 46.9035C53.9345 47.3096 53.7314 47.5126 53.5284 47.9187C53.7314 48.5279 54.5436 49.137 55.1528 49.5431C57.1832 49.9492 58.8076 47.9187 60.2289 49.9492C61.0411 52.3857 58.6045 54.0101 59.6198 56.4467C59.0106 56.2436 58.6045 56.2436 58.1984 56.4467C57.7923 56.6497 57.5893 56.8527 57.1832 57.2588C56.9802 57.4619 56.7771 57.6649 56.7771 58.071C56.7771 58.2741 56.7771 58.2741 56.5741 58.4771C56.5741 60.1015 57.9954 62.335 55.5588 63.1472C54.3406 63.5533 52.7162 64.3654 51.2949 63.7563C51.2949 61.7258 53.5284 60.5076 53.3253 58.2741L53.5284 58.071C53.7314 57.868 53.9345 57.6649 54.1375 57.2588C54.3406 57.0558 54.5436 56.8527 54.7467 56.4467C55.3558 55.6345 55.9649 54.6192 55.9649 53.604C54.9497 53.604 53.7314 54.4162 52.5132 54.6192C52.1071 55.2284 51.4979 55.4314 50.6857 55.6345V54.6192C49.8736 55.0253 48.0462 55.8375 47.234 56.2436C47.234 54.8223 48.2492 53.401 47.234 52.1827C46.6248 51.7766 46.4218 51.1675 45.8127 50.5583C44.7974 51.1675 43.5791 52.1827 42.3609 51.3705C41.3456 50.9644 40.9396 49.3401 39.5182 49.7461C38.7061 50.7614 37.2847 49.9492 36.4726 51.5736C34.8482 52.7918 33.2238 51.7766 31.5995 53.401C31.3964 53.8071 31.3964 54.2132 30.9903 54.4162C29.9751 53.8071 29.366 55.0253 28.9599 56.0406C28.7568 56.2436 28.5538 56.6497 28.5538 56.8527C28.3507 57.2588 27.9446 57.2588 27.7416 56.8527C27.5385 56.6497 27.5385 56.4467 27.5385 56.2436C27.5385 56.0406 27.3355 56.0406 27.3355 55.8375C27.1325 55.8375 27.1325 56.0406 26.9294 56.0406L26.7264 56.2436C26.7264 56.4467 26.7264 56.6497 26.7264 57.0558C26.7264 57.2588 26.9294 57.4619 26.9294 57.868C26.9294 58.071 26.9294 58.2741 26.9294 58.4771C25.102 58.8832 23.2746 60.3045 21.0411 59.4923C20.2289 59.4923 20.635 58.4771 20.838 58.071C21.0411 57.868 21.4472 57.4619 21.6502 57.0558C21.8533 56.8527 22.0563 56.6497 22.0563 56.2436L22.4624 55.4314C23.8837 52.9949 25.102 50.3553 28.5538 50.9644C30.1781 49.7461 32.8177 48.934 33.0208 46.4974C32.6147 46.2944 32.4116 46.0913 32.0055 45.8883C31.5995 45.6852 31.1934 45.6852 30.7873 45.8883H30.5842C30.7873 45.6852 30.7873 45.2791 30.9903 45.0761C31.1934 44.8731 31.5995 44.467 31.8025 44.2639C33.0208 43.2487 34.8482 42.8426 35.6604 41.2182C38.503 41.4213 41.7517 38.9847 43.1731 42.8426C42.5639 43.4517 41.7517 43.8578 40.9396 44.2639C40.5335 44.467 40.3304 44.67 39.9243 45.0761C39.7213 45.2791 39.5182 45.4822 39.5182 45.8883C39.5182 46.4974 39.5182 46.7005 39.5182 47.3096V48.7309C41.5487 47.5126 42.97 52.5888 45.2035 49.5431C45.0005 48.5279 44.7974 47.3096 44.7974 46.2944C44.7974 46.0913 44.7974 45.8883 44.7974 45.4822C44.7974 45.2791 44.7974 45.0761 44.5944 44.67C44.3913 42.8426 43.7822 41.2182 41.7517 40.406C37.4878 40.6091 33.0208 38.9847 30.3812 35.3299L30.7873 34.9238C30.3812 34.7208 30.1781 34.7208 29.772 34.5177C28.7568 34.1116 27.7416 33.9086 26.7264 33.7055C26.5233 33.7055 26.3203 33.7055 26.1172 33.7055C26.1172 33.5025 26.1172 33.2994 26.1172 33.0964C26.1172 31.269 26.1172 29.0355 24.4929 27.8172C22.4624 28.6294 22.4624 30.8629 22.0563 32.2842C22.0563 32.4873 22.2594 32.6903 22.2594 32.8934C22.4624 33.0964 22.4624 33.2994 22.6654 33.7055C22.8685 34.1116 23.0715 34.1116 23.0715 34.5177C23.2746 35.1269 23.4776 35.5329 22.8685 36.1421C22.2594 36.9543 21.2441 37.7665 20.2289 37.9695C20.2289 36.7512 20.0259 35.5329 19.8228 34.5177C19.8228 34.3147 19.6198 34.1116 19.6198 33.7055C19.6198 33.5025 19.4167 33.2994 19.4167 32.8934C19.2137 32.4873 19.0106 32.0812 18.8076 31.6751C19.8228 29.0355 20.838 26.3959 23.2746 24.3654C23.4776 24.1624 23.4776 24.1624 23.6807 23.9593C24.0868 24.1624 24.4929 24.3654 24.899 24.3654C27.1325 25.3807 28.9599 27.005 30.9903 28.2233C31.1934 28.0203 31.5995 27.8172 31.3964 27.4111C30.7873 26.3959 28.3507 26.5989 29.569 24.9746C29.772 24.7715 29.772 24.7715 29.772 24.5685C29.9751 24.3654 30.1781 23.9593 30.3812 23.7563C30.7873 23.3502 30.9903 23.1472 31.3964 22.9441C34.239 21.1167 38.3 21.3198 41.7517 20.7106L43.3761 19.8984C41.5487 20.3045 40.3304 17.0558 38.7061 19.6954C35.8634 19.0863 34.6451 19.0863 32.4116 18.4771C31.5995 17.868 31.1934 16.8527 31.3964 15.8375C32.2086 15.4314 32.8177 17.0558 34.036 16.4467C34.239 16.0406 33.6299 15.8375 33.833 15.2284C34.239 15.0253 34.6451 15.0253 35.0512 15.0253C35.2543 15.0253 35.4573 14.8223 35.6604 14.8223C35.6604 14.8223 35.8634 14.8223 35.8634 14.6192H35.4573L34.8482 14.4162L34.036 14.2132C34.4421 13.8071 35.0512 13.604 35.6604 13.401C36.4726 12.9949 37.0817 12.7918 37.8939 12.5888C38.7061 12.3857 39.3152 12.1827 40.1274 11.7766C40.5335 11.5736 40.7365 11.3705 41.1426 11.3705C41.7517 11.3705 41.5487 11.1675 41.5487 10.9644C41.1426 10.1522 41.9548 8.73092 41.5487 7.91874C42.3609 7.91874 42.767 8.73092 43.1731 9.34006C43.1731 9.5431 42.97 10.1522 43.3761 10.1522L42.1578 11.1675C43.9852 11.5736 45.2035 8.73092 47.437 9.34006C48.8583 8.52787 51.0918 8.12178 52.9193 9.13701C54.5436 9.5431 56.168 10.1522 57.5893 11.1675C58.4015 11.3705 59.0106 11.7766 59.4167 12.3857C59.8228 12.1827 60.0258 12.5888 60.2289 12.7918C60.4319 12.9949 60.635 13.1979 60.838 13.604C63.0715 16.4467 64.2898 20.1015 68.3507 19.6954C68.9599 20.5076 67.7416 21.1167 66.9294 21.5228Z" fill="white"/>
<path d="M39.1118 11.9797C38.7057 11.9797 38.5027 12.1827 38.0966 12.1827C37.6905 12.3857 37.0813 12.5888 36.6752 12.5888C36.0661 12.7918 35.457 12.9949 35.0509 13.401H27.3351C26.9291 13.1979 26.726 12.9949 26.3199 12.5888C25.9138 12.3857 25.7108 12.1827 25.3047 11.7766H39.1118V11.9797Z" fill="black"/>
<path d="M53.7303 55.8376C53.5273 56.0406 53.3242 56.2437 53.1212 56.6497C52.9181 56.8528 52.7151 57.0558 52.512 57.4619L28.3496 57.2589C28.5527 57.0558 28.7557 56.8528 29.1618 56.4467C29.3648 56.2437 29.5679 56.0406 29.5679 55.6345L46.4207 55.8376V56.8528C46.6237 56.6497 46.8268 56.6497 47.0298 56.4467C47.4359 56.2437 47.842 56.0406 48.2481 55.6345H50.0755H50.2785L53.7303 55.8376Z" fill="black"/>
<path d="M27.7422 34.3147H23.6813C23.4783 34.1116 23.4783 33.9086 23.2752 33.5025C23.0722 33.2994 22.8691 33.0964 22.8691 32.6903H25.5087C25.5087 32.8934 25.5087 33.0964 25.5087 33.5025C25.5087 33.7055 25.5087 33.9086 25.5087 33.9086C26.3209 34.1116 26.9301 34.1116 27.7422 34.3147Z" fill="black"/>
<path d="M27.9438 14.8223C27.5377 14.4162 26.9286 14.0102 26.3194 13.6041C25.9133 13.401 25.7103 13.198 25.3042 12.7919C25.1012 12.5888 24.8981 12.3858 24.492 11.9797C22.6646 10.7614 20.8372 9.34011 19.4159 7.5127C19.0098 8.73097 18.4007 10.7614 19.2128 11.9797C19.4159 12.1827 19.6189 12.3858 19.822 12.5888C19.822 12.7919 20.025 12.7919 20.025 12.7919H20.4311C20.8372 12.7919 21.0402 12.5888 21.4463 12.7919L21.6494 12.9949C21.6494 13.198 21.6494 13.401 21.8524 13.401C22.4616 15.2284 25.5073 14.0102 26.3194 16.2437C26.3194 17.665 28.3499 19.4924 26.1164 20.3046L27.3347 21.1168L26.9286 21.7259C27.7408 21.7259 27.9438 22.132 28.1468 22.7411C28.1468 22.9442 28.1468 23.1472 28.3499 23.5533C28.3499 23.7564 28.5529 23.9594 28.5529 24.3655C28.756 24.5685 28.756 24.7716 28.959 24.9746L29.3651 24.3655L29.9743 23.5533L30.5834 22.7411L31.5986 21.5228C29.7712 19.4924 29.7712 16.8528 27.9438 14.8223ZM22.2585 11.7767C22.2585 11.9797 21.8524 11.9797 21.6494 12.1827C21.6494 11.9797 21.4463 12.1827 21.2433 12.1827C21.2433 12.1827 21.0402 12.1827 20.8372 12.1827C20.6342 12.1827 20.4311 12.1827 20.4311 12.1827C20.4311 12.1827 20.4311 12.1827 20.4311 11.9797C19.822 11.3706 19.4159 9.94924 19.822 9.13706C20.025 9.34011 20.2281 9.54315 20.4311 9.54315C20.8372 9.94924 21.0402 10.1523 21.4463 10.3553L21.6494 10.5584C22.0555 10.9645 22.2585 11.3706 22.2585 11.7767Z" fill="black"/>
<path d="M22.2582 11.7767C22.2582 11.9797 22.0552 11.9797 21.6491 11.9797C21.6491 11.9797 21.446 12.1828 21.243 12.1828C21.243 12.1828 21.0399 12.1828 20.8369 12.1828C20.6339 12.1828 20.4308 12.1828 20.4308 12.1828C20.4308 12.1828 20.4308 12.1828 20.4308 11.9797C19.8217 11.3706 19.4156 9.94927 19.8217 9.13708C20.0247 9.34013 20.2278 9.54318 20.4308 9.54318C20.8369 9.94927 21.0399 10.1523 21.446 10.3554L21.6491 10.5584C22.0552 10.9645 22.2582 11.3706 22.2582 11.7767Z" fill="#F15A31"/>
<path d="M68.3497 19.4923C64.2888 20.1015 62.8675 16.2436 60.837 13.401C60.634 13.1979 60.4309 12.9949 60.2279 12.5888C60.0248 12.5888 59.8218 12.1827 59.4157 11.9797C58.8066 11.5736 58.1974 11.1675 57.5883 10.7614C56.167 9.9492 54.5426 9.13702 52.9182 8.73093C51.2939 7.91874 48.8573 8.12179 47.436 8.93397C45.2025 8.52788 44.1873 11.3705 42.1568 10.7614L43.5781 9.9492C43.172 9.74616 43.3751 9.34006 43.3751 9.13702C42.7659 8.73093 42.3599 7.7157 41.7507 7.7157C41.9538 8.73093 41.1416 10.1522 41.5477 10.9644C41.5477 11.1675 41.7507 11.3705 41.9538 11.5736C41.5477 11.7766 41.3446 11.9797 40.9385 11.9797C40.3294 12.3857 39.5172 12.5888 38.705 12.7918C37.8929 12.9949 37.0807 13.1979 36.4715 13.604C35.8624 13.8071 35.4563 14.0101 34.8472 14.4162L35.6594 14.6193L36.2685 14.8223H36.6746L36.4715 15.0253C36.2685 15.2284 36.0654 15.2284 35.8624 15.2284C35.4563 15.2284 35.0502 15.2284 34.6441 15.4314C34.4411 16.0406 35.0502 16.2436 34.8472 16.6497C33.4258 17.2588 33.0198 15.6345 32.2076 16.0406C32.0045 17.0558 32.4106 18.071 33.2228 18.6802C35.2533 19.2893 36.6746 19.2893 39.5172 19.8984C41.1416 17.4619 42.1568 20.7106 44.1873 20.1015L42.5629 20.9137C39.1111 21.3198 35.0502 21.3198 32.2076 23.1472C31.8015 23.3502 31.5984 23.5533 31.1923 23.9594C30.9893 24.1624 30.7863 24.3654 30.5832 24.7715C30.5832 24.9746 30.3802 24.9746 30.3802 25.1776C28.5528 26.3959 30.9893 26.3959 31.3954 27.2081C31.5984 27.6142 31.1923 27.8172 30.9893 28.0203C28.9588 26.802 26.9284 25.1776 24.8979 24.1624C24.4918 23.9594 24.0857 23.9594 23.6797 23.7563C23.4766 24.1624 23.4766 24.3654 23.2736 24.3654C20.837 26.3959 19.8218 29.0355 18.6035 31.472C18.8066 31.8781 19.0096 32.2842 19.2127 32.6903C19.4157 32.8934 19.4157 33.0964 19.4157 33.5025C19.4157 33.7055 19.6187 33.9086 19.6187 34.3147C19.8218 35.533 20.0248 36.5482 20.0248 37.7665C21.0401 37.5634 22.0553 36.7512 22.6644 35.939C23.2736 35.3299 23.2736 34.7208 22.8675 34.3147C22.6644 34.1116 22.6644 33.9086 22.4614 33.5025C22.2583 33.0964 22.0553 33.0964 22.0553 32.6903C21.8522 32.4873 21.8522 32.2842 21.8522 32.0812C22.2583 30.6599 22.2583 28.4264 24.2888 27.6142C25.9132 28.6294 26.1162 30.8629 25.9132 32.8934C25.9132 33.0964 25.9132 33.2995 25.9132 33.5025C26.1162 33.5025 26.3193 33.5025 26.5223 33.5025C27.5375 33.7055 28.5528 33.9086 29.568 34.3147C29.9741 34.5177 30.1771 34.5177 30.5832 34.7208L30.1771 35.1269C32.6137 38.7817 37.0807 40.6091 41.5477 40.203C43.5781 41.0152 44.1873 42.6396 44.3903 44.467C44.3903 44.67 44.3903 44.8731 44.5934 45.2791C44.5934 45.4822 44.5934 45.6852 44.5934 46.0913C44.7964 47.3096 44.7964 48.3248 44.9995 49.3401C42.766 52.3857 41.3446 47.3096 39.3142 48.5279V47.1066C39.3142 46.7005 39.3142 46.2944 39.5172 45.8883C39.7203 45.6852 39.7203 45.2792 39.9233 45.0761C40.1264 44.8731 40.5324 44.67 40.9385 44.2639C41.7507 43.8578 42.5629 43.4517 43.172 42.8426C41.5477 39.1878 38.502 41.4213 35.6594 41.2182C34.8472 42.8426 33.0198 43.2487 31.8015 44.2639C31.5984 44.467 31.1923 44.67 30.9893 45.0761C30.7863 45.2792 30.5832 45.4822 30.5832 45.8883H30.7863C31.1923 45.6852 31.5984 45.6852 32.0045 45.8883C32.4106 46.0913 32.8167 46.2944 33.0198 46.4974C32.8167 48.934 30.1771 49.7462 28.5528 50.9644C25.101 50.1522 23.8827 52.9949 22.4614 55.4314L22.0553 56.2436C21.8522 56.4467 21.6492 56.6497 21.6492 57.0558C21.4462 57.4619 21.0401 57.868 20.837 58.071C20.634 58.4771 20.4309 59.4923 21.0401 59.4923C23.2736 60.3045 25.101 59.0863 26.5223 57.6649C26.5223 57.4619 26.7253 57.2588 26.5223 57.0558C26.5223 56.8528 26.3193 56.6497 26.3193 56.2436C26.3193 56.0406 26.1162 55.6345 26.3193 55.4314C26.3193 55.4314 26.3193 55.2284 26.5223 55.2284C26.7253 55.2284 26.7253 55.0253 26.9284 55.0253C26.9284 55.2284 27.1314 55.4314 27.1314 55.4314C27.3345 55.6345 27.3345 56.0406 27.3345 56.0406C27.5375 56.4467 27.9436 56.4467 28.1467 56.0406C28.3497 55.8375 28.3497 55.6345 28.5528 55.2284C29.1619 54.2132 29.771 52.9949 30.5832 53.604C30.9893 53.401 30.9893 52.7918 31.1923 52.5888C32.6137 50.9644 34.4411 51.9797 36.0654 50.7614C36.8776 49.3401 38.2989 50.1522 39.1111 48.934C40.5324 48.5279 40.7355 49.9492 41.9538 50.5583C43.172 51.3705 44.3903 50.3553 45.4055 49.7462C46.0147 50.1522 46.2177 50.7614 46.8269 51.3705C47.8421 52.5888 46.8269 54.2132 46.8269 55.4314C47.436 54.8223 49.2634 54.0101 50.2786 53.8071V54.8223C51.0908 54.6193 51.4969 54.2132 52.106 53.8071C53.3243 53.401 54.5426 52.7918 55.5578 52.7918C55.5578 53.8071 54.9487 54.8223 54.3395 55.6345C54.1365 55.8375 53.9335 56.0406 53.7304 56.4467C53.5274 56.6497 53.3243 56.8528 53.1213 57.2588L52.9182 57.4619C53.1213 59.6954 50.8878 60.7106 50.8878 62.9441C52.5121 63.5533 53.9335 62.7411 55.1517 62.335C57.5883 61.5228 56.167 59.2893 56.167 57.6649C56.167 57.4619 56.167 57.4619 56.37 57.2588C56.5731 57.0558 56.5731 56.6497 56.7761 56.4467C56.9791 56.0406 57.3852 55.8375 57.7913 55.6345C58.1974 55.4314 58.8066 55.4314 59.2126 55.6345C58.1974 53.1979 60.837 51.5736 59.8218 49.137C58.1974 47.1066 56.5731 49.137 54.7456 48.7309C54.1365 48.1218 53.5274 47.7157 53.1213 47.1066C53.3243 46.7005 53.3243 46.4974 53.5274 46.0913C53.5274 45.8883 53.5274 45.6852 53.5274 45.2791C53.5274 45.0761 53.5274 44.8731 53.5274 44.467C53.5274 43.2487 53.1213 41.8274 52.5121 40.8121C53.7304 39.3908 55.7609 40 57.3852 39.3908C57.1822 39.1878 56.9791 38.7817 56.9791 38.5786C57.7913 37.7665 58.8066 37.3604 59.6187 37.1573C58.8066 36.5482 57.5883 36.3451 56.5731 36.1421C53.7304 35.3299 52.9182 40 50.0756 38.5786C48.0451 36.9543 46.0147 35.1269 43.9842 33.9086C43.5781 33.7055 43.172 33.5025 42.7659 33.2995C42.7659 33.0964 42.5629 32.8934 42.5629 32.4873C42.5629 31.6751 42.7659 31.066 43.5781 31.066C43.9842 30.2538 42.7659 29.8477 43.3751 29.2385C43.5781 29.8477 44.1873 29.4416 44.5934 29.8477L44.7964 27.8172C45.6086 28.2233 46.6238 28.6294 47.233 28.4264C47.233 27.8172 46.8269 27.4111 46.6238 26.802C47.233 25.5837 47.8421 27.2081 48.6543 27.005V26.3959C48.8573 25.7868 48.8573 24.7715 49.0604 24.1624C49.2634 23.9594 49.2634 23.7563 49.6695 23.5533C49.6695 23.5533 49.6695 23.3502 49.8725 23.3502C50.0756 23.1472 50.0756 22.9441 50.2786 22.538C50.6847 21.3198 50.8878 20.1015 50.2786 18.8832C49.6695 17.6649 51.4969 18.2741 51.903 17.868C51.7 17.4619 51.7 17.2588 51.4969 17.0558C51.2939 16.8528 51.0908 16.6497 50.8878 16.6497C50.2786 16.4467 49.4665 16.2436 48.8573 16.0406C48.8573 16.0406 48.6543 16.0406 48.6543 15.8375C48.4512 15.8375 48.4512 15.6345 48.4512 15.6345L48.6543 15.4314H48.8573C49.0604 15.4314 49.0604 15.4314 49.0604 15.4314C50.2786 16.0406 51.0908 16.2436 51.7 16.6497C51.7 16.6497 51.7 16.6497 51.903 16.6497C52.1061 16.6497 52.106 16.8528 52.3091 16.8528C52.5121 17.0558 52.7152 17.2588 52.9182 17.4619C53.1213 17.6649 53.3243 17.6649 53.3243 17.868C53.3243 18.071 53.5274 18.2741 53.5274 18.2741C53.7304 18.4771 53.7304 18.6802 53.9335 18.8832C54.1365 19.2893 54.3396 19.4923 54.5426 19.8984C54.7456 20.1015 54.7456 20.5076 54.9487 20.7106C55.3548 21.5228 55.5578 22.335 55.9639 23.1472C56.167 23.3502 56.167 23.5533 56.167 23.9594C56.37 24.1624 56.37 24.3654 56.5731 24.7715C57.1822 26.1929 57.7913 27.4111 58.8066 28.4264C60.4309 29.8477 62.2583 31.066 64.8979 30.6599C65.7101 30.2538 66.5223 29.8477 66.3192 28.6294C64.2888 28.4264 62.4614 28.2233 61.0401 26.3959C60.837 25.7868 60.634 25.3807 60.4309 24.7715C60.4309 24.5685 60.4309 24.3654 60.2279 23.9594C60.2279 23.7563 60.2279 23.5533 60.2279 23.1472C60.0248 22.335 60.0248 21.3198 59.4157 20.3045C59.6187 18.8832 58.4005 17.868 57.7913 16.8528C57.7913 16.6497 57.5883 16.4467 57.5883 16.0406V15.8375L57.7913 16.0406L57.9944 16.2436C60.634 18.8832 63.0705 21.5228 66.9284 21.5228C67.7406 21.1167 68.9588 20.5076 68.3497 19.4923ZM36.0654 18.071C35.4563 18.071 34.6441 18.071 33.8319 17.868C33.4258 17.6649 32.8167 17.4619 32.6137 17.0558C32.4106 16.8528 32.4106 16.6497 32.4106 16.4467C32.4106 16.4467 32.6137 16.4467 32.6137 16.6497C33.0198 17.0558 33.6289 17.2588 34.4411 17.2588C35.2533 17.4619 36.0654 17.4619 36.4715 17.2588C36.6746 17.4619 36.4715 17.6649 36.8776 17.6649C36.6746 18.071 36.4715 18.071 36.0654 18.071ZM22.2583 34.1116C22.2583 34.1116 22.2583 34.1116 22.2583 34.3147C22.0553 34.7208 21.8522 35.939 21.4462 36.5482H21.2431H21.0401C21.0401 36.5482 20.837 35.3299 20.634 34.1116C20.634 33.9086 20.634 33.5025 20.4309 33.2995C20.4309 32.8934 20.2279 32.6903 20.2279 32.6903H20.4309H20.837C21.2431 32.8934 21.4462 33.0964 21.8522 33.5025C22.0553 33.7055 22.2583 34.1116 22.2583 34.1116ZM25.7101 57.0558C25.5071 57.6649 24.6949 58.071 24.0857 58.2741L23.0705 58.8832C22.6644 58.2741 24.6949 56.8528 23.4766 57.0558L21.4462 58.8832C21.6492 58.2741 22.0553 57.6649 22.4614 57.0558C22.6644 56.8528 22.8675 56.6497 23.0705 56.2436C23.2736 56.0406 23.4766 55.6345 23.6797 55.4314C23.8827 55.2284 23.8827 55.0253 24.0857 55.0253C24.4918 55.0253 24.8979 55.2284 25.304 55.4314C25.5071 55.6345 25.7101 55.8375 25.7101 56.2436C25.7101 56.2436 25.7101 56.2436 25.7101 56.4467C25.7101 56.6497 25.7101 56.8528 25.7101 57.0558ZM54.5426 61.9289L53.7304 62.1319L53.3243 62.335H53.1213C53.1213 61.7259 53.7304 60.5076 53.5274 60.1015L51.903 61.9289C51.903 61.7258 51.903 61.7258 51.903 61.5228C52.1061 60.9137 52.5121 60.1015 53.1213 59.2893C54.1365 58.2741 55.5578 57.6649 55.7609 60.1015C56.37 61.3198 55.1517 61.5228 54.5426 61.9289ZM43.5781 14.6193C42.969 14.8223 42.3599 14.8223 41.7507 14.8223L42.1568 14.0101C42.1568 13.8071 41.9538 13.8071 42.1568 13.604C42.3599 13.401 43.172 13.401 43.3751 13.401L42.3599 13.604L42.1568 14.0101C42.3599 14.2132 42.5629 14.4162 42.7659 14.8223C43.172 14.6193 43.3751 14.6193 43.5781 14.6193C43.7812 14.6193 43.9842 14.4162 43.9842 14.4162C43.9842 14.4162 43.7812 14.6193 43.5781 14.6193ZM44.5934 13.604C44.5934 14.0101 44.3903 14.2132 44.1873 14.4162C44.1873 14.4162 44.1873 14.4162 44.1873 14.2132C44.1873 14.0101 44.1873 13.8071 43.9842 13.604H44.5934ZM58.4005 19.2893C57.9944 20.7106 58.8066 21.7259 59.0096 22.9441C59.0096 23.1472 59.0096 23.3502 59.0096 23.7563C59.0096 23.9594 59.0096 24.1624 58.8066 24.3654C59.2126 25.9898 60.2279 27.8172 62.0553 28.6294L63.6797 29.0355C62.8675 29.2385 60.0248 28.0203 58.6035 26.5989C57.9944 25.9898 57.5883 25.1776 57.1822 24.3654C56.9791 24.1624 56.9791 23.9594 56.7761 23.5533C56.5731 23.3502 56.5731 23.1472 56.5731 22.7411C55.1517 18.8832 53.9335 14.4162 48.8573 14.4162C48.4512 14.0101 48.0451 13.8071 47.8421 13.401C47.8421 13.1979 47.8421 12.9949 47.8421 12.7918C47.8421 12.7918 48.0451 12.7918 48.0451 12.5888C49.2634 12.1827 50.2786 12.1827 51.2939 12.5888C51.7 12.7918 52.3091 12.9949 52.7152 13.401C53.5274 14.0101 54.3396 14.8223 54.9487 15.4314C56.7761 16.0406 56.7761 18.2741 58.4005 19.2893ZM56.37 13.604C55.9639 13.401 55.7609 13.1979 55.3548 12.7918C54.9487 12.5888 54.5426 12.1827 54.1365 11.9797C52.106 10.7614 49.6695 10.3553 46.8269 11.5736L46.0147 10.7614C47.8421 9.13702 50.0756 10.1522 52.106 9.9492C53.7304 10.5583 55.5578 10.3553 56.5731 11.9797C56.9791 11.9797 57.1822 12.1827 57.5883 12.1827C57.7913 12.1827 58.1974 12.3857 58.4005 12.7918C58.6035 12.9949 58.8066 13.1979 59.0096 13.604C59.4157 14.2132 59.8218 14.6193 60.4309 14.8223L62.2583 17.868L65.5071 20.3045C62.2583 19.4923 59.4157 16.0406 56.37 13.604Z" fill="black"/>
<path d="M22.259 34.1116C22.259 34.1116 22.259 34.1116 22.259 34.3147C22.0559 34.7208 21.8529 35.939 21.4468 36.5482C21.2437 36.5482 21.2437 36.5482 21.2437 36.5482H21.0407C21.0407 36.5482 20.8377 35.3299 20.6346 34.1116C20.6346 33.9086 20.6346 33.5025 20.4316 33.2994C20.4316 32.8934 20.2285 32.6903 20.2285 32.6903H20.4316H20.8377C21.2437 32.8934 21.4468 33.0964 21.8529 33.5025C22.0559 33.7055 22.259 34.1116 22.259 34.1116Z" fill="#F15A31"/>
<path d="M25.7112 57.0558C25.5082 57.6649 24.696 58.071 24.0869 58.2741L23.0716 58.8832C22.6655 58.2741 24.696 56.8527 23.4777 57.0558L21.4473 58.8832C21.6503 58.2741 22.0564 57.6649 22.4625 57.0558C22.6655 56.8527 22.8686 56.6497 23.0716 56.2436C23.2747 56.0406 23.4777 55.6345 23.6808 55.4314C23.8838 55.2284 23.8838 55.0253 24.0869 55.0253C24.4929 55.0253 24.899 55.2284 25.3051 55.4314C25.5082 55.6345 25.7112 55.8375 25.7112 56.2436C25.7112 56.2436 25.7112 56.2436 25.7112 56.4466C25.7112 56.6497 25.7112 56.8527 25.7112 57.0558Z" fill="#F15A31"/>
<path d="M54.5419 61.9289C54.3389 61.9289 53.9328 62.132 53.7298 62.132L53.3237 62.335H53.1206C53.1206 61.7259 53.7298 60.5076 53.5267 60.1015L51.9023 61.9289C51.9023 61.7259 51.9023 61.7259 51.9023 61.5229C52.1054 60.9137 52.5115 60.1015 53.1206 59.2894C54.1358 58.2741 55.5572 57.665 55.7602 60.1015C56.3694 61.3198 55.1511 61.5229 54.5419 61.9289Z" fill="#F15A31"/>
<path d="M54.5426 61.929L53.7305 62.132C53.9335 62.132 54.3396 62.132 54.5426 61.929Z" fill="#F15A31"/>
<path d="M43.9842 14.4162C43.7812 14.6192 43.7812 14.6192 43.5781 14.6192C43.7812 14.6192 43.9842 14.4162 43.9842 14.4162Z" fill="white"/>
<path d="M42.3616 13.6041L42.1586 14.0102C42.1586 13.8071 41.9556 13.8071 42.1586 13.6041H42.3616Z" fill="white"/>
<path d="M43.5774 14.6193C42.9683 14.8224 42.3591 14.8224 41.75 14.8224L42.1561 14.0102C42.3591 14.2132 42.5622 14.4163 42.7652 14.8224C43.1713 14.6193 43.3744 14.6193 43.5774 14.6193Z" fill="white"/>
<path d="M44.5935 13.6041C44.5935 14.0102 44.3905 14.2132 44.1874 14.4162C44.1874 14.4162 44.1874 14.4162 44.1874 14.2132C44.1874 14.0102 44.1874 13.8071 43.9844 13.6041H44.5935Z" fill="white"/>
<path d="M43.3765 13.401L42.3612 13.6041H42.1582C42.3612 13.198 43.1734 13.401 43.3765 13.401Z" fill="white"/>
<path d="M65.7091 20.1015C62.4604 19.2893 59.6177 15.8375 56.369 13.401C55.9629 13.1979 55.7599 12.9949 55.3538 12.5888C54.9477 12.3858 54.5416 11.9797 54.1355 11.7766C52.105 10.5584 49.6685 10.1523 46.8259 11.3705L46.0137 10.5584C47.8411 8.93398 50.0746 9.94921 52.105 9.74617C53.7294 10.3553 55.5568 10.1523 56.572 11.7766C56.9781 11.7766 57.1812 11.9797 57.5873 11.9797C57.7903 12.1827 58.1964 12.3858 58.3995 12.7919C58.6025 12.9949 58.8055 13.1979 59.0086 13.604C59.4147 14.2132 59.8208 14.6193 60.4299 14.8223L62.2573 17.868L65.7091 20.1015Z" fill="#FFD400"/>
<path d="M63.6794 29.0355C62.8672 29.2386 60.0245 28.0203 58.6032 26.599C57.9941 25.9898 57.588 25.1776 57.1819 24.3655C56.9789 24.1624 56.9789 23.9594 56.7758 23.5533C56.5728 23.3502 56.5728 23.1472 56.5728 22.7411C55.1514 18.8832 53.9332 14.4162 48.857 14.4162C48.4509 14.0101 48.0448 13.8071 47.8418 13.401C47.8418 13.1979 47.8418 12.9949 47.8418 12.7919C47.8418 12.7919 48.0448 12.7919 48.0448 12.5888C49.2631 12.1827 50.2783 12.1827 51.2936 12.5888C51.6997 12.7919 52.3088 12.9949 52.7149 13.401C53.5271 14.0101 54.3393 14.8223 54.9484 15.4314C56.5728 15.8375 56.5728 18.071 58.1971 19.0863C57.791 20.5076 58.6032 21.5228 58.8063 22.7411C58.8063 22.9441 58.8063 23.1472 58.8063 23.5533C58.8063 23.7563 58.8063 23.9594 58.6032 24.1624C59.0093 25.7868 60.0245 27.6142 61.8519 28.4264L63.6794 29.0355Z" fill="#FFD400"/>
<path d="M32.6152 17.2589C32.4121 17.0559 32.4121 16.8528 32.4121 16.6498C32.4121 16.8528 32.6152 17.0559 32.6152 17.2589Z" fill="#F15A31"/>
<path d="M36.8791 17.8681C36.6761 18.0711 36.473 18.0711 36.0669 18.2741C35.4578 18.2741 34.6456 18.2741 33.8334 18.0711C33.4273 17.8681 32.8182 17.665 32.6152 17.2589C32.4121 17.0559 32.4121 16.8528 32.4121 16.6498C32.4121 16.6498 32.6152 16.6498 32.6152 16.8528C33.0212 17.2589 33.6304 17.462 34.4426 17.462C35.2548 17.665 36.0669 17.665 36.473 17.462C36.8791 17.665 36.6761 17.8681 36.8791 17.8681Z" fill="#F15A31"/>
</svg>
