<svg width="80" height="80" viewBox="0 0 80 80" fill="none" xmlns="http://www.w3.org/2000/svg">
<path d="M71.7809 46.9589C59.3973 39.3973 42.959 38.7397 27.9453 39.6164C20.9316 41.4794 13.0412 41.6986 8.32884 48.1644C7.12336 51.5616 9.97268 53.863 12.0549 56.1644C19.7261 62.9589 29.0412 66.3562 38.5754 69.0959C47.6713 65.4794 55.0138 57.6986 64.0001 54.1918C66.7398 53.0959 69.4795 51.8904 72.7672 52.1096C73.5343 53.3151 72.2192 54.0822 71.8905 55.0685C53.3699 62.8493 35.7261 74.3562 14.3562 74.7945C8.65761 74.3562 3.61651 69.7534 0.767197 64.7123C0.219252 63.2877 7.42078e-05 60.7671 1.09596 59.452L21.4795 21.7534C21.5891 21.863 57.096 21.7534 57.096 21.7534C57.096 21.7534 68.0549 38.5205 71.7809 46.9589ZM44.2741 52.5479C50.411 49.0411 58.8494 49.1507 65.9727 50.137V50.5753C60.6028 50.7945 55.7809 52.2192 51.0686 54.0822C52.274 54.7397 54.0275 55.5068 54.9042 56.4931C49.4247 56.6027 43.6165 57.2603 38.9042 60C33.5343 60.2192 26.8494 59.8904 22.4658 59.8904V59.6712C27.6165 58.6849 32.7672 57.8082 37.5891 56.0548C31.233 51.3425 22.4658 51.0137 14.2466 49.9178C19.5069 49.1507 24.3288 46.5205 29.9179 47.3973L44.2741 52.5479ZM79.5617 62.1918C79.3425 62.8493 79.0138 63.3973 78.5754 63.9452L77.9179 63.6164L73.2056 55.2877L74.3014 52.9863C77.4795 54.9589 79.7809 58.6849 79.5617 62.1918Z" fill="#2A357B"/>
<path d="M70.9035 57.2603L69.5885 61.3151L46.7939 71.6164L42.3008 69.9726L70.9035 57.2603Z" fill="#2A357B"/>
<path d="M77.5891 64.7123C78.0274 66.2466 76.0548 66.9041 75.6165 68H74.9589C74.1918 65.6986 71.8904 63.2877 70.9041 61.7534C71.3425 60.4384 71.3425 58.5753 72.6576 57.3699L77.5891 64.7123ZM73.9726 69.7534C72.7672 70.1918 72.1096 72.0548 70.685 71.8356L68.6028 68.2192L70.4658 63.2877C71.7809 65.1507 73.5343 67.3425 73.9726 69.7534ZM67.0685 67.7808C67.0685 67.7808 58.6302 71.2877 54.2466 73.589C52.8219 72.8219 49.7535 71.9452 49.7535 71.9452L68.4932 63.3973L67.0685 67.7808ZM69.5891 72.7123C68.8219 73.589 67.7261 74.3562 66.411 74.3562C65.9726 72.9315 66.9589 71.5069 67.6165 70.3014C68.6028 70.7397 69.0411 71.726 69.5891 72.7123ZM65.9726 70.1918C65.3151 72.1644 65.2055 74.0274 63.8904 75.2329C62.0274 75.2329 57.6439 74.0274 57.6439 74.0274C57.6439 74.0274 63.5617 70.9589 65.9726 70.1918ZM30.9041 4L43.8356 6.84931C45.4795 6.73973 46.5754 5.53425 48.1096 5.53425C48.7672 5.53425 50.411 9.47945 50.411 9.47945H27.5069C27.5069 9.58904 29.6987 4 30.9041 4ZM26.7398 11.6712H50.9589L52.9315 15.1781H24.9863C24.9863 15.1781 26.5206 12.2192 26.7398 11.6712Z" fill="#2A357B"/>
<path d="M53.9191 16.8219L55.6725 19.8904H22.3574L24.1108 16.8219H53.9191Z" fill="#2A357B"/>
</svg>
