<svg width="80" height="80" viewBox="0 0 80 80" fill="none" xmlns="http://www.w3.org/2000/svg">
<path fill-rule="evenodd" clip-rule="evenodd" d="M69.1629 52.3308C65.9549 58.0451 61.6441 63.3584 56.5313 67.8697C51.4185 72.381 45.7043 75.99 39.4887 78.4962C33.3734 75.99 27.6591 72.381 22.5464 67.8697C17.3333 63.3584 13.1228 58.0451 9.81454 52.3308C7.00752 47.1178 5.40351 41.4035 5.40351 35.4887V1.40351H73.6742V35.4887C73.6742 41.4035 72.0702 47.1178 69.1629 52.3308ZM75.0777 35.4887V0H4V35.4887C4 38.4962 4.401 41.604 5.20301 44.5113C6.00501 47.5188 7.10777 50.3258 8.61153 52.9323C10.3158 55.9398 12.2205 58.8471 14.4261 61.5539C16.6316 64.2607 19.1378 66.7669 21.7444 69.1729C24.4511 71.4787 27.2581 73.584 30.2657 75.3885C33.2732 77.193 36.381 78.797 39.4887 80C42.6967 78.797 45.8045 77.193 48.812 75.3885C51.8195 73.584 54.6266 71.4787 57.3333 69.1729C59.9398 66.7669 62.3459 64.2607 64.5514 61.5539C66.8571 58.8471 68.7619 55.9398 70.4662 52.9323C71.9699 50.3258 73.0727 47.5188 73.8747 44.5113C74.6767 41.604 75.0777 38.4962 75.0777 35.4887Z" fill="#012D74"/>
<path fill-rule="evenodd" clip-rule="evenodd" d="M55.63 17.5438L56.031 17.7444H56.2315L56.5323 17.4436L58.5373 15.4386L58.7378 15.1378L58.838 14.9373L58.7378 14.8371L58.6375 14.6366L58.5373 14.5363V14.4361L60.9433 16.6416L60.3418 17.3433L60.2415 17.2431L60.442 16.8421V16.6416V16.5413L60.1413 16.2406L59.3393 15.4386L58.1363 16.7418L58.7378 17.3433L59.0385 17.5438L59.1388 17.6441L59.4395 17.5438L59.64 17.3433L59.7403 17.4436L58.7378 18.4461L58.6375 18.3459L58.838 18.0451V17.8446L58.6375 17.5438L58.036 16.8421L56.9333 17.9449L56.7328 18.2456V18.3459L56.833 18.5464L57.3343 19.0476L57.8355 19.3484L57.9358 19.4486H58.1363L58.437 19.3484L58.838 19.2481L59.0385 19.3484L58.036 19.8496L55.63 17.5438L54.6275 16.9423L54.5273 14.4361L54.2265 14.3358V14.2356H54.1262L53.4245 15.2381L53.224 15.5388V15.7393L53.3242 15.9398L53.4245 16.0401L53.625 16.1403L53.5247 16.2406L51.9207 15.1378L52.021 15.0376L52.1212 15.1378L52.3217 15.2381H52.6225L52.7227 15.1378L52.9232 14.9373L54.5273 12.5313L54.6275 12.2306L54.7277 12.0301L54.6275 11.8296L54.427 11.7293L54.3267 11.6291V11.5288L55.7303 12.4311L56.2315 12.8321L56.5323 13.1328L56.7328 13.4336V13.7343V14.0351L56.6325 14.3358L56.3318 14.6366L56.031 14.8371H55.63L55.1288 14.6366V16.2406L55.229 16.7418V17.0426L55.4295 17.2431L55.63 17.5438ZM23.1488 53.1328L22.2465 52.4311L20.843 51.5288L20.9433 51.1278H21.9458H22.6476L23.6501 50.8271L24.0511 50.3258L23.5498 50.2256L23.1488 50.0251L22.3468 49.6241L21.645 48.9223V48.5213L22.3468 48.421L22.9483 48.3208L23.5498 48.02L24.0511 47.7193L23.3493 47.4185H22.9483L22.2465 47.0175L21.4445 46.5163L21.0435 45.614L23.3493 45.3133L24.6526 44.6115L25.1538 44.2105L25.6551 43.8095L25.9558 43.4085L25.3543 43.609L24.4521 43.9098L23.1488 43.7093L21.9458 43.3083L21.0435 42.9073L20.2415 42.2055L19.9408 41.7043V41.0025L21.244 41.3032H22.7478L23.3493 41.203L24.2516 41.0025L25.2541 40.6015L26.2566 40.1002L27.0586 39.4987V39.2982L26.4571 39.599L25.7553 39.7995H24.1513H23.3493L21.7453 39.599L20.9433 39.198L20.2415 38.8972L19.64 38.396L19.5398 37.6942L20.1413 37.7945L20.442 37.8947L21.0435 38.2957L21.8455 38.4962L23.3493 38.6967L25.5548 38.797L28.2616 37.995V38.4962L27.8606 39.4987L27.3593 40.2005L26.7578 40.7017L24.7528 41.8045L23.5498 42.005L22.7478 42.1053H21.645V42.2055L22.2465 42.5063L22.8481 42.6065L23.5498 42.807H24.2516H25.1538L26.1563 42.6065L27.1588 42.5063L26.7578 43.5088L26.3568 44.3108L25.6551 44.812L25.0536 45.3133L23.9508 45.9148L23.0486 46.015L22.046 46.1153L22.6476 46.5163L23.4496 46.817L24.1513 46.9173L24.9533 47.0175L25.4546 46.9173L25.3543 47.4185L25.1538 47.8195L23.9508 48.7218L23.1488 49.1228H22.7478L22.9483 49.3233L24.3518 49.8246L24.7528 50.1253L24.0511 51.1278L23.2491 51.5288L22.4471 51.7293H21.7453L23.3493 52.8321L23.5498 53.4336L23.3493 53.5338L23.1488 53.1328ZM50.6175 27.7694L49.8155 27.0677L47.8105 26.4662L46.808 25.5639L45.8054 26.1654L43.5999 25.9649L42.3969 26.9674L41.0937 28.3709L38.6877 28.6717L37.2841 28.5714L35.9809 30.0752L34.4771 30.5764L32.3719 33.0827L30.7679 34.0852L28.0611 35.8897L28.7628 35.99L30.2666 35.7895L33.0736 35.4887H37.9859L42.1964 35.188H44.3017L47.9107 35.589L48.813 36.2907L48.9132 36.6917L42.3969 36.792L40.1914 37.193L37.3844 37.594L28.9633 37.4937L28.3618 37.193L23.4496 37.0927L18.838 36.792L18.7378 36.6917L18.6375 36.1905V35.7895L18.838 35.6892H24.0511L26.9583 35.4887L29.3643 33.985L31.5699 31.7794L33.9759 28.9724L35.8806 28.6717L37.1839 27.2682L39.2892 27.3684L41.0937 26.8672L42.8982 25.4636L43.8004 24.6616L44.5022 24.9624L45.6049 24.8621L46.9082 24.2606L48.6125 25.5639L50.2165 25.8647L51.62 27.3684L53.1237 26.6667L54.7277 25.0626L55.7303 24.1604H56.1313L57.7353 25.6642L58.7378 25.3634L59.3393 26.4662L58.036 27.1679L57.4345 27.0677L56.432 25.7644L54.026 28.0702L51.9207 29.4737L49.615 30.4762L48.6125 30.9774L45.5047 31.2782L42.9984 31.1779L41.5949 31.3784L40.4922 32.3809L39.7904 32.2807H39.6902L40.6927 30.9774L42.6977 29.9749L46.1062 29.5739L48.2115 28.8722L50.3167 27.8697L50.6175 27.7694ZM64.8531 33.7845L66.5573 31.9799L66.4571 31.6792V31.5789L65.2541 31.7794L64.9533 31.8797L64.7528 31.9799L64.6526 32.1804V32.3809L64.7528 32.4812L64.6526 32.5814L64.2516 30.6767H64.3518V30.7769L64.4521 31.0777L64.6526 31.1779H64.8531H65.0536L67.9608 30.5764H68.2616L68.4621 30.4762V30.2757V30.0752V29.8747H68.5623L68.8631 31.4787L68.9633 32.0802V32.4812L68.8631 32.7819L68.6626 33.0827L68.4621 33.2832L68.0611 33.4837H67.7603L67.3593 33.2832L67.0586 32.9824L66.8581 32.5814L65.7553 33.6842L65.4546 34.0852L65.2541 34.386L65.1538 34.5865V34.9875H65.0536L64.8531 33.7845ZM67.7603 27.4687L68.2616 28.8722L68.1613 28.9724V28.7719L67.9608 28.5714L67.7603 28.4712H67.6601L67.3593 28.5714L65.6551 29.2732L65.1538 29.3734L64.6526 29.4737H64.3518L63.9508 29.2732L63.5498 28.8722L63.3493 28.3709L63.1488 27.7694V27.2682L63.3493 26.8672L63.5498 26.5664L63.9508 26.3659L64.5523 26.0652L66.1563 25.4636L66.4571 25.3634L66.5573 25.1629L66.6576 24.9624L66.5573 24.7619V24.6616L67.2591 26.3659H67.1588V26.2657L67.0586 26.0652L66.8581 25.9649H66.6576L66.3568 26.0652L64.5523 26.7669L64.0511 27.0677L63.7503 27.1679L63.5498 27.3684L63.4496 27.5689V27.7694V28.0702L63.5498 28.3709L63.6501 28.7719L63.9508 28.9724L64.2516 29.1729L64.5523 29.2732L64.9533 29.1729L65.5548 28.9724L67.2591 28.3709L67.5598 28.1704L67.6601 28.0702L67.7603 27.8697L67.6601 27.6692L67.7603 27.4687ZM62.046 23.8596L61.7453 24.0601L61.645 24.2606V24.3609V24.5614L61.7453 24.7619H61.645L60.7428 23.1579L60.843 23.0576L60.9433 23.2581L61.0435 23.4586H61.244H61.4445L61.645 23.3584L64.2516 21.9549L64.4521 21.7544L64.5523 21.5539L64.6526 21.4536L64.5523 21.1529L64.4521 21.0526H64.5523L65.2541 22.3559L65.5548 22.8571L65.6551 23.2581V23.5589L65.5548 23.8596L65.3543 24.1604L65.1538 24.4611L64.8531 24.5614H64.6526H64.4521H64.2516L63.9508 24.4611L63.7503 24.3609L63.6501 24.1604L63.4496 23.8596L63.3493 23.5589L63.1488 23.2581L62.046 23.8596ZM59.8405 20.8521L59.64 21.0526L59.5398 21.2531V21.4536L59.64 21.6541L59.7403 21.7544H59.64L58.5373 20.2506L58.6375 20.3509L58.838 20.5514H59.0385H59.239L59.4395 20.3509L61.7453 18.5464L61.9458 18.3459L62.046 18.2456V18.0451L61.9458 17.8446L61.8455 17.7444L61.9458 17.6441L62.8481 18.8471L63.1488 19.3484L63.3493 19.6491L63.4496 20.0501L63.3493 20.3509L63.2491 20.6516L62.9483 20.9524L62.7478 21.0526L62.5473 21.1529L62.3468 21.2531L62.1463 21.1529H61.8455L61.645 21.0526L61.4445 20.8521L61.244 20.6516L61.0435 20.3509L60.9433 20.0501L59.8405 20.8521ZM51.62 12.5313L52.1212 11.2281L52.3217 10.8271L52.2215 10.7268L51.9207 10.5263L51.8205 10.4261V10.3258L53.625 11.1278L53.5247 11.2281L53.4245 11.1278H53.1237H52.9232L52.7227 11.5288L51.62 14.1353L51.4195 14.6366L51.5197 14.7368L51.7202 14.9373L51.9207 15.0376V15.1378L50.1162 14.3358L50.2165 14.2356L50.3167 14.3358H50.5172H50.7177L50.818 14.2356L51.0185 13.9348L51.5197 12.7318L49.615 11.8296L49.1137 13.1328L48.9132 13.5338L49.0135 13.7343L49.3142 13.8346L49.4145 13.9348V14.0351L47.61 13.2331H47.7102H47.8105L48.011 13.3333L48.2115 13.2331L48.412 13.1328L48.5122 12.8321L49.615 10.2256L49.8155 9.82455L49.7152 9.62405L49.5147 9.42355L49.3142 9.3233L51.1187 10.0251L51.0185 10.1253L50.9182 10.0251H50.6175L50.417 10.1253L50.2165 10.4261L49.7152 11.7293L51.62 12.5313ZM44.6024 11.0276L44.1012 11.6291L43.9007 12.0301V12.1303L44.0009 12.2306L44.1012 12.3308L44.3017 12.4311V12.5313L42.9984 12.2306V12.1303H43.2992L43.3994 12.0301L43.5999 11.8296L43.9007 11.5288L46.3067 8.42104H46.4069L46.9082 12.2306L47.0085 12.6316L47.1087 12.9323L47.3092 13.0326L47.5097 13.1328V13.2331L45.8054 12.8321V12.7318H46.0059H46.2064V12.6316L46.3067 12.5313V12.0301L46.2064 11.4286L44.6024 11.0276ZM41.7954 11.2281L42.3969 11.8296L42.6977 12.0301L42.9984 12.1303H40.9934V12.0301H41.0937L41.1939 11.9298L41.2942 11.7293V11.6291L41.0937 11.4286L39.6902 9.9248L39.5899 11.3283L39.6902 11.7293L39.7904 11.9298L40.0912 12.0301H40.2917H40.1914H38.3869V11.9298H38.4872H38.7879L38.8882 11.8296L38.9884 11.6291V11.3283L39.0887 8.42104V8.02004L38.9884 7.81954L38.6877 7.71929H38.4872V7.61904L40.3919 7.71929V7.81954H40.2917L39.9909 7.91979L39.7904 8.02004V8.42104L39.6902 9.82455L40.1914 9.42355L40.8932 8.72179L41.2942 8.32079L41.3944 8.12029V7.91979L41.0937 7.81954H40.9934V7.71929L42.5974 7.81954V7.91979H42.2967L41.9959 8.12029L41.5949 8.42104L40.9934 9.02255L40.2917 9.62405L41.7954 11.2281ZM36.9834 11.3283L37.6851 11.7293L37.9859 11.8296L38.1864 11.9298L38.2866 12.0301L36.2816 12.2306L36.3819 12.1303L36.4821 12.0301L36.5824 11.8296L36.4821 11.7293L36.2816 11.5288L34.5774 10.3258L34.7779 11.7293L34.9784 12.1303L35.0786 12.3308H35.3794H35.5799V12.4311L33.6751 12.6316V12.5313H33.7754L34.0761 12.4311L34.1764 12.3308V12.1303V11.8296L33.7754 9.02255L33.6751 8.62154L33.4746 8.42104H33.1739H33.0736V8.32079L34.8781 8.12029L34.9784 8.22054H34.7779L34.4771 8.32079L34.3769 8.52129V8.92229L34.5774 10.2256L34.9784 9.82455L35.5799 9.02255L35.9809 8.52129V8.22054L35.8806 8.12029H35.6801H35.5799V8.02004L37.0836 7.81954L36.8831 7.91979L36.5824 8.12029L36.2816 8.52129L35.6801 9.22305L35.1789 9.9248L36.9834 11.3283ZM29.8656 12.4311V13.1328V13.5338V13.6341L29.9658 13.7343H30.1663L30.3668 13.6341L30.4671 13.7343L29.1638 14.1353L29.3643 13.9348L29.4646 13.8346V13.5338L29.5648 13.1328L29.9658 9.22305H30.0661L32.5724 12.1303L32.7729 12.4311L33.0736 12.6316H33.2741H33.4746V12.7318L31.8706 13.2331V13.1328L32.0711 13.0326L32.1714 12.9323V12.8321V12.7318L31.8706 12.3308L31.4696 11.8296L29.8656 12.4311ZM27.3593 12.8321L27.6601 12.9323L27.9608 13.0326L28.2616 13.3333L28.3618 13.6341V14.0351L28.2616 14.3358L28.0611 14.6366L27.7603 14.9373L27.1588 15.2381L25.3543 16.2406V16.1403H25.4546L25.6551 15.9398L25.7553 15.7393V15.5388L25.5548 15.3383L24.2516 12.7318L24.0511 12.5313L23.8506 12.3308H23.7503L23.5498 12.4311L23.3493 12.5313V12.4311L24.9533 11.5288L25.3543 11.3283L25.6551 11.2281H26.1563H26.5573L26.8581 11.4286L27.0586 11.7293L27.1588 12.0301V12.3308V12.6316L26.9583 12.9323L27.3593 12.8321ZM21.3443 13.9348L22.4471 13.0326H22.5473L22.4471 13.1328L22.2465 13.3333V13.5338V13.7343L22.4471 13.9348L23.5498 15.3383L23.9508 15.8396L24.1513 16.2406V16.6416V17.0426L23.9508 17.4436L23.5498 17.8446L22.9483 18.2456L22.5473 18.3459H22.1463L21.7453 18.1454L21.3443 17.8446L20.9433 17.3433L19.8405 16.0401L19.64 15.8396L19.4395 15.7393H19.239L19.1388 15.8396L18.9383 15.9398L20.3418 14.7368H20.442L20.3418 14.8371L20.1413 15.0376V15.2381V15.4386L20.3418 15.6391L21.5448 17.1428L22.046 17.6441L22.2465 17.8446L22.4471 17.9449H22.6476H22.9483L23.1488 17.8446L23.4496 17.6441L23.7503 17.4436L23.9508 17.0426V16.7418V16.4411L23.7503 16.0401L23.3493 15.5388L22.2465 14.1353L22.046 13.8346H21.8455H21.645L21.4445 13.9348L21.3443 14.0351V13.9348ZM19.0385 17.0426L18.6375 16.9423H18.437L18.2365 17.0426L18.1363 17.1428L17.9358 17.2431L17.5348 17.7444L20.041 20.0501L20.3418 20.2506H20.442H20.6425L20.843 20.0501L20.9433 19.9499L21.0435 20.0501L19.7403 21.4536L19.64 21.3534L19.7403 21.2531L19.9408 21.0526V20.8521L19.8405 20.7519L19.64 20.4511L17.0335 18.2456L16.7328 18.5464L16.5323 18.9474L16.432 19.0476L16.5323 19.2481V19.4486L16.7328 19.6491L16.6325 19.7494L16.031 19.0476L18.3368 16.5413L19.0385 17.0426ZM13.8255 21.7544L13.0235 21.0526L13.4245 20.4511L13.8255 21.7544ZM15.229 20.0501V20.4511L15.3293 20.7519L15.5298 21.2531L16.432 22.9574L17.3343 23.5589L17.635 23.7594H17.8355L18.036 23.6591L18.1363 23.4586L18.2365 23.3584L18.3368 23.4586L17.3343 25.0626L17.234 24.9624L17.3343 24.8621L17.4345 24.6616L17.3343 24.4611L17.234 24.2606L17.0335 24.1604L16.1313 23.5589L13.9257 23.6591H13.4245L13.1237 23.8596L12.9232 23.9599L13.8255 22.3559H13.9257V22.4561L13.8255 22.7569V22.8571L13.9257 22.9574L14.1262 23.0576H14.427L16.1313 22.9574L15.3293 21.5539L15.229 21.3534L15.0285 21.1529H14.9283H14.7278L14.5273 21.3534L15.229 20.0501ZM16.1313 27.2682L13.8255 27.9699L13.7252 28.1704L13.625 28.2707V28.3709L14.828 28.7719L15.1288 28.8722H15.3293L15.4295 28.7719L15.5298 28.5714L15.63 28.4712H15.7303L15.0285 30.2757L14.9283 30.1754L15.0285 30.0752V29.7744L14.9283 29.6742L14.828 29.4737L14.5273 29.3734L11.9207 28.3709L11.5197 28.2707H11.4195L11.219 28.3709L11.1187 28.5714L11.0185 28.6717H10.9182L11.5197 27.1679L11.8205 26.5664L12.021 26.2657L12.3217 25.9649L12.6225 25.8647L12.9232 25.7644L13.224 25.8647L13.625 26.0652L13.8255 26.3659L13.9257 26.7669V27.2682L15.3293 26.8672L15.8305 26.7669L16.1313 26.6667L16.3318 26.4662L16.5323 26.1654H16.6325L16.1313 27.2682ZM11.8205 30.3759L11.3192 30.5764L10.9182 30.6767L10.7177 30.8772L10.6175 31.0777L10.417 31.3784V31.5789L10.3167 31.9799L10.417 32.3809L10.5172 32.6817L10.818 32.9824L11.0185 33.1829L11.3192 33.2832L11.7202 33.4837L12.021 33.584H12.6225H13.224L13.7252 33.3834L14.1262 33.0827L14.3267 32.6817L14.427 32.3809L14.5273 31.8797L14.427 31.4787L13.1237 31.1779H12.7227L12.5222 31.2782L12.422 31.6792H12.3217L12.6225 29.9749H12.7227V30.0752V30.2757L12.823 30.3759L13.224 30.5764L14.5273 30.7769L14.6275 31.1779L14.7278 31.5789V31.9799L14.6275 32.3809L14.5273 32.9824L14.2265 33.3834L13.9257 33.7845L13.5247 34.0852L13.1237 34.1855L12.823 34.2857H12.422H12.021L11.5197 34.0852L11.0185 33.7845L10.5172 33.2832L10.2165 32.7819L10.1162 32.1804L10.2165 31.5789L10.3167 31.1779L10.6175 30.6767L10.7177 30.4762L10.6175 30.3759L10.417 30.2757L10.5172 30.1754L11.8205 30.3759ZM19.64 27.3684C19.64 26.2657 20.041 25.2631 20.843 24.4611C21.645 23.6591 22.6476 23.2581 23.7503 23.2581C24.8531 23.2581 25.8556 23.6591 26.6576 24.4611C27.4596 25.2631 27.8606 26.2657 27.8606 27.3684C27.8606 28.3709 27.5598 29.4737 26.6576 30.3759C25.8556 31.1779 24.7528 31.5789 23.7503 31.5789C22.7478 31.5789 21.645 31.1779 20.843 30.3759C19.9408 29.4737 19.64 28.3709 19.64 27.3684ZM35.9809 59.9499L37.6851 59.6491L38.4872 59.4486L39.7904 59.1479H40.5924L41.5949 59.0476L42.2967 58.6466L42.9984 58.1454L43.3994 57.2431L43.5999 56.6416L44.2014 55.4386L44.8029 55.1378L45.6049 54.8371V54.5363L45.2039 54.4361L44.2014 54.0351L43.2992 53.2331L43.5999 52.3308L44.4019 51.7293L45.3042 51.4286L45.9057 51.0276L47.8105 50.3258L48.7127 50.0251L49.3142 49.7243L49.9157 49.4235L50.5172 49.1228L51.0185 48.822L51.62 48.421L51.7202 48.1203L51.5197 47.9198L50.9182 47.619L50.1162 47.218L49.5147 46.2155L50.1162 45.3133L51.4195 44.6115L51.8205 44.01L51.7202 43.9098L49.8155 43.609L48.3117 43.5088L47.5097 43.4085H47.0085L46.2064 43.3083H45.2039H43.8004L42.8982 43.208H41.9959L40.5924 43.0075L39.7904 42.7068L39.1889 42.1053V41.5037L39.5899 41.0025L40.4922 40.3007L41.5949 40.2005L42.1964 40.3007L42.8982 40.5012L43.3994 40.7017L44.6024 40.802L45.8054 40.7017L46.5072 40.401L47.1087 40.2005L47.61 39.8997L48.7127 38.9975L49.4145 38.396L49.9157 37.8947L50.3167 37.3935L51.62 36.792L54.427 36.391L55.7303 35.99L56.2315 35.7895L57.1338 35.2882L57.9358 34.9875L58.9383 34.6867L59.64 34.386L60.041 34.1855L60.6425 34.2857V34.787V34.9875L59.9408 35.0877L58.9383 35.3885L57.9358 35.8897L57.1338 36.391L56.7328 36.792L56.1313 37.193L54.6275 37.4937L52.3217 37.7945L51.7202 38.0952L51.219 38.5965L50.6175 39.0977L49.8155 39.8997L48.2115 40.802L47.5097 41.203L46.7077 41.5037L45.9057 41.7043H44.8029H44.0009L42.8982 41.5037L41.9959 41.1027H41.4947H40.6927L40.3919 41.203L40.2917 41.5037V41.9048L40.6927 42.2055L41.0937 42.3058H41.8957L42.6977 42.406L43.5999 42.3058H45.2039L46.4069 42.406L47.1087 42.5063H47.9107L48.7127 42.6065L49.7152 42.7068L51.219 43.1078L52.5222 43.3083L52.823 44.411L52.5222 44.7118L51.62 45.3133L50.6175 46.015L50.5172 46.1153L50.7177 46.2155L51.4195 46.6165L52.2215 47.0175L52.823 47.8195L52.7227 48.9223L52.5222 49.5238L52.021 49.9248L50.9182 50.7268L49.8155 51.1278L48.9132 51.5288L47.8105 51.8296L46.2064 52.1303L45.4044 52.2306L44.9032 52.4311L44.4019 52.8321L44.2014 53.2331L44.3017 53.4336L44.8029 53.5338L45.7052 53.7343L46.7077 54.1353L46.9082 54.5363L46.808 55.1378L45.3042 55.7393L44.8029 56.1403L44.4019 56.7418L44.1012 57.8446L43.4997 59.1479L42.7979 59.7494L42.4972 59.8496L41.9959 60.1504L41.1939 60.4511L38.4872 60.6516L37.2841 60.5514L36.4821 60.6516L35.7804 60.7519L34.9784 60.6516L35.0786 60.1504L35.9809 59.9499ZM6.9082 35.4887C6.9082 41.1027 8.31171 46.7168 11.1187 51.6291C17.5348 62.9574 27.5598 71.8797 39.4897 76.9925C51.5197 71.8797 61.5448 62.9574 67.9608 51.6291C70.7678 46.7168 72.1714 41.1027 72.1714 35.4887V2.80701H6.9082V35.4887Z" fill="#012D74"/>
<path fill-rule="evenodd" clip-rule="evenodd" d="M13.5233 28.0702L13.6235 27.5689V27.0677L13.423 26.7669L13.022 26.5664L12.621 26.4662L12.3203 26.5664L12.0195 26.7669L11.819 27.0677L11.7188 27.5689L13.423 28.2707L13.5233 28.1704V28.0702Z" fill="#012D74"/>
<path fill-rule="evenodd" clip-rule="evenodd" d="M27.4594 14.8371L27.66 14.5364L27.7602 14.1353L27.66 13.7343L27.4594 13.5338L27.2589 13.4336L27.0584 13.3333H26.7577H26.3567L25.9557 13.5338L25.7552 13.7343L25.5547 13.8346L26.3567 15.4386L27.0584 15.1379L27.4594 14.8371Z" fill="#012D74"/>
<path fill-rule="evenodd" clip-rule="evenodd" d="M25.9543 13.3333L26.255 13.1328L26.4555 12.9323L26.5558 12.7318V12.5313L26.4555 12.0301L26.1548 11.7293L25.854 11.6291L25.453 11.5288L24.9518 11.7293L24.5508 12.0301L25.3528 13.6341L25.6535 13.5338L25.9543 13.3333Z" fill="#012D74"/>
<path fill-rule="evenodd" clip-rule="evenodd" d="M29.9648 12.2306L31.3684 11.7293L30.1653 10.3258L29.9648 12.2306Z" fill="#012D74"/>
<path fill-rule="evenodd" clip-rule="evenodd" d="M44.7012 10.9273L46.1047 11.2281L45.9042 9.42355L44.7012 10.9273Z" fill="#012D74"/>
<path fill-rule="evenodd" clip-rule="evenodd" d="M61.2435 20.3509L61.5442 20.5514L61.845 20.6516L62.1457 20.5514L62.5467 20.4511L62.7472 20.2506L62.8475 19.9499L62.9477 19.7494V19.5489V19.2481L62.8475 19.0476L62.5467 18.8471L61.043 19.9499L61.1432 20.1504L61.2435 20.3509Z" fill="#012D74"/>
<path fill-rule="evenodd" clip-rule="evenodd" d="M63.5482 23.6592L63.7487 23.8597L64.0494 23.9599H64.3502L64.7512 23.8597L64.9517 23.6592L65.1522 23.4587L65.2524 23.2582L65.3527 22.9574L65.2524 22.7569L65.1522 22.5564L64.9517 22.2556L63.3477 23.1579L63.4479 23.4587L63.5482 23.6592Z" fill="#012D74"/>
<path fill-rule="evenodd" clip-rule="evenodd" d="M66.6562 31.6792L66.8568 32.1805L67.1575 32.5815L67.4583 32.782H67.8593L68.2603 32.5815L68.561 32.381L68.6613 31.98V31.6792L68.4608 31.1779L66.6562 31.4787V31.5789V31.6792Z" fill="#012D74"/>
<path fill-rule="evenodd" clip-rule="evenodd" d="M54.3249 14.1354L54.8261 14.4361H55.3274L55.7284 14.3359L56.0291 14.0351L56.1294 13.6341V13.3333L56.0291 12.9323L55.7284 12.7318L55.2271 12.5313L54.2246 14.0351L54.3249 14.1354Z" fill="#012D74"/>
<path fill-rule="evenodd" clip-rule="evenodd" d="M35.9791 59.9499L37.6833 59.6491L38.4853 59.4486L39.7886 59.1479H40.5906L41.5931 59.0476L42.2949 58.6466L42.9966 58.1454L43.3976 57.2431L43.5981 56.6416L44.1996 55.4386L44.8011 55.1378L45.6031 54.8371V54.5363L45.2021 54.4361L44.1996 54.0351L43.2974 53.2331L43.5981 52.3308L44.4001 51.7293L45.3024 51.4286L45.9039 51.0276L47.8086 50.3258L48.7109 50.0251L49.3124 49.7243L49.9139 49.4235L50.5154 49.1228L51.0167 48.822L51.6182 48.421L51.7184 48.1203L51.5179 47.9198L50.9164 47.619L50.1144 47.218L49.5129 46.2155L50.1144 45.3133L51.4177 44.6115L51.8187 44.01L51.7184 43.9098L49.8137 43.609L48.3099 43.5088L47.5079 43.4085H47.0066L46.2046 43.3083H45.2021H43.7986L42.8964 43.208H41.9941L40.5906 43.0075L39.7886 42.7068L39.1871 42.1053V41.5038L39.5881 41.0025L40.4903 40.3007L41.5931 40.2005L42.1946 40.3007L42.8964 40.5012L43.3976 40.7017L44.6006 40.802L45.8036 40.7017L46.5054 40.401L47.1069 40.2005L47.6081 39.8997L48.7109 38.9975L49.4126 38.396L49.9139 37.8947L50.3149 37.3935L51.6182 36.792L54.4252 36.391L55.7284 35.99L56.2297 35.7895L57.1319 35.2882L57.934 34.9875L58.9365 34.6867L59.6382 34.386L60.0392 34.1855L60.6407 34.2857V34.787V34.9875L59.939 35.0877L58.9365 35.3885L57.934 35.8897L57.1319 36.391L56.7309 36.792L56.1294 37.193L54.6257 37.4937L52.3199 37.7945L51.7184 38.0952L51.2172 38.5965L50.6157 39.0977L49.8137 39.8997L48.2096 40.802L47.5079 41.203L46.7059 41.5038L45.9039 41.7043H44.8011H43.9991L42.8964 41.5038L41.9941 41.1027H41.4929H40.6908L40.3901 41.203L40.2898 41.5038V41.9048L40.6908 42.2055L41.0918 42.3058H41.8939L42.6959 42.406L43.5981 42.3058H45.2021L46.4051 42.406L47.1069 42.5063H47.9089L48.7109 42.6065L49.7134 42.7068L51.2172 43.1078L52.5204 43.3083L52.8212 44.411L52.5204 44.7118L51.6182 45.3133L50.6157 46.015L50.5154 46.1153L50.7159 46.2155L51.4177 46.6165L52.2197 47.0175L52.8212 47.8195L52.7209 48.9223L52.5204 49.5238L52.0192 49.9248L50.9164 50.7268L49.8137 51.1278L48.9114 51.5288L47.8086 51.8296L46.2046 52.1303L45.4026 52.2306L44.9014 52.4311L44.4001 52.8321L44.1996 53.2331L44.2999 53.4336L44.8011 53.5338L45.7034 53.7343L46.7059 54.1353L46.9064 54.5363L46.8061 55.1378L45.3024 55.7393L44.8011 56.1403L44.4001 56.7418L44.0994 57.8446L43.4979 59.1479L42.7961 59.7494L42.4954 59.8496L41.9941 60.1504L41.1921 60.4511L38.4853 60.6516L37.2823 60.5514L36.4803 60.6516L35.7786 60.7519L34.9766 60.6516L35.0768 60.1504L35.9791 59.9499Z" fill="white"/>
<path fill-rule="evenodd" clip-rule="evenodd" d="M27.8592 27.3684C27.8592 26.2657 27.4582 25.2632 26.6562 24.4612C25.8542 23.6591 24.8517 23.2581 23.7489 23.2581C22.6462 23.2581 21.6437 23.6591 20.8417 24.4612C20.0397 25.2632 19.6387 26.2657 19.6387 27.3684C19.6387 28.4712 20.0397 29.5739 20.8417 30.3759C21.6437 31.0777 22.6462 31.579 23.7489 31.579C24.8517 31.579 25.8542 31.0777 26.6562 30.3759C27.4582 29.5739 27.8592 28.4712 27.8592 27.3684Z" fill="white"/>
<path fill-rule="evenodd" clip-rule="evenodd" d="M10.5162 30.1754L10.416 30.2757L10.6165 30.3759L10.7167 30.4762L10.6165 30.6767L10.3157 31.178L10.2155 31.579L10.1152 32.1805L10.2155 32.782L10.5162 33.2832L11.0175 33.7845L11.5187 34.0852L12.02 34.2857H12.421H12.822L13.1228 34.1855L13.5238 34.0852L13.9248 33.7845L14.2255 33.3835L14.5263 32.9825L14.6265 32.381L14.7268 31.98V31.579L14.6265 31.178L14.5263 30.777L13.223 30.5764L12.822 30.3759L12.7218 30.2757V30.0752V29.9749H12.6215L12.3207 31.6792H12.421L12.5212 31.2782L12.7218 31.178H13.1228L14.426 31.4787L14.5263 31.8797L14.426 32.381L14.3258 32.6817L14.1253 33.0827L13.7243 33.3835L13.223 33.584H12.6215H12.02L11.7192 33.4837L11.3182 33.2832L11.0175 33.183L10.817 32.9825L10.5162 32.6817L10.416 32.381L10.3157 31.98L10.416 31.579V31.3785L10.6165 31.0777L10.7167 30.8772L10.9172 30.6767L11.3182 30.5764L11.8195 30.4762V30.3759" fill="white"/>
<path fill-rule="evenodd" clip-rule="evenodd" d="M13.4242 28.2707L11.72 27.5689L11.8202 27.0677L12.0207 26.7669L12.3215 26.5664L12.6222 26.4662L13.0232 26.5664L13.4242 26.7669L13.6247 27.0677V27.5689L13.5245 28.0702V28.1704L13.4242 28.2707ZM16.6323 26.1654H16.532L16.3315 26.4662L16.131 26.6667L15.8302 26.7669L15.329 26.8672L13.9255 27.2682V26.7669L13.8252 26.3659L13.6247 26.0652L13.2237 25.8647L12.923 25.7644L12.6222 25.8647L12.3215 25.9649L12.0207 26.2657L11.8202 26.5664L11.5195 27.1679L10.918 28.6717H11.0182L11.1185 28.5714L11.2187 28.3709L11.4192 28.2707H11.5195L11.9205 28.3709L14.527 29.3734L14.8277 29.4737L14.928 29.6742L15.0282 29.7744V30.0752L14.928 30.1754L15.0282 30.2757L15.73 28.4712H15.6297L15.5295 28.5714L15.4292 28.7719L15.329 28.8722H15.1285L14.8277 28.7719L13.6247 28.3709V28.2707L13.725 28.1704L13.8252 27.9699L16.131 27.2682L16.6323 26.1654Z" fill="white"/>
<path fill-rule="evenodd" clip-rule="evenodd" d="M14.5259 21.3534L14.7264 21.1529H14.9269H15.0271L15.2276 21.3534L15.3279 21.5539L16.1299 22.9574L14.4256 23.0576H14.1249L13.9244 22.9574L13.8241 22.8571V22.7569L13.9244 22.4561V22.3559H13.8241L12.9219 23.9599L13.1224 23.8596L13.4231 23.6591H13.9244L16.1299 23.5589L17.0322 24.1604L17.2327 24.2606L17.3329 24.4611L17.4332 24.6616L17.3329 24.8621L17.2327 24.9624L17.3329 25.0626L18.3354 23.4586L18.2352 23.3584L18.1349 23.4586L18.0347 23.6591L17.8342 23.7594H17.6337L17.3329 23.5589L16.4306 22.9574L15.5284 21.2531L15.3279 20.7519L15.2276 20.4511L15.3279 20.1504V20.0501H15.2276" fill="white"/>
<path fill-rule="evenodd" clip-rule="evenodd" d="M13.4244 20.4511L13.0234 21.0526L13.7252 21.8546L13.8254 21.7544" fill="white"/>
<path fill-rule="evenodd" clip-rule="evenodd" d="M18.3351 16.5414L16.0293 19.0476L16.6308 19.7494L16.7311 19.6491L16.5306 19.4486V19.2481L16.4303 19.0476L16.5306 18.9474L16.7311 18.5464L17.0318 18.2456L19.6383 20.4511L19.8388 20.7519L19.9391 20.8521V21.0526L19.7386 21.2531L19.6383 21.3534L19.7386 21.4536L21.0418 20.0501L20.9416 19.9499L20.8413 20.0501L20.6408 20.2506H20.4403H20.3401L20.0393 20.0501L17.5331 17.7444L17.9341 17.2431L18.1346 17.1429L18.2348 17.0426L18.4353 16.9424H18.6358L19.0368 17.1429V17.0426" fill="white"/>
<path fill-rule="evenodd" clip-rule="evenodd" d="M21.3435 14.0351L21.4438 13.9348L21.6443 13.8346H21.8448H22.0453L22.2458 14.1354L23.3485 15.5389L23.7495 16.0401L23.95 16.4411V16.7419V17.0426L23.7495 17.4436L23.4488 17.6441L23.148 17.8446L22.9475 17.9449H22.6468H22.4463L22.2458 17.8446L22.0453 17.6441L21.544 17.1429L20.341 15.6391L20.1405 15.4386V15.2381V15.0376L20.341 14.8371L20.4413 14.7369H20.341L18.9375 15.9399L19.138 15.8396L19.2383 15.7394H19.4388L19.6393 15.8396L19.8398 16.0401L20.9425 17.3434L21.3435 17.8446L21.7445 18.1454L22.1455 18.3459H22.5465L22.9475 18.2456L23.549 17.8446L23.95 17.4436L24.1505 17.0426V16.6416V16.2406L23.95 15.8396L23.549 15.3384L22.4463 13.9348L22.2458 13.7343V13.5338V13.3333L22.4463 13.1328L22.5465 13.0326H22.4463L21.3435 13.9348" fill="white"/>
<path fill-rule="evenodd" clip-rule="evenodd" d="M25.3527 13.6341L24.5507 12.0301L24.9517 11.7293L25.4529 11.5288L25.8539 11.6291L26.1547 11.7293L26.4554 12.0301L26.5557 12.5313V12.7318L26.4554 12.9323L26.2549 13.1328L25.9542 13.3333L25.6534 13.5338L25.3527 13.6341ZM26.3552 15.4386L25.5532 13.8346L25.7537 13.7343L25.9542 13.5338L26.3552 13.3333H26.7562H27.0569L27.2574 13.4336L27.4579 13.5338L27.6584 13.7343L27.7587 14.1353L27.6584 14.5363L27.4579 14.8371L27.0569 15.1378L26.3552 15.4386ZM26.9567 12.9323L27.1572 12.6316V12.3308V12.0301L27.0569 11.7293L26.8564 11.4286L26.5557 11.2281H26.1547H25.6534L25.3527 11.3283L24.9517 11.5288L23.3477 12.4311V12.5313L23.5482 12.4311L23.7487 12.3308H23.8489L24.0494 12.5313L24.2499 12.7318L25.5532 15.3383L25.7537 15.5388V15.7393L25.6534 15.9398L25.4529 16.1403H25.3527V16.2406L27.1572 15.2381L27.7587 14.9373L28.0594 14.6366L28.2599 14.3358L28.3602 14.0351V13.6341L28.2599 13.3333L27.9592 13.0326L27.6584 12.9323L27.3577 12.8321L26.9567 12.9323Z" fill="white"/>
<path fill-rule="evenodd" clip-rule="evenodd" d="M31.3676 11.7293L29.9641 12.2306L30.1646 10.3258L31.3676 11.7293ZM31.4679 11.8296L31.8689 12.3308L32.1696 12.7318V12.8321V12.9323L32.0694 13.0326L31.8689 13.1328V13.2331L33.4729 12.7318V12.6316H33.2724H33.0719L32.7711 12.4311L32.5706 12.1303L30.0644 9.22305H29.9641L29.5631 13.1328L29.4629 13.5338V13.8346L29.3626 13.9348L29.1621 14.1353L30.4654 13.7343L30.3651 13.6341L30.1646 13.7343H29.9641L29.8639 13.6341V13.5338V13.1328V12.4311L31.4679 11.8296Z" fill="white"/>
<path fill-rule="evenodd" clip-rule="evenodd" d="M35.1775 9.92481L35.6788 9.22306L36.2803 8.5213L36.581 8.1203L36.8818 7.9198L37.0823 7.81955L35.5785 8.02005V8.1203H35.6788H35.8793L35.9795 8.22055V8.5213L35.5785 9.02256L34.977 9.82456L34.576 10.2256L34.3755 8.92231V8.5213L34.4758 8.3208L34.7765 8.22055H34.977L34.8768 8.1203L33.0723 8.3208V8.42105H33.1725H33.4733L33.6738 8.62155L33.774 9.02256L34.175 11.8296V12.1303V12.3308L34.0748 12.4311L33.774 12.5313H33.6738V12.6316L35.5785 12.4311V12.3308H35.378H35.0773L34.977 12.1303L34.7765 11.7293L34.576 10.3258L36.2803 11.5288L36.4808 11.7293L36.581 11.8296L36.4808 12.0301L36.3805 12.1303L36.2803 12.2306L38.2853 12.0301L38.185 11.9298L37.9845 11.8296L37.6838 11.7293L36.982 11.3283" fill="white"/>
<path fill-rule="evenodd" clip-rule="evenodd" d="M40.2915 9.62406L40.9932 9.02256L41.5947 8.42105L41.9957 8.1203L42.2965 7.9198H42.5972V7.81955L40.9932 7.7193V7.81955H41.0935L41.3942 7.9198V8.1203L41.294 8.3208L40.893 8.72181L40.1912 9.42356L39.69 9.82456L39.7902 8.42105V8.02005L39.9907 7.9198L40.2915 7.81955H40.3917V7.7193L38.487 7.61905V7.7193H38.6875L38.9882 7.81955L39.0885 8.02005V8.42105L38.9882 11.3283V11.6291L38.888 11.8296L38.7877 11.9298H38.487H38.3867V12.0301H40.1912H40.2915H40.091L39.7902 11.9298L39.69 11.7293L39.5897 11.3283L39.69 9.92481L41.0935 11.4286L41.294 11.6291V11.7293L41.1937 11.9298L41.0935 12.0301H40.9932V12.1303H42.9982L42.6975 12.0301L42.3967 11.8296L41.7952 11.2281" fill="white"/>
<path fill-rule="evenodd" clip-rule="evenodd" d="M46.1058 11.2281L44.7023 10.9273L45.9053 9.42356L46.1058 11.2281ZM46.2061 11.4286L46.3063 12.0301V12.5313L46.2061 12.6316V12.7318H46.0056H45.8051V12.8321L47.5093 13.2331V13.1328L47.3088 13.0326L47.1083 12.9323L47.0081 12.6316L46.9078 12.2306L46.4066 8.42105H46.3063L43.9003 11.5288L43.5995 11.8296L43.399 12.0301L43.2988 12.1303H42.998V12.2306L44.3013 12.5313V12.4311L44.1008 12.3308L44.0006 12.2306L43.9003 12.1303V12.0301L44.1008 11.6291L44.6021 11.0276L46.2061 11.4286Z" fill="white"/>
<path fill-rule="evenodd" clip-rule="evenodd" d="M49.7146 11.7293L50.2159 10.4261L50.4164 10.1253L50.6169 10.0251H50.9176L51.0179 10.1253L51.1181 10.0251L49.3136 9.3233L49.5141 9.42355L49.7146 9.62406L49.8149 9.82456L49.6144 10.2256L48.5116 12.8321L48.4114 13.1328L48.2109 13.2331L48.0104 13.3333L47.8099 13.2331H47.7096H47.6094L49.4139 14.0351V13.9348L49.3136 13.8346L49.0129 13.7343L48.9126 13.5338L49.1131 13.1328L49.6144 11.8296L51.5192 12.7318L51.0179 13.9348L50.8174 14.2356L50.7171 14.3358H50.5166H50.3161L50.2159 14.2356L50.1156 14.3358L51.9202 15.1378V15.0376L51.7197 14.9373L51.5192 14.7368L51.4189 14.6366L51.6194 14.1353L52.7222 11.5288L52.9227 11.1278H53.1232H53.4239L53.5242 11.2281L53.6244 11.1278L51.8199 10.3258V10.4261L51.9202 10.5263L52.2209 10.7268L52.3212 10.8271L52.1207 11.2281L51.6194 12.5313" fill="white"/>
<path fill-rule="evenodd" clip-rule="evenodd" d="M54.2257 14.0351L55.2282 12.5313L55.7294 12.7318L56.0302 12.9323L56.1305 13.3333V13.6341L56.0302 14.0351L55.7294 14.3358L55.3284 14.4361H54.8272L54.3259 14.1353L54.2257 14.0351ZM55.6292 17.5438L55.4287 17.2431L55.2282 17.0426V16.7418L55.1279 16.2406V14.6366L55.6292 14.8371H56.0302L56.331 14.6366L56.6317 14.3358L56.732 14.0351V13.7343V13.4336L56.5315 13.1328L56.2307 12.8321L55.7294 12.4311L54.3259 11.5288V11.6291L54.4262 11.7293L54.6267 11.8296L54.7269 12.0301L54.6267 12.2306L54.5264 12.5313L52.9224 14.9373L52.7219 15.1378L52.6217 15.2381H52.3209L52.1204 15.1378L52.0202 15.0376L51.9199 15.1378L53.5239 16.2406L53.6242 16.1403L53.4237 16.0401L53.3234 15.9398L53.2232 15.7393V15.5388L53.4237 15.2381L54.1254 14.2356H54.2257V14.3358L54.5264 14.4361L54.6267 16.9423L55.6292 17.5438Z" fill="white"/>
<path fill-rule="evenodd" clip-rule="evenodd" d="M59.3382 15.4386L60.1402 16.2406L60.4409 16.5414V16.6416V16.8421L60.2404 17.2431L60.3407 17.3434L60.9422 16.6416L58.5362 14.4361V14.5363L58.6364 14.6366L58.7367 14.8371L58.8369 14.9373L58.7367 15.1379L58.5362 15.4386L56.5312 17.4436L56.2304 17.7444H56.0299L55.7292 17.6441L55.6289 17.5439L58.0349 19.8496L59.0374 19.3484L58.8369 19.2481L58.4359 19.3484L58.1352 19.4486H57.9347L57.8344 19.3484L57.3332 19.0476L56.8319 18.5464L56.7317 18.3459V18.2456L56.9322 17.9449L58.0349 16.8421L58.6364 17.5439L58.8369 17.8446V18.0451L58.6364 18.3459L58.7367 18.4461L59.7392 17.4436L59.6389 17.3434L59.4384 17.5439L59.1377 17.6441L59.0374 17.5439L58.7367 17.3434L58.1352 16.7419" fill="white"/>
<path fill-rule="evenodd" clip-rule="evenodd" d="M61.0434 19.9499L62.5471 18.8471L62.8479 19.0476L62.9481 19.2481V19.5489V19.7494L62.8479 19.9499L62.7476 20.2506L62.5471 20.4511L62.1461 20.5514L61.8454 20.6516L61.5446 20.5514L61.2439 20.3509L61.1436 20.1504L61.0434 19.9499ZM60.9431 20.0501L61.0434 20.3509L61.2439 20.6516L61.4444 20.8521L61.6449 21.0526L61.8454 21.1529H62.1461L62.3466 21.2531L62.5471 21.1529L62.7476 21.0526L62.9481 20.9524L63.2489 20.6516L63.3491 20.3509L63.4494 20.0501L63.3491 19.6491L63.1486 19.3484L62.8479 18.8471L61.9456 17.6441L61.8454 17.7444L61.9456 17.8446L62.0459 18.0451V18.2456L61.9456 18.3459L61.7451 18.5464L59.4394 20.3509L59.2389 20.5514H59.0384H58.8379L58.6374 20.3509L58.5371 20.2506L59.6399 21.7544H59.7401L59.6399 21.6541L59.5396 21.4536V21.2531L59.6399 21.0526L59.8404 20.8521L60.9431 20.0501Z" fill="white"/>
<path fill-rule="evenodd" clip-rule="evenodd" d="M63.3487 23.1579L64.9527 22.2557L65.1532 22.5564L65.2535 22.7569L65.3537 22.9574L65.2535 23.2582L65.1532 23.4587L64.9527 23.6592L64.7522 23.8597L64.3512 23.9599H64.0505L63.7497 23.8597L63.5492 23.6592L63.449 23.4587L63.3487 23.1579ZM63.1482 23.2582L63.3487 23.5589L63.449 23.8597L63.6495 24.1604L63.7497 24.3609L63.9502 24.4612L64.251 24.5614H64.4515H64.652H64.8525L65.1532 24.4612L65.3537 24.1604L65.5542 23.8597L65.6545 23.5589V23.2582L65.5542 22.8572L65.2535 22.3559L64.5517 21.0526H64.4515L64.5517 21.1529L64.652 21.4536L64.5517 21.5539L64.4515 21.7544L64.251 21.9549L61.6444 23.3584L61.4439 23.4587H61.2434H61.0429L60.9427 23.2582L60.8424 23.0577L60.7422 23.1579L61.6444 24.7619H61.7447L61.6444 24.5614V24.3609V24.2607L61.7447 24.0602L62.0454 23.8597L63.1482 23.2582Z" fill="white"/>
<path fill-rule="evenodd" clip-rule="evenodd" d="M67.6597 27.4687V27.6692L67.76 27.8697L67.6597 28.0702L67.5595 28.1704L67.2587 28.3709L65.5545 28.9724L64.9529 29.1729L64.5519 29.2732L64.2512 29.1729L63.9504 28.9724L63.6497 28.7719L63.5494 28.3709L63.4492 28.0702V27.7694V27.5689L63.5494 27.3684L63.7499 27.1679L64.0507 27.0677L64.5519 26.7669L66.3565 26.0652L66.6572 25.9649H66.8577L67.0582 26.0652L67.1585 26.2657V26.3659H67.2587L66.557 24.6617V24.7619L66.6572 24.9624L66.557 25.1629L66.4567 25.3634L66.156 25.4637L64.5519 26.0652L63.9504 26.3659L63.5494 26.5664L63.3489 26.8672L63.1484 27.2682V27.7694L63.3489 28.3709L63.5494 28.8722L63.9504 29.2732L64.3514 29.4737H64.6522L65.1534 29.3734L65.6547 29.2732L67.359 28.5714L67.6597 28.4712H67.76L67.9605 28.5714L68.161 28.7719V28.9724L68.2612 28.8722L67.76 27.4687" fill="white"/>
<path fill-rule="evenodd" clip-rule="evenodd" d="M66.656 31.4787L68.4605 31.178L68.661 31.6792V31.98L68.5608 32.381L68.26 32.5815L67.859 32.782H67.458L67.1573 32.5815L66.8565 32.1805L66.656 31.6792V31.579V31.4787ZM65.052 34.9875L65.1523 34.5865L65.2525 34.386L65.453 34.0852L65.7538 33.6842L66.8565 32.5815L67.057 32.9825L67.3578 33.2832L67.7588 33.4837H68.0595L68.4605 33.2832L68.661 33.0827L68.8615 32.782L68.9618 32.4812V32.0802L68.8615 31.4787L68.5608 29.8747H68.4605V30.0752V30.2757V30.4762L68.26 30.5765H67.9593L65.052 31.178H64.8515H64.651L64.4505 31.0777L64.3503 30.777V30.6767H64.25L64.651 32.5815L64.7513 32.4812L64.651 32.381V32.1805L64.7513 31.98L64.9518 31.8797L65.2525 31.7795L66.4555 31.579V31.6792L66.5558 31.98L64.8515 33.7845L65.052 34.9875Z" fill="white"/>
<path fill-rule="evenodd" clip-rule="evenodd" d="M50.3159 27.8697L48.2107 28.8722L46.1054 29.5739L42.6969 29.9749L40.6919 30.9774L39.6893 32.2807H39.7896L40.4914 32.3809L41.5941 31.3784L42.9976 31.1779L45.5039 31.2782L48.6117 30.9774L49.6142 30.4762L51.9199 29.4737L54.0252 28.0702L56.4312 25.7644L57.4337 27.0677L58.0352 27.1679L59.3385 26.4662L58.737 25.3634L57.7345 25.6642L56.1305 24.1604H55.7295L54.7269 25.0627L53.1229 26.6667L51.6192 27.3684L50.2157 25.8647L48.6117 25.5639L46.9074 24.2607L45.6041 24.8622L44.5014 24.9624L43.7996 24.6617L42.8974 25.4637L41.0929 26.8672L39.2883 27.3684L37.1831 27.2682L35.8798 28.6717L33.9751 28.9724L31.569 31.7794L29.3635 33.985L26.9575 35.4887L24.0503 35.6892H18.8372L18.6367 35.7895V36.1905L18.737 36.6917L18.8372 36.792L23.4487 37.0927L28.361 37.193L28.9625 37.4937L37.3836 37.594L40.1906 37.193L42.3961 36.792L48.9124 36.6917L48.8122 36.2907L47.9099 35.589L44.3009 35.188H42.1956L37.9851 35.4887H33.0728L30.2658 35.7895L28.762 35.99L28.0603 35.8897L30.767 34.0852L32.3711 33.0827L34.4763 30.5764L35.9801 30.0752L37.2833 28.5714L38.6868 28.6717L41.0929 28.3709L42.3961 26.9674L43.5991 25.9649L45.8046 26.1654L46.8071 25.5639L47.8097 26.4662L49.8147 27.0677L50.6167 27.7694L50.3159 27.8697Z" fill="white"/>
<path fill-rule="evenodd" clip-rule="evenodd" d="M23.3486 53.5338L23.5491 53.4336L23.3486 52.8321L21.7446 51.7293H22.4463L23.2483 51.5288L24.0503 51.1278L24.7521 50.1253L24.3511 49.8246L22.9476 49.3233L22.7471 49.1228H23.1481L23.9501 48.7218L25.1531 47.8196L25.3536 47.4186L25.4538 46.9173L24.9526 47.0176L24.1506 46.9173L23.4488 46.8171L22.6468 46.5163L22.0453 46.1153L23.0478 46.015L23.9501 45.9148L25.0528 45.3133L25.6544 44.812L26.3561 44.3108L26.7571 43.5088L27.1581 42.5063L26.1556 42.6065L25.1531 42.807H24.2508H23.5491L22.8473 42.6065L22.2458 42.5063L21.6443 42.2055V42.1053H22.7471L23.5491 42.005L24.7521 41.8045L26.7571 40.7018L27.3586 40.2005L27.8599 39.4988L28.2609 38.4963V37.995L25.5541 38.797L23.3486 38.6968L21.8448 38.4963L21.0428 38.2958L20.4413 37.8947L20.1406 37.7945L19.5391 37.6942L19.6393 38.396L20.2408 38.8973L20.9426 39.198L21.7446 39.599L23.3486 39.7995H24.1506H25.7546L26.4564 39.599L27.0579 39.2983V39.4988L26.2559 40.1003L25.2533 40.6015L24.2508 41.0025L23.3486 41.203L22.7471 41.3033H21.2433L19.9401 41.0025V41.7043L20.2408 42.2055L21.0428 42.9073L21.9451 43.3083L23.1481 43.7093L24.4513 43.9098L25.3536 43.609L25.9551 43.4085L25.6544 43.8095L25.1531 44.2105L24.6518 44.6115L23.3486 45.3133L21.0428 45.614L21.4438 46.5163L22.2458 47.0176L22.9476 47.4186H23.3486L24.0503 47.7193L23.5491 48.0201L22.9476 48.3208L22.3461 48.4211L21.6443 48.5213V48.9223L22.3461 49.6241L23.1481 50.0251L23.5491 50.2256L24.0503 50.3258L23.6493 50.8271L22.6468 51.1278H21.9451H20.9426L20.8423 51.5288L22.2458 52.4311L23.1481 53.1328L23.3486 53.5338Z" fill="white"/>
<path fill-rule="evenodd" clip-rule="evenodd" d="M72.1712 35.4887C72.1712 41.1027 70.7677 46.7168 67.9607 51.6291C64.8529 57.1428 60.7426 62.2556 55.8304 66.6666C50.9181 70.9774 45.4043 74.4862 39.4895 76.9925C33.675 74.4862 28.1612 70.9774 23.2489 66.6666C18.3366 62.2556 14.2264 57.1428 11.1186 51.6291C8.31156 46.7168 6.90806 41.1027 6.90806 35.4887V2.80701H72.1712V35.4887ZM5.4043 35.4887C5.4043 38.396 5.8053 41.3032 6.6073 44.2105C7.30906 47.0175 8.41182 49.7243 9.81532 52.3308C11.5196 55.1378 13.3241 57.9449 15.5296 60.5514C17.6349 63.1579 19.9406 65.6641 22.5472 67.8697C25.0534 70.1754 27.7602 72.1804 30.6675 73.8847C33.4745 75.6892 36.482 77.193 39.4895 78.4962C42.5973 77.193 45.6048 75.6892 48.4118 73.8847C51.3191 72.1804 54.0258 70.1754 56.5321 67.8697C59.1386 65.6641 61.4444 63.1579 63.5497 60.5514C65.7552 57.9449 67.5597 55.1378 69.1637 52.3308C70.6674 49.7243 71.7702 47.0175 72.472 44.2105C73.274 41.3032 73.675 38.396 73.675 35.4887V1.4035H5.4043V35.4887Z" fill="white"/>
</svg>
