<svg width="80" height="80" viewBox="0 0 80 80" fill="none" xmlns="http://www.w3.org/2000/svg">
<path d="M67.4336 64.9182V69.077C64.4836 72.2023 56.7485 71.9267 54.2307 68.5008C54.2307 68.5008 52.001 71.2879 47.3537 71.2879C42.9194 71.2879 40.2137 68.5008 40.2137 68.5008C40.2137 68.5008 37.5142 71.2879 33.0799 71.2879C28.4326 71.2879 26.2029 68.5008 26.2029 68.5008C23.685 71.9267 15.95 72.2023 13 69.077V64.9182C15.1545 66.9851 22.6892 68.5446 26.2029 63.8033C26.2029 63.8033 33.7813 71.8453 40.2137 63.8033C46.6522 71.8453 54.2307 63.8033 54.2307 63.8033C57.7444 68.5383 65.279 66.9851 67.4336 64.9182ZM67.4336 73.6303V77.7891C64.4836 80.9144 56.7485 80.6389 54.2307 77.2129C54.2307 77.2129 52.001 80 47.3537 80C42.9194 80 40.2137 77.2129 40.2137 77.2129C40.2137 77.2129 37.5142 80 33.0799 80C28.4326 80 26.2029 77.2129 26.2029 77.2129C23.685 80.6389 15.95 80.9144 13 77.7891V73.6303C15.1545 75.6972 22.6892 77.2567 26.2029 72.5155C26.2029 72.5155 33.7813 80.5574 40.2137 72.5155C46.6522 80.5574 54.2307 72.5155 54.2307 72.5155C57.7444 77.2567 65.279 75.6972 67.4336 73.6303Z" fill="#4363A9"/>
<path d="M27.6238 68.4946L26.5215 66.8348L32.1897 63.0706L35.1522 13.1967L37.1376 13.3094L34.1188 64.1792L27.6238 68.4946ZM52.8145 68.4946L53.9168 66.8348L48.2486 63.0706L45.2861 13.1967L43.3006 13.3094L46.3195 64.1792L52.8145 68.4946ZM39.2233 42.2266H41.215V45.6088H39.2233V42.2266ZM39.2233 29.7253H41.215V33.1074H39.2233V29.7253ZM39.2233 17.2239H41.215V20.606H39.2233V17.2239Z" fill="#4363A9"/>
<path d="M32.666 10.6099H47.7729V13.8104H32.666V10.6099Z" fill="#4363A9"/>
<path d="M37.144 11.1234H35.1523V5.00427H37.144V11.1234ZM45.28 11.1234H43.2883V5.00427H45.28V11.1234Z" fill="#4363A9"/>
<path d="M35.2412 7.4407L15.3617 2.00423L15.3555 2.02928V2.93118L29.3162 7.88538L15.3555 12.7456V13.6726L35.2412 8.36139V7.4407ZM45.1934 7.4407L65.0791 2.00423L65.0854 2.02928V2.93118L51.1247 7.88538L65.0854 12.7456V13.6726L45.1934 8.36139V7.4407ZM40.2455 0L32.667 4.16504V5.53042H47.7738V4.16504L40.2455 0Z" fill="#4363A9"/>
</svg>
