<svg width="80" height="80" viewBox="0 0 80 80" fill="none" xmlns="http://www.w3.org/2000/svg">
<g clip-path="url(#clip0_2491:55359)">
<path d="M39.2771 78.7732C38.9704 78.6709 38.7148 78.5176 38.4081 78.4153C37.7946 78.1598 37.079 77.853 36.4145 77.5463C34.3697 76.6262 32.3761 75.655 30.5359 74.5815C14.7403 65.5336 9.62851 53.2652 8.04385 46.7732C7.94161 46.3131 7.83938 45.8019 7.68602 45.2907V45.1885L7.02148 1.02237H72.3506L72.2994 40.9457L71.7371 45.1885C71.7371 45.2907 71.7371 45.2907 71.686 45.3419L71.5327 46.0575C71.4304 46.4665 71.3282 46.8754 71.226 47.2844C71.1237 47.6933 70.9704 48.1022 70.8681 48.5112C70.817 48.7157 70.7148 48.9201 70.6637 49.1246C70.6125 49.3291 70.5103 49.5336 70.4592 49.738C70.4592 49.7891 70.4081 49.8403 70.4081 49.8914C70.3058 50.1981 70.1525 50.5559 70.0502 50.9137C69.7947 51.5783 69.5391 52.2428 69.2323 52.9074C69.1301 53.1118 69.0279 53.3163 68.9256 53.5208C68.7723 53.8275 68.6701 54.1342 68.5167 54.3898C68.4145 54.5431 68.3633 54.7476 68.2611 54.9521C68.0566 55.361 67.801 55.8722 67.4432 56.4856L67.1365 57.0479C67.0343 57.2524 66.8809 57.4569 66.7787 57.6614C66.4208 58.2237 66.063 58.7348 65.7563 59.246C65.603 59.4505 65.4496 59.655 65.3474 59.8594C65.194 60.0639 65.0407 60.2684 64.8873 60.4729C64.5806 60.8818 64.2739 61.2907 63.9161 61.7508C63.456 62.3642 62.8937 62.9776 62.3825 63.5911C62.2292 63.7955 62.0247 64 61.8202 64.2045C61.5135 64.5112 61.2579 64.8179 60.9512 65.1246C60.7978 65.278 60.6445 65.4313 60.4911 65.5847C59.7755 66.3003 59.1109 66.9137 58.4464 67.5272C58.2419 67.7316 58.0375 67.885 57.833 68.0895C57.6285 68.2939 57.424 68.4473 57.2196 68.6518C56.964 68.8562 56.7595 69.0607 56.4528 69.2652C56.1972 69.4697 55.9416 69.6741 55.686 69.8786C55.4815 70.032 55.2771 70.1853 55.0726 70.3387C54.3058 70.9521 53.4368 71.5655 52.5678 72.1278C52.3633 72.2812 52.1077 72.4345 51.9033 72.5879C51.6988 72.7412 51.4943 72.8435 51.2899 72.9968C51.0854 73.1502 50.8809 73.2524 50.6253 73.4058C50.1653 73.6614 49.7563 73.9169 49.2962 74.2236C48.5806 74.6326 47.8649 75.0415 47.0982 75.4505C46.7403 75.655 46.3825 75.8083 46.0247 76.0128C45.9224 76.0639 45.8202 76.115 45.718 76.1661C45.3601 76.3706 44.9512 76.524 44.5423 76.7284C43.8777 77.0352 43.1621 77.3419 42.3953 77.6997C41.9352 77.9042 41.4752 78.1086 41.0151 78.262C40.7595 78.3642 40.4528 78.5176 40.1461 78.6198L39.7883 78.7732H39.2771Z" fill="white"/>
<path fill-rule="evenodd" clip-rule="evenodd" d="M69.3864 32.1534V38.901C69.3864 41.0479 69.1819 43.0926 68.7729 45.0863H10.4982C10.0892 43.0926 9.88477 40.9968 9.88477 38.901V24.5879L10.0892 23.9744L12.0317 24.8434L12.9519 25.9169L13.2586 26.8371L13.7186 27.0926L14.5876 28.2173L15.2522 28.3195L16.0701 28.2173L16.9902 26.3259L17.0924 24.5879L16.9391 23.8211L16.9902 22.901L17.5014 22.2364L18.1659 20.345L18.9327 20.0895L19.495 19.476L20.8241 19.3738L21.5908 19.5783L22.3065 19.2204H25.118L25.8848 18.8115L27.8273 18.5559L30.6899 19.6805L31.4567 19.7316L32.9902 23.4121L33.757 23.8211L34.626 24.0256L35.1883 24.2811H35.6483L36.1595 23.77L37.2841 23.6166L37.5908 23.0543L38.7666 16.1022L39.1755 15.7955L39.4822 15.3355L40.1979 14.8243L40.9646 13.4441L41.6803 9.91693L42.6004 10.0192L43.725 11.8083L43.9806 13.2907L44.8496 14.1597L45.3608 15.7444L45.3097 16.7668L45.7186 17.3291L46.2298 16.9201L47.1499 17.2268L47.7122 17.8914L47.9678 19.1182L49.2969 19.476L49.6036 20.0895L50.3704 20.754L50.6771 22.1342L51.2394 22.3387L51.495 23.1054L51.9039 23.6166L52.8241 23.8211L53.5908 24.23L53.7953 24.8434L54.4599 25.1502L55.6867 27.3482L56.8113 25.7636L57.4247 26.1725L57.9359 27.5527L61.1052 29.3419L62.0253 28.4217L62.2809 25.6102H62.6899L62.9455 25.099L63.9678 24.639L66.1148 27.3482L67.2394 31.2332L67.5461 31.3866L68.4151 31.4888L69.3864 32.1534Z" fill="#004998"/>
<path fill-rule="evenodd" clip-rule="evenodd" d="M69.3864 32.1534V38.901C69.3864 41.0479 69.1819 43.0926 68.7729 45.0863H10.4982C10.0892 43.0926 9.88477 40.9968 9.88477 38.901V24.5879L10.0892 23.9744L12.0317 24.8434L12.9519 25.9169L13.2586 26.8371L13.7186 27.0926L14.5876 28.2173L15.2522 28.3195L16.0701 28.2173L16.9902 26.3259L17.0924 24.5879L16.9391 23.8211L16.9902 22.901L17.5014 22.2364L18.1659 20.345L18.9327 20.0895L19.495 19.476L20.8241 19.3738L21.5908 19.5783L22.3065 19.2204H25.118L25.8848 18.8115L27.8273 18.5559L30.6899 19.6805L31.4567 19.7316L32.9902 23.4121L33.757 23.8211L34.626 24.0256L35.1883 24.2811H35.6483L36.1595 23.77L37.2841 23.6166L37.5908 23.0543L38.7666 16.1022L39.1755 15.7955L39.4822 15.3355L40.1979 14.8243L40.9646 13.4441L41.6803 9.91693L42.6004 10.0192L43.725 11.8083L43.9806 13.2907L44.8496 14.1597L45.3608 15.7444L45.3097 16.7668L45.7186 17.3291L46.2298 16.9201L47.1499 17.2268L47.7122 17.8914L47.9678 19.1182L49.2969 19.476L49.6036 20.0895L50.3704 20.754L50.6771 22.1342L51.2394 22.3387L51.495 23.1054L51.9039 23.6166L52.8241 23.8211L53.5908 24.23L53.7953 24.8434L54.4599 25.1502L55.6867 27.3482L56.8113 25.7636L57.4247 26.1725L57.9359 27.5527L61.1052 29.3419L62.0253 28.4217L62.2809 25.6102H62.6899L62.9455 25.099L63.9678 24.639L66.1148 27.3482L67.2394 31.2332L67.5461 31.3866L68.4151 31.4888L69.3864 32.1534Z" fill="#004998"/>
<path d="M6 0V25.2524V39.0032C6 57.3035 20.0064 70.5943 33.8594 77.4952C35.6997 78.4154 37.4888 79.1821 39.278 79.8978L39.6358 80.0511L39.9936 79.8978C41.8339 79.1821 43.6741 78.3642 45.4121 77.4952C52.3131 74.0703 58.4984 69.4697 63.1502 64.1534C69.7955 56.639 73.2716 47.9489 73.2716 39.0032V34.6582V0H6ZM71.278 33.1757V39.0032C71.278 39.2588 71.278 39.5144 71.278 39.77V39.8211C71.278 40.0256 71.278 40.1789 71.278 40.3834C71.278 40.5367 71.278 40.7412 71.2268 40.8946C71.2268 40.9968 71.2268 41.099 71.2268 41.2013C71.2268 41.3546 71.1757 41.5591 71.1757 41.7125C71.1757 41.7636 71.1757 41.8658 71.1757 41.9169C71.1246 42.1725 71.1246 42.4281 71.0735 42.6837C71.0735 42.8371 71.0224 43.0415 71.0224 43.246C71.0224 43.3482 70.9712 43.5016 70.9712 43.6038V43.655C70.9712 43.7061 70.9712 43.7572 70.9712 43.7572C70.9712 43.8083 70.9713 43.8594 70.9201 43.9105C70.9201 44.0128 70.869 44.115 70.869 44.2173C70.869 44.3195 70.8179 44.4217 70.8179 44.5751C70.8179 44.6262 70.8179 44.6773 70.8179 44.7284C70.8179 44.7796 70.7668 44.8818 70.7668 44.9329C70.7668 44.984 70.7668 45.0351 70.7668 45.0351C70.7668 45.0863 70.7157 45.1374 70.7157 45.1885C70.6645 45.393 70.6134 45.5975 70.5623 45.8019C70.4601 46.2109 70.3578 46.6198 70.2556 47.0288C70.1534 47.4377 70.0511 47.8467 69.8978 48.2556C69.8466 48.4601 69.7955 48.6645 69.6933 48.869C69.6422 49.0735 69.5399 49.278 69.4888 49.4824C69.4888 49.5336 69.4888 49.5847 69.4377 49.5847C69.3355 49.9425 69.1821 50.2492 69.0799 50.607C68.8243 51.2716 68.5687 51.885 68.262 52.5495C68.1597 52.754 68.0575 52.9585 67.9553 53.1629C67.8019 53.4697 67.6997 53.7252 67.5463 54.032C67.4441 54.1853 67.393 54.3898 67.2907 54.5431C67.0351 55.0543 66.7796 55.5655 66.4728 56.0767C66.3706 56.23 66.2684 56.4345 66.1661 56.5879C66.0639 56.7923 65.9105 56.9968 65.8083 57.2013C65.5016 57.7125 65.1438 58.2237 64.7859 58.786C64.6326 58.9904 64.5304 59.1949 64.377 59.3994C64.2236 59.6038 64.0703 59.8083 63.9169 60.0128C63.6102 60.4217 63.3035 60.8307 62.9968 61.2396C62.5367 61.853 62.0256 62.4665 61.4633 63.0288C61.3099 63.2332 61.1054 63.4377 60.9521 63.6422C60.6965 63.9489 60.3898 64.2556 60.0831 64.5623C59.9297 64.7157 59.7764 64.869 59.623 65.0224C59.0096 65.6358 58.3451 66.3003 57.6294 66.9137C57.4249 67.1182 57.2205 67.2716 57.016 67.4761C56.8115 67.6294 56.607 67.8339 56.4026 67.9872C56.147 68.1917 55.9425 68.3962 55.6869 68.6006C55.4313 68.8051 55.1757 69.0096 54.9201 69.2141C54.7157 69.3674 54.5112 69.5208 54.3578 69.6741C53.5399 70.2876 52.722 70.8499 51.853 71.4633C51.6486 71.6166 51.4441 71.77 51.1885 71.8722C50.984 72.0256 50.7796 72.1278 50.5751 72.2812C50.3706 72.4345 50.1661 72.5368 49.9617 72.6901C49.5527 72.9457 49.0927 73.2013 48.6326 73.4569C47.9169 73.8658 47.2013 74.2748 46.4856 74.6326C46.1278 74.8371 45.77 74.9904 45.4121 75.1949C45.3099 75.246 45.2588 75.2971 45.1566 75.2971C44.7987 75.5016 44.3898 75.655 44.032 75.8594C43.3674 76.1661 42.6518 76.524 41.9361 76.8307C41.476 77.0352 41.016 77.2396 40.5559 77.393C40.2492 77.4952 39.9936 77.6486 39.6869 77.7508C39.3802 77.6486 39.1246 77.5463 38.8179 77.393C38.1534 77.1374 37.4888 76.8307 36.8243 76.5751C34.7796 75.655 32.8371 74.6837 31.0479 73.6614C17.9617 66.2492 11.3163 55.77 9.01597 46.5176C8.91374 46.0575 8.76038 45.5463 8.70927 45.0863C8.2492 42.9393 8.04473 40.8946 8.04473 39.0032V24.6901V2.04473H71.278V33.1757Z" fill="#004998"/>
<path d="M70.6641 45.0862L69.1816 46.5176V45.0862H70.6641Z" fill="white"/>
<path fill-rule="evenodd" clip-rule="evenodd" d="M68.4157 46.5176C65.962 56.1278 58.9588 64.2045 50.3198 69.8786C48.1729 69.3674 41.323 67.5272 42.4987 65.1757C43.5722 62.9265 49.1952 61.2396 48.3262 58.6837C47.3039 55.9233 39.6872 54.901 41.2719 53.4697C42.3454 52.4984 46.6393 51.016 46.486 49.3291C46.3837 47.7444 40.5051 46.8754 37.9492 46.5687H68.4157V46.5176Z" fill="#759D22"/>
<path fill-rule="evenodd" clip-rule="evenodd" d="M38.9705 49.738C35.6989 51.0671 29.3603 53.1629 34.1143 56.2812C38.3571 59.0927 39.0727 59.0927 33.8076 61.8019C29.0024 64.2556 28.3379 67.1182 29.258 70.032C20.4657 64.3578 13.3603 56.23 10.8555 46.5176H31.9162C34.012 46.8754 42.3443 48.409 38.9705 49.738Z" fill="#759D22"/>
<path fill-rule="evenodd" clip-rule="evenodd" d="M48.4278 71.0543C45.6163 72.7412 42.6515 74.1725 39.6355 75.3482C37.4374 74.4792 35.2393 73.508 33.1435 72.3834C30.1786 69.5208 29.6163 66.3514 34.5748 63.2332C38.4087 60.8307 42.0892 59.3482 37.5908 56.8434C32.0189 53.7763 34.5237 52.754 41.4758 49.8914C44.2361 48.7668 38.3576 47.3866 38.3576 47.3866C38.3576 47.3866 36.0572 46.8754 39.3288 47.4377C42.7537 48.0511 45.2074 48.46 45.0029 49.4313C44.7984 50.4537 43.5716 50.8115 40.2489 52.6006C36.9262 54.3898 40.3512 55.3099 44.9518 57.5591C50.1147 60.115 40.709 61.853 40.0956 65.6869C39.6355 68.6517 45.7697 70.4409 48.4278 71.0543Z" fill="#004998"/>
</g>
<defs>
<clipPath id="clip0_2491:55359">
<rect width="80" height="80" fill="white"/>
</clipPath>
</defs>
</svg>
