<svg width="80" height="80" viewBox="0 0 80 80" fill="none" xmlns="http://www.w3.org/2000/svg">
<path d="M13.0059 49.868C13.0059 33.3353 13.0059 16.8026 13 0.269874C13 0.0469346 13.0469 0 13.2699 0C31.1109 0.00586682 48.9519 0.00586682 66.7929 0.00586682C66.7929 16.6735 66.7929 33.3412 66.7929 50.0088C66.7929 50.3784 66.787 50.748 66.7636 51.1176C66.6228 53.0009 66.1886 54.8196 65.555 56.5914C65.0094 58.0991 64.2702 59.5072 63.3901 60.8448C62.2579 62.5755 60.9613 64.1713 59.477 65.6204C58.6556 66.4242 57.8225 67.2162 56.9308 67.9495C54.7659 69.7272 52.5189 71.3816 50.1135 72.8249C49.0047 73.4878 47.9193 74.1918 46.7988 74.8431C45.731 75.4591 44.6808 76.1162 43.6248 76.7498C42.3752 77.5007 41.2018 78.3221 40.3687 79.5658C39.9757 80.1525 39.9463 80.1291 39.4946 79.5835C38.8962 78.8618 38.2977 78.1637 37.494 77.6415C35.8806 76.5914 34.2086 75.6351 32.56 74.6436C30.5066 73.4116 28.4708 72.1619 26.4996 70.8067C24.1118 69.1698 21.9 67.3101 19.8407 65.2743C18.6791 64.1244 17.7169 62.7985 16.743 61.4902C16.3206 60.9211 15.9921 60.2875 15.6342 59.6715C14.9713 58.5216 14.4374 57.3189 14.0091 56.0692C13.4635 54.4559 13.176 52.7897 13.0469 51.0942C13.0469 50.6835 13.1056 50.2728 13.0059 49.868ZM43.3549 19.8592C43.9358 19.5776 44.4931 19.2608 44.8745 18.7093C45.027 18.4864 45.1737 18.4981 45.3379 18.7093C45.9011 19.4192 46.6286 19.912 47.4031 20.3696C47.8372 20.6278 48.2479 20.9328 48.6879 21.1851C49.4095 21.5958 49.9903 22.1355 50.3717 22.8865C50.4831 23.1035 50.6298 23.303 50.7823 23.4908C51.9733 24.9692 53.088 26.5122 54.367 27.9202C54.5782 28.149 54.7542 28.413 54.983 28.6242C55.9217 29.4925 56.8076 30.4136 57.7815 31.2467C58.0572 31.4814 58.3153 31.7278 58.638 31.9038C60.3863 32.8425 62.2755 33.482 64.0355 34.4441C64.0355 34.3678 64.0355 34.2857 64.0355 34.1977C64.0355 23.8369 64.0355 13.4761 64.0414 3.10942C64.0414 2.83954 63.9592 2.79261 63.7128 2.79261C47.8372 2.79847 31.9616 2.79847 16.0918 2.79261C15.8161 2.79261 15.7574 2.86888 15.7574 3.13288C15.7633 10.4547 15.7633 17.7765 15.7633 25.0983C15.7633 25.1921 15.7339 25.286 15.7926 25.3857C16.1329 25.2097 16.4556 25.0103 16.8017 24.8577C18.0161 24.318 19.2306 23.79 20.3981 23.1564C21.4424 22.5873 22.4691 21.9771 23.4664 21.3376C24.3464 20.7744 25.1913 20.1232 25.907 19.3429C26.0009 19.2373 26.1006 19.1786 26.2532 19.1786C26.8164 19.1728 27.3561 19.2842 27.9193 19.4779C27.8665 19.3136 27.8313 19.1845 27.7844 19.0554C27.2974 17.7237 27.1566 16.3391 27.2857 14.9369C27.4676 12.9715 28.1951 11.2174 29.4858 9.71546C30.313 8.75917 31.281 7.97301 32.4427 7.45673C33.6923 6.90525 35.0065 6.67058 36.3793 6.79965C37.3238 6.88765 38.2273 7.11646 39.0722 7.52713C40.4157 8.17835 41.501 9.14051 42.3752 10.3491C43.5368 11.9507 44.0766 13.7518 44.1235 15.7114C44.1587 17.137 43.8654 18.4981 43.308 19.8123C43.3021 19.8299 43.2963 19.8533 43.2845 19.8709C43.3139 19.8709 43.3373 19.8651 43.3549 19.8592ZM21.6066 47.6738C21.5832 47.6797 21.5538 47.6855 21.5304 47.6973C21.589 48.2898 21.6242 48.8824 21.7122 49.4749C21.9821 51.3171 22.4515 53.1065 23.2083 54.8196C23.924 56.4388 24.7571 57.9759 25.8483 59.3781C26.8457 60.6571 27.9487 61.8246 29.2276 62.8278C30.665 63.9542 32.2314 64.8636 33.9387 65.5441C34.9478 65.9431 35.9745 66.2364 37.0364 66.4535C38.5852 66.7644 40.1458 66.8466 41.7181 66.7292C44.3758 66.5239 46.8692 65.7377 49.169 64.3942C51.9088 62.7926 54.1499 60.6453 55.8571 57.9642C56.8721 56.3743 57.6407 54.6671 58.198 52.8601C58.814 50.883 59.1426 48.8706 59.1954 46.8055C59.213 46.1602 59.1778 45.5207 59.1426 44.8753C59.078 43.6844 58.902 42.5169 58.6322 41.3611C58.597 41.2203 58.55 41.2144 58.4327 41.2907C58.0865 41.5254 57.7404 41.7542 57.3708 41.9595C56.1094 42.6635 54.9654 43.5377 53.8272 44.4177C52.5072 45.4385 51.2048 46.4887 49.9023 47.533C49.3626 47.9613 48.905 48.501 48.2889 48.8237C47.098 49.4515 45.9187 50.1085 44.804 50.8654C44.6632 50.9651 44.499 51.0648 44.3347 51.0942C44.0296 51.147 43.707 51.2291 43.4488 50.924C42.9091 50.2904 42.2344 49.8035 41.6301 49.2402C41.46 49.0818 41.3016 49.0584 41.1197 49.1992C41.0551 49.2461 40.9906 49.2872 40.9261 49.3282C39.9111 49.9736 38.9548 50.7128 37.8695 51.3112C37.7521 50.9064 37.5644 50.5603 37.271 50.2845C37.1126 50.1379 36.9836 49.9677 36.8662 49.7917C36.1622 48.7416 35.2881 47.8205 34.3435 47.005C32.6773 45.5735 30.9466 44.2182 28.9871 43.1916C27.8959 42.6225 26.8926 41.8598 25.6371 41.6544C25.6195 41.6486 25.6019 41.6368 25.5843 41.631C24.0296 41.0326 22.4867 40.3989 20.8909 39.9061C19.1954 39.384 17.5761 38.6272 15.7574 38.4512C15.7574 39.0906 15.7633 39.7243 15.7515 40.3579C15.7515 40.4987 15.8102 40.5221 15.9275 40.5104C16.2444 40.4869 16.5553 40.5163 16.8545 40.616C17.7873 40.9211 18.7788 40.9974 19.7175 41.2966C20.8439 41.6544 22.0173 41.8774 23.1085 42.3585C23.9006 42.7046 24.7043 43.0214 25.4905 43.3734C26.0654 43.6316 26.6932 43.7958 27.227 44.1126C28.594 44.9223 29.961 45.7378 31.2341 46.7116C32.0613 47.3453 32.8944 47.9437 33.6101 48.7181C34.5782 49.7624 35.4993 50.8419 36.3324 51.9918C36.391 52.0739 36.4086 52.1619 36.4321 52.2558C36.5788 52.8131 36.4145 53.2473 36.0566 53.699C35.4993 54.4089 34.7776 54.8079 33.9446 55.0719C33.839 55.1012 33.7744 55.0484 33.6982 55.0132C33.2229 54.7668 32.7947 54.45 32.3018 54.2388C32.0672 54.139 31.8442 54.0217 31.6213 53.9044C31.0815 53.6228 30.5594 53.2884 29.9962 53.0537C29.1162 52.6899 28.3593 52.1913 27.8489 51.3699C27.5321 50.8536 27.139 50.396 26.787 49.9032C26.5817 49.6216 26.3529 49.5981 26.0595 49.6568C25.6958 49.7331 25.3379 49.8152 24.9742 49.8739C24.5048 49.9443 24.0883 49.9208 23.6952 49.5336C23.044 48.8765 22.3106 48.2898 21.6066 47.6738ZM15.7809 42.8219C15.7691 42.8923 15.7633 42.9158 15.7633 42.9451C15.7867 45.3095 15.7457 47.6738 15.7867 50.0381C15.8161 51.6339 16.0742 53.1828 16.4849 54.7081C16.9132 56.3039 17.6935 57.7471 18.5207 59.161C19.5474 60.927 20.9613 62.3937 22.3517 63.8604C22.9795 64.5233 23.6952 65.0983 24.3875 65.7026C26.1476 67.2279 28.0425 68.5597 29.9903 69.8211C31.6565 70.9006 33.3579 71.939 35.0886 72.9129C35.599 73.2004 36.0918 73.5172 36.5846 73.834C37.6524 74.5145 38.7906 75.0895 39.782 75.8874C39.8994 75.9812 39.9639 75.9284 40.0519 75.858C40.3101 75.6527 40.5623 75.4356 40.8322 75.2479C42.2226 74.3092 43.6776 73.4702 45.1267 72.6254C47.098 71.4755 49.0164 70.2376 50.9173 68.9821C53.3461 67.3805 55.6166 65.5735 57.6583 63.4908C58.7202 62.4113 59.7116 61.279 60.5858 60.0352C61.812 58.2869 62.7448 56.3978 63.3549 54.362C63.8302 52.7662 64.0296 51.1235 64.0238 49.4573C64.0179 46.2306 64.0238 43.0038 64.0238 39.7829C64.0238 39.2725 63.8947 39.2021 63.4371 39.4544C63.4136 39.4661 63.3843 39.4837 63.3608 39.5013C63.0147 39.7419 62.6275 39.8475 62.2109 39.8944C62.0173 39.912 61.8296 39.9589 61.636 40C61.1314 40.1115 60.6738 40.3813 60.1399 40.3813C59.7821 40.3813 59.4887 40.5339 59.2071 40.7451C59.0487 40.8624 59.0018 40.9563 59.0546 41.1558C59.4418 42.6225 59.5943 44.1244 59.653 45.638C59.694 46.7116 59.6354 47.7794 59.5122 48.853C59.2716 50.9827 58.7202 53.0243 57.9105 54.9956C57.0188 57.1722 55.7867 59.1434 54.1968 60.88C52.384 62.8571 50.313 64.4764 47.8372 65.5676C46.4937 66.1602 45.1326 66.6588 43.6776 66.917C41.7122 67.269 39.7468 67.3159 37.7697 67.0519C35.8982 66.7996 34.1264 66.2306 32.4309 65.4033C30.8645 64.6348 29.433 63.6726 28.1129 62.5227C26.7049 61.2966 25.5374 59.8592 24.4931 58.328C23.6483 57.0901 23.0499 55.7172 22.4867 54.3385C21.636 52.2617 21.2312 50.0851 21.0786 47.8498C21.061 47.621 21.1373 47.3394 20.973 47.1751C20.4626 46.6647 19.9405 46.1602 19.3831 45.7084C18.2039 44.7521 16.9308 43.8956 15.7809 42.8219ZM28.2655 18.9498C28.8815 17.9583 29.5268 17.0079 30.3247 16.1748C30.3658 16.1338 30.4069 16.0868 30.4597 16.0634C30.9407 15.8111 31.4277 15.5705 31.9029 15.3065C32.6245 14.9076 33.4283 14.7316 34.1851 14.4148C34.4491 14.3033 34.7483 14.227 35.0417 14.3502C35.5873 14.5849 36.0331 14.9428 36.3617 15.4415C36.5318 15.6996 36.7489 15.9343 36.743 16.2687C36.7372 16.5562 36.79 16.8319 36.8721 17.1077C36.9132 17.2426 36.9014 17.3775 36.8604 17.5125C36.7782 17.7941 36.7078 18.0757 36.6081 18.3514C36.2796 19.2842 35.9217 20.2053 35.5521 21.1264C35.1238 22.1883 34.6134 23.1916 33.9915 24.1478C32.9589 25.7436 31.6154 27.0695 30.1898 28.3074C29.521 28.8882 28.8463 29.4632 28.1423 29.9971C27.4148 30.5485 26.5817 30.924 25.7486 31.3054C24.0824 32.0681 22.3165 32.4787 20.5799 33.0067C19.9581 33.1945 19.3068 33.171 18.6791 33.2766C17.9751 33.3998 17.2417 33.3881 16.5553 33.6228C16.3676 33.6873 16.1916 33.7694 15.9921 33.7342C15.8043 33.7049 15.7515 33.7753 15.7515 33.9689C15.7633 35.1599 15.7691 36.3567 15.7457 37.5477C15.7398 37.841 15.8102 37.9055 16.1035 37.9055C31.9616 37.8997 47.8137 37.8997 63.6718 37.8997C63.7304 37.8997 63.7891 37.8938 63.8478 37.8997C63.9886 37.9173 64.0296 37.8645 64.0296 37.7237C64.0238 37.2954 64.0062 36.8612 64.0355 36.433C64.059 36.1338 63.9651 36.0751 63.6718 36.0751C47.9311 36.081 32.1845 36.081 16.438 36.081C16.3265 36.081 16.215 36.081 16.0449 36.081C16.2502 35.8463 16.4145 35.6644 16.5788 35.4708C16.6316 35.4063 16.6961 35.4063 16.7606 35.4063C17.0657 35.418 17.359 35.3241 17.6583 35.3183C18.55 35.3065 19.4242 35.2127 20.2866 34.9839C21.4717 34.6671 22.6157 34.2446 23.7656 33.8222C25.0094 33.3646 26.218 32.8425 27.4148 32.2793C28.2831 31.8745 29.0692 31.3347 29.9023 30.8712C30.5066 30.5309 31.0757 30.132 31.5861 29.6685C31.944 29.34 32.2373 28.9469 32.6011 28.6242C33.3168 27.973 33.9387 27.2397 34.496 26.4535C34.8539 25.9548 35.2822 25.5089 35.6049 24.9927C36.0273 24.318 36.391 23.6022 36.743 22.8923C37.3415 21.672 37.9164 20.4341 38.286 19.12C38.3153 19.0202 38.3095 18.8618 38.4209 18.856C38.5676 18.8501 38.7202 18.897 38.814 19.0496C38.9196 19.2314 39.0194 19.4251 39.1954 19.5541C39.8055 19.9941 40.4039 20.44 40.9613 20.9446C41.0551 21.0267 41.1314 21.0443 41.2488 20.9856C41.6418 20.7744 42.0408 20.5691 42.4456 20.3755C42.5395 20.3285 42.5688 20.2581 42.6099 20.1819C43.3373 18.8032 43.6776 17.3306 43.66 15.77C43.6542 14.9193 43.5368 14.0804 43.2904 13.2708C42.6685 11.2115 41.4893 9.55705 39.6588 8.40129C38.1628 7.4626 36.5201 7.08126 34.7718 7.31006C32.3136 7.6386 30.4362 8.94691 29.122 11.0003C27.9311 12.8601 27.5204 14.9311 27.8079 17.1253C27.8841 17.7413 28.0015 18.3632 28.2655 18.9498ZM40.2103 44.8929C40.3394 45.1745 40.3277 45.5031 40.3453 45.8316C40.357 46.078 40.3981 46.3479 40.5037 46.565C40.8263 47.2221 41.1549 47.8791 41.5538 48.501C41.5832 48.548 41.6125 48.6418 41.6594 48.6125C41.8061 48.5186 41.9528 48.413 42.0584 48.2781C42.1229 48.196 41.9997 48.1138 41.9469 48.0434C41.2605 47.1517 40.7325 46.2012 40.8029 45.022C40.8087 44.9281 40.7735 44.846 40.7207 44.7756C40.6034 44.6172 40.4333 44.7169 40.2866 44.6993C40.1869 44.6993 40.2338 44.8049 40.2103 44.8929ZM42.8152 20.5749C42.516 21.0032 42.3048 21.4491 42.0525 21.8715C41.5714 22.6694 41.4541 23.5318 41.3954 24.4236C41.3778 24.6583 41.5421 24.5703 41.6477 24.582C41.765 24.5937 41.8589 24.6113 41.8706 24.4177C41.9234 23.4497 42.1112 22.5169 42.6861 21.7014C42.7741 21.5723 42.8504 21.4374 42.9325 21.3083C43.1789 20.9152 43.1789 20.9152 42.8152 20.5749Z" fill="#000101"/>
<path d="M13.0469 51.0941C13.0352 51.1117 13.0176 51.1352 13.0059 51.1528C13.0059 50.7245 13.0059 50.2904 13.0059 49.8621C13.1056 50.2728 13.0469 50.6835 13.0469 51.0941Z" fill="#0080BF"/>
<path d="M43.3138 19.8181C43.8711 18.5098 44.1586 17.1428 44.1293 15.7172C44.0823 13.7577 43.5426 11.9566 42.381 10.3549C41.5068 9.14637 40.4214 8.18421 39.0779 7.53299C38.2331 7.12231 37.3296 6.89351 36.3851 6.8055C35.0122 6.67643 33.6981 6.91111 32.4484 7.46259C31.2868 7.97887 30.3188 8.76502 29.4916 9.72131C28.195 11.2232 27.4734 12.9774 27.2915 14.9428C27.1624 16.345 27.3032 17.7295 27.7902 19.0613C27.8371 19.1845 27.8723 19.3136 27.9251 19.4837C27.3619 19.2901 26.8221 19.1786 26.2589 19.1845C26.1005 19.1845 26.0067 19.2432 25.9128 19.3488C25.197 20.1349 24.3522 20.7803 23.4722 21.3435C22.4748 21.983 21.4481 22.5931 20.4038 23.1622C19.2363 23.7958 18.0219 24.3238 16.8075 24.8636C16.4613 25.0161 16.1387 25.2097 15.7984 25.3916C15.7397 25.2919 15.7691 25.198 15.7691 25.1041C15.7691 17.7823 15.7691 10.4605 15.7632 3.13874C15.7632 2.87473 15.8219 2.79846 16.0976 2.79846C31.9732 2.80433 47.8488 2.80433 63.7186 2.79846C63.965 2.79846 64.0471 2.8454 64.0471 3.11527C64.0413 13.4761 64.0413 23.8369 64.0413 34.2036C64.0413 34.2857 64.0413 34.3737 64.0413 34.45C62.2812 33.4937 60.3921 32.8542 58.6438 31.9096C58.3211 31.7395 58.0571 31.4872 57.7872 31.2526C56.8134 30.4253 55.9275 29.4984 54.9888 28.6301C54.76 28.4189 54.584 28.1607 54.3727 27.9261C53.0938 26.5122 51.9791 24.9751 50.7881 23.4966C50.6356 23.3089 50.4889 23.1094 50.3774 22.8923C49.9961 22.1414 49.4153 21.6016 48.6937 21.191C48.2537 20.9387 47.843 20.6336 47.4088 20.3755C46.6403 19.9237 45.9069 19.425 45.3437 18.7152C45.1736 18.5039 45.0328 18.4922 44.8802 18.7152C44.4989 19.2666 43.9415 19.5834 43.3607 19.8651C43.3431 19.8475 43.3255 19.8298 43.3138 19.8181Z" fill="#0080BF"/>
<path d="M21.607 47.6738C22.311 48.2898 23.0444 48.8706 23.7073 49.5277C24.1004 49.9149 24.517 49.9384 24.9863 49.868C25.3501 49.8152 25.7138 49.7272 26.0717 49.6509C26.365 49.5923 26.5938 49.6099 26.7992 49.8973C27.1512 50.3843 27.5443 50.8478 27.8611 51.364C28.3715 52.1913 29.1224 52.6841 30.0083 53.0478C30.5715 53.2825 31.0937 53.611 31.6334 53.8985C31.8564 54.0159 32.0793 54.1332 32.314 54.2329C32.8068 54.4441 33.2409 54.7609 33.7103 55.0073C33.7807 55.0425 33.8511 55.1012 33.9567 55.066C34.7898 54.8079 35.5055 54.4031 36.0687 53.6932C36.4266 53.2414 36.5909 52.8014 36.4442 52.2499C36.4208 52.1561 36.4032 52.0681 36.3445 51.9859C35.5114 50.8302 34.5903 49.7565 33.6223 48.7122C32.9124 47.9437 32.0734 47.3394 31.2462 46.7058C29.9731 45.7319 28.6061 44.9164 27.2392 44.1068C26.7053 43.79 26.0775 43.6198 25.5026 43.3676C24.7164 43.0155 23.9068 42.6987 23.1207 42.3526C22.0294 41.8715 20.8561 41.6486 19.7296 41.2907C18.791 40.9915 17.7995 40.9211 16.8666 40.6101C16.5674 40.5104 16.2565 40.4811 15.9397 40.5045C15.8223 40.5104 15.7637 40.4928 15.7637 40.352C15.7695 39.7184 15.7695 39.0848 15.7695 38.4453C17.5824 38.6154 19.2075 39.3722 20.903 39.9003C22.4988 40.3931 24.0418 41.0267 25.5965 41.6251C25.6141 41.631 25.6317 41.6486 25.6493 41.6486C26.9048 41.8539 27.9139 42.6166 28.9992 43.1857C30.9587 44.2124 32.6895 45.5676 34.3556 46.9991C35.3002 47.8087 36.1743 48.7298 36.8784 49.7859C36.9957 49.9619 37.1248 50.132 37.2832 50.2787C37.5824 50.5544 37.7701 50.9064 37.8816 51.3054C38.967 50.707 39.9174 49.9677 40.9382 49.3224C41.0027 49.2813 41.0731 49.2403 41.1318 49.1933C41.3137 49.0525 41.4721 49.076 41.6422 49.2344C42.2465 49.7976 42.9212 50.2845 43.4609 50.9182C43.7191 51.2174 44.0418 51.1411 44.3468 51.0883C44.5111 51.059 44.6695 50.9592 44.8162 50.8595C45.9309 50.1027 47.1101 49.4456 48.3011 48.8178C48.9171 48.4952 49.3747 47.9554 49.9145 47.5271C51.2169 46.4828 52.5193 45.4327 53.8394 44.4118C54.9775 43.5318 56.1215 42.6577 57.3829 41.9536C57.7467 41.7483 58.0987 41.5254 58.4448 41.2848C58.5563 41.2086 58.6091 41.2144 58.6443 41.3552C58.9142 42.511 59.0902 43.6844 59.1547 44.8695C59.1899 45.5148 59.2251 46.1543 59.2075 46.7997C59.1488 48.8648 58.8203 50.8771 58.2101 52.8542C57.6469 54.6612 56.8842 56.3685 55.8693 57.9584C54.1562 60.6395 51.915 62.7868 49.1811 64.3884C46.8872 65.7319 44.3938 66.5181 41.7302 66.7234C40.1579 66.8407 38.5973 66.7645 37.0485 66.4477C35.9925 66.2306 34.9599 65.9373 33.9508 65.5383C32.2494 64.8578 30.683 63.9484 29.2398 62.822C27.9667 61.8246 26.8578 60.6512 25.8605 59.3723C24.7692 57.9701 23.9303 56.433 23.2204 54.8137C22.4636 53.1006 21.9942 51.3171 21.7244 49.4691C21.6364 48.8824 21.6012 48.284 21.5425 47.6914C21.5542 47.6914 21.5836 47.6797 21.607 47.6738Z" fill="#FEFEFE"/>
<path d="M15.7798 42.8219C16.9297 43.8956 18.2028 44.7521 19.3938 45.7084C19.957 46.1602 20.4733 46.6647 20.9837 47.1751C21.148 47.3394 21.0776 47.621 21.0893 47.8498C21.2477 50.0792 21.6467 52.2616 22.4974 54.3385C23.0664 55.7172 23.659 57.09 24.5038 58.3279C25.554 59.8592 26.7156 61.2907 28.1236 62.5227C29.4437 63.6726 30.8752 64.6406 32.4416 65.4033C34.1313 66.2305 35.9089 66.7996 37.7804 67.0519C39.7575 67.3218 41.7229 67.2748 43.6883 66.9169C45.1374 66.6588 46.5044 66.1601 47.8479 65.5676C50.3237 64.4764 52.3947 62.8571 54.2075 60.88C55.7974 59.1434 57.0295 57.178 57.9212 54.9956C58.7309 53.0185 59.2823 50.9768 59.5229 48.853C59.6461 47.7853 59.6989 46.7116 59.6637 45.638C59.6109 44.1244 59.4525 42.6225 59.0653 41.1558C59.0125 40.9622 59.0653 40.8624 59.2178 40.7451C59.4994 40.5339 59.7928 40.3813 60.1506 40.3813C60.6786 40.3813 61.1421 40.1115 61.6467 40C61.8344 39.9589 62.028 39.912 62.2216 39.8944C62.6382 39.8533 63.0254 39.7419 63.3715 39.5013C63.395 39.4837 63.4184 39.4661 63.4478 39.4544C63.9054 39.2021 64.0345 39.2725 64.0345 39.7829C64.0345 43.0097 64.0286 46.2364 64.0345 49.4573C64.0345 51.1235 63.8409 52.7662 63.3656 54.362C62.7555 56.4036 61.8227 58.2927 60.5965 60.0352C59.7223 61.2789 58.7309 62.4054 57.669 63.4907C55.6273 65.5734 53.3568 67.3804 50.928 68.9821C49.0271 70.2376 47.1087 71.4755 45.1374 72.6254C43.6883 73.4702 42.2333 74.3091 40.8429 75.2478C40.5672 75.4297 40.3208 75.6468 40.0626 75.858C39.9746 75.9284 39.9101 75.9812 39.7927 75.8873C38.8013 75.0894 37.6631 74.5145 36.5953 73.8339C36.1025 73.5171 35.6097 73.2003 35.0993 72.9128C33.3627 71.9389 31.6672 70.9064 30.001 69.821C28.0532 68.5597 26.1583 67.222 24.3982 65.7025C23.7059 65.1041 22.9902 64.5292 22.3624 63.8603C20.9661 62.3878 19.5581 60.9269 18.5314 59.161C17.7042 57.7413 16.9297 56.298 16.4956 54.7081C16.0849 53.1827 15.8268 51.6339 15.7974 50.0381C15.7564 47.6738 15.7916 45.3095 15.774 42.9451C15.7622 42.9158 15.7681 42.8923 15.7798 42.8219Z" fill="#0080BF"/>
<path d="M28.2662 18.9498C28.0022 18.3573 27.8849 17.7413 27.8027 17.1135C27.5153 14.9193 27.9259 12.8483 29.1169 10.9886C30.4311 8.93518 32.3085 7.62687 34.7667 7.29833C36.515 7.06953 38.1577 7.45087 39.6537 8.38956C41.49 9.54532 42.6634 11.1998 43.2853 13.259C43.5317 14.0745 43.6432 14.9076 43.6549 15.7583C43.6725 17.3189 43.3264 18.7914 42.6047 20.1701C42.5637 20.2464 42.5343 20.3168 42.4405 20.3637C42.0357 20.5632 41.6426 20.7686 41.2436 20.9739C41.1322 21.0326 41.05 21.015 40.9562 20.9328C40.3988 20.4341 39.8004 19.9824 39.1902 19.5424C39.0084 19.4133 38.9145 19.2197 38.8089 19.0378C38.715 18.8794 38.5625 18.8325 38.4158 18.8442C38.3044 18.8501 38.3102 19.0085 38.2809 19.1082C37.9171 20.4283 37.3422 21.6603 36.7379 22.8806C36.3859 23.5964 36.0222 24.3121 35.5997 24.9809C35.2771 25.4972 34.8429 25.9431 34.4909 26.4418C33.9336 27.2279 33.3117 27.9613 32.5959 28.6125C32.2381 28.941 31.9447 29.3341 31.581 29.6568C31.0706 30.1203 30.5015 30.5192 29.8972 30.8595C29.07 31.3288 28.278 31.8627 27.4097 32.2675C26.2128 32.8307 25.0043 33.3529 23.7605 33.8105C22.6106 34.2329 21.4666 34.6612 20.2815 34.9721C19.419 35.2009 18.5449 35.2948 17.6531 35.3065C17.3539 35.3124 17.0547 35.4004 16.7555 35.3946C16.6851 35.3946 16.6264 35.3946 16.5736 35.4591C16.4152 35.6527 16.2451 35.8346 16.0398 36.0692C16.204 36.0692 16.3155 36.0692 16.4328 36.0692C32.1794 36.0692 47.9318 36.0692 63.6784 36.0634C63.9658 36.0634 64.0597 36.122 64.0421 36.4212C64.0128 36.8495 64.0304 37.2837 64.0362 37.7119C64.0362 37.8527 64.001 37.9114 63.8544 37.8879C63.7957 37.8821 63.737 37.8879 63.6784 37.8879C47.8203 37.8879 31.9682 37.888 16.1102 37.8938C15.8168 37.8938 15.7464 37.8293 15.7523 37.5359C15.7699 36.345 15.764 35.1481 15.7582 33.9572C15.7582 33.7636 15.8051 33.6932 15.9987 33.7225C16.1982 33.7577 16.38 33.6697 16.5619 33.611C17.2483 33.3764 17.9758 33.3881 18.6857 33.2649C19.3134 33.1534 19.9647 33.1828 20.5865 32.995C22.3231 32.467 24.089 32.0563 25.7552 31.2936C26.5883 30.9123 27.4214 30.5427 28.1489 29.9853C28.8529 29.4515 29.5276 28.8765 30.1964 28.2957C31.622 27.0578 32.9597 25.7319 33.9981 24.1361C34.6141 23.1798 35.1245 22.1766 35.5587 21.1147C35.9283 20.1936 36.292 19.2784 36.6147 18.3397C36.7086 18.064 36.779 17.7823 36.867 17.5007C36.908 17.3658 36.9139 17.2309 36.8787 17.0959C36.7966 16.8202 36.7496 16.5444 36.7496 16.257C36.7555 15.9226 36.5384 15.6879 36.3683 15.4297C36.0398 14.9311 35.5939 14.5732 35.0483 14.3385C34.7549 14.2153 34.4557 14.2916 34.1917 14.4031C33.4408 14.7199 32.6311 14.8959 31.9095 15.2948C31.4343 15.5588 30.9474 15.7994 30.4663 16.0516C30.4135 16.081 30.3724 16.122 30.3313 16.1631C29.5276 17.0079 28.8822 17.9584 28.2662 18.9498Z" fill="#FEFEFE"/>
<path d="M40.209 44.8929C40.2325 44.8049 40.1797 44.6993 40.2911 44.7052C40.4378 44.7169 40.6079 44.6172 40.7253 44.7815C40.7722 44.8519 40.8133 44.934 40.8074 45.0279C40.737 46.2071 41.265 47.1575 41.9514 48.0493C42.0042 48.1197 42.1274 48.2018 42.0629 48.284C41.9573 48.4189 41.8106 48.5245 41.6639 48.6184C41.617 48.6477 41.5877 48.5538 41.5583 48.5069C41.1594 47.885 40.8309 47.2279 40.5082 46.5708C40.4026 46.3538 40.3615 46.0839 40.3498 45.8375C40.3263 45.5089 40.3381 45.1745 40.209 44.8929Z" fill="#FEFEFE"/>
<path d="M42.8156 20.575C43.1793 20.9153 43.1793 20.9153 42.9388 21.3083C42.8567 21.4433 42.7804 21.5782 42.6924 21.7014C42.1116 22.5169 41.9297 23.4497 41.8769 24.4177C41.8652 24.6113 41.7654 24.5879 41.654 24.582C41.5484 24.5703 41.3841 24.6583 41.4017 24.4236C41.4604 23.5318 41.5777 22.6694 42.0588 21.8715C42.3052 21.4491 42.5164 21.0033 42.8156 20.575Z" fill="#FEFEFE"/>
<path d="M43.3536 19.8592C43.3301 19.8651 43.3125 19.8709 43.2891 19.8709C43.2949 19.8533 43.3008 19.8299 43.3125 19.8123C43.3243 19.8299 43.3419 19.8475 43.3536 19.8592Z" fill="#0080BF"/>
</svg>
