<svg width="80" height="80" viewBox="0 0 80 80" fill="none" xmlns="http://www.w3.org/2000/svg">
<path d="M40.1955 80C39.7633 80 39.3312 79.919 38.818 79.7029C34.4966 78.0284 30.3103 75.7866 26.421 73.0587C22.4777 70.2768 19.5878 67.603 17.3731 64.605C12.3494 57.9068 9.62154 49.5611 9.05435 39.1627C9.05435 38.9467 9.02734 34.1931 9.05435 33.788C9.05435 30.763 9.05435 27.765 9.05435 24.767V24.578C9.05435 16.8535 9.05435 8.85888 9.02734 1.02633C9.02734 0.43214 9.1894 0.270088 9.24341 0.21607C9.32444 0.108035 9.43248 0 9.8106 0C9.91863 0 9.99966 0 10.1077 0H10.3238C10.3238 0 29.392 0 38.845 0C48.3251 0 57.8052 0 67.2853 0C68.1225 0 68.9868 0 69.8241 0.0270088H71.1475H71.6337V35.0034C71.6337 35.6786 71.4446 38.1364 71.0395 42.1067C70.8234 44.1323 70.4993 46.212 70.0402 48.4267C68.4737 55.8542 65.6377 61.7421 61.3703 66.4686C56.2387 72.1134 49.7296 76.4348 41.4379 79.6759C41.0327 79.919 40.6006 80 40.1955 80Z" fill="#FAFBFA"/>
<path d="M47.4603 45.5908C47.3523 45.5638 47.2713 45.5368 47.1632 45.5368C47.1092 43.5111 47.0282 41.4585 47.0012 39.4328C46.9742 36.1107 46.9472 32.7887 47.0282 29.4666C47.0552 28.2512 46.6231 27.711 45.4347 27.738C43.9762 27.4949 42.4907 27.576 41.0052 27.711C40.5461 27.819 40.114 28.0081 39.6548 28.0351C38.2774 28.1702 38.0073 28.9534 38.0613 30.2228C38.1153 32.2485 38.2233 34.3011 37.9803 36.3538C36.4138 36.4348 34.8472 36.1107 33.3077 36.5159C31.12 37.1641 31.12 37.1641 31.12 39.3518C31.12 41.1344 31.093 42.944 31.12 44.7265C31.147 45.4018 30.958 45.6178 30.2558 45.5908C27.987 45.5638 25.7183 45.5908 23.4495 45.5908C21.6129 45.5908 21.6129 45.5908 21.4239 47.4544C21.4239 47.5895 21.4239 47.6975 21.4509 47.8325C21.3158 48.9669 21.3158 50.1013 21.4509 51.2086C21.3429 52.154 21.775 52.5051 22.7203 52.4781C25.5022 52.451 28.2841 52.4781 31.066 52.5051C31.12 52.5591 31.1741 52.6401 31.1741 52.7211C31.147 52.7481 31.12 52.7752 31.12 52.8022C31.12 52.8562 31.147 52.9372 31.1741 52.9912C31.1741 55.5571 31.1741 58.1229 31.1741 60.6887C31.147 60.7157 31.093 60.7697 31.12 60.7697C31.147 60.8238 31.2011 60.8778 31.2281 60.9318C31.3631 61.0128 31.5252 61.2019 31.6332 61.1749C32.7676 60.9858 32.8216 61.634 32.7946 62.4983C32.7406 63.5517 32.7676 64.632 32.7946 65.6853C32.7946 66.0365 32.6325 66.4956 33.2267 66.5766C34.9283 67.603 36.8189 67.0898 38.6285 67.0898C40.7892 67.0898 41.0052 66.7927 41.0323 64.659C41.0323 63.7677 41.3834 63.4166 42.2477 63.4976C43.5441 63.6327 44.7865 63.2546 46.0289 62.9034C46.8662 62.6604 47.2443 62.3092 47.1903 61.418C47.1092 58.9602 47.1092 56.4754 47.0012 54.0176C46.9472 52.9102 47.2983 52.5051 48.4327 52.5051C51.5117 52.5591 54.5907 52.5051 57.6697 52.5321C58.669 52.5591 59.2362 52.289 59.2362 51.2086C59.2362 50.0203 59.2362 48.8049 59.2362 47.6165C59.0741 47.0223 58.9391 46.4011 58.777 45.8069C58.777 45.6448 58.696 45.5908 58.5339 45.6178C54.8607 45.5908 51.1605 45.5908 47.4603 45.5908Z" fill="#3E9A17"/>
<path d="M71.6607 31.8974C71.6607 31.8974 71.6607 33.734 71.6607 35.0304C71.6607 36.3268 71.1205 41.7286 71.0935 42.1337C70.8774 44.2674 70.5263 46.3741 70.0941 48.4537C68.6897 55.1789 66.0428 61.3909 61.4243 66.4956C55.9416 72.5456 49.1083 76.7319 41.4919 79.7029C40.5465 80.081 39.7633 80.054 38.818 79.6759C34.4156 77.9743 30.2832 75.7326 26.421 73.0317C23.0178 70.6279 19.8578 67.9271 17.373 64.578C11.7282 57.0695 9.56748 48.3727 9.05431 39.1627C9.0273 38.5145 9.35141 38.1364 9.72953 37.7043C12.3224 34.7063 14.9152 31.6813 17.5351 28.7103C18.9395 27.1168 18.4534 27.0898 20.398 28.2242C20.506 28.2782 20.6411 28.3322 20.7221 28.4132C21.2623 28.8994 21.6134 28.8184 22.2076 28.3052C26.448 24.605 30.3642 20.6617 33.6593 16.0972C34.1455 15.395 34.6586 15.0709 35.5769 15.1789C37.4405 15.368 39.3312 15.449 41.2218 15.476C42.086 15.476 42.6262 15.8542 43.1934 16.4483C45.4892 18.7981 47.8659 21.0668 50.0266 23.5517C50.6208 24.2269 51.215 24.3889 52.1333 24.1188C54.0779 23.5517 56.0496 22.7954 58.0752 24.0378C58.8585 24.524 59.7768 24.9021 60.6681 25.1182C62.7748 25.6583 64.1792 26.9548 65.1245 28.8184C65.6107 29.7637 66.3669 30.3038 67.3393 30.6009C68.6357 31.0061 69.9321 31.4652 71.2285 31.8974C71.3906 31.8974 71.5256 31.8974 71.6607 31.8974Z" fill="#3E9A17"/>
<path d="M41.0059 27.684C42.4913 27.5489 43.9498 27.4679 45.4353 27.711C45.4083 38.1094 45.4083 48.4808 45.3813 58.8791C45.3813 62.0392 45.3813 62.0121 42.2483 62.0121C41.303 62.0121 41.0059 61.7691 41.0059 60.7968C41.0329 55.1249 41.0059 49.4261 41.0059 43.7272C41.0059 38.4065 41.0059 33.0317 41.0059 27.684Z" fill="#BCBEBC"/>
<path d="M31.1743 60.6617C31.1743 58.0959 31.1743 55.53 31.1743 52.9642C31.2013 52.9372 31.2284 52.9102 31.2284 52.8832C31.2284 52.8292 31.2013 52.7481 31.1743 52.6941C31.1743 52.6131 31.1203 52.5321 31.0663 52.4781C31.0933 52.289 31.1203 52.0999 31.1743 51.9109C31.2013 51.8839 31.2554 51.8568 31.2554 51.8298C31.2554 51.7488 31.2013 51.6948 31.2013 51.6138C31.1473 51.4517 31.0933 51.2627 31.0123 51.1006C31.0393 50.7225 31.0663 50.3444 31.0393 49.9392C31.0123 47.6165 31.3364 47.7785 28.9326 47.7785C26.4478 47.7785 23.963 47.7785 21.4782 47.7515C21.4782 47.6165 21.4512 47.5084 21.4512 47.3734C21.6402 45.5098 21.6402 45.5098 23.4768 45.5098C25.7456 45.5098 28.0143 45.4828 30.283 45.5098C30.9583 45.5098 31.1473 45.3207 31.1473 44.6455C31.0933 42.8629 31.1473 41.0533 31.1473 39.2708C31.1473 37.0831 31.1473 37.0831 33.335 36.4348C33.9832 36.5969 33.8752 37.1101 33.8752 37.5692C33.8752 39.1897 33.8752 40.8103 33.8752 42.4308C33.8752 42.8359 33.7942 43.4301 34.4424 43.3221C35.4147 43.16 35.3607 43.7002 35.3607 44.3484C35.3607 51.5598 35.3607 58.7711 35.3607 65.9554C34.6585 66.1175 33.9292 66.2795 33.227 66.4686C32.6328 66.3876 32.7949 65.9284 32.7949 65.5773C32.7949 64.524 32.7408 63.4436 32.7949 62.3903C32.8489 61.526 32.7679 60.8778 31.6335 61.0668C31.5254 61.0939 31.3634 60.9048 31.2284 60.8238C31.2554 60.8238 31.2283 60.7427 31.1743 60.6617Z" fill="#FAFBFA"/>
<path d="M35.3323 66.0364C35.3323 58.8251 35.3323 51.6138 35.3323 44.4294C35.3323 43.7812 35.3593 43.2411 34.414 43.4031C33.7658 43.5111 33.8468 42.8899 33.8468 42.5118C33.8198 40.8913 33.8468 39.2708 33.8468 37.6502C33.8468 37.1911 33.9278 36.6779 33.3066 36.5159C34.8461 36.1107 36.4397 36.4348 37.9792 36.3538C38.3303 38.1634 38.1412 39.973 38.1142 41.7826C38.0872 42.8359 38.4113 43.3491 39.4646 43.3761C39.4646 44.5645 39.4376 45.7529 39.4376 46.9683C39.4376 52.9372 39.4376 58.9061 39.4917 64.8751C39.4917 65.7934 39.3026 66.2255 38.3033 66.1175C37.3039 66.0094 36.3316 66.0635 35.3323 66.0364Z" fill="#BCBEBC"/>
<path d="M35.3336 66.0365C36.3059 66.0635 37.3052 66.0094 38.2775 66.0905C39.2769 66.1985 39.4659 65.7394 39.4659 64.8481C39.4119 58.8791 39.4389 52.9102 39.4119 46.9413C39.4119 45.7529 39.4119 44.5645 39.4389 43.3491C39.9521 43.4841 40.4923 43.6192 41.0054 43.7272C41.0054 49.4261 41.0324 55.0979 41.0054 60.7968C41.0054 61.7691 41.3025 62.0122 42.2478 62.0122C45.3808 61.9851 45.3808 62.0392 45.3808 58.8791C45.3808 48.4808 45.4079 38.1094 45.4349 27.711C46.6233 27.684 47.0554 28.2242 47.0284 29.4396C46.9474 32.7616 46.9744 36.0837 47.0014 39.4058C47.0284 41.4315 47.1094 43.4841 47.1634 45.5098C47.1094 45.5908 47.1094 45.6718 47.1634 45.7529C47.0554 46.4551 47.0554 47.1573 47.1904 47.8596C47.1634 48.5888 47.1904 49.318 47.1094 50.0203C47.0014 50.9926 47.4065 51.2356 48.3518 51.2356C51.998 51.1816 55.6442 51.1816 59.2634 51.1816C59.2634 52.235 58.6692 52.5051 57.6969 52.5051C54.6179 52.451 51.5389 52.5321 48.4599 52.4781C47.3255 52.451 46.9744 52.8832 47.0284 53.9905C47.1364 56.4483 47.1094 58.9332 47.2174 61.3909C47.2445 62.2822 46.8933 62.6334 46.0561 62.8764C44.8137 63.2275 43.5983 63.6057 42.2748 63.4706C41.4106 63.3896 41.0594 63.7407 41.0594 64.632C41.0324 66.7657 40.8164 67.0628 38.6557 67.0628C36.8461 67.0628 34.9825 67.576 33.2539 66.5496C33.9291 66.3876 34.6314 66.1985 35.3336 66.0365Z" fill="#3D3D3D"/>
<path d="M41.0325 43.7542C40.5193 43.6192 39.9791 43.4841 39.466 43.3761C38.4126 43.3491 38.0885 42.8359 38.1155 41.7826C38.1425 39.973 38.3316 38.1364 37.9805 36.3538C38.2235 34.3282 38.1155 32.2755 38.0615 30.2228C38.0345 28.9534 38.2776 28.1702 39.655 28.0351C40.1142 27.9811 40.5463 27.819 41.0055 27.711C41.0055 33.0317 41.0055 38.4065 41.0325 43.7542Z" fill="#FAFBFA"/>
<path d="M59.2374 51.1816C55.5912 51.1816 51.945 51.1816 48.3258 51.2357C47.3805 51.2627 46.9754 50.9926 47.0834 50.0203C47.1645 49.291 47.1375 48.5618 47.1645 47.8596C50.7026 47.8596 54.2408 47.8596 57.7519 47.8596C58.2651 47.8596 58.7782 47.9406 59.2374 47.6165C59.2374 48.8049 59.2374 49.9932 59.2374 51.1816Z" fill="#BCBEBC"/>
<path d="M21.4788 47.8326C23.9636 47.8326 26.4484 47.8325 28.9333 47.8596C31.337 47.8596 31.0129 47.6975 31.0399 50.0203C31.0399 50.3984 31.0129 50.7765 31.0129 51.1816C27.8259 51.2086 24.6659 51.2086 21.4788 51.2357C21.3438 50.1013 21.3168 48.9669 21.4788 47.8326Z" fill="#BCBEBC"/>
<path d="M59.2365 47.5895C58.7773 47.9406 58.2641 47.8325 57.751 47.8325C54.2128 47.8325 50.6747 47.8325 47.1635 47.8325C47.0285 47.1303 47.0285 46.4281 47.1365 45.7259C47.2446 45.6718 47.3256 45.6178 47.4336 45.5638C51.1338 45.5638 54.834 45.5638 58.5342 45.5638C58.6152 45.6178 58.6963 45.6989 58.7773 45.7529C58.9394 46.3741 59.1014 46.9953 59.2365 47.5895Z" fill="#FAFBFA"/>
<path d="M21.451 51.2357C24.6381 51.2086 27.7981 51.2086 30.9851 51.1816C31.0391 51.3437 31.0931 51.5327 31.1742 51.6948C31.1742 51.8028 31.1742 51.8839 31.1742 51.9919C31.1472 52.181 31.1202 52.37 31.0661 52.5591C28.2842 52.5591 25.5023 52.5321 22.7204 52.5321C21.8021 52.5051 21.37 52.154 21.451 51.2357Z" fill="#3D3D3D"/>
<path d="M47.4606 45.5908C47.3526 45.6449 47.2716 45.6989 47.1636 45.7529C47.1095 45.6719 47.1095 45.5908 47.1636 45.5098C47.2446 45.5368 47.3526 45.5638 47.4606 45.5908Z" fill="#BCBEBC"/>
<path d="M58.8036 45.7799C58.7226 45.7259 58.6416 45.6448 58.5605 45.5908C58.6956 45.5368 58.7766 45.6178 58.8036 45.7799Z" fill="#BCBEBC"/>
<path d="M31.1747 52.7211C31.2017 52.7752 31.2287 52.8562 31.2287 52.9102C31.2287 52.9372 31.2017 52.9642 31.1747 52.9912C31.1477 52.9372 31.1206 52.8562 31.1206 52.8022C31.0936 52.7752 31.1477 52.7481 31.1747 52.7211Z" fill="#BCBEBC"/>
<path d="M31.1747 60.6617C31.2287 60.7427 31.2557 60.8238 31.2287 60.9048C31.2017 60.8508 31.1476 60.7967 31.1206 60.7427C31.0936 60.7427 31.1476 60.6887 31.1747 60.6617Z" fill="#BCBEBC"/>
<path d="M71.661 0.0540161V29.0885H71.1479C69.7704 28.6023 68.393 28.1702 67.0695 27.603C66.1783 27.2248 65.7461 26.2795 65.287 25.4963C64.6658 24.4429 63.8285 23.7947 62.6671 23.4166C61.1276 22.9034 59.5881 22.3363 58.1566 21.607C56.4281 20.7427 54.6995 20.8238 52.971 21.3639C51.9986 21.661 51.3774 21.472 50.6482 20.7157C48.2174 18.1229 45.6516 15.6921 43.1938 13.1533C42.7616 12.7211 42.3295 12.6671 41.8163 12.6401C39.4936 12.5591 37.1978 12.5051 34.8751 12.316C33.8758 12.235 33.3356 12.6131 32.7684 13.3693C29.6354 17.6907 26.2053 21.7691 22.0999 25.2532C21.4247 25.8204 21.0466 25.7124 20.3714 25.4153C17.7515 24.1999 18.5078 24.1458 16.7792 26.1445C14.4564 28.7914 12.1607 31.4112 9.81093 34.0311C9.64888 34.2201 9.54085 34.6523 9.18973 34.4902C9.0817 34.4362 9.0817 34.0311 9.0817 33.788C9.0817 22.8764 9.0817 11.9649 9.05469 1.05334C9.05469 -0.189063 9.81093 0.0810249 10.4862 0.0810249C29.4463 0.0810249 48.4065 0.0810249 67.3666 0.0810249C68.6631 0.0810249 69.9325 0.108034 71.2289 0.108034H71.661V0.0540161Z" fill="#254882"/>
<path d="M31.1738 51.9649C31.1738 51.8569 31.1738 51.7758 31.1738 51.6678C31.2008 51.7488 31.2278 51.8028 31.2278 51.8839C31.2278 51.9109 31.2008 51.9379 31.1738 51.9649Z" fill="#BCBEBC"/>
</svg>
