<svg width="80" height="80" viewBox="0 0 80 80" fill="none" xmlns="http://www.w3.org/2000/svg">
<path d="M73.3572 0C73.2765 1.2109 73.3572 29.9495 73.3572 40.1211C73.3572 66.115 40.5015 80 40.0979 80C40.0979 80 7 66.0343 7 40.1211V0H73.3572Z" fill="#038FD9"/>
<path d="M20.7229 9.7679C20.6422 9.28354 21.3687 8.87991 22.2567 8.79918C22.9026 8.79918 23.8713 7.42683 24.6785 7.42683C25.3243 7.34611 25.6473 7.26538 27.2618 7.26538C29.1185 7.26538 29.1992 7.34611 29.845 7.42683C30.4101 7.50756 31.1367 7.74974 31.7017 8.47628C32.0247 8.87991 31.9439 9.12209 32.4283 9.12209C33.397 9.20282 33.7199 9.12209 33.7199 9.7679C33.7199 10.333 33.0741 10.8981 33.3163 10.9788C33.5585 11.1403 33.7199 10.1715 34.2043 10.1715C34.6079 10.1715 34.8501 10.4944 36.3839 10.4944C37.5948 10.4944 38.9671 10.0101 40.5817 10.0101C41.4697 10.0101 43.0035 10.4137 44.2144 10.4137C44.618 10.4137 46.9591 10.0101 47.282 10.0101C49.1387 9.68718 50.1074 9.68718 50.3496 9.68718C52.7714 9.84863 54.3859 10.8173 55.1124 11.3017C56.6462 12.2704 57.9379 14.2079 58.5837 15.8224C59.2295 17.4369 59.7946 19.0515 59.8753 20.1009C59.956 20.7467 59.7946 21.4733 59.5524 21.4733C59.2295 21.4733 59.3102 20.9889 58.9066 21.1503C58.8259 21.3118 58.6644 21.3925 58.6644 21.554C58.6644 21.7962 58.9066 21.9576 58.9066 22.2805C58.9066 22.6842 58.5837 22.6034 58.503 23.0071C58.4222 23.33 58.5837 23.5721 58.4222 23.8143C58.2608 24.1372 57.9379 24.3794 57.9379 24.8638C57.9379 25.1867 58.0186 25.8325 58.0993 26.1554C58.2608 27.0434 59.5524 27.6892 59.5524 29.0615C59.5524 29.7074 57.9379 31.5641 57.2921 32.1292C56.727 32.6942 56.4041 33.0979 55.6775 33.0979C55.4353 33.0979 55.5968 32.8557 55.3546 32.6942C55.1124 32.6135 55.1932 33.0979 54.7895 33.0171C54.2244 32.9364 54.6281 32.1292 54.3859 32.2099C53.8208 32.3713 54.4666 33.0979 53.8208 33.0171C53.4172 33.0171 53.3365 32.6135 53.3365 32.3713C53.3365 32.1292 53.6594 31.887 53.4172 31.8062C53.0943 31.887 53.0135 32.0484 53.0135 32.4521C53.0135 32.5328 52.8521 32.5328 52.8521 32.5328C52.6099 32.5328 52.6099 32.2906 52.6099 31.9677C52.6099 31.2412 53.4979 31.0797 53.9823 30.5954C54.7895 29.7881 54.6281 28.9808 54.6281 28.9001C54.1437 28.2543 53.9015 27.8506 53.3365 27.447C53.0135 27.2048 51.8834 26.6397 51.5605 26.4783C50.3496 25.9939 50.1881 25.2674 49.3809 23.895H49.3001C49.3001 24.218 48.735 24.1372 48.4121 24.1372C47.7663 24.1372 48.17 24.0565 47.7663 23.9758C47.6856 24.0565 47.4434 23.895 47.4434 24.0565C47.4434 24.218 47.7663 24.4601 47.4434 24.5409C47.282 24.5409 47.2012 24.5409 47.0398 24.5409C46.5554 24.5409 46.3132 24.3794 45.8289 24.3794C45.6674 24.3794 45.9903 24.783 45.7482 24.8638C45.0216 24.9445 44.4565 25.3481 43.73 25.1867C43.73 25.1867 43.4071 25.5903 43.0842 25.5903C42.7613 25.5903 42.7613 25.7518 42.4384 25.671C40.6624 25.2674 41.3889 24.7023 40.9853 24.6216C40.8238 24.6216 40.7431 24.7023 40.7431 24.783L40.9046 25.671C40.9046 25.9132 40.4202 25.671 40.5009 26.6398C40.5009 26.8012 40.5817 26.8012 40.5817 26.9627C40.5817 27.2048 40.2588 27.0434 40.2588 27.2856C40.178 28.0928 40.0166 27.9314 39.9359 28.5772C39.8551 29.0615 39.6129 29.9495 39.5322 30.999C39.3708 32.2906 37.7562 31.887 37.7562 31.887C37.5141 31.887 37.6755 32.1292 37.1104 32.1292C36.949 32.1292 36.8682 32.1292 36.7068 32.1292C36.3839 32.1292 35.9803 31.9677 35.6573 31.9677C35.4152 31.9677 35.3344 31.6448 35.4152 31.4833C35.6573 31.0797 35.5766 30.999 35.3344 31.0797C34.6886 31.2412 35.3344 32.2099 34.6079 31.9677C34.1235 31.9677 34.6886 30.9183 34.5272 30.9183C34.0428 31.0797 34.285 32.2906 33.5585 31.8062C32.8319 31.4026 33.6392 31.0797 33.6392 30.7568C33.6392 30.5146 33.0741 30.9183 33.0741 31.0797C33.0741 31.0797 33.1548 31.887 32.6705 31.6448C32.4283 31.5641 32.509 30.7568 32.509 30.7568C32.5897 30.4339 33.397 29.9495 33.8006 29.7881C34.5272 29.3845 35.0923 29.3037 35.0923 28.6579C35.0923 28.335 35.3344 26.9627 34.9308 26.0747C34.5272 25.0252 34.5272 25.0252 34.1235 24.2987C33.8006 23.7336 33.4777 24.3794 33.1548 23.895L32.5897 23.4107C32.3476 23.5721 32.1861 23.5721 31.9439 23.1685C30.8945 21.0696 29.9258 20.5045 29.6029 20.1009C28.7149 19.0515 28.6341 18.89 27.8269 17.7598C27.5847 17.4369 28.069 17.2755 28.2305 17.114C28.6341 16.7911 28.957 16.7104 29.4414 16.3875C29.5221 16.3068 29.5221 16.226 29.4414 16.226C29.0378 16.226 28.6341 16.4682 28.3112 16.4682C27.8269 16.4682 27.4232 15.9031 27.504 15.5802C27.5847 15.0959 28.3112 15.6609 28.3112 14.6922C28.3112 14.2886 27.8269 13.9657 27.3425 13.9657C26.9389 13.9657 26.3738 14.0464 26.3738 14.6922C26.3738 15.4995 27.0196 15.1766 27.0196 15.5802C27.0196 16.0646 26.5352 16.4682 26.0509 16.3875C25.1629 16.3068 24.9207 15.8224 23.7905 14.9344C23.3869 14.6115 23.2255 14.5308 22.9026 14.0464C22.6604 13.7235 22.4989 13.4813 22.4989 13.0777C22.4989 12.7548 22.3375 12.5933 22.3375 12.2704C22.2567 11.7861 22.3375 11.3824 22.3375 10.9788C22.3375 10.8981 21.8531 11.0595 21.6109 10.8981C21.1266 10.7366 20.8037 10.4137 20.7229 9.7679ZM28.3112 12.7548C28.3112 12.9162 28.4727 13.0777 28.6341 13.0777C28.7956 13.0777 28.8763 12.8355 29.0378 12.8355C29.2799 12.8355 29.3607 12.997 29.7643 12.8355C30.0065 12.7548 29.9258 12.5126 30.0065 12.2704C30.0065 12.0282 30.3294 11.9475 30.3294 11.7053C30.3294 11.6246 30.2487 11.4632 30.2487 11.4632C29.4414 12.0282 29.2799 11.5439 28.8763 12.2704C28.7149 12.5126 28.392 12.4319 28.3112 12.7548ZM25.4858 12.5933C25.4858 12.7548 25.5665 12.9162 25.728 12.9162C25.8894 12.9162 26.1316 12.7548 26.1316 12.5933C26.1316 12.4319 25.728 12.109 25.4858 11.8668C25.0822 11.5439 24.9207 11.221 24.3556 11.221H24.0327V11.3824C24.4364 11.7053 24.2749 12.109 24.6785 12.5126H25.1629C25.2436 12.5126 25.3243 12.5126 25.4858 12.5933Z" fill="white"/>
<path d="M27.5859 16.7104C27.6666 16.7104 27.6666 16.7911 27.6666 16.8718C27.6666 16.9526 27.6666 17.0333 27.5859 17.0333H26.9401C26.8594 17.0333 26.8594 16.9526 26.8594 16.8718C26.8594 16.7911 26.8594 16.7104 26.8594 16.7104C26.9401 16.7104 27.1823 16.7104 27.263 16.7104C27.4245 16.7104 27.4245 16.7104 27.5859 16.7104Z" fill="white"/>
<path d="M30.2492 21.8769C30.5721 21.8769 30.8143 22.2805 30.9757 22.6034C31.2986 23.0071 31.2986 23.1685 31.6215 23.5721C31.8637 23.8951 31.9445 24.1372 32.1866 24.4601C32.3481 24.7023 32.4288 25.106 32.5903 25.106C32.7517 25.106 32.8324 24.8638 32.9939 24.8638C33.1553 24.8638 33.1553 25.0252 33.2361 25.1867C33.3168 25.3481 33.3975 25.5096 33.6397 25.5903C33.9626 25.671 34.3662 25.4289 34.2855 26.0747C34.2855 26.4783 33.8012 26.3976 33.3975 26.3169C32.4288 26.2361 31.9445 26.3169 31.9445 26.3169C31.6215 26.3169 29.2805 26.8819 28.8768 27.0434C28.6347 27.1241 27.6659 27.6085 27.1816 28.0928C27.0201 28.2543 26.8587 28.4157 26.6165 28.4157C26.3743 28.4157 26.2129 28.1736 26.2129 27.9314C26.2129 27.8507 26.2936 27.7699 26.2936 27.6892C26.2936 27.6085 26.2129 27.5277 26.1321 27.5277C25.8092 27.5277 26.1321 28.0928 25.5671 28.1736C25.4056 28.1736 25.2441 28.0121 25.2441 27.8507C25.2441 27.6085 25.4863 27.447 25.4863 27.2048C25.4863 27.1241 25.4056 27.0434 25.3249 27.0434C25.002 27.0434 25.0827 27.6892 24.7598 27.6892C24.5176 27.6892 24.2754 27.6085 24.2754 27.2856C24.2754 26.8012 24.8405 26.8819 24.8405 26.6398C24.8405 26.4783 24.8405 26.4783 24.6791 26.4783C24.3562 26.4783 24.1947 27.1241 23.9525 26.9627C23.7103 26.8012 23.9525 26.2361 24.0332 26.0747C24.2754 25.8325 24.8405 25.0252 25.5671 24.5409C25.89 24.3794 26.455 24.0565 26.6165 23.9758C27.0201 23.8143 27.5045 23.6529 27.9889 23.4107C29.3612 22.8456 30.0877 21.8769 30.2492 21.8769Z" fill="white"/>
<path d="M45.6672 26.4783C45.6672 26.3169 45.6672 26.1554 45.6672 25.994C45.5865 25.3481 46.0709 25.5096 46.3938 25.4289C46.8781 25.3481 46.8781 25.0252 47.201 25.0252C47.2818 25.0252 48.0083 25.0252 48.089 25.0252C48.4119 25.0252 48.3312 24.7023 49.1385 24.7023C49.5421 24.7023 49.6228 25.1867 49.865 25.5096C50.1072 25.9132 50.4301 26.1554 50.4301 26.6398C50.4301 27.0434 50.1879 27.2049 50.1072 27.6085C50.0265 27.9314 49.9457 28.0928 49.865 28.4158C49.7036 28.9808 49.6228 29.1423 49.6228 29.7074V31.7255C49.6228 32.1292 49.7036 32.2099 48.7348 32.2906C48.4927 32.2906 48.4119 32.2906 48.1698 32.2906C48.0083 32.2906 47.6854 32.3713 47.6047 32.3713C47.4432 32.3713 47.2818 32.2906 47.1203 32.2906C46.9589 32.2906 46.8781 32.3714 46.6359 32.2906C46.2323 32.1292 46.5552 31.9677 46.313 31.7255C46.2323 31.6448 46.2323 31.4834 46.0709 31.5641C45.748 31.8063 46.0709 32.3713 45.6672 32.3713C45.5058 32.3713 45.2636 32.3714 45.2636 32.2099C45.2636 32.0484 45.2636 31.887 45.2636 31.8063C45.2636 31.7255 45.0214 31.8063 44.9407 31.8063C44.7792 31.8063 44.9407 32.0484 44.86 32.2099C44.7792 32.3714 44.6985 32.3713 44.5371 32.3713C43.972 32.2906 44.2142 31.887 44.0527 31.8063C43.8913 31.7255 43.8912 32.2906 43.4876 32.2099C43.2454 32.2099 43.084 31.887 43.084 31.6448C43.084 31.4026 43.4876 30.5954 44.4563 30.0303C44.6178 29.9496 45.0214 29.7881 45.1021 29.7074C45.2636 29.5459 45.5865 29.0616 45.6672 29.0616C45.9094 28.7387 45.9094 28.4965 45.9094 28.1736C45.9094 27.8507 45.8287 28.0121 45.748 27.447C45.8287 26.9627 45.6672 27.0434 45.6672 26.4783Z" fill="white"/>
<path d="M20.7229 36.4077C20.6422 35.9233 21.3687 35.5197 22.2567 35.439C22.9026 35.439 23.8713 34.0666 24.6785 34.0666C25.3243 33.9859 25.6473 33.9052 27.2618 33.9052C29.1992 33.9052 29.1992 33.9859 29.845 34.0666C30.4101 34.1473 31.1367 34.3895 31.7017 35.116C32.0247 35.5197 31.9439 35.7619 32.4283 35.7619C33.397 35.8426 33.7199 35.7619 33.7199 36.4077C33.7199 36.9728 33.0741 37.5378 33.3163 37.6186C33.5585 37.78 33.7199 36.8113 34.2043 36.8113C34.6079 36.8113 34.8501 37.1342 36.3839 37.1342C37.5948 37.1342 38.9671 36.6499 40.5817 36.6499C41.4697 36.6499 43.0035 37.0535 44.2144 37.0535C44.618 37.0535 46.9591 36.6499 47.282 36.6499C49.1387 36.3269 50.1074 36.3269 50.3496 36.3269C52.7714 36.4884 54.3859 37.4571 55.1124 37.9415C56.6462 38.9102 57.9379 40.8476 58.5837 42.4622C59.2295 44.0767 59.7946 45.6912 59.8753 46.7407C59.956 47.3865 59.7946 48.113 59.5524 48.113C59.2295 48.113 59.3102 47.6287 58.9066 47.7901C58.8259 47.9516 58.6644 48.0323 58.6644 48.1937C58.6644 48.4359 58.9066 48.5974 58.9066 48.9203C58.9066 49.3239 58.5837 49.2432 58.503 49.6468C58.4222 49.9697 58.5837 50.2119 58.4222 50.4541C58.2608 50.777 57.9379 51.0192 57.9379 51.5035C57.9379 51.8264 58.0186 52.4723 58.0993 52.7952C58.2608 53.6832 59.5524 54.329 59.5524 55.7013C59.5524 56.3471 57.9379 58.2038 57.2921 58.7689C56.727 59.334 56.4041 59.7376 55.6775 59.7376C55.4353 59.7376 55.5968 59.4955 55.3546 59.334C55.1124 59.2533 55.1932 59.7376 54.7895 59.6569C54.2244 59.5762 54.6281 58.7689 54.3859 58.8497C53.8208 59.0111 54.4666 59.7376 53.8208 59.6569C53.4172 59.6569 53.3365 59.2533 53.3365 59.0111C53.3365 58.7689 53.6594 58.5267 53.4172 58.446C53.0943 58.5267 53.0135 58.6882 53.0135 59.0918C53.0135 59.1726 52.8521 59.1726 52.8521 59.1726C52.6099 59.1726 52.6099 58.9304 52.6099 58.6075C52.6099 57.8809 53.4979 57.7195 53.9823 57.2351C54.7895 56.4279 54.6281 55.6206 54.6281 55.5399C54.1437 54.8941 53.9015 54.4904 53.3365 54.0868C53.0135 53.8446 51.8834 53.2795 51.5605 53.1181C50.3496 52.6337 50.1881 51.9072 49.3809 50.5348H49.3001C49.3001 50.8577 48.735 50.777 48.4121 50.777C47.7663 50.777 48.17 50.6963 47.7663 50.6155C47.6856 50.6963 47.4434 50.6155 47.4434 50.6963C47.4434 50.8577 47.7663 51.0999 47.4434 51.1806C47.282 51.1806 47.2012 51.1806 47.0398 51.1806C46.5554 51.1806 46.3132 51.0192 45.8289 51.0192C45.6674 51.0192 45.9903 51.4228 45.7482 51.5035C45.0216 51.5843 44.4565 51.9879 43.73 51.8264C43.73 51.8264 43.4071 52.2301 43.0842 52.2301C42.7613 52.2301 42.7613 52.3915 42.4384 52.3108C40.6624 51.9072 41.3889 51.3421 40.9853 51.2614C40.8238 51.2614 40.7431 51.3421 40.7431 51.4228L40.9046 52.3108C40.9046 52.553 40.4202 52.3108 40.5009 53.2795C40.5009 53.441 40.5817 53.441 40.5817 53.6024C40.5817 53.8446 40.2588 53.6832 40.2588 53.9253C40.178 54.7326 40.0166 54.5711 39.9359 55.217C39.8551 55.7013 39.6129 56.5893 39.5322 57.6388C39.3708 58.9304 37.7562 58.5267 37.7562 58.5267C37.5141 58.5267 37.6755 58.7689 37.1104 58.7689C36.949 58.7689 36.8682 58.7689 36.7068 58.7689C36.3839 58.7689 35.9803 58.6075 35.6573 58.6075C35.4152 58.6075 35.3344 58.2846 35.4152 58.1231C35.6573 57.7195 35.5766 57.6388 35.3344 57.7195C34.6886 57.8809 35.3344 58.8497 34.6079 58.6075C34.1235 58.6075 34.6886 57.558 34.5272 57.558C34.0428 57.7195 34.285 58.9304 33.5585 58.446C32.8319 58.0424 33.6392 57.7195 33.6392 57.3966C33.6392 57.1544 33.0741 57.558 33.0741 57.7195C33.0741 57.7195 33.1548 58.5267 32.6705 58.2846C32.4283 58.2038 32.509 57.3966 32.509 57.3966C32.5897 57.0737 33.397 56.5893 33.8006 56.4279C34.5272 56.0242 35.0923 55.9435 35.0923 55.2977C35.0923 54.9748 35.3344 53.6024 34.9308 52.7144C34.5272 51.665 34.5272 51.665 34.1235 50.9384C33.8006 50.3734 33.4777 51.0192 33.1548 50.5348L32.5897 50.0505C32.3476 50.2119 32.1861 50.2119 31.9439 49.8083C30.8945 47.7094 29.9258 47.1443 29.6029 46.7407C28.7149 45.6912 28.6341 45.5298 27.8269 44.3996C27.5847 44.0767 28.069 43.9152 28.2305 43.7538C28.6341 43.4309 28.957 43.3502 29.4414 43.0272C29.5221 42.9465 29.5221 42.8658 29.4414 42.8658C29.0378 42.8658 28.6341 43.108 28.3112 43.108C27.8269 43.108 27.4232 42.5429 27.504 42.22C27.5847 41.7356 28.3112 42.3007 28.3112 41.332C28.3112 40.9284 27.8269 40.6055 27.3425 40.6055C26.9389 40.6055 26.3738 40.6862 26.3738 41.332C26.3738 42.1393 27.0196 41.8164 27.0196 42.22C27.0196 42.7043 26.5352 43.108 26.0509 43.0272C25.1629 42.9465 24.9207 42.4622 23.7905 41.5742C23.3869 41.2513 23.2255 41.1705 22.9026 40.6862C22.6604 40.3633 22.4989 40.1211 22.4989 39.7175C22.4989 39.3946 22.3375 39.2331 22.3375 38.9102C22.2567 38.4258 22.3375 38.0222 22.3375 37.6186C22.3375 37.5378 21.8531 37.6993 21.6109 37.5378C21.1266 37.3764 20.7229 37.0535 20.7229 36.4077ZM28.2305 39.3946C28.2305 39.556 28.392 39.7175 28.5534 39.7175C28.7149 39.7175 28.7956 39.4753 28.957 39.4753C29.1992 39.4753 29.2799 39.6367 29.6836 39.4753C29.9258 39.3946 29.845 39.1524 29.9258 38.9102C29.9258 38.668 30.2487 38.5873 30.2487 38.3451C30.2487 38.2644 30.1679 38.1029 30.1679 38.1029C29.3607 38.668 29.1992 38.1837 28.7956 38.9102C28.6341 39.1524 28.3112 39.0716 28.2305 39.3946ZM25.4051 39.2331C25.4051 39.3946 25.4858 39.556 25.6473 39.556C25.8087 39.556 26.0509 39.3946 26.0509 39.2331C26.0509 39.0716 25.6473 38.7487 25.4051 38.5066C25.0014 38.1837 24.84 37.8608 24.2749 37.8608H23.952V38.0222C24.3556 38.3451 24.1942 38.7487 24.5978 39.1524H25.0822C25.1629 39.1524 25.2436 39.1524 25.4051 39.2331Z" fill="white"/>
<path d="M27.5859 43.3502C27.6666 43.3502 27.6666 43.4309 27.6666 43.5116C27.6666 43.5923 27.6666 43.6731 27.5859 43.6731H26.9401C26.8594 43.6731 26.8594 43.5923 26.8594 43.5116C26.8594 43.4309 26.8594 43.3502 26.8594 43.3502C26.9401 43.3502 27.1823 43.3502 27.263 43.3502C27.3437 43.3502 27.4245 43.3502 27.5859 43.3502Z" fill="white"/>
<path d="M30.2492 48.5167C30.5721 48.5167 30.8143 48.9203 30.9757 49.2432C31.2986 49.6468 31.2986 49.8083 31.6215 50.2119C31.8637 50.5348 31.9445 50.777 32.1866 51.0999C32.3481 51.3421 32.4288 51.7457 32.5903 51.7457C32.7517 51.7457 32.8324 51.5035 32.9939 51.5035C33.1553 51.5035 33.1553 51.665 33.2361 51.8264C33.3168 51.9879 33.3975 52.1494 33.6397 52.2301C33.9626 52.3108 34.3662 52.0686 34.2855 52.7144C34.2855 53.1181 33.8012 53.0373 33.3975 52.9566C32.4288 52.8759 31.9445 52.9566 31.9445 52.9566C31.6215 52.9566 29.2805 53.5217 28.8768 53.6832C28.6347 53.7639 27.6659 54.2483 27.1816 54.7326C27.0201 54.8941 26.8587 55.0555 26.6165 55.0555C26.3743 55.0555 26.2129 54.8133 26.2129 54.5712C26.2129 54.4904 26.2936 54.4097 26.2936 54.329C26.2936 54.2483 26.2129 54.1675 26.1321 54.1675C25.8092 54.1675 26.1321 54.7326 25.5671 54.8133C25.4056 54.8133 25.2441 54.6519 25.2441 54.4904C25.2441 54.2482 25.4863 54.0868 25.4863 53.8446C25.4863 53.7639 25.4056 53.6832 25.3249 53.6832C25.002 53.6832 25.0827 54.329 24.7598 54.329C24.5176 54.329 24.2754 54.2483 24.2754 53.9253C24.2754 53.441 24.8405 53.5217 24.8405 53.2795C24.8405 53.1181 24.8405 53.1181 24.6791 53.1181C24.3562 53.1181 24.1947 53.7639 23.9525 53.6024C23.7103 53.441 23.9525 52.8759 24.0332 52.7144C24.2754 52.4723 24.8405 51.665 25.5671 51.1806C25.89 51.0192 26.455 50.6963 26.6165 50.6156C27.0201 50.4541 27.5045 50.2926 27.9889 50.0505C29.3612 49.4047 30.007 48.5167 30.2492 48.5167Z" fill="white"/>
<path d="M45.5865 53.118C45.5865 52.9566 45.5865 52.7951 45.5865 52.6337C45.5058 51.9879 45.9901 52.1493 46.313 52.0686C46.7974 51.9879 46.7974 51.665 47.1203 51.665C47.201 51.665 47.9276 51.665 48.0083 51.665C48.3312 51.7457 48.3312 51.4228 49.1385 51.4228C49.5421 51.4228 49.6228 51.9071 49.865 52.2301C50.1072 52.6337 50.4301 52.8759 50.4301 53.3602C50.4301 53.7639 50.1879 53.9253 50.1072 54.3289C50.0265 54.6519 49.9457 54.8133 49.865 55.1362C49.7036 55.7013 49.6228 55.8628 49.6228 56.4278V58.446C49.6228 58.8496 49.7036 58.9304 48.7348 59.0111C48.4927 59.0111 48.4119 59.0111 48.1698 59.0111C48.0083 59.0111 47.6854 59.0918 47.6047 59.0918C47.4432 59.0918 47.2818 59.0111 47.1203 59.0111C46.9589 59.0111 46.8781 59.0918 46.6359 59.0111C46.2323 58.8496 46.5552 58.6882 46.313 58.446C46.2323 58.3653 46.2323 58.2038 46.0709 58.2845C45.748 58.5267 46.0709 59.0918 45.6672 59.0918C45.5058 59.0918 45.2636 59.0918 45.2636 58.9304C45.2636 58.7689 45.2636 58.6075 45.2636 58.5267C45.2636 58.446 45.0214 58.5267 44.9407 58.5267C44.7792 58.5267 44.9407 58.7689 44.86 58.9304C44.7792 59.0918 44.6985 59.0918 44.5371 59.0918C43.972 59.0111 44.2142 58.6075 44.0527 58.5267C43.8913 58.446 43.8912 59.0111 43.4876 58.9304C43.2454 58.9304 43.084 58.6075 43.084 58.3653C43.084 58.1231 43.4876 57.3158 44.4563 56.7507C44.6178 56.67 45.0214 56.5086 45.1021 56.4278C45.2636 56.2664 45.5865 55.782 45.6672 55.782C45.9094 55.4591 45.9094 55.2169 45.9094 54.894C45.9094 54.5711 45.8287 54.7326 45.748 54.1675C45.748 53.6024 45.6672 53.6831 45.5865 53.118Z" fill="white"/>
</svg>
