<svg width="80" height="80" viewBox="0 0 80 80" fill="none" xmlns="http://www.w3.org/2000/svg">
<path d="M13.875 0.753845H66.464C66.464 22.6022 67.2068 38.6193 65.0893 48.6652C62.3485 62.3205 53.3487 73.0189 40.109 79.2057C16.7204 59.4069 13.875 0.753845 13.875 0.753845Z" fill="#3A5675"/>
<path d="M13.875 0.753846V0.738556H66.48V0.753846C66.48 9.76391 66.6055 17.7805 66.6055 24.7968C66.6055 34.7964 66.3488 42.7625 65.1039 48.6687C62.3631 62.3284 53.3594 73.0321 40.1158 79.2199L40.1062 79.2231L40.0984 79.217C16.7015 59.409 13.8604 0.756335 13.8594 0.753846V0.738556H13.875V0.753846H13.89C13.891 0.754913 13.9344 1.66876 14.0581 3.31118C14.9215 14.8075 19.6621 61.8778 40.118 79.1918L40.1087 79.2053L40.102 79.1907C53.3377 73.0065 62.3339 62.3124 65.074 48.6623C66.3182 42.7615 66.5735 34.795 66.5735 24.7968C66.5735 17.7805 66.4476 9.76391 66.4476 0.753846H66.4633V0.769491H13.875V0.753846H13.89H13.875Z" fill="black"/>
<path d="M53.5217 11.0195C53.4154 10.5174 52.2832 10.0181 51.4675 9.56656C49.3838 8.65876 48.5226 8.25269 47.5401 8.23029C45.9414 8.29713 45.2171 9.29347 44.4437 9.10964C43.4282 8.9546 42.4767 8.90909 42.1854 9.36032C41.752 10.155 42.2964 11.3121 42.2964 11.3121L39.8422 16.1501C38.8078 17.7641 36.8155 19.6661 35.4799 21.1005C34.5895 22.1502 34.1383 22.7675 33.623 23.5704L48.7573 40.8648C48.7573 40.8648 49.5378 40.8847 50.2173 40.6913C50.7656 40.5014 51.4451 40.0484 51.332 38.5716C51.1735 36.7418 50.5853 31.4422 50.5508 30.3165C50.4939 29.1772 49.8596 26.3699 49.1004 24.5159C48.9532 24.1511 48.364 23.426 48.3192 22.5083C48.1788 21.262 48.1165 19.5911 48.209 18.0461C48.2737 17.2667 48.6367 15.8977 49.2832 15.2078C50.9462 13.9502 52.6157 12.6224 52.6157 12.6224C52.6157 12.6224 53.6181 11.8302 53.5217 11.0195Z" fill="white"/>
<path d="M53.5228 11.0195L53.3041 11.065C53.2973 10.954 53.0353 10.692 52.6448 10.4644C52.2594 10.229 51.7755 9.99112 51.3598 9.76177L51.4686 9.56656L51.3797 9.77102C49.291 8.85824 48.4501 8.4703 47.5359 8.45323L47.5412 8.23028L47.5508 8.45323C46.8603 8.4831 46.3493 8.69147 45.9045 8.90589C45.4579 9.11461 45.0841 9.34894 44.6397 9.35499L44.3929 9.32654L44.4448 9.10964L44.4103 9.33045C44 9.26716 43.6035 9.22342 43.2671 9.22484C42.7786 9.21915 42.4553 9.33187 42.3732 9.48122L42.1865 9.36032L42.3824 9.46806C42.2829 9.65083 42.242 9.86773 42.242 10.0917C42.242 10.3737 42.3053 10.6596 42.3718 10.8726L42.4617 11.1276L42.4991 11.2175L42.5449 11.316L40.0381 16.2611L40.0328 16.2703C38.9706 17.9213 36.9733 19.8226 35.6435 21.2524L35.481 21.1002L35.652 21.2449C34.7645 22.291 34.3243 22.8948 33.8108 23.6906L33.6241 23.5704L33.7923 23.4243L48.9269 40.7186L48.7584 40.8648L48.7651 40.6422H48.8245C49.0154 40.6436 49.6338 40.6269 50.1569 40.4765L50.218 40.6913L50.1448 40.4808C50.3766 40.3993 50.6134 40.2763 50.7965 40.0441C50.9793 39.8126 51.1208 39.4631 51.1208 38.8831L51.1102 38.5884C50.9512 36.7617 50.3642 31.4764 50.3286 30.3236L50.5512 30.3161L50.3286 30.3271C50.276 29.2366 49.6413 26.42 48.8956 24.5994C48.7832 24.2968 48.1475 23.5185 48.0984 22.5193L48.3203 22.5083L48.0988 22.5342C48.0035 21.6812 47.9427 20.6379 47.9427 19.569C47.9427 19.0567 47.9562 18.5389 47.9875 18.0329V18.0272C48.0618 17.2037 48.4142 15.8234 49.1214 15.0553L49.1346 15.0407L49.1491 15.0297C50.2679 14.1816 51.377 13.3209 52.4763 12.4478L52.6061 12.3348C52.8536 12.115 53.3187 11.5767 53.3055 11.1322L53.3016 11.0461L53.5228 11.0195L53.3041 11.065L53.5228 11.0195L53.744 10.9921L53.7514 11.1322C53.7493 11.6076 53.4869 12.0126 53.2447 12.3077C52.9997 12.6039 52.7611 12.7917 52.7544 12.7974C52.7544 12.7974 51.0856 14.1269 49.4183 15.3853L49.2846 15.2078L49.446 15.3593C48.8618 15.9716 48.487 17.3289 48.4312 18.0653L48.21 18.0461L48.4312 18.06C48.4031 18.5625 48.389 19.0657 48.3889 19.569C48.3889 20.6216 48.4486 21.651 48.5429 22.4837V22.4912L48.5436 22.498C48.5823 23.3332 49.1253 24.0046 49.3091 24.432C50.0786 26.3197 50.713 29.1178 50.7756 30.3058V30.3101C50.8086 31.4099 51.3971 36.7212 51.5554 38.5524L51.5689 38.8838C51.5703 39.536 51.4021 40.0011 51.1475 40.3215C50.8933 40.6425 50.5661 40.8068 50.2906 40.9032L50.2841 40.9046L50.2785 40.9057C49.6797 41.0764 49.0361 41.0881 48.8241 41.0895L48.7512 41.0881L48.6535 41.0852L33.3457 23.5917L33.435 23.4495C33.9562 22.6406 34.4174 22.0112 35.3114 20.9569L35.3138 20.9526L35.3181 20.9487C36.6594 19.5082 38.6481 17.607 39.6555 16.0296L39.8432 16.1501L39.6459 16.0488L42.0976 11.2115L42.2975 11.3121L42.0951 11.4067C42.0898 11.3925 41.7982 10.7844 41.7954 10.0917C41.7954 9.81617 41.8448 9.52353 41.9902 9.25329L41.9945 9.24618L41.9998 9.23942C42.2619 8.85682 42.7401 8.78321 43.2671 8.77788C43.6408 8.77788 44.0554 8.82446 44.4789 8.88775L44.4885 8.8906L44.4978 8.89202L44.6397 8.90873C44.9017 8.91513 45.2473 8.72952 45.7096 8.5023C46.1747 8.28078 46.7586 8.03898 47.532 8.00769H47.5465C48.5983 8.03329 49.4802 8.45928 51.5586 9.36139L51.5689 9.36708L51.5767 9.37099C51.9767 9.59358 52.4667 9.83253 52.8774 10.0843C53.2842 10.3439 53.6405 10.5821 53.7393 10.9732L53.7422 10.9825L53.7436 10.9921L53.5228 11.0195Z" fill="white"/>
<path d="M47.6152 27.6699C47.6152 27.6713 47.414 28.092 47.1899 28.5916C46.9649 29.0897 46.7145 29.6786 46.6285 29.9659L46.3145 29.8709L46.6324 29.9541C46.4706 30.5505 46.2804 32.4478 46.2825 33.7158C46.2825 33.9829 46.2896 34.2233 46.3063 34.4138L45.9795 34.4437L46.3063 34.4099C46.3714 35.0464 46.6189 37.1579 46.6203 38.2858C46.6189 38.503 46.6125 38.6819 46.5844 38.8355L45.9369 38.7206C45.95 38.6417 45.9607 38.4813 45.9593 38.2858C45.9607 37.2336 45.7168 35.115 45.6506 34.4764V34.4718C45.6303 34.2202 45.6205 33.9679 45.6211 33.7155C45.624 32.3749 45.8053 30.5156 45.9948 29.7842L45.9959 29.7789L45.997 29.7735C46.2132 29.0695 47.0157 27.3947 47.0196 27.3851L47.6152 27.6699ZM53.5168 10.8342C53.3226 10.8435 52.8046 10.9921 52.6229 11.422C52.396 12.1929 51.7488 12.8016 51.7488 12.8016C51.7488 12.8016 53.5929 12.3213 53.6999 11.422C53.7077 11.3651 53.856 10.8093 53.5168 10.8342Z" fill="#3A5675"/>
<path d="M53.5173 10.8342V10.8566C53.3296 10.8647 52.8197 11.0141 52.6447 11.4319C52.4168 12.2074 51.765 12.8169 51.7636 12.8183L51.749 12.8016L51.7423 12.7796C51.7433 12.7796 52.202 12.6604 52.6735 12.43C53.1475 12.1985 53.6286 11.854 53.6791 11.4195C53.683 11.3896 53.7171 11.2538 53.7171 11.1215C53.7157 10.9764 53.6798 10.8566 53.5372 10.8551L53.517 10.8566V10.8342L53.5159 10.8121L53.5372 10.8107C53.7186 10.8107 53.7609 10.975 53.7609 11.1215C53.7609 11.2598 53.725 11.402 53.7228 11.4266C53.6048 12.3511 51.7554 12.819 51.754 12.8233L51.733 12.7856C51.7355 12.7842 52.378 12.179 52.602 11.4166C52.7916 10.9718 53.3132 10.8224 53.5159 10.8121L53.5173 10.8342ZM47.0977 11.242C47.0977 11.0664 47.3203 10.9241 47.5955 10.9241C47.8714 10.9241 48.094 11.0664 48.094 11.242C48.094 11.4166 47.8714 11.5592 47.5955 11.5592C47.3203 11.5592 47.0977 11.4166 47.0977 11.242Z" fill="#3A5675"/>
<path d="M47.0975 11.2421H47.0762C47.079 11.0451 47.3148 10.9028 47.5953 10.9028C47.8777 10.9028 48.1138 11.0451 48.1148 11.2421C48.1138 11.4387 47.8777 11.5809 47.5953 11.5809C47.3148 11.5809 47.079 11.4387 47.0762 11.2421H47.1199C47.1199 11.3964 47.3251 11.5358 47.595 11.5358C47.8656 11.5358 48.0693 11.396 48.0707 11.2421C48.0697 11.0881 47.8656 10.9473 47.595 10.9473C47.3247 10.9473 47.1199 11.0881 47.1199 11.2421H47.0975Z" fill="#3A5675"/>
<path d="M17.201 57.0448C11.3666 51.0212 13.5929 0.9935 13.5929 0.9935L62.3999 56.5516C62.3999 56.5516 58.0159 68.7793 39.8251 79.8997C23.1214 71.6862 17.201 57.0448 17.201 57.0448Z" fill="white"/>
<path d="M17.2023 57.0448L17.1578 57.0889C15.4777 55.3454 14.4842 50.1021 13.8876 43.457C13.2948 36.8136 13.1152 28.7772 13.1152 21.4909C13.1152 10.367 13.532 0.991003 13.532 0.991003L13.5384 0.837036L62.4713 56.5359L62.4595 56.5708C62.4553 56.5814 58.0635 68.8237 39.8595 79.9527L39.83 79.9694L39.7994 79.9548C23.0736 71.7313 17.1475 57.0753 17.145 57.0689L17.2023 57.0448L17.1578 57.0889L17.2023 57.0448L17.2592 57.0224C17.2606 57.0252 17.6268 57.9334 18.4433 59.4329C20.8861 63.9285 27.342 73.6931 39.8542 79.845L39.8265 79.8994L39.7945 79.8478C48.8835 74.2897 54.5205 68.4582 57.8861 64.0177C59.5694 61.7953 60.6834 59.9221 61.3775 58.6061C62.0712 57.2898 62.3415 56.5302 62.3429 56.5288L62.4012 56.5509L62.355 56.59L13.5483 1.03403L13.5942 0.993492L13.6557 0.996336C13.6557 1.00309 13.5519 3.33997 13.4466 7.07392C13.3439 10.8075 13.239 15.9322 13.239 21.4909C13.239 28.7743 13.4168 36.8076 14.0092 43.4459C14.5994 50.0807 15.6171 55.3284 17.2467 57.0025L17.2549 57.0121L17.2588 57.022L17.2023 57.0448Z" fill="white"/>
<path d="M14.2109 1.40134L50.7145 72.1815C50.7145 72.1815 43.3529 78.12 39.7637 79.11C35.8658 78.1826 28.6881 72.1815 28.6881 72.1815L14.2109 1.40134Z" fill="#3A5675"/>
<path d="M14.2115 1.40133L14.2257 1.39386L50.735 72.185L50.7247 72.1928C50.7232 72.1928 43.3638 78.1321 39.7685 79.1256L39.7642 79.1263L39.7603 79.1256C35.8553 78.194 28.6794 72.1928 28.6794 72.1928L28.6755 72.1889L14.1973 1.40453L14.2257 1.39422L14.2115 1.40133L14.2268 1.39777L28.7039 72.1786L28.6886 72.1815L28.6986 72.1694C28.7028 72.1737 30.4925 73.6689 32.7739 75.286C35.0553 76.9007 37.8238 78.6335 39.7681 79.0957L39.7639 79.1103L39.76 79.0957C41.5507 78.6015 44.2869 76.8702 46.5772 75.2612C48.8643 73.6532 50.7019 72.1722 50.7055 72.1697L50.7147 72.1818L50.7015 72.1886L14.1987 1.40808L14.2115 1.40133L14.2268 1.39777L14.2115 1.40133Z" fill="#0080B0"/>
<path d="M20.411 54.5817L20.4239 54.587C20.6134 54.6663 22.7255 55.4788 25.3579 55.4759C27.3147 55.4774 29.211 54.9394 30.6052 54.3879C31.1706 54.166 31.7244 53.9155 32.2643 53.6372C32.461 53.5352 32.6117 53.452 32.7102 53.3951L32.8201 53.33L32.8486 53.3126L33.4694 52.9296L34.0465 53.3759L34.0664 53.3905C34.1973 53.4886 34.9387 54.0248 36.0022 54.523C37.0657 55.0251 38.4433 55.4788 39.8247 55.4759C41.3772 55.4788 42.8365 54.9607 43.9014 54.428C44.3338 54.2103 44.7527 53.9665 45.1556 53.698C45.2999 53.5988 45.4126 53.5192 45.4855 53.4658L45.5638 53.404L45.5798 53.3922L46.1466 52.9314L46.777 53.3016L46.8076 53.3183C47.1785 53.5405 50.8193 55.4905 54.4935 55.4759C55.8987 55.4759 57.1201 55.2491 57.9807 55.0226C58.317 54.9351 58.6495 54.8331 58.977 54.7168L59.2298 54.6204L59.2881 54.5966L59.2991 54.5909L59.3742 54.7609L59.2974 54.5909H59.2988L59.3738 54.7609L59.297 54.5909L60.1501 56.5167C60.0683 56.5501 57.7538 57.5763 54.4931 57.5792C52.1584 57.5778 49.9886 56.958 48.3846 56.3524C46.7831 55.7433 45.7473 55.1381 45.7113 55.1168L46.2426 54.209L46.9079 55.0251C46.8656 55.0596 46.0968 55.6808 44.8412 56.3084C43.5871 56.9352 41.8359 57.576 39.824 57.5788C37.8715 57.576 36.1313 56.9335 34.8636 56.3126C33.5971 55.6868 32.7963 55.0699 32.7586 55.0393L33.4029 54.2086L33.9544 55.1047C33.8726 55.1406 30.0252 57.5614 25.3572 57.5788C22.0993 57.576 19.6729 56.5512 19.5957 56.5228L20.411 54.5817Z" fill="white"/>
<path d="M39.8268 79.2426L39.5622 79.8916C39.5103 79.8692 32.9065 77.1699 26.2785 70.7937C19.6515 64.4252 12.9961 54.3246 13 39.6448V0H66.6522V39.6448C66.6561 54.3246 60.0032 64.4252 53.3751 70.7937C46.746 77.1699 40.1418 79.8688 40.0917 79.8916L39.8268 80L39.5622 79.8916L39.8268 79.2426L39.5622 78.5923L39.6266 78.5659C40.342 78.2623 46.7816 75.4066 53.0057 69.1921C59.2323 62.9698 65.2455 53.4399 65.2498 39.6451V1.40277H14.4021V39.6448C14.4067 53.8829 20.815 63.5825 27.2503 69.781C30.4676 72.8777 33.6888 75.0873 36.1017 76.5189C37.0505 77.0829 38.0211 77.6096 39.0111 78.0976C39.3606 78.2676 39.6334 78.3931 39.8176 78.4753L40.0266 78.5652L40.0914 78.5915L39.8268 79.2426L39.5622 78.5923L39.8268 79.2426Z" fill="#3A5675"/>
<path d="M47.3423 27.4174C47.3423 27.4174 47.1105 28.8629 46.8161 29.6128C46.6692 30.7115 48.7344 27.1081 48.7344 27.1081L47.2801 25.3757L45.7344 30.4797C45.9662 29.0485 47.3423 27.4174 47.3423 27.4174Z" fill="white"/>
<path d="M47.343 27.4174L47.3587 27.4203C47.3576 27.4203 47.1272 28.8657 46.8314 29.6203L46.8168 29.6128L46.8328 29.6156L46.825 29.7099L46.8651 29.8069C46.9999 29.8155 47.4821 29.1338 47.9059 28.4579C48.1867 28.0113 48.4584 27.5592 48.7209 27.1017L48.7355 27.1084L48.7248 27.1191L47.2879 25.4091L45.75 30.485L45.7195 30.4772C45.9538 29.0396 47.3317 27.4089 47.3317 27.4075L47.3686 27.3648L47.3594 27.4203L47.343 27.4174L47.3548 27.4281C47.3519 27.4292 45.9797 29.0584 45.7508 30.4822L45.7348 30.4797L45.7188 30.4754L47.2737 25.3444L48.7533 27.1067L48.7483 27.1155C48.7426 27.1184 47.2076 29.8244 46.8648 29.8375L46.793 29.7091L46.8022 29.6114V29.6099L46.8036 29.6071C47.0963 28.86 47.327 27.4171 47.3281 27.4156L47.343 27.4174L47.3548 27.4281L47.343 27.4174Z" fill="white"/>
<path d="M33.6711 20.5671L51.6831 41.0685L50.1018 42.4592L32.0898 21.956" fill="#3A5675"/>
<path d="M25.3594 64.1372C27.3151 64.1379 29.2128 63.5999 30.6056 63.0502C31.1711 62.8276 31.7252 62.5771 32.2658 62.2996C32.4614 62.1964 32.6118 62.1129 32.7117 62.0553L32.8216 61.9906L32.8504 61.9746L33.4705 61.5909L34.0483 62.0371L34.0672 62.0517C34.1991 62.1509 34.9409 62.6875 36.0044 63.1853C37.0662 63.686 38.444 64.139 39.8251 64.1368C41.3801 64.139 42.8383 63.6223 43.9018 63.0886C44.3348 62.8719 44.7536 62.6282 45.156 62.3589C45.3032 62.2608 45.4145 62.1815 45.4856 62.1271L45.5653 62.0677L45.5813 62.0531L46.1481 61.593L46.7774 61.9614L46.8094 61.9802C47.1789 62.2014 50.8211 64.1535 54.4967 64.1368V66.2422C52.1588 66.2387 49.9908 65.6207 48.3879 65.0133C46.7838 64.4035 45.7498 63.7987 45.7125 63.7777L46.2466 62.8695L46.9086 63.686C46.8678 63.7201 46.0993 64.3417 44.8449 64.9707C43.5893 65.5958 41.8395 66.2383 39.8251 66.2419C37.8733 66.2365 36.1331 65.5944 34.8655 64.9732C33.5989 64.3495 32.7992 63.7318 32.7601 63.7034L33.4044 62.8695L33.9573 63.7653C33.873 63.8022 30.0267 66.2234 25.3597 66.2422V64.1372H25.3594Z" fill="white"/>
</svg>
