<svg width="80" height="80" viewBox="0 0 80 80" fill="none" xmlns="http://www.w3.org/2000/svg">
<g clip-path="url(#clip0_2491:55339)">
<path fill-rule="evenodd" clip-rule="evenodd" d="M39.648 0.254129H73.3044C74.321 0.254129 74.3334 0.254129 74.3359 1.25077C74.3359 15.256 74.3783 29.2587 74.3135 43.264C74.3011 45.3968 73.865 47.537 73.5137 49.6549C72.9968 52.5884 72.0268 55.4237 70.6384 58.059C68.6763 61.8553 66.023 65.2522 62.8148 68.0752C59.0425 71.4364 54.762 73.9828 50.2124 76.0483C47.2499 77.3988 44.1653 78.4726 41.138 79.6711C40.7043 79.8708 40.2592 80.0447 39.805 80.1918C39.5246 80.2713 39.2264 80.2599 38.9529 80.1595C36.3765 79.0482 33.8027 77.9345 31.2513 76.7684C29.8358 76.1487 28.4559 75.4508 27.1178 74.6779C24.5415 73.1357 21.9502 71.5958 19.4985 69.8642C15.9835 67.389 12.9518 64.2906 10.5537 60.7226C8.2546 57.3223 6.64612 53.5035 5.81967 49.483C5.24934 46.5732 4.97801 43.6128 5.0099 40.6478C4.9967 27.5022 4.9967 14.3558 5.0099 1.20841C5.0099 0.249146 5.0099 0.249146 6.12614 0.249146H39.648V0.254129Z" fill="white"/>
<path d="M39.648 0.249185H73.3044C74.321 0.249185 74.3334 0.249185 74.3359 1.24582C74.3359 15.2511 74.3783 29.2538 74.3135 43.259C74.3011 45.3918 73.865 47.5321 73.5137 49.65C72.9968 52.5835 72.0268 55.4187 70.6384 58.0541C68.6763 61.8504 66.023 65.2473 62.8148 68.0703C59.0425 71.4314 54.762 73.9779 50.2124 76.0434C47.2499 77.3938 44.1653 78.4677 41.138 79.6662C40.7043 79.8659 40.2592 80.0398 39.805 80.1869C39.5246 80.2663 39.2264 80.255 38.9529 80.1545C36.3765 79.0433 33.8027 77.9295 31.2513 76.7635C29.8358 76.1437 28.4559 75.4459 27.1178 74.673C24.5415 73.1307 21.9502 71.5909 19.4985 69.8593C15.9835 67.384 12.9518 64.2856 10.5537 60.7176C8.2546 57.3174 6.64612 53.4985 5.81967 49.478C5.24934 46.5683 4.97801 43.6078 5.0099 40.6429C4.9967 27.4972 4.9967 14.3508 5.0099 1.20346C5.0099 0.244202 5.0099 0.244202 6.12614 0.244202H39.648V0.249185ZM17.5426 37.9669C17.5426 38.8464 17.5625 39.726 17.5426 40.603C17.4554 43.5929 17.7768 46.5106 18.7884 49.341C20.0143 52.8115 22.3262 55.7944 25.3812 57.8473C27.8179 59.5436 30.5889 60.6998 33.5087 61.2383C35.6216 61.6196 37.7569 61.9858 39.8947 62.088C43.7299 62.2384 47.5567 61.6235 51.1517 60.2791C54.5577 59.0333 57.6298 57.2344 60.2236 54.7054C64.2624 50.7612 66.4077 45.92 66.5273 40.2193C66.5796 37.7725 66.171 35.403 65.0597 33.2104C62.7849 28.7256 58.918 26.5479 54.159 25.798C51.7907 25.3955 49.3647 25.4862 47.0331 26.0646C44.828 26.6301 42.8173 27.5371 41.1305 29.1118C39.7875 30.3576 38.6912 31.7877 38.0808 33.5518C37.3118 35.7625 37.1925 38.1472 37.737 40.4236C38.1555 42.2918 39.1698 43.9734 40.6272 45.2149C42.2218 46.6052 44.1403 47.2082 46.1834 47.4175C48.0222 47.6093 49.8237 47.263 51.5852 46.7473C51.9913 46.6277 52.2903 46.4557 52.0711 45.8428C51.6615 44.6668 51.3236 43.4668 51.0595 42.2499C50.9474 41.7516 50.7281 41.7167 50.3369 41.7865C49.6542 41.9086 48.9715 42.0631 48.2814 42.1179C45.6951 42.3147 43.6121 40.9717 43.4178 38.0466C43.305 36.7401 43.6031 35.4311 44.2705 34.3022C44.9379 33.1734 45.9412 32.2813 47.1402 31.7504C49.6069 30.6566 52.1109 30.6466 54.6524 31.4439C58.1232 32.5327 60.0815 34.9745 60.4453 38.5449C60.9187 43.1619 59.4213 47.1733 56.1224 50.4124C53.713 52.7794 50.7854 54.2494 47.5563 55.2037C45.0881 55.913 42.5326 56.2728 39.9644 56.2726C37.5016 56.3355 35.0467 55.9662 32.7114 55.1813C30.3818 54.3591 28.3461 53.1506 26.7316 51.2595C24.3471 48.4689 23.4128 45.1227 23.2807 41.5423C23.1711 38.5524 23.2583 35.5625 23.2583 32.5726C23.2583 31.3592 23.2583 31.3741 24.4867 31.3791C27.0131 31.3941 29.5396 31.3941 32.0661 31.3941C32.8509 31.3941 32.9082 31.3293 32.9107 30.517C32.9107 29.3958 32.8759 28.2746 32.9232 27.1559C32.9481 26.518 32.7463 26.3162 32.1134 26.3212C29.4549 26.3461 26.7989 26.3212 24.1403 26.3212C23.2733 26.3212 23.2608 26.3212 23.2608 25.4491V20.2392C23.2608 19.8132 23.1611 19.5964 22.6728 19.6064C21.1928 19.6338 19.7103 19.6412 18.2303 19.6064C17.6647 19.6064 17.5301 19.8181 17.5351 20.3538C17.5576 22.0979 17.5351 23.8271 17.5476 25.5637C17.5476 26.1343 17.433 26.376 16.7877 26.3586C14.9165 26.3112 13.0503 26.3586 11.1691 26.3337C10.7381 26.3337 10.5811 26.4707 10.5861 26.8943C10.601 28.1924 10.6135 29.488 10.5861 30.7861C10.5861 31.2844 10.7804 31.414 11.2538 31.409C13.1051 31.3866 14.9563 31.4265 16.8076 31.3966C17.3956 31.3966 17.5551 31.6059 17.5401 32.1665C17.5252 34.0975 17.5401 36.0309 17.5426 37.9669Z" fill="#CF2029"/>
</g>
<defs>
<clipPath id="clip0_2491:55339">
<rect width="80" height="80" fill="white"/>
</clipPath>
</defs>
</svg>
