<svg width="80" height="80" viewBox="0 0 80 80" fill="none" xmlns="http://www.w3.org/2000/svg">
<path fill-rule="evenodd" clip-rule="evenodd" d="M68.572 52.5759C68.3369 59.9412 65.2811 66.9148 59.9922 72.0078C54.7032 77.1009 47.6513 80 40.286 80C32.9207 80 25.8688 77.1401 20.5798 72.0078C15.2909 66.8756 12.2351 59.9412 12 52.5759V0H68.572V52.5759Z" fill="#2B5B9B"/>
<path fill-rule="evenodd" clip-rule="evenodd" d="M37.2687 44.427C39.3059 43.1342 40.4813 47.6396 41.0689 51.7532C41.4215 54.3781 42.7144 56.7679 44.6732 58.5308C46.6321 62.4486 52.1953 66.3271 63.4783 66.2096C59.2863 73.5357 50.2364 78.8639 40.3637 79.0989C30.1776 78.8247 21.206 73.4182 16.6223 65.3869L42.9886 65.3477L38.0523 56.3369C36.8769 60.764 32.254 64.0549 27.0826 64.094C20.971 64.1332 16.6223 59.2752 16.5439 53.6729C16.4656 48.0705 21.1669 43.8786 27.5136 43.0167C21.0885 40 17.6409 35.573 17.2883 28.0509C17.4842 19.9021 24.6145 13.5553 32.1757 13.3203C41.1081 12.6934 46.9847 19.8629 46.1228 28.2076C47.6899 26.6797 50.1189 24.9951 52.4303 24.9951C57.9543 24.9167 61.2844 28.9128 60.7359 34.0451C60.0307 38.7463 56.6223 42.1547 52.9005 42.7032C48.1992 36.9833 45.2217 36.8266 43.0278 37.4143C38.6399 38.7855 37.4646 43.1734 37.2687 44.427Z" fill="#D9EAF8"/>
<path fill-rule="evenodd" clip-rule="evenodd" d="M37.2695 44.3879C39.3459 43.2517 40.4429 47.5612 41.0697 51.6748C41.3831 54.3389 42.676 56.7679 44.674 58.5308C54.6642 64.76 61.5203 50.6954 62.4605 45.9941C57.2499 47.9922 54.7034 45.4848 52.9013 42.7032C48.2 36.9442 45.2225 36.8266 43.0286 37.3751C38.6407 38.7855 37.4654 43.1342 37.2695 44.3879Z" fill="#159CD8"/>
</svg>
