<svg width="80" height="80" viewBox="0 0 80 80" fill="none" xmlns="http://www.w3.org/2000/svg">
<path fill-rule="evenodd" clip-rule="evenodd" d="M8.41797 7.53928C29.5698 -2.09423 51.5593 -2.09423 72.7112 7.53928C72.7112 45.445 68.7321 61.9895 40.4599 79.5812C12.1876 61.9895 8.41797 45.445 8.41797 7.53928Z" fill="white"/>
<path d="M8.41797 7.53928C29.5698 -2.09423 51.5593 -2.09423 72.7112 7.53928C72.7112 45.445 68.7321 61.9895 40.4599 79.5812C12.1876 61.9895 8.41797 45.445 8.41797 7.53928Z" stroke="black" stroke-width="0.311"/>
<path fill-rule="evenodd" clip-rule="evenodd" d="M66.6382 46.911C66.2193 46.7016 66.2193 46.7016 66.2193 46.7016C66.2193 46.7016 64.9628 47.7487 62.6591 47.7487C60.146 47.7487 58.8895 46.7016 58.8895 46.7016C58.8895 46.7016 57.6329 47.7487 55.3293 47.7487C52.8162 47.7487 51.5596 46.7016 51.5596 46.7016C51.5596 46.7016 50.3031 47.7487 47.9994 47.7487C45.4863 47.7487 44.2298 46.7016 44.2298 46.7016C44.2298 46.7016 42.9732 47.7487 40.6696 47.7487C38.1565 47.7487 36.8999 46.7016 36.8999 46.7016C36.8999 46.7016 35.6434 47.7487 33.3397 47.7487C30.8266 47.7487 29.7795 46.7016 29.7795 46.7016C29.7795 46.7016 28.523 47.7487 26.2193 47.7487C23.7062 47.7487 22.4497 46.7016 22.4497 46.7016C22.4497 46.7016 21.1931 47.7487 18.8895 47.7487C16.3764 47.7487 15.3292 46.7016 15.3292 46.7016C15.3292 46.7016 14.4916 46.7016 14.2821 46.911L13.8633 45.2356C14.701 44.8168 14.9104 44.8168 14.9104 44.8168C14.9104 44.8168 16.1669 46.0733 18.4706 46.0733C20.9837 46.0733 22.0308 44.8168 22.0308 44.8168C22.0308 44.8168 23.2874 46.0733 25.8005 46.0733C28.3135 46.0733 29.3607 44.8168 29.3607 44.8168C29.3607 44.8168 30.6172 46.0733 32.9209 46.0733C35.434 46.0733 36.4811 44.8168 36.4811 44.8168C36.4811 44.8168 37.7376 46.0733 40.2507 46.0733C42.7638 46.0733 43.8109 44.8168 43.8109 44.8168C43.8109 44.8168 45.0675 46.0733 47.5806 46.0733C50.0937 46.0733 51.1408 44.8168 51.1408 44.8168C51.1408 44.8168 52.3973 46.0733 54.9104 46.0733C57.4235 46.0733 58.4706 44.8168 58.4706 44.8168C58.4706 44.8168 59.7272 46.0733 62.2402 46.0733C64.7533 46.0733 65.8005 44.8168 65.8005 44.8168C65.8005 44.8168 66.0099 45.0262 66.8476 45.445L66.6382 46.911ZM66.2193 48.377C66.2193 48.377 64.7533 49.4241 62.6591 49.4241C60.3554 49.4241 58.8895 48.377 58.8895 48.377C58.8895 48.377 57.6329 49.4241 55.3293 49.4241C52.8162 49.4241 51.5596 48.377 51.5596 48.377C51.5596 48.377 50.3031 49.4241 47.9994 49.4241C45.4863 49.4241 44.2298 48.377 44.2298 48.377C44.2298 48.377 42.9732 49.4241 40.6696 49.4241C38.1565 49.4241 36.8999 48.377 36.8999 48.377C36.8999 48.377 35.6434 49.4241 33.3397 49.4241C30.8266 49.4241 29.7795 48.377 29.7795 48.377C29.7795 48.377 28.523 49.4241 26.2193 49.4241C23.7062 49.4241 22.4497 48.377 22.4497 48.377C22.4497 48.377 21.1931 49.4241 18.8895 49.4241C16.3764 49.4241 15.1198 48.377 15.1198 48.377L15.9575 50.4712C15.9575 50.4712 16.7952 51.0995 18.8895 51.0995C21.4025 51.0995 22.4497 49.8429 22.4497 49.8429C22.4497 49.8429 23.7062 51.0995 26.2193 51.0995C28.7324 51.0995 29.7795 49.8429 29.7795 49.8429C29.7795 49.8429 31.0361 51.0995 33.3397 51.0995C35.8528 51.0995 36.8999 49.8429 36.8999 49.8429C36.8999 49.8429 38.1565 51.0995 40.6696 51.0995C43.1827 51.0995 44.2298 49.8429 44.2298 49.8429C44.2298 49.8429 45.4863 51.0995 47.9994 51.0995C50.5125 51.0995 51.5596 49.8429 51.5596 49.8429C51.5596 49.8429 52.8162 51.0995 55.3293 51.0995C57.8423 51.0995 58.8895 49.8429 58.8895 49.8429C58.8895 49.8429 60.146 51.0995 62.6591 51.0995C64.1251 51.0995 65.3816 50.6806 65.3816 50.6806L66.2193 48.377ZM63.2874 54.4503C63.2874 54.4503 63.0779 54.4503 62.4497 54.4503C59.9366 54.4503 58.68 53.1937 58.68 53.1937C58.68 53.1937 57.6329 54.4503 55.1198 54.4503C52.6067 54.4503 51.3502 53.1937 51.3502 53.1937C51.3502 53.1937 50.3031 54.4503 47.79 54.4503C45.2769 54.4503 44.0204 53.1937 44.0204 53.1937C44.0204 53.1937 42.9732 54.4503 40.4601 54.4503C37.9471 54.4503 36.6905 53.1937 36.6905 53.1937C36.6905 53.1937 35.6434 54.4503 33.1303 54.4503C30.6172 54.4503 29.5701 53.1937 29.5701 53.1937C29.5701 53.1937 28.3135 54.4503 26.0099 54.4503C23.4968 54.4503 22.2402 53.1937 22.2402 53.1937C22.2402 53.1937 20.9837 54.4503 18.68 54.4503C18.2612 54.4503 17.8423 54.4503 17.8423 54.4503L16.7952 52.5655C16.7952 52.5655 17.4235 52.7749 18.68 52.7749C21.1931 52.7749 22.2402 51.5183 22.2402 51.5183C22.2402 51.5183 23.4968 52.7749 26.0099 52.7749C28.523 52.7749 29.5701 51.5183 29.5701 51.5183C29.5701 51.5183 30.8266 52.7749 33.1303 52.7749C35.6434 52.7749 36.6905 51.5183 36.6905 51.5183C36.6905 51.5183 37.9471 52.7749 40.4601 52.7749C42.9732 52.7749 44.0204 51.5183 44.0204 51.5183C44.0204 51.5183 45.2769 52.7749 47.79 52.7749C50.3031 52.7749 51.3502 51.5183 51.3502 51.5183C51.3502 51.5183 52.6067 52.7749 55.1198 52.7749C57.6329 52.7749 58.68 51.5183 58.68 51.5183C58.68 51.5183 59.9366 52.7749 62.4497 52.7749C63.4968 52.7749 64.1251 52.5655 64.3345 52.5655L63.2874 54.4503ZM62.2402 56.3351L61.1931 57.8011C59.7272 57.5916 58.68 56.7539 58.68 56.7539C58.68 56.7539 57.4235 58.0105 55.1198 58.0105C52.6067 58.0105 51.3502 56.9634 51.3502 56.9634C51.3502 56.9634 50.0937 58.0105 47.79 58.0105C45.2769 58.0105 44.0204 56.9634 44.0204 56.9634C44.0204 56.9634 42.7638 58.0105 40.4601 58.0105C37.9471 58.0105 36.6905 56.9634 36.6905 56.9634C36.6905 56.9634 35.434 58.0105 33.1303 58.0105C30.6172 58.0105 29.5701 56.9634 29.5701 56.9634C29.5701 56.9634 28.3135 58.0105 26.0099 58.0105C23.4968 58.0105 22.2402 56.9634 22.2402 56.9634C22.2402 56.9634 21.612 57.5916 19.9366 58.0105C19.5177 57.3822 19.3083 56.9634 18.8895 56.5445C20.9837 56.3351 22.2402 55.288 22.2402 55.288C22.2402 55.288 23.4968 56.5445 26.0099 56.5445C28.523 56.5445 29.5701 55.288 29.5701 55.288C29.5701 55.288 30.8266 56.5445 33.1303 56.5445C35.6434 56.5445 36.6905 55.288 36.6905 55.288C36.6905 55.288 37.9471 56.5445 40.4601 56.5445C42.9732 56.5445 44.0204 55.288 44.0204 55.288C44.0204 55.288 45.2769 56.5445 47.79 56.5445C50.3031 56.5445 51.3502 55.288 51.3502 55.288C51.3502 55.288 52.6067 56.5445 55.1198 56.5445C57.6329 56.5445 58.68 55.288 58.68 55.288C58.68 55.288 60.146 56.3351 62.2402 56.3351ZM20.9837 59.4765C21.4025 59.267 22.2402 58.6388 22.2402 58.6388C22.2402 58.6388 23.4968 59.8953 26.0099 59.8953C28.523 59.8953 29.5701 58.6388 29.5701 58.6388C29.5701 58.6388 30.8266 59.8953 33.1303 59.8953C35.6434 59.8953 36.6905 58.6388 36.6905 58.6388C36.6905 58.6388 37.9471 59.8953 40.4601 59.8953C42.9732 59.8953 44.0204 58.6388 44.0204 58.6388C44.0204 58.6388 45.2769 59.8953 47.79 59.8953C50.3031 59.8953 51.3502 58.6388 51.3502 58.6388C51.3502 58.6388 52.6067 59.8953 54.9104 59.8953C57.4235 59.8953 58.68 58.6388 58.68 58.6388C58.68 58.6388 59.3083 59.267 59.9366 59.4765L59.0989 60.733C58.68 60.5236 58.68 60.5236 58.68 60.5236C58.68 60.5236 57.4235 61.5707 55.1198 61.5707C52.6067 61.5707 51.5596 60.5236 51.5596 60.5236C51.5596 60.5236 50.3031 61.5707 47.9994 61.5707C45.4863 61.5707 44.2298 60.5236 44.2298 60.5236C44.2298 60.5236 42.9732 61.5707 40.6696 61.5707C38.1565 61.5707 36.8999 60.5236 36.8999 60.5236C36.8999 60.5236 35.6434 61.5707 33.3397 61.5707C30.8266 61.5707 29.7795 60.5236 29.7795 60.5236C29.7795 60.5236 28.523 61.5707 26.2193 61.5707C23.7062 61.5707 22.4497 60.5236 22.4497 60.5236L21.8214 60.733C21.4025 60.1047 21.1931 59.8953 20.9837 59.4765ZM23.9156 63.0367C24.5439 63.8744 24.7533 64.0838 25.8005 64.9215C28.1041 64.9215 29.5701 63.8744 29.5701 63.8744C29.5701 63.8744 30.8266 64.9215 33.1303 64.9215C35.6434 64.9215 36.6905 63.8744 36.6905 63.8744C36.6905 63.8744 37.9471 64.9215 40.4601 64.9215C42.9732 64.9215 44.0204 63.8744 44.0204 63.8744C44.0204 63.8744 45.2769 64.9215 47.79 64.9215C50.3031 64.9215 51.3502 63.8744 51.3502 63.8744C51.3502 63.8744 52.6067 65.1309 55.1198 64.9215L57.0046 63.0367C57.0046 63.0367 57.2141 63.2461 55.1198 63.2461C53.0256 63.2461 51.5596 61.9895 51.5596 61.9895C51.5596 61.9895 50.3031 63.2461 47.9994 63.2461C45.4863 63.2461 44.2298 61.9895 44.2298 61.9895C44.2298 61.9895 42.9732 63.2461 40.6696 63.2461C38.1565 63.2461 36.8999 61.9895 36.8999 61.9895C36.8999 61.9895 35.6434 63.2461 33.3397 63.2461C30.8266 63.2461 29.7795 61.9895 29.7795 61.9895C29.7795 61.9895 28.523 63.2461 26.2193 63.2461C25.1722 63.2461 24.5439 63.2461 23.9156 63.0367ZM52.3973 67.8534L53.8633 66.5969C52.1879 66.3874 51.5596 65.5498 51.5596 65.5498C51.5596 65.5498 50.3031 66.8063 47.9994 66.8063C45.4863 66.8063 44.2298 65.5498 44.2298 65.5498C44.2298 65.5498 42.9732 66.8063 40.6696 66.8063C38.1565 66.8063 36.8999 65.5498 36.8999 65.5498C36.8999 65.5498 35.6434 66.8063 33.3397 66.8063C30.8266 66.8063 29.7795 65.5498 29.7795 65.5498C29.7795 65.5498 29.3607 66.178 27.4758 66.5969L28.9418 67.8534C29.3607 67.644 29.7795 67.2251 29.7795 67.2251C29.7795 67.2251 31.0361 68.4817 33.3397 68.4817C35.8528 68.4817 36.8999 67.2251 36.8999 67.2251C36.8999 67.2251 38.1565 68.4817 40.6696 68.4817C43.1827 68.4817 44.2298 67.2251 44.2298 67.2251C44.2298 67.2251 45.4863 68.4817 47.9994 68.4817C50.5125 68.4817 51.5596 67.2251 51.5596 67.2251C51.5596 67.2251 51.769 67.644 52.3973 67.8534ZM31.0361 69.9477C32.2926 70.9948 32.502 71.4136 33.3397 71.8325C35.434 71.8325 36.8999 70.7854 36.8999 70.7854C36.8999 70.7854 38.1565 72.0419 40.6696 72.0419C43.1827 72.0419 44.2298 70.7854 44.2298 70.7854C44.2298 70.7854 45.0675 71.8325 47.5806 71.8325C48.8371 70.7854 48.4183 71.2042 49.8842 69.7382C49.8842 69.7382 50.3031 69.9477 47.9994 69.9477C45.4863 69.9477 44.2298 68.6911 44.2298 68.6911C44.2298 68.6911 42.9732 69.9477 40.6696 69.9477C38.1565 69.9477 36.8999 68.6911 36.8999 68.6911C36.8999 68.6911 35.434 69.9477 33.3397 69.9477C31.2455 70.1571 31.0361 69.9477 31.0361 69.9477L35.434 73.2984L36.8999 74.555C36.8999 74.555 37.9471 75.3927 40.4601 75.3927C42.9732 75.3927 44.0204 74.555 44.0204 74.555L45.6957 73.2984C44.6486 73.089 44.2298 72.4607 44.2298 72.4607C44.2298 72.4607 42.9732 73.7173 40.6696 73.7173C38.1565 73.7173 37.1094 72.4607 37.1094 72.4607C37.1094 72.4607 36.6905 73.089 35.8528 73.2984L31.0361 69.9477Z" fill="#007BBA"/>
<path fill-rule="evenodd" clip-rule="evenodd" d="M40.4594 2.93195C48.8364 2.93195 55.5379 9.63352 55.5379 18.0105C55.5379 26.178 48.8364 33.089 40.4594 33.089C32.0824 33.089 25.3809 26.3874 25.3809 18.0105C25.3809 9.63352 32.0824 2.93195 40.4594 2.93195Z" fill="#DD2A1B"/>
<path fill-rule="evenodd" clip-rule="evenodd" d="M37.9468 38.1151C35.2243 37.6963 32.7112 36.8586 30.4076 35.6021L33.1301 30.9947L32.5018 30.5759L29.7793 35.1832C27.0568 33.5078 24.5437 31.2042 22.8683 28.2722L21.4023 29.3193L27.0568 44.3979C27.8945 44.3979 29.5699 43.1413 29.5699 43.1413C29.5699 43.1413 30.8264 44.8167 33.3395 44.8167C35.8526 44.8167 36.8997 43.1413 36.8997 43.1413C36.8997 43.1413 38.1563 44.8167 40.4599 44.8167C42.973 44.8167 44.2296 43.1413 44.2296 43.1413C44.2296 43.1413 45.4861 44.8167 47.9992 44.8167C50.5123 44.8167 51.5594 43.1413 51.5594 43.1413C51.5594 43.1413 53.2348 44.3979 54.0725 44.3979L59.727 29.3193L58.261 28.2722C56.5856 31.2042 54.0725 33.5078 51.35 35.1832L48.6275 30.5759C48.418 30.7853 48.2086 30.7853 47.9992 30.9947L50.7217 35.6021C48.418 36.8586 45.6955 37.6963 43.1824 38.1151L42.7636 32.6701C41.2976 32.8795 40.0411 32.8795 38.7845 32.6701L37.9468 38.1151Z" fill="black"/>
<path fill-rule="evenodd" clip-rule="evenodd" d="M9.46484 8.58637L9.88369 18.4293C10.7214 43.1413 12.1874 58.6387 40.4596 77.2775C68.7319 58.6387 70.1978 43.1413 71.0355 18.4293L71.4544 8.58637C51.1402 -0.837715 29.9884 -0.628292 9.46484 8.58637ZM40.4596 76.6492C40.2502 76.6492 40.2502 76.4398 40.0408 76.4398C21.1926 64.0838 15.7476 52.9843 13.0251 42.3036C15.3287 43.7696 19.7266 45.2356 21.6114 43.1413L13.2345 7.53925C33.5486 0.418829 47.58 0.418829 67.6847 7.53925C65.1716 19.6858 61.8209 30.9947 59.3078 43.1413C61.402 45.0262 65.3811 43.5602 68.1036 42.0942C64.9622 52.9843 59.936 64.2932 40.4596 76.6492Z" fill="black"/>
<path fill-rule="evenodd" clip-rule="evenodd" d="M38.9934 19.4764L25.3809 18.4293L39.4123 17.5916L40.4594 3.56018L41.5065 17.5916L55.5379 18.4293L41.9254 19.267L48.4175 30.3665C48.2081 30.5759 47.9987 30.5759 47.7892 30.7853L41.7159 20.5235L42.5536 32.4607C40.8782 32.6701 40.0405 32.6701 38.5746 32.4607L39.4123 20.3141L33.339 30.7853L32.7107 30.3665L38.9934 19.4764Z" fill="white"/>
</svg>
