<svg width="80" height="80" viewBox="0 0 80 80" fill="none" xmlns="http://www.w3.org/2000/svg">
<g clip-path="url(#clip0_2491:55340)">
<path d="M7.625 43.3298C7.64944 43.4031 7.66166 43.4642 7.6861 43.5375C7.66166 43.4642 7.63722 43.4031 7.625 43.3298Z" fill="#EDF8F6"/>
<path d="M10.3027 52.6165C10.3394 52.6654 10.3638 52.7143 10.4005 52.7631C10.3638 52.7143 10.3272 52.6654 10.3027 52.6165Z" fill="#EDF8F6"/>
<path d="M46.543 15.4697C46.5918 15.433 46.6407 15.4086 46.6896 15.3719C46.6407 15.3964 46.5918 15.433 46.543 15.4697Z" fill="#EDF8F6"/>
<path d="M46.7148 15.3597C46.7515 15.3353 46.7759 15.3108 46.8126 15.2742C46.7759 15.2986 46.7393 15.3353 46.7148 15.3597Z" fill="#EDF8F6"/>
<path d="M40.373 14.7365L40.4097 14.712L40.4341 14.7487C40.4097 14.7487 40.3853 14.7365 40.373 14.7365Z" fill="#EDF8F6"/>
<path d="M14.7989 37.5866C14.7867 37.5744 14.7622 37.5622 14.75 37.5622C14.7744 37.5744 14.7867 37.5744 14.7989 37.5866Z" fill="#FEFEFE"/>
<path d="M10.0816 48.523C10.0694 48.5352 10.045 48.5474 10.0328 48.5474C10.0205 48.5474 10.0083 48.523 9.99609 48.5107C10.0205 48.523 10.0572 48.523 10.0816 48.523Z" fill="#FAFDFC"/>
<path d="M38.7356 79.7312C38.2346 79.5723 26.4674 75.6866 16.7897 65.0191C6.96533 54.205 6.03666 42.2056 6.01222 41.7046L6 41.6068V0H73.1086V41.6068L73.0964 41.7046C73.0597 42.2056 72.1311 54.1928 62.3067 65.0313C52.629 75.6988 40.8618 79.5845 40.3608 79.7434L39.5299 80.0122L38.7356 79.7312Z" fill="#2961AD"/>
<path d="M39.1029 78.5703C38.6141 78.4115 27.1524 74.6357 17.6946 64.2004C8.16354 53.6918 7.25931 42.1078 7.22266 41.6191V41.5702V1.22192H71.8874V41.5702V41.6191C71.8507 42.1078 70.9587 53.6918 61.4154 64.2004C51.9576 74.6357 40.4959 78.4115 40.0071 78.5703L39.555 78.717L39.1029 78.5703Z" fill="white"/>
<path d="M53.5217 13.5635C53.0696 13.258 52.5931 13.2336 52.0799 13.3802C50.7968 13.759 49.5138 14.1011 48.2308 14.4799C47.7053 14.6388 47.2899 15.0176 46.8133 15.2742C46.7767 15.2986 46.7522 15.3231 46.7156 15.3597L46.6911 15.3719C46.6423 15.4086 46.5445 15.4697 46.5445 15.4697L46.4468 15.5186C46.4468 15.5186 45.1393 16.2395 44.5039 16.6305C44.1862 16.826 43.9296 16.8138 43.6119 16.6183C43.0131 16.2517 42.3899 15.9096 41.7912 15.5552C41.7423 15.5308 40.4226 14.7488 40.4226 14.7488C40.4226 14.7488 40.2027 14.6266 40.1905 14.6143C39.1762 14.0156 39.1762 14.0156 38.1743 14.761C37.9421 14.932 37.7099 15.0909 37.4778 15.262C36.5247 15.9707 36.5369 15.9585 35.596 15.2131C34.2519 14.1622 32.8711 13.148 31.5269 12.1094C31.2703 11.9016 31.087 11.9383 30.8304 12.0972C28.1666 13.7346 25.4784 15.3475 22.8146 16.9849C22.4969 17.1804 22.2402 17.2048 21.9103 17.0338C21.1405 16.6305 20.3462 16.264 19.5764 15.8485C19.3198 15.7141 19.0999 15.7141 18.8311 15.8241C17.3525 16.4472 15.874 17.0704 14.371 17.6447C13.479 17.9991 12.5259 18.1457 11.5728 18.158C10.6563 18.0724 9.72765 18.0358 8.79898 18.0969C8.76232 18.0846 8.72566 18.0602 8.67678 18.048C8.66456 13.1602 8.66456 8.28473 8.65234 3.39699C8.65234 2.60273 8.65234 2.60273 9.43438 2.60273C21.6904 2.60273 33.9342 2.60273 46.1901 2.60273C54.2549 2.60273 62.3074 2.60273 70.3722 2.59052V2.62717L70.3967 2.63939C70.3967 2.96931 70.3844 3.28702 70.3844 3.61694C70.3844 11.2785 70.3722 18.94 70.3722 26.5893L70.36 26.6015C69.1747 26.1738 68.0017 25.7339 66.8164 25.3063C66.3032 25.0985 65.8144 24.8541 65.289 24.7075C64.4092 24.4631 63.8593 23.8766 63.3461 23.1801C62.002 21.3716 57.4808 15.4941 57.4564 15.4453C57.322 15.2131 57.0043 15.0542 57.0043 15.0542C55.8556 14.5532 54.6948 14.0645 53.5217 13.5635Z" fill="#1791CF"/>
<path d="M58.164 30.5239C56.3556 30.8905 54.5471 31.2449 52.7264 31.6114C50.6369 32.0391 48.5474 32.4546 46.5434 33.1877C46.0058 33.3832 45.3704 33.5421 45.4681 34.3608C45.5048 34.6418 45.236 34.6052 45.0771 34.6174C44.4051 34.6663 43.733 34.7029 43.0732 34.7396C42.0223 34.8007 40.9592 34.8618 39.9083 34.9351C39.5906 34.9595 39.3707 34.9351 39.3218 34.5319C39.2241 33.8109 38.7842 33.5543 38.0632 33.5177C34.2019 33.2977 30.3406 33.371 26.4671 33.4077C23.5222 33.4321 20.5651 33.4199 17.6203 33.5543C17.3759 33.5543 17.1315 33.5543 16.8871 33.5543C16.8016 33.5543 16.7283 33.5543 16.6427 33.5543C16.3617 33.5543 16.0684 33.5665 15.7874 33.5665C14.9198 33.5665 14.0522 33.5665 13.1847 33.5665C11.7306 33.5421 10.2765 33.6765 8.83458 33.5421C8.8468 33.5054 8.8468 33.4566 8.82236 33.4199C8.82236 33.2977 8.82236 33.1755 8.81014 33.0533C8.8468 31.1104 8.8468 29.1554 8.77349 27.2125C8.81014 26.9192 8.82236 26.626 8.76127 26.3327C8.79793 26.296 8.79793 26.2716 8.76127 26.2349C8.83458 25.6973 8.77349 25.1719 8.72461 24.6342C8.79793 24.512 8.79793 24.3776 8.72461 24.2554C8.72461 24.0477 8.72461 23.8522 8.72461 23.6444C8.73683 23.4 8.76127 23.1557 8.76127 22.9235C8.76127 21.6649 8.67573 20.4063 8.77349 19.1477C8.87124 19.1477 8.98122 19.1355 9.07897 19.1355C10.1054 19.1477 11.144 19.1722 12.1705 19.1844C15.3719 19.2088 18.5734 19.2333 21.7871 19.2577C21.8726 19.2577 21.9459 19.2577 22.0315 19.2577C22.8379 19.3554 23.6566 19.3677 24.4631 19.3432C24.793 19.3554 25.123 19.3554 25.4529 19.3677C25.4895 19.3677 25.5384 19.3677 25.5751 19.3677C27.689 19.4899 29.803 19.5754 31.9047 19.7465C35.4849 20.0519 39.053 20.5041 42.6088 21.0173C47.0322 21.6527 51.4312 22.4225 55.7935 23.3756C59.3982 24.1576 62.9907 25.0374 66.522 26.125C66.6809 26.1738 66.8398 26.1861 66.9986 26.2227C67.1819 26.3571 67.3896 26.3938 67.6096 26.4304C67.6585 26.4427 67.6951 26.4549 67.744 26.4671C67.9028 26.6382 68.135 26.6137 68.3427 26.6626C68.416 26.687 68.4894 26.7115 68.5627 26.7237C68.9415 26.8703 69.3081 27.0048 69.6869 27.1514C69.7602 27.1636 69.8457 27.188 69.919 27.2003C70.2123 27.9334 70.139 28.0923 69.418 28.2389C67.9517 28.5444 66.4732 28.7155 65.0313 29.1431C64.6036 29.1431 64.1759 29.1798 63.7849 29.3753L63.736 29.3631L63.6872 29.3875C62.4775 29.5342 61.2922 29.7663 60.1313 30.1085C60.1313 30.1085 60.1313 30.0962 60.1313 30.1085C59.6792 30.1329 59.2393 30.2062 58.8117 30.3773H58.7994C58.665 30.3528 58.5306 30.3406 58.4206 30.4506C58.3229 30.4873 58.2496 30.4995 58.164 30.5239Z" fill="#2961AD"/>
<path d="M70.5921 29.1798C70.6043 31.9414 70.6043 34.7152 70.6287 37.4768C70.6287 37.9289 70.421 37.9655 70.0667 37.9411C67.4028 37.77 64.7512 37.6112 62.0874 37.4279C59.2037 37.2446 56.3199 37.0491 53.4483 36.8414C51.7499 36.7192 50.0391 36.597 48.3407 36.4381C47.3387 36.3526 46.4222 35.3873 46.2756 34.3975C46.2267 34.0309 46.4833 34.0065 46.691 33.9209C47.9619 33.4322 49.2938 33.1267 50.6135 32.8212C54.1937 32.0025 57.8107 31.3427 61.4276 30.7072C64.2625 30.2063 67.1096 29.7419 69.9567 29.2531C70.0911 29.2287 70.2377 29.1921 70.3721 29.1554C70.4577 29.1676 70.5188 29.1676 70.5921 29.1798Z" fill="#1FAC4C"/>
<path d="M41.8284 36.5114C41.2786 36.5114 40.7287 36.4992 40.1788 36.5114C39.7756 36.5236 39.6167 36.267 39.5923 35.9493C39.5679 35.5949 39.91 35.6805 40.0933 35.6683C41.8773 35.5461 43.6613 35.4361 45.4576 35.3261C45.7508 35.3017 45.8853 35.4727 46.0197 35.7049C46.6062 36.6947 47.4371 37.159 48.6102 37.2323C52.9969 37.5012 57.3714 37.8555 61.7582 38.161C64.3975 38.3443 67.0369 38.5276 69.6763 38.6498C70.3239 38.6742 70.4461 38.8942 70.4339 39.4685C70.4217 42.4622 69.8962 45.3826 69.0042 48.2297C67.1102 54.3027 63.8355 59.5571 59.4732 64.1515C56.2961 67.4996 52.667 70.3101 48.7201 72.7051C46.1052 74.2936 43.3803 75.6744 40.5943 76.9574C39.6167 77.4095 38.8714 77.1285 38.0649 76.7619C33.2505 74.5868 28.7049 71.9475 24.5625 68.6605C20.9089 65.7645 17.7075 62.4408 15.1048 58.5551C14.4694 57.6142 14.5916 57.6875 15.4713 57.3331C21.691 54.8404 27.8251 52.1277 33.8981 49.305C35.0223 48.7796 36.1342 48.2297 37.1851 47.5699C38.2848 46.8978 38.3826 46.1402 37.4539 45.2116C36.5008 44.2707 35.3033 43.6841 34.2036 42.9632C33.7759 42.6822 33.3482 42.4133 32.9816 42.0468C32.7617 41.8268 32.7861 41.6924 33.0672 41.5458C33.6659 41.2281 34.3258 41.0814 34.9734 40.947C37.3317 40.4216 39.7145 40.0306 42.0606 39.444C42.9282 39.2241 43.7835 38.9797 44.5656 38.5276C44.9933 38.2832 45.3476 37.9777 45.2865 37.4278C45.2254 36.8902 44.7611 36.8291 44.3578 36.6947C43.5392 36.4136 42.6838 36.5236 41.8284 36.5114Z" fill="#1791CF"/>
<path d="M8.83449 34.4341C10.6552 34.2997 12.4881 34.3608 14.321 34.2997C14.8097 34.2875 15.2985 34.2752 15.7873 34.263C16.0317 34.263 16.2761 34.263 16.5204 34.263C18.8177 34.3363 21.1149 34.1897 23.4122 34.1775C27.7256 34.153 32.039 34.0431 36.3524 34.1775C36.8656 34.1897 37.3666 34.2875 37.8676 34.263C38.4542 34.2264 38.5886 34.5563 38.6619 35.0206C38.7352 35.4972 38.7596 35.9859 38.9429 36.4503C39.1873 37.0613 39.615 37.3179 40.2626 37.3056C41.4357 37.269 42.6209 37.1712 43.794 37.3423C44.0262 37.379 44.3928 37.3545 44.4416 37.5622C44.5027 37.8677 44.1361 37.941 43.904 38.0388C42.2177 38.7842 40.397 39.053 38.613 39.444C36.6701 39.8717 34.6784 40.0917 32.821 40.8493C31.8191 41.2525 31.7091 41.9123 32.5033 42.6455C33.3709 43.452 34.434 43.9896 35.4238 44.625C35.937 44.955 36.438 45.2971 36.8901 45.7126C37.4644 46.2502 37.4399 46.5801 36.7557 46.9711C34.8128 48.0831 32.7844 49.024 30.756 49.9527C26.6381 51.8344 22.4835 53.6185 18.3167 55.3781C17.6324 55.6713 16.9115 55.8913 16.2761 56.2945C16.0317 56.2823 15.8362 56.3678 15.6651 56.5389C15.384 56.5633 15.103 56.6733 14.8831 56.8199C14.4309 57.1376 14.1621 56.9666 13.9299 56.5389C13.4656 55.6713 12.9768 54.8282 12.5003 53.9606C11.9138 52.5432 11.2295 51.1746 10.7529 49.7083C10.5574 49.1095 10.1908 48.5352 10.3008 47.8632C10.9484 47.9854 11.6694 47.741 12.2315 48.2908C12.317 48.3764 12.4636 48.3397 12.5736 48.2542C12.9035 47.9976 13.3068 47.9487 13.71 47.8754C13.6978 47.912 13.71 47.9487 13.7467 47.9731C13.4778 48.8896 13.209 49.806 12.928 50.7103C12.7325 51.3701 13.319 51.2724 13.6122 51.3701C14.0277 51.5167 13.8689 51.1013 13.8689 50.9424C13.9055 50.1237 14.0277 49.3295 14.5287 48.6452C14.8097 48.1198 15.1763 48.0098 15.6651 48.413C15.9217 48.6208 16.1905 48.4986 16.4716 48.413C17.0825 48.2175 17.278 48.3397 17.4002 48.9751C17.5102 49.4883 17.608 50.0138 17.7057 50.527C17.9135 51.5778 18.2067 51.7489 19.3187 51.4068C18.7077 50.9669 18.5733 50.3315 18.4755 49.6838C18.3778 49.0362 18.5244 48.9018 19.1476 49.0484C19.4042 49.1095 19.5875 49.2317 19.7341 49.4395C19.8441 49.5861 19.9296 49.7572 20.1374 49.7816C20.8461 49.8427 21.4937 50.3437 22.2513 50.0749C22.4835 49.9893 22.6179 50.2093 22.7645 50.3437C23.1678 50.7469 23.5954 51.1257 24.0842 51.419C24.4997 51.6512 24.9151 51.4801 24.9518 51.0402C25.0618 49.9038 24.7318 48.7185 25.3795 47.6554C25.1473 46.8978 25.4772 46.2746 25.8805 45.6759C25.9293 45.5904 25.9904 45.4559 25.9049 45.3338C25.8438 45.3582 25.7949 45.3704 25.7338 45.4071C25.0007 45.7981 25.0495 45.7859 24.8418 44.9427C24.6341 44.1118 24.4508 43.2198 23.4977 42.841C22.7401 42.059 22.0436 41.2158 21.5548 40.2261L21.567 40.1894L21.5426 40.165C21.4448 39.273 20.9927 38.7231 20.0763 38.5765C19.6853 38.5154 19.2576 38.4543 18.9521 38.1488C18.4878 37.6722 17.889 37.4278 17.2658 37.3667C15.9706 37.2568 14.712 36.9879 13.429 36.7069C12.097 36.4258 10.6918 36.4503 9.31104 36.3892C8.95668 36.377 8.8467 36.2792 8.8467 35.9371C8.85892 35.4727 8.83448 35.0084 8.82227 34.5318C8.83448 34.5074 8.8467 34.4707 8.83449 34.4341Z" fill="#1FAC4C"/>
<path d="M21.4825 46.7878C21.287 46.8367 21.1037 46.8856 20.9082 46.9344C21.3603 45.8592 23.0099 45.4804 24.1219 46.1402C24.4396 46.3235 24.1463 46.5312 24.1952 46.7145C23.963 46.7145 23.7187 46.7267 23.4865 46.7267L23.462 46.7023L23.4376 46.7145C22.9855 46.5556 22.5334 46.4823 22.069 46.7023C21.8613 46.6901 21.678 46.7267 21.4825 46.7878Z" fill="#1FAC4C"/>
</g>
<defs>
<clipPath id="clip0_2491:55340">
<rect width="80" height="80" fill="white"/>
</clipPath>
</defs>
</svg>
