<svg width="100%" height="100%" viewBox="0 0 80 80" fill="none" xmlns="http://www.w3.org/2000/svg">
<path fill-rule="evenodd" clip-rule="evenodd" d="M66.2716 49.4208C66.2716 56.5869 60.5926 61.2818 55.8395 65.9151L39.7284 80L22.7531 65.9151C18.1235 61.2818 13 56.6486 13 49.4826V0.0617761L66.3333 0L66.2716 49.4208Z" fill="#008C44"/>
<path fill-rule="evenodd" clip-rule="evenodd" d="M65.5304 47.444V46.1467H51.1476C51.1476 46.1467 50.4069 40.4015 49.9131 37.7452H65.5304V36.3861H55.2217C54.481 32.3089 53.7402 29.6525 52.0118 24.3398C50.3452 19.027 47.5674 11.7374 45.7155 8.77219C43.8637 5.80694 41.9501 3.64478 39.6662 3.64478C37.3822 3.64478 35.4069 5.80694 33.6168 8.77219C31.7649 11.7374 28.9871 19.027 27.3205 24.3398C25.6538 29.6525 24.9131 32.3089 24.1106 36.3861H13.7402V37.7452H29.3575C28.802 40.3398 28.1229 46.1467 28.1229 46.1467H13.7402V47.444H65.5304Z" fill="white"/>
<path fill-rule="evenodd" clip-rule="evenodd" d="M49.6054 46.085C49.1733 39.8456 47.8153 33.2973 46.3955 28.2317C44.9758 23.166 44.1733 21.0039 43.6795 19.8301C43.1857 18.6564 41.5807 15.8765 39.7906 15.8765H39.7289C37.9388 15.8765 36.3338 18.6564 35.84 19.8301C35.3462 21.0039 34.5437 23.2278 33.1239 28.2317C31.7042 33.2355 30.2844 39.7838 29.9141 46.085H49.6054Z" fill="#008C44"/>
<path d="M54.6046 59.2432C54.4811 59.1815 51.8268 57.6371 47.8145 56.834C47.2589 54.1776 44.5429 51.7683 44.3577 51.583L43.2466 50.7799V55.4749H44.4811V53.4981C45.0984 54.2394 46.0244 55.4749 46.333 56.5251C44.7281 56.278 41.333 55.9691 38.6787 56.834C37.3206 57.2664 36.2095 57.8224 35.2836 58.5019C35.3453 58.3166 35.4071 58.193 35.4071 58.0077C35.654 56.9575 35.4688 55.3513 34.6046 54.2394C34.049 53.5598 33.0614 52.7567 31.1478 52.7567C29.7281 52.7567 27.691 53.8069 26.5799 55.7838C25.7157 57.3282 25.0367 59.9228 27.1355 63.5676C27.7527 64.6177 30.4071 67.8919 34.5429 69.0038C35.8392 69.3745 37.0737 69.4981 38.2466 69.4981C41.5182 69.4981 44.2342 68.2008 45.9626 65.8533C47.9997 63.0116 48.1848 60.4787 47.9379 58.193C50.2836 58.6872 52.0737 59.4903 53.0614 59.9228L51.0243 61.5907C51.0243 61.5907 50.1602 60.0463 50.2836 60.2316C50.3453 60.417 49.7898 59.3668 49.296 59.305C48.9256 59.2432 48.5552 59.3668 48.5552 59.3668L50.654 63.5676L55.2219 59.6139L54.6046 59.2432ZM44.8515 64.9884C42.8145 67.8301 39.1725 68.7567 34.9132 67.6448C31.1478 66.6564 28.7404 63.6293 28.3083 62.888C26.5799 59.861 27.012 57.7606 27.7527 56.5251C28.6787 54.9189 30.2836 54.1776 31.1478 54.1776C32.1972 54.1776 32.9997 54.4865 33.4935 55.166C34.1725 55.9691 34.1725 57.2046 34.049 57.8224C33.8021 58.8108 33.4318 59.1815 32.7527 59.4286C32.1972 59.6757 31.0861 59.4903 30.5305 59.305L30.1602 60.5405C30.3453 60.6023 32.0737 61.0965 33.3083 60.6023L33.4935 60.4788C33.1231 61.0965 32.9379 61.776 32.9379 62.5174C32.8762 63.5058 33.0614 64.3089 33.37 64.8649C32.9379 64.9884 32.4441 65.0502 32.4441 65.0502C32.4441 65.0502 32.6293 65.4208 32.8145 65.6679C32.9997 65.915 33.1848 66.1621 33.1848 66.1621C33.2466 66.1621 33.4935 66.1622 34.2342 65.9768C35.1602 66.6564 36.3947 66.8417 37.2589 66.9035C37.5676 66.9652 37.8762 66.9652 38.1848 66.9652C41.1478 66.9652 42.9379 65.2355 42.9997 65.1737L43.6787 64.4942L38.9256 62.2703L38.6169 62.4556C38.6169 62.4556 37.3206 63.3204 36.0861 63.8764C35.5923 64.1235 35.0984 64.3089 34.6046 64.4324C34.296 64 34.1725 63.3822 34.1725 62.4556C34.2342 60.5405 35.9626 58.9344 38.9873 57.9459C41.6416 57.0811 45.2219 57.5135 46.5182 57.7606C46.8268 60.417 46.5799 62.5791 44.8515 64.9884ZM36.0244 65.3591C36.2095 65.2973 36.4564 65.1737 36.6416 65.112C37.6293 64.6795 38.6169 64.0618 39.049 63.7529L41.333 64.8031C40.5305 65.2355 39.2342 65.7915 37.4441 65.6062C36.8885 65.6062 36.4564 65.4826 36.0244 65.3591Z" fill="white"/>
</svg>


