<svg width="80" height="80" viewBox="0 0 80 80" fill="none" xmlns="http://www.w3.org/2000/svg">
<path d="M72.1366 0.675629V38.1113C72.1366 48.4607 67.3305 57.5509 60.0982 64.691C59.8986 64.8906 59.6837 65.0902 59.484 65.2745C59.2844 65.4741 59.0695 65.6584 58.8698 65.858C58.7624 65.9501 58.6549 66.0422 58.5474 66.1497C57.9025 66.7486 57.2268 67.3167 56.5512 67.8848C51.6222 71.9386 45.9101 75.1939 39.9677 77.4818C27.6069 72.7217 16.1827 63.7697 10.8852 52.1459C8.91975 47.8157 7.79883 43.1171 7.79883 38.1267V0.675629H72.1366Z" fill="white"/>
<path fill-rule="evenodd" clip-rule="evenodd" d="M59.2078 26.1344C58.701 26.5182 58.2865 27.2092 57.8412 27.501C57.3959 27.7927 56.0907 28.3762 54.0945 29.0365C52.0984 29.6968 51.2692 30.7255 50.2557 31.1862C49.2423 31.6468 48.7509 31.2169 48.106 31.8772C47.4765 32.5528 47.3843 33.2131 46.7394 33.9348C46.0945 34.6564 46.2174 35.3935 44.7893 35.7313C43.3613 36.0845 42.6396 35.9002 41.7644 36.3762C40.8891 36.8369 40.2289 37.2515 39.8143 38.142C39.3997 39.0326 38.8009 39.3551 38.9698 40.1382C39.1387 40.9213 40.4285 42.0883 40.8891 43.2246C41.3498 44.3609 42.1329 44.4991 42.3786 44.9751C42.6089 45.4357 42.4093 46.4799 42.225 47.5547C42.0408 48.6296 42.3786 48.8292 41.4112 49.7659C40.4438 50.6872 38.5091 52.1459 38.0945 52.7294C37.6799 53.3129 36.989 54.6795 36.1444 54.9712C35.2999 55.263 35.4381 55.2937 34.225 55.4933C33.012 55.6929 32.6281 55.6468 32.4592 55.9386C32.2903 56.215 32.321 56.952 31.8757 57.4741C31.4458 57.9962 30.8623 58.1497 30.9698 58.7179C31.0926 59.3014 31.2922 59.071 31.8143 59.3014C32.3364 59.5317 32.3364 59.977 32.5667 60.3148C32.797 60.668 36.9736 60.1766 36.9736 60.1766L36.4362 62.9712V63.0173C36.5129 63.263 36.6051 63.5087 36.7279 63.739C36.8661 63.954 36.9122 64 36.8047 64.2457C36.6972 64.4914 35.9448 65.3359 35.5149 66.0115C35.0849 66.6718 34.5475 66.6257 35.1924 66.9021C35.8373 67.1785 35.6377 67.501 36.7126 66.9482C37.7874 66.4108 37.465 66.2265 38.3709 66.1958C39.2615 66.1651 39.4918 65.8887 39.6914 66.3647C39.8911 66.8407 39.3997 67.1632 39.9064 67.3474C40.3978 67.5317 40.321 67.5778 41.012 67.3628C41.703 67.1478 41.6569 67.0557 41.9179 67.2092C42.179 67.3628 42.0254 67.5931 42.7932 67.5163C43.5456 67.4396 43.4995 67.6545 43.9141 67.2092C44.3287 66.7639 44.3901 66.7332 44.5744 66.9482C44.774 67.1785 44.8047 67.2092 45.4496 68.5758C46.0792 69.9424 45.6492 69.5432 46.5705 69.4971C47.4918 69.4357 47.0005 69.881 47.845 68.9136C48.6742 67.9309 49.3652 68.3302 49.2116 67.3474C49.058 66.3647 48.8738 66.4261 49.4112 65.8887C49.9486 65.3513 49.3652 65.0135 50.3939 65.0595C51.4227 65.1056 50.7318 65.3513 51.2231 64.6142C51.7145 63.8772 51.607 63.2937 52.6358 63.5394C53.6646 63.785 52.4822 63.5854 53.8028 64.1229C55.1233 64.6603 55.3076 64.3685 55.3076 64.3685C55.7836 65.167 56.1521 66.0422 56.3824 66.9482C56.4746 67.3014 56.536 67.6085 56.582 67.8695C51.6531 71.9232 45.941 75.1785 39.9985 77.4664C27.6377 72.7064 16.1982 63.7543 10.916 52.1305C13.4496 51.7006 18.7778 50.8714 18.7318 51.3935C18.6703 52.0845 19.2231 52.5298 19.4074 52.7601C19.5763 52.9904 19.346 53.2207 20.0523 53.2207C20.5437 53.2054 21.0197 53.0979 21.4803 52.929L22.5552 52.2073C22.5552 52.2073 22.9544 51.6852 23.0158 51.3935C23.0619 51.1017 23.1387 50.6104 23.1387 50.6104L23.7836 49.858C23.7836 49.858 24.0753 49.1363 23.845 48.952C23.6147 48.7831 23.2615 49.0135 23.0926 48.6603C22.9237 48.3071 23.3843 48.215 22.9237 47.7543C22.463 47.2937 22.2788 47.3551 22.4016 46.9405C22.5245 46.5413 22.9851 46.9405 22.6934 45.4664C22.4016 43.977 22.2941 44.0691 22.463 43.4703C22.6319 42.8561 22.8162 42.4261 22.9237 41.8733C23.0312 41.3206 23.3536 40.9213 23.7989 41.1516C24.2289 41.382 23.9218 41.4741 24.8124 41.6737C25.703 41.8887 26.655 41.8887 27.5456 41.6737C28.559 41.4434 29.1732 41.0288 29.8949 40.7524C30.6166 40.4607 30.9698 40.7217 32.1675 40.2303C33.3652 39.739 33.7644 40.0614 33.8258 39.2169C33.8872 38.3724 33.8872 37.2668 33.8872 37.2668C33.8872 37.2668 34.1483 37.0365 34.6703 37.1133C35.1924 37.19 35.6838 37.5432 36.2058 36.0691C36.7279 34.5797 37.6953 35.025 37.8642 33.7966C38.0331 32.5682 38.1559 31.6468 38.3248 30.7255C38.4938 29.8042 38.3556 30.4031 39.3383 29.62C40.321 28.8369 40.2903 28.1612 40.8124 27.8234C41.3344 27.4703 42.5628 26.2879 43.8834 25.8733C45.2193 25.4587 45.4803 24.8906 45.8949 25.3513C46.2941 25.8119 47.3229 26.4875 47.8911 27.071C48.4592 27.6545 48.9966 28.1459 50.0101 28.1459C51.0235 28.1459 52.1291 27.9463 52.9122 27.5317C53.6953 27.1171 54.2788 26.7486 55.2922 26.2265C56.3057 25.7044 56.7663 25.0595 58.1943 25.2898L59.6224 25.5202C59.5456 25.4895 59.6991 25.7505 59.2078 26.1344Z" fill="#63B346"/>
<path d="M39.9676 78.1881L39.7219 78.096C30.8006 74.6718 22.7392 69.19 17.0117 62.6795C10.5472 55.3244 7.12305 46.833 7.12305 38.1113V0H72.8121V38.1113C72.8121 46.833 69.3879 55.3397 62.9234 62.6795C57.196 69.19 49.1192 74.6718 40.2133 78.096L39.9676 78.1881ZM8.47429 1.35125V38.1113C8.47429 46.5106 11.7756 54.6948 18.0252 61.7889C23.5683 68.0844 31.3534 73.382 39.9676 76.7447C48.5818 73.382 56.3668 68.0844 61.91 61.7889C68.1595 54.6948 71.4609 46.4952 71.4609 38.1113V1.35125H8.47429Z" fill="#0095D5"/>
<path fill-rule="evenodd" clip-rule="evenodd" d="M19.4378 6.833C19.4378 6.833 18.9464 6.98655 19.6835 6.6948C21.2497 6.03453 22.9387 5.71208 24.6278 5.74279C27.0386 5.81956 28.6969 5.91169 29.6643 6.01918C30.2938 6.0806 30.9234 6.20344 31.5376 6.35699C31.6451 6.3877 31.7679 6.40306 31.8908 6.40306C32.1057 6.43377 33.2113 6.81764 33.6873 7.30901C34.1633 7.80037 34.3936 8.26102 34.6854 8.85987C34.9771 9.45872 34.9771 9.62763 35.3457 9.98079C35.5299 10.1651 35.7295 10.334 35.9445 10.4722C36.1902 10.6564 36.1441 10.7485 36.3744 10.7793C36.6048 10.81 37.0501 10.81 37.2497 10.7178C37.4493 10.6257 37.8639 10.3493 38.2938 10.1497C38.7238 9.95008 38.7238 9.91937 39.0616 9.82724C39.7065 9.65834 39.9522 10.0422 40.0597 10.119C40.1672 10.1958 40.1211 10.2418 40.3361 10.1958C40.5203 10.1651 40.6892 10.1497 40.8735 10.1343C41.3648 10.1036 41.4263 10.2111 41.4263 10.2111C41.4263 10.2111 40.6278 10.4568 40.505 10.4875C40.3821 10.5182 40.29 10.6718 40.029 11.0096C39.7679 11.3474 39.0155 12.1612 39.0616 12.2841C39.1077 12.4069 39.3533 12.4837 39.7065 12.3762C40.0597 12.2687 41.2113 11.977 41.4416 11.9616C42.3936 11.8541 42.9464 12.6219 43.1 12.7754C43.5453 13.2514 43.9599 13.7735 44.3284 14.3109C44.6355 14.833 45.741 16.5988 45.8946 16.9213C46.0482 17.2438 46.6777 18.8253 46.7391 19.0403C46.8466 19.501 46.9695 19.9616 47.123 20.4069C47.338 21.0057 47.5529 21.7889 47.6144 21.9731C47.7372 22.357 47.3687 22.0038 47.1844 21.8042C47.0155 21.62 46.8773 21.3896 46.7698 21.1593L46.6777 20.975C46.6777 20.975 46.6624 21.2821 46.5856 21.2668C46.5088 21.2514 45.9253 20.1305 45.9253 20.1305C45.9253 20.1305 46.0021 20.7754 45.8639 20.6986C45.7257 20.6219 45.1422 19.5624 45.1422 19.5624C45.1422 19.5624 45.1576 19.9923 45.0654 20.1305C44.9733 20.2687 44.4819 19.4395 44.4819 19.4395C44.4819 19.4395 44.4052 19.6391 44.2823 19.5163C44.1595 19.3935 44.1902 19.1631 43.8217 18.9635C43.4378 18.7639 43.2689 18.4875 43.1 18.38C42.9311 18.2725 42.6086 17.8733 42.5011 17.7965C42.409 17.7351 40.7814 16.0307 39.1384 16.1689C38.6931 16.1996 38.5242 16.4146 38.3706 16.4453C38.0635 16.5067 38.2631 16.3224 38.1403 16.3071C38.0174 16.2764 38.0328 16.2764 37.7871 16.4146C37.5414 16.5528 37.6489 16.261 37.5107 16.3224C37.3725 16.3839 37.2343 16.4606 37.265 16.3839C37.2804 16.3071 37.265 16.3224 37.1576 16.3532C37.0501 16.3839 37.004 16.4606 36.9119 16.3992C36.8197 16.3378 35.9138 16.2457 35.5299 17.213C35.3917 17.5509 35.2842 18.3186 34.7929 19.4395C34.3015 20.5605 33.8869 22.142 33.7487 22.4798C33.672 22.6948 33.5952 22.9098 33.5338 23.1248C33.5338 23.1248 33.672 23.785 33.3495 22.2034C33.027 20.6219 33.1959 20.5297 32.8428 20.023C32.4896 19.5163 32.551 19.4242 32.2593 19.4395C31.9675 19.4549 31.6297 19.4856 31.6604 19.3935C31.6911 19.3013 31.6758 19.2246 31.4915 19.2246C31.3073 19.2246 31.2151 19.3628 31.0923 19.2092C30.9695 19.0557 31.1077 18.9789 30.8466 19.071C30.5856 19.1631 30.2785 18.9328 29.4493 19.4702C28.6201 20.0077 28.052 20.2994 28.052 20.2994C28.052 20.2994 27.9906 19.8234 28.6508 19.3474C29.3111 18.8714 31.2458 17.4587 31.9368 16.8906C32.505 16.4299 33.027 15.9232 33.503 15.3704C33.6412 15.1708 33.6873 15.309 33.5798 14.9405C33.4723 14.572 33.5491 14.5413 33.2727 14.2802C32.9963 14.0192 32.8888 13.9885 32.9196 13.9271C32.9349 13.8503 32.9042 14.0192 32.7967 13.8503C32.7199 13.7274 32.6739 13.6046 32.6432 13.4664C32.6432 13.4203 32.6278 13.6046 32.5357 13.4818C32.4435 13.3282 32.3668 13.1747 32.3207 13.0057C32.3207 13.0057 32.2439 13.1593 32.1518 13.0672C32.0597 12.975 32.075 12.6679 32.0443 12.6065C32.029 12.5451 31.9522 12.7294 31.8908 12.6065C31.814 12.4376 31.7526 12.2687 31.7219 12.0998C31.7219 12.0998 31.8293 12.6372 31.6297 12.1152C31.4301 11.5931 31.2458 10.6718 30.171 10.1651C29.9867 10.0729 29.8025 10.0883 29.6029 10.0269C29.4032 9.96544 29.3265 9.90402 29.3418 9.8426C29.3572 9.79653 29.3725 9.88866 29.0347 9.8426C28.6969 9.79653 28.3898 9.68905 28.4666 9.59692C28.5434 9.50479 28.7737 9.52014 28.2055 9.48943C27.6374 9.45872 27.4685 9.56621 27.5146 9.41265C27.5606 9.2591 27.576 9.21304 27.576 9.21304C27.576 9.21304 26.7468 9.24375 26.5625 9.12091C26.3783 8.99807 26.2862 8.89058 26.3629 8.87523C26.4397 8.85987 25.933 8.81381 25.5645 8.73703C25.1959 8.66026 25.1499 8.6449 25.2113 8.55277C25.242 8.5067 25.2727 8.46064 25.3034 8.41457C24.981 8.42993 24.6585 8.39922 24.3514 8.3378C23.9675 8.23031 23.8908 8.23031 23.9982 8.13818C24.1057 8.04605 24.1364 8.04605 24.1364 8.04605C24.1364 8.04605 23.7065 8.0307 23.1844 7.98463C22.6624 7.93857 22.5242 7.98463 22.6316 7.90786C22.862 7.80037 23.0923 7.69288 23.3226 7.61611C23.3226 7.61611 22.0635 7.64682 21.8025 7.5854C21.5414 7.52398 21.4493 7.57004 21.5568 7.46256C21.6643 7.35507 22.5088 7.06333 22.5088 7.06333C22.5088 7.06333 22.8159 7.00191 21.7718 7.03262C20.7276 7.06333 20.5894 7.15546 20.4512 7.09404C20.313 7.03262 20.1288 7.0019 20.4052 6.92513C20.6048 6.86371 20.8044 6.80229 20.9887 6.71016L19.4378 6.833Z" fill="#0095D5"/>
<path d="M38.877 10.1958C38.877 10.1344 38.9384 10.0729 38.9998 10.0883C39.0612 10.1036 39.1226 10.1497 39.1073 10.2111C39.1073 10.2726 39.0459 10.3186 38.9844 10.3186C38.923 10.3186 38.877 10.2572 38.877 10.1958Z" fill="white"/>
<path d="M39.1391 10.0883C39.1084 10.0576 39.0624 10.0269 39.0163 10.0269C38.9702 10.0269 38.9242 10.0422 38.8935 10.073C38.8627 10.1037 38.832 10.1497 38.832 10.1958C38.832 10.2879 38.8935 10.3801 39.0009 10.3801H39.0163C39.1084 10.3801 39.1852 10.3033 39.2006 10.2111C39.1852 10.1651 39.1698 10.119 39.1391 10.0883ZM39.0009 10.2726C38.9702 10.2726 38.9395 10.2419 38.9395 10.2111C38.9395 10.1958 38.9549 10.1804 38.9549 10.1651C38.9702 10.1497 38.9856 10.1497 39.0009 10.1497C39.0163 10.1497 39.0316 10.1651 39.047 10.1651C39.0624 10.1651 39.0624 10.1958 39.0624 10.2111C39.0624 10.2419 39.0316 10.2726 39.0009 10.2726Z" fill="white"/>
<path fill-rule="evenodd" clip-rule="evenodd" d="M48.6272 54.8023C48.6272 54.8023 48.8268 54.6641 49.7481 54.9252C50.6694 55.1862 53.2337 56.1075 54.2472 56.1996C55.2606 56.2918 55.8594 56.2611 55.9669 56.2764C56.1051 56.2918 55.9823 56.1689 56.4737 56.6757C56.965 57.1824 58.5005 58.8407 58.7155 58.6718C58.9305 58.5029 59.1147 59.0403 58.9612 58.2572C58.8076 57.4741 59.3604 57.5202 58.7155 56.9674C58.1166 56.4607 57.7328 56.1996 58.0245 56.1536C61.6022 55.6008 70.6157 50.3033 62.7692 40.5989C62.4928 40.2457 62.4007 40.691 61.9861 40.1996C61.5715 39.7083 61.6944 39.4012 61.2951 38.9559C60.8959 38.5106 60.8959 38.4799 60.6349 38.4799C60.3738 38.4799 60.3738 38.787 60.0053 38.7102C59.6368 38.6334 59.4832 38.5413 59.2836 38.7563C59.084 38.9712 59.2222 39.2323 58.8844 39.0019C58.5466 38.7716 55.3681 35.762 55.061 35.6545C54.7539 35.547 54.3854 35.4396 54.2625 35.6699C54.1397 35.9002 53.6483 36.5144 53.4948 37.1747C53.3412 37.8349 53.1109 38.9405 53.157 39.3551C53.203 39.7697 52.988 39.8311 53.3105 40.0154C53.633 40.1996 52.7117 40.2764 53.8479 40.3225C54.9842 40.3685 56.2894 40.1536 56.8575 40.1689C57.4257 40.1843 57.6099 40.1382 58.132 40.3532C58.6541 40.5682 59.5447 41.0749 59.4832 41.7812C59.4218 42.4875 59.2222 43.3474 59.8211 43.5624C60.4199 43.7774 60.466 43.5931 60.9573 43.9002C61.4487 44.2073 61.7558 44.7447 61.6176 45.19C61.4794 45.6353 61.4948 46.2035 61.3873 46.5566C61.2798 46.9098 61.4026 47.1708 61.0802 46.8637C60.7577 46.5566 60.8038 46.7716 60.3738 46.1574C59.9439 45.5432 59.2836 44.9904 58.8998 44.929C58.6234 44.8829 58.5312 44.8829 57.9784 45.3897C57.6867 45.6507 56.6118 47.9079 56.2587 48.0307C55.9055 48.1536 55.1224 47.9847 53.3412 48.5989C51.56 49.2131 50.6541 49.3513 49.4564 50.2726C48.2587 51.1939 48.0744 51.3628 47.7213 51.5624C47.3681 51.762 46.9842 52.2687 47.322 52.5912C47.6598 52.9137 47.5063 52.7908 47.9209 53.0365C48.3355 53.2822 48.7347 53.405 48.4429 53.5586C48.1512 53.7121 47.9669 53.5279 47.8287 53.835C47.6905 54.1421 48.0437 54.2342 48.1819 54.7563C48.3201 55.2783 48.228 55.4626 48.4737 55.8311C48.5658 56 48.704 56.1689 48.8422 56.3071C48.7808 56.1689 48.7347 56.0307 48.704 55.8772C48.6272 55.5701 48.5811 55.2937 48.5197 55.1094C48.489 54.9866 48.5504 54.8638 48.6426 54.8177L48.6272 54.8023Z" fill="#0095D5"/>
<path d="M52.3585 51.7773C52.3738 51.5777 52.5581 51.4242 52.7577 51.4395C52.9573 51.4549 53.1109 51.6392 53.0955 51.8388C53.0802 52.0384 52.8959 52.1919 52.6963 52.1766C52.4967 52.1612 52.3431 51.9923 52.3585 51.7773Z" fill="white"/>
<path d="M52.7592 51.4088C52.7439 51.4088 52.7439 51.4088 52.7285 51.4088C52.5135 51.4088 52.3446 51.5624 52.3293 51.7774C52.3139 51.9923 52.4521 52.1766 52.6671 52.2073H52.6978H52.7285C52.9281 52.2073 53.1124 52.0537 53.1278 51.8388C53.1431 51.6238 52.9896 51.4396 52.7592 51.4088ZM52.7132 52.1612C52.5135 52.1459 52.3754 51.977 52.3907 51.7927C52.4061 51.6085 52.575 51.4549 52.7592 51.4856C52.9435 51.501 53.097 51.6699 53.0663 51.8541C53.0663 52.023 52.8974 52.1612 52.7132 52.1612Z" fill="white"/>
<path fill-rule="evenodd" clip-rule="evenodd" d="M48.7199 53.405C48.766 53.4203 48.7967 53.4357 48.8274 53.451C48.8581 53.4664 48.9502 53.4664 48.9349 53.5125C48.9195 53.6046 48.812 53.6046 48.7353 53.6507C48.6124 53.7121 48.5049 53.7428 48.4896 53.881C48.4742 54.0192 48.5971 54.0499 48.6892 54.1267C48.7813 54.2188 48.9042 54.2802 49.027 54.2956L49.1959 54.3109C49.5644 54.3416 49.7641 54.1574 50.1326 54.1881L50.3783 54.2034L50.7468 54.1727L51.3456 54.2342C51.0232 54.0345 50.8389 53.881 50.4551 53.8503L50.1787 53.8196C50.0558 53.8042 49.933 53.7581 49.8255 53.6967C49.3955 53.5278 49.1499 53.405 48.6892 53.3589C48.6739 53.3589 48.6738 53.3743 48.6585 53.3743L48.7199 53.405Z" fill="white"/>
<path d="M58.7481 55.048C58.6867 55.048 58.6099 55.048 58.5332 55.0326C58.0725 55.0019 57.6272 54.8944 57.1973 54.7255L57.2587 54.5873C57.6733 54.7562 58.1032 54.8484 58.5485 54.8944C59.1781 54.9558 59.562 54.7409 59.9765 54.357C60.0687 54.2649 60.1454 54.1881 60.2069 54.1113C60.2836 54.0345 60.3604 53.9578 60.4525 53.8656C60.5293 53.7889 60.6061 53.7428 60.6829 53.7121C60.7443 53.6814 60.8211 53.6353 60.8825 53.5739C61.036 53.4357 61.1128 53.2361 61.1128 53.0365C61.1435 52.7908 61.036 52.5758 60.8518 52.453C60.8057 52.4069 60.7597 52.4223 60.6675 52.4223C60.6368 52.4223 60.5907 52.4223 60.5447 52.4223C60.514 52.4223 60.4679 52.4223 60.4372 52.4069C60.2376 52.3915 60.084 52.3762 59.8844 52.4223C59.7616 52.453 59.6694 52.4837 59.5773 52.5297C59.4698 52.5758 59.347 52.6219 59.1781 52.6526C58.9017 52.6679 58.6253 52.7294 58.3643 52.8061C58.2721 52.8368 58.18 52.8829 58.1032 52.9136C57.8882 53.0057 57.704 53.0825 57.4122 53.0979L57.3969 52.9443C57.6579 52.929 57.8268 52.8676 58.0418 52.7754C58.1186 52.7447 58.2107 52.6986 58.3182 52.6679C58.5946 52.5912 58.8863 52.5297 59.1627 52.5144C59.3009 52.499 59.4084 52.453 59.5159 52.4069C59.608 52.3762 59.7155 52.3301 59.8383 52.2994C60.0687 52.2534 60.2376 52.2687 60.4372 52.2841C60.4986 52.2841 60.56 52.2994 60.6215 52.2994H60.6368C60.7289 52.2994 60.8211 52.2994 60.9132 52.3608C61.1435 52.5144 61.2664 52.7908 61.2357 53.0825C61.2357 53.3129 61.1435 53.5585 60.9593 53.7274C60.8825 53.8042 60.8057 53.8349 60.7289 53.881C60.6522 53.9117 60.5907 53.9578 60.5293 54.0192C60.4372 54.1113 60.3604 54.1881 60.2836 54.2649C60.2069 54.3416 60.1454 54.4184 60.038 54.5105C59.6848 54.8176 59.3009 55.048 58.7481 55.048Z" fill="white"/>
<path d="M51.2997 54.1574C51.0233 53.9885 50.839 53.8503 50.4859 53.8349L50.2095 53.8042C50.0866 53.7889 49.9791 53.7428 49.8717 53.6967C49.7795 53.666 49.7028 53.6353 49.6413 53.6046C49.3496 53.4818 49.1039 53.3896 48.7354 53.3589C48.72 53.3589 48.7047 53.3589 48.7047 53.3743C48.7047 53.3743 48.7047 53.3743 48.6893 53.3743L48.5972 53.405L48.72 53.4357C48.7507 53.4357 48.7661 53.451 48.7814 53.4664C48.7968 53.4664 48.8122 53.4818 48.8275 53.4818C48.8429 53.4818 48.8582 53.4971 48.8736 53.4971C48.9196 53.5125 48.9196 53.5125 48.9196 53.5278C48.9196 53.5739 48.8736 53.5892 48.8122 53.6046C48.7814 53.6046 48.7507 53.62 48.7354 53.6353L48.7047 53.6507C48.5972 53.6967 48.4897 53.7582 48.4743 53.8963C48.459 54.0192 48.5511 54.0806 48.6432 54.142C48.6586 54.1574 48.674 54.1574 48.6893 54.1727C48.7968 54.2649 48.9196 54.3263 49.0425 54.357L49.2114 54.3724C49.2421 54.3724 49.2728 54.3724 49.3035 54.3724C49.4571 54.3724 49.5799 54.3416 49.6874 54.3109C49.8256 54.2802 49.9638 54.2342 50.148 54.2495L50.4091 54.2802L50.7776 54.2495L51.3765 54.2956L51.3918 54.2495L51.2997 54.1574ZM50.4091 54.1881L50.1634 54.1727C49.9791 54.1574 49.8256 54.1881 49.6874 54.2342C49.5492 54.2649 49.411 54.3109 49.2267 54.2956L49.0578 54.2802C48.935 54.2495 48.8275 54.2034 48.72 54.1113C48.7047 54.096 48.6893 54.096 48.674 54.0806C48.5818 54.0192 48.5204 53.9885 48.5204 53.8963C48.5358 53.7889 48.6125 53.7582 48.72 53.6967L48.7507 53.6814C48.7814 53.666 48.7968 53.666 48.8275 53.6507C48.8889 53.6353 48.9657 53.6046 48.9657 53.5278C48.9657 53.4664 48.9196 53.451 48.8736 53.4357C48.8582 53.4357 48.8429 53.4357 48.8429 53.4203C48.8429 53.4203 48.8275 53.4203 48.8275 53.405C49.15 53.4357 49.3649 53.5278 49.626 53.6353C49.7028 53.666 49.7795 53.6967 49.8563 53.7274C49.9638 53.7889 50.0866 53.8196 50.2248 53.8503L50.5012 53.881C50.8237 53.9117 51.0233 54.0345 51.269 54.1881L50.7776 54.142L50.4091 54.1881Z" fill="white"/>
</svg>
