<svg width="80" height="80" viewBox="0 0 80 80" fill="none" xmlns="http://www.w3.org/2000/svg">
<g clip-path="url(#clip0_2491:55335)">
<path fill-rule="evenodd" clip-rule="evenodd" d="M40.8071 2C53.5117 8.54475 61.5963 21.7113 62.2893 35.4167C74.2239 44.1174 80.6916 56.8219 79.9217 71.4514C69.2191 78.8431 52.1257 79.9981 40.5761 73.4533C28.6416 79.9211 10.8553 78.8431 -0.00134143 70.7584C-0.386327 55.975 6.08143 43.0395 18.709 34.8778C19.7869 21.3263 27.7176 8.54475 40.2681 2H40.8071ZM44.888 9.46872C55.8216 18.6314 60.5954 32.6449 56.8995 46.8123C56.2835 49.0452 55.4366 51.2012 54.4356 53.2801C50.5088 51.2782 46.7359 48.8912 42.809 46.8123L42.5781 45.9654L42.7321 28.949L42.5011 28.718C35.4943 28.41 29.1806 29.796 23.2518 32.3369C24.8687 22.0193 30.8745 12.3946 40.4221 6.69682C42.1161 7.15881 43.425 8.39076 44.888 9.46872ZM38.0352 46.7353L23.0208 55.359C23.2518 57.2069 24.6377 58.8239 25.5617 60.4408C28.2566 64.2137 31.8755 67.9865 35.6483 70.6044V70.8354C26.0237 74.8393 13.0882 73.9153 4.38749 68.5255C4.1565 60.8258 6.69741 53.9731 10.8553 47.9673C17.708 38.8046 27.3326 33.7998 38.1122 33.0298L38.0352 46.7353ZM75.7638 69.2185C65.9082 75.3783 50.3548 74.8393 40.5761 68.6795C36.1873 65.9846 31.4905 61.9808 28.7956 57.3609L40.0372 50.8932L40.7301 50.9702C45.7349 53.8961 50.6628 56.8989 55.5906 59.8248C59.6714 54.358 61.4424 47.8133 62.2893 40.8835C71.375 48.0443 75.6868 58.1309 75.7638 69.2185Z" fill="#414B1E"/>
</g>
<defs>
<clipPath id="clip0_2491:55335">
<rect width="80" height="80" fill="white"/>
</clipPath>
</defs>
</svg>
