<svg width="80" height="80" viewBox="0 0 80 80" fill="none" xmlns="http://www.w3.org/2000/svg">
<path d="M40.0976 79.3347H39.266C21.5251 79.3347 7.11073 64.9203 7.16618 47.124L7.3325 0.166321H72.1419L72.2528 47.1795C72.2528 64.9203 57.8938 79.3347 40.0976 79.3347Z" fill="white"/>
<path d="M68.6499 3.82536H39.7656V36.3132H68.6499V3.82536Z" fill="#15A638"/>
<path d="M39.7651 36.535H10.8809V47.2349C10.8809 54.8857 13.9301 62.2592 19.3077 67.6369C24.6854 73.0146 32.059 76.1192 39.7097 76.1192V36.535H39.7651Z" fill="#FFED00"/>
<path d="M71.1996 52.3909C67.2633 49.1199 64.4359 48.5655 60.3333 49.508C56.5634 50.3396 52.9044 51.6701 49.5225 53.4442C48.58 55.6064 46.0298 61.1504 42.9806 63.0353C42.0381 63.7006 40.9293 64.1996 39.8205 64.4768V67.0825H18.8087C18.0326 66.2509 17.3119 65.4193 16.6466 64.5322H39.8205V60.6514C40.3195 60.4851 40.8184 60.2633 41.3174 59.9861C42.9806 59.0437 45.3091 54.4976 46.5842 51.5593L46.806 51.0603L47.3049 50.7831C47.4712 50.6722 52.0173 47.9002 59.6681 46.1261C64.4913 45.0173 68.0395 45.7935 71.6985 48.3437C71.5322 49.6188 71.3659 51.0049 71.1996 52.3909ZM39.7651 76.1192C33.833 76.1192 28.0672 74.2897 23.1885 70.9078H39.7651V76.1192ZM14.1518 60.596C13.7082 59.7644 13.3202 58.8773 12.9321 57.9903H39.7651V58.1012V60.596H14.1518ZM31.2273 54.0541H19.474C19.5295 52.5572 20.1393 51.0603 21.2481 50.0069C22.3569 48.9536 23.7983 48.3437 25.3507 48.3437C26.903 48.3437 28.3444 48.9536 29.4532 50.0069C30.562 51.0603 31.1719 52.5572 31.2273 54.0541ZM10.8808 47.2349V36.535H39.7651V36.3132V20.79C34.7755 18.7942 31.2827 14.9688 29.4532 12.474C28.8434 13.3056 28.0672 14.359 27.2356 15.4123C23.1331 20.6791 21.7471 21.1227 20.6937 21.1227C19.5295 21.1227 18.3652 21.1781 17.5891 21.289C16.203 23.1185 12.1005 28.2744 7.8316 31.49V26.7775C10.4927 24.2273 12.9875 21.4553 15.2051 18.517L15.7041 17.8517L16.5357 17.7963C16.5911 17.7963 18.5315 17.6299 20.4719 17.5745C21.6916 16.8538 25.3507 12.3077 28.0672 8.31601L29.7304 5.87665L31.1164 8.48233C31.1719 8.53777 34.2211 14.0818 39.7651 16.9092V3.82536H68.6493V26.6667H66.9861C59.0028 26.1677 58.8919 16.4657 58.8919 16.0776H55.0111C55.0665 18.4061 55.51 20.6791 56.3971 22.8413C56.8406 24.0055 57.4505 25.0589 58.1712 26.0568C56.2308 25.447 54.4567 24.3382 53.0152 22.8413C49.966 19.7367 48.4137 15.1906 48.4692 9.31393L44.5884 9.25849C44.5329 12.2523 44.9764 15.246 45.8635 18.1289C44.8101 17.8517 43.7013 17.6854 42.5925 17.6299L42.3153 21.5107C46.6951 21.8434 48.4692 23.5066 48.6355 23.6729C49.1344 24.3382 49.6888 25.0035 50.2987 25.6133C53.3479 28.7179 57.5059 30.492 61.8302 30.5475H68.7048V36.3132H39.7651V36.535V54.1095H34.9972C34.9418 51.6147 33.8884 49.1753 32.1143 47.4012C30.3403 45.6272 27.9009 44.6292 25.3507 44.6292C22.8004 44.6292 20.4165 45.6272 18.587 47.4012C16.7575 49.1753 15.7595 51.5592 15.7041 54.1095H11.657C11.1026 51.8365 10.8808 49.508 10.8808 47.2349ZM7 0V47.2349C7 64.754 21.2481 79.9446 39.7651 79.9446C57.0624 79.9446 72.5301 66.0291 72.5301 47.1795V0H7Z" fill="#26336A"/>
</svg>
