<svg width="80" height="80" viewBox="0 0 80 80" fill="none" xmlns="http://www.w3.org/2000/svg">
<path d="M40.4513 80H39.8716L39.6232 79.9172C39.0435 79.6687 26.3727 74.2029 19.4162 67.2464C12.7909 60.4555 6 51.8427 6 38.5921V0H74.323V38.5921C74.323 51.8427 67.5321 60.4555 60.824 67.1636C53.8675 74.1201 41.1967 79.6687 40.617 79.8344L40.4513 80Z" fill="#527F66"/>
<path d="M8.65039 2.6501V38.5921C8.65039 50.9317 15.11 59.0476 21.3212 65.3416C27.1183 71.2215 37.6359 76.1077 40.1204 77.1843C42.6048 76.1077 53.1224 71.1387 58.9195 65.3416C65.2135 58.9648 71.5903 50.8489 71.5903 38.5921V2.6501H8.65039Z" fill="white"/>
<path d="M65.3793 33.8716H15.0273V38.7578H65.3793V33.8716Z" fill="#231F20"/>
<path d="M52.2944 26.1698L46.0832 8.28157L40.2033 15.4865L34.4062 8.28157L28.195 26.1698H15.0273V30.9731H31.2592L35.7313 18.0538L40.2033 23.6025L44.7582 18.0538L49.2302 30.9731H65.3793V26.1698H52.2944Z" fill="#527F66"/>
<path d="M39.6228 66.3354V28.323L34.9023 22.6915V60.9524L39.6228 66.3354Z" fill="#231F20"/>
<path d="M45.5037 70.7246V22.6915L40.7832 28.323V65.4244L45.5037 70.7246Z" fill="#231F20"/>
</svg>
