<svg width="80" height="80" viewBox="0 0 80 80" fill="none" xmlns="http://www.w3.org/2000/svg">
<g clip-path="url(#clip0_2491:55310)">
<path d="M68.3379 51.6844C67.3145 52.7079 66.291 53.7313 65.2676 54.7548C66.291 53.7313 67.4851 52.7079 68.3379 51.6844Z" fill="#55B1E1"/>
<path d="M63.0489 65.3305C62.0254 66.3539 61.002 67.3774 59.9785 68.4008C61.002 67.3774 62.0254 66.3539 63.0489 65.3305Z" fill="#55B1E1"/>
<path d="M67.9961 53.2196C66.9727 54.2431 66.1198 55.2665 64.9258 56.29C66.1198 55.096 66.9727 54.2431 67.9961 53.2196Z" fill="#55B1E1"/>
<path d="M59.4668 67.0362C59.4668 66.8656 61.002 63.9659 62.5372 60.2132C60.8314 63.9659 59.4668 67.0362 59.4668 67.0362Z" fill="#55B1E1"/>
<path d="M24.3281 68.9126C26.2045 70.7889 27.0573 71.6418 27.2279 71.8123H27.3985C27.0573 71.8123 26.0339 70.7889 24.3281 68.9126Z" fill="#55B1E1"/>
<path d="M21.7696 63.2836C21.9401 63.4542 22.1107 63.6247 22.2813 63.7953C21.2578 62.7719 20.2344 61.7484 19.2109 60.7249C20.0638 61.5778 20.9167 62.4307 21.7696 63.2836Z" fill="#55B1E1"/>
<path d="M21.5997 62.2601C20.5762 61.2367 19.5528 60.2132 18.5293 59.1898C19.7233 60.2132 20.5762 61.2367 21.5997 62.2601Z" fill="#55B1E1"/>
<path d="M23.9883 67.2068C22.9649 66.1834 21.9414 65.1599 20.918 64.1365C21.7708 65.3305 22.9649 66.1834 23.9883 67.2068Z" fill="#55B1E1"/>
<path d="M21.0873 63.7953C21.7696 64.4776 22.2813 64.9893 22.9636 65.6716L23.1342 65.8422C22.1107 64.8188 21.0873 63.7953 20.2344 62.7719C20.405 63.113 20.7461 63.4542 21.0873 63.7953Z" fill="#55B1E1"/>
<path d="M19.8939 61.7484C20.7468 62.6013 21.5996 63.4542 22.4525 64.307C22.4525 64.307 22.4525 64.4776 22.6231 64.4776C21.5996 63.4542 20.5762 62.4307 19.5527 61.4073C19.7233 61.5778 19.7233 61.7484 19.8939 61.7484Z" fill="#55B1E1"/>
<path d="M65.2676 27.4627C66.291 28.4861 67.3145 29.5096 68.3379 30.533C67.3145 29.5096 66.291 28.4861 65.2676 27.4627Z" fill="#55B1E1"/>
<path d="M66.4606 45.032H66.1194L59.9787 44.6908C60.661 47.5906 59.8081 54.7548 57.5906 57.484C43.2623 51.3433 43.2623 29.6802 55.8849 8.18763C55.8849 8.35821 56.0554 8.52878 56.0554 8.52878C56.226 8.69936 56.226 8.86994 56.3966 8.86994C56.5672 9.04051 56.7377 9.38166 57.0789 9.55224C60.8316 14.1578 63.7313 20.2985 65.2665 27.2921C65.2665 27.4627 65.2665 27.4627 65.2665 27.6333C65.2665 27.8038 65.2665 27.9744 65.4371 28.145C66.29 31.8977 66.6311 35.8209 66.6311 39.9147C66.6311 41.791 66.6311 43.4968 66.4606 45.032ZM65.6077 51.0021C65.6077 51.1727 65.4371 51.5139 65.4371 51.6844C65.4371 51.855 65.2665 52.0256 65.2665 52.3667C65.2665 52.7079 65.0959 52.8785 65.0959 53.2196C65.0959 53.3902 64.9254 53.5608 64.9254 53.7313C64.9254 53.9019 64.7548 54.2431 64.7548 54.4136C64.5842 55.0959 64.4136 55.7782 64.2431 56.4606C64.2431 56.6311 64.0725 56.9723 64.0725 57.1429C64.0725 57.1429 64.0725 57.1429 64.0725 57.3134C63.049 60.2132 62.0256 62.7719 60.661 65.1599C60.661 65.1599 60.661 65.1599 60.661 65.3305C60.4904 65.6716 60.3198 65.8422 60.1493 66.1834C59.9787 66.5245 59.8081 66.8657 59.6375 67.0362C59.6375 67.0362 60.4904 64.1365 61.1727 60.2132C61.855 56.8017 62.7079 52.5373 62.8785 49.1258L63.7313 49.4669L65.9488 50.4904C65.6077 50.661 65.6077 50.8316 65.6077 51.0021ZM52.6439 69.936C49.5736 69.936 47.1855 67.548 47.1855 64.4776C47.1855 61.4072 49.5736 59.0192 52.6439 59.0192C55.7143 59.0192 58.1023 61.4072 58.1023 64.4776C58.1023 67.3774 55.7143 69.936 52.6439 69.936ZM41.3859 73.6887C38.3156 73.6887 35.9275 71.3006 35.9275 68.2303C35.9275 65.1599 38.3156 62.7719 41.3859 62.7719C44.4563 62.7719 46.8443 65.1599 46.8443 68.2303C46.8443 71.1301 44.4563 73.6887 41.3859 73.6887ZM30.1279 69.936C27.0576 69.936 24.6695 67.548 24.6695 64.4776C24.6695 61.4072 27.0576 59.0192 30.1279 59.0192C33.1983 59.0192 35.5864 61.4072 35.5864 64.4776C35.5864 67.548 33.1983 69.936 30.1279 69.936ZM24.4989 69.936C23.1343 68.2303 21.9403 66.3539 20.9168 64.307C20.9168 64.307 20.9168 64.307 20.9168 64.1365C20.7463 63.7953 20.5757 63.6247 20.5757 63.2836C20.5757 63.113 20.4051 63.113 20.4051 62.9424C20.4051 62.9424 20.4051 62.7719 20.2345 62.7719C20.2345 62.6013 20.064 62.6013 20.064 62.4307C19.8934 62.0896 19.7228 61.7484 19.7228 61.5778C19.7228 61.5778 19.7228 61.5778 19.7228 61.4072C19.7228 61.4072 19.7228 61.4072 19.7228 61.2367C19.7228 61.2367 19.7228 61.2367 19.7228 61.0661C19.7228 60.8955 19.5522 60.7249 19.5522 60.5544C19.3817 60.3838 19.3817 60.0426 19.2111 59.8721C19.0405 59.5309 19.0405 59.3603 18.8699 59.0192C18.5288 59.1898 18.5288 59.0192 18.5288 58.8486C17.6759 56.29 16.823 53.5608 16.3113 50.8316L20.5757 48.7846V49.2964C20.2345 56.29 21.258 62.6013 24.1578 68.5714C24.1578 68.742 24.3284 68.9126 24.3284 68.9126C24.4989 69.5949 24.4989 69.936 24.4989 69.936C24.6695 69.936 24.6695 69.936 24.4989 69.936ZM15.2878 43.3262C15.2878 42.3028 15.2878 41.1087 15.2878 40.0853C15.2878 35.9915 15.629 32.4094 16.4819 28.6567C22.1109 38.5501 29.7868 47.7612 40.3625 53.5608V61.7484C38.8273 61.919 37.6333 62.7719 36.6098 63.7953C36.2687 60.5544 33.3689 57.9957 30.1279 57.9957C28.4222 57.9957 27.0576 58.5075 25.8635 59.5309C24.6695 58.1663 22.1109 53.2196 23.3049 46.0554L15.629 45.5437C15.4584 44.6908 15.4584 44.0085 15.2878 43.3262ZM13.9232 21.322L18.1876 19.6162C21.5991 33.2623 34.3923 47.0789 48.7207 56.29C27.9104 47.5906 20.064 33.0917 13.9232 21.322ZM40.3625 5.28785C37.8038 5.79957 35.5864 7.33475 33.8806 7.33475C33.1983 7.33475 32.6866 6.9936 32.1748 6.48188C32.0043 5.79957 32.1748 4.77612 34.9041 4.77612C36.2687 4.60554 37.9744 4.77612 40.3625 5.28785ZM19.7228 17.9104C19.8934 17.5693 20.064 17.2281 20.2345 16.887C24.4989 8.52878 31.1514 2.38806 38.4861 1.36461C38.6567 1.36461 38.8273 1.36461 38.9979 1.36461C38.9979 1.36461 38.9979 1.36461 39.1684 1.36461C39.8507 1.36461 40.5331 1.19403 41.0448 1.19403C41.7271 1.19403 42.2388 1.19403 42.9211 1.36461C43.0917 1.36461 43.0917 1.36461 43.2623 1.36461C43.2623 1.36461 43.2623 1.36461 43.4328 1.36461C45.8209 1.70576 48.3795 2.55864 50.597 3.92324H50.7676C50.7676 3.92324 50.9382 3.92324 50.9382 4.09382C51.1087 4.26439 51.2793 4.26439 51.4499 4.43497C51.6205 4.60554 51.791 4.77612 51.9616 4.77612C51.9616 4.77612 51.9616 4.77612 52.1322 4.77612C52.3028 4.94669 52.4733 4.94669 52.6439 5.11727L41.8977 9.21109L41.5565 5.629C41.8977 5.45842 42.2388 5.45842 42.58 5.45842C43.2623 5.45842 43.9446 5.629 44.6269 5.79957C44.6269 5.79957 44.6269 5.79957 44.7974 5.79957C44.2857 5.28785 43.6034 5.11727 42.2388 5.11727C41.8977 5.11727 41.7271 5.11727 41.3859 5.11727C41.3859 5.11727 41.3859 3.92324 41.2153 3.24094C41.2153 3.24094 41.2154 3.24094 41.0448 3.24094C40.5331 3.41151 39.8507 3.41151 38.9979 3.41151C37.6333 3.41151 36.2687 3.24094 35.0746 3.24094C33.3689 3.24094 32.0043 3.58209 31.1514 5.11727C30.4691 6.48188 30.9808 7.33475 32.0043 7.84648C32.3454 8.01706 32.6866 8.01706 33.1983 8.01706C35.4158 8.01706 37.4627 6.48188 40.1919 5.97015C40.1919 5.97015 40.1919 5.97015 40.3625 5.97015V10.064C34.2217 12.452 20.4051 17.7399 19.7228 17.9104ZM49.403 55.7783C40.7036 49.8081 26.3753 31.3859 24.4989 17.2281L30.1279 15.0107C30.6397 31.2154 38.9979 45.5437 49.403 55.7783ZM49.5736 54.9254C35.9275 38.7207 34.9041 20.4691 36.951 12.2814L43.2623 9.89339C40.0213 18.081 37.8038 39.7441 49.5736 54.9254ZM42.2388 54.4136C48.5501 57.8252 52.8145 57.8252 52.6439 57.8252C49.2324 57.8252 46.5032 60.3838 46.162 63.6247C45.1386 62.4307 43.774 61.7484 42.2388 61.5778C42.2388 61.5778 42.2388 55.9488 42.2388 54.4136ZM56.9083 4.43497C53.6674 9.04051 37.2921 34.968 50.4264 54.2431C36.6098 36.162 48.3795 11.0874 51.1087 6.82303L56.9083 4.43497ZM67.484 45.2026C67.6546 43.4968 67.6546 41.791 67.6546 40.0853C67.6546 26.7804 63.2196 14.8401 56.5672 7.67591L58.7846 4.09382L61.5139 3.07036C61.5139 3.07036 61.855 2.38806 61.855 1.87633L53.838 5.11727C49.9147 1.70576 45.6503 0 41.0448 0C34.3923 0 28.2516 3.75267 23.4755 9.89339C21.5991 12.452 19.8934 15.3518 18.3582 18.5927L10 21.8337C10 22.516 10.5117 22.6866 10.5117 22.6866L12.8998 21.8337C13.5821 23.0277 14.7761 25.5864 15.629 27.2921C14.7761 31.3859 14.2644 35.6503 14.2644 40.2559C14.2644 42.1322 14.2644 43.838 14.435 45.7143L11.5352 45.5437L15.2878 51.6844C18.5288 68.2303 28.7633 80.3411 40.8742 80.3411C45.3092 80.3411 49.5736 78.6354 53.3262 75.7356C53.3262 75.7356 53.3262 75.7356 53.4968 75.7356C53.6674 75.7356 53.6674 75.565 53.838 75.565C54.0085 75.3945 54.1791 75.3945 54.1791 75.2239C59.6375 70.6183 63.9019 63.113 65.9488 54.2431V54.0725C65.9488 53.9019 66.1194 53.7313 66.1194 53.3902C66.1194 53.2196 66.1194 53.049 66.29 53.049C66.29 52.8785 66.29 52.8785 66.29 52.7079C66.29 52.5373 66.29 52.3667 66.4606 52.1962V52.0256C66.4606 51.855 66.6311 51.5139 66.6311 51.3433L69.5309 45.7143L67.484 45.2026Z" fill="#000F4D"/>
<path d="M24.157 68.5714C21.2572 62.6013 20.2338 56.29 20.5749 49.2964V48.7847L16.3105 50.8316C16.8223 53.7314 17.6752 56.4606 18.528 58.8486C18.528 59.0192 18.6986 59.0192 18.6986 59.1898C18.8692 59.5309 18.8692 59.7015 19.0398 60.0427C19.2103 60.2132 19.2103 60.5544 19.3809 60.725C19.3809 60.8955 19.5515 61.0661 19.5515 61.2367C19.5515 61.2367 19.5515 61.2367 19.5515 61.4073C19.7221 61.7484 19.8926 62.0896 20.0632 62.4307C20.0632 62.6013 20.2338 62.6013 20.2338 62.7719C20.2338 63.113 20.4044 63.2836 20.4044 63.4542C20.5749 63.7953 20.7455 63.9659 20.7455 64.3071C20.7455 64.3071 20.7455 64.3071 20.7455 64.4776C21.9395 66.354 23.3042 68.2303 24.4982 69.9361C24.4982 69.9361 24.3276 69.5949 24.157 68.9126C24.157 68.9126 24.157 68.742 24.157 68.5714Z" fill="#54B6E7"/>
<path d="M16.4811 28.4861C15.6283 32.2388 15.2871 35.8209 15.2871 39.9147C15.2871 41.1087 15.2871 42.1322 15.2871 43.1557C15.2871 43.838 15.4577 44.6908 15.4577 45.3731L23.1336 46.0554C22.1101 53.2196 24.6688 58.1663 25.6922 59.5309C26.8863 58.5075 28.2509 57.9957 29.9566 57.9957C33.3681 57.9957 36.0973 60.5544 36.4385 63.7953C37.462 62.7719 38.8266 62.0896 40.1912 61.7484V53.5608C29.786 47.5906 22.1101 38.5501 16.4811 28.4861Z" fill="#54B6E7"/>
<path d="M32.1756 6.65247C32.6873 7.33477 33.199 7.67592 33.8813 7.67592C35.5871 7.67592 37.8046 5.97017 40.3632 5.45844C37.9752 4.77614 36.2694 4.60556 34.9048 4.60556C32.3462 4.60556 32.005 5.79959 32.1756 6.65247Z" fill="#54B6E7"/>
<path d="M51.9615 4.77613C51.6203 4.60556 51.4497 4.43498 51.2792 4.26441C51.1086 4.09383 50.938 4.09383 50.7674 3.92325L50.5969 3.75268H50.4263C48.2088 2.38807 45.8207 1.5352 43.2621 1.19404H43.0915C42.9209 1.19404 42.921 1.19404 42.7504 1.19404C42.0681 1.19404 41.5563 1.02347 40.874 1.02347C40.1917 1.02347 39.5094 1.02347 38.9977 1.19404C38.9977 1.19404 38.9977 1.19404 38.8271 1.19404C38.6566 1.19404 38.486 1.19404 38.3154 1.19404C31.1512 2.38807 24.4988 8.35822 20.2344 16.887C20.0638 17.2282 19.8932 17.5693 19.7227 17.9105C20.405 17.7399 34.051 12.452 40.3623 9.8934V5.79959C40.3623 5.79959 40.3623 5.79959 40.1917 5.79959C37.4625 6.31132 35.245 7.8465 33.1981 7.8465C32.857 7.8465 32.5158 7.8465 32.0041 7.67592C31.1512 7.16419 30.4689 6.31132 31.1512 4.94671C31.8335 3.41153 33.3687 3.07038 35.0745 3.07038C36.4391 3.24095 37.8037 3.41153 38.9977 3.41153C39.68 3.41153 40.3623 3.41153 41.0446 3.24095C41.0446 3.24095 41.0446 3.24095 41.2152 3.24095C41.3858 3.92325 41.3858 5.11729 41.3858 5.11729C41.7269 5.11729 42.0681 5.11729 42.2386 5.11729C43.4327 5.11729 44.115 5.28786 44.6267 5.97016C44.6267 5.97016 44.6267 5.97016 44.4561 5.97016C43.7738 5.79959 42.9209 5.62901 42.4092 5.62901C42.0681 5.62901 41.7269 5.62901 41.3858 5.79959L41.7269 9.38168L52.4732 5.28786C52.3026 5.11728 52.132 4.94671 51.9615 4.77613Z" fill="#54B6E7"/>
<path d="M62.7077 48.9552C62.5372 52.5373 61.6843 56.6311 61.002 60.0427C60.1491 63.9659 59.4668 66.8657 59.4668 66.8657C59.6374 66.5245 59.8079 66.1834 59.9785 66.0128C60.1491 65.8422 60.3197 65.5011 60.4903 65.1599C60.4903 65.1599 60.4903 65.1599 60.4903 64.9893C60.6608 64.6482 61.002 64.1365 61.1726 63.7953C62.196 61.7484 63.2195 59.5309 63.9018 57.1429C63.9018 57.1429 63.9018 57.1429 63.9018 56.9723C63.9018 56.8017 64.0723 56.4606 64.0723 56.29C64.2429 55.6077 64.4135 54.9254 64.5841 54.2431C64.5841 54.0725 64.7546 53.7313 64.7546 53.5608C64.7546 53.3902 64.9252 53.2196 64.9252 53.049C64.9252 52.7079 65.0958 52.5373 65.0958 52.1962C65.0958 52.0256 65.2664 51.855 65.2664 51.5139C65.2664 51.3433 65.4369 51.0021 65.4369 50.8316C65.4369 50.661 65.6075 50.3198 65.6075 50.1493L63.5606 49.467L62.7077 48.9552Z" fill="#54B6E7"/>
<path d="M42.2383 61.5778C43.7735 61.7484 45.1381 62.6013 46.1615 63.6247C46.5027 60.3838 49.2319 57.8252 52.6434 57.8252C52.6434 57.8252 48.379 57.8251 42.2383 54.4136C42.2383 55.9488 42.2383 61.5778 42.2383 61.5778Z" fill="#54B6E7"/>
<path d="M65.4372 28.3156C65.4372 28.145 65.4372 27.9744 65.2666 27.8038C65.2666 27.6333 65.2666 27.6333 65.2666 27.4627C63.7314 20.4691 60.8316 14.3284 57.079 9.72282C56.9084 9.55224 56.7378 9.21109 56.3967 9.04052C56.3967 8.86994 56.2261 8.69937 56.0555 8.52879L55.885 8.35822C43.2624 29.6802 43.2624 51.5139 57.5907 57.6546C59.6376 54.9254 60.6611 47.7612 59.9788 44.8614L66.1195 45.2026H66.4606C66.6312 43.4968 66.6312 41.791 66.6312 40.0853C66.6312 35.9915 66.2901 32.0682 65.4372 28.3156Z" fill="#54B6E7"/>
<path d="M43.0913 9.89337L36.78 12.2814C34.7331 20.4691 35.7565 38.7207 49.4026 54.9254C37.8034 39.7441 40.0209 18.081 43.0913 9.89337Z" fill="white"/>
<path d="M49.4021 55.7782C39.1676 45.7143 30.6388 31.3859 30.127 15.0107L24.498 17.2281C26.3744 31.3859 40.7027 49.8081 49.4021 55.7782Z" fill="white"/>
<path d="M56.9081 4.43497L51.1086 6.82303C48.3794 11.0874 36.6096 36.162 50.4263 54.2431C37.2919 34.968 53.6672 9.04051 56.9081 4.43497Z" fill="white"/>
<path d="M30.1283 58.8486C27.058 58.8486 24.6699 61.4072 24.6699 64.307C24.6699 67.3774 27.058 69.7654 30.1283 69.7654C33.1987 69.7654 35.5868 67.3774 35.5868 64.307C35.5868 61.4072 33.1987 58.8486 30.1283 58.8486Z" fill="white"/>
<path d="M52.644 58.8486C49.5736 58.8486 47.1855 61.4072 47.1855 64.307C47.1855 67.3774 49.5736 69.7654 52.644 69.7654C55.7143 69.7654 58.1024 67.2068 58.1024 64.307C58.1024 61.4072 55.7143 58.8486 52.644 58.8486Z" fill="white"/>
<path d="M41.3862 62.6013C38.3158 62.6013 35.9277 65.1599 35.9277 68.0597C35.9277 71.1301 38.3158 73.5181 41.3862 73.5181C44.4565 73.5181 46.8446 70.9595 46.8446 68.0597C46.8446 64.9893 44.4565 62.6013 41.3862 62.6013Z" fill="white"/>
<path d="M48.7206 56.29C34.3923 47.0789 21.5991 33.0917 18.3581 19.6162L14.0938 21.322C20.0639 33.0917 27.9104 47.5906 48.7206 56.29Z" fill="white"/>
</g>
<defs>
<clipPath id="clip0_2491:55310">
<rect width="80" height="80" fill="white"/>
</clipPath>
</defs>
</svg>
