<svg width="80" height="80" viewBox="0 0 80 80" fill="none" xmlns="http://www.w3.org/2000/svg">
<path d="M58.5993 70.0952C53.5708 74.2857 47.3232 76.8762 41.1517 77.2571L39.5517 75.6572L37.9517 77.2571C31.7803 76.8762 25.4565 74.2857 20.5041 70.0952C15.247 65.6762 12.1993 60.1143 11.7422 54.2476L13.3422 52.6476L11.666 50.9714V28.9524L13.3422 27.2762L11.666 25.6V3.88571L12.7327 2.81905H37.9517L39.5517 4.41905L41.1517 2.81905H66.447L67.4374 3.80952V23.0095L65.8374 24.6095L67.4374 26.2095V50.9714L65.8374 52.5714L67.4374 54.1714C66.9041 60.0381 63.8565 65.6762 58.5993 70.0952Z" fill="white"/>
<path d="M39.4 8C27.1333 8 17.1523 17.981 17.1523 30.2476C17.1523 42.5143 27.1333 52.4952 39.4 52.4952C51.6666 52.4952 61.6476 42.5143 61.6476 30.2476C61.6476 17.981 51.6666 8 39.4 8ZM39.4 51.1238C27.819 51.1238 18.4476 41.7524 18.4476 30.1714C18.4476 18.5905 27.819 9.21905 39.4 9.21905C50.9809 9.21905 60.3523 18.5905 60.3523 30.1714C60.3523 41.7524 50.9809 51.1238 39.4 51.1238Z" fill="#557A82"/>
<path d="M29.6472 20.2667L39.7043 22.8571L39.0186 34.819L57.3043 43.5048L60.8091 48.8381L60.1233 51.6571L54.2567 55.2381L36.1995 55.9238L32.6948 54.0191L31.7805 50.9714L29.4186 50.2857L26.5995 54.2476L22.1805 54.4762L18.9043 52.1905L20.9614 37.8667L29.6472 20.2667Z" fill="white"/>
<path d="M61.0379 48.7619L57.3046 43.0476L39.1712 34.4381L39.857 22.4L28.8855 19.581L19.8951 37.8667L17.7617 52.3429L21.4951 55.0095L26.5236 54.8571L29.2665 50.9714L30.9427 51.5048L31.857 54.4762L35.8189 56.6095L54.0284 55.8476L60.1998 52.1143L61.0379 48.7619ZM59.2093 51.3524L53.6474 54.7048H53.5712L35.8951 55.3905L32.6951 53.7143L31.7046 50.5905L28.657 49.6762L25.7617 53.7905L21.7998 54.0191L18.9808 51.9619L20.9617 38.3238L29.5712 20.9524L38.7141 23.3143L38.0284 35.2L56.5427 43.9619L59.8189 48.9905L59.2093 51.3524Z" fill="#557A82"/>
<path d="M40.4672 46.8571L36.0482 44.8L32.3148 46.6286L30.7148 50.9714L31.7815 54.4L35.7434 56.5333L40.6958 54.7048L41.7625 51.2L40.4672 46.8571ZM39.7815 53.7905L35.8196 55.2381L32.772 53.5619L31.9339 50.8952L33.1529 47.2381L35.972 45.8667L39.4768 47.4667L40.5434 51.0476L39.7815 53.7905Z" fill="#557A82"/>
<path d="M32.0104 47.6952L32.3152 46.5524L25.9152 44.6476L21.3438 53.9429L22.4104 54.4L26.5247 46.019L32.0104 47.6952Z" fill="#557A82"/>
<path d="M45.8002 41.3714L33.3812 35.4286L35.5907 22.4L34.4478 22.1714L32.0859 36.1143L43.1336 41.4476L36.0478 44.8L36.5812 45.7905L45.8002 41.3714Z" fill="#557A82"/>
<path d="M28.7328 38.4762L32.7709 21.7143L31.628 21.4095L27.3613 39.1619L38.4851 44.1143L39.7042 43.3524L28.7328 38.4762Z" fill="#557A82"/>
<path d="M56.6955 44.1143L56.3907 42.9714L39.9336 46.6286L40.4669 47.6952L56.6955 44.1143Z" fill="#557A82"/>
<path d="M59.9913 48.4031L41.4609 50.6617L41.5992 51.7962L60.1296 49.5376L59.9913 48.4031Z" fill="#557A82"/>
<path d="M70.181 27.2762L68.581 25.6762V3.80952L70.181 2.20952L67.9714 0L66.5238 1.44762H41L39.5524 0L38.1048 1.44762H12.581L11.1333 0L9 2.13333L10.6 3.73333V25.6762L9 27.2762L10.6 28.8762V51.0476L9 52.6476L10.6 54.3238C11.0571 60.4191 14.2571 66.2095 19.6667 70.8571C24.8476 75.2762 31.4 77.9429 37.8 78.3238L39.4762 80L41.1524 78.3238C47.5524 77.9429 54.1048 75.2 59.2857 70.8571C64.6952 66.2857 67.8952 60.4952 68.3524 54.4L70.0286 52.7238L68.4286 51.1238V29.0286L70.181 27.2762ZM58.6 70.0952C53.5714 74.2857 47.3238 76.8762 41.1524 77.2571L39.5524 75.6572L37.9524 77.2571C31.781 76.8762 25.4571 74.2857 20.5048 70.0952C15.2476 65.6762 12.2 60.1143 11.7429 54.2476L13.3429 52.6476L11.6667 50.9714V28.9524L13.3429 27.2762L11.6667 25.6V3.88571L12.7333 2.81905H37.9524L39.5524 4.41905L41.1524 2.81905H66.4476L67.4381 3.80952V25.6762L65.8381 27.2762L67.4381 28.8762V50.9714L65.8381 52.5714L67.4381 54.1714C66.9048 60.0381 63.8571 65.6762 58.6 70.0952Z" fill="#557A82"/>
<path d="M59.8949 65.6C59.6663 65.9048 59.4377 66.1333 59.133 66.4381C58.8282 65.9809 58.5234 65.6762 57.9901 65.6762C57.3806 65.6762 56.9996 66.1333 56.5425 66.819C56.0092 67.5048 55.4758 68.3428 54.2568 68.3428C53.0377 68.3428 52.5044 67.5809 51.9711 66.819C51.5139 66.1333 51.2091 65.6762 50.5234 65.6762C49.9139 65.6762 49.533 66.1333 49.0758 66.819C48.5425 67.5048 48.0091 68.3428 46.7901 68.3428C45.5711 68.3428 45.0377 67.5809 44.5044 66.819C44.0472 66.1333 43.7425 65.6762 43.0568 65.6762C42.4472 65.6762 42.0663 66.1333 41.6091 66.819C41.0758 67.5048 40.5425 68.3428 39.3234 68.3428C38.1044 68.3428 37.5711 67.5809 37.0377 66.819C36.5806 66.1333 36.2758 65.6762 35.5901 65.6762C34.9806 65.6762 34.5996 66.1333 34.1425 66.819C33.6092 67.5048 33.0758 68.3428 31.8568 68.3428C30.6377 68.3428 30.1044 67.5809 29.5711 66.819C29.1139 66.1333 28.8092 65.6762 28.1234 65.6762C27.5139 65.6762 27.133 66.1333 26.6758 66.819C26.1425 67.5048 25.6092 68.3428 24.3901 68.3428C23.1711 68.3428 22.6377 67.5809 22.1044 66.819C21.6472 66.1333 21.3425 65.6762 20.6568 65.6762C20.0472 65.6762 19.7425 66.0571 19.2853 66.7429L18.5996 65.981C18.5996 65.981 18.5996 65.9048 18.5234 65.9048C18.9806 65.2952 19.5139 64.6095 20.6568 64.6095C21.8758 64.6095 22.4092 65.3714 22.9425 66.1333C23.3996 66.819 23.7044 67.2762 24.3901 67.2762C24.9996 67.2762 25.3806 66.819 25.8377 66.1333C26.3711 65.4476 26.9044 64.6095 28.1234 64.6095C29.3425 64.6095 29.8758 65.3714 30.4092 66.1333C30.8663 66.819 31.1711 67.2762 31.8568 67.2762C32.4663 67.2762 32.8472 66.819 33.3044 66.1333C33.8377 65.4476 34.3711 64.6095 35.5901 64.6095C36.8092 64.6095 37.3425 65.3714 37.8758 66.1333C38.333 66.819 38.6377 67.2762 39.3234 67.2762C39.933 67.2762 40.3139 66.819 40.7711 66.1333C41.3044 65.4476 41.8377 64.6095 43.0568 64.6095C44.2758 64.6095 44.8092 65.3714 45.3425 66.1333C45.7996 66.819 46.1044 67.2762 46.7901 67.2762C47.3996 67.2762 47.7806 66.819 48.2377 66.1333C48.7711 65.4476 49.3044 64.6095 50.5234 64.6095C51.7425 64.6095 52.2758 65.3714 52.8092 66.1333C53.2663 66.819 53.5711 67.2762 54.2568 67.2762C54.8663 67.2762 55.2472 66.819 55.7044 66.1333C56.2377 65.4476 56.7711 64.6095 57.9901 64.6095C58.9044 64.6095 59.4377 65.0667 59.8949 65.6Z" fill="#557A82"/>
<path d="M26.3713 72.1524C26.4475 72 26.5237 71.9238 26.6761 71.7714C27.1332 71.0857 27.5142 70.6286 28.1237 70.6286C28.8094 70.6286 29.1142 71.0857 29.5713 71.7714C30.1047 72.5333 30.638 73.2952 31.857 73.2952C33.0761 73.2952 33.6094 72.4571 34.1427 71.7714C34.5999 71.0857 34.9808 70.6286 35.5904 70.6286C36.2761 70.6286 36.5808 71.0857 37.038 71.7714C37.5713 72.5333 38.1046 73.2952 39.3237 73.2952C40.5427 73.2952 41.0761 72.4571 41.6094 71.7714C42.0666 71.0857 42.4475 70.6286 43.057 70.6286C43.7427 70.6286 44.0475 71.0857 44.5047 71.7714C45.038 72.5333 45.5713 73.2952 46.7904 73.2952C48.0094 73.2952 48.5427 72.4571 49.0761 71.7714C49.5332 71.0857 49.9142 70.6286 50.5237 70.6286C51.2094 70.6286 51.5142 71.0857 51.9713 71.7714C52.0475 71.8476 52.0475 71.9238 52.1237 71.9238L52.1999 71.8476L53.038 71.3905C52.9618 71.3143 52.8856 71.1619 52.8094 71.0857C52.2761 70.3238 51.7427 69.5619 50.5237 69.5619C49.3047 69.5619 48.7713 70.4 48.238 71.0857C47.7808 71.7714 47.3999 72.2286 46.7904 72.2286C46.1046 72.2286 45.7999 71.7714 45.3427 71.0857C44.8094 70.3238 44.2761 69.5619 43.057 69.5619C41.838 69.5619 41.3047 70.4 40.7713 71.0857C40.3142 71.7714 39.9332 72.2286 39.3237 72.2286C38.638 72.2286 38.3332 71.7714 37.8761 71.0857C37.3427 70.3238 36.8094 69.5619 35.5904 69.5619C34.3713 69.5619 33.838 70.4 33.3046 71.0857C32.8475 71.7714 32.4666 72.2286 31.857 72.2286C31.1713 72.2286 30.8666 71.7714 30.4094 71.0857C29.8761 70.3238 29.3427 69.5619 28.1237 69.5619C26.9047 69.5619 26.3713 70.4 25.838 71.0857C25.6856 71.2381 25.6094 71.4667 25.457 71.619L26.3713 72.1524Z" fill="#557A82"/>
<path d="M63.4003 60.1905C62.9431 61.2571 62.3336 62.3238 61.6479 63.3143C61.4955 63.3905 61.2669 63.3905 61.0384 63.3905C59.8193 63.3905 59.286 62.6286 58.7527 61.8667C58.2955 61.1809 57.9908 60.7238 57.305 60.7238C56.6955 60.7238 56.3146 61.1809 55.8574 61.8667C55.3241 62.5524 54.7908 63.3905 53.5717 63.3905C52.3527 63.3905 51.8193 62.6286 51.286 61.8667C50.8288 61.1809 50.5241 60.7238 49.8384 60.7238C49.2289 60.7238 48.8479 61.1809 48.3908 61.8667C47.8574 62.5524 47.3241 63.3905 46.105 63.3905C44.886 63.3905 44.3527 62.6286 43.8193 61.8667C43.3622 61.1809 43.0574 60.7238 42.3717 60.7238C41.7622 60.7238 41.3812 61.1809 40.9241 61.8667C40.3908 62.5524 39.8574 63.3905 38.6384 63.3905C37.4193 63.3905 36.886 62.6286 36.3527 61.8667C35.8955 61.1809 35.5908 60.7238 34.905 60.7238C34.2955 60.7238 33.9146 61.1809 33.4574 61.8667C32.9241 62.5524 32.3908 63.3905 31.1717 63.3905C29.9527 63.3905 29.4193 62.6286 28.886 61.8667C28.4289 61.1809 28.1241 60.7238 27.4384 60.7238C26.8289 60.7238 26.4479 61.1809 25.9908 61.8667C25.4574 62.5524 24.9241 63.3905 23.705 63.3905C22.486 63.3905 21.9527 62.6286 21.4193 61.8667C20.9622 61.1809 20.6574 60.7238 19.9717 60.7238C19.3622 60.7238 18.9812 61.1809 18.5241 61.8667C18.0669 62.4762 17.5336 63.2381 16.5431 63.3905L15.8574 62.2476C15.9336 62.3238 16.086 62.3238 16.2384 62.3238C16.8479 62.3238 17.2289 61.8667 17.686 61.181C18.2193 60.4952 18.7527 59.6571 19.9717 59.6571C21.1908 59.6571 21.7241 60.419 22.2574 61.181C22.7146 61.8667 23.0193 62.3238 23.705 62.3238C24.3146 62.3238 24.6955 61.8667 25.1527 61.181C25.686 60.4952 26.2193 59.6571 27.4384 59.6571C28.6574 59.6571 29.1908 60.419 29.7241 61.181C30.1812 61.8667 30.486 62.3238 31.1717 62.3238C31.7812 62.3238 32.1622 61.8667 32.6193 61.181C33.1527 60.4952 33.686 59.6571 34.905 59.6571C36.1241 59.6571 36.6574 60.419 37.1908 61.181C37.6479 61.8667 37.9527 62.3238 38.6384 62.3238C39.2479 62.3238 39.6289 61.8667 40.086 61.181C40.6193 60.4952 41.1527 59.6571 42.3717 59.6571C43.5908 59.6571 44.1241 60.419 44.6574 61.181C45.1146 61.8667 45.4193 62.3238 46.105 62.3238C46.7146 62.3238 47.0955 61.8667 47.5527 61.181C48.086 60.4952 48.6193 59.6571 49.8384 59.6571C51.0574 59.6571 51.5908 60.419 52.1241 61.181C52.5812 61.8667 52.886 62.3238 53.5717 62.3238C54.1812 62.3238 54.5622 61.8667 55.0193 61.181C55.4765 60.4952 56.086 59.6571 57.305 59.6571C58.5241 59.6571 59.0574 60.419 59.5908 61.181C60.0479 61.8667 60.3527 62.3238 61.0384 62.3238C61.6479 62.3238 62.0289 61.8667 62.486 61.181C62.7908 60.8 63.0193 60.419 63.4003 60.1905Z" fill="#557A82"/>
</svg>
