<svg width="80" height="80" viewBox="0 0 80 80" fill="none" xmlns="http://www.w3.org/2000/svg">
<path d="M72.7355 40.3272C72.7355 49.2204 67.7306 58.2675 61.8019 64.9663C55.2379 72.3773 41.2821 79.846 39.6844 79.5187C37.9713 79.153 34.1599 77.4398 30.3678 75.0722C23.3611 70.6063 21.6864 69.4321 16.8355 64.2156C9.23208 56.0731 7.71139 49.3166 6.53719 41.8287C6.2677 40.1732 6.88367 37.2858 6.53719 31.2416C6.44094 20.3465 6.67193 4.77381 6.53719 1.2127C6.53719 0.769962 6.53719 0.538971 6.55643 0.538971H72.7739C72.7739 0.538971 72.7355 30.3946 72.7355 40.3272Z" fill="white"/>
<path d="M39.763 80C39.7052 80 39.6475 80 39.5897 79.9808C37.8765 79.615 34.0844 77.9596 30.1191 75.4572C23.2471 71.0876 21.4377 69.8364 16.4906 64.5236C8.86789 56.3619 7.2702 49.4514 6.07674 41.9057C5.96125 41.155 5.99974 40.1925 6.05749 38.8835C6.13449 37.1319 6.24999 34.7257 6.05749 31.2801V31.2608C5.99974 25.7748 6.03824 19.1915 6.05749 13.3975C6.07674 7.81521 6.11524 3.00289 6.03824 1.2512C6.03824 0.346487 6.03824 0.307988 6.26923 0.153994L6.51948 0L6.65422 0.0769971H73.2375V0.558229C73.2375 0.866218 73.199 30.5101 73.199 40.3272C73.199 48.2579 69.1759 57.3629 62.1499 65.2743C55.6821 72.5698 42.2076 80 39.763 80ZM7.01996 31.2416C7.21245 34.7449 7.09695 37.1704 7.01996 38.9413C6.96221 40.2117 6.92371 41.1165 7.01996 41.7709C8.23266 49.4129 9.7341 55.8999 17.1836 63.8884C22.0729 69.1434 23.7091 70.2599 30.6388 74.6679C34.4694 77.0741 38.2038 78.7296 39.8015 79.0568C39.8207 79.0568 39.84 79.0568 39.8592 79.0568C41.4954 79.0568 54.8159 72.1463 61.4569 64.6583C68.3289 56.9009 72.275 48.0462 72.275 40.3272C72.275 31.2031 72.3135 4.90857 72.3135 1.02021H7.00071C7.00071 1.07796 7.00071 1.15496 7.00071 1.2127C7.05845 2.98364 7.03921 7.79596 7.01996 13.3782C7.00071 19.1915 6.96221 25.7555 7.01996 31.2416Z" fill="#2C448E"/>
<path d="M10.4085 4.33109C10.4085 4.33109 69.0995 4.36958 69.0995 4.33109V41.001C68.291 40.2502 68.599 40.6545 66.4816 38.6525C58.4162 30.7411 47.2901 18.9798 41.5153 19.384C39.1476 19.538 33.8541 22.2329 26.5009 28.8547C25.1149 30.1059 21.2458 33.7632 16.2795 39.7113C16.318 39.7498 22.6895 37.1703 27.5403 36.5544C29.2343 36.3426 31.1014 35.9961 32.2949 35.8422C37.8002 35.3994 38.0312 35.3224 43.9407 35.7074C49.6577 36.0731 52.0062 36.8046 57.2227 38.5755C61.881 40.154 67.6751 42.7141 67.2708 46.3908C66.8858 49.7979 57.1842 51.1068 53.2766 51.2608C46.0389 51.6458 45.4999 51.4726 39.3979 52.358C37.6654 52.6083 34.4701 53.2242 34.5663 55.7267C34.6625 58.2291 39.5519 59.3648 42.1313 59.846C47.4633 60.847 53.9888 61.2704 60.1293 61.1934C58.3199 63.6766 56.472 64.7353 51.9292 68.2964C48.291 71.1453 40.9956 74.8604 39.5711 74.8989C37.9349 74.9374 28.0215 69.8364 24.4412 66.2368C23.7675 65.563 19.2246 62.6179 17.2997 58.0751C14.1813 50.7603 25.4614 47.2762 33.1034 46.0828C44.8839 44.2733 56.01 45.5438 56.1062 44.0231C56.1062 40.9625 45.2497 38.3831 34.9128 39.1915C20.9571 40.2887 10.139 45.3705 10.3507 45.3705L10.4085 4.33109Z" fill="#2C448E"/>
</svg>
