<svg width="80" height="80" viewBox="0 0 80 80" fill="none" xmlns="http://www.w3.org/2000/svg">
<path d="M39.692 0H39.4754H8L8.15641 60.376V60.4241C8.18048 60.773 8.81817 68.9186 23.9663 74.6819C29.9823 76.968 34.3498 78.5441 36.9728 79.3623C37.9233 79.6631 38.6332 79.8556 39.0904 79.9398C39.1987 79.9639 39.331 79.988 39.4634 79.988C39.5115 79.988 39.5476 80 39.5957 80C39.7762 80 39.9567 79.9639 40.089 79.9398C40.5462 79.8556 41.2561 79.6631 42.2066 79.3623C44.8296 78.5441 49.1972 76.968 55.2131 74.6819C70.3733 68.9186 71.011 60.773 71.023 60.4241L71.1794 0H39.692Z" fill="white"/>
<path d="M39.692 0H39.4754H8L8.15641 60.376V60.4241C8.18048 60.773 8.81817 68.9186 23.9663 74.6819C29.9823 76.968 34.3498 78.5441 36.9728 79.3623C37.9233 79.6631 38.6332 79.8556 39.0904 79.9398C39.1987 79.9639 39.331 79.988 39.4634 79.988C39.5115 79.988 39.5476 80 39.5957 80C39.7762 80 39.9567 79.9639 40.089 79.9398C40.5462 79.8556 41.2561 79.6631 42.2066 79.3623C44.8296 78.5441 49.1972 76.968 55.2131 74.6819C70.3733 68.9186 71.011 60.773 71.023 60.4241L71.1794 0H39.692ZM69.4589 60.3399C69.4348 60.5324 69.2182 62.3252 67.4375 64.6954C65.6929 67.0296 62.0593 70.3986 54.6476 73.214C41.6652 78.1471 39.8123 78.4238 39.5717 78.4238C39.6799 78.4238 39.4634 78.4238 39.5717 78.4238C39.331 78.4238 37.4781 78.1471 24.5077 73.214C17.1202 70.3986 13.4865 67.0296 11.7299 64.6954C9.94917 62.3252 9.73259 60.5204 9.72056 60.3519L9.56414 1.56414H39.4634H39.6799H69.6032L69.4589 60.3399ZM68.2677 35.3136L40.4741 12.838L24.8446 27.7335L20.1763 25.1105L10.9598 35.2053L10.9358 35.2294C10.7192 35.4941 10.6831 35.867 10.8275 36.1799C10.9719 36.4807 11.2606 36.6612 11.5855 36.6612C15.0026 36.6732 34.025 36.7333 66.6193 36.8296H67.7142C68.0632 36.8296 68.364 36.613 68.4963 36.2882C68.6287 35.9633 68.5324 35.5662 68.2677 35.3136ZM34.8913 20.6347L40.5342 15.3407L47.3322 20.5745L45.5154 22.8606L40.7267 19.1307L36.8525 22.8606L34.8913 20.6347ZM38.8257 63.781L10.9117 41.1972C10.5869 40.8964 10.4786 40.4271 10.635 40.006C10.7914 39.609 11.1644 39.3443 11.5855 39.3443H12.6804C45.2627 39.4405 64.2972 39.5007 67.7022 39.5127C68.0993 39.5127 68.4482 39.7413 68.6166 40.1023C68.7971 40.4753 68.749 40.9204 68.4843 41.2453L68.4482 41.2814L59.1355 51.4844L54.4551 48.8615L38.8257 63.781ZM13.0414 40.9084L38.7415 61.6875L54.2385 46.9243L58.8347 49.4992L66.5351 41.0528C61.0726 41.0648 42.712 41.0047 13.0414 40.9084Z" fill="#146CB5"/>
</svg>
