<svg width="80" height="80" viewBox="0 0 80 80" fill="none" xmlns="http://www.w3.org/2000/svg">
<path d="M51.2816 19.9642C53.3567 19.034 55.5034 19.034 54.7163 19.678C54.1438 20.1073 54.0007 20.6082 54.7878 20.6082C55.6465 20.6798 56.0043 20.322 57.4354 20.322C59.5821 20.2504 61.371 21.1806 59.5821 21.3238C58.5088 21.3953 55.6465 21.6815 57.0776 22.6118C57.8648 23.1842 60.1546 22.5402 62.015 22.8264C64.0902 23.1842 65.6644 25.1162 64.9488 25.9034C64.4479 26.4043 64.3048 25.6171 61.8004 25.3309C52.5696 24.4007 49.4927 31.9857 48.1331 36.2075C45.8433 43.7209 47.5606 47.9427 40.4766 57.4597C44.6984 47.9427 41.4784 43.7924 42.4801 35.0626C43.4104 27.6923 46.9166 21.9678 51.2816 19.9642Z" fill="white"/>
<path d="M44.8429 11.7353C50.2096 20.2505 39.2615 24.5439 40.4064 38.712C36.2561 29.4812 44.7713 21.7532 36.3992 15.0984C35.3259 14.2397 36.113 12.7371 37.1148 12.6655C38.045 12.5939 38.689 13.3095 38.689 14.3113C38.689 14.526 38.689 14.6691 38.6175 14.8837C38.9037 14.5975 39.0468 14.3113 39.1184 13.7388C39.2615 12.3793 38.045 11.1628 36.5423 11.1628C35.2543 11.1628 34.181 12.1646 33.9663 13.3811C33.2507 12.8086 31.748 11.449 31.748 9.30235C35.2543 6.65477 42.1237 7.87122 44.8429 11.7353Z" fill="white"/>
<path d="M17.1496 24.1145C16.2909 24.2576 16.9349 21.8247 20.2265 21.61C21.8723 21.4669 22.9457 22.1825 24.2337 22.254C25.0208 22.1825 24.8061 21.5385 24.2337 21.1091C23.8043 20.8229 23.375 20.6082 22.5879 20.3936C21.0136 19.9642 24.5199 19.034 26.8097 20.322C30.4591 22.3972 30.7453 27.5492 29.4573 33.7746C27.5968 25.1163 21.5861 23.4705 17.1496 24.1145Z" fill="white"/>
<path d="M30.1728 58.5331C25.8794 48.5152 32.1048 34.204 33.3928 24.043C33.8937 19.9642 30.5305 17.6029 27.6683 15.0984C22.8025 10.9481 16.9348 6.65476 16.8633 5.65297C18.0082 4.93741 29.4572 9.51702 30.459 9.8748C30.7452 12.5939 32.0332 13.3811 32.8203 14.3113C34.8239 16.1718 36.8991 18.8193 36.4697 22.1109C34.4661 36.6369 28.8132 57.2451 47.0601 65.6172C44.1262 66.9052 34.8239 68.6226 30.1728 58.5331Z" fill="white"/>
<path d="M61.8005 45.6529C61.7289 45.5814 61.8005 45.5098 61.8005 45.4383C62.6592 43.5778 60.1547 40.9302 56.1475 47.0841C54.0009 50.3757 47.3461 57.8175 43.0527 59.5349C50.2084 54.3828 50.5662 50.5903 54.0724 44.0787C56.4338 39.5706 58.008 37.424 61.1565 37.424C62.9454 37.424 63.661 38.9982 63.017 38.8551C61.5143 38.4973 60.7987 39.4991 61.5858 39.7853C62.7307 40.2862 63.5894 40.7155 63.9472 41.8604C64.7343 44.7227 62.0867 45.8676 61.8005 45.6529Z" fill="white"/>
<path d="M64.2336 36.4937C63.8758 36.5653 63.8758 36.0644 63.8758 35.7782C63.9474 33.7746 57.2211 32.7728 53.2139 40.2862C50.8526 44.7227 48.7059 53.6672 41.6934 58.7477C48.0619 51.7352 47.3463 47.4418 49.7792 38.9982C51.425 33.3452 54.7166 29.6243 57.5789 28.551C58.7953 28.0501 59.5824 28.1932 60.298 28.2647C61.5145 28.4079 62.5163 29.3381 61.4429 29.195C59.7256 29.0519 57.9367 29.7674 59.3678 30.3399C60.8705 30.9839 62.9456 30.1252 64.7345 31.771C66.4519 33.3452 65.6647 36.2791 64.2336 36.4937Z" fill="white"/>
<path d="M12.9996 0V37.3524C12.9996 37.3524 12.284 53.5241 24.9495 66.2612C37.6149 78.9267 40.4772 80 40.4772 80C40.4772 80 43.2679 78.9267 55.9334 66.2612C68.5988 53.5957 67.8833 37.3524 67.8833 37.3524V0H12.9996Z" fill="#0260AA"/>
<path d="M41.7656 58.7477C48.1341 51.7352 47.4186 47.4418 49.8515 38.9982C51.4973 33.3452 54.7889 29.6243 57.6511 28.551C58.8676 28.0501 59.6547 28.1932 60.3703 28.2647C61.5867 28.4079 62.5885 29.3381 61.5152 29.195C59.7978 29.0519 58.0089 29.7674 59.44 30.3399C60.9427 30.9839 63.0179 30.1252 64.8068 31.771C66.5241 33.2737 65.6654 36.2075 64.2343 36.4937C63.8765 36.5653 63.8765 36.0644 63.8765 35.7782C63.9481 33.7746 57.2218 32.7728 53.2146 40.2862C50.8533 44.7227 48.7066 53.6672 41.7656 58.7477Z" fill="white"/>
<path d="M36.4695 15.0984C35.3962 14.2397 36.1833 12.737 37.1851 12.6655C38.1153 12.5939 38.7593 13.3095 38.7593 14.3112C38.7593 14.5259 38.7593 14.669 38.6878 14.8837C38.974 14.5975 39.1171 14.3112 39.1887 13.7388C39.3318 12.3792 38.1153 11.1628 36.6126 11.1628C35.3246 11.1628 34.2513 12.1646 34.0366 13.381C33.321 12.8086 31.8184 11.449 31.8184 9.3023C35.1815 6.72627 42.0509 7.94273 44.7701 11.8068C50.1368 20.322 39.1887 24.6154 40.3336 38.7835C36.3264 29.4096 44.8416 21.7531 36.4695 15.0984Z" fill="white"/>
<path d="M32.8919 14.2397C34.8955 16.1002 36.9706 18.7478 36.5413 22.0394C34.4661 36.6369 28.8132 57.2451 47.0601 65.6172C44.1262 66.9052 34.8239 68.6941 30.1728 58.5331C25.8794 48.5152 32.1048 34.204 33.3928 24.043C33.8937 19.9642 30.5305 17.6029 27.6683 15.0984C22.8025 10.9481 16.9348 6.65476 16.8633 5.65297C18.0082 4.93741 29.4572 9.51702 30.459 9.8748C30.8168 12.5939 32.0332 13.3095 32.8919 14.2397Z" fill="white"/>
<path d="M29.385 33.7746C30.673 27.5492 30.3868 22.3972 26.7374 20.322C24.5192 19.034 20.9414 19.9642 22.5156 20.3936C23.3027 20.6082 23.7321 20.8229 24.1614 21.1091C24.8054 21.5385 25.0201 22.1825 24.1614 22.254C22.9449 22.1825 21.8716 21.4669 20.1542 21.61C16.8627 21.8247 16.2186 24.2576 17.0773 24.1145C21.5854 23.4705 27.5961 25.1163 29.385 33.7746Z" fill="white"/>
<path d="M27.8826 40.2147C28.5981 32.8444 25.0203 28.4079 21.5856 27.1199C20.226 26.619 18.5803 26.8336 18.0078 27.1914C17.2207 27.6208 18.938 27.6923 19.6536 27.9786C20.7269 28.4079 20.7985 29.2666 20.0829 29.195C19.8683 29.195 17.3638 28.4079 16.0042 29.7675C14.5731 31.1986 15.3602 33.7031 16.2904 34.2755C16.7913 34.5617 16.7198 34.3471 16.6482 33.8462C16.5051 32.9159 16.9345 32.415 17.2922 32.1288C19.7967 30.483 25.3781 33.6315 27.8826 40.2147Z" fill="white"/>
<path d="M43.0527 59.6065C50.2084 54.4544 50.5662 50.6619 54.0724 44.1503C56.4338 39.6422 58.008 37.4955 61.1565 37.4955C62.9454 37.4955 63.661 39.0698 63.017 38.9267C61.5143 38.5689 60.7987 39.5707 61.5858 39.8569C62.7307 40.3578 63.5894 40.7871 63.9472 41.932C64.7343 44.6512 62.0867 45.8676 61.8005 45.653C61.7289 45.5814 61.8005 45.5099 61.8005 45.4383C62.6592 43.5063 60.1547 40.9302 56.1475 47.0841C54.0009 50.3757 47.3461 57.8175 43.0527 59.6065Z" fill="white"/>
<path d="M40.4766 57.5313C44.6984 48.0143 41.4784 43.864 42.4801 35.1342C43.3388 27.6207 46.8451 21.9678 51.21 19.9642C53.2851 19.034 55.4318 19.034 54.6447 19.6064C54.0723 20.0358 53.9292 20.5367 54.7163 20.5367C55.575 20.5367 55.9327 20.2504 57.3639 20.2504C59.5105 20.1789 61.2995 21.1091 59.5105 21.2522C58.4372 21.3238 55.575 21.61 57.0061 22.5402C57.7932 23.1127 60.083 22.4687 61.9435 22.7549C64.0186 23.1127 65.5928 25.0447 64.8773 25.8318C64.3764 26.3327 64.2333 25.5456 61.7288 25.2594C52.498 24.3291 49.4211 31.9141 48.0615 36.1359C45.8433 43.7209 47.5606 48.0143 40.4766 57.5313Z" fill="white"/>
</svg>
