<svg width="80" height="80" viewBox="0 0 80 80" fill="none" xmlns="http://www.w3.org/2000/svg">
<g clip-path="url(#clip0_2491:55321)">
<path d="M69.1971 39.9926C69.1971 62.0575 55.9553 79.9555 39.6142 79.9555C23.2731 79.9555 10.0312 62.0723 10.0312 39.9926C10.0312 17.9129 23.288 0.0296631 39.6142 0.0296631C55.9404 0.0296631 69.1971 17.9277 69.1971 39.9926Z" fill="white"/>
<path d="M13.6468 46.8138C12.7719 46.8138 11.6449 46.8879 10.4883 46.9917C10.8738 49.9129 11.4966 52.7303 12.3122 55.4143V55.2364C12.3122 55.2364 21.4021 53.1604 25.9545 53.1604C35.3706 53.4866 44.5495 57.2086 53.2538 57.3124C57.8062 57.3124 66.8961 55.2364 66.8961 55.2364V55.4143C67.7413 52.7007 68.3641 49.8239 68.7496 46.8434C68.4086 46.8286 68.0824 46.8138 67.7858 46.8138C64.7756 46.8138 61.7654 47.7035 58.7552 47.7035C55.745 47.7035 52.7348 46.8138 49.7246 46.8138C46.7144 46.8138 43.7042 47.7035 40.694 47.7035C37.6838 47.7035 34.6736 46.8138 31.6634 46.8138C28.6532 46.8138 25.6431 47.7035 22.6329 47.7035C19.6227 47.7035 16.657 46.8138 13.6468 46.8138ZM25.9693 54.7915C22.0101 54.7915 14.6254 56.3633 12.7719 56.7637C14.4772 61.7164 16.8942 66.1205 19.8599 69.7239C22.5291 69.2345 28.6829 68.1965 32.1973 68.1965C41.6134 68.5227 38.9294 70.4653 47.6338 70.5691C51.4595 70.5691 57.9989 69.3235 60.0156 68.9231C62.6551 65.5274 64.8201 61.4792 66.3919 56.9861C64.4494 57.4162 57.1834 58.9435 53.2686 58.9435C43.8525 58.6173 34.6736 54.8953 25.9693 54.7915ZM32.1973 69.8277C29.1574 69.8277 24.1305 70.6136 21.0907 71.1474C26.1621 76.6636 32.5976 79.9555 39.6115 79.9555C46.7441 79.9555 53.2835 76.545 58.3845 70.8656C55.5374 71.3995 50.7033 72.2002 47.619 72.2002C38.2177 71.874 40.9016 69.9314 32.1973 69.8277Z" fill="#0044AA"/>
<path d="M31.3516 30.0427C30.2246 30.102 28.4897 31.8666 27.7779 31.9111C26.7251 31.9704 26.4433 31.1993 25.2719 31.2142C21.8465 31.2586 21.5351 37.3087 16.9382 37.2642L10.1171 37.2049C10.0726 38.1243 10.043 39.0585 10.043 39.9927C10.043 41.9204 10.1468 43.8036 10.3395 45.6572H68.9123C69.1051 43.8036 69.2089 41.9204 69.2089 39.9927C69.2089 39.014 69.1792 38.0501 69.1347 37.1011C59.2293 36.9676 48.182 37.4125 37.9948 37.6646C35.1477 37.7387 33.9762 29.9092 31.3516 30.0427Z" fill="black"/>
<path d="M27.6597 39.266C28.9794 40.9861 30.833 43.5811 32.4196 45.8202L33.3687 47.14C36.112 51.6627 34.3325 50.8323 36.631 54.2132L37.2538 55.5626C39.3742 58.7952 39.7449 59.6553 39.6263 59.8925C34.1991 62.6506 29.7357 60.5153 27.4966 60.4263C24.5902 60.3077 24.7385 62.4282 21.1055 63.3772C23.656 63.1696 25.6282 63.9852 27.0814 63.7776C38.618 60.975 40.2046 65.4829 46.2992 65.6312C50.1694 65.7201 54.6031 63.1844 58.4586 61.6571C57.5392 59.9667 55.656 59.848 54.6921 59.8035C53.0165 59.7294 49.6208 60.8712 49.2649 59.4328C49.1907 58.2762 51.4298 56.393 50.3622 56.4819C49.8432 56.393 53.669 51.7813 51.8006 52.5375C52.0971 51.5589 54.618 49.0528 52.8979 49.4532C54.0693 47.7628 54.3214 47.0806 54.3511 46.532L53.9062 45.6868C53.9804 45.1381 54.6773 44.6933 54.7218 44.1446C54.4549 44.2484 54.0545 44.6191 53.9359 44.4412C53.8024 44.1001 54.6328 43.2549 54.8701 41.6386C54.3807 42.0389 53.58 42.9435 53.4465 42.7655C53.2982 42.7359 54.5735 39.9185 54.2028 37.5162C51.6968 45.1381 46.4623 48.5338 43.2297 53.3086C42.8886 53.6645 42.2361 50.9064 40.694 49.8684C40.7681 50.2391 40.8571 50.6098 40.5902 50.8174C40.2639 50.9657 39.6263 48.5635 38.6625 47.4514L36.5716 45.6275C36.1713 45.2864 35.7264 44.545 35.1926 43.9963C35.2964 44.4115 35.2816 44.6784 35.0888 44.7377C34.7032 44.5598 34.0953 42.38 32.7607 41.772C32.8348 42.1279 33.2649 42.7804 32.9683 42.8249C32.731 42.9731 31.6782 41.0306 30.6402 40.393C30.6402 40.734 30.9071 41.3272 30.6402 41.4013C29.6319 40.6747 28.8311 39.3698 27.6597 39.266Z" fill="white"/>
<path d="M26.1482 4.40405C25.4809 4.86374 24.8285 5.36791 24.1908 5.88691H55.0342C54.3966 5.36791 53.7441 4.86374 53.0768 4.40405H26.1482ZM19.7867 10.3355C19.4012 10.81 19.0157 11.3142 18.6301 11.8183H60.5801C60.2094 11.3142 59.8238 10.81 59.4234 10.3355H19.7867ZM15.8127 16.2669C15.5458 16.7562 15.2789 17.2456 15.0416 17.7497H64.2131C63.961 17.2456 63.6941 16.7562 63.442 16.2669C63.4271 16.2669 15.8127 16.2669 15.8127 16.2669ZM13.1287 22.1983C12.9508 22.6876 12.7728 23.177 12.6097 23.6812H66.6301C66.467 23.177 66.2891 22.6876 66.1111 22.1983H13.1287ZM11.3641 28.1297C11.2455 28.6191 11.1417 29.1084 11.0527 29.6126H68.2019C68.0981 29.1084 67.9943 28.6191 67.8905 28.1297H11.3641Z" fill="black"/>
<path d="M53.5804 19.974C53.5804 23.0435 51.0892 25.5347 48.0197 25.5347C44.9502 25.5347 42.459 23.0435 42.459 19.974C42.459 16.9045 44.9502 14.4133 48.0197 14.4133C51.0892 14.4133 53.5804 16.9045 53.5804 19.974Z" fill="#F00000"/>
<path d="M43.8826 16.267C43.4971 16.697 43.1709 17.2012 42.9336 17.7498H53.1208C52.8835 17.2012 52.5573 16.697 52.1718 16.267H43.8826ZM42.9336 22.1984C43.1709 22.747 43.4971 23.2512 43.8826 23.6812H52.1718C52.5573 23.2512 52.8835 22.747 53.1208 22.1984H42.9336Z" fill="white"/>
<path d="M69.1971 39.9926C69.1971 62.0575 55.9553 79.9555 39.6142 79.9555C23.2731 79.9555 10.0312 62.0723 10.0312 39.9926C10.0312 17.9129 23.288 0.0296631 39.6142 0.0296631C55.9404 0.0296631 69.1971 17.9277 69.1971 39.9926Z" stroke="#808080" stroke-width="0.4842"/>
</g>
<defs>
<clipPath id="clip0_2491:55321">
<rect width="80" height="80" fill="white"/>
</clipPath>
</defs>
</svg>
