<svg width="80" height="80" viewBox="0 0 80 80" fill="none" xmlns="http://www.w3.org/2000/svg">
<path fill-rule="evenodd" clip-rule="evenodd" d="M53.8929 19.5807L39.933 6L26.097 19.5172V26.0933H19.5709L6 40.0678L19.5089 53.9225H26.097V60.4193L40.0526 74L53.8929 60.4842V53.9211H60.4349L74 39.9466L60.4911 26.0933H53.8915V19.5807H53.8929ZM29.5956 53.9225V58.9408L40.0483 69.1115L50.3943 59.0072V53.9225H42.7529V46.2227H37.2471V53.9225H29.5956V53.9225ZM33.7484 46.2227V50.4203H29.5956V46.2227H33.7484ZM33.7484 42.7219H26.097V50.4203H20.9816L10.8834 40.0635L21.0493 29.5942H26.097V37.2738H33.7484V42.7219ZM37.2471 42.7219H42.7529V37.2723H37.2471V42.7205V42.7219ZM37.2471 33.7715H42.7529V26.0933H50.3943V21.0592L39.9373 10.8899L29.5956 20.9943V26.0948H37.2471V33.7729V33.7715ZM29.5956 29.5942V33.7715H33.7484V29.5942H29.5956ZM46.253 50.4203H50.3943V46.2227H46.2516V50.4203H46.253ZM53.8929 42.7219V50.4203H58.955L69.1166 39.9524L59.017 29.5956H53.8929V37.2738H46.2516V42.7219H53.8929V42.7219ZM46.2516 33.7715V29.5942H50.3943V33.7715H46.2516Z" fill="#153C68"/>
</svg>
