<svg width="80" height="80" viewBox="0 0 80 80" fill="none" xmlns="http://www.w3.org/2000/svg">
<g clip-path="url(#clip0_2491:55313)">
<path d="M37.8764 78.8474C32.828 76.2052 28.3524 73.0104 24.7127 69.4246C19.826 64.6255 16.8468 59.5029 15.4853 53.5782L15 51.8999V0H65.5519V51.7314L65.1744 53.3895C64.6217 55.8295 64.3251 56.7799 63.523 58.6536C60.4495 65.8387 54.4439 72.06 45.385 77.432C43.7741 78.3891 40.559 80.0067 40.2827 80C40.1681 79.9933 39.0829 79.481 37.8764 78.8474Z" fill="white"/>
<path d="M37.8764 78.8474C32.828 76.2052 28.3524 73.0104 24.7127 69.4246C19.826 64.6255 16.8468 59.5029 15.4853 53.5782L15 51.8999V0H65.5519V51.7314L65.1744 53.3895C64.6217 55.8295 64.3251 56.7799 63.523 58.6536C60.4495 65.8387 54.4439 72.06 45.385 77.432C43.7741 78.3891 40.559 80.0067 40.2827 80C40.1681 79.9933 39.0829 79.481 37.8764 78.8474ZM23.7084 64.6322C25.1171 64.3761 26.5595 63.9178 28.7905 63.0213L30.7115 62.2395L32.8819 63.1089C36.4475 64.5311 37.2967 64.7131 40.3231 64.7131C43.2821 64.7064 44.1988 64.5042 47.8991 63.0146L49.8201 62.2395L51.1075 62.7854C53.5812 63.8369 55.0371 64.3155 56.6412 64.5985L58.2589 64.8816L58.7442 64.302C59.5598 63.3246 60.281 62.1383 60.1664 61.9564C60.1057 61.862 59.5733 61.7811 58.9801 61.7811C57.1063 61.7811 55.0168 61.2149 51.5052 59.759L49.7729 59.0378L48.4653 59.631C42.3789 62.4012 38.6717 62.4619 32.6931 59.8804L30.7115 59.0244L28.649 59.9006C25.6698 61.1745 24.0117 61.6261 21.9694 61.7272C21.019 61.7744 20.2372 61.889 20.2372 61.9766C20.2372 62.1788 21.1404 63.4931 21.7942 64.2346C22.3604 64.8816 22.3401 64.8749 23.7084 64.6322ZM23.7151 57.892C25.3665 57.4741 27.4829 56.4698 29.2826 55.2633C30.0308 54.7578 30.7048 54.3466 30.7722 54.3466C30.8396 54.3466 31.217 54.5623 31.6012 54.8319C32.7066 55.5868 34.9174 56.7866 35.9352 57.1843C40.0063 58.7817 43.7404 58.1886 48.3912 55.2026C49.1259 54.7308 49.7797 54.3466 49.8471 54.3466C49.9145 54.3466 50.4402 54.6769 51.0131 55.0813C52.6106 56.2069 54.0934 56.9753 55.8526 57.5752C57.3085 58.074 57.6388 58.1279 59.398 58.1212C60.6921 58.1144 61.5616 58.0335 62.0132 57.8583C62.6401 57.6224 62.721 57.5145 63.1388 56.3552C63.6915 54.8319 63.7455 54.2523 63.3208 54.4342C61.0494 55.3846 58.8049 55.5059 56.6075 54.7915C54.9831 54.2657 52.7521 52.8503 51.0131 51.2394L49.7999 50.1205L48.7349 51.0776C45.5535 53.9355 42.9855 55.1959 40.3366 55.1892C37.5866 55.1824 35.1803 54.05 32.0326 51.2798L30.7183 50.1205L29.4039 51.327C25.3867 55.0206 21.7268 56.0789 17.9253 54.6567C17.4197 54.4679 16.9614 54.3601 16.9075 54.4208C16.7525 54.5758 17.6759 57.3191 17.9657 57.555C18.7948 58.2425 21.6594 58.411 23.7151 57.892ZM41.7655 51.1248C44.6773 50.5856 46.9555 48.5972 47.9261 45.7393C48.2362 44.8294 48.2968 44.3036 48.2766 42.6523C48.2362 38.6823 46.2545 24.548 45.6951 24.2042C45.6209 24.157 45.1154 24.3862 44.5829 24.7165C41.779 26.442 38.7594 26.442 35.9082 24.7165C35.3825 24.3997 34.9174 24.1436 34.8702 24.1436C34.7017 24.1436 34.5804 24.7098 33.9199 28.6595C32.5516 36.8557 31.9585 43.0095 32.3629 44.8901C33.3065 49.224 37.3776 51.9336 41.7655 51.1248ZM42.8911 20.888C48.0407 18.5222 48.0811 11.3236 42.9653 8.93083C40.4849 7.77151 37.6338 8.28376 35.6723 10.2452C34.0008 11.9168 33.3133 14.6061 34.0008 16.7832C34.6074 18.7042 36.2385 20.4095 38.1325 21.0902C39.4806 21.5823 41.5835 21.4879 42.8911 20.888Z" fill="#BD6531"/>
</g>
<defs>
<clipPath id="clip0_2491:55313">
<rect width="80" height="80" fill="white"/>
</clipPath>
</defs>
</svg>
