<svg width="80" height="80" viewBox="0 0 80 80" fill="none" xmlns="http://www.w3.org/2000/svg">
<path d="M40.4646 80H40.2166C40.2001 79.9769 40.1887 79.9457 40.1664 79.9318C39.1598 79.3032 38.1455 78.6865 37.1469 78.0453C36.4209 77.5791 35.6931 77.1104 35.0062 76.5898C33.9597 75.7965 32.933 74.9772 31.9261 74.1321C30.8693 73.2434 29.8377 72.3237 28.8172 71.3934C28.2415 70.8687 27.7062 70.2992 27.1602 69.7426C26.6917 69.265 26.2321 68.7787 25.7722 68.2928C25.5324 68.0395 25.2893 67.7879 25.0675 67.5192C24.5489 66.8908 24.0372 66.2567 23.5325 65.6168C22.9044 64.8168 22.2616 64.0263 21.6758 63.1958C21.1323 62.4252 20.6403 61.6168 20.1534 60.8082C19.572 59.8424 18.9746 58.8817 18.4676 57.8767C17.8872 56.726 17.3846 55.5351 16.8752 54.3501C16.5552 53.6055 16.253 52.8501 16.0006 52.0806C15.7135 51.2058 15.4673 50.3156 15.2469 49.4214C15.0313 48.5467 14.8704 47.6586 14.6858 46.7764C14.6028 46.3797 14.4964 45.9861 14.4434 45.5854C14.3593 44.9487 14.3103 44.3073 14.248 43.6678C14.1659 42.8253 14.0154 41.9827 14.0145 41.14C13.9997 27.5499 13.9962 13.9599 14.0041 0.369778V0.0107294H14.4653C31.7284 0.0107294 48.9916 0.0105828 66.2547 0.0102899C66.3991 0.0102899 66.5435 0.00357785 66.6879 0V41.4884C66.6565 41.5877 66.633 41.6894 66.6177 41.7925C66.5893 42.1807 66.5852 42.5712 66.5455 42.958C66.4758 43.636 66.3927 44.3127 66.3035 44.9884C66.2172 45.6426 66.1544 46.3033 66.0132 46.9462C65.7658 48.0726 65.5056 49.1993 65.1786 50.3045C64.7712 51.6819 64.3679 53.0694 63.8215 54.3942C63.2107 55.8748 62.4809 57.3109 61.729 58.7272C61.097 59.9178 60.3966 61.0767 59.6576 62.2044C58.9068 63.35 58.0989 64.4613 57.2648 65.5483C56.6006 66.4137 55.8808 67.2393 55.1468 68.0473C54.2862 68.9947 53.4121 69.9334 52.4917 70.8218C51.4605 71.8171 50.3801 72.7624 49.3035 73.7094C48.5609 74.3625 47.8151 75.0175 47.0231 75.6075C45.7865 76.5287 44.527 77.4189 43.2447 78.2782C42.3413 78.8868 41.3929 79.4285 40.4646 80Z" fill="#82C8B8"/>
<path d="M48.6455 14.856C48.9464 14.9772 49.2522 15.0876 49.5472 15.222C50.2567 15.5451 50.6821 16.149 51.0437 16.7988C51.6645 17.9144 51.9576 19.1383 52.176 20.3821C52.2155 20.6334 52.2363 20.8873 52.2382 21.1416C52.264 22.1783 52.248 23.2173 52.3139 24.2512C52.3652 24.9773 52.5577 25.6864 52.8806 26.3387C53.242 27.081 53.5816 27.843 54.0318 28.5304C54.5385 29.3127 55.1122 30.0493 55.7466 30.7321C56.5099 31.544 57.3764 32.2555 58.4082 32.7303C59.0584 33.0363 59.77 33.1897 60.4885 33.1789C62.0366 33.1555 63.5853 33.1716 65.1338 33.1714V35.5228C63.4088 35.5226 61.6837 35.5119 59.9588 35.5275C59.2507 35.5339 58.6058 35.2915 57.9557 35.081C57.4948 34.9343 57.0527 34.7342 56.6382 34.4849C56.0532 34.1274 55.4998 33.7151 54.9517 33.3013C54.6039 33.0337 54.2726 32.7453 53.9596 32.4377C53.0777 31.5859 52.2659 30.6694 51.6403 29.6125C51.1578 28.7973 50.6766 27.971 50.3075 27.102C49.9568 26.282 49.7692 25.4015 49.7554 24.5097C49.7408 23.4862 49.717 22.4599 49.6227 21.4417C49.5676 20.8472 49.3636 20.267 49.2329 19.679C49.1269 19.1778 48.9284 18.7007 48.6475 18.2723C48.3473 17.8217 47.9872 17.5569 47.3786 17.5639C44.5383 17.5961 41.6979 17.5963 38.8571 17.5642C38.279 17.5506 37.7111 17.7176 37.2324 18.042C36.0548 18.8076 34.8583 19.5441 33.6703 20.2938C33.5974 20.3521 33.5062 20.3828 33.4129 20.3804C33.3196 20.3781 33.2301 20.3429 33.1602 20.281C32.0565 19.4394 30.9504 18.6009 29.8337 17.7768C29.6736 17.6601 29.4823 17.5938 29.2843 17.5863C24.8427 17.5759 20.4011 17.5732 15.9594 17.5782H15.5449V14.856H30.5456C30.5542 14.874 30.558 14.8979 30.572 14.9092C31.3198 15.5137 32.0617 16.1256 32.8203 16.7161C33.1007 16.9344 33.3186 17.2754 33.8078 16.9254C34.8362 16.1896 35.927 15.5406 36.9921 14.856H48.6455Z" fill="white"/>
<path d="M48.3388 50.4194L48.291 50.415C48.2614 50.5085 48.2316 50.602 48.2024 50.6957C48.1726 50.7916 48.1425 50.8875 48.1141 50.9838C47.7948 52.0691 47.0772 52.903 46.353 53.7215C45.9256 54.2046 45.4306 54.6285 44.9574 55.0697C44.5992 55.4037 44.2227 55.718 43.8627 56.0502C43.4979 56.3867 43.1101 56.7063 42.7924 57.0839C42.3524 57.6127 41.9412 58.1648 41.5604 58.7376C41.196 59.2796 40.9329 59.8944 40.9299 60.548C40.9106 64.7632 40.92 68.9785 40.92 73.1938V73.559C41.4666 73.0354 41.9653 72.5624 42.4589 72.084C43.5227 71.0371 44.5141 69.919 45.4261 68.7374C46.3466 67.5642 47.2049 66.3509 47.8127 64.9789C48.1303 64.2619 48.3565 63.5346 48.3492 62.7234C48.3228 59.7688 48.3388 56.8138 48.3388 53.859C48.3388 52.7124 48.3388 51.5659 48.3388 50.4194ZM47.164 37.272L47.1155 37.2743C46.9553 37.6861 46.8502 38.1319 46.623 38.5024C46.1997 39.2233 45.6759 39.8803 45.0673 40.4533C44.5228 40.947 43.9538 41.4145 43.4251 41.9243C42.661 42.661 41.9263 43.4211 41.3614 44.3389C41.0266 44.8826 40.7969 45.4324 40.7968 46.0709C40.7959 49.6046 40.7957 53.1384 40.7963 56.6722V57.0599C40.914 56.9485 40.9886 56.884 41.0564 56.8129C41.9211 55.9059 42.7919 55.0045 43.646 54.0876C44.0931 53.6257 44.5134 53.1387 44.9051 52.629C45.5961 51.6926 46.2416 50.7214 46.7091 49.6476C46.9808 49.0236 47.1821 48.3942 47.1758 47.6836C47.1485 44.5634 47.164 41.4428 47.164 38.3223L47.164 37.272ZM39.7936 57.0434L39.8682 57.0012C39.8682 56.9327 39.8682 56.8643 39.8682 56.7958C39.8682 53.1597 39.8678 49.5236 39.8671 45.8874C39.871 45.8057 39.8622 45.7238 39.8412 45.6447C39.5241 44.667 39.0523 43.7776 38.3103 43.0548C37.2622 42.0338 36.2009 41.0265 35.152 40.0065C34.3765 39.2513 33.8119 38.3065 33.5143 37.2657C33.5085 37.2891 33.5044 37.313 33.5021 37.337C33.5013 40.9835 33.5033 44.6299 33.5081 48.2763C33.5197 48.5483 33.5778 48.8163 33.6799 49.0687C34.0773 50.15 34.6727 51.1362 35.3341 52.0612C36.0305 53.035 36.8512 53.9208 37.6366 54.8285C37.9666 55.2099 38.3483 55.5459 38.7016 55.9074C39.0687 56.283 39.4299 56.6645 39.7936 57.0434Z" fill="#FFE781"/>
<path d="M32.3867 50.5966C32.4279 50.6094 32.5002 50.6141 32.5059 50.6361C32.7561 51.6119 33.3448 52.3995 33.935 53.1796C34.1899 53.5164 34.5117 53.8026 34.8064 54.1085C34.9954 54.3046 35.1845 54.5013 35.384 54.6864C36.1415 55.3891 36.9362 56.0552 37.6527 56.7973C38.218 57.3665 38.7189 57.9963 39.1464 58.6752C39.5769 59.3836 39.8932 60.1434 39.8846 61.044C39.8458 65.0814 39.8677 69.1193 39.8677 73.1571V73.5385C39.7474 73.4592 39.6322 73.3723 39.5229 73.2784C38.8352 72.5953 38.1236 71.9334 37.4746 71.2146C36.6267 70.2755 35.8239 69.2949 35.012 68.3234C34.2166 67.3637 33.5538 66.3015 33.0413 65.1653C32.8326 64.7087 32.6705 64.2303 32.4968 63.7582C32.4629 63.652 32.4473 63.5409 32.4509 63.4295C32.4475 62.4588 32.4508 61.4881 32.4462 60.5174C32.4362 60.412 32.4163 60.3079 32.3867 60.2063L32.3867 50.5966Z" fill="#FFE781"/>
<path d="M40.7958 24.6815C40.7751 25.276 40.7219 25.8715 40.7402 26.4648C40.7684 27.8257 41.0856 29.1651 41.6706 30.3942C41.9827 31.039 42.4015 31.6321 42.7098 32.2785C43.005 32.9192 43.2641 33.5758 43.486 34.2454C43.587 34.5376 43.598 34.8626 43.6379 35.1742C43.7689 36.2925 43.7173 37.4247 43.485 38.5264C43.3678 39.1145 42.9914 39.6703 42.6542 40.1899C42.1812 40.9187 41.6087 41.5823 41.1311 42.3084C40.8163 42.7869 40.5936 43.3264 40.3402 43.8182C40.2817 43.677 40.1985 43.4756 40.1147 43.2745C39.6082 42.0577 38.7617 41.0524 38.0586 39.9581C37.5811 39.2149 37.2285 38.4383 37.2054 37.532C37.1843 36.7031 37.0713 35.8729 37.1034 35.0474C37.1451 34.3195 37.2527 33.5969 37.4246 32.8883C37.6053 32.1042 37.8268 31.33 38.0883 30.569C38.2926 29.9987 38.5275 29.4399 38.7921 28.8949C39.4294 27.5176 40.0816 26.1472 40.7262 24.7734C40.734 24.7434 40.7366 24.7124 40.734 24.6815L40.7958 24.6815Z" fill="#FFE781"/>
<path d="M48.3391 50.4194C48.3391 51.5659 48.3391 52.7124 48.3391 53.859C48.3391 56.8138 48.3231 59.7688 48.3495 62.7234C48.3568 63.5346 48.1306 64.2619 47.813 64.9789C47.2052 66.3509 46.3468 67.5642 45.4264 68.7375C44.5143 69.919 43.523 71.0371 42.4592 72.084C41.9656 72.5624 41.4669 73.0354 40.9203 73.559V73.1938C40.9203 68.9785 40.9108 64.7632 40.9302 60.548C40.9332 59.8945 41.1962 59.2796 41.5607 58.7376C41.9415 58.1648 42.3527 57.6127 42.7926 57.0839C43.1104 56.7063 43.4982 56.3867 43.863 56.0502C44.223 55.718 44.5994 55.4037 44.9577 55.0697C45.4309 54.6285 45.9259 54.2046 46.3533 53.7216C47.0775 52.903 47.7951 52.0691 48.1144 50.9838C48.1428 50.8875 48.1729 50.7916 48.2027 50.6957C48.2318 50.602 48.2617 50.5085 48.2912 50.415L48.3391 50.4194Z" fill="#FFE781"/>
<path d="M47.1646 37.272V38.3223C47.1646 41.4428 47.149 44.5634 47.1764 47.6836C47.1826 48.3942 46.9813 49.0236 46.7096 49.6476C46.2421 50.7214 45.5967 51.6926 44.9056 52.629C44.514 53.1387 44.0936 53.6257 43.6466 54.0876C42.7924 55.0045 41.9217 55.9059 41.0569 56.8129C40.9891 56.884 40.9146 56.9485 40.7969 57.0599V56.6722C40.7969 53.1384 40.797 49.6047 40.7973 46.0709C40.7975 45.4324 41.0272 44.8826 41.3619 44.3389C41.9268 43.4211 42.6616 42.661 43.4256 41.9243C43.9543 41.4145 44.5233 40.947 45.0678 40.4533C45.6764 39.8803 46.2003 39.2233 46.6235 38.5024C46.8508 38.1319 46.9558 37.6861 47.1161 37.2743L47.1646 37.272Z" fill="#FFE781"/>
<path d="M39.7935 57.0433C39.4297 56.6645 39.0686 56.283 38.7015 55.9074C38.3482 55.5459 37.9665 55.2099 37.6365 54.8285C36.851 53.9208 36.0303 53.035 35.334 52.0612C34.6725 51.1362 34.0772 50.15 33.6797 49.0687C33.5777 48.8163 33.5196 48.5483 33.5079 48.2763C33.4972 44.6299 33.4952 40.9835 33.502 37.337C33.5043 37.313 33.5083 37.2891 33.5142 37.2657C33.8118 38.3065 34.3763 39.2513 35.1519 40.0065C36.2008 41.0265 37.2621 42.0338 38.3102 43.0548C39.0521 43.7776 39.5239 44.667 39.8411 45.6447C39.8621 45.7238 39.8708 45.8057 39.867 45.8874C39.8682 49.5236 39.8685 53.1597 39.868 56.7959C39.868 56.8643 39.868 56.9328 39.868 57.0012L39.7935 57.0433Z" fill="#FFE781"/>
<path d="M65.1358 1.63538V33.1638H59.681C59.3561 33.0751 59.0069 33.0348 58.7117 32.887C58.1718 32.6367 57.6593 32.3312 57.1824 31.9754C56.5444 31.4524 55.9385 30.8914 55.3681 30.2955C54.9965 29.9057 54.6559 29.4877 54.3492 29.0451C53.804 28.2656 53.3419 27.4312 52.9701 26.5556C52.6495 25.8222 52.3787 25.066 52.3165 24.2692C52.2469 23.379 52.2625 22.4821 52.2436 21.588C52.236 21.2273 52.2922 20.8546 52.2196 20.5082C52.0547 19.7213 51.8445 18.9426 51.6223 18.1693C51.334 17.1655 50.8777 16.2525 50.0777 15.5444C49.5917 15.1142 49.0343 14.8343 48.3809 14.8328C44.6726 14.8242 40.9643 14.8247 37.2561 14.8342C37.1064 14.8397 36.9608 14.8847 36.8341 14.9645C35.7776 15.6193 34.7176 16.2695 33.6829 16.9575C33.423 17.1303 33.2843 17.0698 33.0899 16.9085C32.4093 16.3436 31.7115 15.799 31.0411 15.2225C30.6783 14.9105 30.2926 14.8165 29.816 14.8183C25.1885 14.8355 20.5609 14.8286 15.9333 14.8286H15.5684V1.63538H65.1358Z" fill="#83CDE1"/>
<path d="M60.9229 2.3987C60.6983 2.44019 60.4732 2.47947 60.2492 2.52356C59.4595 2.67893 58.6644 2.81205 57.8825 2.99966C57.219 3.16064 56.5643 3.3556 55.9209 3.58377C55.4331 3.7477 54.9624 3.95891 54.5157 4.2144C53.7703 4.63465 53.0552 5.10662 52.3758 5.62683C51.5673 6.27488 50.8605 7.05437 50.492 8.0418C50.3188 8.47568 50.243 8.94231 50.2699 9.40872C50.2968 9.87514 50.4259 10.3299 50.6479 10.741C50.6702 10.783 50.6861 10.8284 50.7049 10.8722L50.6294 10.9167C50.4913 10.6947 50.3086 10.4882 50.2247 10.2475C50.0669 9.79477 49.8833 9.32548 49.8653 8.85714C49.8635 8.38411 49.9522 7.9151 50.1265 7.47535C50.3721 6.78524 50.7822 6.16535 51.3212 5.66928C51.888 5.15983 52.4524 4.62961 53.1685 4.30664C53.6322 4.09752 54.0666 3.82321 54.5319 3.6182C55.0073 3.41055 55.4936 3.22882 55.9887 3.0738C56.5901 2.88347 57.2 2.71604 57.8132 2.56733C58.1671 2.48314 58.5275 2.4286 58.8906 2.40427C59.5646 2.35657 60.2409 2.33916 60.9162 2.30914L60.9229 2.3987Z" fill="#292C68"/>
<path d="M51.2149 11.6298C50.8968 11.5586 50.5815 11.469 50.26 11.4207C49.8588 11.3605 49.4533 11.3244 49.0484 11.2955C48.3557 11.246 47.6599 11.1548 46.9692 11.1809C45.7235 11.228 44.4822 11.3066 43.2582 11.6255C42.2229 11.8953 41.2138 12.2061 40.3622 12.8518C39.744 13.3205 39.2084 13.8978 38.6723 14.3931C38.6676 14.1835 38.705 13.975 38.7824 13.7801C38.8598 13.5852 38.9756 13.4079 39.1229 13.2586C39.7083 12.6349 40.3389 12.0588 41.1453 11.7153C41.9807 11.3595 42.8298 11.058 43.7443 10.9817C44.4433 10.9233 45.1407 10.8369 45.8408 10.8036C46.4815 10.7647 47.124 10.7662 47.7645 10.8079C48.4367 10.8607 49.102 11.0005 49.7708 11.0989C50.0909 11.146 50.4179 11.1616 50.7307 11.2372C50.9197 11.2829 51.0875 11.4163 51.2648 11.5103L51.2149 11.6298Z" fill="#292C68"/>
<path d="M38.4883 13.9431C38.5658 13.6062 38.6227 13.2629 38.7245 12.9334C39.0445 11.8869 39.7412 10.9963 40.6799 10.4338C41.2823 10.0558 41.9515 9.87499 42.6339 9.75259C43.3002 9.63308 43.977 9.56246 44.6521 9.50287C45.1921 9.4552 45.7367 9.43675 46.2789 9.44165C46.7441 9.44586 47.2088 9.50151 47.6893 9.53552C47.6544 9.24489 47.6328 8.94787 47.5811 8.65616C47.4492 7.91195 47.6202 7.21683 47.8955 6.53436C48.2416 5.67657 48.8279 4.9848 49.522 4.41001C50.035 3.96123 50.6245 3.60832 51.2623 3.36811C51.9499 3.12926 52.6132 2.81371 53.3103 2.61147C53.8491 2.45518 54.4253 2.43097 54.9821 2.3324C56.3337 2.0931 57.698 2.14788 59.0592 2.15494C59.5464 2.16622 60.0317 2.21798 60.5103 2.30966C60.0765 2.35866 59.6407 2.39478 59.2092 2.45964C58.5322 2.56141 57.8483 2.64278 57.1854 2.80583C56.3971 2.9972 55.6211 3.23553 54.8613 3.51954C54.3214 3.73276 53.8042 3.99935 53.3173 4.31532C52.6799 4.71656 52.068 5.16141 51.4687 5.61833C51.217 5.81143 51.0004 6.04642 50.8285 6.31301C50.4001 6.98286 49.9737 7.66848 49.8989 8.48373C49.866 8.82674 49.8966 9.17288 49.9893 9.50478C50.1309 9.94319 50.3095 10.3687 50.5234 10.7768C50.6114 10.9563 50.7774 11.0977 50.9592 11.3187C50.3718 11.2122 49.8599 11.1184 49.3477 11.027C49.1306 10.9802 48.9112 10.9449 48.6904 10.9212C48.2313 10.8886 47.7714 10.8674 47.3107 10.8575C46.8448 10.8471 46.3785 10.8558 45.9124 10.855C45.1065 10.8536 44.3157 10.973 43.5177 11.0772C42.6812 11.1981 41.8684 11.4475 41.1079 11.8164C39.9868 12.3201 39.0805 13.2049 38.5502 14.3136L38.4883 13.9431Z" fill="white"/>
<path d="M40.4646 80H40.2166C40.2001 79.9769 40.1887 79.9457 40.1664 79.9318C39.1598 79.3032 38.1455 78.6865 37.1469 78.0453C36.4209 77.5791 35.6931 77.1104 35.0062 76.5898C33.9597 75.7965 32.933 74.9772 31.9261 74.1321C30.8693 73.2434 29.8377 72.3237 28.8172 71.3934C28.2415 70.8687 27.7062 70.2992 27.1602 69.7426C26.6917 69.265 26.2321 68.7787 25.7722 68.2928C25.5324 68.0395 25.2893 67.7879 25.0675 67.5192C24.5489 66.8908 24.0372 66.2567 23.5325 65.6168C22.9044 64.8168 22.2616 64.0263 21.6758 63.1958C21.1323 62.4252 20.6403 61.6168 20.1534 60.8082C19.572 59.8424 18.9746 58.8817 18.4676 57.8767C17.8872 56.726 17.3846 55.5351 16.8752 54.3501C16.5552 53.6055 16.253 52.8501 16.0006 52.0806C15.7135 51.2058 15.4673 50.3156 15.2469 49.4214C15.0313 48.5467 14.8704 47.6586 14.6858 46.7764C14.6028 46.3797 14.4964 45.9861 14.4434 45.5854C14.3593 44.9487 14.3103 44.3073 14.248 43.6678C14.1659 42.8253 14.0154 41.9827 14.0145 41.14C13.9997 27.5499 13.9962 13.9599 14.0041 0.369778V0.0107294H14.4653C31.7284 0.0107294 48.9916 0.0105828 66.2547 0.0102899C66.3991 0.0102899 66.5435 0.00357785 66.6879 0V41.4884C66.6565 41.5877 66.633 41.6894 66.6177 41.7925C66.5893 42.1807 66.5852 42.5712 66.5455 42.958C66.4758 43.636 66.3927 44.3127 66.3035 44.9884C66.2172 45.6426 66.1544 46.3033 66.0132 46.9462C65.7658 48.0726 65.5056 49.1993 65.1786 50.3045C64.7712 51.6819 64.3679 53.0694 63.8215 54.3942C63.2107 55.8748 62.4809 57.3109 61.729 58.7272C61.097 59.9178 60.3966 61.0767 59.6576 62.2044C58.9068 63.35 58.0989 64.4613 57.2648 65.5483C56.6006 66.4137 55.8808 67.2393 55.1468 68.0473C54.2862 68.9947 53.4121 69.9334 52.4917 70.8218C51.4605 71.8171 50.3801 72.7624 49.3035 73.7094C48.5609 74.3625 47.8151 75.0175 47.0231 75.6075C45.7865 76.5287 44.527 77.4189 43.2447 78.2782C42.3413 78.8868 41.3929 79.4285 40.4646 80ZM15.5324 1.61374V2.07755C15.5324 13.974 15.5333 25.8704 15.5351 37.7668C15.5352 38.3832 15.5643 39.0001 15.5962 39.6159C15.6507 40.6695 15.6977 41.7241 15.7864 42.7751C15.8601 43.6468 15.9215 44.5287 16.1087 45.3796C16.4501 46.9313 16.8725 48.4655 17.276 50.003C17.7701 51.8857 18.5559 53.6576 19.3869 55.4086C19.8184 56.3178 20.2679 57.2217 20.7685 58.094C21.4253 59.2383 22.1052 60.3729 22.8413 61.4671C23.4875 62.4279 24.209 63.3399 24.9265 64.2503C25.6712 65.195 26.4235 66.1364 27.2234 67.0339C27.9735 67.8756 28.7826 68.6655 29.58 69.464C30.2936 70.1786 31.0183 70.8822 31.754 71.5746C32.2458 72.0366 32.7517 72.4864 33.2777 72.9088C34.1817 73.6347 35.1018 74.3408 36.0237 75.0439C36.7349 75.5864 37.4477 76.1282 38.1814 76.6391C38.7639 77.0448 39.391 77.3861 39.9739 77.7913C40.2028 77.9504 40.3723 78.0691 40.6404 77.885C41.109 77.5634 41.6029 77.2784 42.0674 76.9513C42.9726 76.3139 43.8752 75.6719 44.7597 75.0062C45.7024 74.2967 46.6385 73.5767 47.5479 72.8254C48.2346 72.2579 48.8858 71.6455 49.5328 71.032C50.3741 70.2342 51.2163 69.4355 52.0199 68.6004C52.8655 67.7215 53.6789 66.8105 54.4823 65.8925C55.1205 65.1634 55.759 64.4295 56.3315 63.6494C57.124 62.5696 57.8509 61.4419 58.613 60.3396C59.4768 59.0905 60.1483 57.7311 60.8837 56.4082C61.4949 55.2705 62.013 54.0851 62.433 52.8638C62.9205 51.5107 63.4356 50.1632 63.8297 48.7821C64.3362 46.9741 64.6934 45.1277 64.8979 43.2613C65.0105 42.2775 65.137 41.2874 65.1382 40.3001C65.1542 27.5147 65.1578 14.7293 65.1488 1.94386V1.61374H15.5324Z" fill="#E52521"/>
</svg>
