<svg width="80" height="80" viewBox="0 0 80 80" fill="none" xmlns="http://www.w3.org/2000/svg">
<g clip-path="url(#clip0_2491:55311)">
<path d="M75.5995 6.98436C75.0062 6.31994 74.3655 5.68715 73.7644 5.03063C72.7677 3.93908 71.7632 2.84752 70.727 1.79551C70.7033 1.71641 70.6637 1.65314 70.5767 1.63732C70.5214 1.58195 70.466 1.53449 70.4106 1.47912C70.3948 1.36838 70.3394 1.3051 70.2208 1.31301C70.2129 1.24182 70.1733 1.20228 70.11 1.18646C69.8648 0.767234 69.4693 0.47457 69.1609 0.110718C69.0106 -0.0712081 68.8919 0.0237099 68.7733 0.126538C68.4569 0.387562 68.1484 0.664406 67.832 0.933341C66.7879 1.82715 65.6647 2.61022 64.5732 3.44867L64.3991 3.58313C64.2963 3.6385 64.1698 3.67014 64.1065 3.78088C63.9246 3.89162 63.7505 4.01027 63.5686 4.121L63.5449 4.12891C63.4579 4.17637 63.3709 4.22383 63.2839 4.27129L63.2522 4.28711C63.1098 4.38203 62.9754 4.46904 62.833 4.56395C62.7776 4.59559 62.7302 4.63514 62.6748 4.66678C62.1765 4.83289 61.7098 5.07018 61.2352 5.29957C61.1878 5.30748 61.1482 5.30748 61.1007 5.31539C60.3651 5.45777 59.6295 5.58432 58.8781 5.67133C58.0238 5.77416 57.1933 5.60805 56.3549 5.51313C56.2678 5.41822 56.1492 5.43404 56.0385 5.43404C55.8882 5.37076 55.7458 5.25211 55.5639 5.30748C55.4848 5.28375 55.4294 5.18092 55.3187 5.22838C55.2396 5.11764 55.1288 5.11764 55.0102 5.12555H55.0023C54.765 4.90408 54.4328 4.90408 54.1559 4.7617C53.7842 4.6035 53.4282 4.41367 53.0485 4.28711C51.0236 3.57522 48.975 2.91871 46.8631 2.49158C45.7715 2.2701 44.6799 2.01699 43.5567 1.95371C43.3511 1.8667 43.1375 1.84297 42.916 1.84297C42.8686 1.83506 42.8132 1.83506 42.7658 1.82715C42.6629 1.77178 42.5522 1.79551 42.4494 1.81924C42.3703 1.80342 42.2991 1.7876 42.22 1.77969C41.7454 1.67687 41.2708 1.62941 40.7883 1.66896C40.4245 1.57404 40.0527 1.62941 39.6809 1.63732C39.6256 1.60568 39.5781 1.60568 39.5227 1.63732C39.4436 1.64523 39.3645 1.64523 39.2854 1.65314C38.5894 1.60568 37.9012 1.71641 37.2131 1.79551C36.082 1.92207 34.9667 2.11191 33.8514 2.33338C33.005 2.5074 32.1666 2.72887 31.3202 2.93453C29.8965 3.28256 28.5202 3.73342 27.1439 4.23174C25.7517 4.73797 24.4387 5.45777 22.9675 5.78207C21.1482 6.19338 19.3843 5.98772 17.7074 5.31539C15.9673 4.61141 14.4723 3.45658 12.9853 2.32547C12.2496 1.76387 11.5457 1.17064 10.8338 0.585308C10.6993 0.47457 10.5886 0.348013 10.4225 0.537849C9.75805 1.28137 9.09362 2.01699 8.42919 2.7526C7.59075 3.67014 6.7444 4.61141 5.89805 5.55268C5.28899 6.22502 4.68785 6.90526 4.07879 7.5776C3.99969 7.66461 3.96014 7.68834 4.07879 7.80699C5.36809 9.12002 6.57038 10.5042 7.8676 11.8094C8.22354 12.1653 8.53202 12.5766 8.77723 13.0354C9.38628 14.1744 9.48911 15.4162 9.48911 16.6581C9.52075 23.9905 9.52075 31.315 9.53657 38.6474C9.53657 40.4825 9.53657 42.3097 9.54448 44.1448C9.54448 47.103 9.54448 50.0692 9.55239 53.0275C9.5603 54.6253 9.43374 56.2389 9.71059 57.8288C10.0033 59.5136 10.4067 61.1667 11.1185 62.7487C11.4587 63.508 11.7751 64.2674 12.1864 64.9951C13.0644 66.5375 14.1243 67.9375 15.3898 69.1794C16.2995 70.0732 17.2803 70.88 18.3639 71.5602C19.3685 72.2088 20.3809 72.8416 21.5279 73.2292C22.2239 73.6247 22.9991 73.8383 23.7505 74.1072C24.7314 74.4632 25.7122 74.8033 26.7484 74.9377C27.8162 75.1908 28.8998 75.3807 29.9835 75.5705C30.1654 75.5943 30.3552 75.6259 30.5372 75.6496C30.5609 75.6496 30.5925 75.6575 30.6163 75.6575C30.727 75.6892 30.8456 75.7287 30.9564 75.7524C32.0875 75.966 33.1949 76.2508 34.2864 76.5909C35.2989 76.9073 36.2164 77.4135 37.1181 77.9751C38.0199 78.5446 38.8899 79.1537 39.6493 79.9051C39.8312 80.087 39.9182 79.9842 40.021 79.8577C40.3849 79.391 40.9149 79.1141 41.3657 78.7582C42.1646 78.1333 43.0505 77.6429 43.9601 77.1841C45.3523 76.4881 46.8314 76.053 48.3501 75.7445C49.3705 75.531 50.4067 75.4044 51.3954 75.0485C52.1785 74.9298 52.9457 74.74 53.713 74.5422C55.3899 74.0993 57.0509 73.601 58.625 72.8574C60.3256 72.0506 61.8996 71.0224 63.3155 69.7647C64.5494 68.6731 65.6726 67.4946 66.606 66.142C67.397 64.9872 68.0772 63.7691 68.6309 62.4877C68.8998 62.0684 68.9948 61.578 69.1609 61.1113C69.7778 59.3949 70.1891 57.6231 70.205 55.8038C70.2524 49.2941 70.1496 42.7843 70.2445 36.2745C70.2841 33.5614 70.2524 30.8562 70.2445 28.1432C70.2445 26.9962 70.2287 25.8572 70.2129 24.7103C70.2445 24.6312 70.2445 24.56 70.205 24.4809C70.2524 24.1882 70.2524 23.8956 70.205 23.6029C70.205 23.5555 70.205 23.5001 70.205 23.4526C70.2603 22.5272 70.2603 21.6017 70.205 20.6763C70.2445 20.5181 70.2445 20.3678 70.205 20.2096C70.2603 18.9124 70.2524 17.6231 70.205 16.3259C70.2445 16.1439 70.2445 15.962 70.205 15.7801C70.2208 15.5112 70.2366 15.2501 70.2524 14.9812C70.2603 14.9021 70.2682 14.823 70.2762 14.7439C70.3394 14.4592 70.4027 14.1744 70.4739 13.8896C70.4976 13.8501 70.4976 13.8105 70.4581 13.7789C70.4818 13.7315 70.4976 13.6919 70.5214 13.6444C70.7349 13.3755 70.8061 13.0354 70.9485 12.7348C71.4784 11.6037 72.396 10.7732 73.2028 9.86354C73.9859 8.97764 74.8085 8.12338 75.6153 7.26121C75.7102 7.14256 75.7023 7.10301 75.5995 6.98436Z" fill="#FCFDFD"/>
<path d="M10.8487 48.5742L16.5359 46.1775L19.1224 43.417L27.056 47.625L33.9217 46.842L39.7512 43.4249L46.348 46.842L53.0635 47.3719L59.5416 43.4249C59.5416 43.4249 61.9304 46.0352 62.3338 45.8849C62.7372 45.7346 69.2865 47.4589 69.2865 47.4589V56.1598L67.3882 63.0571L62.3338 69.1793L54.7166 73.1422L45.4068 75.2145L40.2337 78.5762L34.6336 75.8157L27.3961 74.0043L20.9338 71.7658L16.6229 68.7522L12.4861 64.0142L10.7617 56.9428L10.8487 48.5742Z" fill="#0078E7"/>
<path d="M12.8587 28.4279C12.3841 28.412 11.9966 28.7047 11.5457 28.7759C11.5061 28.7838 11.4745 28.7759 11.435 28.7759C11.4191 27.6369 10.6044 26.49 10.5965 25.3509C10.5807 22.0763 10.5728 18.8095 10.557 15.5349C10.5491 13.9766 9.99537 12.6082 9.08574 11.3585C8.29476 10.259 7.42468 9.23863 6.46759 8.28945C6.44386 8.26572 6.42804 8.21826 6.3964 8.19453C5.80316 7.61711 6.59415 6.81822 7.13992 6.19335C8.00209 5.1888 8.86427 4.19216 9.71062 3.17179C9.91627 2.91868 10.2485 2.79212 10.3909 2.47573C10.4146 2.452 10.4383 2.42827 10.4621 2.41245L10.4541 2.42036C10.6519 2.39663 10.7784 2.11187 11.0236 2.26216L11.8067 3.04523C11.8067 3.1006 11.0395 2.34126 11.1027 2.34126L11.8858 3.12433C12.3683 3.65429 12.1073 3.34581 12.6452 3.81249C12.8587 3.99441 14.0452 4.82494 14.0768 5.07806C14.1401 5.56056 13.8158 4.39781 13.9424 4.67466C13.974 4.75376 14.8599 5.5922 14.9311 5.64757C15.1921 5.85322 15.4532 6.0747 15.817 6.06679C16.252 6.14589 16.608 6.40691 16.9797 6.60466C17.573 6.92105 17.4069 6.33572 18.0318 6.5572C17.9685 6.6363 18.0001 6.66793 18.0871 6.68375C18.6013 6.79449 19.0521 7.06343 19.6058 7.13461C20.6657 7.26908 21.7098 7.2058 22.7539 7.08716C23.0861 7.04761 23.3867 6.85777 23.7347 6.90523C23.798 6.91314 23.8613 6.92896 23.9167 6.94478C23.9088 6.93687 23.8929 6.93687 23.885 6.92105C23.8376 6.81031 23.9246 6.77867 23.9958 6.75494C24.2251 6.66793 24.0274 6.61257 23.9799 6.54929C25.1901 6.23289 26.3133 5.68712 27.484 5.26789C27.5631 5.37863 27.6343 5.37863 27.6817 5.24417L27.6738 4.46109C27.8241 4.48482 27.9507 5.2679 27.9981 5.09388L27.9902 5.10179C28.6942 4.98314 29.3349 4.69839 29.9677 4.38199H29.9598C30.0389 4.45318 30.118 4.46109 30.2129 4.40572C30.5847 4.19216 30.9881 4.12888 31.4073 4.07351C32.2457 3.97068 33.0288 3.54355 33.8989 3.59101C33.9147 3.59101 33.9305 3.59101 33.9384 3.5831C34.3972 3.22716 34.9825 3.24298 35.4967 3.1797C36.4854 3.06105 37.482 2.88704 38.4787 2.83958C39.1985 2.80003 39.9262 2.80794 40.646 2.83167C41.4369 2.8554 42.2358 2.7763 43.0031 3.00568C43.359 3.10851 43.715 3.1797 44.0709 3.14806C44.7591 3.08478 45.3918 3.35372 46.0167 3.52773C46.6732 3.70175 47.3456 3.8995 48.0021 4.04978C48.6665 4.20007 49.3072 4.45318 49.9479 4.63511C50.8101 4.88031 51.6643 5.22044 52.5423 5.434C53.0881 5.56847 53.5785 5.88486 54.1559 5.89277L54.148 5.88486C54.6068 6.20916 55.113 6.35945 55.6667 6.31199C56.6634 6.57302 57.6758 6.75494 58.712 6.7233C58.364 6.74703 58.0238 6.76285 57.6758 6.78658C58.182 6.77076 58.6962 6.95269 59.2024 6.75494C59.8115 6.77867 60.3889 6.57302 60.9821 6.46228C61.6861 6.33572 62.398 6.18544 63.0308 5.81367C63.4183 5.5922 63.8217 5.37863 64.2331 5.21253C64.6523 5.04642 65.0794 4.90404 65.3879 4.54019C65.4274 4.49273 65.4591 4.44527 65.5145 4.40572C65.9653 4.08142 66.4241 3.77294 66.8512 3.40909C67.4049 2.94241 68.0693 2.63392 68.6072 2.1356C68.7179 2.03278 68.9552 1.93786 69.0818 2.17515C69.4061 2.80794 70.0626 3.09269 70.5055 3.5831V4.36617C70.4976 4.54019 70.6321 3.81249 70.7587 3.88368C71.4547 4.64302 72.1587 5.39445 72.8469 6.16171C72.918 6.2408 73.8751 7.11879 73.7486 7.27699C73.1791 7.87814 72.5542 8.42392 72.0717 9.09625L72.0875 9.11207L72.0717 9.09625C71.7078 9.34146 71.4547 9.6974 71.17 10.0138C70.6954 10.5279 70.2841 11.1053 70.0072 11.7698C69.6276 12.6794 69.2953 13.5969 69.1292 14.5619C68.979 14.9891 68.9552 15.432 68.9552 15.875C68.9473 19.5056 68.9552 23.1362 68.9473 26.7668C68.9473 26.9962 68.2196 27.2256 68.1721 27.4708C68.1247 27.6764 68.0377 27.7476 67.8478 27.6843C67.5077 27.5815 67.2309 27.3442 66.9303 27.1702C66.8749 27.1386 66.8354 27.0674 66.78 27.0595C66.1393 26.9329 65.5382 26.7114 64.9766 26.3792C64.8896 26.3239 64.8105 26.3476 64.7235 26.4188C64.415 26.6719 63.8929 26.4425 63.8613 26.0233C63.8297 25.6436 63.5528 25.4617 63.3472 25.1927C62.9042 24.6232 62.5562 24.9001 62.1449 25.1927C61.7335 25.4854 61.1957 25.2718 61.0375 24.7973C60.9742 24.5995 60.3414 24.1487 60.1595 24.2277C59.6137 24.4413 59.4476 23.9509 59.3052 23.6978C58.9493 23.0413 58.4352 22.5746 57.8577 22.1396C57.7707 21.8944 57.5888 21.8864 57.3831 21.9418C56.9956 22.0446 56.6713 22.2503 56.3707 22.5113C56.1334 22.717 55.8724 22.9147 55.5322 22.8673C55.1051 22.8119 54.6701 22.8277 54.2983 23.0017C53.5232 23.3498 53.2463 22.5113 52.6768 22.3848C52.574 22.361 52.5186 22.2503 52.4791 22.1554C52.4632 22.1158 52.4553 22.0842 52.4316 22.0446C52.3446 21.9102 52.2576 21.7836 52.1706 21.6571C52.2022 21.5859 52.2101 21.491 52.2576 21.4435C52.5819 21.1746 52.6135 20.9452 52.2892 20.6604C51.9016 20.3124 51.4508 20.0276 50.9762 19.8141C50.3829 19.5451 49.7976 19.2446 49.149 19.1101C49.0778 19.0943 48.9987 19.0468 48.9592 18.9914C48.6191 18.5248 48.1207 18.5089 47.6224 18.5169C47.6066 18.4298 47.5512 18.3824 47.4642 18.3824C47.3298 18.3824 47.4642 18.5248 47.3693 18.5485C47.2111 18.5327 47.0608 18.4773 46.9817 18.3349C46.9264 18.2321 46.8314 18.1451 46.7365 18.1846C46.428 18.3112 46.2461 18.1214 46.0563 17.9473C46.0484 17.9315 46.0484 17.9236 46.0484 17.9078C46.08 17.8603 46.1116 17.8208 46.0167 17.8129L46.0246 17.8208C45.9376 17.5123 45.8032 17.2276 45.4947 17.0773C45.4314 16.6976 45.1862 16.7134 44.9014 16.7925C44.6958 16.8083 44.4822 16.8479 44.2924 16.7134C43.9839 16.6501 43.7782 16.8716 43.5489 17.014C43.4223 16.927 43.4144 16.6976 43.2008 16.7055C43.1138 16.5789 43.0822 16.3891 42.8844 16.397C42.2596 16.4128 41.6268 16.3258 41.0256 16.571C40.8437 16.6106 40.646 16.4999 40.4798 16.6343C40.0764 16.4445 39.6335 16.5157 39.2064 16.4761C37.7114 16.3337 36.2323 16.4761 34.761 16.7213C34.0254 16.84 33.9621 16.9507 33.9226 17.5202C33.7169 17.9394 33.709 18.3666 33.9068 18.7937C33.9147 18.857 33.8751 18.8807 33.8277 18.9123C33.1553 19.3948 32.744 20.0988 32.3011 20.7712C32.2299 20.8819 32.2062 21.135 32.0796 21.1034C31.7711 21.0084 31.7158 21.2457 31.5971 21.396C31.5101 21.4989 31.431 21.6017 31.2886 21.6175C30.6558 21.7124 30.4423 22.2345 30.1971 22.717C29.849 22.8514 29.8174 23.2232 29.6434 23.4842C29.2083 24.1487 28.7812 24.8368 27.919 24.9555C27.4919 25.0187 27.0727 25.1295 26.6456 25.1532C26.5032 25.1611 26.3845 25.256 26.2263 25.2007C25.7438 25.0266 25.2218 25.0425 24.7235 24.9317C24.1381 24.7973 23.5133 24.8843 22.9675 24.5758C22.4929 24.3069 21.9788 24.0775 21.5674 23.7136C21.259 23.4447 20.9188 23.4209 20.5392 23.4684C19.6612 23.5871 18.8148 23.8164 17.9922 24.1091C17.217 24.3859 16.4498 24.5916 15.9989 25.4775C15.3899 26.664 14.3458 27.4945 13.1435 28.0877C12.9695 28.1748 12.9853 28.3409 12.8587 28.4279Z" fill="#03BFF3"/>
<path d="M31.8028 61.222C31.2412 60.9531 30.6163 60.8898 30.0547 60.6446C29.8174 60.5418 29.5643 60.4627 29.3349 60.3282C29.0423 60.1542 28.805 60.1621 28.5835 60.431C28.4886 60.5497 28.3699 60.6367 28.2117 60.5655C28.0614 60.4943 28.014 60.3361 28.0298 60.2017C28.0931 59.735 27.8241 59.474 27.484 59.2525C26.875 58.857 26.7959 58.2717 26.9224 57.6231C26.9699 57.3779 27.2072 57.3067 27.3891 57.188C27.7609 56.9586 28.1405 56.7293 28.5202 56.5078C28.9236 56.3417 29.3349 56.1677 29.7383 56.0016C30.9485 55.5902 32.1983 55.3529 33.4322 55.0128C33.63 54.9575 33.7486 54.8784 33.8277 54.6964C34.3418 53.6286 35.0537 52.7664 36.2165 52.363C36.2718 52.3472 36.3272 52.3235 36.3747 52.3077C36.4142 52.3235 36.4538 52.3314 36.4933 52.3472C37.0154 52.5608 37.5374 52.7664 37.8775 53.2569C38.1386 53.6207 38.3126 54.0399 38.5341 54.475C38.9928 53.8975 39.4674 53.4309 40.0053 53.0433C40.2426 52.9879 40.4561 52.8535 40.7093 52.8139C41.4132 52.7111 41.959 52.9563 42.4099 53.4783C42.5364 53.6207 42.7025 53.7393 42.8449 53.8738C42.9952 54.1111 43.2483 54.2298 43.4302 54.4275C43.6122 54.6252 43.7704 54.9258 43.9998 54.9891C44.245 55.0603 44.4269 54.7202 44.6563 54.5857C44.767 54.5224 44.8857 54.4671 44.9964 54.4038C45.7399 54.2772 46.4755 54.3405 47.1874 54.5857C47.227 54.649 47.2823 54.6648 47.3456 54.6569C47.4326 54.7281 47.5196 54.7993 47.6383 54.8072C47.7807 54.9654 47.9388 55.1157 48.0654 55.2897C48.4846 55.8513 48.4846 55.8513 49.1411 55.6061C49.1491 55.5982 49.157 55.5902 49.1728 55.5823C49.9717 55.4004 50.6598 54.9337 51.435 54.7043C52.0678 54.5224 52.7006 54.4117 53.3571 54.38C53.5548 54.3721 53.6893 54.4275 53.7763 54.6015C53.8 54.6648 53.8317 54.7281 53.8554 54.7914C54.5357 56.4603 54.5357 58.1056 53.6735 59.7192C53.5232 59.996 53.3729 60.0672 53.0802 59.9802C52.2893 59.7587 51.4983 59.5214 50.6915 59.3553C50.0666 59.2288 49.4575 59.0073 48.8089 58.9915C48.5163 58.9835 48.3502 59.0785 48.279 59.379C48.2315 59.5768 48.1841 59.8062 47.9626 59.8932C47.6225 60.0276 47.3693 60.2649 47.0846 60.4785C46.4993 60.9135 45.8507 61.0796 45.1704 60.7553C44.8145 60.5892 44.68 60.6762 44.6484 61.0322C44.5534 61.0796 44.5693 61.1746 44.5613 61.2537C43.9681 61.7994 43.3274 62.274 42.5839 62.5904C42.4336 62.5904 42.307 62.6695 42.1726 62.7328C41.8404 62.8514 41.5002 62.9543 41.1759 63.0887C40.7172 63.2786 40.2979 63.1599 39.9025 62.9147C39.5386 62.6853 39.1827 62.4322 38.8504 62.1554C38.6211 61.9655 38.3917 61.8864 38.099 61.8944C37.4267 61.926 36.7623 61.9655 36.0899 61.9102C35.8131 61.8864 35.6786 62.0051 35.6549 62.2819C35.6391 62.4876 35.5995 62.7011 35.56 62.9068C35.4334 63.5079 34.769 63.8006 34.2153 63.5C34.0887 63.4288 33.9701 63.3418 33.8514 63.2707C33.5429 62.8752 33.3689 62.4164 33.187 61.9497C32.9814 61.4039 32.8073 61.3248 32.1825 61.3723C32.0559 61.3169 31.9293 61.2695 31.8028 61.222ZM43.5173 55.4083L43.5093 55.4004C43.5331 55.2264 43.3907 55.1552 43.2958 55.0603C42.7658 54.5382 42.2438 54.0083 41.6822 53.5258C41.3341 53.2252 41.0098 53.1857 40.5906 53.3755C39.7522 53.7473 39.238 54.4591 38.6685 55.1236C38.5182 55.1789 38.3838 55.3055 38.2018 55.2739C38.1702 55.1868 38.1386 55.1077 38.1148 55.0207C37.9171 54.4433 37.7114 53.8738 37.2685 53.415C36.7069 52.8376 36.2086 52.7664 35.5758 53.2806C34.8797 53.858 34.4209 54.6015 34.0887 55.432C34.0017 55.432 33.9068 55.4241 33.8514 55.5111C33.6853 55.4716 33.5271 55.5032 33.3768 55.5744C33.3294 55.5823 33.274 55.5902 33.2266 55.5982C33.0684 55.6298 32.9023 55.6614 32.7441 55.6931C32.6096 55.7247 32.4751 55.7563 32.3407 55.788C31.8661 55.8275 31.4231 56.0095 30.9643 56.1439C30.3316 56.3338 29.6829 56.4603 29.1055 56.8004C28.9157 56.8479 28.7654 56.9665 28.6072 57.0694C28.2592 57.1643 27.9902 57.4016 27.6818 57.5756C27.4682 57.6943 27.4049 57.8683 27.4286 58.0976C27.4524 58.3903 27.5948 58.596 27.8241 58.7383C28.3304 59.0706 28.7179 59.4344 28.4016 60.1067C28.3936 60.1146 28.4016 60.1305 28.4016 60.1463C28.3857 60.17 28.3778 60.1858 28.362 60.2096C28.3857 60.1937 28.4095 60.1858 28.4332 60.17C28.536 60.0672 28.6705 59.9802 28.7259 59.8615C28.9078 59.4898 29.1925 59.5768 29.4457 59.7112C30.5214 60.2649 31.7 60.5022 32.8627 60.8028C33.3294 60.9214 33.5667 61.2062 33.7249 61.6096C33.7961 61.7915 33.8435 61.9814 33.9147 62.1554C34.0413 62.4559 34.1678 62.7644 34.4763 62.9384C34.6503 63.0334 34.9114 63.0887 34.9588 62.8989C35.0775 62.4797 35.2831 61.9893 35.1091 61.6017C34.8876 61.0796 35.2357 61.2457 35.4255 61.2616C36.2244 61.3328 37.0233 61.4198 37.8143 61.3328C38.4154 61.2616 38.9137 61.3486 39.3646 61.7441C39.3883 61.7994 39.4279 61.839 39.4911 61.839C39.5702 61.9893 39.7284 62.0525 39.855 62.1396C40.3138 62.6062 40.8358 62.6458 41.4211 62.3848C41.7929 62.2187 42.1884 62.1237 42.5523 61.9418C43.5014 61.4751 44.4823 61.0243 44.2924 59.6638C44.2608 59.4107 44.4902 59.4581 44.6167 59.5451C44.7986 59.6717 44.9568 59.8378 45.115 59.9881C45.4631 60.3361 45.8823 60.3994 46.3094 60.2017C46.784 59.9881 47.2428 59.7271 47.6304 59.3711C47.7727 59.2446 47.8914 59.0943 47.8756 58.8965C47.836 58.4694 48.0812 58.4061 48.4293 58.3903C49.1491 58.3429 49.8293 58.5881 50.5254 58.6592C50.5966 58.7146 50.6757 58.7304 50.7627 58.7225C50.7864 58.7383 50.8101 58.7463 50.8338 58.7621C51.5695 58.9361 52.3051 59.1022 53.0407 59.292C53.1831 59.3316 53.2464 59.3395 53.3096 59.1892C53.4836 58.7779 53.6498 58.3745 53.713 57.9315C53.7209 57.8762 53.7288 57.8208 53.7368 57.7654C53.8159 56.9112 53.8396 56.0727 53.5074 55.258C53.3096 54.7755 52.7797 54.7202 52.3842 55.1473C52.2655 55.0998 52.139 55.0603 52.0045 55.0998C51.6011 55.2264 51.1819 55.3292 50.7864 55.4874C49.8689 55.8671 48.9276 56.1518 47.9705 56.397C47.8439 56.2151 47.9626 55.9936 47.8281 55.8038C47.3298 55.1236 46.6812 54.7676 45.8348 54.7676C45.4314 54.7676 45.0439 54.8388 44.7512 55.1394C44.4981 55.4083 44.1817 55.5902 43.8811 55.788C43.7783 55.788 43.6834 55.788 43.5805 55.788C43.5014 55.6931 43.8257 55.5032 43.5173 55.4083Z" fill="#FCFDFD"/>
<path d="M24.3586 42.2226C25.1417 41.4554 25.8615 40.6169 26.5892 39.7943C27.5463 38.7186 28.5429 37.6745 29.413 36.5276C29.8955 35.8948 30.4492 35.4439 31.1453 35.1275C31.5645 34.9377 31.8809 34.6213 32.1419 34.2575C32.2527 34.1072 32.4188 33.862 32.1498 33.7275C31.8651 33.5772 31.9758 33.5139 32.1498 33.3874C32.9171 32.8179 33.7318 32.3037 34.4279 31.6472C35.4561 30.6743 36.7138 29.8991 37.1805 28.42C37.3703 27.811 37.8845 27.368 38.3116 26.9092C38.2008 26.7827 38.0664 26.9251 37.9477 26.8697C37.5443 27.0833 37.2991 27.4629 37.0065 27.7951C36.7692 28.0562 36.6031 28.3251 36.5398 28.7048C36.437 29.298 36.0019 29.6935 35.5036 30.0099C34.9024 30.3816 34.2618 30.698 33.716 31.1489C33.5261 31.2992 33.36 31.4574 33.3838 31.7342C33.3996 31.8924 33.3047 31.9952 33.1544 32.0585C31.7306 32.7071 30.7261 33.8541 29.7294 35.0089C29.5791 35.1829 29.4368 35.3411 29.239 35.4597C29.0413 35.5705 28.8752 35.7208 28.8673 35.9818C28.8514 36.227 28.6379 36.3298 28.4876 36.4564C26.518 38.1965 24.5643 39.9604 22.5078 41.6057C22.4049 41.6927 22.3021 41.7639 22.1281 41.7797C22.2705 41.3367 22.5157 40.965 22.8083 40.6565C23.1801 40.2768 23.4886 39.8181 23.9632 39.5333C24.066 39.47 24.1767 39.3514 24.2084 39.2327C24.4694 38.2915 25.2841 37.7615 25.8378 37.0417C26.2728 36.4722 26.7553 35.9264 27.3407 35.4993C27.8864 35.0959 28.4639 34.7241 29.0017 34.3207C29.7848 33.7354 30.5046 33.1105 30.9317 32.193C31.3035 31.3941 32.0707 30.9432 32.7114 30.3975C33.0357 30.1206 33.3759 29.8438 33.6606 29.5274C33.6131 29.4246 33.5657 29.4483 33.4866 29.5037C33.0674 29.7726 32.6244 30.0099 32.1657 30.2076C31.9679 30.3342 31.7227 30.3816 31.525 30.3026C31.2323 30.1839 31.0425 30.2867 30.8605 30.4766C30.117 31.228 29.2074 31.7975 28.4243 32.5015C27.4672 33.3557 26.7949 34.4394 26.1463 35.5309C25.5056 36.5988 24.9202 37.6745 23.8129 38.3785C23.2829 38.7107 22.8795 39.2248 22.753 39.8892C22.7371 39.9762 22.6739 40.0553 22.6185 40.1186C22.0964 40.7435 21.7247 41.4712 21.2896 42.1514C21.2026 42.2938 21.1552 42.4204 21.1789 42.5865C21.2105 42.7921 21.1789 42.9741 21.0365 43.1639C20.8546 43.4091 20.9495 43.6859 21.1868 43.8916C21.3055 43.9786 21.4399 43.947 21.5665 43.9707C21.788 43.9549 22.0015 43.9153 22.2072 43.8046C23.0298 43.3933 23.7338 42.8396 24.3586 42.2226Z" fill="#FCFDFD"/>
<path d="M26.7714 41.9695C26.7556 41.9537 26.7398 41.9379 26.7239 41.9142C25.2764 42.4441 23.9476 43.2193 22.5792 43.9233C22.3656 44.034 22.0176 44.1289 22.0255 44.39C22.0413 44.738 22.4289 44.7775 22.6979 44.8883C22.7453 44.9041 22.8007 44.9041 22.8561 44.912C22.9589 44.8566 23.0617 44.7934 23.1645 44.738C23.7182 44.3267 24.3826 44.1527 24.9838 43.8521C25.3872 43.6543 25.8222 43.4724 26.1149 43.0216C25.577 42.9662 25.3714 43.5278 24.8414 43.5515C25.4584 42.9029 26.1149 42.4362 26.7714 41.9695Z" fill="#FCFDFD"/>
<path d="M29.4931 40.2927C30.197 39.7469 30.9643 39.2881 31.7236 38.8294C33.0762 38.0067 34.3972 37.1367 35.5994 36.1005C35.7735 35.9502 35.9712 35.792 36.0582 35.5072C35.5757 35.6101 35.2198 35.8869 34.8559 36.1163C34.0966 36.5909 33.1395 36.8361 32.7756 37.8011C32.4276 37.4926 32.4197 37.5005 32.0479 37.6903C30.2603 38.6158 28.7891 40.0158 27.041 41.0204C27.2704 41.0283 27.5552 40.8938 27.6817 41.0362C28.006 41.3842 28.1405 41.0837 28.3303 40.9175C28.5122 40.7594 28.623 40.4667 28.9236 40.5141C29.1846 40.5537 29.3349 40.4192 29.4931 40.2927Z" fill="#FCFDFD"/>
<path d="M39.5612 32.193C39.403 32.3275 39.5059 32.4619 39.5533 32.6043C39.6403 32.8574 39.498 33.0235 39.316 33.1659C39.229 33.2371 39.1499 33.332 39.0471 33.3874C38.6911 33.5772 38.351 33.7671 38.3273 34.2337C38.3273 34.2733 38.2719 34.3128 38.2324 34.3524C37.2516 35.3332 36.247 36.2903 35.1317 37.1129C34.8232 37.3423 34.6176 37.6191 34.4277 38.0225C34.5938 37.9434 34.6967 37.9039 34.7758 37.8485C36.1521 36.9152 37.3702 35.792 38.6437 34.74C38.6991 34.6925 38.8098 34.645 38.7702 34.558C38.6279 34.21 38.9126 34.0518 39.0787 33.862C39.4347 33.4586 39.7036 32.9919 40.0042 32.5489C40.0912 32.4224 40.0675 32.3433 39.9884 32.2405C39.8539 32.2088 39.7273 32.0506 39.5612 32.193Z" fill="#FCFDFD"/>
<path d="M29.025 41.2181C29.025 41.2102 29.025 41.2102 29.025 41.2181C29.025 41.2102 29.0171 41.2102 29.025 41.2181Z" fill="#FCFDFD"/>
<path d="M34.4593 37.8881C33.613 38.2757 32.8062 38.5446 32.3395 39.3435C32.2604 39.4701 32.1813 39.5571 32.031 39.6045C31.2242 39.8576 30.4886 40.2531 29.753 40.6486C29.4841 40.791 29.1993 40.9334 29.0332 41.2102C29.1993 41.2498 29.3259 41.1707 29.4682 41.0995C30.0536 40.8147 30.6152 40.4588 31.2796 40.3718C31.6514 40.3164 31.9836 40.174 32.3079 40.0238C32.4898 39.9367 32.8141 39.8102 32.7746 39.6757C32.6955 39.3831 32.9011 39.3989 33.0198 39.3277C33.2491 39.1774 33.5023 39.0667 33.7237 38.9085C34.048 38.6633 34.3407 38.4022 34.4593 37.8881Z" fill="#FCFDFD"/>
<path d="M34.8706 35.436C35.8277 34.8665 36.7769 34.2812 37.6312 33.5693C37.7103 33.506 37.8289 33.4507 37.7815 33.3241C37.734 33.1896 37.6074 33.1817 37.4888 33.1738C37.2357 33.158 37.0379 33.2925 36.8639 33.4427C35.891 34.3049 34.8548 35.0722 33.7079 35.697C33.4469 35.8394 33.2728 36.0688 33.1621 36.3457C33.1858 36.3615 33.2096 36.3852 33.2333 36.401C33.8186 36.1716 34.3249 35.7682 34.8706 35.436Z" fill="#FCFDFD"/>
<path d="M34.8461 33.8778C34.8224 33.8857 34.8066 33.8778 34.7908 33.862C34.419 34.1388 34.0077 34.3366 33.5806 34.5264C32.924 34.8349 32.2042 35.1038 31.8483 35.8394C31.611 36.3219 31.1839 36.6937 31.002 37.2395C31.5398 37.1208 32.2042 36.7965 32.2517 36.5592C32.4336 35.6575 33.1455 35.2304 33.802 34.74C34.158 34.471 34.5851 34.2733 34.8461 33.8778Z" fill="#FCFDFD"/>
<path d="M35.9783 37.8248C35.1478 38.07 34.5387 38.5762 33.9297 39.1299C34.6495 39.0904 35.7331 38.5209 35.9783 37.8248Z" fill="#FCFDFD"/>
<path d="M39.047 25.5487C39.3397 25.699 39.6323 25.5566 39.925 25.5566C39.9962 25.4459 39.9487 25.3747 39.838 25.3668C39.5374 25.351 39.221 25.264 38.9283 25.4222C38.9204 25.5092 38.9916 25.5171 39.047 25.5487Z" fill="#FCFDFD"/>
<path d="M36.1298 31.7263C36.1377 31.7263 36.1377 31.671 36.1377 31.6472C36.114 31.6472 36.0823 31.6551 36.0586 31.6551C36.0586 31.7026 36.0665 31.7501 36.1298 31.7263Z" fill="#FCFDFD"/>
<path d="M28.9686 30.88C29.024 31.141 29.1268 31.228 29.3958 31.0619C29.8941 30.7534 30.3054 30.3579 30.6613 29.8992C31.041 29.4088 31.4128 28.9104 31.7845 28.4121C31.8241 28.2697 32.0455 28.2381 31.9902 28.0245C31.5789 28.0878 31.2783 28.3488 30.9303 28.5308C30.3528 28.9895 29.7675 29.4325 29.1901 29.8992C28.8658 30.1523 28.8974 30.5161 28.9686 30.88Z" fill="#FCFDFD"/>
<path d="M45.4699 17.0852C45.4541 17.5282 45.5965 17.7259 45.9999 17.8288C45.9129 17.5203 45.7863 17.2355 45.4699 17.0852Z" fill="#FCFDFD"/>
<path d="M33.9054 17.5203C33.6998 17.9395 33.6918 18.3666 33.8896 18.7937C33.8896 18.3666 33.7947 17.9395 33.9054 17.5203Z" fill="#FCFDFD"/>
<path d="M29.7849 26.1815C29.9906 26.0945 30.1646 25.9601 30.2991 25.7781C30.3782 25.6674 30.4335 25.525 30.3544 25.4143C30.2595 25.2798 30.0064 25.2719 29.9431 25.3194C29.5081 25.5962 29.0018 25.7465 28.5826 26.0629C27.8154 26.6403 27.1905 27.4155 26.3046 27.8505C26.2571 27.8742 26.2334 27.9454 26.1543 28.0483C26.6289 27.9692 26.9532 27.6765 27.2459 27.4788C28.0368 26.933 28.9069 26.5612 29.7849 26.1815Z" fill="#FCFDFD"/>
<path d="M35.2421 28.0483C35.163 27.7556 35.3686 27.629 35.5584 27.4867C35.6455 27.4155 35.7799 27.3126 35.7008 27.194C35.6375 27.0991 35.4794 27.1386 35.3686 27.1703C35.1709 27.2256 35.0997 27.4076 34.9889 27.5499C34.981 27.5737 34.9731 27.5974 34.9573 27.6211C34.9731 27.6844 34.9652 27.7398 34.9098 27.7872C34.8466 28.1036 34.9573 28.1827 35.2421 28.0483Z" fill="#FCFDFD"/>
<path d="M38.9061 60.9373C38.6293 60.8503 38.3682 60.9847 38.0914 61.0006C37.1264 61.048 36.1614 61.0876 35.1964 60.961C34.6506 60.8898 34.1444 60.7395 33.8201 60.2412C33.6856 60.0356 33.5828 60.2017 33.5353 60.3045C33.3376 60.7079 33.0291 60.6921 32.6811 60.5655C32.1432 60.3757 31.5974 60.1938 31.0675 59.9802C30.9093 59.9169 30.6561 59.8616 30.7748 59.5689C30.9725 59.6796 31.1307 59.7113 31.2019 59.4186C31.2336 59.292 31.3522 59.3 31.455 59.3079C31.6211 59.7587 32.0325 59.909 32.42 59.9723C33.0766 60.0672 33.3534 59.5768 33.5749 59.0627C33.5986 59.0548 33.6065 59.0389 33.6065 59.0152C33.6619 58.9677 33.7093 58.9124 33.7093 58.8333C33.7726 58.8016 33.7805 58.7384 33.7805 58.6751C33.9466 58.6434 33.915 58.7384 33.8754 58.8254C33.7805 59.0785 33.6856 59.3237 33.5591 59.6717C33.7331 59.5293 33.8438 59.474 33.9071 59.3791C34.0969 59.118 34.2551 59.0706 34.5399 59.292C34.7534 59.4582 35.0145 59.6084 35.3229 59.6243C35.8134 59.6401 36.2959 59.6164 36.7704 59.5373C37.3558 59.4423 37.9174 59.1022 37.9174 58.4536C37.9727 58.066 37.6959 58.0502 37.4349 58.0186C36.4936 57.8999 35.5602 58.0344 34.6269 58.1451C34.5952 58.153 34.5794 58.153 34.5715 58.0344C35.7817 57.631 37.0077 57.5756 38.2575 57.9632C38.7479 58.3982 38.6846 58.9282 38.0914 59.2446C37.9253 59.3316 37.7592 59.4028 37.6405 59.561C38.9694 59.6954 40.235 59.4265 41.5084 59.1734C42.7503 58.9282 43.9921 58.6593 45.2261 58.4062C45.2498 58.4378 45.2656 58.4773 45.2893 58.509C45.0837 58.6434 44.8385 58.7067 44.6724 58.8966C43.4384 59.474 42.1966 60.0277 40.8836 60.4232C40.3299 60.5893 39.7762 60.7395 39.2225 60.8898C39.1434 60.8977 39.0722 60.9056 38.9931 60.9136C38.9615 60.9215 38.9298 60.9294 38.9061 60.9373Z" fill="#FCFDFD"/>
<path d="M20.9259 34.1388C20.9259 33.5456 20.6648 33.0868 20.2772 32.6359C20.032 33.3557 20.1902 33.7117 20.9259 34.1388Z" fill="black"/>
<path d="M36.1289 31.6472C36.1289 31.6472 36.1368 31.6472 36.1368 31.6551V31.6472H36.1289Z" fill="black"/>
<path d="M41.8477 17.6864C41.9584 17.5756 42.0692 17.4649 42.172 17.3462C42.3065 17.188 42.433 17.1801 42.6149 17.275C43.1607 17.5598 43.1607 17.5519 43.2003 16.9428C43.2082 16.8637 43.1844 16.7846 43.1765 16.7134C43.0895 16.5869 43.0579 16.397 42.8601 16.405C42.2353 16.4208 41.6025 16.3338 41.0013 16.579C40.9855 16.9507 41.1121 17.2909 41.2703 17.6152C41.4285 17.9157 41.6025 17.9316 41.8477 17.6864Z" fill="black"/>
<path d="M43.716 20.5893C43.7635 20.6526 43.803 20.7079 43.8505 20.7712C43.9059 20.8899 43.9533 21.0085 44.0166 21.1272C44.2381 21.5385 44.5624 21.5543 44.8234 21.1746C44.8788 21.0955 44.9341 20.9927 45.0291 21.0164C45.4878 21.1351 45.8912 20.9769 46.3184 20.8266C46.698 20.6921 46.7455 20.7475 46.4924 20.4074C46.2393 20.0672 45.8754 19.8141 45.6539 19.4503C45.6381 19.4265 45.5827 19.4344 45.5432 19.4344C45.4008 19.3316 45.2505 19.2446 45.1477 19.0943C44.9341 18.6751 44.8392 18.1847 44.4595 17.8525C44.3567 17.7655 44.3488 17.6231 44.3567 17.4886C44.3725 17.2276 44.3409 16.9745 44.2855 16.7214C43.977 16.6581 43.7714 16.8796 43.542 17.0219C43.5499 17.2197 43.5816 17.4174 43.7081 17.5677C43.9375 17.8446 44.3646 17.9711 44.3725 18.4378C44.3725 18.5011 44.5307 18.5565 44.6098 18.6276C44.6889 18.6988 44.7364 18.77 44.6019 18.8333C44.5465 18.8175 44.4991 18.8017 44.4437 18.7779C44.3804 18.683 44.2855 18.7305 44.2064 18.7305C43.7556 18.6909 43.3126 18.6514 42.8697 18.7621C42.6798 18.7305 42.4979 18.6909 42.316 18.7858C42.1024 18.7938 41.8968 18.7938 41.6832 18.8017C41.5566 18.7147 41.4143 18.7542 41.2798 18.7463C41.2007 18.7305 41.1216 18.7226 41.0425 18.7067C40.9318 18.6118 40.8131 18.5011 40.7182 18.7226C40.3781 18.8017 40.117 19.1101 39.8086 19.1418C39.4289 19.1892 39.3577 19.3237 39.3735 19.648C39.3814 19.8299 39.3577 20.0119 39.3419 20.1859C39.1837 20.3915 39.3419 20.5656 39.3893 20.7554C39.3972 20.8819 39.4052 21.0085 39.421 21.143C39.3261 21.5306 39.1995 21.9102 38.8594 22.2187C38.9622 22.2424 39.0097 22.2662 39.0492 22.2583C39.6266 22.1001 40.2278 22.0684 40.821 21.9735C41.0899 21.926 41.2719 21.7837 41.4222 21.5385C41.6832 21.1034 41.7306 20.6684 41.5883 20.1938C41.8018 20.0356 41.96 20.1701 42.1261 20.2808C42.229 20.5339 42.3397 20.7791 42.4346 21.0322C42.5533 21.3565 42.7985 21.5306 43.1149 21.6017C43.1861 21.6176 43.3601 21.665 43.3047 21.5306C43.1781 21.2063 43.4075 20.9531 43.4075 20.6605C43.4787 20.5181 43.5816 20.5102 43.716 20.5893Z" fill="black"/>
<path d="M46.1266 19.6242C46.269 19.3949 46.2136 19.1971 46.0633 19.0152C45.834 18.7304 45.826 18.2558 46.0396 17.9553C46.0317 17.9394 46.0317 17.9315 46.0317 17.9157C46.0633 17.8683 46.095 17.8287 46.0001 17.8208C46.0001 17.8208 46.0001 17.8208 46.0001 17.8287C45.6046 17.718 45.4622 17.5202 45.478 17.0852C45.4147 16.7055 45.1695 16.7213 44.8848 16.8004C44.9797 17.3225 45.3989 17.7259 45.478 18.24C45.5571 18.7779 46.0475 19.0943 46.1266 19.6242Z" fill="black"/>
<path d="M47.5908 19.2051C47.7253 19.1892 47.6779 19.0706 47.67 18.9836C47.6541 18.8333 47.6304 18.6751 47.6067 18.5248C47.5908 18.4378 47.5355 18.3904 47.4484 18.3904C47.314 18.3904 47.4484 18.5327 47.3535 18.5565C47.3772 18.7067 47.401 18.8649 47.4326 19.0152C47.4564 19.1022 47.4643 19.2288 47.5908 19.2051Z" fill="black"/>
<path d="M75.5995 6.98436C75.0062 6.31994 74.3655 5.68715 73.7644 5.03063C72.7677 3.93908 71.7632 2.84752 70.727 1.79551C70.7033 1.71641 70.6637 1.65314 70.5767 1.63732C70.5214 1.58195 70.466 1.53449 70.4106 1.47912C70.3948 1.36838 70.3394 1.3051 70.2208 1.31301C70.2129 1.24182 70.1733 1.20228 70.11 1.18646C69.8648 0.767234 69.4693 0.47457 69.1609 0.110718C69.0106 -0.0712081 68.8919 0.0237099 68.7733 0.126538C68.4569 0.387562 68.1484 0.664406 67.832 0.933341C66.7879 1.82715 65.6647 2.61022 64.5732 3.44867L64.3991 3.58313C64.2963 3.6385 64.1698 3.67014 64.1065 3.78088C63.9246 3.89162 63.7505 4.01027 63.5686 4.121L63.5449 4.12891C63.4579 4.17637 63.3709 4.22383 63.2839 4.27129L63.2522 4.28711C63.1098 4.38203 62.9754 4.46904 62.833 4.56395C62.7776 4.59559 62.7302 4.63514 62.6748 4.66678C62.1765 4.83289 61.7098 5.07018 61.2352 5.29957C61.1878 5.30748 61.1482 5.30748 61.1007 5.31539C60.3651 5.45777 59.6295 5.58432 58.8781 5.67133C58.0238 5.77416 57.1933 5.60805 56.3549 5.51313C56.2678 5.41822 56.1492 5.43404 56.0385 5.43404C55.8882 5.37076 55.7458 5.25211 55.5639 5.30748C55.4848 5.28375 55.4294 5.18092 55.3187 5.22838C55.2396 5.11764 55.1288 5.11764 55.0102 5.12555H55.0023C54.765 4.90408 54.4328 4.90408 54.1559 4.7617C53.7842 4.6035 53.4282 4.41367 53.0485 4.28711C51.0236 3.57522 48.975 2.91871 46.8631 2.49158C45.7715 2.2701 44.6799 2.01699 43.5567 1.95371C43.3511 1.8667 43.1375 1.84297 42.916 1.84297C42.8686 1.83506 42.8132 1.83506 42.7658 1.82715C42.6629 1.77178 42.5522 1.79551 42.4494 1.81924C42.3703 1.80342 42.2991 1.7876 42.22 1.77969C41.7454 1.67687 41.2708 1.62941 40.7883 1.66896C40.4245 1.57404 40.0527 1.62941 39.6809 1.63732C39.6256 1.60568 39.5781 1.60568 39.5227 1.63732C39.4436 1.64523 39.3645 1.64523 39.2854 1.65314C38.5894 1.60568 37.9012 1.71641 37.2131 1.79551C36.082 1.92207 34.9667 2.11191 33.8514 2.33338C33.005 2.5074 32.1666 2.72887 31.3202 2.93453C29.8965 3.28256 28.5202 3.73342 27.1439 4.23174C25.7517 4.73797 24.4387 5.45777 22.9675 5.78207C21.1482 6.19338 19.3843 5.98772 17.7074 5.31539C15.9673 4.61141 14.4723 3.45658 12.9853 2.32547C12.2496 1.76387 11.5457 1.17064 10.8338 0.585308C10.6993 0.47457 10.5886 0.348013 10.4225 0.537849C9.75805 1.28137 9.09362 2.01699 8.42919 2.7526C7.59075 3.67014 6.7444 4.61141 5.89805 5.55268C5.28899 6.22502 4.68785 6.90526 4.07879 7.5776C3.99969 7.66461 3.96014 7.68834 4.07879 7.80699C5.36809 9.12002 6.57038 10.5042 7.8676 11.8094C8.22354 12.1653 8.53202 12.5766 8.77723 13.0354C9.38628 14.1744 9.48911 15.4162 9.48911 16.6581C9.52075 23.9905 9.52075 31.315 9.53657 38.6474C9.53657 40.4825 9.53657 42.3097 9.54448 44.1448C9.54448 47.103 9.54448 50.0692 9.55239 53.0275C9.5603 54.6253 9.43374 56.2389 9.71059 57.8288C10.0033 59.5136 10.4067 61.1667 11.1185 62.7487C11.4587 63.508 11.7751 64.2674 12.1864 64.9951C13.0644 66.5375 14.1243 67.9375 15.3898 69.1794C16.2995 70.0732 17.2803 70.88 18.3639 71.5602C19.3685 72.2088 20.3809 72.8416 21.5279 73.2292C22.2239 73.6247 22.9991 73.8383 23.7505 74.1072C24.7314 74.4632 25.7122 74.8033 26.7484 74.9377C27.8162 75.1908 28.8998 75.3807 29.9835 75.5705C30.1654 75.5943 30.3552 75.6259 30.5372 75.6496C30.5609 75.6496 30.5925 75.6575 30.6163 75.6575C30.727 75.6892 30.8456 75.7287 30.9564 75.7524C32.0875 75.966 33.1949 76.2508 34.2864 76.5909C35.2989 76.9073 36.2164 77.4135 37.1181 77.9751C38.0199 78.5446 38.8899 79.1537 39.6493 79.9051C39.8312 80.087 39.9182 79.9842 40.021 79.8577C40.3849 79.391 40.9149 79.1141 41.3657 78.7582C42.1646 78.1333 43.0505 77.6429 43.9601 77.1841C45.3523 76.4881 46.8314 76.053 48.3501 75.7445C49.3705 75.531 50.4067 75.4044 51.3954 75.0485C52.1785 74.9298 52.9457 74.74 53.713 74.5422C55.3899 74.0993 57.0509 73.601 58.625 72.8574C60.3256 72.0506 61.8996 71.0224 63.3155 69.7647C64.5494 68.6731 65.6726 67.4946 66.606 66.142C67.397 64.9872 68.0772 63.7691 68.6309 62.4877C68.8998 62.0684 68.9948 61.578 69.1609 61.1113C69.7778 59.3949 70.1891 57.6231 70.205 55.8038C70.2524 49.2941 70.1496 42.7843 70.2445 36.2745C70.2841 33.5614 70.2524 30.8562 70.2445 28.1432C70.2445 26.9962 70.2287 25.8572 70.2129 24.7103C70.2445 24.6312 70.2445 24.56 70.205 24.4809C70.2524 24.1882 70.2524 23.8956 70.205 23.6029C70.205 23.5555 70.205 23.5001 70.205 23.4526C70.2603 22.5272 70.2603 21.6017 70.205 20.6763C70.2445 20.5181 70.2445 20.3678 70.205 20.2096C70.2603 18.9124 70.2524 17.6231 70.205 16.3259C70.2445 16.1439 70.2445 15.962 70.205 15.7801C70.2208 15.5112 70.2366 15.2501 70.2524 14.9812C70.2603 14.9021 70.2682 14.823 70.2762 14.7439C70.3394 14.4592 70.4027 14.1744 70.4739 13.8896C70.4976 13.8501 70.4976 13.8105 70.4581 13.7789C70.4818 13.7315 70.4976 13.6919 70.5214 13.6444C70.7349 13.3755 70.8061 13.0354 70.9485 12.7348C71.4784 11.6037 72.396 10.7732 73.2028 9.86354C73.9859 8.97764 74.8085 8.12338 75.6153 7.26121C75.7102 7.14256 75.7023 7.10301 75.5995 6.98436ZM41.8799 76.0056C41.5635 76.2982 41.1838 76.496 40.8516 76.7728C40.7804 76.8282 40.6855 76.8598 40.7013 76.9785H40.6934C40.3849 76.9073 40.3058 77.2474 40.0764 77.3344C39.9103 77.3977 39.8154 77.4452 39.6651 77.3186C39.0877 76.844 38.4865 76.409 37.8458 76.0293C37.7114 75.9502 37.6006 75.879 37.8142 75.7287C38.4233 75.2937 39.064 74.914 39.6097 74.3999C39.7284 74.2891 39.8708 74.2891 40.0052 74.392C40.5906 74.8349 41.1996 75.2383 41.8403 75.5943C42.0618 75.7208 42.0697 75.8316 41.8799 76.0056ZM62.1053 68.1511C61.5437 68.6652 60.9426 69.124 60.3256 69.5591C59.408 70.1997 58.4351 70.7297 57.4385 71.228C56.9006 71.497 56.2916 71.5761 55.8012 71.932H55.7933C55.6588 71.9162 55.5322 71.9399 55.4057 71.9874C54.3616 72.3829 53.2858 72.6597 52.2022 72.8733C50.5095 73.2055 48.8247 73.5931 47.1399 73.9727C46.7128 74.0677 46.2935 74.2891 45.8348 74.1547C44.9568 73.8936 44.0788 73.6247 43.2404 73.2608C42.0855 72.7625 41.0889 72.0269 40.1318 71.2359C39.8549 71.0145 39.6572 71.054 39.412 71.228C38.9453 71.5523 38.4786 71.8608 38.0199 72.1851C37.8538 72.2959 37.6006 72.3038 37.5532 72.5648H37.5453C37.482 72.5806 37.4108 72.5806 37.3554 72.6043C36.4854 73.1106 35.5915 73.5693 34.6424 73.8936C34.1994 74.0439 33.7723 74.3129 33.3056 74.2733C32.7361 74.2259 32.1745 74.0597 31.6129 73.9411C30.5767 73.7196 29.5405 73.4981 28.5122 73.2608C28.2908 73.2134 28.0772 73.1817 27.8478 73.1897L27.8162 73.1738H27.7766C27.7371 73.1027 27.6659 73.0631 27.5868 73.0473C25.9732 72.6992 24.3912 72.2563 22.8567 71.6314C21.0691 70.9037 19.3685 70.0257 17.8973 68.7443C17.6046 68.4833 17.6204 68.3488 17.9684 68.1432C18.269 67.9613 18.6091 67.811 18.8623 67.5737C19.147 67.3127 19.3448 67.3206 19.6374 67.5341C21.5358 68.9658 23.6161 70.0415 25.8941 70.7613C27.3732 71.228 28.8919 71.402 30.4264 71.41C31.6841 71.41 32.918 71.1647 34.1361 70.8009C36.0345 70.2393 37.7668 69.4008 39.2222 68.0324C39.847 67.4471 39.8391 67.455 40.5036 68.0087C41.9985 69.2506 43.6912 70.1207 45.5579 70.6506C47.4326 71.1806 49.3467 71.141 51.2609 70.9512C51.6485 70.9116 52.0756 70.9116 52.4237 70.6664H52.4316C52.6451 70.6902 52.8429 70.6269 53.0485 70.5794C54.0373 70.35 54.939 69.915 55.8486 69.4879C56.2441 69.3059 56.6554 69.1398 56.9481 68.7839L56.956 68.776C57.0509 68.7918 57.13 68.7443 57.217 68.6969C57.9843 68.3093 58.6329 67.7556 59.2815 67.2019C59.5504 66.9725 59.8114 66.8539 60.1753 66.9963C60.7606 67.2177 61.3618 67.4076 61.9787 67.5183C62.4138 67.637 62.4533 67.8347 62.1053 68.1511ZM21.9234 66.577C22.0499 66.664 22.1844 66.7511 22.3347 66.8064C22.1844 66.7431 22.0499 66.664 21.9234 66.577ZM68.1405 56.3654C68.0139 57.4886 67.8004 58.596 67.4919 59.6797C67.4207 59.9407 67.31 60.2017 67.2309 60.4627C67.1597 60.7079 67.0015 60.7633 66.78 60.7159C65.4907 60.4074 64.2014 60.1068 62.9675 59.6164C61.7652 59.1418 60.5945 58.596 59.59 57.7497C59.3843 57.5756 59.1708 57.4016 58.9651 57.2118C58.7436 57.0141 58.625 57.0852 58.451 57.2355C57.5651 57.987 56.7187 58.7779 55.7774 59.4503C54.8915 60.0831 53.9582 60.6605 52.9299 61.0481C52.8745 61.0718 52.8271 61.1272 52.7796 61.1667C51.8937 61.4989 50.9762 61.7046 50.027 61.7758C49.4496 61.8153 48.8722 61.8786 48.3026 61.752C47.7885 61.6334 47.2585 61.6967 46.7365 61.578C46.1274 61.4356 45.5184 61.317 44.9172 61.1825C44.8223 61.1588 44.7432 61.0797 44.6562 61.0243C44.5613 61.0718 44.5771 61.1667 44.5692 61.2458C43.976 61.7916 43.3353 62.2662 42.5917 62.5826C42.4415 62.5826 42.3149 62.6617 42.1804 62.725C42.2754 62.8199 42.394 62.8752 42.5047 62.9385C43.2404 63.3498 44.0472 63.595 44.854 63.8323C46.3568 64.2753 47.8676 64.5759 49.4654 64.4256C50.9208 64.2911 52.2813 63.8402 53.618 63.3103C54.4486 62.986 55.2158 62.5351 55.9673 62.0684C56.6871 61.6176 57.4306 61.1984 58.0238 60.5735L58.0317 60.5656C58.2532 60.5181 58.4035 60.3441 58.538 60.2096C58.7753 59.9644 58.9809 60.0119 59.2182 60.1622C59.8905 60.5893 60.5866 60.9848 61.3143 61.3091C62.4771 61.8232 63.6398 62.3136 64.9212 62.4956C65.38 62.5588 65.8625 62.5272 66.3054 62.717C66.2896 62.7329 66.2896 62.7566 66.3054 62.7724C66.3766 62.8515 66.4082 62.9385 66.4082 63.0176C66.4082 62.9385 66.3845 62.8515 66.3054 62.7724C65.9178 63.4368 65.5223 64.0934 65.1427 64.7578C64.7472 65.438 64.241 65.438 63.6161 65.351C62.2556 65.1454 60.9663 64.7261 59.8035 63.9747C59.5583 63.8165 59.3843 63.8482 59.147 64.0459C58.1978 64.8606 57.3119 65.7544 56.2204 66.3951C55.7853 66.6561 55.3582 66.933 54.9311 67.194H54.9232C54.3853 67.3918 53.8474 67.5895 53.3017 67.7714C52.2417 68.1274 51.1581 68.3488 50.0349 68.3805C48.7931 68.4121 47.5829 68.2697 46.3726 67.9929C45.3444 67.7635 44.3556 67.4471 43.3985 67.0042C43.0189 66.8302 42.7341 66.4979 42.3149 66.403H42.307C41.5239 65.7465 40.7408 65.0821 39.9657 64.4256C39.847 64.3307 39.7126 64.3227 39.6018 64.4097C39.2538 64.6945 38.9137 64.9951 38.5736 65.2877C38.7318 65.3194 38.8504 65.2798 38.9532 65.2166C38.8504 65.2798 38.7238 65.3194 38.5736 65.2877C38.5656 65.3747 38.5419 65.4538 38.5103 65.5171C38.5419 65.4538 38.5656 65.3747 38.5736 65.2877C38.012 65.6674 37.4345 66.0234 36.8809 66.4188C35.7339 67.2336 34.4604 67.7556 33.1158 68.1195C31.6604 68.515 30.1654 68.6257 28.6546 68.5545C27.1992 68.4833 25.8466 68.0325 24.4861 67.5816C23.9245 67.3997 23.4579 67.0121 22.8725 66.8855L22.8567 66.8776C22.8093 66.8381 22.7697 66.7827 22.7143 66.7511C21.6623 66.1183 20.6341 65.438 19.7323 64.5996C19.4397 64.3227 19.2024 64.4256 18.9414 64.5996C18.1583 65.1216 17.3119 65.5725 16.4339 65.881C15.4848 66.2132 15.3345 66.3635 14.7729 65.3747C14.5672 65.0188 14.3457 64.6391 14.0294 64.3465C14.0452 64.1645 13.9265 64.0301 13.8474 63.8719C13.6576 63.4764 13.6971 63.4052 14.1085 63.2549C15.1842 62.8515 16.2757 62.4718 17.2407 61.8232C17.6758 61.5306 18.2057 61.3486 18.53 60.8978H18.538C18.6408 60.8899 18.7515 60.8978 18.7753 60.7475L18.7832 60.7396C18.9888 60.7079 19.1391 60.5972 19.2498 60.4153C19.503 60.3757 19.6532 60.5577 19.8352 60.6763C20.3414 61.0085 20.7764 61.4436 21.2985 61.76C21.3697 61.7995 21.425 61.847 21.5121 61.8391C21.5358 61.9735 21.6386 62.0368 21.7414 62.0922C22.6906 62.6221 23.6002 63.2075 24.6364 63.5871C25.5777 63.9272 26.519 64.2753 27.5156 64.3386C29.1688 64.4414 30.8219 64.4414 32.4118 63.8877C32.9022 63.7137 33.4084 63.5713 33.8356 63.2549L33.8672 63.2628C33.5587 62.8673 33.3847 62.4086 33.2028 61.9419C32.9971 61.3961 32.8231 61.317 32.1982 61.3645C32.0717 61.317 31.9451 61.2616 31.8186 61.2142C31.8106 61.3249 31.953 61.317 31.9688 61.404C31.0118 61.7125 30.0151 61.6334 29.0422 61.5859C27.6263 61.5147 26.2184 61.3249 24.8342 60.9215C23.8613 60.6368 22.9516 60.2017 22.1053 59.6797C21.433 59.2604 20.8397 58.7147 20.2386 58.1768C20.0092 57.9711 19.8826 57.6468 19.5583 57.5598L19.5504 57.5519C19.3448 57.2355 19.1549 57.4807 19.0125 57.5915C18.3007 58.1531 17.573 58.683 16.7741 59.1102C16.2757 59.3791 15.7774 59.648 15.2712 59.9249H15.2633C14.8124 59.9723 14.409 60.1701 13.9819 60.2966C13.9423 60.3045 13.9107 60.3283 13.8712 60.3441C13.4757 60.4865 13.0327 60.6763 12.653 60.5893C12.2101 60.4944 12.305 59.9328 12.1785 59.5768C11.8225 58.5723 11.5773 57.544 11.6169 56.4604C11.6248 56.1914 11.688 56.0728 11.9886 56.0491C13.8712 55.9067 15.5401 55.1394 17.1221 54.1902C17.9526 53.6919 18.7199 53.0987 19.4634 52.4817C19.503 52.4501 19.5188 52.3947 19.5425 52.3552C19.6928 52.3235 19.7877 52.4343 19.8905 52.5134C21.0612 53.4467 22.2635 54.3484 23.5607 55.1078C24.8975 55.8829 26.3291 56.318 27.8874 56.3259C28.1088 56.3259 28.3303 56.3338 28.5122 56.492C28.9157 56.3259 29.327 56.1519 29.7304 55.9858C30.9406 55.5745 32.1903 55.3372 33.4243 54.997C33.622 54.9417 33.7406 54.8626 33.8197 54.6807C34.3339 53.6128 35.0458 52.7507 36.2085 52.3473C36.2639 52.3314 36.3193 52.3077 36.3667 52.2919C36.4063 52.3077 36.4458 52.3156 36.4854 52.3314C37.0074 52.545 37.5295 52.7507 37.8696 53.2411C38.1781 52.9247 38.4786 52.6083 38.8267 52.3393C38.9611 52.2365 39.0481 52.2286 39.1589 52.3393C39.4278 52.5845 39.7679 52.7427 39.9894 53.0354C40.2267 52.98 40.4403 52.8456 40.6934 52.806C41.3974 52.7032 41.9431 52.9484 42.394 53.4704C42.5206 53.6128 42.6867 53.7315 42.829 53.8659C42.9793 54.1032 43.2324 54.2219 43.4144 54.4196C43.5963 54.6174 43.7545 54.9179 43.9839 54.9812C44.2291 55.0524 44.411 54.7123 44.6404 54.5778C44.7511 54.5145 44.8698 54.4592 44.9805 54.3959C45.724 54.2693 46.4597 54.3326 47.1715 54.5778C47.2032 54.6411 47.2665 54.6569 47.3297 54.649C47.4167 54.7202 47.5038 54.7914 47.6224 54.7993C47.7648 54.9575 47.923 55.1078 48.0495 55.2818C48.4688 55.8434 48.4688 55.8434 49.1253 55.5982C49.1332 55.5903 49.1411 55.5824 49.1569 55.5745C49.9558 55.3925 50.644 54.9259 51.4191 54.6965C52.0519 54.5145 52.6847 54.4038 53.3412 54.3722C53.539 54.3643 53.6734 54.4196 53.7604 54.5936C53.7842 54.6569 53.8158 54.7202 53.8395 54.7835C55.4531 54.3247 56.8294 53.4467 58.0871 52.3552C58.5854 51.928 58.5933 51.9122 59.1233 52.3077C60.4601 53.3123 61.8759 54.1665 63.4342 54.7677C64.4308 55.1552 65.4353 55.527 66.5111 55.701C66.9303 55.7643 67.3653 55.8276 67.7846 55.9225C68.0772 55.9779 68.1721 56.0965 68.1405 56.3654ZM53.1118 61.2063C53.009 61.2063 52.9062 61.1904 52.8033 61.2063C52.5977 61.3645 52.3999 61.5306 52.1785 61.6492C52.3999 61.5306 52.5977 61.3645 52.8033 61.2063C52.9062 61.1904 53.009 61.2063 53.1118 61.2063ZM11.6248 50.3144C11.6248 49.6263 11.6248 49.6263 12.2892 49.5234C12.3287 49.5155 12.3683 49.5155 12.4078 49.5155C13.4361 49.3494 14.4248 49.0489 15.3345 48.5426C16.8611 47.6963 17.9447 46.3674 19.0758 45.0939C19.1312 45.086 19.1787 45.086 19.234 45.0781C19.3922 45.0781 19.5583 45.0623 19.5425 45.2996L19.5504 45.3233C19.5741 45.347 19.59 45.3708 19.6137 45.3945C19.6295 45.4103 19.6532 45.4182 19.6849 45.4103C19.9301 45.3708 20.025 45.5211 20.0804 45.7188H20.0883C20.4442 46.1222 20.8714 46.4228 21.3618 46.6443C22.5957 47.5223 24.0116 47.981 25.4116 48.4714C25.554 48.5268 25.7201 48.5268 25.8704 48.5505C26.0365 48.7641 26.3054 48.7166 26.519 48.7799C27.5314 49.0726 28.5597 49.2071 29.6196 49.12C30.6163 49.0409 31.5417 48.7166 32.483 48.4635C32.8152 48.3765 33.179 48.337 33.448 48.0839H33.4559C33.6062 48.0918 33.7406 48.0443 33.8435 47.9257C33.8672 47.9336 33.8988 47.9257 33.9147 47.9098C34.2152 47.9257 34.413 47.7042 34.6582 47.6014C35.3859 47.3008 36.0582 46.8974 36.6989 46.4465C37.4662 45.9086 38.2255 45.347 38.882 44.6668C39.0007 44.5482 39.1352 44.4928 39.2854 44.6431C40.3295 45.6714 41.516 46.494 42.7895 47.2059C43.4302 47.5618 44.0551 47.9494 44.7907 48.0918L44.7986 48.0997C44.8065 48.1709 44.8461 48.2104 44.9172 48.2341C46.5229 48.7799 48.1682 49.033 49.8688 48.9698C50.9762 48.9302 52.0598 48.7483 53.1118 48.3923C54.3695 47.9573 55.4689 47.2138 56.5605 46.4623C57.3831 45.9007 58.182 45.3075 58.9967 44.7222C59.1075 44.6431 59.2024 44.5561 59.3369 44.6905C59.6295 44.9911 59.9696 45.2363 60.2781 45.5132C61.1878 46.3358 62.1765 47.0635 63.2918 47.5381C64.7234 48.155 66.2026 48.6375 67.7687 48.8195C67.9428 48.8432 68.0535 48.9065 68.0614 49.1121C68.0772 50.2432 68.1089 51.3743 68.1405 52.5054C68.1484 52.7586 68.0456 52.8456 67.7925 52.8535C67.0252 52.8693 66.2817 52.7348 65.5461 52.5213C63.2443 51.8568 61.0928 50.8918 59.234 49.3494C58.799 48.9935 58.7911 49.0014 58.3481 49.389C57.2645 50.3223 56.1096 51.145 54.8757 51.8648C54.496 52.0862 54.0689 52.2049 53.7288 52.4896H53.7209C53.6418 52.4975 53.5548 52.4896 53.4915 52.5134C52.6531 52.8851 51.7513 53.0433 50.8575 53.1145C49.4417 53.2411 48.0258 53.1541 46.6179 52.9009C44.9884 52.6004 43.5172 51.9122 42.0934 51.0975C41.7296 50.8918 41.4132 50.6071 41.0177 50.4568L41.0019 50.4489C40.5431 50.0218 40.0369 49.6579 39.5465 49.2782C39.2933 49.0805 39.1114 49.1279 38.8979 49.3257C38.5261 49.6658 38.1543 50.0059 37.7272 50.2907C37.5374 50.4173 37.3238 50.528 37.2289 50.7574L37.221 50.7653C37.0944 50.7653 36.9995 50.8365 36.9046 50.9077C36.1294 51.493 35.2593 51.9201 34.3893 52.3235C32.9734 52.9879 31.4547 53.3281 29.9044 53.423C27.6184 53.5575 25.3879 53.336 23.2918 52.2602C21.9866 51.5879 20.8476 50.7574 19.8826 49.6579C19.7482 49.4997 19.5979 49.4048 19.4159 49.5788C19.1549 49.8319 18.9176 50.1088 18.7278 50.4173H18.7199C18.1504 50.8127 17.573 51.1924 17.0825 51.6907C17.0509 51.7066 17.0193 51.7224 16.9876 51.7461C16.8373 51.7936 16.6871 51.8489 16.6159 52.0071L16.608 52.015C16.2837 52.0941 15.991 52.2523 15.7458 52.4896L15.7379 52.4975C15.374 52.6083 15.0339 52.7507 14.7254 52.9721H14.7175C14.5514 52.9405 14.409 53.0354 14.2666 53.0908C13.5469 53.3834 12.8191 53.6366 12.0282 53.6286C11.7118 53.6286 11.6169 53.5258 11.6169 53.2252C11.6327 52.2602 11.6248 51.2873 11.6248 50.3144ZM21.2115 42.5786C21.1877 42.4046 21.2352 42.2859 21.3222 42.1436C21.7573 41.4633 22.1211 40.7356 22.6511 40.1107C22.7064 40.0396 22.7697 39.9605 22.7855 39.8814C22.9121 39.2169 23.3155 38.7107 23.8455 38.3706C24.9449 37.6666 25.5382 36.583 26.1789 35.523C26.8275 34.4315 27.5077 33.3478 28.4569 32.4936C29.24 31.7896 30.1496 31.2201 30.8931 30.4687C31.075 30.2867 31.2649 30.1839 31.5575 30.2946C31.7553 30.3737 32.0005 30.3263 32.1982 30.1997C32.657 30.002 33.1 29.7647 33.5192 29.4957C33.5983 29.4483 33.6457 29.4167 33.6932 29.5195C33.8197 29.6619 33.9542 29.7805 34.1124 29.8596C33.9463 29.7805 33.8197 29.6619 33.6932 29.5195C33.4084 29.8438 33.0683 30.1127 32.744 30.3896C32.1033 30.9353 31.3281 31.3862 30.9643 32.1851C30.5372 33.1105 29.8095 33.7275 29.0343 34.3128C28.4885 34.7162 27.919 35.088 27.3732 35.4914C26.7879 35.9185 26.3054 36.4643 25.8704 37.0338C25.3167 37.7536 24.502 38.2836 24.2409 39.2248C24.2093 39.3435 24.0986 39.4621 23.9957 39.5254C23.5211 39.8102 23.2127 40.2689 22.8409 40.6486C22.5403 40.9571 22.303 41.3209 22.1607 41.7718C22.3426 41.756 22.4375 41.6769 22.5403 41.5978C24.5969 39.9525 26.5506 38.1966 28.5202 36.4485C28.6704 36.314 28.884 36.2112 28.8998 35.9739C28.9156 35.7129 29.0818 35.5705 29.2716 35.4519C29.4693 35.3332 29.6117 35.175 29.762 35.001C30.7507 33.8462 31.7632 32.7071 33.187 32.0506C33.3372 31.9794 33.4322 31.8845 33.4163 31.7263C33.3926 31.4495 33.5587 31.2913 33.7486 31.141C34.3022 30.6901 34.935 30.3816 35.5362 30.002C36.0345 29.6935 36.4695 29.2901 36.5724 28.6969C36.6356 28.3251 36.8018 28.0562 37.039 27.7872C37.3317 27.4629 37.5769 27.0753 37.9803 26.8618C37.9566 26.7669 37.8696 26.7194 37.7984 26.6482C37.8696 26.7194 37.9566 26.7589 37.9803 26.8618C38.099 26.9171 38.2334 26.7748 38.3442 26.9013C37.9091 27.368 37.4029 27.803 37.2131 28.4121C36.7464 29.8912 35.4887 30.6664 34.4604 31.6393C33.7644 32.2958 32.9497 32.8179 32.1824 33.3795C32.0163 33.506 31.9056 33.5693 32.1824 33.7196C32.4513 33.862 32.2773 34.0993 32.1745 34.2496C31.9135 34.6134 31.5892 34.9219 31.1779 35.1196C30.4818 35.4439 29.9281 35.8869 29.4456 36.5197C28.5755 37.6666 27.5789 38.7107 26.6218 39.7864C25.8941 40.6091 25.1743 41.4396 24.3912 42.2148C23.7584 42.8317 23.0624 43.3854 22.2635 43.7967C22.0657 43.8996 21.8443 43.947 21.6228 43.9628C21.4962 43.9391 21.3539 43.9707 21.2431 43.8837C21.0058 43.6781 20.9109 43.4012 21.0928 43.156C21.2115 42.9662 21.2352 42.7843 21.2115 42.5786ZM27.2309 27.4787C26.9382 27.6765 26.606 27.9692 26.1393 28.0482C26.2184 27.9375 26.2421 27.8742 26.2896 27.8505C27.1755 27.4076 27.7925 26.6403 28.5676 26.0629C28.9868 25.7465 29.4931 25.5962 29.9281 25.3194C29.9993 25.2719 30.2445 25.2798 30.3394 25.4143C30.4264 25.525 30.3711 25.6674 30.284 25.7781C30.1496 25.9601 29.9756 26.0945 29.7699 26.1815C28.9077 26.5612 28.0377 26.933 27.2309 27.4787ZM30.6084 28.3726C30.7033 28.3884 30.814 28.4517 30.9247 28.5307C31.2728 28.3567 31.5813 28.0878 31.9847 28.0245C32.0479 28.2381 31.8186 28.2776 31.779 28.4121C31.4072 28.9104 31.0355 29.4087 30.6558 29.8991C30.2999 30.3579 29.8886 30.7534 29.3902 31.0619C29.1213 31.228 29.0106 31.141 28.9631 30.88C28.8919 30.524 28.8603 30.1602 29.1767 29.8991C29.7462 29.4325 30.3315 28.9816 30.9168 28.5307C30.814 28.4517 30.7033 28.3884 30.6084 28.3726ZM39.9261 25.5567C39.9103 25.5962 39.9024 25.6437 39.9024 25.6753C39.9024 25.6437 39.9103 25.6041 39.9261 25.5567C39.6335 25.5567 39.3408 25.699 39.0481 25.5487C38.9928 25.5171 38.9216 25.5171 38.9295 25.4222C38.7871 25.3035 38.6606 25.177 38.6685 24.9792C38.6606 25.177 38.7871 25.3035 38.9295 25.4222C39.2222 25.264 39.5306 25.3431 39.8391 25.3668C39.9499 25.3747 39.9973 25.4459 39.9261 25.5567ZM38.6764 24.9239C38.6606 24.9239 38.6447 24.9239 38.6289 24.9239C38.6368 24.9239 38.6606 24.9239 38.6764 24.9239ZM35.5599 27.4867C35.3701 27.629 35.1644 27.7556 35.2435 28.0482C35.2593 28.072 35.2672 28.1036 35.2831 28.1273C35.2752 28.0957 35.2593 28.072 35.2435 28.0482C34.9588 28.1827 34.8559 28.0957 34.9271 27.7872C34.9825 27.7398 34.9904 27.6844 34.9746 27.6211C34.9825 27.5974 34.9904 27.5737 35.0062 27.5499C34.9904 27.5499 34.9667 27.5499 34.9508 27.5499C34.9667 27.5499 34.9904 27.5499 35.0062 27.5499C35.117 27.4076 35.1881 27.2256 35.3859 27.1703C35.4966 27.1386 35.6548 27.0991 35.7181 27.194C35.7814 27.3126 35.6548 27.4234 35.5599 27.4867ZM39.5544 32.6043C39.5069 32.4619 39.4041 32.3275 39.5623 32.193C39.7284 32.0506 39.8549 32.2088 39.9894 32.2484C40.0685 32.3433 40.0922 32.4303 40.0052 32.5569C39.7047 32.9998 39.4357 33.4665 39.0798 33.8699C38.9137 34.0676 38.6289 34.2258 38.7713 34.5659C38.8108 34.653 38.7001 34.7004 38.6447 34.7479C37.3713 35.8078 36.1531 36.9231 34.7768 37.8564C34.6898 37.9118 34.5949 37.9514 34.4288 38.0305C34.6186 37.6271 34.8243 37.3502 35.1328 37.1208C36.2481 36.2903 37.2526 35.3411 38.2334 34.3603C38.273 34.3207 38.3283 34.2812 38.3283 34.2416C38.3521 33.775 38.7001 33.5772 39.0481 33.3953C39.151 33.3399 39.2301 33.2529 39.3171 33.1738C39.499 33.0235 39.6414 32.8574 39.5544 32.6043ZM32.7677 39.6678C32.8073 39.8023 32.483 39.9288 32.3011 40.0158C31.9768 40.174 31.6445 40.3164 31.2728 40.3639C30.6163 40.4588 30.0468 40.8068 29.4614 41.0916C29.3191 41.1628 29.1925 41.2418 29.0264 41.2023C29.2004 40.9255 29.4772 40.7831 29.7462 40.6407C30.4818 40.2452 31.2253 39.8497 32.0242 39.5966C32.1745 39.5491 32.2615 39.4621 32.3327 39.3356C32.7994 38.5446 33.6062 38.2678 34.4525 37.8802C34.3339 38.3943 34.0333 38.6632 33.709 38.8926C33.4875 39.0508 33.2344 39.1616 33.005 39.3119C32.8943 39.3909 32.6886 39.3751 32.7677 39.6678ZM28.9394 40.5221C28.6388 40.4746 28.5281 40.7673 28.3461 40.9255C28.1563 41.0916 28.0218 41.3842 27.6975 41.0441C27.571 40.9017 27.2783 41.0441 27.0568 41.0283C28.8049 40.0316 30.2761 38.6237 32.0638 37.6982C32.4355 37.5084 32.4355 37.5005 32.7915 37.809C33.1553 36.844 34.1124 36.5988 34.8718 36.1242C35.2356 35.8948 35.5915 35.6259 36.074 35.5151C35.987 35.7999 35.7893 35.9581 35.6153 36.1084C34.413 37.1446 33.0841 38.0067 31.7395 38.8373C30.9801 39.3039 30.2129 39.7548 29.5089 40.3006C29.3349 40.4192 29.1846 40.5537 28.9394 40.5221ZM29.0185 41.2181C28.9868 41.226 28.9552 41.2418 28.9236 41.2498C28.9631 41.2418 28.9947 41.226 29.0185 41.2181ZM21.7731 44.0736C21.7889 44.0894 21.8047 44.1131 21.8047 44.1368C21.8047 44.1131 21.7889 44.0973 21.7731 44.0736ZM22.3109 45.1256C22.303 45.0148 22.3268 44.9832 22.3663 44.9832C22.3268 44.9832 22.303 45.0069 22.3109 45.1256ZM22.7064 44.8962C22.4296 44.7854 22.042 44.7459 22.0341 44.3979C22.0262 44.1368 22.3742 44.0419 22.5878 43.9312C23.9562 43.2272 25.285 42.4521 26.7325 41.9221C26.7484 41.9379 26.7642 41.9616 26.78 41.9775C26.1235 42.4362 25.467 42.9108 24.85 43.5673C24.9766 43.5594 25.0873 43.5199 25.1901 43.4645C25.024 43.599 24.8658 43.7334 24.6997 43.8679C24.589 43.9549 24.4861 44.0419 24.3754 44.1289C23.9562 44.303 23.537 44.4691 23.1731 44.7459C23.0703 44.8013 22.9675 44.8646 22.8646 44.9199C22.8093 44.912 22.7539 44.912 22.7064 44.8962ZM22.6906 45.086C22.6748 45.086 22.659 45.086 22.6432 45.086C22.659 45.086 22.6748 45.086 22.6906 45.086ZM22.2951 45.2126C22.2477 45.2205 22.1527 45.1809 22.1369 45.1098C22.0974 44.9674 22.0183 44.8487 21.9471 44.7222C21.9234 44.6826 21.9075 44.651 21.8917 44.6114C21.9075 44.651 21.9313 44.6826 21.9471 44.7222C22.0183 44.8487 22.0974 44.9753 22.1369 45.1098C22.1527 45.173 22.2556 45.2126 22.2951 45.2126ZM24.0986 45.0227C24.1144 45.0307 24.1302 45.0307 24.146 45.0386C24.1302 45.0307 24.1144 45.0307 24.0986 45.0227ZM24.1777 45.0465C24.1935 45.0544 24.2093 45.0544 24.2251 45.0544C24.2093 45.0544 24.1935 45.0544 24.1777 45.0465ZM24.2568 45.0702C24.2726 45.0702 24.2884 45.0781 24.3042 45.0781C24.2884 45.0702 24.2726 45.0702 24.2568 45.0702ZM24.3359 45.0781C24.3517 45.0781 24.3675 45.0781 24.3912 45.0781C24.3675 45.0781 24.3517 45.0781 24.3359 45.0781ZM24.415 45.0781C24.4387 45.0781 24.4703 45.0781 24.4941 45.0702C24.4703 45.0781 24.4387 45.0781 24.415 45.0781ZM23.3709 44.8171C23.3471 44.8171 23.3155 44.825 23.2918 44.8329C23.3155 44.825 23.3392 44.8171 23.3709 44.8171ZM23.9325 44.9595C23.9562 44.9674 23.9799 44.9753 24.0036 44.9911C23.9799 44.9753 23.9562 44.9674 23.9325 44.9595ZM24.0748 45.0148C24.059 45.0069 24.0432 44.999 24.0195 44.999C24.0432 44.999 24.059 45.0069 24.0748 45.0148ZM24.8263 45.9798C24.8421 46.0352 24.8342 46.1143 24.85 46.1697C24.8263 46.1222 24.8421 46.0352 24.8263 45.9798C24.8025 45.9086 24.7551 45.877 24.6997 45.8691C24.7472 45.8849 24.7946 45.9086 24.8263 45.9798ZM33.5825 34.5264C34.0096 34.3287 34.4209 34.1388 34.7927 33.862C34.8085 33.8778 34.8243 33.8857 34.848 33.8778C34.587 34.2733 34.1678 34.4789 33.8039 34.7479C33.1395 35.2304 32.4355 35.6575 32.2536 36.5671C32.2061 36.8044 31.5417 37.1287 31.0038 37.2474C31.1937 36.7095 31.6208 36.3298 31.8502 35.8473C32.2061 35.1038 32.918 34.8349 33.5825 34.5264ZM35.9791 37.8248C35.7418 38.5288 34.6503 39.0983 33.9305 39.1299C34.5395 38.5762 35.1486 38.07 35.9791 37.8248ZM37.6323 33.5772C36.7701 34.2891 35.8209 34.8665 34.8718 35.4439C34.326 35.7682 33.8277 36.1716 33.2265 36.4169C33.2028 36.401 33.179 36.3773 33.1553 36.3615C33.274 36.0925 33.4401 35.8553 33.7011 35.7129C34.848 35.088 35.8921 34.3287 36.8571 33.4586C37.0311 33.3004 37.2368 33.1738 37.482 33.1896C37.6006 33.1975 37.7272 33.2055 37.7747 33.3399C37.83 33.4586 37.7114 33.5139 37.6323 33.5772ZM40.7962 50.4331C40.7092 50.4093 40.6301 50.3698 40.551 50.3223C40.6301 50.3698 40.7092 50.4093 40.7962 50.4331ZM28.7812 42.3255C28.8366 42.2068 28.9157 42.1277 29.0264 42.0803C30.0151 41.6294 31.0197 41.226 32.04 40.8464C32.8706 40.5379 33.8356 40.6407 34.5475 39.9605C34.7847 39.7311 35.109 39.5887 35.3938 39.3989C36.6277 38.5762 37.7905 37.6666 38.708 36.4722C39.3883 35.5863 39.8945 34.5659 40.6776 33.7591C40.9702 33.4507 41.0731 33.1026 41.1284 32.6992C41.1917 32.2009 41.1522 31.671 41.4369 31.2122C41.5002 31.1094 41.4211 31.0382 41.4053 30.9591C41.3657 30.7376 41.3024 30.524 41.2787 30.3026C41.2392 29.828 41.6109 29.7014 41.9431 29.5432C42.1092 29.4641 42.2437 29.3534 42.22 29.1635C42.1963 28.9737 42.0301 28.863 41.8482 28.863C41.5476 28.8551 41.5239 28.6969 41.5951 28.4833C41.6821 28.2223 41.5951 28.1194 41.3262 28.1115C41.0335 28.0957 41.0019 27.898 41.0493 27.6607C41.0651 27.5658 41.1759 27.5025 41.1205 27.368C40.994 27.3996 40.8753 27.4076 40.7725 27.455C39.942 27.8347 39.2459 28.3805 38.7159 29.124C38.5736 29.3217 38.4233 29.559 38.5656 29.8359C38.5577 29.8833 38.5577 29.9308 38.5498 29.9862C38.4865 29.9782 38.4312 29.9782 38.4074 30.0494C37.7193 30.4766 37.134 31.0461 36.4695 31.5128C36.3746 31.5839 36.3034 31.75 36.1373 31.663C36.1373 31.6947 36.1373 31.7342 36.1294 31.7342C36.0661 31.758 36.0582 31.7105 36.0582 31.663C36.082 31.663 36.1057 31.6551 36.1294 31.6551C36.8413 30.7534 37.6639 29.9466 38.2018 28.9104C38.5736 28.1985 39.1272 27.629 39.7205 27.0832C40.029 26.7985 40.4482 26.7827 40.7567 26.5296C40.8832 26.4346 40.9702 26.3872 40.7962 26.2764C40.6301 26.1815 40.6697 26.1182 40.812 26.0392C40.907 25.9838 41.0572 25.9363 41.0335 25.8098C41.0098 25.6674 40.8358 25.6516 40.725 25.5883C40.6459 25.5408 40.4324 25.5962 40.5036 25.4538C40.7171 24.9951 40.3295 24.9476 40.1001 24.8764C39.76 24.7657 39.5227 24.647 39.6335 24.1962C39.2538 24.3069 39.0481 24.5442 38.9849 24.8527C38.9137 25.1691 38.8029 25.003 38.6764 24.9318C38.6685 24.8448 38.6447 24.7657 38.5656 24.7261C38.5024 24.7103 38.4391 24.6866 38.3758 24.6707C38.2255 24.4967 38.2651 24.2911 38.2967 24.0933C37.8063 24.2357 37.3396 24.3781 36.865 24.5205C36.8334 24.6312 36.8018 24.7498 36.7543 24.8527C36.691 25.003 36.6752 25.1691 36.8334 25.2323C37.039 25.3114 37.0549 25.0979 37.0865 24.9713C37.0944 24.9476 37.1023 24.9239 37.1102 24.9001C37.1023 24.9239 37.0944 24.9476 37.0865 24.9713C37.047 25.0979 37.039 25.3114 36.8334 25.2323C36.6752 25.177 36.691 25.003 36.7543 24.8527C36.8018 24.7419 36.8255 24.6312 36.865 24.5205C36.8729 24.5046 36.8729 24.4888 36.8492 24.473C36.9916 24.2278 37.2684 24.038 37.2368 23.7295C37.2131 23.5238 37.3396 23.4526 37.4504 23.3498C37.6323 23.1837 38.1464 23.2312 37.83 22.7487C38.0436 22.3848 37.8538 21.8628 38.2888 21.5938C38.3521 21.5543 38.36 21.491 38.3204 21.4198C38.1622 21.143 38.3363 21.1034 38.5577 21.048C38.9611 20.9531 38.9374 20.5814 38.969 20.2887C38.9928 20.0435 38.8108 19.9249 38.5736 19.8378C38.3204 19.7508 37.9882 19.8062 37.8379 19.5294C37.6165 19.1418 37.2684 19.213 36.9837 19.3316C36.7464 19.4265 36.5645 19.7983 36.343 19.3237C36.3351 19.3079 36.2402 19.3237 36.1927 19.3395C36.0424 19.3791 35.9 19.4265 35.7497 19.474C35.5915 19.4819 35.4333 19.4977 35.2831 19.4898C34.9034 19.474 34.8085 19.3 34.9429 18.944C35.0932 18.5327 35.4017 18.7226 35.639 18.7621C35.9949 18.8254 36.1373 18.7463 36.169 18.3745C36.1769 18.2875 36.169 18.1926 36.169 18.0344C36.5249 18.3192 37.0311 18.1214 37.2922 18.5564C37.3317 18.6118 37.395 18.6197 37.4741 18.5327C37.6956 18.3033 38.2413 18.3508 38.4312 18.6039C38.5815 18.8017 38.7634 19.0152 38.9928 18.7542C39.4674 18.2242 40.0448 17.8841 40.7171 17.6626C40.812 17.631 40.8832 17.544 40.9623 17.4807C40.725 17.2434 40.8437 16.8084 40.4877 16.6344C40.0843 16.4445 39.6414 16.5157 39.2142 16.4762C37.7193 16.3338 36.2402 16.4762 34.7689 16.7214C34.0412 16.84 33.97 16.9508 33.9305 17.5203C33.8197 17.9395 33.9147 18.3666 33.9147 18.7937C33.9226 18.857 33.883 18.8808 33.8356 18.9124C33.1632 19.3949 32.7519 20.0989 32.309 20.7712C32.2378 20.8899 32.2141 21.1351 32.0875 21.1034C31.779 21.0085 31.7236 21.2458 31.605 21.3961C31.518 21.4989 31.4389 21.6017 31.2965 21.6176C30.6637 21.7125 30.4502 22.2345 30.205 22.7091C29.8569 22.8436 29.8253 23.2153 29.6513 23.4764C29.2162 24.1408 28.7891 24.8289 27.9269 24.9476C27.4998 25.0109 27.0806 25.1216 26.6534 25.1453C26.5111 25.1532 26.3924 25.2482 26.2342 25.1928C25.7517 25.0267 25.2297 25.0346 24.7314 24.9239C24.146 24.7894 23.5211 24.8764 22.9754 24.5679C22.5008 24.299 21.9866 24.0696 21.5753 23.7058C21.2668 23.4368 20.9267 23.4131 20.5471 23.4605C19.6691 23.5792 18.8227 23.8086 18.0001 24.1012C17.2249 24.3781 16.4577 24.5758 16.0068 25.4696C15.3978 26.6561 14.3537 27.4867 13.1514 28.0799C12.9773 28.1669 12.9932 28.333 12.8666 28.42C12.8271 28.4912 12.7796 28.5703 12.7401 28.6415L12.748 28.6494V28.6336C13.1435 28.4121 13.5864 28.2381 13.9344 27.9533C15.1605 26.9409 16.8373 26.8697 18.1029 25.9521C18.1108 25.9442 18.1346 25.9601 18.1425 25.9521C18.6566 25.612 19.2973 25.4222 19.5662 24.7894C19.6295 24.6391 19.7244 24.5679 19.8668 24.5363C19.9459 24.5363 20.0171 24.5442 20.0883 24.5442C20.2939 24.6154 20.46 24.734 20.6024 24.8843C20.9584 25.2719 21.3222 25.6516 21.8838 25.7228C21.9313 25.7307 21.9946 25.7702 22.0104 25.8098C22.1211 26.1341 21.9866 26.5296 22.2951 26.7985C22.303 26.8064 22.2793 26.846 22.2635 26.8697C21.8284 27.5658 21.3222 28.1827 20.4838 28.42C20.373 28.3963 20.199 28.4516 20.2386 28.2302C20.5154 27.8426 20.5075 27.811 20.0408 27.7635C19.9143 27.7477 19.7798 27.7477 19.6532 27.7398C19.4397 27.7398 19.2103 27.7319 19.4634 28.0403C19.5741 28.1748 19.4239 28.1985 19.3685 28.2302C19.1075 28.3884 18.9888 28.6178 19.0284 28.9183C18.973 28.9262 18.9176 28.9342 18.8939 28.9974C18.8544 29.0291 18.8227 29.0528 18.7911 29.0844C18.7673 29.0765 18.7515 29.0844 18.7515 29.1082C18.6487 29.1161 18.5775 29.1794 18.5142 29.2585C17.4227 29.915 17.3752 29.6381 17.1775 29.0212C17.2487 28.6257 17.13 28.246 17.043 27.8663C16.9639 27.5578 16.7424 27.455 16.4419 27.6053C16.3232 27.6607 16.2125 27.7239 16.0859 27.7951C16.252 27.985 16.5051 27.8821 16.6712 28.0324C16.4498 28.246 16.6317 28.5703 16.4656 28.7997C16.2678 29.0765 15.9514 28.9025 15.6667 28.9658C15.9356 29.385 15.817 29.8121 15.7062 30.2314C15.635 30.5161 15.4294 30.5794 15.2158 30.3816C15.1525 30.3263 15.1367 30.2235 15.026 30.1918C14.8836 30.5082 15.0655 30.7851 15.1446 31.054C15.2396 31.3546 15.1605 31.5365 14.8599 31.6235C14.1085 31.8371 13.6734 32.4698 13.1039 32.9286C13.0881 32.9444 13.1039 32.9919 13.1039 33.0473C13.3254 33.0077 13.5073 32.9128 13.6971 32.8574C13.9344 32.7862 14.2666 32.4778 14.4248 32.9998C14.4644 33.1422 14.6305 33.0789 14.7412 33.0552C14.9073 33.0235 15.113 32.8812 15.2237 32.9365C15.5085 33.071 15.7062 32.9523 15.9119 32.8179C17.1696 32.0348 18.4747 31.3387 19.8193 30.706C20.0092 30.611 20.2386 30.3816 20.4047 30.5161C20.6182 30.698 20.2939 30.8879 20.2623 31.0935C20.2623 31.1094 20.2781 31.1331 20.3018 31.1726C21.7652 30.5873 23.2285 29.9941 24.6918 29.4087C25.0873 29.3059 25.4828 29.2189 25.8625 29.0844C26.0998 28.9974 26.3924 29.0291 26.5823 28.8076C26.5743 28.7839 26.5743 28.7601 26.5664 28.7364C26.5664 28.7601 26.5743 28.7839 26.5823 28.8076C26.8116 28.8076 27.0252 28.6415 27.3574 28.776C26.8907 29.0212 26.867 29.7884 26.1235 29.5669C26.0839 29.559 26.0048 29.6223 25.9653 29.6698C25.1506 30.7218 24.2963 31.75 23.7268 32.9761C23.6477 33.158 23.5607 33.3399 23.7664 33.506C23.8929 33.6089 23.8692 33.7512 23.8375 33.9015C23.6161 35.1355 23.094 36.2428 22.485 37.3186C22.1607 37.896 21.8364 38.4734 21.5121 39.0508C21.5595 39.0825 21.5437 39.0666 21.5912 39.0983C21.9234 38.6316 22.2556 38.1649 22.5957 37.6982C23.363 36.6541 23.6082 35.3569 24.32 34.2891C24.415 34.1546 24.4387 33.9727 24.4861 33.8066C24.6048 33.4348 24.6997 33.0473 24.8421 32.6834C25.0794 32.0823 25.1743 31.402 25.6805 30.9274C26.1709 30.4607 26.6693 30.002 27.2941 29.7093C27.3258 29.5986 27.3416 29.4878 27.3574 29.3692C27.3416 29.4799 27.3258 29.5986 27.302 29.7093C27.4049 29.6935 27.5077 29.6777 27.6026 29.6619C27.6422 29.9071 27.484 30.0811 27.3732 30.2709C27.0568 30.8325 26.5348 31.2359 26.2026 31.7817C26.163 31.8529 26.0444 31.9082 26.1156 32.0111C26.3291 32.3037 26.1077 32.4698 25.9336 32.6676C25.6964 32.9365 25.4274 33.2055 25.372 33.593C25.3167 34.0044 25.1822 34.4473 24.9924 34.7558C24.4941 35.5626 23.8613 36.2903 23.5607 37.2078C22.5641 38.2282 22.1686 39.6203 21.3776 40.7673C21.2985 40.8859 21.2431 41.0283 21.2115 41.1628C21.1719 41.3051 21.2906 41.2498 21.3539 41.2577C21.3776 41.2023 21.425 41.1311 21.4804 41.1786C21.5516 41.2418 21.4567 41.2735 21.4171 41.313C21.2827 41.5899 21.0296 41.7718 20.8714 42.0249C20.6815 42.3334 20.3809 42.5786 20.1357 42.7605C19.8826 42.9504 19.6216 42.4046 19.3131 42.2622C19.2894 42.2543 19.2578 42.2306 19.2419 42.2068C19.0521 41.9696 18.9018 42.0724 18.7436 42.2543C18.5063 42.5312 18.269 42.808 18.0159 43.0611C17.5255 43.5436 17.0193 44.0103 16.513 44.4849C16.4972 44.5086 16.4814 44.5244 16.4577 44.5482C15.9119 44.9516 15.3819 45.3312 14.8362 45.7346C14.1717 45.9877 13.5785 46.3832 12.9062 46.6364C12.4395 46.8104 11.9649 46.8262 11.4824 46.7866C11.4745 41.8114 11.4745 36.8361 11.4507 31.8608C11.4428 30.8246 11.4033 29.7805 11.427 28.7443C11.4112 27.6053 11.3875 26.4584 11.3796 25.3194C11.3637 22.0447 11.3558 18.7779 11.34 15.5033C11.3321 13.945 10.7784 12.5766 9.86878 11.3269C9.0778 10.2274 8.20772 9.20703 7.25063 8.25785C7.2269 8.23412 7.21108 8.18666 7.17944 8.16293C6.83932 7.83072 6.85514 7.26912 7.16362 6.91317C8.01788 5.92445 8.87214 4.93572 9.70268 3.93117C9.90833 3.67805 10.2405 3.5515 10.3829 3.2351C10.4067 3.21137 10.4304 3.18764 10.4541 3.17182L10.4462 3.17973C10.7547 2.68932 10.7705 2.68932 11.0078 3.01363C11.0869 2.9899 11.1106 3.02154 11.0948 3.10063C11.4982 3.27465 11.8067 3.59104 12.1389 3.86789C12.8903 4.49277 13.6734 5.07809 14.5039 5.59223C14.7096 5.71879 14.8124 5.94027 15.0181 6.051C15.4531 6.1301 15.8091 6.39113 16.1808 6.58887C16.7741 6.90526 17.3989 7.11092 18.0238 7.3324C19.3764 7.78326 20.7606 7.89399 22.1765 7.69625C22.7855 7.61715 23.3867 7.4985 23.972 7.32449C25.1822 7.00809 26.3054 6.46231 27.4761 6.04309C27.5393 6.03518 27.6026 6.02727 27.6738 6.01936C27.745 5.89281 27.8716 5.87699 27.9981 5.86117L27.9902 5.86908C28.623 5.56059 29.2874 5.33121 29.9677 5.14928C30.4343 4.90408 30.9485 4.80125 31.4468 4.64305C31.9609 4.47695 32.5304 4.44531 32.9971 4.11309C33.1474 4.00236 33.4322 4.2001 33.6378 4.06563C33.6774 4.0419 33.7248 4.02609 33.7723 4.01027C34.2864 3.91535 34.8006 3.82043 35.3147 3.70969C35.3543 3.70178 35.378 3.6385 35.4096 3.60686L35.4333 3.59895C35.4413 3.70178 35.4966 3.70969 35.5757 3.67014C36.4774 3.56732 37.3713 3.4724 38.273 3.36957C39.8866 3.29838 41.4923 3.35375 43.1059 3.53568C45.8901 3.85998 48.5558 4.65096 51.1897 5.55268C52.1864 5.89281 53.1593 6.28039 54.148 6.65215L54.1401 6.64424C54.6463 6.78662 55.1526 6.92899 55.6588 7.07137C56.6554 7.3324 57.6679 7.51432 58.7041 7.48268C58.7673 7.48268 58.8385 7.48268 58.9018 7.48268C58.9967 7.47477 59.0996 7.46686 59.1945 7.45895C61.2748 7.10301 63.2522 6.44649 65.0319 5.28375C66.258 4.47695 67.3416 3.48822 68.4964 2.59441C68.7337 2.41248 68.8524 2.36502 69.0739 2.64977C69.4852 3.17973 69.9519 3.65432 70.3948 4.15264C70.4423 4.20801 70.466 4.28711 70.4976 4.35039C70.6321 4.40576 70.7587 4.47695 70.7428 4.65887C71.4389 5.41822 72.1429 6.16965 72.831 6.9369C72.9022 7.016 73.0683 7.10301 72.9418 7.26121C72.3723 7.86235 71.7474 8.40813 71.2649 9.08047C70.9089 9.32567 70.6479 9.68162 70.3632 9.99801C69.8886 10.5121 69.4773 11.0896 69.2004 11.754C68.8445 12.6083 68.5202 13.4783 68.3462 14.388C68.3303 14.5303 68.3224 14.6727 68.3066 14.8151C68.3066 15.0445 68.2987 15.266 68.2987 15.4953C68.2908 15.527 68.2908 15.5507 68.2829 15.5824C68.2275 16.2389 68.2512 16.8954 68.275 17.5519C68.2354 18.683 68.2354 19.822 68.275 20.9531C68.275 21.0085 68.275 21.056 68.275 21.1113C68.2671 22.7803 68.2591 24.4572 68.2591 26.1262C68.2591 32.723 68.2671 39.3198 68.2671 45.9166C68.2671 45.9877 68.2433 46.0589 68.2591 46.1301C62.4217 45.3866 60.2148 42.2306 59.7482 41.4554C59.6928 41.3684 59.5742 41.3526 59.503 41.4238C55.8803 44.8725 52.7638 45.8612 51.7751 46.1064C51.3005 46.2092 50.818 46.2962 50.3355 46.3753C50.288 46.3832 50.2406 46.3911 50.1931 46.3991C50.1773 46.4228 50.1615 46.4465 50.1377 46.4544C50.1615 46.4465 50.1773 46.4228 50.1931 46.3991C50.1298 46.3832 50.0665 46.3674 50.0586 46.4623C49.584 46.2883 49.0936 46.4149 48.6111 46.407C48.532 46.3991 48.4529 46.3912 48.3817 46.3832C48.3185 46.3674 48.2631 46.3437 48.1998 46.3358C46.5229 46.1301 44.9726 45.5606 43.533 44.6747C42.0143 43.7414 40.7488 42.5153 39.5227 41.2418C39.412 41.1311 39.3487 41.0362 39.1905 41.1944C38.4074 41.9616 37.6086 42.7131 36.778 43.4329C35.9475 44.1527 35.0537 44.7855 34.1124 45.3154C33.9621 45.4024 33.7881 45.4736 33.6141 45.5369C33.5508 45.6872 33.1474 45.6793 33.1474 45.6793C32.9576 45.7346 32.7677 45.7821 32.5858 45.8296C30.901 46.2725 29.1846 46.3674 27.4523 46.312C26.7404 46.2883 26.0048 46.2804 25.3167 46.0036C25.285 45.9324 25.2139 45.9482 25.1506 45.9403C25.0003 45.7267 25.1348 45.5685 25.2534 45.4182C25.4749 45.1414 25.7438 44.8962 25.9178 44.5956C26.345 43.8442 27.0015 43.425 27.7925 43.1481C28.0377 43.0611 28.267 42.9266 28.4569 42.7447C28.4648 42.7684 28.7812 42.3255 28.7812 42.3255ZM24.0116 29.2505C24.0195 29.2585 24.0353 29.2743 24.0432 29.2822C24.0353 29.2743 24.0274 29.2585 24.0116 29.2505ZM24.0432 29.2822C24.0353 29.2822 24.0274 29.2743 24.0195 29.2664C24.0195 29.2664 24.0195 29.2585 24.0116 29.2585C24.0116 29.2664 24.0116 29.2664 24.0195 29.2664C24.0274 29.2743 24.0353 29.2743 24.0432 29.2822ZM22.2081 29.6935C22.2002 29.6935 22.1844 29.7014 22.1844 29.7014C22.1844 29.7014 22.2002 29.6935 22.2081 29.6935ZM22.1686 29.6619C22.1765 29.6619 22.1923 29.6539 22.1923 29.6539C22.1923 29.6539 22.1765 29.6619 22.1686 29.6619Z" fill="black"/>
<path d="M57.3658 21.9577C56.9782 22.0605 56.6539 22.2662 56.3534 22.5272C56.1161 22.7329 55.855 22.9306 55.5149 22.8831C55.0878 22.8278 54.6528 22.8436 54.281 23.0097C53.5058 23.3577 53.229 22.5193 52.6595 22.3927C52.5567 22.369 52.5013 22.2583 52.4617 22.1634C52.4459 22.1238 52.4301 22.0843 52.4143 22.0526C52.3273 21.9181 52.2403 21.7916 52.1533 21.665C52.0504 21.5701 51.9397 21.4831 51.8369 21.3803C51.734 21.2775 51.5996 21.317 51.5046 21.3249C51.3939 21.3328 51.4493 21.4752 51.4572 21.5543C51.4888 21.8707 51.4651 22.1713 51.3702 22.4797C51.3465 22.4797 51.3227 22.4797 51.3069 22.4639C51.1883 22.2978 51.0933 22.0526 50.9747 22.4718C50.9114 22.6775 50.7374 22.6854 50.5713 22.543C50.3419 22.3374 50.1679 22.1001 50.1046 21.7916C50.0651 21.6018 50.0413 21.404 49.978 21.2142C49.7882 20.6921 49.4797 20.265 48.9735 20.0119C48.8311 19.9407 48.6413 19.8932 48.5464 19.9961C48.3407 20.2334 48.4752 20.7791 48.7916 21.0639C48.8232 20.9136 48.8549 20.7712 48.8865 20.6051C49.0921 20.7554 49.0051 21.0164 49.1633 21.1034C49.4006 21.23 49.456 21.404 49.4244 21.6492C49.4165 21.6967 49.456 21.7441 49.4718 21.7916C49.5114 21.8865 49.7724 21.8944 49.6221 22.0763C49.5114 22.2108 49.3769 22.1001 49.2583 22.0605C49.0842 22.0052 48.934 21.9102 48.7758 21.8153C48.4119 21.5938 48.1351 21.2379 47.7079 21.0955C47.6921 21.1113 47.6763 21.1351 47.6605 21.1509C47.6605 21.2458 47.7317 21.2775 47.787 21.3328C48.4435 22.0447 49.1238 22.7487 49.6537 23.5634C49.6696 23.5871 49.6933 23.6109 49.7091 23.6346C49.1475 24.0143 48.5622 24.3702 47.961 24.7024C47.352 25.0425 46.7746 25.4222 46.2763 25.9126C46.1576 26.0234 46.039 26.1578 46.1181 26.3556C46.1972 26.5612 46.3633 26.6087 46.5531 26.6324C46.7192 26.6561 46.8932 26.6561 47.0593 26.6878C47.1859 26.7115 47.3599 26.7194 47.3994 26.8381C47.4469 26.9725 47.2887 27.0595 47.1859 27.1386C47.0514 27.2415 46.9249 27.3522 46.7667 27.4155C45.8254 27.7952 44.8841 28.1827 43.9429 28.5624C43.8163 28.6099 43.6897 28.6415 43.5078 28.8155C45.161 28.2777 46.7429 28.7839 48.3012 28.6257C48.3249 28.6336 48.3486 28.6415 48.3803 28.6415C48.3724 28.8076 48.3961 28.9816 48.3486 29.1398C48.2616 29.4404 48.4356 29.5907 48.6413 29.6856C48.8232 29.7647 49.0131 29.8596 49.2266 29.8359C49.1792 30.1048 48.9656 30.2393 48.7599 30.3658C48.3803 30.6031 47.961 30.7534 47.5497 30.9195C47.4232 30.967 47.1938 30.967 47.2096 31.1806C47.2254 31.4416 47.0514 31.5049 46.8695 31.5919C46.6797 31.6789 46.5056 31.7896 46.3158 31.8924C45.4299 32.1772 44.5835 32.5727 43.7372 32.9682C44.2513 32.9524 44.7497 32.8416 45.2559 32.8495C45.7147 32.8574 46.0943 33.0077 46.4424 33.2846C46.6243 33.427 46.6876 33.5693 46.5056 33.8066C46.2209 34.1863 45.857 34.4552 45.3903 34.7321C45.5485 34.7321 45.6276 34.7479 45.6988 34.7321C47.2887 34.2179 48.8707 33.7038 50.3182 32.81C51.3939 32.1456 52.1849 31.2755 52.8335 30.2314C52.8651 30.1918 52.8968 30.1444 52.9205 30.1048C52.8889 30.0732 52.8177 30.0336 52.8256 30.0178C52.8651 29.9229 52.9126 30.0099 52.968 30.0178C52.968 29.9862 52.9601 29.9545 52.9521 29.9229C52.9442 29.8438 52.9601 29.7805 53.1183 29.8517C53.4584 29.3297 53.8064 28.8076 54.1465 28.2935C54.3522 28.1986 54.3126 28.0245 54.2889 27.8505C54.2731 27.7319 54.6132 26.664 54.6844 26.577C55.3646 25.7702 56.0449 24.9555 56.7251 24.1408C56.7884 24.0617 56.8912 23.9747 56.7884 23.8719C56.5353 23.6188 56.7014 23.3656 56.7568 23.0967C56.8754 22.5035 57.1839 22.1317 57.8325 22.1713C57.7613 21.9181 57.5794 21.9023 57.3658 21.9577ZM56.3376 23.2391C56.3138 23.2233 56.298 23.1837 56.2901 23.1521C56.2901 23.1204 56.3059 23.073 56.3534 23.1046C56.3771 23.1204 56.3929 23.16 56.4087 23.1758C56.4008 23.2312 56.3692 23.2628 56.3376 23.2391Z" fill="black"/>
<path d="M28.3457 60.2254C28.3694 60.2096 28.3932 60.2017 28.4169 60.1858C28.409 60.1779 28.3932 60.17 28.3853 60.1542C28.3694 60.1858 28.3536 60.2096 28.3457 60.2254Z" fill="black"/>
<path d="M53.4915 55.2897C53.2937 54.8072 52.7638 54.7518 52.3683 55.1789C52.2496 55.1315 52.1231 55.0919 51.9886 55.1315C51.5852 55.258 51.166 55.3609 50.7705 55.5191C49.853 55.8987 48.9117 56.1835 47.9546 56.4287C47.8281 56.2468 47.9467 56.0253 47.8122 55.8354C47.3139 55.1552 46.6653 54.7993 45.819 54.7993C45.4156 54.7993 45.028 54.8704 44.7353 55.171C44.4822 55.44 44.1658 55.6219 43.8652 55.8196C43.7624 55.8196 43.6675 55.8196 43.5647 55.8196C43.4935 55.6852 43.8178 55.5032 43.5093 55.4083L43.5014 55.4004C43.5251 55.2264 43.3827 55.1552 43.2878 55.0603C42.7579 54.5382 42.2358 54.0083 41.6742 53.5258C41.3262 53.2252 41.0019 53.1857 40.5827 53.3755C39.7442 53.7472 39.2301 54.4591 38.6606 55.1236C38.5103 55.1789 38.3758 55.3055 38.1939 55.2738C38.1623 55.1868 38.1306 55.1077 38.1069 55.0207C37.9091 54.4433 37.7035 53.8738 37.2605 53.415C36.6989 52.8376 36.2006 52.7664 35.5678 53.2806C34.8718 53.858 34.413 54.6015 34.0808 55.432C33.9938 55.432 33.8989 55.4241 33.8435 55.5111C33.6774 55.4716 33.5192 55.5032 33.3689 55.5744C33.3214 55.5823 33.2661 55.5902 33.2186 55.5981C33.0604 55.6298 32.8943 55.6614 32.7361 55.6931C32.6016 55.7247 32.4672 55.7563 32.3327 55.788C31.8581 55.8275 31.4152 56.0095 30.9564 56.1439C30.3236 56.3338 29.675 56.4603 29.0976 56.8004C28.9078 56.8479 28.7575 56.9665 28.5993 57.0694C28.2513 57.1643 27.9823 57.4016 27.6738 57.5756C27.4603 57.6943 27.397 57.8683 27.4207 58.0976C27.4444 58.3903 27.5868 58.596 27.8162 58.7383C28.3224 59.0706 28.71 59.4344 28.3936 60.1067C28.3857 60.1147 28.3936 60.1305 28.3936 60.1463C28.4015 60.1542 28.4174 60.1621 28.4253 60.1779C28.5281 60.0751 28.6626 59.9881 28.7179 59.8695C28.8999 59.4977 29.1846 59.5847 29.4377 59.7192C30.5135 60.2729 31.692 60.5101 32.8548 60.8186C33.3214 60.9373 33.5587 61.222 33.7169 61.6254C33.7881 61.8074 33.8356 61.9972 33.9068 62.1712C34.0333 62.4718 34.1599 62.7803 34.4684 62.9543C34.6424 63.0492 34.9034 63.1046 34.9509 62.9147C35.0695 62.4955 35.2752 62.0051 35.1012 61.6175C34.8797 61.0955 35.2277 61.2616 35.4175 61.2774C36.2164 61.3486 37.0153 61.4356 37.8063 61.3486C38.4075 61.2774 38.9058 61.3644 39.3566 61.7599C39.3804 61.8153 39.4199 61.8548 39.4832 61.8548C39.5623 62.0051 39.7205 62.0684 39.847 62.1554C40.3058 62.6221 40.8279 62.6616 41.4132 62.4006C41.785 62.2345 42.1804 62.1396 42.5443 61.9576C43.4935 61.491 44.4743 61.0401 44.2845 59.6796C44.2528 59.4265 44.4822 59.474 44.6088 59.561C44.7907 59.6875 44.9489 59.8536 45.1071 60.0039C45.4551 60.3519 45.8743 60.4152 46.3015 60.2175C46.776 60.0039 47.2348 59.7429 47.6224 59.3869C47.7648 59.2604 47.8834 59.1101 47.8676 58.9124C47.8281 58.4852 48.0733 58.422 48.4213 58.4061C49.1411 58.3587 49.8213 58.6039 50.5174 58.6751C50.5886 58.7304 50.6677 58.7463 50.7547 58.7383C50.7784 58.7542 50.8021 58.7621 50.8259 58.7779C51.5615 58.9519 52.2971 59.118 53.0327 59.3079C53.1751 59.3474 53.2384 59.3553 53.3016 59.205C53.4757 58.7937 53.6418 58.3903 53.705 57.9474C53.713 57.892 53.7209 57.8366 53.7288 57.7813C53.8 56.9507 53.8237 56.1044 53.4915 55.2897ZM40.9544 54.2456C40.9465 54.2377 40.9386 54.2297 40.9307 54.2218C40.9307 54.2297 40.9386 54.2377 40.9544 54.2456ZM40.8753 60.4231C40.3216 60.5892 39.7679 60.7395 39.2143 60.8898C39.1352 60.8977 39.064 60.9056 38.9849 60.9135C38.9532 60.9215 38.9295 60.9294 38.9058 60.9373C38.6289 60.8503 38.3679 60.9847 38.0911 61.0006C37.1261 61.048 36.1611 61.0876 35.1961 60.961C34.6503 60.8898 34.1441 60.7395 33.8198 60.2412C33.6853 60.0356 33.5825 60.2017 33.535 60.3045C33.3373 60.7079 33.0288 60.6921 32.6807 60.5655C32.1429 60.3757 31.5971 60.1938 31.0671 59.9802C30.909 59.9169 30.6558 59.8615 30.7745 59.5689C30.9722 59.6796 31.1304 59.7113 31.2016 59.4186C31.2333 59.292 31.3519 59.2999 31.4547 59.3079C31.6208 59.7587 32.0321 59.909 32.4197 59.9723C33.0762 60.0672 33.3531 59.5768 33.5746 59.0626C33.5983 59.0547 33.6062 59.0389 33.6062 59.0152C33.6616 58.9677 33.709 58.9124 33.709 58.8333C33.7723 58.8016 33.7802 58.7383 33.7802 58.6751C33.9463 58.6434 33.9147 58.7383 33.8751 58.8254C33.7802 59.0785 33.6853 59.3237 33.5587 59.6717C33.7328 59.5293 33.8435 59.474 33.9068 59.379C34.0966 59.118 34.2548 59.0706 34.5396 59.292C34.7531 59.4581 35.0141 59.6084 35.3226 59.6242C35.813 59.6401 36.2955 59.6163 36.7701 59.5372C37.3555 59.4423 37.917 59.1022 37.917 58.4536C37.9724 58.066 37.6956 58.0502 37.4346 58.0186C36.4933 57.8999 35.5599 58.0344 34.6266 58.1451C34.5949 58.153 34.5791 58.153 34.5712 58.0344C35.7814 57.631 37.0074 57.5756 38.2572 57.9632C38.7476 58.3982 38.6843 58.9282 38.0911 59.2446C37.925 59.3316 37.7589 59.4028 37.6402 59.561C38.9691 59.6954 40.2346 59.4265 41.5081 59.1734C42.7499 58.9282 43.9918 58.6592 45.2257 58.4061C45.2495 58.4378 45.2653 58.4773 45.289 58.509C45.0833 58.6434 44.8381 58.7067 44.672 58.8965C43.4223 59.474 42.1804 60.0276 40.8753 60.4231Z" fill="black"/>
<path d="M30.4422 58.1214C30.6519 58.1214 30.8218 57.9514 30.8218 57.7417C30.8218 57.532 30.6519 57.3621 30.4422 57.3621C30.2325 57.3621 30.0625 57.532 30.0625 57.7417C30.0625 57.9514 30.2325 58.1214 30.4422 58.1214Z" fill="#FCFDFD"/>
</g>
<defs>
<clipPath id="clip0_2491:55311">
<rect width="80" height="80" fill="white"/>
</clipPath>
</defs>
</svg>
