<svg width="80" height="80" viewBox="0 0 80 80" fill="none" xmlns="http://www.w3.org/2000/svg">
<path d="M39.9809 80C22.3165 80 8 65.6676 8 48.0032V0H71.9777V48.0032C71.9777 65.6676 57.6612 80 39.9809 80Z" fill="#033390"/>
<path d="M35.8211 32.6664C33.4935 32.6345 31.1659 32.6504 28.8383 32.6504V32.6026H28.7904C28.7904 26.3372 28.7904 20.0717 28.7745 13.8063C28.7745 13.2005 28.9817 13.0092 29.5557 13.041C30.3209 13.0729 31.1021 13.0889 31.8674 13.057C34.2747 12.9613 34.5457 9.83657 32.2181 9.31047C31.6601 8.92784 30.0658 9.72497 30.576 8.54522C31.2297 5.86686 28.7107 6.69588 28.7745 5.53207C28.089 2.31166 23.9279 2.90154 23.5613 6.09006C22.8279 6.26543 22.0945 6.45674 21.9829 7.39735C21.4249 7.8278 21.7438 8.24231 22.0148 8.67276C22.0786 8.99161 22.0467 9.27858 21.6003 9.23075C20.0061 9.05538 18.5712 9.69309 18.7306 11.5105C18.8901 13.7425 22.0945 12.7381 23.6091 13.1526C23.8323 14.731 23.5453 16.3412 23.7207 17.9354C23.6569 18.047 23.6569 18.1586 23.7207 18.2702C23.641 18.5891 23.641 18.892 23.7207 19.2108C23.6569 19.3224 23.6569 19.434 23.7207 19.5456C23.641 19.8645 23.641 20.1674 23.7207 20.4862C23.6569 20.5978 23.6569 20.7094 23.7207 20.821C23.641 21.1399 23.641 21.4428 23.7207 21.7616C23.6569 21.8732 23.6569 21.9848 23.7207 22.0964C23.641 22.4153 23.641 22.7182 23.7207 23.037C23.6569 23.1486 23.6569 23.2602 23.7207 23.3718C23.641 23.6907 23.641 23.9936 23.7207 24.3125C23.6569 24.4241 23.6569 24.5357 23.7207 24.6473C23.641 24.9661 23.641 25.269 23.7207 25.5879C23.6569 25.6995 23.6569 25.8111 23.7207 25.9227C23.641 26.2415 23.641 26.5444 23.7207 26.8633C23.6569 26.9749 23.6569 27.0865 23.7207 27.1981C23.641 27.5169 23.641 27.8198 23.7207 28.1387C23.6569 28.2503 23.6569 28.3619 23.7207 28.4735C23.6569 29.6692 23.625 30.9127 23.7207 32.1243C23.641 32.6345 23.3062 32.6983 22.8598 32.6983C19.0814 32.8099 11.8594 31.4388 12.8478 37.481C13.6131 40.8131 18.6509 41.4508 19.9901 38.1825C20.2133 37.7521 20.4206 37.7042 20.7554 38.0231C21.4409 38.8681 22.4293 39.6014 22.5728 40.7493C22.5409 51.2714 22.5569 61.7776 22.5409 72.2997C22.3337 73.6867 27.1483 75.5201 28.3281 76.1419C30.0499 76.8912 29.9224 76.6201 29.9224 74.9621C29.9224 63.5153 29.9224 52.0685 29.9224 40.6217C29.9542 39.4898 31.4369 38.6449 32.0427 37.7042C32.0906 37.7042 32.1543 37.7042 32.2022 37.7042C33.8124 41.4508 38.643 41.1797 39.7111 37.2419C40.1575 34.8505 38.3401 32.6983 35.8211 32.6664ZM24.3106 13.4874C24.2946 13.4555 24.3424 13.4077 24.3584 13.3599C24.3424 13.4077 24.2946 13.4555 24.3106 13.4874ZM22.0786 34.5317C22.0627 34.4998 22.1105 34.452 22.1264 34.4041C22.1105 34.452 22.0627 34.4998 22.0786 34.5317Z" fill="#FDFEFE"/>
<path d="M66.6219 9.18293C66.1755 7.79592 65.219 6.82342 64.087 5.97847L64.0711 5.96252C64.0392 5.78715 63.9595 5.67556 63.7523 5.67556C59.926 3.09285 54.9519 3.17257 50.5518 3.7465C50.2648 3.84216 49.93 3.82621 49.5793 3.98564C49.0372 4.03347 47.2836 4.47986 46.2154 5.13351C45.3067 5.50019 44.5095 6.02629 43.8081 6.72777C43.2979 7.23793 42.5327 7.5249 42.4211 8.35391C41.4805 9.27858 41.0819 10.4583 40.8268 11.7019C40.3485 13.5193 40.3804 15.7832 41.4167 17.505V17.5687L41.4645 17.6006C41.9109 18.876 42.9312 20.1833 44.1907 20.7732C44.3182 21.1399 44.5733 21.3631 44.9559 21.4109C45.6096 22.1602 46.4227 22.6704 47.3473 22.9892L47.3792 23.0052C47.3792 23.1805 47.4749 23.2603 47.6502 23.2603V23.3081C48.0329 23.5153 48.3836 23.8342 48.7503 24.0893C48.7662 24.1371 48.7981 24.169 48.8459 24.169C49.2445 24.5835 49.659 24.998 50.0416 25.4125C50.0576 27.4532 50.0735 29.4938 50.0735 31.5345C50.0735 32.9055 50.2011 32.6504 48.9256 32.6504C44.4298 32.1403 43.1225 38.7086 47.3952 39.7768C47.9531 40.1275 48.9894 40.0319 48.7184 41.1797C48.5908 52.9454 48.7184 64.7589 48.6706 76.5404C48.6546 76.9549 48.7343 77.1303 49.2126 76.9231C51.4446 76.1897 53.6925 75.3926 55.6694 74.0534C56.6259 63.5791 55.6853 52.4193 56.0042 41.7058C56.0042 40.8131 55.9404 39.984 57.168 39.9522C57.2158 39.9522 57.2636 39.8406 57.3114 39.7768C57.3752 39.7768 57.423 39.7608 57.4868 39.7608C57.5665 39.8246 57.6303 39.8565 57.6781 39.729C60.5637 39.0115 60.7232 34.0056 58.1883 33.32C58.1405 33.2722 58.0767 33.2403 58.0289 33.1925C57.997 32.9693 57.7578 33.049 57.5825 33.0171C56.6897 31.9968 54.4418 33.4476 54.5853 31.9809C54.6012 29.6054 54.6171 27.23 54.5693 24.8545C54.6331 23.9458 54.3142 23.1487 53.8519 22.3675C53.8838 22.1443 53.7244 22.0646 53.5649 21.9689V21.9051L53.5012 21.8892C52.5765 20.2471 50.9025 19.5775 49.388 18.7166C49.1329 18.3021 48.7503 18.0311 48.272 17.9354C46.3589 15.9585 45.2429 12.8657 47.0444 10.4424C48.3198 9.08727 50.0576 8.609 51.6837 7.89158C53.0867 7.92346 54.4099 7.25387 55.8766 7.62055C57.981 7.97129 58.826 7.90752 60.7232 9.1351C60.9942 9.39018 61.2493 9.67715 61.5203 9.94817C64.0392 14.0773 56.9767 18.2383 53.9794 14.9382C53.0069 14.0933 54.1867 13.0729 54.9519 14.0614C55.0954 14.2208 55.1273 14.444 55.5259 14.3962C56.3708 14.3005 56.052 13.7744 56.036 13.3918C56.0839 12.2758 57.4709 12.5628 57.3114 14.2049C58.5071 13.599 58.5231 13.5831 57.8854 12.483C57.0245 11.399 58.1086 10.1714 57.0564 10.3627C54.3461 10.5381 50.0257 11.4787 50.9822 15.0976C52.433 21.0921 64.8363 19.9123 66.6379 14.7628C67.706 13.0729 67.3712 10.9526 66.6219 9.18293ZM65.6654 8.06695C65.6494 7.97129 65.6016 7.89158 65.5538 7.82781C65.6016 7.89158 65.6335 7.97129 65.6654 8.06695ZM63.5131 17.1702C63.545 17.1861 63.5928 17.218 63.6088 17.218C63.5769 17.218 63.545 17.1861 63.5131 17.1702ZM60.1811 16.6441C60.1652 16.7397 60.1014 16.7716 60.0217 16.7876C60.1014 16.7876 60.1652 16.7557 60.1811 16.6441Z" fill="#FDFEFE"/>
</svg>
