<svg width="80" height="80" viewBox="0 0 80 80" fill="none" xmlns="http://www.w3.org/2000/svg">
<g clip-path="url(#clip0_2491:55337)">
<path d="M39.5663 79.2835C39.5126 79.2835 39.423 79.2656 39.3155 79.2118C36.2345 77.9221 33.3326 76.1666 30.6814 73.9454C30.2515 73.5871 29.8037 73.2288 29.3738 72.8706C27.9944 71.7421 26.5614 70.5598 25.2537 69.288C23.1579 67.2279 21.492 64.738 19.8798 62.3377C17.8914 59.3641 16.1539 56.0681 14.5775 52.2884C13.1086 48.7595 11.4427 44.747 10.4575 40.5911C9.75889 37.6534 9.40063 34.6082 9.02445 31.6525L8.98863 31.348C8.91698 30.8106 8.86324 30.2732 8.79158 29.7358C8.50497 27.425 8.20045 25.0425 8.03923 22.6959C7.7168 17.9131 7.73471 13.0408 7.73471 8.3296C7.73471 7.09359 7.73471 5.83968 7.73471 4.60367C7.73471 4.31706 7.73471 4.04836 7.73471 3.76175C7.73471 2.8661 7.73471 1.93461 7.7168 1.00313C7.7168 0.895653 7.7168 0.824001 7.73471 0.806088C7.75262 0.806088 7.78845 0.788175 7.84219 0.788175L8.03923 0.770262C8.36167 0.734435 8.64828 0.716522 8.9528 0.716522C17.372 0.716522 25.809 0.716522 34.2461 0.716522H70.2873H70.4485C70.6456 0.716522 71.0934 0.716522 71.2905 0.770262C71.3263 0.949393 71.3263 1.37931 71.3263 1.61218C71.3263 3.2781 71.3263 4.94402 71.3263 6.62785C71.3263 9.74474 71.3442 12.9512 71.3084 16.1039C71.2546 20.6717 70.9501 24.8097 70.4127 28.7326C70.2336 30.0582 70.0545 31.4017 69.8932 32.7094C69.732 33.9633 69.5708 35.253 69.3917 36.5249C68.9438 39.785 68.0482 43.1348 66.5614 47.0757C65.2358 50.6046 63.767 54.3663 61.8503 57.8773C59.2349 62.678 56.7808 66.5293 53.3953 69.682C49.8664 72.9601 46.033 76.3457 41.3755 78.4953L40.8382 78.7461C40.4441 78.9252 40.05 79.1043 39.6559 79.2835C39.6201 79.2835 39.5842 79.2835 39.5663 79.2835Z" fill="white"/>
<path d="M39.5671 0C49.7059 0 59.8447 0 70.0015 0C70.1448 0 70.306 0 70.4493 0C71.954 0.0179131 72.0436 0.107479 72.0257 1.61218C72.0257 6.44872 72.0615 11.2853 72.0078 16.1218C71.954 20.3851 71.6853 24.6305 71.1121 28.8401C70.7538 31.4375 70.4493 34.0349 70.091 36.6323C69.5895 40.3224 68.5326 43.8692 67.2249 47.3444C65.8277 51.0524 64.3768 54.7425 62.478 58.2355C60.1134 62.5705 57.5339 66.8159 53.8797 70.2194C50.1717 73.6587 46.3562 77.0085 41.6808 79.1581C41.1076 79.4268 40.5523 79.6775 39.9791 79.9462C39.6566 80.0895 39.37 80.0537 39.0476 79.9104C35.8232 78.5669 32.9034 76.7756 30.2164 74.5365C28.3714 72.9959 26.4726 71.5271 24.7529 69.8432C22.6034 67.7295 20.9374 65.2575 19.2715 62.7676C17.1219 59.5611 15.3844 56.1576 13.8976 52.5929C12.3033 48.7416 10.709 44.8724 9.74173 40.7882C9.0073 37.725 8.64903 34.5902 8.27286 31.4554C7.91459 28.5535 7.52051 25.6695 7.32346 22.7676C6.91146 16.695 7.03685 10.6404 7.01894 4.58576C7.01894 3.38558 7.01894 2.20331 7.00103 1.00313C6.98311 0.412002 7.19807 0.107479 7.7892 0.0537393C8.18329 0.0358262 8.55947 0 8.95356 0C19.1461 0 29.3566 0 39.5671 0ZM32.8855 63.5736C32.9034 63.5199 32.9034 63.4662 32.8855 63.4124C32.9034 63.3945 32.9392 63.3766 32.9392 63.3587C32.9392 63.3229 32.9213 63.2691 32.9213 63.2333C32.9392 63.1437 32.9571 63.0363 32.9751 62.9467C33.1721 62.8213 33.1721 62.6422 33.0825 62.4451C33.1363 62.1764 33.19 61.9256 33.2258 61.6569C33.405 61.639 33.3871 61.5315 33.3512 61.4062C33.4766 60.7792 33.6199 60.0627 34.3544 60.0268C35.0351 60.0089 35.1784 60.7613 35.3933 61.2808C35.7695 62.1764 35.7874 63.1616 35.9845 64.0931V64.1469C35.9845 64.3618 36.0024 64.5768 36.0024 64.7917C35.9486 65.1858 35.9486 65.5799 36.2352 65.9382C36.2352 65.5441 36.2352 65.1679 36.2352 64.7738C36.3069 63.5557 36.5219 62.3914 37.0413 61.2808C37.1846 60.9762 37.2742 60.6001 37.7579 60.6001C38.2236 60.6001 38.3669 60.9762 38.5281 61.2629C38.9222 62.0331 39.1551 62.8571 39.2446 63.717C39.1909 63.8782 39.2088 64.0215 39.37 64.129C39.388 64.4693 39.4059 64.8097 39.4238 65.1321C39.4059 65.347 39.2805 65.5799 39.5671 65.7949C39.7462 65.5978 39.7641 65.3829 39.7104 65.15C40.0149 63.9856 39.9612 62.7138 40.606 61.639C41.036 60.9225 41.4659 60.9046 41.9137 61.6211C42.3436 62.3018 42.5407 63.09 42.6661 63.8782C42.6302 64.0394 42.6661 64.1827 42.7914 64.3081C42.8273 64.5768 42.8452 64.8455 42.881 65.1321C42.684 65.7949 43.1855 66.3323 43.2034 66.9771C43.2572 66.601 43.4901 66.2606 43.3109 65.8665C43.3467 65.347 43.4005 64.8455 43.4363 64.326C43.5975 64.2185 43.6154 64.0752 43.5617 63.8961C43.705 63.3587 43.8125 62.8034 43.9916 62.2839C44.117 61.9077 44.2603 61.4599 44.7798 61.442C45.2814 61.4241 45.4784 61.8361 45.6217 62.2122C46.177 63.5557 46.4636 64.9709 46.5532 66.4218C46.5532 66.6547 46.5532 66.8876 46.5532 67.2817C46.7502 66.8876 46.8756 66.6547 46.7323 66.3681C46.7682 66.0994 46.804 65.8307 46.8398 65.562C47.0189 65.3829 47.0189 65.1679 46.9473 64.953C47.0548 63.9677 47.1981 63.0004 47.5922 62.0869C47.7355 61.7644 47.9504 61.442 48.3624 61.4241C48.7565 61.4062 48.9177 61.7107 49.0969 61.9973C49.4014 62.4809 49.491 63.0542 49.6701 63.5736C50.0283 64.5768 49.8313 65.6874 50.3687 66.8517C50.4045 66.5114 50.4224 66.3502 50.4224 66.189C50.4045 64.8992 50.6374 63.6453 51.0136 62.4093C51.139 61.9973 51.3002 61.4062 51.8913 61.4241C52.4287 61.442 52.6437 61.8898 52.8228 62.3556C53.0736 63.0183 53.2885 63.699 53.3781 64.4156C53.3244 64.6305 53.3423 64.8276 53.5035 65.0067C53.5214 65.2754 53.5393 65.562 53.5572 65.8307C53.5214 65.9919 53.396 66.2427 53.6289 66.2606C53.8976 66.2964 53.808 66.0277 53.7901 65.8665C53.8259 65.365 53.8259 64.8455 53.8976 64.3439C54.0051 63.3945 54.1125 62.4451 54.7395 61.6749C54.9186 61.4599 55.0619 61.1016 55.4202 61.1733C55.8322 61.2449 55.6531 61.6569 55.7068 61.9256C55.7605 62.1585 55.7605 62.3914 55.8143 62.6243C55.868 62.9646 55.868 63.4124 56.3338 63.4483C56.7637 63.4841 56.9249 63.09 57.0503 62.7496C57.319 61.9256 57.8206 61.227 58.358 60.5822C59.2357 59.5253 59.6119 58.4505 58.9491 57.1608C58.9133 56.91 58.8416 56.6592 58.555 56.5517C58.555 57.3578 58.555 58.146 58.555 58.9341C58.4296 59.2208 58.4117 59.6507 57.9639 59.579C57.516 59.5074 57.7489 59.1133 57.7131 58.8446C57.6414 58.343 57.516 57.8594 57.2294 57.4474C57.2294 56.9995 56.9607 56.4442 56.6204 56.5696C56.0472 56.7667 56.907 57.1249 56.7279 57.4653C56.7099 57.5011 56.8174 57.5907 56.8532 57.6623C56.8532 58.1281 57.0324 58.5938 56.8353 59.0416C56.7458 59.0416 56.6562 59.0237 56.5487 59.0237C56.083 58.558 55.9039 57.9489 55.7247 57.3757C55.1873 55.6023 54.0588 54.2588 52.6616 53.1124C50.709 51.536 48.3803 50.7299 46.0695 49.8522C44.0633 49.0998 42.0749 48.3117 40.4269 46.8965C39.0118 45.6784 38.7073 44.3529 40.1761 42.8661C41.0539 41.9704 42.0928 41.2897 43.1497 40.6269C44.8515 39.5701 46.6965 38.7102 48.3266 37.528C49.061 36.9906 49.0073 36.4711 48.237 36.0233C47.9862 35.88 47.6996 35.7904 47.413 35.7008C46.0695 35.2709 44.6723 35.2172 43.2751 35.0739C40.3373 34.7514 37.4175 34.3932 34.4798 34.1245C31.7749 33.8916 29.1058 33.4617 26.4726 32.8168C24.8962 32.4407 24.2155 30.8643 24.9858 29.5746C25.1112 29.3775 25.4336 29.2879 25.3441 28.8759C22.3705 29.6641 19.3969 29.7358 16.4412 28.6789C18.8774 31.0613 21.6898 32.6556 24.9858 33.3542C26.5801 33.6946 28.1564 34.1603 29.7149 34.5902C30.2164 34.7335 30.718 34.9485 30.7001 35.5575C30.7001 36.2024 30.1448 36.3099 29.6432 36.4532C29.0342 36.6144 28.4251 36.7219 27.7982 36.7577C23.8214 36.9368 19.8985 36.4174 15.9576 35.8262C14.1842 35.5575 12.3929 35.4321 10.6016 35.5396C10.297 35.5575 9.86712 35.5217 9.93878 36.0233C10.0821 36.9906 10.2433 37.9579 10.4224 38.9431C10.4941 39.3372 10.7986 39.4984 11.139 39.6596C12.1063 40.1075 13.0557 40.5911 13.8976 41.2718C14.8291 42.0063 15.5635 42.8482 15.5993 44.1558C15.6352 45.768 14.8649 47.0578 13.9871 48.2938C13.7184 48.6699 13.5931 49.0103 13.7722 49.4402C14.0588 50.0851 14.3454 50.7479 14.5783 51.4106C14.8828 52.3063 15.4023 52.9333 16.3338 53.2736C17.3906 53.6677 17.8743 54.5813 18.1788 55.6202C18.5729 56.9458 18.6087 58.343 18.7699 59.8119C19.0386 59.579 18.9849 59.3641 19.0386 59.1849C19.2536 58.1639 19.2178 57.107 19.7552 56.1755C20.1672 55.4769 20.6867 55.459 21.1166 56.1397C21.3673 56.5338 21.5823 56.9637 21.636 57.4474C21.6002 57.6265 21.636 57.7519 21.7973 57.8594C21.8331 58.0743 21.8689 58.2714 21.9047 58.4863C21.8152 58.6475 21.8152 58.8088 21.9764 58.9341C22.0122 59.3999 22.048 59.8656 22.0839 60.3314L22.0301 60.3493L22.0839 60.3672C22.0839 60.6001 22.0839 60.8329 22.0839 61.0658C22.478 59.9552 22.6213 58.8088 23.087 57.7519C23.2482 57.4115 23.4453 57.0712 23.8214 57.0712C24.1976 57.0533 24.4484 57.3757 24.6096 57.7161C25.147 58.8804 25.3261 60.1522 25.5232 61.4062C25.5232 61.9256 25.5232 62.4451 25.5232 63.1975C25.9173 62.4989 26.0068 61.9794 25.9531 61.4062C25.971 60.618 26.1681 59.8835 26.4009 59.1491C26.5622 58.6834 26.6338 58.0743 27.2787 58.0564C27.9594 58.0385 28.1564 58.6296 28.2997 59.1312C28.6043 60.2418 28.9625 61.3524 28.9088 62.5347C28.8909 62.8213 28.855 63.1437 29.1237 63.5557C29.482 62.3376 29.3924 61.1733 29.8403 60.1164C30.0373 59.6686 30.1269 59.1312 30.6822 59.0954C31.2912 59.0595 31.5241 59.6148 31.6674 60.0806C31.9898 61.1016 32.3123 62.1048 32.366 63.1975C32.4018 63.8603 32.4735 64.523 32.7959 65.1321C32.7959 64.7738 32.7959 64.4335 32.7959 64.0752C32.8138 63.914 32.8138 63.7528 32.8317 63.5916L32.8855 63.5736ZM39.5133 1.41514C29.4641 1.41514 19.3969 1.41514 9.34764 1.39722C8.57738 1.39722 8.30868 1.57635 8.3266 2.38244C8.41616 6.46663 8.43408 10.5508 8.48781 14.6171C8.50573 16.1397 8.48781 17.6623 8.52364 19.1849C8.54155 20.0089 8.23703 21.03 8.7386 21.6032C9.27599 22.1943 10.3508 22.0331 11.1927 22.1943C12.0525 22.3377 12.8407 22.5347 13.3064 23.4304C13.8618 24.4872 14.8291 24.8455 15.9934 24.8097C16.3158 24.7918 16.6562 24.7918 16.9786 24.8634C17.6772 25.0246 18.4833 24.7738 19.0924 25.3471C20.3821 26.5651 21.9406 26.9592 23.6781 26.8338C24.4126 26.7801 25.1649 26.8697 25.9173 26.8876C26.1143 26.8876 26.4009 26.9413 26.5263 26.8338C27.834 25.6337 29.7328 25.0067 30.1448 22.9646C30.2702 22.3377 30.5747 21.7286 30.8076 21.1196C30.915 20.8509 30.9867 20.5284 31.3808 20.5105C33.2975 20.3672 35.2142 19.5432 37.1667 20.3851C37.6504 20.6001 38.1519 20.618 38.6535 20.4926C40.3194 20.0806 41.5375 21.1196 42.6123 21.9973C43.5975 22.7855 44.3678 23.9498 44.5469 25.3112C44.6723 26.2248 45.1739 26.4218 45.9621 26.2965C46.1591 26.2606 46.392 26.3144 46.589 26.2785C47.216 26.189 47.6638 26.4039 47.9862 26.9592C48.649 28.1594 49.8313 28.3923 51.0494 28.4102C52.5362 28.446 54.0409 28.3744 55.5277 28.3385C56.0651 28.3206 56.5846 28.3565 57.0861 28.6072C59.9701 29.9866 63.0691 29.5208 66.0606 29.3417C67.0996 29.2879 68.1206 28.9476 69.1775 29.2342C69.6074 29.3596 69.7328 29.1626 69.7865 28.7505C70.1448 25.7591 70.503 22.7676 70.5747 19.7761C70.7001 13.9543 70.6464 8.15047 70.718 2.3287C70.7359 1.48679 70.4314 1.3614 69.697 1.3614C59.6119 1.41514 49.5626 1.41514 39.5133 1.41514ZM55.7964 34.5902C56.4054 34.9306 57.0503 35.0022 57.6952 34.9843C61.027 34.9306 64.3588 35.1634 67.6728 35.2888C69.1596 35.3426 69.1237 35.3605 69.4283 33.8916C69.5536 33.2647 69.3924 33.1213 68.7834 33.1034C66.3293 33.0318 63.911 33.3184 61.4748 33.4975C59.8268 33.6229 58.1609 33.7483 56.5308 34.1245C56.28 34.1782 55.9397 34.1424 55.7964 34.5902Z" fill="#037505"/>
<path d="M39.5137 1.41514C49.563 1.41514 59.6302 1.41514 69.6794 1.39722C70.4318 1.39722 70.7184 1.52262 70.7005 2.36453C70.6288 8.1863 70.6826 14.0081 70.5572 19.8119C70.4855 22.8213 70.1273 25.8128 69.769 28.7864C69.7153 29.1984 69.5899 29.3954 69.16 29.27C68.1031 28.9834 67.082 29.3059 66.0431 29.3775C63.0337 29.5387 59.9526 30.0224 57.0686 28.6431C56.567 28.4102 56.0476 28.3565 55.5102 28.3744C54.0234 28.4102 52.5187 28.4819 51.0319 28.446C49.8138 28.4281 48.6315 28.1953 47.9687 26.9951C47.6463 26.4219 47.2164 26.2069 46.5715 26.3144C46.3745 26.3502 46.1595 26.2965 45.9446 26.3323C45.1564 26.4398 44.6548 26.2606 44.5294 25.3471C44.3503 23.9857 43.58 22.8213 42.5948 22.0331C41.5021 21.1554 40.3019 20.1164 38.636 20.5284C38.1344 20.6538 37.6329 20.618 37.1492 20.421C35.1967 19.579 33.2979 20.403 31.3633 20.5464C30.9871 20.5822 30.8975 20.8867 30.7901 21.1554C30.5572 21.7644 30.2527 22.3556 30.1273 23.0004C29.7153 25.0425 27.8165 25.6695 26.5088 26.8697C26.3834 26.9772 26.1147 26.9413 25.8998 26.9234C25.1474 26.9055 24.413 26.8339 23.6606 26.8697C21.9231 26.9951 20.3646 26.601 19.0749 25.3829C18.4658 24.8097 17.6597 25.0605 16.9611 24.8992C16.6387 24.8276 16.3163 24.8276 15.9759 24.8455C14.8116 24.8992 13.8442 24.5231 13.2889 23.4662C12.8232 22.5705 12.0171 22.3735 11.1752 22.2302C10.3333 22.0869 9.25849 22.2481 8.72109 21.6391C8.21953 21.0658 8.52405 20.0448 8.50614 19.2208C8.47031 17.6982 8.48822 16.1755 8.47031 14.6529C8.43448 10.5508 8.41657 6.46664 8.32701 2.38245C8.30909 1.57636 8.57779 1.39722 9.34805 1.39722C19.3973 1.41514 29.4466 1.41514 39.5137 1.41514ZM31.5066 9.58352C31.4887 9.63726 31.4887 9.691 31.4708 9.72683C31.7574 9.87013 32.0261 10.0313 32.3306 10.1388C34.7847 11.0703 37.2567 11.8764 39.7824 12.5571C44.1712 13.7215 48.542 13.5602 52.9486 12.8437C55.1161 12.4854 57.2656 11.8406 59.469 11.966C61.5648 12.0914 63.6606 12.4675 65.7386 12.8616C66.9387 13.0945 68.121 13.3094 69.3212 13.5244C69.4824 13.5602 69.7153 13.5602 69.8228 13.4528C69.984 13.2915 69.8048 13.1303 69.6974 13.0049C67.7448 10.2642 65.2012 8.34752 61.8693 7.66682C58.5733 6.98612 55.4385 7.79221 52.3575 8.92074C49.5809 9.94178 46.7686 10.7479 43.7412 10.515C41.6633 10.3538 39.5854 10.2821 37.5075 10.1388C35.5191 9.97761 33.5129 9.78057 31.5066 9.58352Z" fill="#7DC2FD"/>
<path d="M55.7969 34.5902C55.9581 34.1424 56.2805 34.1782 56.5671 34.1245C58.1972 33.7483 59.8632 33.6229 61.5112 33.4975C63.9473 33.3184 66.3656 33.0318 68.8197 33.1034C69.4288 33.1214 69.59 33.2826 69.4646 33.8916C69.1601 35.3426 69.178 35.3426 67.7091 35.2888C64.3773 35.1635 61.0633 34.9306 57.7315 34.9843C57.0329 35.0022 56.388 34.9306 55.7969 34.5902Z" fill="#7DC2FD"/>
</g>
<defs>
<clipPath id="clip0_2491:55337">
<rect width="80" height="80" fill="white"/>
</clipPath>
</defs>
</svg>
