<svg width="80" height="80" viewBox="0 0 80 80" fill="none" xmlns="http://www.w3.org/2000/svg">
<g clip-path="url(#clip0_2491:55356)">
<path d="M40.2156 0.0114953C50.957 0.0105373 61.6984 0.00670558 72.4398 0C72.9728 0 73.1582 0.143691 73.1582 0.694028C72.6452 15.5876 74.2287 30.7255 72.3837 45.4868C72.0647 46.9237 71.4368 48.3032 71.1609 49.7487C70.0803 53.5968 68.0054 57.0856 65.7696 60.3574C62.5251 64.6682 59.0161 68.7734 54.7054 72.0654C51.2223 74.8142 47.4016 77.1348 43.2805 78.7959C42.131 79.1623 40.9714 80.0144 39.763 80C28.8913 76.0212 19.3574 68.3854 13.2477 58.5167C11.6987 56.3614 10.7661 53.8267 9.52749 51.4917C8.86795 49.1581 8.04029 46.8189 7.63796 44.4192C6.32893 29.9567 7.5072 15.2614 7.1063 0.718455C7.1063 0.172429 7.30028 0 7.82475 0C18.6236 0.0134112 29.4206 0.0172429 40.2156 0.0114953ZM40.0805 1.97288V1.98725C29.9321 1.98725 19.7832 1.97863 9.63383 1.96138C8.99009 1.96138 9.01308 2.34216 9.01308 2.7718C9.34788 16.5949 8.34061 30.5717 9.41685 44.3215C10.4931 48.8018 12.0823 53.2059 14.6084 57.0784C17.8084 62.5387 22.2556 67.154 27.1986 71.0567C29.1183 72.3944 31.0524 73.7308 33.031 74.978C35.1663 75.8401 37.1665 77.0673 39.3046 77.9208C41.1438 78.372 42.7259 76.9581 44.3596 76.3402C44.966 76.0413 45.525 75.58 46.1615 75.4249C47.3226 75.1375 48.1416 74.3328 49.1115 73.7624C50.5398 72.5611 52.2727 71.8829 53.6019 70.5753C55.6739 68.8093 57.7689 67.1569 59.5622 65.1021C60.4473 63.7888 61.877 62.9094 62.653 61.4524C63.0136 60.777 63.6732 60.2683 64.1114 59.6246C67.3243 54.9374 69.8102 49.6481 70.9813 44.0787C71.5331 30.3404 71.079 16.5719 71.2212 2.82353C71.2212 2.1683 71.0517 1.97863 70.4726 1.97863L40.0805 1.97288Z" fill="#14995A"/>
<path d="M39.9114 4.1081C49.3068 4.1081 58.7033 4.1081 68.1007 4.1081C69.1999 4.05206 69.2315 4.09086 69.2301 5.21165C69.1783 16.8865 69.2947 28.5715 69.2301 40.2392C68.9082 43.4406 68.5202 46.7743 67.4497 49.8263C66.0229 52.8926 64.5529 55.9849 62.6074 58.7351C58.5093 64.6264 53.0462 69.6211 46.6763 72.9174C45.0957 73.6833 43.5266 74.4621 41.9345 75.1877C40.7735 75.8329 39.5507 75.7366 38.3652 75.2035C32.0012 72.6602 26.2679 68.5995 21.6338 63.6048C18.8333 60.5284 16.2368 57.1603 14.5427 53.3323C13.4894 51.1281 12.3428 48.9368 11.9563 46.4855C11.7795 45.0485 11.4605 43.6332 11.2378 42.202C11.0065 29.9883 11.2277 17.7386 11.1516 5.51053C11.1516 3.89544 10.9648 4.10667 12.5885 4.1081H39.9114ZM13.6446 26.5526C13.9823 32.2888 12.5382 42.1776 14.9551 46.9481C15.1175 47.5229 14.7094 48.7356 15.6362 48.6336C23.1871 48.6178 30.7367 48.6336 38.2862 48.6494C39.5421 48.5647 38.9069 49.8866 38.7776 50.5936C38.736 51.1267 38.5003 51.2804 37.9873 51.2833C34.6005 51.2589 31.2338 51.4572 27.8528 51.7144C24.7879 52.052 21.4499 51.6497 18.5129 52.3523C23.5421 53.4444 28.7667 53.0176 33.8993 53.0162C41.6285 53.6571 28.2839 55.8153 26.7507 56.0711C24.3798 56.5251 21.8652 56.3987 19.5561 57.0769C20.6639 58.6575 30.5255 55.6687 32.8058 57.0669C32.129 57.9491 30.9378 57.9031 29.9636 58.2925C28.7997 58.669 27.6559 59.1216 26.4777 59.4421C25.6816 59.8171 22.6196 59.9996 22.4543 60.6189C22.7417 60.8775 23.0003 61.1635 23.4745 61.05C25.8109 60.5743 28.1488 60.1217 30.3717 59.2251C34.2686 57.9836 38.131 55.8196 39.647 51.8078C41.6012 47.5301 38.21 43.238 35.4382 40.2248C31.958 36.3667 27.301 33.2357 25.3296 28.2511C24.2821 24.7766 24.7333 20.8754 26.6372 17.7774C27.4447 16.0388 29.7294 14.4136 31.4163 13.5026C33.5918 11.991 35.8708 10.5828 38.3968 9.71205C40.4976 8.76513 42.5481 7.47191 44.9563 7.73486C45.1031 7.74844 45.245 7.79409 45.3721 7.86858C45.4993 7.94307 45.6085 8.04458 45.692 8.16594C45.8616 9.09131 43.7134 10.557 43.0079 11.0915C41.9848 12.0715 41.0278 13.1247 39.9602 14.053C38.7604 15.0962 37.881 16.523 36.1912 17.0015C35.3132 17.2515 34.533 17.8392 33.6967 18.2473C32.3503 19.1023 29.8372 19.3437 29.6834 21.2648C29.6403 23.5021 29.396 25.9348 30.7137 27.9306C31.7325 29.1261 32.3532 30.6148 33.5645 31.6666C38.075 36.4932 44.1459 39.1658 49.6737 42.5541C53.6698 44.6318 56.4459 48.135 58.9763 51.7503C59.4548 52.4127 59.3671 52.5133 58.5538 52.6325C54.8768 53.407 51.2558 54.7319 47.8675 56.3556C45.0325 57.8212 42.1055 59.0541 39.5794 61.0227C40.8468 61.3014 42.8441 60.3947 44.1459 60.0614C46.55 59.153 49.0034 58.3806 51.4943 57.7479C54.565 57.3873 57.6601 57.2192 60.7308 56.8312C60.8055 56.813 60.8758 56.7799 60.9375 56.734C60.9992 56.6881 61.051 56.6302 61.09 56.5639C61.9263 55.1452 62.751 53.7203 63.5643 52.2891C63.7281 51.9112 63.5643 51.6942 63.1462 51.7905C61.7653 51.9917 60.36 52.7964 59.7666 51.0002C59.3657 50.1754 59.2162 49.1667 58.3297 48.6178C58.287 48.5797 58.2546 48.5313 58.2355 48.4774C58.2164 48.4234 58.2112 48.3654 58.2205 48.3089C58.2514 48.2582 58.2932 48.2152 58.3429 48.1828C58.3927 48.1505 58.449 48.1297 58.5079 48.1221C60.2695 48.0488 62.0254 47.7585 63.7871 47.691C65.5487 47.6235 65.5645 47.6695 65.9697 45.9667C67.3448 39.6558 66.4568 33.0877 66.6594 26.6676C66.6954 25.7077 66.8779 25.3499 65.7398 25.4089C62.3458 25.2522 59.0611 26.3558 55.6814 25.998C54.0189 26.123 52.4197 25.6603 50.7888 25.416C49.895 25.2723 48.928 25.3356 48.1104 25.0108C46.7309 24.4634 45.3386 24.6286 43.9433 24.5798C41.0408 24.528 38.1497 24.3024 35.2673 24.7838C34.2241 24.7551 31.1002 25.748 30.7367 24.5984C30.4493 23.3569 30.4292 21.841 31.2468 20.8165C32.5141 19.5491 34.5172 19.5103 35.98 18.5074C37.9773 17.2573 39.8812 15.9468 41.4733 14.1837C43.1645 12.8689 48.6665 14.0257 49.8074 11.9249C49.9166 11.7381 50.2384 11.6289 50.4813 11.5786C51.592 11.5887 51.9613 10.2365 52.8565 9.89598C53.9859 9.58417 55.1771 9.41605 56.3482 9.1962C57.8153 8.77519 59.4936 12.2037 60.7236 13.0974C61.34 13.7282 62.0082 14.2857 62.284 15.1579C62.7913 16.7658 64.05 17.5748 65.4884 18.2056C65.8648 18.2976 66.2715 18.8896 66.6479 18.5807C66.7428 14.7757 66.648 10.9392 66.6911 7.12561C66.6911 6.63132 66.5474 6.47757 66.0473 6.47757C48.7431 6.48619 31.4384 6.48954 14.1332 6.48762C13.7136 6.48762 13.5225 6.63132 13.5311 7.09256C13.5555 8.27514 13.5915 9.46346 13.511 10.6417C13.4722 11.205 13.7064 11.2768 14.1059 11.2165C18.7615 9.79395 16.9955 12.8129 19.9455 12.5011C20.3435 12.3991 20.5475 12.6031 20.753 12.9896C21.8408 15.5301 24.9962 14.257 27.1056 14.8375C27.0553 15.0214 27.0596 15.2528 26.9475 15.3821C24.4933 17.9111 23.4228 21.3984 23.6771 24.8801C23.7217 25.8198 22.1497 25.4002 21.5218 25.6388C19.1164 26.1058 16.7426 25.577 14.353 25.2896C13.4851 25.1287 13.465 25.9233 13.6446 26.5526ZM32.3589 63.8764L32.3374 63.6536C30.981 63.9798 27.3082 63.8218 26.6314 64.7874C29.3501 65.1696 32.2038 64.8765 34.9483 65.4541C42.1012 66.5878 53.0533 67.9917 57.5308 60.8948C53.6425 61.1534 49.6206 62.3202 45.6748 62.7958C41.2606 63.4051 36.8033 63.5933 32.3589 63.8764ZM37.2373 71.2707C40.3985 70.933 43.9994 71.1356 46.7898 69.5134C43.005 68.9846 38.8969 69.6369 35.069 68.4975C33.4467 68.0951 31.8273 67.6842 30.2065 67.2775C29.978 67.1899 29.7668 67.1583 29.5527 67.3063C30.4895 68.5463 32.1908 69.1297 33.451 70.0479C34.612 70.775 35.8176 71.3512 37.2373 71.2707ZM54.2474 18.1481C54.1224 19.1957 54.4701 18.743 55.1512 18.6094C56.637 18.4097 57.8656 17.9786 58.5711 16.5517C58.6286 16.4741 58.5193 16.2098 58.4145 16.1006C58.3656 16.0488 58.1271 16.1336 58.0049 16.2083C56.6384 17.4886 56.7907 16.1077 55.795 15.2873C55.3179 15.224 54.7633 15.5143 54.2747 15.5746C53.7905 15.681 53.4054 15.862 53.368 16.4483C53.358 16.6049 53.2559 16.842 53.141 16.8794C52.7918 16.9526 52.4987 16.592 52.4067 16.2701C50.9986 14.0587 50.4396 17.8881 50.329 18.8709C50.7701 18.8192 51.1782 18.631 51.5848 18.46C52.2056 18.1726 53.0088 18.2803 53.4327 17.5547C53.9342 17.0547 54.3178 17.5719 54.2474 18.1481ZM50.2499 19.5146C50.3462 19.0908 50.2772 18.7675 49.7844 18.608C49.5516 18.4772 49.4136 18.0332 49.2312 17.7975C48.9165 18.6353 48.8446 19.3408 47.8144 19.4371C46.5125 19.7546 45.603 20.9013 44.5454 21.6628C44.4836 21.7146 44.5109 21.9646 44.5799 22.068C45.6001 23.7018 47.2899 21.637 48.5084 21.2145C48.9711 20.9731 49.3174 20.486 49.7915 20.2963C50.2312 20.1167 50.3591 19.9342 50.2499 19.5146ZM39.9042 10.6231L39.8711 10.6978C38.6857 10.521 36.7875 12.2065 37.6525 13.3086C38.7891 13.0026 39.8553 11.728 40.706 10.9047L39.9042 10.6231ZM54.848 12.981C54.246 12.4336 53.7589 12.3933 53.7301 13.1707C53.7158 13.2813 53.8566 13.4121 53.927 13.5342L54.848 12.981Z" fill="#2E5398"/>
<path d="M65.9646 45.9711C63.0908 45.3518 60.0446 45.7757 57.1348 45.9021C55.9192 46.0242 55.4105 45.2957 54.7639 44.6994C53.7102 43.751 52.5673 42.9065 51.3513 42.1776C48.2102 39.9935 44.7946 38.2477 41.428 36.453C38.501 34.5017 35.6889 32.3564 33.3884 29.6808C33.091 29.1377 30.802 26.6073 32.1254 26.5656C38.1532 26.0282 44.3147 25.5598 50.2966 26.636C52.9965 27.0269 55.6591 27.7123 58.418 27.5528C61.1682 27.2122 63.8524 26.4823 66.6544 26.6719C66.4518 33.0921 67.3398 39.6587 65.9646 45.9711Z" fill="#14995A"/>
<path d="M13.6448 26.5527C16.0875 26.7122 18.2774 27.9652 20.779 27.4148C21.5923 27.5082 23.5752 26.409 23.7707 27.4809C24.3641 30.6895 26.7882 33.0734 28.9565 35.3552C30.8977 37.8123 33.5302 39.6429 35.4398 42.1489C36.5893 43.7654 38.1441 45.2469 38.6139 47.2212C30.7885 46.9338 22.8424 46.5501 14.9552 46.9496C12.5398 42.1977 13.981 32.2816 13.6448 26.5527Z" fill="#14995A"/>
</g>
<defs>
<clipPath id="clip0_2491:55356">
<rect width="80" height="80" fill="white"/>
</clipPath>
</defs>
</svg>
