<svg width="80" height="80" viewBox="0 0 80 80" fill="none" xmlns="http://www.w3.org/2000/svg">
<g clip-path="url(#clip0_2491:55306)">
<path d="M9.04275 39.9263C7.77992 65.8353 32.4261 93.0702 57.0512 73.1176C77.0459 54.8066 75.0464 15.7643 50.295 2.5046C26.8486 -8.3557 7.90621 18.3741 9.04275 39.9263Z" fill="#F9FCFC"/>
<path d="M9.04275 39.9263C7.90621 18.3741 26.8486 -8.3557 50.3161 2.5046C75.0675 15.7643 77.0669 54.8066 57.0722 73.1176C32.4261 93.0492 7.77992 65.8353 9.04275 39.9263ZM20.9344 10.2078C16.7881 14.5646 13.9678 20.2052 12.1788 26.0142C10.8738 30.5393 10.1582 35.1486 10.2003 39.8632C10.2424 43.799 9.65311 42.8308 13.4205 42.9571C14.8096 43.0202 14.3045 40.4315 15.4411 40.0316C17.9667 38.3688 14.4939 35.6959 18.4718 34.8119C21.8815 33.1492 19.3558 37.4007 21.1869 38.4951C21.671 38.874 21.7973 39.3581 21.65 39.9053C21.3763 40.8945 21.8604 41.1891 22.7444 41.3365C24.2387 41.7153 24.5334 39.9474 25.0175 38.9161C25.228 38.2215 25.6489 37.527 26.3435 37.4217C26.9959 37.3375 26.8907 37.0429 26.8486 36.664C26.7223 35.2118 26.5539 33.7806 26.8065 32.3073C26.7433 30.9182 29.1217 27.256 28.4903 27.0034C27.2064 26.351 26.8486 24.141 25.228 24.3304C23.3337 24.6461 21.4816 23.9516 19.5873 24.0779C18.6402 24.2673 18.4718 23.236 19.3979 23.0045C20.2398 22.6888 20.6607 22.1415 20.8712 21.2155C21.1448 18.9003 23.5021 19.1318 25.1648 19.9105C26.3224 20.7524 27.5642 20.4157 28.7849 20.2683C29.4795 20.1842 29.9846 19.8474 29.6478 18.9845C29.0796 17.6585 30.595 16.4167 31.6894 15.9116C33.0996 15.4065 34.2572 16.1221 35.3727 16.8166C35.6884 15.4065 32.826 15.2591 31.9209 15.2591C31.2685 13.9332 25.9225 15.1749 27.3748 13.5543C28.0272 12.8808 28.7218 12.2494 29.3111 11.5128C30.5529 9.95527 34.9517 9.93422 36.0251 11.7864C36.1093 12.4599 36.5934 12.3967 37.0564 12.3336C38.2561 11.9758 40.7817 12.0179 40.6765 10.292C40.9291 6.54564 46.6749 5.83004 49.5584 5.45119C51.4947 5.24072 51.9157 7.87161 50.8212 9.23967C49.8109 10.9024 50.4003 12.6703 50.6318 14.3541C52.1261 17.3638 56.2724 17.9532 59.0085 19.4475C62.0183 20.9629 56.3987 23.3623 54.8622 22.3731C51.8946 20.9208 50.8423 23.5938 47.9167 22.6467C46.1067 21.9732 45.9593 23.8884 44.8228 24.9198C44.2966 24.9829 44.2545 25.3617 44.2756 25.7616C44.3177 26.835 44.1282 27.8874 44.002 28.9397C43.4547 31.8442 42.1498 34.5804 40.2345 36.8955C39.6452 37.2954 39.2032 37.9689 38.5508 38.3688C38.1088 38.7056 38.2351 38.9792 38.5508 39.2949C38.7612 39.8211 38.8665 40.6209 39.4558 40.663C40.1082 40.7051 40.1293 39.8211 40.445 39.3581C41.0133 36.6009 42.5497 37.2954 44.8649 37.1902C46.7591 36.8114 44.1282 40.9576 44.6755 41.7364C45.2858 42.2836 47.2222 41.7995 47.4958 41.0208C48.064 40.1157 48.2324 37.2323 49.369 37.1902C50.2108 37.4217 52.2945 36.643 52.3997 37.8216C52.6734 40.0737 52.6734 40.0737 54.9885 40.0737C55.9356 40.0316 56.9459 39.9053 57.0722 41.1471C57.0722 41.9048 59.3453 41.5049 59.9556 41.589C60.4818 41.547 60.5871 40.9155 60.8396 40.5156C61.5763 39.4422 60.8817 38.2215 61.2606 37.1481C62.1445 37.085 63.0706 37.2533 63.8073 36.5588C64.4387 36.3062 65.5542 35.8432 66.0172 36.5588C66.0593 38.4951 63.2811 38.7266 64.4597 40.2631C65.2385 41.9048 65.9751 43.4412 68.143 42.9992C68.9217 42.894 69.2585 42.8308 69.2795 41.9048C71.0896 19.8474 51.8315 -8.65036 27.9009 4.58826C27.7326 4.58826 27.5852 4.6514 27.501 4.81978C27.3748 4.90397 27.1853 4.94606 27.0801 5.0513C26.9959 5.11444 26.9117 5.15653 26.8486 5.21967C26.2382 5.367 25.9015 5.93527 25.3753 6.25098C25.1017 6.29307 24.8912 6.4404 24.7649 6.69297C23.9441 7.34543 23.0391 7.89265 22.3866 8.73454C22.3235 8.75558 22.3024 8.77663 22.2814 8.83977C21.9446 8.92396 21.9025 9.28176 21.65 9.45014C21.1027 9.42909 21.3132 10.0184 20.9344 10.2078ZM51.8315 49.1239C52.2103 48.5977 52.063 48.0295 51.9998 47.4612C52.7786 45.6301 56.083 47.5243 56.6512 46.03C57.1143 44.3252 58.9454 45.7353 60.0609 45.3775C61.6394 45.4196 61.7236 48.0715 61.2606 49.2081C58.4403 49.0397 55.6199 49.166 52.8207 49.1239C52.3787 49.1239 52.2103 49.3554 52.063 49.7343C53.5573 49.5028 61.0922 50.2815 61.2606 49.2502C62.4392 49.7343 63.702 49.8605 64.8596 50.4499C65.5121 50.7866 65.7225 50.3446 65.4279 49.7132C66.4802 49.8605 67.5747 50.3236 68.6691 49.0397C67.4274 49.2923 66.3961 48.7661 65.4279 49.3554C64.7333 48.6609 63.1127 48.0715 64.1651 46.9771C65.491 46.9981 66.7959 47.0192 68.1219 46.9981C68.3534 46.9981 68.8165 47.2928 68.8375 46.6614C69.1743 45.7774 65.0701 46.3457 64.3755 46.1773C64.565 45.7353 64.8386 45.3354 65.2385 45.0408C65.2174 46.051 67.6799 45.3775 68.3955 45.5459C68.6481 45.5459 69.0059 45.609 68.9848 45.167C69.0059 44.5146 65.8909 45.0408 65.2385 44.8934C65.1332 44.3252 65.8909 44.0936 65.8067 43.4201C54.5044 43.4833 43.1811 43.4201 31.8788 43.378C32.7628 40.9366 33.8994 38.5793 34.2572 35.9695C34.8044 35.5696 35.2674 35.9905 35.6463 36.2431C36.2566 36.664 36.9512 36.4325 36.6565 35.6748C36.5723 34.0752 36.3829 32.4967 36.3619 30.8971C36.3408 29.95 35.7725 29.0239 36.2566 28.0768C36.2987 25.6774 35.9199 23.2149 37.4142 21.026C34.9938 22.7309 35.8988 27.719 35.7305 30.3709C35.6463 30.6656 35.6884 30.9813 35.4989 31.2549C34.615 32.5388 34.3203 34.0331 34.1519 35.5485C32.8891 39.4843 31.7315 44.262 28.3219 46.7456C27.1853 46.3457 28.2798 43.0834 26.7013 43.357C22.9338 43.4412 19.1664 43.3149 15.42 43.357C15.1043 43.357 14.515 43.1465 14.5781 43.7779C14.5781 47.1455 16.9985 46.3878 16.8091 48.7871C16.746 51.3338 16.9985 51.397 19.4611 52.0284C19.3769 52.4283 19.1033 52.302 18.8086 52.281C16.6197 52.0494 14.4308 52.2178 12.2419 52.1757C11.842 52.1757 11.7999 52.3862 11.8631 52.7019C11.9472 53.2281 12.284 53.2491 12.7049 53.2491C17.7983 53.2491 22.8707 53.2491 27.9641 53.207C28.4482 53.207 29.0375 53.2491 29.4584 52.8282C31.6894 52.5967 32.7839 49.6922 35.0569 50.513C35.8567 50.2183 36.7618 49.8605 37.3932 49.2081C37.6247 50.05 40.2977 49.5238 41.1185 49.5869C41.3921 49.5659 41.329 49.3133 41.1816 49.1239C41.9604 49.2712 42.7391 49.3765 43.5389 49.3554C45.2858 49.3344 45.2858 49.3554 44.907 47.6927C44.9701 47.6717 45.0333 47.6716 45.0964 47.6506C45.0333 47.6506 44.9701 47.6506 44.907 47.6506C44.928 47.377 44.8438 47.1244 44.6965 46.914C45.2648 46.7877 47.7062 47.2297 47.7694 46.7035C47.7904 45.5248 45.1385 46.2194 44.7386 46.7245C43.3916 44.4094 45.0754 44.8303 46.8223 44.683C48.1272 44.5356 48.1903 47.2928 48.7586 48.1978C48.8849 48.5977 48.7796 49.1029 49.3479 49.2502C50.1477 49.2081 51.0317 49.5238 51.8315 49.1239ZM61.6815 65.8984C62.7128 65.0986 57.8509 65.6248 57.4089 65.4985C57.0301 65.4985 56.988 65.6669 57.2616 65.9195C59.1559 69.5606 59.5137 68.9924 61.6815 65.8984ZM30.4266 64.8882C30.9949 64.8882 31.5631 64.8882 32.1314 64.8882L32.2156 64.9303L32.2998 64.8882C35.2464 64.9092 38.2561 65.1197 41.1395 64.825C39.6663 64.2989 40.2135 62.8256 37.8983 62.8256C36.2566 63.036 31.7105 62.131 30.9107 63.6253C30.3424 63.8358 30.0056 64.1936 30.2582 64.8461C30.3003 64.9513 30.3214 65.0145 30.4266 64.8882ZM26.6592 72.1705C27.1853 71.4759 26.7433 70.7182 26.8065 70.0026C26.8907 69.0976 26.4697 68.8029 25.6279 69.0345C24.1335 69.0134 22.6392 68.9924 21.1448 69.0134C20.9554 69.0134 20.7028 68.9292 20.5976 69.1818C20.5345 69.3923 20.5976 69.5606 20.7449 69.7501C22.3024 71.7285 24.0072 72.6756 26.6592 72.1705ZM18.9559 64.8882C21.4816 65.0145 24.0072 64.9092 26.5329 64.9934C26.7854 65.0145 27.0591 65.0145 27.0801 64.6777C27.4169 62.9518 26.4487 62.9308 27.0801 62.0889C28.9533 59.0792 21.692 60.6367 20.1767 60.2789C19.4611 60.4262 14.4308 59.9211 14.7465 60.5946C14.7044 61.3733 15.6094 62.3204 16.4092 62.3204C19.3348 62.3415 22.2603 62.3204 25.2069 62.3415C25.3753 62.3415 25.6068 62.3204 25.6279 62.5309C26.1119 63.478 13.2943 62.0679 16.304 63.3728C16.4092 63.899 16.746 64.2989 17.1248 64.6356C17.188 64.6988 17.0827 64.9092 17.2932 64.8461C17.6931 65.0355 18.114 64.9303 18.535 64.9092C18.6613 65.0145 18.8086 64.9724 18.9559 64.8882ZM32.3208 65.5406C31.6052 65.6248 30.8896 65.2039 30.2372 65.688C30.1109 66.7824 31.6894 66.13 32.3208 66.2562C33.6468 66.6561 33.9204 67.1192 32.7207 68.3399C37.0985 68.3399 41.4553 68.3399 46.0014 68.3399C44.8859 66.8876 43.6652 66.0247 42.0656 65.4985C38.8244 65.5196 35.5621 65.5406 32.3208 65.5406ZM27.501 74.2752C27.5852 71.6653 26.1119 73.286 24.5124 73.0755C26.5539 75.0329 28.9322 76.5272 31.963 76.5062C37.2037 76.3167 42.4445 76.422 47.6852 76.4641C50.8633 76.7377 52.947 74.6961 55.4516 72.8019C47.3695 72.8019 39.4137 72.844 31.3527 72.7808C28.9743 72.5283 28.2587 75.2223 27.501 74.2752ZM59.3453 68.9924C58.6718 69.0344 58.1456 68.9082 57.9141 69.1186C56.7565 70.1289 55.3884 69.6448 54.1046 69.7921C52.3997 70.0026 50.8843 68.7608 49.1795 69.2449C47.7062 69.6659 46.3171 68.9503 44.8649 68.9713C40.7397 69.0345 36.6144 69.0765 32.5102 68.9713C31.4368 68.9503 30.8896 69.4764 30.3845 70.1499C30.0267 70.6551 30.153 71.3917 30.3214 71.96C30.4476 72.423 31.058 72.1915 31.4368 72.1915C39.3926 72.2126 47.3695 72.1915 55.3253 72.1915C56.8828 72.402 58.1245 70.1499 59.3453 68.9924ZM29.3111 56.0274C24.1335 56.0274 18.9138 56.0274 13.7152 56.0274C13.2943 56.0274 12.7891 55.9642 13.0627 56.6798C13.631 57.5848 13.61 59.6264 14.8728 59.7527C18.7455 59.7316 22.6392 59.7527 26.5118 59.7316C26.8696 59.7316 27.8167 58.6582 27.7536 58.3215C27.7115 58.111 27.48 57.9005 27.3116 57.9637C26.4487 58.3425 25.6279 57.8795 24.7649 57.9005C21.8394 57.9847 18.8928 57.9426 15.9672 57.9216C15.6305 57.9216 15.2306 58.0689 14.8938 57.648C18.7244 57.227 22.6602 57.5848 26.5329 57.5006C27.7326 57.5217 28.8481 57.5638 29.3111 56.0274ZM32.7207 51.6285C34.9938 51.3759 37.1196 52.281 38.9927 50.934C40.0241 49.9868 40.7817 51.86 41.9814 51.6496C50.295 51.7127 58.6086 51.5654 66.9222 51.6285C67.4695 51.6706 68.164 51.6075 68.143 50.9129C68.1851 50.7235 68.2271 50.4288 67.9325 50.4078C67.3221 50.3867 66.5644 50.1342 66.1014 50.492C65.3226 51.0813 64.6702 50.8919 63.9756 50.5341C56.6723 49.9868 49.1795 50.492 41.8131 50.3446C39.6031 50.4078 34.2782 49.9237 32.7207 51.6285ZM56.4197 53.9226C55.4937 54.1542 44.1493 53.3544 45.5173 54.4278C46.0435 54.8698 46.4224 55.4591 47.3274 55.4591C53.5363 55.417 59.7662 55.438 65.9751 55.4591C66.9222 55.5854 67.28 54.9119 67.2169 54.1963C67.2379 53.6701 66.6697 53.9437 66.375 53.9437C63.0706 53.9016 59.7452 53.9226 56.4197 53.9226ZM56.7144 56.0274C53.6836 56.0274 50.6318 56.0273 47.601 56.0484C47.3274 56.0484 46.9275 55.8169 46.8223 56.301C46.9906 57.7743 48.9901 57.648 50.0635 57.5006C52.2945 57.4165 54.5255 57.4796 56.7565 57.4796C59.661 57.4796 62.5444 57.4375 65.4489 57.5006C66.3329 57.5217 66.4802 56.9324 66.4802 56.3851C66.4802 55.7327 65.8278 56.0484 65.5121 56.0484C62.5865 56.0273 59.661 56.0274 56.7144 56.0274ZM49.4111 57.9216C50.8002 58.8898 51.642 59.9211 53.431 59.7527C56.988 59.6895 60.545 59.7316 64.1019 59.7316C65.1964 59.9842 65.7646 59.1002 65.8278 58.1742C65.933 57.7743 65.4068 57.9216 65.1964 57.9216C59.9767 57.9216 54.7781 57.9216 49.4111 57.9216ZM32.1945 53.9226C25.7331 53.9226 19.2927 53.9226 12.8312 53.9226C12.5787 53.9226 12.1367 53.7964 12.2209 54.2383C12.1998 55.2065 12.6839 55.5854 13.6731 55.438C18.7034 55.438 23.7126 55.3538 28.7428 55.4801C30.2372 55.5222 31.1211 54.6382 32.1945 53.9226ZM42.1709 52.2389C42.5497 53.1228 43.139 53.3333 43.9599 53.3333C51.5368 53.3123 59.1138 53.3123 66.6907 53.3333C67.2379 53.3333 67.7431 53.2912 67.701 52.6177C67.6589 51.9232 67.0485 52.2599 66.7118 52.2389C58.5244 52.2178 50.3582 52.2389 42.1709 52.2389ZM17.5247 65.5196C18.6192 66.6772 18.8507 68.382 20.5134 68.4241C21.9236 68.0873 26.8696 69.1186 27.1643 67.7085C27.2906 67.0771 27.6063 65.5827 26.6171 65.5406C23.6705 65.5196 20.7239 65.5196 17.5247 65.5196ZM48.1903 76.9692C42.5497 76.9692 36.9091 76.9692 31.2685 76.9692C36.9091 79.2844 42.5497 79.3054 48.1903 76.9692ZM52.8207 60.2578C52.7786 60.342 52.7365 60.4262 52.6944 60.5314C53.5363 61.0366 53.8309 62.2573 55.0096 62.2783C57.7668 62.3204 60.5239 62.2994 63.2811 62.2994C63.8914 62.2994 64.9228 61.226 64.7754 60.5946C64.607 59.8579 63.9125 60.4051 63.4705 60.2789C59.9346 60.2157 56.3776 60.2789 52.8207 60.2578ZM59.3453 62.8045C58.0825 62.8045 56.8407 62.8045 55.5779 62.8045C55.3884 62.8045 55.0517 62.6361 55.1148 63.0992C55.199 63.7306 56.525 64.9724 57.1774 64.9724C59.2611 64.6777 62.2708 65.9195 63.3021 63.478C63.5968 62.9518 63.5757 62.7624 62.9022 62.7624C61.7236 62.8256 60.545 62.8045 59.3453 62.8045ZM56.7565 48.4925C57.43 48.3452 61.3027 48.8713 61.1343 48.1557C61.1132 47.819 60.9659 47.6506 60.6081 47.6506C59.4716 47.9032 52.1261 47.1034 52.4418 48.1768C52.2735 48.8292 56.1461 48.3452 56.7565 48.4925ZM16.7039 51.5864C15.9672 50.3446 15.9672 50.3446 14.4939 50.3446C13.7362 50.3446 12.9575 50.3236 12.1998 50.3657C11.9052 50.3867 11.3369 50.0921 11.379 50.7866C11.4 51.3549 11.7157 51.9232 12.284 51.7969C13.7362 51.4812 15.1885 51.7758 16.7039 51.5864ZM29.9004 53.3123C32.1314 53.0808 34.4887 53.8805 36.404 52.8492C36.7407 52.723 36.6986 52.1547 36.2777 52.2599C34.173 52.4072 31.942 51.7127 29.9004 53.3123ZM13.631 47.6716C13.1259 47.819 10.6634 47.3139 10.8738 48.0505C10.9159 48.4083 11.1054 48.5135 11.4421 48.5135C12.2209 48.3241 16.5987 48.9345 16.4092 48.0926C16.3671 47.2507 14.2624 47.819 13.631 47.6716ZM12.8523 47.0402C13.3364 47.0402 13.8204 47.0613 14.3045 47.0192C14.5781 46.9981 15.1043 47.2928 15.1043 46.7035C15.1043 46.2825 14.7465 46.1984 14.3466 46.1984C13.7783 46.3457 10.3687 45.8406 10.6423 46.5562C10.8318 47.4612 12.1788 46.8719 12.8523 47.0402ZM64.1651 47.6506C65.049 49.1029 66.7328 48.3031 68.0798 48.4504C68.3113 48.4293 68.7954 48.6609 68.7323 48.0715C68.7112 47.2086 65.1332 47.84 64.1651 47.6506ZM56.7565 47.0192C57.3879 46.8929 61.1343 47.3349 60.9869 46.7666C60.9869 46.3667 60.6923 46.1984 60.2714 46.1984C59.219 46.493 56.9249 45.5038 56.7565 47.0192ZM13.7573 49.1239C13.2732 49.2502 11.0212 48.8082 11.1685 49.4186C11.1685 50.1131 15.1254 49.5869 15.8831 49.7343C16.0725 49.7343 16.3671 49.9658 16.4092 49.5238C16.4303 48.724 14.3256 49.2712 13.7573 49.1239ZM66.1645 44.241C66.7749 44.0936 69.1953 44.6198 69.1322 43.8621C68.9848 43.1886 67.4905 43.6517 66.9222 43.5043C66.4802 43.5043 66.2066 43.6938 66.1645 44.241ZM12.1788 43.5675C11.6526 43.6938 10.6002 43.2518 10.3898 43.8832C10.3687 44.1357 10.5371 44.241 10.7897 44.262C11.5263 44.0936 14.2203 44.8513 14.094 43.9042C13.9678 43.2728 12.6839 43.6727 12.1788 43.5675ZM12.5576 45.5669C12.9365 45.4828 14.5781 45.8406 14.4308 45.3144C14.4098 45.0408 14.2203 44.9145 13.9257 44.9145C13.168 45.0829 10.8528 44.5777 10.5371 45.1881C10.6423 45.9458 11.9683 45.3986 12.5576 45.5669ZM46.8223 48.5767C47.2222 48.2399 48.1482 48.8713 48.1693 48.1768C48.2114 47.3139 47.2643 47.6927 46.7591 47.6927C46.2961 47.6927 45.4121 47.2928 45.3911 47.9874C45.349 48.9134 46.3171 48.282 46.8223 48.5767ZM47.2432 49.7764C47.7273 49.5869 48.5902 50.0079 48.5902 49.4607C48.5902 48.8082 47.7483 49.187 47.2853 49.1449C46.7802 49.1029 45.812 48.9134 45.833 49.3344C45.8751 50.1973 46.7802 49.4817 47.2432 49.7764ZM37.7931 19.3423C37.2669 18.3952 36.2987 17.8479 35.6042 17.0481C36.0462 18.0584 36.7618 18.8582 37.7931 19.3423ZM26.8907 40.1157C26.9749 40.8103 27.0591 41.5049 27.1432 42.2205C27.2695 41.4838 27.3327 40.7682 26.8907 40.1157Z" fill="#004FA9"/>
<path d="M22.2818 8.8608C23.3341 8.65033 23.9445 8.1031 24.2812 7.0718H24.3023C24.4496 7.09284 24.5128 7.0297 24.5338 6.88237C24.5969 6.81923 24.6811 6.77714 24.7443 6.714C25.06 6.73504 25.3757 6.73504 25.3546 6.27201C25.4809 6.29306 25.5651 6.20887 25.5862 6.10363C25.7124 6.01944 25.8177 5.93525 25.944 5.85107C26.5333 6.08258 26.9332 6.04049 26.8279 5.26175C26.9121 5.19861 26.9963 5.15651 27.0595 5.09337C27.1647 4.92499 27.4173 5.09337 27.4804 4.86185C27.6488 4.8829 27.8171 4.81976 27.8803 4.63033C28.3223 4.60929 28.9537 4.8829 28.9537 4.04102C29.1431 3.95683 29.3325 3.85159 29.522 3.7674C30.2376 4.20939 30.5743 3.78845 30.8269 3.17809C39.7508 -0.841909 50.2533 1.93631 57.0516 8.65033C56.9674 9.40802 57.3041 9.74478 58.0618 9.66059C62.0187 13.6595 64.6496 18.4372 66.5438 23.678C67.6382 25.7827 71.3846 43.1044 68.1644 42.9781C66.5017 43.2307 65.4914 42.5782 64.9232 41.0839C62.9447 38.2004 65.7651 39.2318 66.0387 36.5588C65.9755 36.4746 65.9334 36.3904 65.8703 36.3062C65.8282 35.9905 65.9334 35.5485 65.3652 35.6537C64.7969 35.7379 64.0813 35.5906 63.9761 36.4746C63.0921 36.7903 61.9976 36.1378 61.261 37.1481C60.2718 38.4741 61.6609 40.8313 59.9561 41.589C59.3878 41.5048 57.0516 41.8837 57.0726 41.147C56.9463 39.9053 55.9361 40.0526 54.9889 40.0736C50.9479 40.4735 53.4946 37.4217 51.7687 37.2112C50.7795 37.4428 48.9695 36.6219 48.5906 37.8637C48.2539 38.916 47.875 39.9684 47.5172 41.0208C47.2436 41.7995 45.3073 42.2836 44.6969 41.7364C44.1497 40.9576 46.7806 36.8113 44.8863 37.1902C42.6974 37.3165 41.161 36.5588 40.5085 39.1476C40.0455 40.8945 39.0984 41.3365 38.5722 39.2738C38.7616 38.4741 39.7719 38.2004 39.814 37.2954C40.1086 37.3165 40.277 37.1902 40.2349 36.8745C41.9397 34.7698 43.1815 32.4125 43.855 29.7816C44.1286 29.529 44.0865 29.2344 44.0024 28.9187C44.9284 28.2031 45.7703 29.529 47.9592 28.3294C49.8745 27.4033 47.8329 24.5409 46.1492 24.7303C45.8545 24.5198 45.6651 24.2673 45.7072 23.8884C46.2754 22.5625 46.6332 22.352 47.9171 22.6256C50.8427 23.5727 51.895 20.8787 54.8627 22.352C56.4201 23.3622 61.9766 20.9418 59.0089 19.4264C56.2728 17.9321 52.1265 17.3428 50.6322 14.333C50.4007 12.6493 49.8324 10.8813 50.8216 9.2186C51.9161 7.85054 51.5162 5.19861 49.5588 5.43012C46.6753 5.80897 40.9084 6.54562 40.6769 10.271C40.7822 11.9758 38.2565 11.9547 37.0568 12.3125C36.5938 12.3757 36.1307 12.4388 36.0255 11.7653C34.9732 9.91315 30.5743 9.9342 29.3115 11.4917C28.7222 12.2494 28.0487 12.8808 27.3752 13.5333C25.8808 15.1539 31.2689 13.9121 31.9213 15.2381C31.8371 15.4696 31.753 15.6801 31.6898 15.9116C27.4173 18.2268 31.3531 19.8684 28.7853 20.2894C26.1755 20.8576 26.0281 20.0579 23.7761 19.4896C22.0713 19.1318 21.2084 19.5527 20.8716 21.2154C20.6822 23.1097 18.7879 22.6887 18.809 23.7411C18.8932 24.1199 19.3141 24.0989 19.6088 24.0778C21.503 23.9516 23.3341 24.6461 25.2494 24.3304C25.6703 24.2673 26.1123 24.3304 26.407 24.6882C30.1744 29.2344 28.3223 25.6353 26.8069 32.3283C26.5543 33.8016 26.7437 35.2328 26.849 36.6851C26.87 37.0429 26.9753 37.3375 26.3438 37.4427C24.3654 37.8005 25.1231 41.8205 22.7237 41.3575C20.5769 41.1681 22.4501 39.4633 21.1873 38.5372C19.3562 37.4428 21.8819 33.1912 18.4722 34.854C16.3886 35.6117 16.3886 35.6117 16.4307 37.8216C16.4517 38.7266 16.5149 39.5054 15.4625 40.0736C14.326 40.4735 14.8521 43.0623 13.442 42.9992C9.67455 42.8939 10.2639 43.8411 10.2218 39.9053C10.1797 32.2441 11.9897 24.5198 15.6309 17.7427C17.02 17.869 15.8834 16.6693 16.7885 15.7642C17.6935 15.7432 17.5462 15.0486 17.6093 14.5014C17.7356 14.4804 17.7987 14.4172 17.7566 14.2699L17.7777 14.2278C18.5985 14.3541 18.4301 13.7437 18.4722 13.2807C18.809 12.8597 19.1036 12.3757 19.4614 11.9758C19.6088 11.9758 19.693 11.8916 19.6719 11.7443L19.693 11.7232C20.1981 11.8284 20.1771 11.4917 20.156 11.1549C20.6611 11.2181 20.8506 10.9866 20.7453 10.5025C20.8716 10.5025 20.9347 10.4183 20.9347 10.292L20.9558 10.271C21.0821 10.292 21.1663 10.2289 21.1452 10.0815L21.1663 10.0605C21.503 10.0605 21.6083 9.82897 21.6503 9.53431C21.7345 9.45012 21.7977 9.38698 21.8819 9.30279C22.1344 9.23965 22.2607 9.11337 22.2818 8.8608Z" fill="#F9FCFC"/>
<path d="M44.6749 46.9982C44.8223 47.2297 44.9065 47.4612 44.8854 47.7348C45.2432 49.3975 45.2853 49.4186 43.5174 49.4396C42.7176 49.4607 41.9388 49.3554 41.1601 49.2081H41.139C41.3705 48.9555 41.1601 48.724 41.118 48.4714C41.1811 47.8611 40.7181 47.4191 40.5287 46.8719V46.8929C40.5287 45.6722 39.0975 44.9145 39.0343 46.5772C38.1924 47.3139 37.6452 48.2189 37.3295 49.2923V49.2712C36.6981 49.9237 35.8141 50.2815 34.9933 50.5762C32.7202 49.7553 31.6257 52.6598 29.3948 52.8913C29.1001 52.8071 28.7423 52.9755 28.5318 52.6388C28.8475 52.6809 28.9738 52.5335 28.9738 52.2389C28.9738 51.6075 29.0159 50.9761 28.9949 50.3657C28.9738 49.5869 27.7531 48.6398 27.1006 48.9976C26.1745 49.5238 25.8799 48.9976 25.5431 48.3241C24.9328 46.3878 23.6489 44.4304 21.6915 45.5669C21.5021 45.6511 21.1022 45.6932 21.1864 45.9879C21.5863 47.2507 21.0391 48.1557 20.3235 49.0818C19.7762 49.145 20.1761 49.4817 20.134 49.6922C20.113 50.5341 19.9025 51.3759 20.134 52.2178C19.7341 52.9545 19.692 51.839 19.3974 52.0705C16.9559 51.4391 16.6823 51.3759 16.7455 48.8292C16.9349 46.4299 14.5145 47.1876 14.5145 43.82C14.4513 43.1676 15.0406 43.3991 15.3563 43.3991C18.0714 43.3991 20.7865 43.3991 23.5226 43.4201C27.3532 43.7779 27.29 42.031 27.8583 46.1563C27.8373 46.8719 28.6792 46.9982 28.9738 46.3667C29.5842 45.2512 30.5944 44.4515 31.289 43.4201C42.7386 43.3781 54.3145 43.5254 65.7852 43.4412C65.8694 44.0936 65.1117 44.3252 65.2169 44.9145C65.1959 44.9566 65.1959 44.9987 65.2169 45.0408C64.817 45.3354 64.5434 45.7143 64.354 46.1773C64.0383 46.3878 64.1646 46.7035 64.1646 46.9771C63.1122 48.0716 64.7328 48.6609 65.4274 49.3554C65.4484 49.9658 65.8273 50.8919 64.8591 50.4288C63.7015 49.8395 62.4387 49.6922 61.2601 49.2291C61.702 48.1136 61.6599 45.3565 60.0604 45.3354C59.45 45.5249 58.8607 45.2512 58.2503 45.1881C56.1035 44.7672 57.219 46.5983 55.8089 46.5562C53.7883 46.5141 51.3258 46.2194 51.8099 49.0818C51.2416 49.1029 50.6523 48.9134 50.1261 49.2712C49.8525 49.2923 49.5579 49.2923 49.2843 49.3133C49.0106 48.9976 49.2843 48.3873 48.6949 48.261C48.1267 47.356 48.0635 44.5988 46.7586 44.7461C45.0117 44.8934 43.3279 44.4725 44.6749 46.7877C44.5697 46.8508 44.4855 46.8929 44.6749 46.9982Z" fill="#F9FCFC"/>
<path d="M27.5024 74.2752C28.239 75.2223 29.0178 72.5283 31.375 72.7808C39.4361 72.844 47.3919 72.8019 55.4529 72.8019C52.9483 74.6961 50.8857 76.7377 47.6865 76.4641C42.4458 76.422 37.2051 76.3168 31.9643 76.5062C28.9125 76.5272 26.5552 75.0329 24.5137 73.0755C25.987 72.9282 26.892 72.7808 27.5024 74.2752Z" fill="#F9FCFC"/>
<path d="M59.3447 68.9924C58.145 70.1499 56.8611 72.423 55.3247 72.1915C47.3689 72.1915 39.392 72.2126 31.4362 72.1915C31.0574 72.1915 30.447 72.4441 30.3207 71.96C30.1524 71.3917 30.0261 70.6551 30.3839 70.1499C30.868 69.4764 31.4362 68.9503 32.5096 68.9713C36.6349 69.0765 40.7601 69.0345 44.8643 68.9713C46.3165 68.9503 47.7056 69.6659 49.1789 69.2449C50.8837 68.7398 52.3991 69.9816 54.104 69.7921C55.3878 69.6448 56.7559 70.1289 57.9135 69.1186C58.145 68.9082 58.6922 69.0344 59.3447 68.9924Z" fill="#F9FCFC"/>
<path d="M29.3104 56.0274C28.8473 57.5638 27.7318 57.5007 26.5322 57.4796C22.6595 57.5638 18.7237 57.206 14.8931 57.6269C15.2088 58.0689 15.6298 57.9006 15.9665 57.9006C19.755 57.8374 23.5856 58.0268 27.3109 57.9426C28.4474 58.0058 27.0162 59.6685 26.5111 59.7106C22.6384 59.7106 18.7658 59.7106 14.8721 59.7316C13.6092 59.6054 13.6513 57.5638 13.062 56.6588C12.7884 55.9642 13.2935 56.0063 13.7145 56.0063C16.3243 56.0063 18.9552 56.0063 21.565 56.0063C24.1538 56.0274 26.7426 56.0274 29.3104 56.0274Z" fill="#BCD5F6"/>
<path d="M32.7207 51.6285C34.2361 49.9237 39.6452 50.3867 41.8341 50.3657C49.2006 50.513 56.6933 50.0079 63.9967 50.5551C64.6912 50.9129 65.3437 51.1023 66.1224 50.513C66.5855 50.1552 67.3432 50.3867 67.9535 50.4288C68.2482 50.4499 68.1851 50.7445 68.164 50.9339C68.164 51.6285 67.5115 51.7127 66.9433 51.6495C58.6297 51.5864 50.3161 51.7337 42.0025 51.6706C40.8028 51.8811 40.0451 50.0079 39.0138 50.955C37.0985 52.2809 34.9938 51.3759 32.7207 51.6285Z" fill="#BCD5F6"/>
<path d="M16.2629 63.3517C13.2532 62.0258 26.0709 63.4359 25.5868 62.5099C25.5657 62.2994 25.3342 62.3204 25.1658 62.2994C22.2403 62.2783 19.3147 62.2994 16.3681 62.2783C15.5684 62.2783 14.6633 61.3312 14.7054 60.5525C14.3687 59.9 19.4621 60.3841 20.1356 60.2368C21.651 60.5946 28.8912 59.0371 27.039 62.0468C26.8285 62.4257 26.6391 62.5309 26.9548 63.015C27.2074 63.4149 27.0601 64.0884 27.039 64.6566C27.0811 65.246 24.9554 64.9513 24.5134 64.8882C23.924 64.2357 22.998 64.9723 22.3876 64.3199C23.5242 64.5093 24.787 63.5622 25.8183 64.7408C25.9025 64.825 26.134 64.7619 26.155 64.6145C26.1971 64.2357 26.7233 64.0042 26.5549 63.5832C26.4076 63.2044 25.9867 63.4359 25.7131 63.3096C25.3132 63.1202 24.8922 63.1413 24.4923 63.1413C22.5349 63.1413 20.5986 63.1413 18.6412 63.1413C17.8625 63.1623 17.0206 62.7414 16.2629 63.3517Z" fill="#BCD5F6"/>
<path d="M32.7418 65.5406C35.9199 65.7301 39.1822 65.8563 42.4024 65.6669C43.8968 66.0668 44.9491 67.056 45.9804 68.3399C41.4553 68.3399 37.0985 68.3399 32.6997 68.3399C33.7731 67.1402 33.731 66.8666 32.5103 66.2983C32.4682 66.172 32.384 66.151 32.2998 66.2562C31.6684 66.1089 30.0899 66.7824 30.2161 65.688C30.9317 65.7722 31.6052 65.6038 32.2998 65.5406C32.4682 65.7301 32.6155 65.709 32.7418 65.5406Z" fill="#F9FCFC"/>
<path d="M56.4187 53.9226C59.7441 53.9226 63.0485 53.9226 66.3739 53.9437C66.6686 53.9437 67.2369 53.6701 67.2158 54.1962C67.2579 54.9119 66.9422 55.5854 65.974 55.4591C59.7652 55.4591 53.5352 55.417 47.3263 55.4591C46.4213 55.4591 46.0635 54.8698 45.5163 54.4278C44.1482 53.3544 55.5347 54.1331 56.4187 53.9226Z" fill="#BCD5F6"/>
<path d="M56.7144 56.0274C59.6399 56.0274 62.5865 56.0063 65.5121 56.0484C65.8488 56.0484 66.5013 55.7327 66.4803 56.3852C66.4803 56.9324 66.3329 57.5217 65.4489 57.5007C62.5444 57.4375 59.661 57.4796 56.7565 57.4796C54.5255 57.4796 52.2945 57.4165 50.0635 57.5007C48.9901 57.627 46.9906 57.7743 46.8223 56.301C46.9275 55.8379 47.3484 56.0484 47.601 56.0484C50.6528 56.0274 53.6836 56.0274 56.7144 56.0274Z" fill="#BCD5F6"/>
<path d="M49.4102 57.9216C54.7982 57.9216 59.9968 57.9216 65.1955 57.9427C65.427 57.9427 65.9321 57.7953 65.8269 58.1952C65.7638 59.1213 65.1955 60.0053 64.101 59.7527C60.5441 59.7527 56.9871 59.7106 53.4302 59.7737C51.6201 59.9211 50.7993 58.8898 49.4102 57.9216Z" fill="#BCD5F6"/>
<path d="M32.1956 53.9226C31.1222 54.6382 30.2382 55.5222 28.7649 55.4801C23.7346 55.3539 18.7254 55.438 13.6952 55.438C12.706 55.5854 12.2008 55.2065 12.2429 54.2384C12.1587 53.7964 12.6007 53.9226 12.8533 53.9226C19.2937 53.9226 25.7552 53.9226 32.1956 53.9226Z" fill="#BCD5F6"/>
<path d="M42.1719 52.2389C50.3802 52.2389 58.5255 52.2178 66.7128 52.2599C67.0495 52.2599 67.6599 51.9442 67.702 52.6388C67.7441 53.3123 67.239 53.3544 66.6917 53.3544C59.1148 53.3333 51.5378 53.3333 43.9609 53.3544C43.14 53.3333 42.5507 53.1228 42.1719 52.2389Z" fill="#BCD5F6"/>
<path d="M17.5254 65.5196C20.7245 65.5196 23.6711 65.5196 26.6177 65.5196C27.628 65.5617 27.2912 67.056 27.165 67.6874C26.8703 69.0976 21.9032 68.0873 20.5141 68.403C18.8303 68.382 18.6198 66.6982 17.5254 65.5196Z" fill="#F9FCFC"/>
<path d="M48.1914 76.9692C42.5508 79.3055 36.9102 79.2844 31.2695 76.9692C36.9102 76.9692 42.5508 76.9692 48.1914 76.9692Z" fill="#F9FCFC"/>
<path d="M52.8216 60.2578C56.3575 60.2789 59.9355 60.2157 63.4714 60.2789C63.9134 60.4052 64.608 59.879 64.7764 60.5946C64.9237 61.226 63.8924 62.2994 63.282 62.2994C60.5248 62.2994 57.7677 62.3204 55.0105 62.2783C53.8319 62.2573 53.5582 61.0155 52.6953 60.5314C52.7585 60.4262 52.7795 60.342 52.8216 60.2578Z" fill="#BCD5F6"/>
<path d="M28.5524 52.6598C28.7629 52.9966 29.1417 52.8071 29.4153 52.9124C28.9944 53.3333 28.4051 53.2912 27.921 53.2912C22.8276 53.3333 17.7552 53.3123 12.6618 53.3333C12.2409 53.3333 11.9041 53.3123 11.8199 52.7861C11.7779 52.4493 11.7989 52.2389 12.1988 52.2599C14.3877 52.302 16.5766 52.1336 18.7655 52.3652C19.0601 52.4072 19.3127 52.5335 19.4179 52.1126C19.7126 51.8811 19.7547 52.9755 20.1546 52.2599C22.6171 52.2599 25.1007 52.2389 27.5632 52.2599C27.8999 52.2599 28.4682 51.9653 28.5524 52.6598Z" fill="#BCD5F6"/>
<path d="M59.3453 62.8045C60.5239 62.8045 61.7025 62.8256 62.9022 62.8045C63.5757 62.7835 63.5968 62.9939 63.3021 63.5201C62.2919 65.9616 59.2821 64.7198 57.1774 65.0145C56.525 65.0145 55.199 63.7727 55.1148 63.1413C55.0517 62.6572 55.4095 62.8466 55.5778 62.8466C56.8407 62.7835 58.1035 62.8045 59.3453 62.8045Z" fill="#BCD5F6"/>
<path d="M16.2617 63.3517C17.0194 62.7414 17.8613 63.1623 18.6821 63.1623C20.6395 63.1834 22.5758 63.1623 24.5332 63.1623C24.9542 63.1623 25.3751 63.1202 25.754 63.3307C26.0276 63.457 26.4485 63.2465 26.5958 63.6043C26.7642 64.0253 26.238 64.2568 26.1959 64.6356C26.1749 64.783 25.9434 64.8461 25.8592 64.7619C24.8279 63.5833 23.5651 64.5304 22.4285 64.341C23.0389 64.9724 23.965 64.2357 24.5543 64.9092C22.5548 65.0355 20.4711 64.9092 18.5348 64.9092C17.4404 65.2249 16.5353 64.3831 16.2617 63.3517Z" fill="#F9FCFC"/>
<path d="M25.8388 72.1705C23.4816 72.7598 22.1135 71.2444 20.7665 69.7501C20.5981 69.5817 20.535 69.3923 20.6192 69.1818C20.7033 68.9082 20.977 69.0134 21.1664 69.0134C22.6607 69.0134 24.1551 69.0345 25.6494 69.0345C25.6494 69.4133 25.9651 69.4344 26.1966 69.5396C26.4702 69.6448 26.7228 69.8553 26.6176 70.15C26.3861 70.8445 26.7649 71.497 26.6597 72.1705C26.5123 72.1705 26.3861 72.1705 26.2387 72.1915C26.1124 71.9811 25.9651 71.9811 25.8388 72.1705Z" fill="#F9FCFC"/>
<path d="M32.1306 64.8882C31.5623 64.8882 30.9941 64.8882 30.4258 64.8882C30.3837 64.8251 30.3416 64.804 30.2785 64.8251C30.0259 64.1515 30.3626 63.8148 30.9309 63.6043C32.2358 64.0884 34.1932 62.2994 35.2877 63.2676C36.4663 64.6356 40.0654 62.6361 39.8549 64.8882C37.2871 64.9724 34.6983 64.9724 32.1306 64.8882Z" fill="#F9FCFC"/>
<path d="M36.2564 28.14C35.7723 29.0871 36.3406 30.0131 36.3616 30.9603C36.3826 32.5598 36.5721 34.1384 36.6563 35.738C36.6773 35.9905 36.8457 36.3483 36.5089 36.4536C35.6881 36.7903 35.1409 35.4012 34.2569 36.0116C33.857 34.0121 35.2461 32.2441 35.7512 30.413C36.1932 29.2134 35.7302 27.9295 36.0038 26.6667C36.2143 27.1718 35.8986 27.719 36.2564 28.14Z" fill="#F9FCFC"/>
<path d="M61.6816 65.8985C59.5138 69.0134 59.156 69.5607 57.2617 65.9195C58.735 65.5407 60.2083 65.5617 61.6816 65.8985Z" fill="#F9FCFC"/>
<path d="M39.8556 64.8882C40.024 62.6151 36.4881 64.6567 35.2884 63.2676C34.1939 62.2994 32.2366 64.0884 30.9316 63.6043C31.7104 62.11 36.2776 63.015 37.9193 62.8045C40.2345 62.8256 39.6662 64.2778 41.1605 64.804C40.6765 65.0987 40.2766 64.9934 39.8556 64.8882Z" fill="#BCD5F6"/>
<path d="M56.7559 48.4925C56.1035 48.3452 52.294 48.8503 52.4623 48.1768C52.1256 47.1244 59.5131 47.9032 60.6286 47.6506C60.9864 47.6506 61.1337 47.819 61.1548 48.1558C61.3442 48.8503 57.4084 48.3241 56.7559 48.4925Z" fill="#BCD5F6"/>
<path d="M16.7044 51.5864C15.168 51.7548 13.7157 51.4601 12.2845 51.7758C11.7162 51.9021 11.4005 51.3338 11.3795 50.7656C11.3584 50.0921 11.9057 50.3657 12.2003 50.3446C12.958 50.3025 13.7157 50.3236 14.4945 50.3236C15.9678 50.3446 15.9678 50.3446 16.7044 51.5864Z" fill="#BCD5F6"/>
<path d="M29.9004 53.3123C31.942 51.7127 34.173 52.4072 36.2777 52.2599C36.6986 52.1547 36.7407 52.7019 36.4039 52.8492C34.4887 53.8595 32.1314 53.0807 29.9004 53.3123Z" fill="#BCD5F6"/>
<path d="M61.2816 49.2081V49.2712C61.1132 50.3026 53.5783 49.5238 52.084 49.7553C52.2313 49.3765 52.3997 49.145 52.8417 49.145C55.662 49.166 58.4823 49.0187 61.2816 49.2081Z" fill="#BCD5F6"/>
<path d="M13.6305 47.6717C14.2619 47.84 16.3666 47.2718 16.3876 48.0926C16.5771 48.9345 12.1993 48.3241 11.4205 48.5135C11.0838 48.5135 10.8943 48.4083 10.8522 48.0505C10.6628 47.3139 13.1043 47.7979 13.6305 47.6717Z" fill="#BCD5F6"/>
<path d="M64.1871 46.9981C64.2082 46.7245 64.0819 46.4088 64.3766 46.1984C65.0922 46.3667 69.1542 45.7985 68.8385 46.6824C68.8385 47.3138 68.3545 47.0192 68.1229 47.0192C66.818 47.0402 65.5131 46.9981 64.1871 46.9981Z" fill="#BCD5F6"/>
<path d="M36.2577 28.14C35.8789 27.719 36.2156 27.1929 36.0052 26.6667C35.7316 27.9506 36.1946 29.2134 35.7526 30.4131C35.921 27.7401 34.9949 22.794 37.4364 21.0681C35.942 23.2781 36.2998 25.7406 36.2577 28.14Z" fill="#BCD5F6"/>
<path d="M12.8521 47.0402C12.1785 46.8719 10.8315 47.4612 10.6211 46.5562C10.3475 45.8406 13.7571 46.3457 14.3254 46.1984C14.7252 46.1984 15.083 46.2826 15.083 46.7035C15.083 47.2928 14.5779 46.9771 14.2833 47.0192C13.8202 47.0613 13.3361 47.0402 12.8521 47.0402Z" fill="#BCD5F6"/>
<path d="M64.166 47.6506C65.1342 47.84 68.6911 47.1876 68.7543 48.0926C68.8174 48.6609 68.3333 48.4504 68.1018 48.4714C66.7338 48.3241 65.071 49.1029 64.166 47.6506Z" fill="#BCD5F6"/>
<path d="M34.1519 35.6117C34.2782 38.3267 32.6786 40.8734 31.8788 43.4201C31.6894 43.357 31.5 43.3149 31.3105 43.4412C32.5102 40.9366 33.3311 38.2636 34.1519 35.6117Z" fill="#BCD5F6"/>
<path d="M56.7559 47.0192C56.9242 45.5038 59.2184 46.472 60.2707 46.1984C60.6917 46.1984 61.0074 46.3667 60.9863 46.7666C61.1547 47.3349 57.3873 46.8929 56.7559 47.0192Z" fill="#BCD5F6"/>
<path d="M13.7573 49.1239C14.3466 49.2712 16.4302 48.724 16.3881 49.5238C16.3671 49.9658 16.0724 49.7343 15.862 49.7343C15.0832 49.5869 11.1685 50.1131 11.1474 49.4186C11.0001 48.8082 13.2942 49.2291 13.7573 49.1239Z" fill="#BCD5F6"/>
<path d="M66.1641 44.241C66.2062 43.6938 66.4798 43.5043 66.9218 43.5043C67.49 43.6306 68.9844 43.1676 69.1317 43.8621C69.2159 44.6409 66.7744 44.0936 66.1641 44.241Z" fill="#BCD5F6"/>
<path d="M12.1792 43.5675C12.6843 43.6727 13.9471 43.2728 14.0734 43.8832C14.2418 44.8303 11.5057 44.0726 10.769 44.241C10.5375 44.2199 10.3691 44.1358 10.3691 43.8621C10.6217 43.2518 11.653 43.6727 12.1792 43.5675Z" fill="#BCD5F6"/>
<path d="M41.1396 49.2292C41.1396 49.2292 41.1606 49.2081 41.1396 49.2292C41.2869 49.3975 41.3711 49.6711 41.0765 49.6711C40.1714 49.608 37.6879 50.1342 37.3301 49.3133C38.614 48.9976 39.8768 49.0608 41.1396 49.2292Z" fill="#BCD5F6"/>
<path d="M12.5576 45.567C11.9683 45.4196 10.6634 45.9668 10.5371 45.1881C10.8318 44.5778 13.168 45.0829 13.9257 44.9145C14.2204 44.9145 14.4098 45.0408 14.4308 45.3144C14.5782 45.8406 12.9154 45.4828 12.5576 45.567Z" fill="#BCD5F6"/>
<path d="M44.6757 46.9982C44.4863 46.8929 44.5915 46.8298 44.7178 46.7877C45.1177 46.2826 47.7696 45.588 47.7486 46.7666C47.6854 47.3349 45.2439 46.8719 44.6757 46.9982Z" fill="#BCD5F6"/>
<path d="M65.2581 45.0618C65.216 45.0197 65.216 44.9776 65.2581 44.9355C65.8895 45.0618 69.0256 44.5567 69.0045 45.2091C69.0466 45.6511 68.6888 45.588 68.4152 45.588C67.6786 45.3775 65.2371 46.051 65.2581 45.0618Z" fill="#BCD5F6"/>
<path d="M46.8232 48.5767C46.318 48.282 45.3499 48.9134 45.392 48.0084C45.413 47.2928 46.297 47.7137 46.76 47.7137C47.2651 47.7137 48.2123 47.3349 48.1702 48.1978C48.1491 48.8713 47.223 48.2399 46.8232 48.5767Z" fill="#BCD5F6"/>
<path d="M65.4492 49.7343C65.4492 49.608 65.4492 49.5028 65.4492 49.3765C66.4174 48.7872 67.4276 49.3133 68.6905 49.0608C67.6171 50.3236 66.5016 49.8816 65.4492 49.7343Z" fill="#BCD5F6"/>
<path d="M42.4237 65.6669C39.435 65.7932 36.3411 65.7932 33.3945 65.5406C36.3622 65.688 39.5192 65.2039 42.4237 65.6669Z" fill="#BCD5F6"/>
<path d="M44.7811 28.6872C44.4654 28.5399 44.276 28.8345 44.0234 28.9398C44.1497 27.8874 44.3391 26.8351 44.297 25.7617C44.276 25.3618 44.3391 24.9829 44.8443 24.9198C44.9285 24.9829 44.9916 25.0671 45.0758 25.1302C44.718 26.3089 44.4444 27.4665 44.7811 28.6872Z" fill="#BCD5F6"/>
<path d="M31.709 15.9537C31.7932 15.7222 31.8774 15.5117 31.9405 15.2802C32.8245 15.2802 35.6869 15.4486 35.3922 16.8377C34.2767 16.1431 33.1191 15.4486 31.709 15.9537Z" fill="#BCD5F6"/>
<path d="M47.2425 49.7764C46.8005 49.4817 45.8745 50.1973 45.8324 49.3344C45.8113 48.9134 46.7795 49.1029 47.2846 49.145C47.7477 49.166 48.5895 48.7872 48.5895 49.4607C48.5895 50.0079 47.7266 49.5869 47.2425 49.7764Z" fill="#BCD5F6"/>
<path d="M37.7924 19.3423C36.7401 18.8582 36.0455 18.0794 35.6035 17.0481C36.2981 17.8479 37.2662 18.3951 37.7924 19.3423Z" fill="#BCD5F6"/>
<path d="M26.6577 72.1705C26.763 71.497 26.3631 70.8445 26.6157 70.15C26.7209 69.8553 26.4683 69.6448 26.1947 69.5396C25.9421 69.4344 25.6264 69.4133 25.6475 69.0345C26.5104 68.7819 26.9103 69.0976 26.8261 70.0026C26.7419 70.7182 27.1839 71.4759 26.6577 72.1705Z" fill="#BCD5F6"/>
<path d="M61.2812 37.1481C61.9548 36.2431 62.944 36.6219 63.8279 36.5588C63.0913 37.2533 62.1652 37.0849 61.2812 37.1481Z" fill="#BCD5F6"/>
<path d="M60.8605 40.5156C61.0079 39.5264 60.5659 38.4951 61.1131 37.548C61.2183 38.5583 61.4078 39.5685 60.8605 40.5156Z" fill="#BCD5F6"/>
<path d="M61.6803 65.8984C60.207 65.5617 58.7337 65.5406 57.2604 65.9195C56.2502 65.0566 61.0489 65.6459 61.533 65.4986C61.8487 65.4986 62.0171 65.6038 61.6803 65.8984Z" fill="#BCD5F6"/>
<path d="M63.9766 36.4746C64.0818 35.5907 64.7974 35.738 65.3657 35.6538C65.9129 35.5696 65.8287 35.9905 65.8708 36.3063C65.2183 36.0747 64.608 36.2431 63.9766 36.4746Z" fill="#BCD5F6"/>
<path d="M39.8351 37.3165C39.793 38.2005 38.7617 38.4741 38.5933 39.2949C37.6673 38.5162 39.3931 37.9058 39.8351 37.3165Z" fill="#BCD5F6"/>
<path d="M24.281 7.07184C23.9021 7.91372 23.5022 8.75561 22.3867 8.75561C22.9129 8.0821 23.5654 7.55592 24.281 7.07184Z" fill="#BCD5F6"/>
<path d="M27.5017 74.2752C27.1229 73.6859 26.9124 72.9282 25.9863 72.9913C27.2702 72.5072 27.4386 72.6546 27.5017 74.2752Z" fill="#BCD5F6"/>
<path d="M26.8906 40.1158C27.3326 40.7682 27.2695 41.4838 27.1432 42.2205C27.08 41.5049 26.9748 40.8103 26.8906 40.1158Z" fill="#BCD5F6"/>
<path d="M58.062 9.68165C57.3043 9.76584 56.9675 9.42908 57.0517 8.67139C57.5147 8.88186 57.7883 9.28175 58.062 9.68165Z" fill="#BCD5F6"/>
<path d="M16.3881 16.3746C16.1776 16.8377 16.8722 17.8269 15.6094 17.7006C15.8198 17.2165 15.9882 16.7324 16.3881 16.3746Z" fill="#BCD5F6"/>
<path d="M45.7277 23.9095C45.6856 24.2884 45.8751 24.5409 46.1697 24.7514C45.7909 24.8145 45.391 24.8356 45.0753 25.1302C44.9911 25.0671 44.9279 24.9829 44.8438 24.9198C45.1384 24.583 45.4331 24.2463 45.7277 23.9095Z" fill="#BCD5F6"/>
<path d="M17.5865 14.4594C17.5233 15.0276 17.6706 15.7222 16.7656 15.7222C16.9761 15.2381 17.2076 14.8172 17.5865 14.4594Z" fill="#BCD5F6"/>
<path d="M30.8264 3.13602C30.5738 3.74638 30.2371 4.16733 29.5215 3.72534C29.9214 3.43068 30.3423 3.19916 30.8264 3.13602Z" fill="#BCD5F6"/>
<path d="M26.8488 5.21967C26.933 5.99841 26.5331 6.0405 25.9648 5.80898C26.1964 5.53537 26.491 5.3249 26.8488 5.21967Z" fill="#BCD5F6"/>
<path d="M18.4719 13.2176C18.4509 13.6806 18.6192 14.2699 17.7773 14.1647C17.9247 13.7858 18.1562 13.4701 18.4719 13.2176Z" fill="#BCD5F6"/>
<path d="M28.9757 3.99893C28.9757 4.84082 28.3443 4.5672 27.9023 4.58825C28.197 4.29359 28.5548 4.10417 28.9757 3.99893Z" fill="#BCD5F6"/>
<path d="M50.1484 49.2923C50.6746 48.9555 51.2639 49.1239 51.8322 49.1029C51.306 49.4396 50.7167 49.2923 50.1484 49.2923Z" fill="#BCD5F6"/>
<path d="M48.7168 48.282C49.3061 48.4293 49.0325 49.0397 49.3061 49.3344C48.7378 49.187 48.8431 48.6609 48.7168 48.282Z" fill="#BCD5F6"/>
<path d="M51.8311 49.1239C51.8732 48.5767 51.6837 47.9874 51.9994 47.4612C52.0626 48.0294 52.2099 48.5977 51.8311 49.1239Z" fill="#BCD5F6"/>
<path d="M31.9205 65.5406C31.3944 65.8353 30.805 65.6459 30.2578 65.688C30.7629 65.2881 31.3523 65.5406 31.9205 65.5406Z" fill="#BCD5F6"/>
<path d="M20.7241 10.4604C20.8293 10.9445 20.6399 11.176 20.1348 11.1129C20.261 10.8182 20.4505 10.5867 20.7241 10.4604Z" fill="#BCD5F6"/>
<path d="M20.1349 11.1129C20.1349 11.4286 20.156 11.7653 19.6719 11.6811C19.735 11.4075 19.9034 11.2391 20.1349 11.1129Z" fill="#BCD5F6"/>
<path d="M21.6501 9.47118C21.608 9.76584 21.5028 9.99736 21.166 9.99736C21.2292 9.74479 21.2502 9.42909 21.6501 9.47118Z" fill="#BCD5F6"/>
<path d="M25.3545 6.25098C25.3966 6.71401 25.0809 6.71401 24.7441 6.69297C24.8704 6.46145 25.0809 6.29307 25.3545 6.25098Z" fill="#BCD5F6"/>
<path d="M40.2549 36.8955C40.297 37.2112 40.1286 37.3375 39.834 37.3165C39.8971 37.085 40.0234 36.9376 40.2549 36.8955Z" fill="#BCD5F6"/>
<path d="M44.0234 28.9397C44.0865 29.2554 44.1497 29.5501 43.8761 29.8027C43.8761 29.508 43.8129 29.1923 44.0234 28.9397Z" fill="#BCD5F6"/>
<path d="M22.2827 8.86084C22.2617 9.1134 22.1354 9.23969 21.8828 9.23969C21.946 9.05026 22.0722 8.92398 22.2827 8.86084Z" fill="#BCD5F6"/>
<path d="M17.1035 64.6356C17.1667 64.6988 17.2298 64.7829 17.2719 64.8461C17.0404 64.9092 17.1667 64.6988 17.1035 64.6356Z" fill="#BCD5F6"/>
<path d="M18.5137 64.8882C18.661 64.7829 18.8083 64.7829 18.9557 64.8882C18.8083 64.9724 18.661 65.0144 18.5137 64.8882Z" fill="#BCD5F6"/>
<path d="M32.7432 65.5406C32.5959 65.709 32.4696 65.7301 32.3223 65.5406C32.4696 65.5406 32.6169 65.5406 32.7432 65.5406Z" fill="#BCD5F6"/>
<path d="M25.8379 72.1705C25.9642 71.9811 26.1115 71.9811 26.2378 72.1705C26.1115 72.1705 25.9642 72.1705 25.8379 72.1705Z" fill="#BCD5F6"/>
<path d="M27.8999 4.58826C27.8368 4.77768 27.6894 4.86187 27.5 4.81978C27.5842 4.6514 27.7105 4.58826 27.8999 4.58826Z" fill="#BCD5F6"/>
<path d="M44.8848 47.7769V47.7348C44.9479 47.7348 45.011 47.7348 45.0742 47.7348C44.99 47.7559 44.9269 47.7559 44.8848 47.7769Z" fill="#BCD5F6"/>
<path d="M65.8926 36.3273C65.9347 36.4115 65.9978 36.4746 66.0399 36.5588C65.9978 36.4746 65.9347 36.3904 65.8926 36.3273Z" fill="#BCD5F6"/>
<path d="M17.7548 14.2068C17.7968 14.3331 17.7548 14.4173 17.6074 14.4383C17.6495 14.3752 17.6916 14.291 17.7548 14.2068Z" fill="#BCD5F6"/>
<path d="M19.2929 12.1231C19.2298 12.2073 19.1667 12.2915 19.1035 12.3757C19.1667 12.2705 19.2298 12.2073 19.2929 12.1231Z" fill="#BCD5F6"/>
<path d="M19.6714 11.7022C19.6925 11.8495 19.6083 11.9337 19.4609 11.9337C19.5241 11.8495 19.5872 11.7653 19.6714 11.7022Z" fill="#BCD5F6"/>
<path d="M30.2793 64.8461C30.3424 64.825 30.4056 64.8461 30.4266 64.9092C30.3214 65.0145 30.3003 64.9513 30.2793 64.8461Z" fill="#BCD5F6"/>
<path d="M32.1309 64.8882C32.194 64.8882 32.2361 64.8882 32.2992 64.8882L32.215 64.9303L32.1309 64.8882Z" fill="#BCD5F6"/>
<path d="M20.914 10.2289C20.9351 10.3762 20.8719 10.4394 20.7246 10.4394C20.8088 10.3762 20.8719 10.3131 20.914 10.2289Z" fill="#BCD5F6"/>
<path d="M21.125 10.0395C21.146 10.1868 21.0829 10.2289 20.9355 10.2289C20.9987 10.1447 21.0618 10.0816 21.125 10.0395Z" fill="#BCD5F6"/>
<path d="M32.3223 66.2773C32.4065 66.172 32.4696 66.1931 32.5327 66.3194C32.4696 66.2983 32.4065 66.2773 32.3223 66.2773Z" fill="#BCD5F6"/>
<path d="M24.5343 6.88239C24.5132 7.02972 24.4501 7.09286 24.3027 7.07181C24.3869 7.00867 24.4501 6.94553 24.5343 6.88239Z" fill="#BCD5F6"/>
<path d="M25.6085 6.08261C25.5664 6.20889 25.5032 6.27204 25.377 6.25099C25.4401 6.18785 25.5243 6.14575 25.6085 6.08261Z" fill="#BCD5F6"/>
<path d="M27.0811 5.07236C26.9969 5.1355 26.9127 5.17759 26.8496 5.24073C26.9338 5.17759 27.018 5.11445 27.0811 5.07236Z" fill="#BCD5F6"/>
<path d="M27.5017 4.81976C27.4386 4.94605 27.3544 5.00919 27.207 4.96709C27.3123 4.925 27.3965 4.8829 27.5017 4.81976Z" fill="#BCD5F6"/>
<path d="M45.0746 25.1302C46.8847 23.5517 50.2733 27.0665 47.9791 28.3504C46.9689 28.8135 45.8955 29.1502 44.78 28.6872C44.4432 27.4664 44.7168 26.3088 45.0746 25.1302Z" fill="#004FA9"/>
<path d="M28.5537 52.6598C28.4695 51.9653 27.9012 52.2599 27.5645 52.2599C25.1019 52.2389 22.6394 52.2599 20.1559 52.2599C19.9244 51.418 20.1138 50.5762 20.1559 49.7343C22.1133 49.7343 24.0706 49.7343 26.028 49.7343C26.028 49.629 26.0491 49.5238 26.0491 49.4186C24.1969 48.7451 22.2395 49.3133 20.3453 49.1029C21.0609 48.1768 21.6081 47.2718 21.2082 46.0089C21.124 45.7143 21.5239 45.6722 21.7134 45.588C23.2288 44.8934 23.9233 45.2091 24.9967 47.0192C24.9967 47.4612 25.0809 47.8611 24.3442 47.6927C23.3129 47.7138 21.5239 47.1455 21.3977 48.6609C22.8289 48.6819 24.218 48.7661 25.565 48.3452C25.8807 48.9976 26.1753 49.5238 27.1225 49.0187C27.7749 48.6609 28.9957 49.608 29.0167 50.3867C29.0377 51.0181 28.9957 51.6496 28.9957 52.2599C28.9957 52.5546 28.8694 52.723 28.5537 52.6598ZM24.4916 51.6285C25.2703 51.4391 28.9536 52.1547 28.5958 51.0392C28.5747 50.5762 28.5747 50.3446 28.0275 50.3446C25.7123 50.3657 23.4182 50.3657 21.103 50.3446C20.661 50.3446 20.4926 50.492 20.4926 50.955C20.3032 52.2389 23.6076 51.397 24.4916 51.6285ZM22.913 47.0402C23.2288 46.9771 24.3653 47.2297 24.3232 46.8087C24.3442 45.8827 22.9972 46.2615 22.3869 46.2194C22.0922 46.2405 21.6081 45.9879 21.6081 46.5983C21.6502 47.2928 22.4711 46.9561 22.913 47.0402Z" fill="#004FA9"/>
<path d="M41.1396 49.2292C39.8768 49.0608 38.5929 48.9976 37.3301 49.3344C37.6247 48.261 38.193 47.356 39.0349 46.6193L39.0138 46.5983C39.3716 47.4402 39.982 46.9771 40.5292 46.914C40.6134 47.1034 40.6976 47.2718 40.7818 47.4612C40.0241 48.1979 38.3614 46.9771 38.2772 48.5136C39.2454 48.5136 40.1714 48.5136 41.1185 48.5136C41.1606 48.7451 41.3711 48.9766 41.1396 49.2292Z" fill="#004FA9"/>
<path d="M25.5638 48.3452C24.2168 48.7451 22.8277 48.6819 21.3965 48.6609C21.5228 47.1455 23.3118 47.7138 24.3431 47.6927C25.0797 47.8611 24.9955 47.4612 24.9955 47.0192C25.4796 47.3349 25.2481 47.9663 25.5638 48.3452Z" fill="#BCD5F6"/>
<path d="M20.3647 49.1239C22.2589 49.3133 24.2163 48.745 26.0684 49.4396C26.0684 49.5448 26.0474 49.6501 26.0474 49.7553C24.09 49.7553 22.1326 49.7553 20.1752 49.7553C20.2173 49.5238 19.7964 49.166 20.3647 49.1239Z" fill="#BCD5F6"/>
<path d="M41.1402 48.4925C40.2141 48.4925 39.267 48.4925 38.2988 48.4925C38.362 46.956 40.0457 48.1768 40.8034 47.4401C40.9718 47.7558 41.2033 48.0926 41.1402 48.4925Z" fill="#BCD5F6"/>
<path d="M39.0566 46.5983C39.1198 44.9355 40.551 45.6722 40.551 46.914C40.0669 46.6193 39.6881 45.9248 39.0566 46.5983Z" fill="#004FA9"/>
<path d="M39.0352 46.5772C39.7087 45.9247 40.0875 46.6193 40.5505 46.8929V46.8719C40.0033 46.9561 39.3719 47.4401 39.0352 46.5772Z" fill="#BCD5F6"/>
<path d="M24.4909 51.6285C23.607 51.397 20.2815 52.2389 20.492 50.955C20.492 50.492 20.6604 50.3446 21.1023 50.3446C23.4175 50.3657 25.7117 50.3657 28.0268 50.3446C28.5741 50.3446 28.5741 50.5762 28.5951 51.0392C28.974 52.1547 25.2486 51.4391 24.4909 51.6285Z" fill="#BCD5F6"/>
<path d="M22.9123 47.0402C22.4704 46.956 21.6495 47.2928 21.6074 46.5983C21.6074 46.0089 22.0915 46.2405 22.3862 46.2194C22.9965 46.2615 24.3435 45.8827 24.3225 46.8087C24.3856 47.2297 23.228 46.9771 22.9123 47.0402Z" fill="#BCD5F6"/>
</g>
<defs>
<clipPath id="clip0_2491:55306">
<rect width="80" height="80" fill="white"/>
</clipPath>
</defs>
</svg>
