<svg width="80" height="80" viewBox="0 0 80 80" fill="none" xmlns="http://www.w3.org/2000/svg">
<path d="M13 0V51.4286C13 60.5042 17.5938 68.3473 26.2213 74.0616C32.7199 78.3193 39.1064 79.888 39.3305 79.888L39.5546 80L39.7787 79.888C40.0028 79.7759 46.5014 78.3193 53 74.0616C61.7395 68.3473 66.4454 60.5042 66.4454 51.4286V0H13Z" fill="white"/>
<path d="M42.0194 45.7143C41.5713 45.7143 41.2351 45.4902 41.1231 45.042C41.1231 44.5938 41.3472 44.2577 41.7953 44.1457C42.2435 44.1457 42.5797 44.3697 42.6917 44.8179C42.8037 45.2661 42.4676 45.6022 42.0194 45.7143ZM57.0334 49.972C58.1539 34.6218 42.2435 35.2941 40.4508 44.8179C39.5544 49.4118 42.9158 52.2129 42.9158 52.2129C44.4844 45.2661 49.6385 43.2493 53.2239 44.8179C59.1623 47.395 52.9998 60.9524 54.3444 58.0392C58.6021 49.5238 63.1959 51.8767 63.1959 51.8767C61.6273 49.0756 57.0334 50.5322 57.0334 49.972Z" fill="#034DA1"/>
<path d="M32.944 49.1877C33.3922 49.1877 33.7283 49.4118 33.8403 49.8599C33.8403 50.3081 33.6162 50.6443 33.1681 50.7563C32.7199 50.7563 32.3838 50.5322 32.2717 50.084C32.1597 49.6359 32.4958 49.1877 32.944 49.1877ZM39.6667 77.6471C36.9776 76.9748 15.2409 70.4762 15.2409 51.4286V28.6835C16.0252 28.3473 16.9216 28.0112 18.042 28.0112C19.9468 28.0112 21.2913 28.9076 22.4118 29.6919C23.4202 30.3641 24.2045 30.8123 25.2129 30.8123C26.3333 30.8123 27.1176 30.2521 28.014 29.6919C29.1345 28.9076 30.3669 28.0112 32.2717 28.0112C34.2885 28.0112 35.521 28.9076 36.6415 29.6919C37.3137 30.1401 37.7619 30.4762 38.4342 30.7003C37.874 32.605 38.4342 34.958 38.098 34.8459C22.7479 33.7255 23.4202 49.6359 32.944 51.4286C37.5378 52.3249 40.3389 48.9636 40.3389 48.9636C33.3922 47.395 31.3754 42.2409 32.944 38.6555C35.521 32.7171 49.0784 38.8796 46.1653 37.535C41.3473 35.1821 40.0028 32.605 39.7787 30.9244C40.7871 30.9244 41.5714 30.3641 42.5798 29.8039C43.7003 29.0196 45.0448 28.1232 46.9496 28.1232C48.8543 28.1232 50.1989 29.0196 51.3193 29.8039C52.3277 30.4762 53.112 31.0364 54.2325 31.0364C55.3529 31.0364 56.0252 30.4762 57.0336 29.916C58.1541 29.1317 59.4986 28.2353 61.4034 28.2353C62.6359 28.2353 63.6443 28.5714 64.4286 29.0196V51.5406C64.3165 70.4762 42.2437 76.9748 39.6667 77.6471ZM54.9048 15.6863C55.577 16.3585 56.0252 16.5826 56.6975 17.1429C57.2577 17.591 57.5938 17.8151 58.042 18.2633C58.7143 18.9356 59.8347 19.2717 59.7227 20.1681C59.6106 21.4006 57.8179 19.1597 56.6975 18.5994C55.9132 18.2633 55.465 18.1513 54.7927 17.7031C54.0084 17.1429 54.1205 16.3585 53.2241 16.0224C52.5518 15.7983 51.9916 18.9356 51.3193 18.5994C50.6471 18.2633 50.7591 17.591 50.1989 17.1429C49.3025 16.4706 47.958 16.9188 47.2857 16.8067C47.0616 18.1513 48.1821 18.5994 47.958 19.4958C45.9412 18.0392 42.5798 18.3753 41.3473 16.2465C41.0112 15.5742 39.6667 17.9272 39.1064 18.4874C38.4342 18.0392 39.1064 16.8067 38.3221 16.5826C38.3221 16.5826 37.4258 17.8151 36.6415 18.4874C35.8571 19.2717 33.9524 21.1765 34.2885 20.1681C34.7367 18.9356 35.6331 16.5826 34.5126 15.9104L31.2633 19.1597C30.479 18.4874 30.2549 18.2633 29.4706 18.1513C28.1261 17.9272 27.0056 20.1681 26.2213 19.1597C25.8852 18.7115 25.8852 18.3753 25.9972 17.9272C25.9972 16.6947 27.902 16.4706 27.902 15.2381C27.902 15.2381 24.8768 17.3669 22.7479 17.1429C22.2997 17.1429 21.9636 16.9188 21.5154 16.9188C19.4986 16.5826 17.3697 17.479 16.2493 17.7031C15.577 17.7031 15.3529 18.2633 15.1289 18.7115V13.3333L34.5126 6.61064C35.1849 6.83473 35.521 7.05882 35.8571 7.17087C36.5294 7.507 36.7535 7.61905 37.6499 7.73109H37.7619C39.5546 8.06723 40.7871 8.29132 42.4678 7.61905C42.8039 7.507 43.028 7.17087 43.2521 6.94678C43.5882 6.4986 43.8123 6.16246 44.3726 6.38655L64.2045 13.1092V18.2633C63.8684 18.1513 63.4202 17.9272 62.972 17.8151C62.0756 17.3669 61.7395 16.8067 60.8431 16.2465C59.6106 15.5742 58.8263 15.3501 57.4818 15.126C56.6975 15.014 56.2493 15.126 55.577 15.014C54.6807 14.7899 53.8964 13.5574 53.4482 14.2297C53.2241 14.7899 54.3445 15.126 54.9048 15.6863ZM13 0V51.4286C13 60.5042 17.5938 68.3473 26.2213 74.0616C32.7199 78.3193 39.1064 79.888 39.3305 79.888L39.5546 80L39.7787 79.888C40.0028 79.7759 46.5014 78.3193 53 74.0616C61.7395 68.3473 66.4454 60.5042 66.4454 51.4286V0H13Z" fill="#034DA1"/>
<path d="M47.0608 54.7899C46.6126 54.7899 46.2765 54.5658 46.1645 54.1176C46.1645 53.6695 46.3886 53.3333 46.8367 53.2213C47.2849 53.1092 47.6211 53.4454 47.7331 53.8935C47.8451 54.3417 47.509 54.7899 47.0608 54.7899ZM47.0608 52.549C42.467 51.6527 39.6659 55.014 39.6659 55.014C46.6126 56.5826 48.6295 61.7367 47.0608 65.3221C44.4838 71.2605 30.9264 65.098 33.8395 66.4426C42.3549 70.7003 40.002 75.2941 40.002 75.2941C42.6911 73.6134 41.2345 69.0196 41.7947 69.0196C57.369 70.14 56.5846 54.3417 47.0608 52.549Z" fill="#034DA1"/>
<path d="M37.9865 59.832C37.5383 59.832 37.2022 59.6079 37.0901 59.1597C37.0901 58.7115 37.3142 58.3754 37.7624 58.2633C38.2106 58.2633 38.5467 58.4874 38.6588 58.9356C38.7708 59.3838 38.4347 59.832 37.9865 59.832ZM36.866 51.6527C35.2974 58.5995 30.1434 60.6163 26.5579 59.0476C20.6196 56.4706 26.782 42.9132 25.4375 45.8264C21.1798 54.3418 16.5859 51.9888 16.5859 51.9888C18.2666 54.6779 22.8604 53.2213 22.8604 53.7815C21.74 69.1317 37.6504 68.4594 39.4431 58.9356C40.2274 54.4538 36.866 51.6527 36.866 51.6527Z" fill="#034DA1"/>
</svg>
