<svg width="80" height="80" viewBox="0 0 80 80" fill="none" xmlns="http://www.w3.org/2000/svg">
<g clip-path="url(#clip0_2491:55350)">
<path d="M39.5261 79.6802C35.7953 76.1625 10.2656 64.6502 10.2656 48.5543C10.2656 33.6842 10.2656 0.319763 10.2656 0.319763H68.8399C68.8399 0.319763 68.8399 33.7375 68.8399 48.5543C68.8399 64.5969 43.3103 76.1092 39.5261 79.6802Z" fill="white"/>
<path d="M44.2172 20.0933V60.0133L15.1166 60.2798H14.477C12.8248 58.0946 11.4923 55.7495 10.7462 53.2978C10.6929 53.0846 10.6396 52.9247 10.5863 52.7115C10.533 52.5517 10.4797 52.3385 10.4264 52.1253C10.1599 51.006 10 49.7802 10 48.501V30.8594L10.533 30.3265L29.1872 12.1519V33.3644L44.2172 20.0933Z" fill="url(#paint0_linear_2491:55350)"/>
<path d="M39.5261 79.6802C35.7953 76.1625 10.2656 64.6502 10.2656 48.5543C10.2656 33.6842 10.2656 0.319763 10.2656 0.319763H68.8399C68.8399 0.319763 68.8399 33.7375 68.8399 48.5543C68.8399 64.5969 43.3103 76.1092 39.5261 79.6802Z" stroke="#0B3673" stroke-miterlimit="10"/>
<path d="M44.2175 18.1213L34.7305 26.7022V6.82214L29.1875 12.2052V33.3644L44.2175 20.0933V60.0133L50.1335 58.2012V18.1213H44.2175Z" fill="#0B3673"/>
<path d="M68.6272 52.2852C68.5206 52.6582 68.4141 53.0313 68.3075 53.4044C67.7745 55.0566 67.0283 56.6023 66.1222 58.1479C65.9624 58.4677 65.7492 58.7342 65.536 59.054C65.3761 59.3205 65.2162 59.5337 65.003 59.8001C63.5639 61.8255 61.8051 63.7442 59.8864 65.503C59.7265 65.6096 59.6199 65.7695 59.46 65.8761C59.3534 65.9827 59.1935 66.0893 59.0869 66.1959C54.2368 70.5663 48.5873 74.0307 44.5899 76.5357C42.2981 77.9747 40.486 79.094 39.6865 79.8401L39.5266 80L39.3667 79.8401C38.5673 79.094 36.7552 77.9747 34.4634 76.5357C31.0523 74.4038 26.522 71.579 22.2582 68.1679C22.1516 68.0613 22.045 68.008 21.9384 67.9014C21.8318 67.7948 21.7252 67.7415 21.6186 67.6349C20.446 66.6223 19.2735 65.6096 18.1542 64.4904C18.0476 64.3838 17.941 64.2772 17.8877 64.2239C17.7811 64.1173 17.6745 64.0107 17.5679 63.9041C14.4767 60.7595 11.9717 57.1886 10.7458 53.3511C10.6925 53.1379 10.6392 52.978 10.5859 52.7648C10.8524 53.0846 11.1189 53.3511 11.3854 53.6176C14.3168 56.549 17.7811 58.1479 21.9917 58.521C29.4534 59.1606 34.1969 53.0313 34.1969 53.0313C37.7678 57.2952 38.7272 58.1479 44.2169 58.3611C49.7598 58.521 53.1709 53.2978 53.1709 53.2978C53.1709 53.2978 55.4094 57.988 61.3254 57.7215C63.9903 57.6149 66.0689 56.1226 67.5613 54.044C67.9344 53.511 68.3075 52.9247 68.6272 52.2852Z" fill="#6FBAD2"/>
<path d="M67.8808 53.1379C66.4951 55.4297 64.4165 57.3484 61.3252 57.455C55.6756 57.6682 53.4904 53.3511 53.3838 53.1379L53.1706 52.7648L52.9041 53.1912C52.8508 53.2445 49.5464 58.3078 44.2166 58.0946C38.7802 57.8814 37.9274 57.082 34.3565 52.8714L34.1433 52.6049L33.9834 52.8714C33.9301 52.9247 29.1866 58.9474 21.9914 58.3078C17.7276 57.9347 14.1566 56.2292 11.2252 53.0846C10.9588 52.8181 10.6923 52.4984 10.4258 52.1786C10.4791 52.3918 10.5324 52.5516 10.5857 52.7648C10.639 52.978 10.6923 53.1912 10.7456 53.3511C11.0121 53.6709 11.3318 53.9374 11.5983 54.2039C14.4764 56.9754 17.8875 58.4677 21.9381 58.7875C28.547 59.3738 33.1839 54.577 34.1966 53.4044C37.661 57.5083 38.6736 58.3611 44.2166 58.5743C48.9601 58.7342 52.2113 54.95 53.1173 53.7242C53.8102 54.8435 56.3152 58.2012 61.3252 57.9347C63.8302 57.8281 65.7489 56.6023 67.1346 54.95C67.561 54.4704 67.9341 53.8841 68.3072 53.2978C68.4138 52.9247 68.5204 52.5516 68.627 52.1786C68.7336 51.8055 68.7869 51.4857 68.8402 51.1126C68.5737 51.8588 68.2539 52.4983 67.8808 53.1379Z" fill="#0B3673"/>
<path d="M65.5896 59.0007C65.4297 59.2671 65.2699 59.4803 65.0567 59.7468C63.6176 61.7721 61.8588 63.6909 59.9401 65.4497C59.7802 65.5563 59.6736 65.7162 59.5137 65.8228C59.4071 65.9294 59.2472 66.036 59.1406 66.1426C54.2905 70.513 48.6409 73.9773 44.6436 76.4823C42.3518 77.9214 40.5397 79.0406 39.7402 79.7868L39.5803 79.9467L39.4204 79.7868C38.621 79.0406 36.8088 77.9214 34.517 76.4823C31.106 74.3504 26.5757 71.5256 22.3118 68.1146C22.2052 68.008 22.0986 67.9547 21.992 67.8481C21.8854 67.7415 21.7788 67.6882 21.6723 67.5816C20.4997 66.5689 19.3271 65.5563 18.2079 64.437C18.1013 64.3304 17.9947 64.2238 17.9414 64.1705C18.2079 64.2238 18.4744 64.2238 18.7942 64.2771C25.2965 64.9167 37.6616 64.7035 42.8848 55.2698C42.8848 55.2698 45.603 65.6096 56.3158 59.3204C56.3158 59.3204 59.6736 62.7848 64.3105 59.96C64.6303 59.6935 65.11 59.3737 65.5896 59.0007Z" fill="#B9F4F7"/>
<path d="M64.6842 59.3738C63.405 60.2798 62.1259 60.8128 60.7934 60.8661C58.1818 60.9727 56.423 59.2139 56.3697 59.2139L56.2098 59.054L56.0499 59.1606C52.6922 61.1326 49.8141 61.6656 47.469 60.7062C44.1112 59.3205 43.0453 55.3231 42.992 55.2698L42.8321 54.6302L42.5123 55.2165C37.2891 64.5969 24.7108 64.6502 18.3684 64.0107C18.0486 63.9574 17.7821 63.9574 17.5156 63.9041C17.6222 64.0107 17.7288 64.1173 17.8354 64.2238C17.942 64.3304 18.0486 64.437 18.1019 64.4903C18.3684 64.5436 18.6349 64.5436 18.9547 64.5436C25.5103 65.1299 37.3424 64.7568 42.6722 55.9094C43.0986 57.1352 44.431 59.96 47.2558 61.1326C49.7075 62.1452 52.6922 61.6656 56.1565 59.6935C56.6895 60.1199 58.3417 61.5057 60.7934 61.3991C61.8061 61.3458 62.8188 61.0793 63.7781 60.5463C64.2045 60.3331 64.6309 60.0666 65.0573 59.7468C65.2172 59.4803 65.4303 59.2672 65.5902 59.0007C65.8034 58.6809 65.9633 58.4144 66.1765 58.0946C65.6435 58.5743 65.1639 59.0007 64.6842 59.3738Z" fill="#0B3673"/>
<path d="M59.5138 65.8761C59.4072 65.9827 59.2473 66.0893 59.1408 66.1959C54.2907 70.5663 48.6411 74.0307 44.6438 76.5357C42.3519 77.9747 40.5398 79.094 39.7404 79.8401L39.5805 80L39.4206 79.8401C38.6211 79.094 36.809 77.9747 34.5172 76.5357C31.1061 74.4037 26.5758 71.579 22.312 68.1679C22.2054 68.0613 22.0988 68.008 21.9922 67.9014C22.2587 67.9014 22.5785 67.9014 22.845 67.9014C35.5298 67.9547 38.9942 64.064 38.9942 64.064C44.324 69.9267 50.6131 64.064 50.6131 64.064C50.6131 64.064 53.7577 66.7289 58.5545 66.036C58.821 65.9827 59.1941 65.9294 59.5138 65.8761Z" fill="#6FBAD2"/>
<path d="M58.8743 65.7162C54.0242 66.569 50.773 63.9041 50.7197 63.8508L50.5598 63.6909L50.4 63.8508C50.4 63.8508 47.4686 66.5157 44.0575 66.3558C42.2454 66.2492 40.5932 65.4497 39.1541 63.8508L38.9409 63.6376L38.7277 63.8508C38.6744 63.9041 35.1035 67.6882 22.4719 67.5816C22.2054 67.5816 21.8856 67.5816 21.6191 67.5816C21.7257 67.6882 21.8323 67.7415 21.9389 67.8481C22.0455 67.9547 22.1521 68.008 22.2587 68.1146C22.5252 68.1146 22.845 68.1146 23.1115 68.1146C33.9842 68.1146 37.9816 65.1832 38.8876 64.3837C40.38 65.9294 42.0855 66.7821 43.9509 66.8887C47.1488 67.0486 49.8137 64.97 50.5066 64.3837C51.2527 64.9167 54.0775 66.7288 58.0748 66.3025C58.3946 66.2492 58.7144 66.2492 59.0342 66.1426C59.1408 66.036 59.3007 65.9294 59.4073 65.8228C59.5672 65.7162 59.6738 65.5563 59.8337 65.4497C59.5672 65.5563 59.2474 65.6096 58.8743 65.7162Z" fill="#0B3673"/>
<path d="M39.527 80L39.3671 79.8401C38.5676 79.0939 36.7555 77.9747 34.4637 76.5356C25.936 71.2059 10 61.2925 10 48.501V0H69.1073V48.501C69.1073 61.2925 53.1712 71.2059 44.6436 76.5356C42.3518 77.9747 40.5396 79.0939 39.7402 79.8401L39.527 80ZM10.533 0.532978V48.501C10.533 60.9727 26.3091 70.7795 34.7302 76.056C36.9154 77.3884 38.6209 78.5077 39.527 79.2538C40.433 78.5077 42.1919 77.3884 44.3238 76.056C52.7981 70.7795 68.521 60.9727 68.521 48.501V0.532978H10.533Z" fill="#0B3673"/>
</g>
<defs>
<linearGradient id="paint0_linear_2491:55350" x1="10.001" y1="36.2482" x2="44.2289" y2="36.2482" gradientUnits="userSpaceOnUse">
<stop stop-color="white"/>
<stop offset="1" stop-color="#86AFCF"/>
</linearGradient>
<clipPath id="clip0_2491:55350">
<rect width="80" height="80" fill="white"/>
</clipPath>
</defs>
</svg>
