<svg width="80" height="80" viewBox="0 0 80 80" fill="none" xmlns="http://www.w3.org/2000/svg">
<path d="M39.9057 0.0943396C39.8113 0.0943396 39.717 0.0943396 39.717 0C39.717 0 39.6226 0 39.5283 0.0943396C25.566 5.09434 21.3208 6.50943 10 10.4717C10 14.3396 10 25.0943 10 37.9245V40.566C10 40.6604 10 40.6604 10.0943 40.6604C11.0377 61.6981 23.1132 80 39.1509 80C39.3396 80 39.6226 80 39.8113 80C40 80 40.1887 80 40.4717 80C56.5094 80 68.4906 61.6981 69.5283 40.6604C69.5283 40.6604 69.6226 40.6604 69.6226 40.566V37.9245C69.6226 25.1887 69.6226 14.3396 69.6226 10.4717C58.1132 6.50943 53.8679 5.09434 39.9057 0.0943396Z" fill="#002E6D"/>
<path d="M39.9997 3.20756C39.9054 3.20756 39.811 3.20756 39.811 3.11322C39.811 3.11322 39.7167 3.11322 39.6223 3.20756C26.7922 7.73586 22.9242 9.05662 12.5469 12.7359C12.5469 16.2264 12.5469 26.1321 12.5469 37.8302V40.283C12.5469 40.3774 12.5469 40.3774 12.5469 40.3774C13.4903 59.717 24.528 76.4151 39.245 76.4151C39.4337 76.4151 39.6223 76.4151 39.811 76.4151C39.9997 76.4151 40.1884 76.4151 40.3771 76.4151C55.094 76.4151 66.1318 59.6227 66.9808 40.3774C66.9808 40.3774 67.0752 40.3774 67.0752 40.283V37.8302C67.0752 26.1321 67.0752 16.2264 67.0752 12.7359C56.6035 9.05662 52.7355 7.73586 39.9997 3.20756Z" fill="white"/>
<path d="M39.717 5.84906L15 14.1509V31.6981L28.6792 31.8868L30 60.3774C30 60.3774 33.5849 62.3585 39.8113 62.6415H39.9057C46.1321 62.3585 49.6226 60.3774 49.6226 60.3774L50.8491 31.8868L64.434 31.6981V14.1509L39.717 5.84906Z" fill="#002E6D"/>
<path d="M39.7164 65.283C35.2824 65.283 30.0938 63.3019 30.0938 63.3019L30.4711 71.6038C30.4711 71.6038 32.2636 72.3585 33.773 72.8302C35.0938 73.3019 37.0749 74.0566 39.7164 74.1509C42.2636 73.9623 44.2447 73.2075 45.5655 72.8302C46.9805 72.3585 48.8673 71.6038 48.8673 71.6038L49.2447 63.3019C49.2447 63.3962 44.1504 65.283 39.7164 65.283Z" fill="#002E6D"/>
<path d="M49.434 42.5472C49.434 47.9245 45.0943 52.2642 39.717 52.2642C34.3396 52.2642 30 47.9245 30 42.5472C30 37.1698 34.3396 32.8302 39.717 32.8302C45.0943 32.8302 49.434 37.2642 49.434 42.5472Z" fill="white"/>
<path d="M63.1134 26.9811H16.2266C16.2266 26.3208 16.4152 25.5661 16.6039 24.9057C16.7926 24.2453 17.0756 23.5849 17.3586 23.0189C17.9247 21.8868 18.3964 20.8491 19.5284 20.1887C20.7549 19.3396 22.5473 18.5849 24.0568 18.5849C24.8115 18.5849 25.5662 18.5849 26.2266 18.5849C26.8869 18.6793 27.453 18.7736 28.1134 18.8679C28.6794 19.0566 29.2454 19.151 29.8115 19.3396C30.1888 19.434 30.6605 19.6227 31.0379 19.717C32.3586 20.0944 34.2454 20.7547 36.1322 20.7547C37.8303 20.7547 39.2454 20.0944 40.7549 19.5283C41.2266 19.3396 41.6039 19.151 41.9813 18.9623C42.3586 18.7736 42.8303 18.5849 43.2077 18.3962C44.0568 18.0189 44.9058 17.6415 45.7549 17.3585C46.6039 16.9811 47.5473 16.6981 48.3964 16.4151C49.2454 16.1321 50.0945 15.8491 50.9435 15.6604C51.8869 15.5661 52.736 15.4717 53.6794 15.5661C54.5285 15.5661 55.4718 15.6604 56.2266 16.0378C56.9813 16.3208 57.736 16.6981 58.3964 17.0755C59.1511 17.5472 59.8115 18.2076 60.3775 18.9623C60.6605 19.2453 60.7549 19.434 61.0379 19.717C61.3209 20.1887 61.8869 21.1321 62.17 21.9811C62.736 23.5849 63.2077 24.9057 63.1134 26.9811Z" fill="white"/>
<path d="M48.3957 45.566L42.924 43.3962L40.6598 42.4528L40.2825 42.3585C40.2825 42.3585 40.2825 40.566 40.2825 39.717C41.2259 39.2453 42.0749 38.2075 42.0749 36.9811C42.0749 35.3773 40.7542 34.0566 39.056 34.0566C38.9617 34.0566 38.9617 34.0566 38.773 34.0566V39.9056V42.3585V42.4528C38.6787 42.5471 37.3579 43.6792 36.7919 44.1509C35.8485 43.7736 34.5277 43.7736 33.5844 44.6226C32.3579 45.6604 32.2636 47.5472 33.3013 48.7736C33.3013 48.7736 33.3013 48.7736 33.49 48.9622L37.924 45.1887L39.7164 43.5849L40.1881 43.7736C40.1881 43.7736 41.8862 44.4339 42.641 44.8113C42.7353 45.849 43.3957 46.9811 44.5277 47.4528C46.0372 48.0188 47.7353 47.2641 48.3957 45.7547C48.3013 45.6604 48.3013 45.7547 48.3957 45.566Z" fill="#002E6D"/>
</svg>
