<svg width="80" height="80" viewBox="0 0 80 80" fill="none" xmlns="http://www.w3.org/2000/svg">
<path d="M73.602 0C73.602 14.2598 73.602 28.5542 73.602 42.814C73.4639 43.1938 73.2913 43.5391 73.1877 43.9189C72.0828 47.5097 71.4959 51.3423 69.8385 54.6569C63.7617 66.8796 53.369 74.4756 41.2153 79.8619C40.6974 80.1036 39.8342 80 39.2818 79.7583C30.8571 76.0639 23.2956 71.161 17.1842 64.1864C10.5205 56.5904 6.86055 47.9586 7.03319 37.6694C7.20582 25.8956 7.03319 14.0872 7.03319 2.31334C7.03319 1.62279 7.03319 0.966767 7.03319 0.0690548C7.9309 0.0690548 8.6905 0.0690548 9.41558 0.0690548C29.9939 0.0690548 50.5722 0.0690548 71.1851 0.0690548C71.9792 0.0690548 72.7734 0.0345274 73.602 0ZM72.5317 20.7855C72.5662 20.3366 72.6353 19.8187 72.6353 19.3008C72.6353 13.8455 72.6007 8.35563 72.6698 2.9003C72.7043 1.3811 72.2209 0.93224 70.7017 0.93224C50.4341 0.966767 30.2011 0.966767 9.93349 0.93224C8.37975 0.93224 7.96543 1.48468 7.96543 2.93483C8.03448 12.8787 7.99995 22.8571 7.99995 32.801C7.99995 33.388 8.13806 33.9404 8.24164 34.7691C9.0703 34.2167 9.58821 33.9059 10.0716 33.5261C14.4911 30.0388 18.9106 26.5516 23.2956 23.0298C23.9171 22.5464 24.4695 21.9594 24.9874 21.3725C28.3021 17.6435 31.5131 13.811 35.0004 10.2546C36.347 8.87354 37.9352 7.73414 38.6948 5.83513C39.1782 4.62667 40.2486 4.55762 41.0772 5.35175C42.5274 6.8019 44.599 7.87225 44.5645 10.3927C44.5645 10.7035 44.7371 11.1178 44.9788 11.2905C48.2934 13.5347 51.4009 16.1934 55.6133 16.6767C57.9611 16.953 60.2399 17.3673 62.1044 19.0591C62.6914 19.6116 63.6581 19.9223 64.4523 20.0259C67.0763 20.3366 69.7004 20.5093 72.5317 20.7855ZM72.6007 34.2857C68.5956 34.3893 64.9702 34.044 61.5174 32.6629C54.1286 29.7281 46.5325 27.6219 38.6258 26.6897C36.6577 26.448 34.6551 26.2754 32.687 26.0682C32.3418 22.8571 32.1346 19.9223 34.3789 17.4363C35.0004 16.7458 35.5183 15.9517 35.8636 15.123C36.2088 14.3289 36.2434 13.3966 36.3815 12.4989C35.5874 12.568 35.2076 12.7061 34.9313 12.9823C32.2727 15.9862 29.6141 18.9901 26.921 21.9594C26.0233 22.9607 25.1601 24.0311 24.1588 24.9633C22.3979 26.6552 20.637 28.3815 18.7035 29.9007C15.5269 32.3867 12.2468 34.7 9.03578 37.117C8.55239 37.4968 8.27617 38.1873 7.62015 39.1886C8.86314 39.1886 9.4501 39.1886 10.0716 39.1886C30.132 39.1886 50.1924 39.1886 70.2529 39.1886C70.6672 39.1886 71.1161 39.2922 71.4613 39.1541C71.8757 38.9469 72.4972 38.5671 72.5317 38.1873C72.7043 36.9098 72.6007 35.6668 72.6007 34.2857ZM64.4868 46.1286C64.4523 45.9905 64.4523 45.8179 64.4177 45.6798C47.4303 45.6798 30.4428 45.6798 13.0064 45.6798C13.9387 46.4394 14.4911 46.9227 15.3888 47.6824C13.1445 47.6824 11.3146 47.6824 9.48463 47.6824C9.27747 49.754 10.5895 49.6504 11.798 49.6504C30.7535 49.6504 49.7436 49.6504 68.6991 49.6504C68.9754 49.6504 69.2861 49.6504 69.5623 49.6159C70.7363 49.5814 71.1851 49.0289 70.9089 47.6478C67.7324 47.6478 64.5558 47.6478 61.3793 47.6478C61.3793 47.5442 61.3448 47.4407 61.3448 47.3371C62.4151 46.9227 63.451 46.5084 64.4868 46.1286ZM40.2486 40.6042C30.3737 40.6042 20.4643 40.6042 10.5895 40.6042C10.1407 40.6042 9.65727 40.6042 9.20841 40.6042C8.03448 40.6388 7.86184 41.4674 8.48334 42.0544C9.58821 43.1247 10.624 44.3332 12.523 44.3332C31.7893 44.2641 51.0211 44.2641 70.2874 44.3332C72.3245 44.3332 72.29 43.2628 72.3936 41.8472C72.5317 40.0518 71.2542 40.5697 70.4255 40.5697C60.378 40.6042 50.3306 40.6042 40.2486 40.6042ZM39.7306 53.0686C39.7306 53.0341 39.7652 52.9996 39.7652 52.965C42.7345 52.4126 45.7039 51.8602 48.6387 51.3077C48.6042 51.1696 48.5697 51.0315 48.5351 50.8934C39.2127 50.8934 29.8903 50.8934 20.3608 50.8934C20.8096 51.6875 21.1204 52.24 21.4311 52.7924C21.3621 52.9305 21.293 53.0341 21.224 53.1722C20.4643 52.9305 19.4631 52.896 18.9797 52.3781C16.4592 49.5123 13.3862 51.1351 10.4514 50.7208C10.9348 54.2771 11.3836 54.6914 14.4221 54.6914C20.5334 54.6914 26.6102 54.6914 32.7216 54.6914C44.1156 54.6914 55.5097 54.6914 66.9037 54.6914C68.0086 54.6914 69.1135 54.7259 69.0789 53.0341C59.2732 53.0686 49.5019 53.0686 39.7306 53.0686ZM66.662 58.6275C66.593 58.3858 66.4894 58.1441 66.4203 57.9025C65.6262 57.8679 64.8666 57.7644 64.0725 57.7644C54.3703 57.7644 44.6335 57.7644 34.9313 57.7644C33.8265 57.7644 32.5489 58.0751 32.2727 56.3833C32.2382 56.2106 31.8584 55.9344 31.6167 55.9344C29.8213 55.8999 28.0259 55.8999 26.0923 55.8999C26.2995 56.6595 26.4376 57.1083 26.6448 57.9025C25.9542 57.7989 25.2637 57.9025 25.091 57.6262C23.6063 55.451 21.3966 55.8653 19.2904 55.8653C17.1842 55.8653 15.1126 55.8653 12.9374 55.8653C13.5589 58.9038 14.6292 59.836 17.1842 59.836C32.2382 59.836 47.3267 59.836 62.3806 59.836C63.0712 59.836 63.7962 59.905 64.4523 59.7324C65.2119 59.4907 65.9369 59.0073 66.662 58.6275ZM16.252 60.9409C17.4605 63.9102 19.1178 65.0496 21.8454 65.0496C34.1372 65.0496 46.4635 65.0496 58.7552 65.0496C61.4829 65.0496 63.3129 63.7376 64.4868 60.6646C63.1748 60.7337 62.0008 60.6646 60.8959 60.9063C58.5481 61.4243 56.2693 62.5291 53.9214 62.6327C47.8446 62.978 41.7678 62.9435 35.6564 62.978C35.173 62.978 34.5861 62.5637 34.2753 62.1839C32.8942 60.5611 31.7893 60.2849 29.5451 61.1826C29.9594 61.7695 30.3392 62.3565 30.719 62.9435C29.9249 63.047 29.0271 63.0125 28.7509 62.5982C27.5079 60.6992 25.678 60.6646 23.7445 60.7337C21.8454 60.8028 19.9464 60.7337 18.0474 60.7682C17.495 60.7682 16.908 60.8718 16.252 60.9409ZM20.706 66.189C23.0884 68.7441 25.022 70.4014 28.3711 70.2978C36.6577 70.0216 44.9443 70.1252 53.2309 70.2633C56.3038 70.3323 57.6504 68.2262 59.722 66.3962C59.1696 66.2581 58.9624 66.1545 58.7552 66.1545C55.3025 66.1545 51.8498 66.12 48.397 66.1545C47.8101 66.1545 47.085 66.3962 46.6707 66.8105C45.2205 68.2262 43.4941 68.4333 41.5951 68.3297C40.0414 68.2262 38.4877 68.2607 36.9339 68.3297C35.2766 68.4333 33.7574 68.2607 32.618 66.8105C32.4108 66.5343 31.962 66.2236 31.6167 66.2236C28.164 66.1545 24.6767 66.189 20.706 66.189ZM52.9892 71.3681C51.539 71.3681 50.0543 71.4027 48.6042 71.3681C45.911 71.2646 43.2524 71.0919 41.3189 73.6815C40.5248 74.7173 39.3163 74.6828 38.6948 73.3017C37.9352 71.5753 36.6922 71.1955 34.9659 71.3336C33.3085 71.4717 31.6167 71.3681 29.9594 71.3681C29.1307 71.3681 28.3366 71.3681 27.5079 71.3681C27.4734 71.5408 27.4734 71.7134 27.4389 71.8861C29.7522 73.3362 31.6512 75.3388 34.8623 75.0971C38.246 74.8554 41.6642 74.8209 45.0479 75.0971C48.4661 75.4424 50.7104 73.6815 52.9892 71.3681ZM35.6564 76.5127C38.6948 79.3095 41.7332 79.344 45.0824 76.5127C41.8368 76.5127 38.8329 76.5127 35.6564 76.5127Z" fill="#0066B9"/>
<path d="M72.5311 20.7855C69.6998 20.5438 67.0758 20.3367 64.4862 20.0259C63.6575 19.9223 62.7253 19.6116 62.1383 19.0591C60.2739 17.3673 57.9951 16.953 55.6472 16.6767C51.4348 16.1934 48.3274 13.5002 45.0127 11.2905C44.7711 11.1178 44.5639 10.7035 44.5984 10.3928C44.6675 7.87226 42.5958 6.80191 41.1112 5.35176C40.2825 4.55763 39.2121 4.62668 38.7288 5.83514C37.9692 7.73415 36.4154 8.87356 35.0343 10.2547C31.5471 13.811 28.336 17.6435 24.9869 21.3725C24.4689 21.9594 23.9165 22.5464 23.295 23.0298C18.91 26.5516 14.4905 30.0389 10.071 33.5261C9.58763 33.9059 9.03519 34.2167 8.24106 34.7691C8.13748 33.9405 7.99937 33.388 7.99937 32.8011C7.99937 22.8572 7.99937 12.8787 7.96484 2.93484C7.96484 1.48469 8.34465 0.932251 9.93291 0.932251C30.2005 0.966778 50.4336 0.966778 70.7011 0.932251C72.2203 0.932251 72.7037 1.38111 72.6692 2.90031C72.6001 8.35564 72.6347 13.8455 72.6347 19.3008C72.6347 19.8187 72.5656 20.3021 72.5311 20.7855ZM17.3218 14.7777C19.9804 14.7777 22.052 12.7406 22.052 10.1165C22.052 7.45793 20.0494 5.5244 17.3218 5.55892C14.7322 5.55892 12.6606 7.56151 12.626 10.0475C12.626 12.6025 14.7322 14.7432 17.3218 14.7777Z" fill="white"/>
<path d="M72.6003 34.2857C72.6003 35.6668 72.6694 36.9443 72.5658 38.1528C72.5313 38.5326 71.9443 38.9124 71.4955 39.1196C71.1502 39.2922 70.7013 39.1541 70.287 39.1541C50.2266 39.1541 30.1662 39.1541 10.1057 39.1541C9.48425 39.1541 8.86276 39.1541 7.6543 39.1541C8.31032 38.1528 8.55201 37.4622 9.06992 37.0824C12.281 34.631 15.5611 32.3522 18.7376 29.8662C20.6711 28.347 22.432 26.6206 24.1929 24.9288C25.1597 23.9965 26.0229 22.9262 26.9551 21.9249C29.6137 18.9901 32.2723 15.9862 34.9655 13.0168C35.2072 12.7406 35.587 12.6025 36.4156 12.5334C36.243 13.3966 36.2085 14.3289 35.8977 15.1575C35.5524 15.9862 35 16.7803 34.413 17.4709C32.1688 19.9568 32.3759 22.9262 32.7212 26.1027C34.7238 26.3099 36.6918 26.4825 38.6599 26.7242C46.5667 27.6565 54.1627 29.7626 61.5516 32.6975C64.9698 34.044 68.5952 34.3893 72.6003 34.2857Z" fill="white"/>
<path d="M64.4874 46.1286C63.4516 46.543 62.4158 46.9228 61.3799 47.3371C61.3799 47.4407 61.4145 47.5443 61.4145 47.6478C64.591 47.6478 67.733 47.6478 70.944 47.6478C71.2203 49.0289 70.7714 49.5814 69.5975 49.6159C69.3212 49.6159 69.0105 49.6504 68.7343 49.6504C49.7787 49.6504 30.7887 49.6504 11.8331 49.6504C10.6247 49.6504 9.31261 49.754 9.51978 47.6824C11.3497 47.6824 13.1797 47.6824 15.424 47.6824C14.5263 46.9228 13.9393 46.4394 13.0416 45.6798C30.5124 45.6798 47.4654 45.6798 64.4529 45.6798C64.4529 45.8179 64.4529 45.956 64.4874 46.1286Z" fill="white"/>
<path d="M40.2493 40.6043C50.2968 40.6043 60.3788 40.6043 70.4263 40.6388C71.2549 40.6388 72.5324 40.1209 72.3943 41.9163C72.2907 43.3319 72.3253 44.4023 70.2882 44.4023C51.0219 44.3332 31.7901 44.3332 12.5238 44.4023C10.6248 44.4023 9.58898 43.2283 8.4841 42.1235C7.86261 41.5365 8.03524 40.6733 9.20918 40.6733C9.65803 40.6733 10.1414 40.6733 10.5903 40.6733C20.4996 40.6043 30.3745 40.6043 40.2493 40.6043Z" fill="white"/>
<path d="M39.731 53.0686C49.5023 53.0686 59.2736 53.0686 69.1139 53.0686C69.1829 54.7605 68.078 54.726 66.9386 54.726C55.5446 54.726 44.1506 54.726 32.7565 54.726C26.6452 54.726 20.5683 54.726 14.457 54.726C11.4531 54.726 10.9697 54.2771 10.4863 50.7553C13.4212 51.1351 16.4941 49.5469 19.0146 52.4126C19.4635 52.9305 20.4993 52.9651 21.2589 53.2068C21.3279 53.0686 21.397 52.9651 21.466 52.827C21.1553 52.2745 20.8446 51.7221 20.3957 50.928C29.9253 50.928 39.2477 50.928 48.5701 50.928C48.6046 51.0661 48.6391 51.2042 48.6736 51.3423C45.7043 51.8947 42.7349 52.4472 39.8001 52.9996C39.7656 52.9996 39.7656 53.0341 39.731 53.0686Z" fill="white"/>
<path d="M66.6615 58.6275C65.9364 59.0073 65.2114 59.4562 64.4172 59.6979C63.7612 59.8705 63.0361 59.8015 62.3456 59.8015C47.2916 59.8015 32.2032 59.8015 17.1492 59.8015C14.5942 59.8015 13.5238 58.8692 12.9023 55.8308C15.043 55.8308 17.1492 55.8308 19.2554 55.8308C21.3616 55.8308 23.5713 55.4165 25.056 57.5917C25.2286 57.8679 25.9537 57.7644 26.6097 57.8679C26.4026 57.1083 26.2644 56.6249 26.0573 55.8653C27.9908 55.8653 29.7862 55.8653 31.5817 55.8999C31.8234 55.8999 32.2032 56.1761 32.2377 56.3487C32.5139 58.0406 33.7914 57.7298 34.8963 57.7298C44.5985 57.7298 54.3352 57.7298 64.0374 57.7298C64.8316 57.7298 65.5912 57.8334 66.3853 57.8679C66.4889 58.1442 66.5925 58.3858 66.6615 58.6275Z" fill="white"/>
<path d="M16.252 60.9409C16.908 60.8718 17.4949 60.7682 18.0819 60.7337C19.9809 60.6992 21.8799 60.7682 23.7789 60.6992C25.7125 60.6301 27.5424 60.6301 28.7854 62.5637C29.0616 62.978 29.9593 63.0125 30.7535 62.9089C30.3737 62.322 29.9939 61.7695 29.5795 61.148C31.7893 60.2503 32.9287 60.5611 34.3098 62.1493C34.6551 62.5291 35.242 62.9435 35.6909 62.9435C41.7677 62.9089 47.8791 62.9435 53.9559 62.5982C56.3037 62.4601 58.5826 61.3897 60.9304 60.8718C62.0353 60.6301 63.2092 60.6992 64.5213 60.6301C63.3473 63.7031 61.4829 65.0151 58.7897 65.0151C46.498 65.0151 34.1717 65.0151 21.8799 65.0151C19.0832 65.0842 17.4604 63.9102 16.252 60.9409Z" fill="white"/>
<path d="M20.7051 66.189C24.6757 66.189 28.163 66.189 31.6503 66.2235C31.9955 66.2235 32.4099 66.5343 32.6516 66.8105C33.7564 68.2607 35.2756 68.4333 36.9675 68.3297C38.5212 68.2607 40.075 68.2261 41.6287 68.3297C43.5277 68.4333 45.2541 68.2261 46.7042 66.8105C47.1185 66.4307 47.8436 66.1545 48.4306 66.1545C51.8833 66.0854 55.3361 66.12 58.7888 66.1545C58.996 66.1545 59.2031 66.2581 59.7556 66.3962C57.6839 68.1916 56.3374 70.2978 53.2644 70.2633C44.9778 70.1251 36.6913 70.0216 28.4047 70.2978C25.021 70.4014 23.0529 68.744 20.7051 66.189Z" fill="white"/>
<path d="M52.9884 71.3681C50.7096 73.6815 48.4653 75.4424 45.0816 75.1316C41.6979 74.8554 38.2797 74.8554 34.896 75.1316C31.685 75.3733 29.7515 73.3362 27.4727 71.9206C27.5072 71.7479 27.5072 71.5753 27.5417 71.4027C28.3704 71.4027 29.1645 71.4027 29.9932 71.4027C31.6505 71.4027 33.3423 71.5063 34.9996 71.3681C36.726 71.23 37.969 71.6098 38.7286 73.3362C39.3156 74.7173 40.5585 74.7518 41.3527 73.716C43.2862 71.1265 45.9103 71.2991 48.638 71.4027C50.0536 71.4372 51.5383 71.3681 52.9884 71.3681Z" fill="white"/>
<path d="M35.6562 76.5128C38.8328 76.5128 41.8367 76.5128 45.0822 76.5128C41.7676 79.3094 38.6947 79.3094 35.6562 76.5128Z" fill="white"/>
<path d="M17.3231 14.7777C14.7335 14.7777 12.5928 12.637 12.6274 10.0475C12.6274 7.56149 14.7335 5.5589 17.3231 5.5589C20.0853 5.5589 22.0533 7.45791 22.0533 10.1165C22.0533 12.7406 19.9817 14.7777 17.3231 14.7777Z" fill="#0066B9"/>
</svg>
