<svg width="80" height="80" viewBox="0 0 80 80" fill="none" xmlns="http://www.w3.org/2000/svg">
<path d="M39.606 80C22.4519 73.1714 8.75157 59.392 9.00342 42.353V0.618858C9.00342 0.454738 9.06861 0.297339 9.18466 0.181289C9.30071 0.0652383 9.45811 4.18393e-05 9.62223 4.18393e-05H69.5826C69.6645 -0.000910174 69.7457 0.0143931 69.8216 0.045065C69.8976 0.0757369 69.9666 0.121168 70.0248 0.178725C70.0831 0.236282 70.1293 0.304822 70.1609 0.380373C70.1924 0.455924 70.2086 0.536985 70.2086 0.618858V42.353C70.4533 59.392 56.753 73.1714 39.606 80Z" fill="#003B71"/>
<path d="M31.3311 12.6354C30.9557 12.6448 30.5988 12.8005 30.3366 13.0694C30.0745 13.3383 29.9278 13.699 29.9279 14.0745L29.8848 29.9047C29.8942 30.2801 30.0499 30.6369 30.3188 30.8991C30.5877 31.1612 30.9484 31.3079 31.3239 31.3078C31.6994 31.3079 32.0601 31.1612 32.329 30.8991C32.5978 30.6369 32.7536 30.2801 32.763 29.9047L32.8062 14.1105C32.8062 13.7288 32.6545 13.3627 32.3846 13.0929C32.1148 12.823 31.7487 12.6714 31.367 12.6714L31.3311 12.6354ZM47.924 12.6354C47.5423 12.6354 47.1763 12.787 46.9064 13.0569C46.6365 13.3268 46.4849 13.6928 46.4849 14.0745L46.4417 29.9047C46.4508 30.2739 46.6016 30.6255 46.8628 30.8867C47.1239 31.1479 47.4756 31.2987 47.8448 31.3078C48.2203 31.3079 48.581 31.1612 48.8499 30.8991C49.1188 30.6369 49.2745 30.2801 49.2839 29.9047L49.3271 14.1105C49.3273 13.7361 49.1816 13.3765 48.921 13.1078C48.6604 12.8391 48.3053 12.6826 47.9312 12.6714L47.924 12.6354Z" fill="white"/>
<path d="M51.1031 74.0061C52.0961 73.3442 53.0555 72.6558 53.9813 71.941C49.5519 70.7784 45.3951 68.7539 41.7489 65.9831C43.1419 64.7065 44.4382 63.3284 45.6273 61.8601C49.6517 64.7931 54.3567 66.6528 59.2988 67.2639C60.1407 66.4148 60.9322 65.5442 61.6877 64.6447C56.4996 64.4185 51.4935 62.6664 47.2967 59.6079C48.4655 57.9267 49.4955 56.1532 50.3764 54.3048C53.9131 57.163 58.3277 58.7133 62.875 58.694H65.8252C66.3504 57.773 66.8254 56.8376 67.2643 55.8878H62.8822C58.7014 55.8953 54.6653 54.3578 51.5492 51.5705C53.2122 47.2494 54.0636 42.6585 54.0605 38.0285C54.0511 37.6531 53.8953 37.2962 53.6265 37.034C53.3576 36.7719 52.9969 36.6252 52.6214 36.6253H40.9862L41.0294 10.9373C41.0295 10.563 40.8838 10.2033 40.6232 9.93464C40.3626 9.66596 40.0076 9.5094 39.6334 9.49817C39.2579 9.49805 38.8972 9.64472 38.6283 9.90687C38.3595 10.169 38.2037 10.5259 38.1943 10.9013V36.5966H26.5016C26.126 36.5964 25.7654 36.7431 25.4965 37.0053C25.2276 37.2674 25.0719 37.6243 25.0625 37.9997C25.0606 42.6533 25.9218 47.2669 27.6025 51.6064C24.4846 54.3954 20.4456 55.9331 16.2623 55.9238H11.873C12.3048 56.8736 12.7797 57.809 13.3122 58.73H16.2695C20.8172 58.7516 25.2326 57.201 28.7682 54.3407C29.6515 56.1893 30.6839 57.9628 31.855 59.6439C27.6568 62.6997 22.6516 64.4516 17.464 64.6807C18.2195 65.5802 19.011 66.4508 19.8529 67.2999C24.796 66.6928 29.5021 64.8327 33.5244 61.8961C34.7115 63.3661 36.008 64.7444 37.4028 66.0191C33.7561 68.789 29.5995 70.8135 25.1704 71.977C26.1058 72.6966 27.07 73.3801 28.0486 74.0421C32.2143 72.6686 36.1098 70.582 39.5615 67.8755C43.0128 70.5827 46.9084 72.6692 51.0743 74.0421L51.1031 74.0061ZM51.2614 39.5035C51.1284 42.8555 50.5128 46.1707 49.4337 49.347C47.2476 46.5059 45.953 43.0804 45.7136 39.5035H51.2614ZM48.2681 52.3188C47.3997 54.2669 46.3544 56.1312 45.1452 57.8881C43.7035 56.5901 42.4035 55.1429 41.2668 53.5708C42.6562 51.328 43.7357 48.9076 44.476 46.3753C45.3815 48.5679 46.665 50.5845 48.2681 52.3332V52.3188ZM42.821 39.5179C42.6129 43.5033 41.506 47.3899 39.5831 50.8869C37.6569 47.3913 36.5497 43.5039 36.3451 39.5179H42.821ZM27.9047 39.5179H33.4453C33.21 43.0742 31.9282 46.4815 29.7611 49.3111C28.6879 46.1335 28.0749 42.8188 27.9407 39.4676L27.9047 39.5179ZM34.0785 57.8522C32.8716 56.095 31.8286 54.2307 30.9628 52.2828C32.5636 50.5339 33.8447 48.5172 34.7477 46.3249C35.488 48.8572 36.5675 51.2776 37.9569 53.5205C36.8244 55.0959 35.5239 56.5435 34.0785 57.8378V57.8522ZM35.7694 60.09C37.1913 58.8325 38.4899 57.4422 39.6478 55.9382C40.8057 57.4422 42.1044 58.8325 43.5262 60.09C42.3442 61.5489 41.0472 62.9108 39.6478 64.1626C38.2465 62.9128 36.9494 61.5507 35.7694 60.09Z" fill="white"/>
</svg>
