<svg width="80" height="80" viewBox="0 0 80 80" fill="none" xmlns="http://www.w3.org/2000/svg">
<g clip-path="url(#clip0_2491:55328)">
<path d="M69.7859 28.301C69.7373 20.8738 69.7859 10.4854 69.7859 3.25241C69.5917 0.291249 65.2228 1.74756 63.1839 1.06795C58.3781 0.631055 53.4266 0.145618 48.5237 0.0970739C36.2422 -0.242732 24.4946 0.242705 12.8927 1.60193C9.78586 1.74756 11.582 7.42717 11.1451 9.36892C11.1451 18.0097 11.0965 29.5145 11.1451 38.1553L11.0965 38.1068C11.1451 42.0874 10.9995 46.1165 11.1451 50.0971C11.4849 52.1845 11.8732 54.3204 12.5043 56.3592H12.3587C13.1354 58.6408 14.3975 60.7281 15.6597 62.767C16.048 64.5631 18.0868 65.6311 19.0577 67.1844C21.048 69.7087 23.9606 71.6019 26.8247 73.6408C30.4655 76.165 34.1063 77.8641 38.9121 79.6602L38.8635 79.6116C42.5043 80.9223 47.9897 76.6019 50.7082 75.534C58.6694 70.9709 63.7179 66.0679 67.2131 58.8349C68.3296 56.4078 69.1063 53.7379 69.2033 51.0679C69.1548 50.6311 69.4946 50.1456 69.5431 49.7573C69.7373 44.7573 69.5431 39.5145 69.5917 34.466H69.6888C69.7859 33.6893 69.8344 28.9806 69.7859 28.301Z" fill="white"/>
<path d="M31 25.7767C25.1262 25.7282 19.2524 26.8932 13.3786 27.1845C11.6311 27.2815 11.0485 27.7184 11.0485 29.5146C11.1456 36.2136 11.0971 42.8641 11.0971 49.5631C11.0971 52.4272 11.8738 53.3981 14.5437 54.1262C17.7476 55.4369 19.932 50.8738 22.8446 53.2524C24.7864 54.6602 26.9709 54.7573 28.9126 53.301C32.165 50.5825 35.0291 56.4078 38.5243 53.5437C40.5145 52.0874 39.9806 55.6796 38.767 56.068C35.2233 58.9806 32.2621 53.301 28.9126 55.9223C24.9806 59.2718 22.4078 53.4951 19.0582 55.7767C17.2136 57.1845 15.1747 57.1359 13.0874 56.2621C12.9903 55.6311 11.6796 55.7767 12.3592 56.3592C13.1359 60.534 16.1942 60.3883 18.8641 58.7864C20.1747 57.767 21.3398 57.6699 22.7961 58.7379C26.9709 62.3786 29.4951 56.068 33.0388 58.7379C35.3204 60.6311 37.3107 59.5146 39.5437 58.7864C41 62.233 35.3689 63.3981 33.233 61.5049C31.6796 60.4369 30.3689 60.3883 28.8155 61.5049C23.8641 64.9029 22.699 58.1068 17.2136 62.233C14.932 62.3301 15.466 63.4466 16.7767 64.7087C18.5243 66.068 19.7378 61.7961 22.8446 64.2718C27.0194 67.6699 29.3495 61.8932 32.699 64.0777C36.3398 67.2816 39.8835 62.7184 39.7864 65.0485C39.7864 68.301 35.0291 68.6893 32.9903 66.8932C31.7281 65.9709 30.5145 65.8252 29.2524 66.7961C27.0194 68.4951 24.7864 68.3981 22.5534 66.7961C19.6893 64.9515 16.7281 67.7184 22.2136 69.4175C27.2136 73.4466 29.0582 67.5728 32.5048 69.4175C34.5922 70.9709 36.7281 71.3107 39.0097 69.8544C39.7379 69.3689 39.7864 69.8544 39.8349 70.3884C40.1747 73.1553 35.7573 74.2718 33.9612 72.8155C31.8738 71.3107 30.0291 71.2621 28.1359 72.9126C27.7476 73.2524 26.8252 73.1068 26.9223 73.6893C27.4078 74.3689 29.0582 75.534 29.9806 74.7087C32.9903 73.301 34.8349 78.3981 38.9611 75.3884C39.7864 74.8058 39.8349 75.3398 39.8835 75.9709C40.2718 77.8641 38.3301 78.0583 37.3107 79.0777C38.8641 79.5631 40.3204 80.6311 41.8738 79.7087C45.0291 78.6893 47.9903 77.1845 50.8544 75.5825C60.0777 70.4369 68.767 61.7476 69.398 50.6311C70.4175 45.1942 69.4466 39.3204 69.7378 33.7379C69.301 31.7476 71.2427 27.6699 68.3786 27.233C63.2815 26.5534 58.1359 26.3107 53.0388 25.8252C52.7476 21.9903 52.7476 21.9903 49.8835 21.8447L49.932 21.8932C49.5922 20.9709 48.6213 21.2621 47.9903 20.8738C48.3301 20.1942 48.9126 20.0971 49.5922 20C55.8058 19.2233 61.9709 18.3495 68.1845 17.5728C71.2912 18.1068 69.2039 5.82524 69.7864 3.30097C69.7864 2.23301 69.3495 1.65048 68.233 1.5534C53.7184 -1.81468e-06 39.0582 -0.485439 24.398 0.533979C8.42717 2.3301 11.3398 -1.45631 11.0971 14.8058C11.0485 16.165 11.6311 16.6019 12.8446 16.7961C20.6602 18.1068 28.5728 18.7864 36.3398 20.4854C36.3883 20.6311 36.3883 20.7767 36.3883 20.9223C35.9514 21.165 35.4175 21.3107 35.1747 21.7961C36.1456 21.5049 36.3883 22.4757 37.1165 20.9709C38.0874 21.0194 38.7184 20.2427 39.5922 20.0485C39.7864 21.5049 39.7379 22.9126 39.5922 24.3689C39.301 24.2718 39.0097 24.3204 38.8155 24.6116C35.9029 26.2136 37.7961 22.0874 35.466 23.8835C34.2039 24.4175 33.0874 24.2233 32.0194 23.3981C32.165 23.3495 32.2621 23.301 32.4078 23.2524C32.3107 23.2039 32.2621 23.1553 32.165 23.1068C32.1165 23.2039 32.0679 23.3495 32.0679 23.4466C31.4854 23.3495 30.8058 23.3495 30.7087 24.0291C30.6602 24.9515 32.5048 23.8835 32.5048 25.3398V25.3883C32.165 25.4854 31.8738 25.5825 31.534 25.6796C31.2912 25.534 31.1456 25.6311 31 25.7767Z" fill="#FDFCFC"/>
<path d="M69.3501 50.5825C68.719 61.699 60.0297 70.3884 50.8064 75.534C47.9423 77.1359 44.9812 78.6408 41.8258 79.6602C40.2724 80.5825 38.8161 79.466 37.2627 79.0291C38.2821 78.0097 40.2724 77.8156 39.8355 75.9223C39.787 75.2427 39.787 74.7573 38.9132 75.3398C34.8355 78.3495 32.9909 73.301 29.9326 74.6602C29.0103 75.4855 27.3598 74.3204 26.8744 73.6408C32.9909 68.3495 33.3792 75.7767 38.7676 72.5728C39.8355 72.3787 40.4666 68.9806 39.0103 69.8058C36.7287 71.2622 34.5928 70.8738 32.5054 69.3689C29.1074 67.4757 27.2142 73.3981 22.2142 69.3689C16.7287 67.6699 19.6899 64.8544 22.554 66.7476C27.1171 70.6311 29.3501 64.2233 32.9909 66.8932C34.9811 68.6893 39.787 68.3495 39.787 65.0486C39.7384 64.2719 39.5928 63.9806 38.8161 64.466C34.9326 67.4272 32.4569 61.7961 29.1559 64.2233C25.1268 67.767 22.3598 61.8447 18.8646 64.3204C18.2821 64.7573 17.6025 65.5825 16.7773 64.7573C15.5151 63.5437 14.8841 62.3787 17.2142 62.2816C22.6025 58.2039 23.9132 64.9515 28.8161 61.5534C30.3695 60.4369 31.6802 60.4855 33.2336 61.5534C35.321 63.4466 40.952 62.2816 39.5443 58.835C33.0879 62.1359 33.2336 56.068 29.1074 58.7864C27.0685 60.2913 24.8355 60.2913 22.7967 58.835C20.321 56.699 18.719 59.8544 16.1947 59.8544C13.8646 60 13.2821 59.466 12.4083 56.4563C19.0103 58.4952 18.9617 53.5923 22.8452 55.9709C24.8355 57.3301 26.9714 57.4757 28.9132 56.0194C32.2627 53.4466 35.2239 59.1262 38.7676 56.1651C39.9812 55.7767 40.4666 52.1845 38.5248 53.6408C35.0782 56.4563 32.1656 50.6796 28.9132 53.3981C26.9229 54.8544 24.787 54.7573 22.8452 53.3495C19.9326 50.9709 17.7481 55.534 14.5443 54.2233C11.8744 53.4952 11.0977 52.5243 11.0977 49.6602C14.2045 51.7476 17.2627 52.1845 20.321 49.6117C21.2433 49.5631 22.02 49.9029 22.7481 50.4369C26.5345 53.5437 28.7676 49.0777 32.3598 49.8058C34.8841 52.7185 40.0297 51.8932 39.7384 47.4757C39.7384 41.8447 39.7384 36.1651 39.7384 30.534C40.5637 25.9223 33.6705 31.7476 31.0006 30.6796C31.4375 30 32.5054 30.0971 32.8938 29.3204C34.787 29.5631 33.6219 28.1554 32.8938 29.3204C32.554 29.2719 32.1656 29.3204 31.9714 28.8835C38.3307 25.7282 40.418 28.3495 39.5443 20.0971C40.1268 17.7185 37.4569 20.5825 36.2918 20.0971C35.7093 17.4757 41.5831 16.7961 40.8064 13.6408C40.7579 13.301 41.1947 13.2039 41.5345 13.2524C42.8452 13.5922 40.6122 14.5631 43.1365 16.2136C48.5248 19.6602 45.3695 20.7282 47.9909 20.8738C48.6219 21.2622 49.5928 20.9709 49.9326 21.8932C49.0588 22.0388 48.8646 22.6214 49.0588 23.3495C48.8646 23.3495 48.6705 23.3495 48.4763 23.3495C48.8646 21.7476 47.7967 21.5049 46.6316 21.3592C45.1268 21.068 45.952 23.1554 45.7093 23.9806C45.4666 25.4855 46.0491 26.3107 47.6025 26.2622C49.1559 26.2622 48.4278 25.0971 48.4763 24.3689C48.6705 24.3689 48.8646 24.4175 49.0588 24.4175C48.719 25.6796 49.3986 25.9709 50.4666 25.8253C50.7579 26.3592 49.787 26.4078 50.0297 26.6505C50.5151 27.0874 52.3598 27.767 52.3598 26.602C52.554 25.0971 51.0977 26.4078 50.418 25.8738C51.9229 24.6117 50.0782 24.8544 49.0588 24.466C49.2045 24.1262 49.3986 23.835 49.5443 23.4952C49.8355 23.4466 50.1753 23.4466 50.4666 23.3981C50.4666 24.4175 52.4569 24.8544 52.3112 23.7864C51.8258 22.8641 51.0491 23.7864 50.3695 23.4466C51.5345 22.5243 49.7384 22.4757 49.8841 21.8447C52.7967 21.9903 52.7967 21.9903 52.9909 25.7767C52.8938 26.4078 52.6511 27.1359 53.3307 27.5243C55.2724 28.5437 53.719 29.466 53.0394 29.6117C49.6413 30.3398 51.4375 33.6893 50.8549 36.0194C50.1268 36.0194 48.719 36.2622 48.5248 36.8932C49.3501 37.0389 50.2239 37.233 50.952 36.5049C52.8938 36.699 56.8258 37.3787 56.1462 40.0971C55.2724 42.9612 55.9035 45.8253 55.6608 48.6893C55.5637 50.1456 56.0491 50.6796 57.554 50.6311C61.4375 50.4855 65.3695 50.5825 69.3501 50.5825Z" fill="#9B0E10"/>
<path d="M47.9908 20.8738C45.418 20.7282 48.5248 19.6602 43.1364 16.2136C40.6122 14.5631 42.8937 13.5922 41.5345 13.2039C41.1947 13.1553 40.7578 13.2524 40.8064 13.5922C41.3889 17.1359 35.5636 17.1359 36.3403 20.4369C28.5733 18.7379 20.6607 18.0097 12.8452 16.7476C11.6316 16.5534 11.0491 16.1165 11.0976 14.7573C11.3889 -1.40777 8.33063 2.3301 24.3986 0.533979C39.0588 -0.485439 53.719 -1.81468e-06 68.2821 1.5534C69.3986 1.65048 69.8355 2.23301 69.8355 3.30097C69.253 5.82524 71.3403 18.1068 68.2335 17.5728C62.0199 18.3495 55.8549 19.2233 49.6413 20C48.9131 20.0485 48.3306 20.1942 47.9908 20.8738ZM31.1462 9.90291C30.1267 9.70874 29.1073 9.70874 28.1365 9.85437C26.0976 9.95145 24.884 7.86408 22.8937 7.96116C22.117 7.81553 21.486 7.23301 20.6607 7.52427C21.1462 8.30097 22.117 8.54369 22.8937 8.73786C23.719 9.41747 25.6122 9.70874 25.4665 10.4854C24.9326 13.1553 27.6996 11.068 28.3792 10.4369C29.35 10.4369 30.2724 10.4369 31.2432 10.4369C31.9714 11.165 32.0685 9.70874 31.1462 9.90291Z" fill="#FDD7AE"/>
<path d="M39.5917 24.3204C41.7276 27.1359 25.4169 29.1748 31.0965 30.5825C33.7664 31.699 40.6596 25.8738 39.8344 30.4369C39.8344 36.068 39.8344 41.7476 39.8344 47.3786C39.8344 50.6311 37.5043 52.1845 34.3975 51.0194C32.5043 50.6311 32.213 48.9806 31.8247 47.3786C29.3489 40.9709 20.3198 42.767 20.3684 49.466C17.3101 52.0874 14.2033 51.6019 11.1451 49.5146C11.1451 42.8155 11.1936 36.165 11.0965 29.466C11.048 27.6214 11.6305 27.233 13.4266 27.1359C19.1548 26.8447 24.8829 25.6796 30.6596 25.7767C30.7567 26.5534 31.4363 26.3107 31.8732 26.4078C31.8247 28.3981 33.815 27.0388 34.6402 26.5048C34.7373 26.1165 33.0868 25.9709 32.7955 26.165C32.5528 25.9223 32.4072 25.6796 32.5043 25.2913V25.2427C33.6208 25.0971 34.6887 24.9029 35.8053 25.3398C35.8538 25.6311 35.2227 26.2621 35.9023 26.068C36.9218 25.7767 38.2324 25.6796 38.815 24.5146C39.0091 24.2718 39.2519 24.2718 39.5917 24.3204Z" fill="#FDD6AD"/>
<path d="M69.3503 50.5825C65.4182 50.5825 61.4862 50.534 57.5056 50.5825C56.0008 50.6311 55.5153 50.0971 55.6124 48.6408C55.8551 45.7767 55.2241 42.8641 56.0978 40.0485C56.7775 37.9612 54.2532 37.3301 52.7969 36.699C58.0396 34.9515 65.0784 26.7961 69.6901 33.6893C69.3988 39.2718 70.3697 45.1456 69.3503 50.5825Z" fill="#F59528"/>
<path d="M69.6902 33.6893C64.3019 25.6796 57.2145 37.4272 50.9038 36.4563C51.2922 34.0777 49.6902 30.2913 53.0398 29.5631C53.7194 29.4175 55.2728 28.4951 53.331 27.4757C52.6514 27.1359 52.8941 26.3592 52.9912 25.7281C58.0883 26.2621 63.2339 26.4563 68.331 27.1359C71.1466 27.6214 69.2048 31.699 69.6902 33.6893Z" fill="#FDD6AD"/>
<path d="M34.9329 25.2427C34.1077 24.8544 33.2825 25.3883 32.4572 25.3398C32.4572 23.8835 30.6126 24.9515 30.6611 24.0291C30.7096 23.3495 31.3893 23.301 32.0203 23.4466L31.9718 23.3981C33.0397 24.2233 34.1562 24.4175 35.4184 23.8835C35.4184 24.2233 35.4184 24.5146 35.3698 24.8544C35.2727 24.9515 35.1271 25.0971 34.9329 25.2427Z" fill="#B6463D"/>
<path d="M36.3398 20.4854C36.3398 20.3398 36.3398 20.1942 36.3398 20C37.4563 20.4369 40.1263 17.5728 39.5923 20C38.5243 20.3398 37.602 21.165 36.3884 20.9223C36.3884 20.7767 36.3884 20.6311 36.3398 20.4854Z" fill="#FDD6AD"/>
<path d="M35.418 24.8058C35.418 24.466 35.418 24.1748 35.4665 23.835C37.2141 22.2816 36.6801 24.8544 37.5053 24.9515C37.3112 25.3884 36.8743 25.1942 36.5345 25.2427C36.2918 24.8058 35.8549 24.8544 35.418 24.8058Z" fill="#FDD6AD"/>
<path d="M36.5347 25.2913C36.8745 25.2427 37.2629 25.4369 37.5056 25C37.9425 24.8544 38.3794 24.7087 38.8163 24.5631C38.2338 25.7282 36.9231 25.8252 35.9037 26.1165C35.2241 26.3107 35.8066 25.6311 35.8066 25.3884C36.0493 25.3398 36.292 25.3398 36.5347 25.2913Z" fill="#B6463D"/>
<path d="M36.3874 20.9223C36.6301 20.9223 36.8729 20.9223 37.1156 20.9709C36.3874 22.4757 36.1932 21.5049 35.1738 21.7961C35.4165 21.2621 35.9505 21.1165 36.3874 20.9223Z" fill="#B6463D"/>
<path d="M31.8249 26.4563C31.388 26.3107 30.7084 26.6019 30.6113 25.8253C31.2424 25.8253 31.8735 25.534 32.5045 25.3398C32.3589 25.7282 32.5045 25.9709 32.7472 26.2136C32.456 26.3107 32.1162 26.3592 31.8249 26.4563Z" fill="#9B0E10"/>
<path d="M13.1836 56.3107C12.9409 56.3592 12.6982 56.3592 12.4554 56.4078C11.7758 55.7767 13.038 55.6311 13.1836 56.3107Z" fill="#B6463D"/>
<path d="M31.4854 25.6796C31.3398 25.7282 31.1456 25.7767 31 25.8253C31.1456 25.6311 31.2913 25.534 31.4854 25.6796Z" fill="#B6463D"/>
<path d="M32.0196 23.3981C32.0682 23.301 32.1167 23.1553 32.1167 23.0583C32.2138 23.1068 32.2623 23.1553 32.3594 23.2039C32.2623 23.2524 32.1167 23.301 32.0196 23.3981C31.9711 23.3495 32.0196 23.3981 32.0196 23.3981Z" fill="#B6463D"/>
<path d="M20.3691 49.466C20.7089 41.068 31.7769 41.6019 32.408 49.6602C28.8157 48.932 26.5342 53.3981 22.7963 50.2913C22.0682 49.8058 21.2915 49.466 20.3691 49.466Z" fill="#FDFCFC"/>
<path d="M48.4275 24.3689C48.3304 25.0971 49.1071 26.2621 47.5537 26.2621C46.0003 26.2621 45.4178 25.4369 45.6605 23.9806C46.6314 23.6408 47.5052 24.2233 48.4275 24.3689Z" fill="#FDD7AE"/>
<path d="M45.6603 22.7184C45.806 22.1845 45.2234 21.1165 46.5827 21.3107C47.7477 21.5049 48.8157 21.7476 48.4273 23.301C47.4565 23.4466 46.5827 23.0583 45.6603 22.7184Z" fill="#FDFCFC"/>
<path d="M50.3691 25.8252C51.0487 26.3592 52.505 25.0485 52.3109 26.5534C52.3109 27.7185 50.4662 27.0388 49.9808 26.6019C49.7381 26.3592 50.7089 26.3592 50.4177 25.7767L50.3691 25.8252Z" fill="#FDD6AD"/>
<path d="M31.0965 30.5825C28.4266 30.0485 30.7081 28.9806 32.0673 28.7864C32.2615 29.1748 32.6499 29.1748 32.9897 29.2233C32.5528 29.9515 31.5334 29.8544 31.0965 30.5825Z" fill="#B6463D"/>
<path d="M45.6599 22.7184C46.8735 23.3495 48.1841 23.2524 49.4463 23.4466C49.3006 23.7864 49.1065 24.0777 48.9608 24.4175C47.7958 24.466 46.7764 23.6408 45.6113 23.9806C45.6599 23.5437 45.6599 23.1553 45.6599 22.7184Z" fill="#B6463D"/>
<path d="M49.0085 24.4175C50.0765 24.8058 51.9211 24.5631 50.3677 25.8253L50.4163 25.7767C49.3483 25.9709 48.7173 25.6796 49.0085 24.4175Z" fill="#FDD7AE"/>
<path d="M49.4948 23.4952C49.3492 23.4466 49.2036 23.3981 49.058 23.3981C48.9123 22.6214 49.1065 22.0874 49.9317 21.9418L49.8832 21.8447C49.7376 22.4757 51.4851 22.5243 50.3686 23.4466L50.4172 23.3981C50.0774 23.3981 49.7861 23.4466 49.4948 23.4952Z" fill="#FDFCFC"/>
<path d="M50.8552 35.9709C50.8552 36.1165 50.9037 36.3107 50.9037 36.4563C50.1756 37.1845 49.3503 36.9418 48.4766 36.8447C48.7193 36.2136 50.127 35.9709 50.8552 35.9709Z" fill="#B6463D"/>
<path d="M50.3691 23.4466C51.0002 23.7864 51.8254 22.8641 52.3109 23.7864C52.408 24.9029 50.4177 24.466 50.4662 23.398C50.4177 23.398 50.3691 23.4466 50.3691 23.4466Z" fill="#FDFCFC"/>
<path d="M32.9902 29.2233C33.7184 28.0097 34.8349 29.4175 32.9902 29.2233V29.2233Z" fill="#B6463D"/>
<path d="M28.2804 10.4854C27.6007 11.1165 24.8338 13.2039 25.3677 10.534C25.5134 9.70872 23.6202 9.46601 22.7949 8.78639C22.7949 8.54368 22.7949 8.25241 22.7949 8.00969C24.7852 7.91261 26.0473 9.99999 28.0376 9.9029C28.1347 10.0971 28.2318 10.2912 28.2804 10.4854Z" fill="#9B0E10"/>
<path d="M22.8443 7.96118C22.8443 8.2039 22.8443 8.49516 22.8443 8.73788C22.0191 8.5437 21.0968 8.30098 20.6113 7.52428C21.388 7.28157 22.0676 7.86409 22.8443 7.96118Z" fill="#9B0E10"/>
<path d="M28.2821 10.4854C28.2335 10.2913 28.1364 10.0971 28.0879 9.85436C29.1073 9.66019 30.1267 9.66019 31.0976 9.90291C31.0976 10.0971 31.0976 10.2913 31.0976 10.4854C30.1753 10.4854 29.2529 10.4854 28.2821 10.4854Z" fill="#9B0E10"/>
<path d="M31.1465 10.4854C31.1465 10.2913 31.1465 10.0971 31.1465 9.90291C32.0688 9.70874 31.9717 11.1651 31.1465 10.4854Z" fill="#9B0E10"/>
<path d="M31.8251 26.4563C32.6018 26.2136 33.3785 26.0194 34.1552 26.2621C34.3494 26.2621 34.6406 26.2136 34.5921 26.5534C33.7668 27.0874 31.7765 28.4466 31.8251 26.4563Z" fill="#B6463D"/>
<path d="M36.5339 25.2913C35.9999 25.4369 35.4659 25.3884 34.9805 25.2427C35.1261 25.0971 35.2717 24.9515 35.4174 24.8544C35.8543 24.8544 36.2911 24.8058 36.5339 25.2913Z" fill="#9B0E10"/>
</g>
<defs>
<clipPath id="clip0_2491:55328">
<rect width="80" height="80" fill="white"/>
</clipPath>
</defs>
</svg>
