<svg width="80" height="80" viewBox="0 0 80 80" fill="none" xmlns="http://www.w3.org/2000/svg">
<g clip-path="url(#clip0_2491:55319)">
<path d="M7.00013 0C7.00013 0.339462 7.00013 0.614266 7.00013 0.872904C7.00013 16.3427 6.98397 31.8125 7.0163 47.2661C7.0163 48.9634 7.08096 50.6607 7.30727 52.3419C8.5358 61.4912 12.9811 68.7492 20.5463 74.0028C27.4325 78.7876 35.1594 80.5819 43.4681 79.8383C49.5784 79.2887 55.2038 77.3166 60.1503 73.6472C68.7338 67.2621 73.0014 58.6462 73.0175 47.9612C73.0498 32.4106 73.0175 16.86 73.0175 1.32552C73.0175 0.905233 73.0175 0.484946 73.0175 0.0161649C50.9686 0 29.049 0 7.00013 0Z" fill="white"/>
<path d="M7 0C29.0489 0 50.9685 0 73.0174 0C73.0174 0.468782 73.0174 0.889069 73.0174 1.30936C73.0174 16.86 73.0335 32.4106 73.0174 47.945C73.0012 58.63 68.7175 67.2459 60.1501 73.631C55.2198 77.3005 49.5783 79.2887 43.468 79.8222C35.1592 80.5658 27.4324 78.7715 20.5462 73.9867C12.981 68.7492 8.53566 61.4912 7.30713 52.3419C7.08082 50.6607 7.01616 48.9634 7.01616 47.2661C7 31.7963 7 16.3427 7 0.872904C7 0.614266 7 0.339463 7 0ZM22.3405 32.8794C22.2111 32.8955 22.1465 32.9279 22.0657 32.9279C18.0244 32.9117 13.9832 32.9117 9.94201 32.847C9.16609 32.8309 8.98828 33.1057 9.00444 33.8169C9.03677 36.0477 9.00444 38.2946 9.02061 40.5254C9.05294 44.0008 8.89129 47.4924 9.19842 50.9517C10.0552 60.4243 14.7268 67.6662 22.6153 72.8875C22.8577 73.0491 23.278 73.1138 23.5528 73.0168C27.1253 71.8206 30.6492 70.4627 34.254 69.3958C41.6575 67.1974 49.1257 65.2091 56.5292 63.0107C59.8753 62.0085 63.2053 60.8285 66.1473 58.8563C67.0848 58.2259 67.9254 57.3692 68.6043 56.4639C69.2994 55.5425 69.0893 54.4595 68.2164 53.7159C67.6183 53.1825 66.9394 52.7137 66.2281 52.3419C61.7828 49.9656 57.0141 48.4623 52.1323 47.2338C43.8721 45.1647 35.4017 44.5019 26.9475 43.823C23.86 43.5805 20.7725 43.3057 17.7011 42.9986C17.1192 42.9501 16.5696 42.7238 15.9877 42.5783C16.0038 42.4975 16.0038 42.4328 16.02 42.352C16.2786 42.2873 16.5211 42.1903 16.7797 42.158C18.3316 41.9964 19.8834 41.7539 21.4352 41.7054C29.6955 41.4144 37.9719 41.1396 46.2322 40.9133C54.1529 40.7032 62.0737 40.5415 69.9945 40.3799C70.7058 40.3637 70.9806 40.1697 70.9644 39.4261C70.9159 37.5187 70.9321 35.5951 70.9644 33.6876C70.9806 33.041 70.8189 32.7985 70.1238 32.7985C62.882 32.8309 55.6239 32.8147 48.3821 32.8309C46.3453 32.8309 44.2924 32.8309 42.2556 32.8309C43.7428 32.5561 45.2299 32.3459 46.7333 32.2489C48.5922 32.1358 49.9016 31.1012 50.726 29.6141C51.5827 28.0461 52.9567 27.4156 54.4924 27.157C59.7298 26.2841 64.9672 25.492 70.2208 24.6999C70.8028 24.6191 70.9644 24.3766 70.9644 23.8109C70.9483 16.86 70.9483 9.90907 70.9644 2.95817C70.9644 2.31158 70.8028 2.0691 70.1077 2.0691C50.0309 2.08527 29.9541 2.08527 9.87735 2.0691C9.23075 2.0691 8.98828 2.24692 8.98828 2.92584C9.00444 9.27864 9.00444 15.6476 8.98828 22.0004C8.98828 22.5985 9.21459 22.7925 9.76419 22.8571C11.122 23.0188 12.4961 23.2128 13.8377 23.4229C14.9208 23.5846 15.7614 24.1018 16.1655 25.1687C16.5049 26.0901 16.6989 27.0762 17.1839 27.9006C17.8143 28.9513 18.1699 30.2122 19.3823 30.8749C20.4007 31.4569 21.3221 32.1843 22.3405 32.8794Z" fill="#2F1273"/>
<path d="M22.3394 32.8794C21.321 32.1843 20.4158 31.4569 19.4136 30.9073C18.2012 30.2283 17.8456 28.9836 17.2151 27.9329C16.7302 27.1085 16.5362 26.1063 16.1967 25.2011C15.7926 24.118 14.952 23.6169 13.869 23.4553C12.5111 23.2451 11.1533 23.0511 9.79545 22.8895C9.24584 22.8248 9.01953 22.6308 9.01953 22.0327C9.0357 15.6799 9.0357 9.31098 9.01953 2.95818C9.01953 2.27925 9.262 2.10144 9.9086 2.10144C29.9854 2.11761 50.0622 2.11761 70.139 2.10144C70.834 2.10144 70.9957 2.34391 70.9957 2.99051C70.9795 9.94141 70.9795 16.8923 70.9957 23.8432C70.9957 24.409 70.834 24.6353 70.2521 24.7323C64.9985 25.5244 59.7611 26.3164 54.5237 27.1893C52.9718 27.448 51.614 28.0784 50.7573 29.6464C49.9328 31.1497 48.6235 32.1681 46.7645 32.2813C45.2612 32.3783 43.774 32.5884 42.2869 32.8632C44.3236 32.8632 46.3766 32.8632 48.4134 32.8632C55.6552 32.8632 62.9132 32.8632 70.1551 32.8309C70.8664 32.8309 71.0119 33.0734 70.9957 33.72C70.9634 35.6274 70.9472 37.551 70.9957 39.4585C71.0119 40.2182 70.7532 40.4122 70.0258 40.4122C62.105 40.5739 54.1842 40.7193 46.2634 40.9457C38.0032 41.172 29.7267 41.4468 21.4665 41.7377C19.9147 41.7862 18.3628 42.0287 16.811 42.1903C16.5524 42.2227 16.2937 42.3197 16.0513 42.3843C16.0351 42.4652 16.0351 42.5298 16.0189 42.6106C16.5847 42.7561 17.1505 42.9824 17.7324 43.0309C20.8199 43.3219 23.9074 43.5967 26.9787 43.8553C35.4329 44.5343 43.9033 45.197 52.1636 47.2661C57.0292 48.4785 61.7979 49.9818 66.2594 52.3742C66.9706 52.746 67.6334 53.2148 68.2477 53.7482C69.1206 54.508 69.3307 55.591 68.6356 56.4963C67.9567 57.4015 67.1161 58.2582 66.1786 58.8887C63.2365 60.8608 59.9227 62.0408 56.5605 63.043C49.1569 65.2415 41.6888 67.2298 34.2852 69.4282C30.6805 70.4951 27.1565 71.8529 23.5841 73.0491C23.3093 73.1461 22.889 73.0814 22.6465 72.9198C14.7581 67.6985 10.0864 60.4567 9.22967 50.984C8.92254 47.5409 9.08419 44.0331 9.05186 40.5577C9.0357 38.3269 9.06803 36.08 9.0357 33.8493C9.01953 33.138 9.18118 32.8632 9.97326 32.8794C14.0145 32.944 18.0557 32.944 22.0969 32.9602C22.1293 32.9117 22.2101 32.8955 22.3394 32.8794Z" fill="white"/>
</g>
<defs>
<clipPath id="clip0_2491:55319">
<rect width="80" height="80" fill="white"/>
</clipPath>
</defs>
</svg>
