<svg width="80" height="80" viewBox="0 0 80 80" fill="none" xmlns="http://www.w3.org/2000/svg">
<g clip-path="url(#clip0_2491:55305)">
<path d="M10 18.8764V0H69.2135" stroke="#0090D9" stroke-width="0.034058" stroke-linejoin="round"/>
<path d="M17.5279 26.5168L16.9661 20.5618L16.4043 19.8876C17.0785 19.1011 17.865 18.5393 18.8762 18.2022L19.2133 18.764V25.1685C18.5391 25.5056 17.9773 25.955 17.5279 26.5168Z" fill="#00AEEF"/>
<path d="M23.9331 16.7416L25.0567 23.0337C25.7309 23.0337 26.405 23.0337 27.0792 23.1461V16.5169L26.405 15.8427C25.2814 15.7303 24.1578 15.7303 22.9219 15.9551L23.9331 16.7416Z" fill="#00AEEF"/>
<path d="M30.1115 24.0449L29.8868 16.6292C29.8868 16.5169 29.7744 16.2921 29.7744 16.2921L13.707 0H69.2127V47.6405L55.0553 41.1236C52.5834 40 50.2239 38.6517 48.0891 37.0787L30.561 24.7191C30.2239 24.4944 30.1115 24.2697 30.1115 24.0449Z" fill="#00AEEF"/>
<path d="M10 50.3371C10 58.5393 13.3708 66.4045 19.4382 72.0225" stroke="black" stroke-width="0.034012" stroke-linecap="round" stroke-linejoin="round"/>
<path d="M33.7079 36.7416C38.6517 38.8764 42.9213 42.0225 46.4045 46.0674L64.2697 66.6292C55.2809 80.3371 36.9663 84.1573 23.2584 75.1686C15.0562 69.6629 10 60.3371 10 50.3371V17.9775L13.9326 21.3483C14.4944 21.7978 14.8315 22.4719 14.9438 23.1461L15.7303 28.2023C15.8427 28.6517 16.1798 29.1011 16.6292 29.3259L33.7079 36.7416Z" fill="#00A651"/>
<path d="M52.8087 42.9213L65.2807 49.8876C65.5054 50 65.6177 50.2247 65.6177 50.4494C65.6177 50.6742 65.5054 50.8989 65.2807 51.0112L61.5728 52.6966C60.7863 53.1461 59.775 53.0337 59.1009 52.4719L44.6065 41.573C44.4941 41.4607 44.4941 41.3483 44.4941 41.2359C44.4941 41.1236 44.6065 41.0112 44.7189 41.0112C47.5278 40.7865 50.3368 41.4607 52.8087 42.9213Z" fill="#00A651"/>
<path d="M48.0899 37.0787L30.5618 24.7191C30.3371 24.6067 30.2247 24.2697 30.2247 24.0449L30 16.6292C30 16.5169 29.8876 16.2921 29.8876 16.2921L13.7079 0H10V17.9775L13.9326 21.3483C14.4944 21.7978 14.8315 22.4719 14.9438 23.1461L15.7303 28.2022C15.8427 28.6517 16.1798 29.1011 16.6292 29.3258L33.7079 36.7416C38.6517 38.8764 42.9214 42.0225 46.4045 46.0674L64.2697 66.6292C67.4157 61.7977 69.1011 56.1798 69.1011 50.4494V47.7528L54.9438 41.236C52.5843 40 50.2247 38.6517 48.0899 37.0787ZM19.2135 25.0562C18.6517 25.5056 18.0899 25.9551 17.5281 26.5169L16.9663 20.5618L16.4045 19.8876C17.0787 19.1011 17.8652 18.5393 18.8764 18.2022L19.2135 18.764V25.0562ZM27.0787 23.2584C26.4045 23.1461 25.7303 23.0337 25.0562 23.1461L23.9326 16.8539L23.0337 16.1798C24.1573 15.9551 25.2809 15.9551 26.5169 16.0674L27.191 16.7416L27.0787 23.2584ZM65.5056 50.3371C65.5056 50.5618 65.3933 50.7865 65.1685 50.8989L61.4607 52.5843C60.6742 53.0337 59.6629 52.9213 58.9888 52.3595L44.4944 41.4607C44.382 41.3483 44.382 41.236 44.382 41.1236C44.382 41.0112 44.4944 40.8989 44.6067 40.8989C47.4157 40.7865 50.2247 41.4607 52.6966 42.9213L65.1685 49.8876C65.3933 49.8876 65.5056 50.1124 65.5056 50.3371Z" fill="white"/>
</g>
<defs>
<clipPath id="clip0_2491:55305">
<rect width="80" height="80" fill="white"/>
</clipPath>
</defs>
</svg>
