<svg width="80" height="80" viewBox="0 0 80 80" fill="none" xmlns="http://www.w3.org/2000/svg">
<path d="M55.7102 41.069L60.6099 36.1693H55.7102H53.6612H52.8594V50.7795L55.7102 46.7706V41.069Z" fill="black"/>
<path d="M13.7503 18.8864H20.7882C20.7882 17.5501 18.8282 16.392 17.4919 16.392H17.0465V13.1849C15.7102 13.1849 14.5521 15.0557 14.5521 16.392H11.2559L13.7503 18.8864Z" fill="black"/>
<path d="M22.0354 12.4722H29.0733C29.0733 11.1359 27.1134 9.97776 25.7771 9.97776H25.3317V6.77063C23.9954 6.77063 22.8372 8.64145 22.8372 9.97776H19.541L22.0354 12.4722Z" fill="black"/>
<path d="M24.1733 22.8062H17.6699L20.1644 25.3006H21.6788C21.857 26.6369 22.7479 28.1514 23.9951 28.1514V25.3006H27.3804C27.3804 23.9643 25.5987 22.8062 24.1733 22.8062Z" fill="black"/>
<path d="M70.588 6.05791C60.0757 6.50334 53.3942 12.6503 49.5635 17.9065C44.3964 25.0334 42.5256 32.9621 42.5256 37.5947V39.02H45.2873L35.8441 54.7884H42.4365V60.6681L35.2205 70.5568V74.922C30.588 72.6058 26.3118 69.755 22.5702 66.5479V54.0757L35.755 40.8909L29.6971 34.833L42.4365 22.0935L35.6659 15.3229L48.1381 2.85078H70.4989V6.05791H70.588ZM70.588 30.6459H46.5345C47.6036 27.0824 49.2962 23.0735 51.9688 19.51C55.3541 14.7884 61.412 9.26503 70.6771 8.8196L70.588 30.6459ZM70.588 38.931C70.588 47.1269 67.3808 55.2339 61.1448 62.1826C58.5612 65.1225 55.3541 67.8842 51.8797 70.3786L58.0267 61.6481H54.5523L45.7327 74.1203C44.3073 74.922 42.7929 75.5457 41.3675 76.2583L51.6125 61.6481H48.1381L38.0713 76.0802V71.5367L45.2873 61.6481V58.7973H53.8396L55.7996 55.9465H45.2873V51.9376H40.833L50.1871 36.1693H45.3764C45.4655 35.3675 45.5546 34.4766 45.7327 33.4967H70.4989V38.931H70.588ZM8.85078 2.85078H44.2183L31.657 15.3229L29.8753 30.6459L25.6882 34.833L23.9955 48.6414L14.8196 57.8174C10.8998 51.9376 8.85078 45.5234 8.85078 38.931V2.85078ZM6 0V38.931C6 47.8396 9.47439 56.5702 16.0668 64.0535C21.8575 70.6459 30.0535 76.2583 39.1403 79.7327L39.6748 79.9109L40.2094 79.7327C49.2071 76.2583 57.4031 70.735 63.2828 64.1425C69.8753 56.6592 73.3497 47.9287 73.3497 39.02V0.0890869H6V0Z" fill="black"/>
<path d="M70.5878 8.90869C61.3228 9.35413 55.354 14.8775 51.8796 19.5991C49.2961 23.1626 47.5144 27.0824 46.4453 30.735H70.4988L70.5878 8.90869Z" fill="#FFFF00"/>
<path d="M70.5881 2.85077H48.1382L35.6661 15.3229L42.4367 22.0935L29.6973 34.833L35.7552 40.8909L22.5703 54.0757V66.637C26.2229 69.8441 30.5881 72.6949 35.2206 75.0111V70.6459L42.4367 60.6681V54.7884H35.8443L45.1984 39.02H42.5258V37.5946C42.5258 32.9621 44.3966 25.0334 49.5636 17.9064C53.3944 12.6503 60.0759 6.50333 70.5881 6.0579V2.85077Z" fill="#00A550"/>
<path d="M56.0664 14.9666L58.2045 13.1849C56.2446 14.6103 54.641 16.2138 53.3047 17.8174L56.0664 14.9666Z" fill="black"/>
<path d="M11.2569 16.392H14.5531C14.5531 15.0557 15.7113 13.1848 17.0476 13.1848V16.392H17.493C18.8293 16.392 20.7892 17.5501 20.7892 18.8864H13.7513L11.2569 16.392ZM22.8382 9.97772C22.8382 8.64142 23.9963 6.77059 25.3326 6.77059V9.97772H25.7781C27.1144 9.97772 29.0743 11.1358 29.0743 12.4721H22.0364L19.542 9.97772H22.8382ZM23.9963 25.3007V28.1514C22.7491 28.1514 21.8582 26.637 21.6801 25.3007H20.1656L17.6712 22.8062H24.1745C25.5108 22.8953 27.3816 23.9644 27.3816 25.3007H23.9963ZM23.9963 48.6414L25.689 34.833L29.8761 30.6459L31.6578 15.3229L44.13 2.85077H8.85156V39.02C8.85156 45.6125 10.9006 52.0267 14.8204 57.9064L23.9963 48.6414Z" fill="#00AFF0"/>
<path d="M60.6093 36.1692L55.7095 41.069V46.7706L52.8587 50.7795V36.1692H53.5714H55.7095H60.6093ZM70.587 33.4966H45.8209C45.6427 34.4766 45.5536 35.3675 45.4645 36.1692H50.2752L40.832 51.9376H45.2863V55.9465H55.7986L53.7496 58.7973H45.1973V61.6481L38.0703 71.5367V76.0802L48.3153 61.559H51.7897L41.4556 76.1693C42.9701 75.5456 44.3955 74.833 45.8209 74.0312L54.6405 61.559H58.1149L51.8788 70.3786C55.3532 67.9733 58.4712 65.2116 61.1438 62.1826C67.2908 55.2338 70.587 47.216 70.587 38.9309V33.4966Z" fill="white"/>
</svg>
