<svg width="80" height="80" viewBox="0 0 80 80" fill="none" xmlns="http://www.w3.org/2000/svg">
<path fill-rule="evenodd" clip-rule="evenodd" d="M9.01194 0C9.01194 0 8.65588 27.5999 11.8327 40.8072C19.4283 72.3791 39.7578 80 39.7578 80C39.7578 80 60.0751 72.3791 67.6706 40.8072C70.8475 27.5999 70.4915 0 70.4915 0H9.01083H9.01194Z" fill="#004FA2"/>
<path fill-rule="evenodd" clip-rule="evenodd" d="M66.7647 3.89119C66.8387 16.8065 66.7271 30.2471 63.4639 42.4869C60.4972 52.4742 55.7888 61.9351 47.8538 69.5936C45.4433 71.8096 42.6258 73.8365 39.8072 75.4885C37.1003 74.0244 34.5791 72.0717 32.1321 70.1576C22.1204 60.9587 17.3004 49.0197 14.6676 36.404C12.8132 25.9656 12.665 14.5917 12.7391 3.89119H66.7647Z" fill="#FEFEFE"/>
<path fill-rule="evenodd" clip-rule="evenodd" d="M63.798 6.63129L63.6122 20.1106C63.056 28.1451 62.4998 36.5168 59.9411 43.8381C56.5298 54.7266 49.967 65.6516 39.6215 72.0717C34.0971 68.2059 28.7573 63.0608 25.4201 57.2809C19.3384 46.9553 16.6702 35.055 16.2246 22.5521C15.9282 17.3705 15.8541 12.1524 15.9647 6.63239H63.798V6.63129Z" fill="#004FA2"/>
<path fill-rule="evenodd" clip-rule="evenodd" d="M62.9447 7.64528C63.0176 7.75807 62.9811 8.09643 62.9811 8.24571L62.7589 21.0118C62.2768 30.6983 61.0527 40.3096 57.271 48.7566C55.4907 49.5826 53.0436 49.4322 51.375 48.5321C48.4094 47.8178 45.8506 49.4698 43.0331 49.2066C41.5127 49.2453 40.1769 48.6062 38.5459 48.7201C35.839 48.9081 33.2438 50.3345 30.4993 49.3581C28.4978 48.5686 26.1613 49.2077 24.2329 49.6954C23.6402 49.8082 23.0099 49.7706 22.4902 49.5826C18.6709 40.836 17.4479 31.26 16.9658 21.2363C16.8552 16.6562 16.6694 12.1889 16.78 7.64638H62.9447V7.64528Z" fill="#FEFEFE"/>
<path fill-rule="evenodd" clip-rule="evenodd" d="M35.5451 9.67324C35.471 10.0857 35.2852 10.3865 35.471 10.8741C36.621 11.5873 37.8439 12.0761 39.0304 12.6765C39.1786 12.5261 39.0304 12.2254 38.9928 12.0009C39.141 11.2125 39.5866 10.4241 39.8465 9.59805C40.2169 10.5368 40.9589 11.5497 40.5874 12.6389C41.9961 12.2254 43.406 11.6249 44.7406 10.9493C45.0381 10.8741 44.8888 10.5368 45.0381 10.3489C44.8147 10.0105 44.7771 9.56046 45.0381 9.25969C45.2968 9.1469 45.5943 9.03411 45.853 9.22209C45.8895 9.33488 46.0753 9.44767 46.1129 9.56046C46.187 10.3113 45.2968 10.423 45.3333 11.1373V11.1749C49.042 10.6861 52.3416 12.8269 54.2325 15.9805C54.4183 16.8065 54.9745 18.0074 54.2701 18.7582C53.1577 20.073 52.4157 21.6874 51.1552 22.8883H51.007C51.1928 21.4618 49.7829 20.5993 48.7457 19.9226C46.9278 18.9838 44.5548 18.5338 42.5899 18.9462C42.4793 19.2094 42.2571 19.5842 42.4793 19.8474C42.664 20.1858 42.3676 20.523 42.1078 20.6358C41.7009 20.711 41.4034 20.5982 41.2176 20.2599C41.1447 19.885 41.3293 19.5853 41.6268 19.4725C41.9961 19.509 41.8114 19.0966 42.0337 18.9462C41.4034 18.6465 40.8837 17.9322 40.7731 17.219C40.699 17.1062 40.5509 17.0686 40.4768 16.9569L40.2534 17.219L40.3275 21.3114C40.699 21.349 41.0695 21.537 41.4399 21.4618C41.5151 21.7626 41.2917 22.363 41.7738 22.4382C42.183 22.5134 42.5523 22.2126 42.7016 21.8378C42.9979 21.9871 43.7023 21.8378 43.6282 22.2878C43.3695 22.8883 42.9603 23.4522 42.4782 23.9398L54.9004 37.0432C55.6048 37.1184 56.4949 36.1033 56.977 36.968C56.5325 40.9476 55.2708 44.5889 53.2683 47.9682C54.5665 48.3441 56.0493 48.0057 57.3486 47.5557L57.385 47.5933C56.6807 48.0809 55.6789 48.1185 54.7887 48.2678C52.6756 48.3817 51.1176 47.1421 48.9304 47.4429C46.9654 47.4053 45.2968 48.4934 43.2202 48.0809C41.1811 47.5933 38.8447 46.9918 36.768 47.8178C34.4691 48.7577 31.3918 48.5697 29.167 47.6298C26.794 46.8049 24.9396 48.4193 22.7148 48.3065L22.863 48.1937C23.8272 48.0809 24.7915 47.893 25.6816 47.5557C25.6075 46.8801 25.2371 46.2033 24.9772 45.5277C23.9378 42.75 23.1605 39.7457 23.0864 36.7048C23.1229 36.5168 23.3075 36.5168 23.4192 36.4792L25.2371 36.8176L36.5823 25.0666L37.4724 24.1267C37.0279 23.6015 36.36 23.0386 36.36 22.2137L37.4724 21.7626C37.6582 22.0999 37.9545 22.6638 38.4742 22.363C38.8823 22.2502 38.66 21.7991 38.7706 21.537L39.5866 21.3866L39.6607 17.219L39.3644 16.8065C38.6224 17.3705 38.6965 18.421 37.7699 18.8334C37.7323 19.3974 38.6965 19.3974 38.2896 20.0719C38.1403 20.4478 37.7323 20.4854 37.3983 20.3726C37.0655 20.2234 36.9914 19.8474 37.102 19.5101C37.3618 19.3598 37.2501 19.1342 37.2501 18.9086C36.5458 18.6465 35.6556 18.7582 34.9148 18.7958C32.5042 19.1718 30.4652 20.523 28.9812 22.6262C27.8688 20.8238 26.8316 18.8334 25.7557 16.9945C26.2002 14.3285 28.759 12.2254 31.2436 11.5873C32.356 11.3993 33.6166 10.9869 34.7666 11.3993C34.9148 11.4369 34.9877 11.3629 35.0994 11.3253C34.9148 10.7989 34.8031 10.2737 34.2845 9.97291C34.1352 9.63565 34.3586 9.37248 34.5808 9.1469C34.9513 9.1093 35.5075 9.1469 35.5451 9.67324Z" fill="#004FA2"/>
<path fill-rule="evenodd" clip-rule="evenodd" d="M20.452 9.74734C20.1921 10.3489 18.7458 10.3113 19.3761 11.2501C20.2662 12.3757 22.1571 11.7001 22.7133 13.3521C22.8991 13.8613 22.8991 14.4198 22.7133 14.929C22.1947 15.379 21.0823 15.4166 21.4527 16.4306C21.8618 17.0686 22.6392 16.9945 23.1589 17.3694C24.8275 17.8194 24.8275 20.3726 26.7184 20.1858C26.9041 20.1858 27.0147 19.885 27.2005 20.073L28.9808 23.3394C29.4253 23.7519 30.018 23.6391 30.5377 23.5274C31.168 22.9259 31.7983 22.0247 32.5391 21.537C33.0223 21.4994 33.0964 21.9871 33.1694 22.3254C33.207 23.9023 31.9464 25.1783 30.6859 25.8915C29.1654 26.5683 27.0147 26.5307 25.6436 25.5543C24.383 24.9162 24.2337 23.5639 24.049 22.363C23.3447 21.8367 22.9731 22.8507 22.4169 23.1138C21.7866 23.5639 21.0823 23.9763 20.2662 23.7895C19.5994 23.6015 19.2279 22.2502 18.3389 22.8507C18.2637 22.8883 18.2637 22.7379 18.2637 22.6627C18.3013 22.4747 18.4494 22.2502 18.6728 22.1762C19.5242 22.1762 20.7483 23.4146 21.3045 22.1374C21.6385 21.4994 21.8607 20.5606 22.7133 20.4102C23.9374 20.073 24.3078 21.4994 25.1614 21.9871C25.8282 22.363 26.4961 22.9635 27.237 22.8131V22.7379C26.1246 22.2878 25.0874 21.537 24.1961 20.5982C24.1961 19.247 22.5651 18.4199 21.5644 17.857C20.8235 17.595 20.3403 16.769 20.3038 16.0181C20.3038 15.1545 21.4903 14.6282 20.8965 13.6518C20.2662 12.8645 19.2655 12.5261 18.7093 11.5873C18.5235 11.2114 18.6352 10.7248 18.7834 10.3865C19.1538 9.86012 19.7841 10.0105 20.2297 9.67325C20.3403 9.63565 20.3779 9.71085 20.4509 9.74734H20.452ZM60.3491 10.1985C59.7929 10.0857 59.2743 10.3865 58.9404 10.7989C58.8298 11.2501 58.5689 11.9633 58.978 12.3006C58.978 12.6389 59.3849 12.6013 59.4601 12.9021C60.0528 13.5766 60.4232 14.4037 60.1645 15.3425C60.0163 16.0933 59.3849 16.9569 58.6065 17.219C58.236 17.2942 57.9021 17.407 57.6433 17.7077C57.2342 18.3082 57.5681 19.2094 57.013 19.7346C56.3828 19.5842 55.6773 19.7722 55.1587 20.1106C54.3791 20.5606 54.0463 21.4994 54.2309 22.3254C54.2685 22.363 54.3061 22.4382 54.3791 22.4006C54.6025 22.175 54.3426 21.9119 54.4908 21.6487C54.639 20.8238 55.455 20.2975 56.1605 20.0343C57.0119 19.8098 57.5317 20.5982 58.0514 21.1622C58.4218 21.6874 57.7915 22.551 58.6065 22.8131C59.2003 22.7003 59.8305 22.5886 60.3491 22.8883C60.4973 23.1514 60.8313 23.189 60.8313 23.4522C59.7565 22.5123 58.4583 24.6531 57.6798 22.9635C57.1601 22.2878 57.9762 21.349 57.1601 20.9366C56.6415 20.9366 56.1229 21.0118 55.8995 21.537C55.6032 22.5875 55.5291 23.7519 54.5649 24.4651C53.824 25.1783 52.8598 24.9914 51.8956 25.1407C49.8941 25.2535 47.7047 24.9527 46.7416 22.8883C46.4452 22.4758 46.3336 21.7626 46.6675 21.3114C46.8522 21.1235 47.1485 21.1235 47.4084 21.1987C48.5584 21.8743 48.8547 23.377 50.2634 23.4146C50.7091 23.377 51.2277 23.3018 51.451 22.9635C52.5623 21.8743 53.4525 20.5982 54.2309 19.247C55.047 19.247 55.9747 19.3974 56.4557 18.683C56.3076 17.7453 56.5674 16.8065 57.42 16.3178C58.0879 16.0557 58.978 16.2061 59.3484 15.3425C60.1269 13.5025 56.9379 12.6765 58.2725 10.8365C58.5324 10.5369 58.8287 10.0481 59.2367 10.0105C59.6083 10.0481 60.1645 9.93532 60.3491 10.1985Z" fill="#004FA2"/>
<path fill-rule="evenodd" clip-rule="evenodd" d="M40.2882 12.7141C39.9177 12.7517 39.398 12.9021 39.2123 12.5261C39.0641 11.6249 39.6214 10.9117 39.8426 10.1233C40.1765 10.8752 40.882 11.8129 40.2882 12.7141ZM39.1006 12.8645C38.8418 13.5777 38.582 14.3661 38.5079 15.1921C38.5079 15.9429 38.3597 16.7314 38.2115 17.4446C38.2856 17.6701 38.4338 17.407 38.582 17.4822C38.4714 17.9322 38.1751 18.4586 37.6929 18.5714L35.6528 11.2501C36.7733 11.8483 37.9246 12.3872 39.1017 12.8645H39.1006ZM42.0685 18.6089C41.4747 18.6089 41.2148 17.857 40.9926 17.407C41.2148 17.2566 41.4382 17.6701 41.6604 17.407C41.0666 16.0181 41.4747 14.1781 40.5845 12.9021C41.9557 12.3381 43.3655 11.8881 44.7013 11.2501L42.0685 18.6089ZM51.672 13.2769C50.522 14.929 49.372 16.6938 48.2608 18.3834H48.1491L49.3732 12.4133L49.2239 12.3005C47.9268 14.1405 46.7027 15.9805 45.3316 17.7829C45.4057 15.6422 45.4422 13.5025 45.6644 11.3629C47.8527 11.1749 50.0034 11.8129 51.672 13.2769ZM31.0174 11.9257C31.316 12.7517 31.2784 13.7657 32.0193 14.3285C33.1693 13.9902 34.4663 13.6905 35.7645 13.8774L36.2466 15.6046C35.1718 15.7174 34.0594 15.9053 33.0952 16.3565C32.3908 17.219 33.3163 18.0826 33.6879 18.7958C32.9835 19.2094 32.1309 19.435 31.389 19.8474C31.055 19.2094 30.8693 18.421 30.3142 17.8946C29.6839 18.0826 29.3123 18.683 28.8678 19.1718C28.4974 19.6218 28.3116 20.1858 28.0894 20.711H28.0153L27.1992 19.2094C27.6072 18.045 28.274 16.9193 29.3499 16.0933C29.6098 15.755 29.3499 15.4177 29.3123 15.0793C29.016 14.4413 28.6821 13.7281 28.5715 13.089C29.3499 12.5637 30.1284 12.1137 31.0185 11.9257" fill="#FEFEFE"/>
<path fill-rule="evenodd" clip-rule="evenodd" d="M40.4372 12.9762C41.0675 14.2533 40.9934 15.8302 41.3639 17.1814C41.0675 17.2942 40.8077 16.9569 40.5854 16.8054C40.5854 15.9429 40.8453 14.8925 40.5489 14.0278C40.4748 14.0278 40.4008 14.1029 40.4384 14.1781C40.5489 15.1545 40.4384 16.2426 40.1398 17.031C40.0668 17.1438 39.9927 17.219 39.8435 17.1814C39.3248 16.3554 39.3624 15.379 39.4365 14.3285C39.3624 14.3285 39.2508 14.1781 39.1767 14.2909C39.0661 15.0793 39.1767 15.755 39.2508 16.581C38.9544 16.8065 38.9544 17.1062 38.584 17.1814C38.9909 15.755 38.4723 14.1781 39.3989 12.9397L40.4384 12.9762H40.4372ZM53.7861 15.6046C53.7861 15.8302 53.6003 15.9429 53.4897 16.0933C53.1558 15.9429 53.1182 15.4166 52.8218 15.1169C52.6737 15.0417 52.7113 14.8162 52.5255 14.7786L52.4514 14.8914L53.3415 16.3178C53.227 16.5414 53.0765 16.7446 52.8959 16.9193C52.5996 16.7314 52.6361 16.0933 52.2656 16.2802L52.7478 17.1062C51.8576 18.0461 51.4131 19.247 50.4865 20.1106C50.931 17.9322 51.1908 15.7174 51.6365 13.5401L51.7835 13.3897C52.562 14.0654 53.2299 14.741 53.7861 15.6046ZM54.1565 16.3565C54.2306 17.031 54.6386 17.7077 54.3423 18.3834C54.12 18.6089 54.0083 18.8334 53.7861 19.0214C53.4521 18.4962 53.2299 17.7453 53.6379 17.1438C53.8602 17.3694 53.8601 17.8957 54.12 18.0837C54.1941 17.407 53.3415 16.8065 54.0094 16.1309L54.1565 16.3554V16.3565ZM53.3415 18.3458C53.378 18.8334 53.9342 19.3222 53.3415 19.697C53.1558 19.5466 53.0817 19.2846 53.0076 19.0225L53.1934 18.3458H53.3415ZM52.2291 21.4242L52.154 21.4618C52.2656 20.7862 52.6372 20.0354 52.8959 19.3598C53.712 20.0343 52.4514 20.711 52.2291 21.4242Z" fill="#FEFEFE"/>
<path fill-rule="evenodd" clip-rule="evenodd" d="M50.7085 22.175C50.6344 22.5134 50.6709 22.927 50.2629 22.9635C48.7812 22.9259 48.5578 21.0118 47.1856 20.7851C47.2596 20.4478 47.6312 20.2234 47.9264 20.073C49.0764 20.4102 50.0407 21.1235 50.7085 22.175ZM32.1317 21.1998V21.3114H32.0211C31.4638 21.9119 31.0193 22.4006 30.6477 23.0386C30.3149 23.3394 29.9809 23.2642 29.5729 23.2266C29.4623 23.1138 29.1649 23.1138 29.2025 22.8507C29.7968 22.0037 30.5083 21.2454 31.3156 20.5982C31.6119 20.711 31.7977 21.1622 32.1317 21.1987" fill="#004FA2"/>
<path fill-rule="evenodd" clip-rule="evenodd" d="M43.2198 22.6638C43.1833 22.8131 43.1457 23.2266 42.8117 23.1138H36.9169L36.6935 22.8131L36.8793 22.6638H43.2198ZM39.5486 23.4146C39.438 23.7906 39.6227 24.1654 39.0289 24.0891C38.6972 24.0526 38.9924 23.6391 38.9559 23.4146C39.0376 23.3422 39.1431 23.3022 39.2523 23.3022C39.3615 23.3022 39.4669 23.3422 39.5486 23.4146ZM41.0326 23.7143C41.0326 23.7519 41.069 23.7895 41.1066 23.7895C40.8844 24.0526 40.5869 23.9398 40.3647 23.9022C40.4023 23.7143 40.3282 23.5263 40.4388 23.3018C40.7727 23.2642 41.0326 23.3394 41.0326 23.7143ZM54.7518 37.6436L54.3427 39.3332C51.2288 41.0228 47.8551 41.9981 44.2581 42.4493L41.6993 24.4275C41.811 24.3158 41.9592 24.2782 42.1074 24.3158L54.7518 37.6425V37.6436ZM35.6552 42.6737C35.3224 42.6373 34.9508 42.6373 34.6545 42.4869C34.6545 40.3461 34.618 38.0937 34.5063 35.9164L35.1366 34.6779C34.6545 34.5276 33.9866 34.5276 33.5421 34.6779C33.6162 35.128 33.9125 35.5404 34.0983 35.954L34.0242 42.4493C33.2457 42.4493 32.4297 42.1496 31.6512 41.9981C31.5771 41.2108 31.8735 40.4965 31.5771 39.7468L29.9074 39.8585L29.871 41.4729C29.2407 41.3977 28.6845 41.0604 28.0907 40.8724L28.2023 38.808C28.7221 38.9208 29.2042 38.6576 29.5381 38.2064C29.871 38.6576 30.3896 38.8445 30.9093 38.7704C31.3184 38.6941 31.5396 37.982 31.8735 38.1688C32.1333 38.4696 32.4297 38.5448 32.7636 38.5824C33.1341 38.5448 33.468 38.3944 33.6538 38.0572C33.7644 37.7188 33.4304 37.3804 33.8019 37.1549C31.6877 37.2688 29.4629 37.4556 27.3498 37.4932C27.1275 37.982 27.6461 38.3944 27.906 38.7317C27.7578 39.3332 27.8695 40.0475 27.8319 40.6845C27.0535 40.4965 26.0516 40.1968 25.5695 39.3332C25.4213 38.8445 25.1626 38.3568 25.125 37.7564L38.0293 24.3899L38.2504 24.4275L35.6552 42.6748V42.6737ZM41.1431 24.4286C41.069 24.6907 41.2172 24.8786 41.1807 25.0666C40.9585 25.1407 40.661 25.1031 40.4399 25.1031C40.3647 24.9151 40.3282 24.5779 40.4753 24.4286H41.1431ZM39.438 25.1407L38.7337 25.2159L38.8078 24.5779C39.0289 24.5027 39.364 24.5027 39.5486 24.5779L39.438 25.1418V25.1407ZM41.403 26.3803C41.1066 26.4931 40.6245 26.4931 40.3647 26.3803C40.5128 26.0795 40.1789 25.3663 40.8844 25.5543C41.5888 25.3287 41.1431 26.0795 41.403 26.3803ZM39.438 26.4931L38.5479 26.6058C38.5479 26.3427 38.5844 25.9667 38.6961 25.7046L39.4745 25.7422L39.438 26.4931ZM41.6252 27.9947C41.2913 28.1451 40.7727 28.0699 40.4388 28.0699C40.6245 27.7691 40.1789 27.0559 40.661 26.9431H41.4771L41.6252 27.9936V27.9947ZM39.4016 28.144C39.03 28.1827 38.6961 28.2203 38.3256 28.2579C38.288 27.9195 38.3997 27.5059 38.4362 27.13C38.7337 27.0559 39.1041 27.13 39.4004 27.0559V28.1451L39.4016 28.144ZM41.8851 29.7219C41.4406 29.8347 40.9585 29.8723 40.4753 29.8347V28.6327C40.9209 28.5951 41.2913 28.4447 41.6993 28.5951L41.8851 29.7219ZM39.364 28.7079C39.364 29.0463 39.3264 29.4963 39.4004 29.8347C38.9924 29.984 38.5103 29.9464 38.0658 30.0227C37.9917 29.6091 38.214 29.1956 38.214 28.7455C38.5479 28.7079 39.0665 28.7079 39.364 28.7079ZM41.9968 30.4351C42.0333 30.8476 42.0333 31.2976 42.1439 31.6736C41.7369 31.824 41.1066 31.7864 40.5504 31.824L40.5128 30.4351C40.922 30.2471 41.4771 30.3975 41.8851 30.2847L41.9957 30.4351H41.9968ZM39.3264 31.8616L37.7694 32.0119L37.9176 30.6231C38.3256 30.4727 38.9183 30.4727 39.364 30.5103L39.3264 31.8616ZM42.4424 33.6264C41.811 33.664 41.2172 33.7016 40.5869 33.7767C40.6245 33.3256 40.3647 32.4244 40.8103 32.3503C41.2913 32.4244 41.7734 32.2751 42.219 32.3127L42.4413 33.6264H42.4424ZM39.2523 32.5007V33.8519L37.472 33.9271C37.5096 33.5512 37.5837 33.0635 37.6213 32.65C38.1399 32.5372 38.7337 32.462 39.2523 32.4996V32.5007ZM42.553 34.2644C42.5154 34.6779 42.5895 35.2032 42.7001 35.6167C42.0022 35.7307 41.294 35.7681 40.588 35.7284V34.302C41.2183 34.2268 41.9227 34.0764 42.553 34.2644ZM39.2523 34.3772C39.1782 34.9411 39.2523 35.316 39.2158 35.8412C38.5855 35.954 37.8435 35.9916 37.1756 35.954L37.3614 34.5652C37.8435 34.3396 38.6596 34.49 39.2523 34.3772Z" fill="#FEFEFE"/>
<path fill-rule="evenodd" clip-rule="evenodd" d="M34.8011 34.7531C34.6154 35.0904 34.5413 35.504 34.319 35.8412C34.1332 35.5416 33.7993 35.0528 33.8745 34.7531H34.8011ZM42.8102 36.2924C42.7361 36.7424 42.9584 37.1936 42.996 37.6436L42.8854 37.7564L40.6971 37.9068L40.5865 36.3676C41.2533 36.2924 42.1423 36.1796 42.8102 36.2924ZM39.1402 37.982L36.8778 38.17L37.0259 36.7048C37.7668 36.6296 38.4723 36.4416 39.1766 36.5168L39.1402 37.982ZM33.4289 37.418C33.5041 37.8316 33.3924 38.2065 32.9844 38.3579C32.6139 38.3944 32.3165 38.3192 32.0577 38.0937L31.6486 37.5308C32.2424 37.3804 32.7986 37.3053 33.4289 37.418ZM31.4639 37.6812C31.5015 38.0196 31.2417 38.3568 30.9442 38.5072C30.6479 38.6576 30.2409 38.5448 29.9811 38.3944C29.7953 38.1689 29.4614 38.0185 29.572 37.6812C30.0917 37.418 30.7971 37.6436 31.3522 37.4932L31.4639 37.6812ZM29.2391 37.606C29.499 38.0561 29.0169 38.3944 28.7194 38.5824C28.2749 38.808 27.9045 38.3192 27.6446 37.9444C27.5705 37.8692 27.6081 37.7564 27.7552 37.7188L29.2391 37.606ZM43.2558 39.8585C42.4398 39.9713 41.5496 39.9713 40.6971 40.0089V38.5448C41.4014 38.3944 42.254 38.432 43.0325 38.3568L43.2558 39.8585ZM39.1766 38.6576C39.1026 39.1452 39.0661 39.6329 39.1026 40.1216L36.5814 40.3472C36.6555 39.8585 36.692 39.258 36.7661 38.7704C37.5821 38.7328 38.3982 38.62 39.1766 38.6576ZM43.3664 40.46C43.404 41.1732 43.4781 41.8488 43.6263 42.4869C42.662 42.7125 41.7354 42.6749 40.7712 42.6749L40.6971 40.6845C41.5496 40.5341 42.4398 40.4965 43.3664 40.46ZM39.1015 40.6845C39.065 41.3225 38.9544 42.0733 39.0285 42.7125H36.2475L36.4697 40.91C37.434 40.8349 38.0642 40.7221 39.1015 40.6845ZM52.0433 42.6373C52.0057 42.75 52.1174 42.8252 52.1539 42.8252C52.3773 42.7876 52.5995 42.8252 52.5631 43.0873C52.6736 43.4633 51.9637 43.4058 51.778 43.481C51.6674 43.8182 51.7072 44.8079 51.9295 45.071C52.1517 45.4835 53.0076 44.2517 53.1182 44.8521C52.8218 45.4161 52.3397 46.0906 51.6353 46.0165C50.8569 46.0541 50.1525 45.6781 49.7069 45.0401C49.8174 44.3645 50.6169 45.4127 51.0614 45.2999C51.4706 45.0368 51.3633 44.046 51.3257 43.596C51.2516 43.4456 50.8945 43.4633 50.7452 43.4633L50.7087 43.5009C50.6346 43.4257 50.6346 43.1249 50.7087 43.0121C50.9298 42.9745 51.2284 43.0508 51.339 42.7876C51.3014 42.5245 51.3014 42.2237 51.6353 42.2613C51.9317 42.1861 52.0057 42.4117 52.0433 42.6373ZM55.7875 51.9478C55.8627 52.0982 56.0473 51.8726 56.0473 52.0606C55.4911 52.2486 55.417 52.9242 55.1207 53.3743C54.9349 53.6374 54.8995 54.0134 54.601 54.2003C52.489 54.8018 51.1156 53.3378 49.1142 53.5998C47.1481 53.675 45.5171 54.877 43.404 54.313C40.8828 53.4118 37.6938 53.6374 35.1716 54.3506C32.5763 55.0263 30.0928 53.6374 27.6081 54.1251C26.718 54.3506 25.6432 54.239 24.753 54.2755C24.3815 53.5246 24.0111 52.7738 23.6406 52.0606C25.087 52.4366 26.8285 52.1358 28.3125 51.9102C30.3515 52.2486 32.9468 52.6621 35.1351 52.0982C37.1 51.3463 39.7328 51.3463 41.7719 51.9478C45.2584 52.8866 48.2605 50.2582 51.6718 51.6846C52.97 51.9854 54.4163 52.4731 55.7886 51.9478H55.7875ZM47.4456 56.9791C49.2259 56.7159 51.2649 56.4151 52.8959 57.2422C52.4379 57.9472 51.9929 58.6605 51.5612 59.3819C50.7922 59.075 49.9777 58.8975 49.1507 58.8566C47.4832 58.8179 45.9992 59.6826 44.2565 59.3067C40.7712 57.993 37.6562 60.4711 34.2073 59.4571C32.0577 59.0811 30.0928 59.1187 28.0526 59.6826C27.5329 59.0059 27.0519 58.2562 26.6439 57.5043C29.7212 56.153 32.6504 57.7675 35.9135 57.4291C38.0278 57.3926 39.6588 56.0779 41.846 56.5666C43.7003 56.6783 45.5912 57.6547 47.4456 56.9791ZM46.7412 62.0468C47.6313 61.5967 48.7802 61.4099 49.8185 61.7095L47.8536 63.9996C46.4437 63.6988 45.3689 64.7128 43.9967 64.3379C42.0317 63.5119 39.4365 63.586 37.4716 64.4131C35.6913 64.3755 33.6522 63.4367 31.9095 64.3379C31.1676 63.6988 30.4997 62.948 29.8694 62.1596C31.0559 61.6343 32.4657 61.6343 33.8369 61.7847C35.9135 62.2359 38.3241 62.5366 40.3266 61.7095C41.7354 61.4839 43.3675 61.4463 44.6646 62.0855C45.2949 62.2359 46.1109 62.2735 46.7412 62.0479" fill="#FEFEFE"/>
</svg>
