<svg width="80" height="80" viewBox="0 0 80 80" fill="none" xmlns="http://www.w3.org/2000/svg">
<g clip-path="url(#clip0_2491:55351)">
<path d="M8.0191 0L8.00027 46.2603C7.96262 56.8604 11.8035 65.5025 19.7301 72.5818C30.4997 82.2029 47.5013 82.7677 59.4947 72.6006C70.0572 63.2619 71.4505 53.9233 71.3375 46.1285L71.4128 0.018828L8.0191 0Z" fill="white"/>
<path d="M69.0405 33.4761C69.0405 33.4761 45.3926 10.0353 42.3048 7.11697C39.4806 4.4434 37.0895 7.06048 37.0895 7.06048L10.4479 33.4761V2.50412H69.0405V33.4761ZM63.2603 37.4865C63.5992 39.7647 63.5992 43.3231 62.6955 45.4884C61.434 48.8774 58.1391 52.0028 55.1831 52.7559C46.4093 53.1513 42.9073 40.2165 34.7548 36.7145C36.1292 32.9489 40.5162 31.0661 44.4135 30.6896C51.5493 29.5599 54.3171 40.0847 61.2081 38.5785C62.093 38.2019 61.8294 36.6957 62.9591 37.0723C62.9779 37.2982 63.2227 37.2794 63.2603 37.4865ZM42.8885 53.0195C35.8657 52.3982 34.2465 43.3608 27.4684 41.6098C27.9767 39.9718 29.7277 38.9739 31.1022 38.5973C38.8781 38.7291 39.876 48.2561 46.3905 51.2497C46.1457 52.7748 44.037 53.0007 42.8885 53.0195ZM22.0836 45.7519C21.4623 43.7374 24.6254 43.0219 25.3408 43.116C30.3491 44.0009 31.3658 49.141 35.3761 51.7581C29.0876 56.145 26.8471 46.8816 22.0836 45.7519ZM21.82 52.3982L17.3013 48.2561C20.6903 45.1306 23.8158 49.7623 25.6986 51.7581C24.8325 52.5112 23.0815 53.1513 21.82 52.3982ZM14.5524 51.5133C14.7972 49.3857 17.6778 50.3836 18.431 51.7581C17.1883 52.643 15.8139 51.6451 14.5524 51.5133ZM8.0191 0L8.00027 46.2603C7.96262 56.8604 11.8035 65.5025 19.7301 72.5818C30.4997 82.2029 47.5013 82.7677 59.4947 72.6006C70.0572 63.2619 71.4505 53.9233 71.3375 46.1285L71.4128 0.018828L8.0191 0Z" fill="#0072BC"/>
</g>
<defs>
<clipPath id="clip0_2491:55351">
<rect width="80" height="80" fill="white"/>
</clipPath>
</defs>
</svg>
