<svg width="80" height="80" viewBox="0 0 80 80" fill="none" xmlns="http://www.w3.org/2000/svg">
<path d="M71.3525 1.97537H8V47.1285C8 64.7643 22.1554 77.0371 39.6762 77.0371C57.1971 77.0371 71.3525 64.7643 71.3525 47.1285V1.97537Z" fill="white"/>
<path d="M8 0.91153V47.2362C8 64.7184 22.029 79.1513 39.5113 79.2215C57.0169 79.2918 71.2041 65.0813 71.2041 47.5932L71.2275 0.91153H8ZM39.3767 76.2659C23.5391 76.1196 10.8796 63.0094 10.8796 47.1777V3.78523L68.3362 3.79109L68.342 46.8733C68.342 63.021 55.5537 76.4123 39.3767 76.2659Z" fill="#1E45AB"/>
<path d="M53.3231 27.3602C57.3557 25.1888 61.1835 21.2792 61.1835 11.9382C59.8257 10.7442 57.1391 8.3446 56.8056 8.04025C58.6199 8.03441 62.2779 8.03441 63.8465 8.03441C63.9577 8.03441 64.0454 8.1222 64.0454 8.22754C64.0454 9.52686 64.0162 11.0134 64.0162 12.3128C64.0162 20.0794 64.0513 41.9512 64.0454 46.8676C64.0454 53.1534 62.0731 58.3916 58.9126 62.5471C58.8248 62.6641 58.6433 62.5529 58.7077 62.4242C61.6458 56.7002 61.1542 48.4946 58.737 46.9319C58.6843 46.8968 58.6667 46.8266 58.7019 46.7738C61.757 41.9687 61.1835 33.2657 61.1776 32.5516C60.7328 34.9571 59.1701 38.9604 57.5723 41.3308C57.5196 41.4069 57.4084 41.401 57.3675 41.3191C56.7354 40.0139 54.7864 38.2523 53.1417 38.1645C53.0305 38.1586 52.9896 38.0123 53.0832 37.9479C57.9293 34.4947 61.1951 27.9982 61.1951 23.2516C60.487 25.9263 58.895 29.8711 54.0958 32.6044C54.008 32.657 53.8968 32.575 53.9202 32.4814C54.0372 31.9488 54.0196 31.0475 53.967 30.0408C53.9144 28.9814 53.4871 27.9397 53.2763 27.5066C53.2471 27.4539 53.2705 27.3895 53.3231 27.3602Z" fill="#1E45AB"/>
<path d="M18.1188 16.6262C23.4506 23.5851 32.6278 25.8092 34.05 22.1044C29.7716 23.1579 19.816 17.6797 18.1304 11.9264C19.4298 10.7734 21.2909 9.11124 22.4966 8.04019C21.7943 8.04604 16.5502 8.04019 15.4674 8.04019C15.3621 8.04019 15.2743 8.12798 15.2743 8.23333C15.2743 10.8261 15.2626 38.6208 15.2626 41.9745C15.2626 46.7036 15.1104 48.8398 15.6372 51.8306C15.6547 51.9243 15.7893 51.9184 15.7952 51.8247C16.123 48.2253 17.3228 46.1007 18.0719 44.8716C18.8913 43.5196 20.7525 41.7053 23.1931 41.3424C23.2926 41.3248 23.3336 41.2078 23.2575 41.1434C21.7591 39.8382 18.1304 35.5599 18.1188 27.5416C20.1731 32.9379 23.0995 36.192 27.3368 39.3115C27.3954 39.3525 27.4773 39.3407 27.5183 39.2764C28.4488 37.661 30.7373 35.7355 32.8443 35.3024C32.9673 35.2789 32.9673 35.1034 32.8443 35.0683C24.4982 32.8735 18.1188 27.126 18.1188 16.6262Z" fill="#1E45AB"/>
<path d="M57.7309 17.6095C57.9883 17.7793 58.5092 18.0836 58.796 18.2767C59.3403 17.3286 59.674 15.4323 59.3052 14.3554C57.0578 16.6906 51.5035 22.0108 44.5504 20.571C41.7 19.9857 39.6867 18.9205 39.8799 17.6037C40.2076 15.3855 44.9717 15.6547 46.1599 16.1873C45.9901 15.4908 45.756 14.4373 45.5922 13.653C41.1265 15.6196 39.0136 13.8403 39.8975 12.383C41.5011 9.73167 45.8497 8.39724 48.2728 9.77264C48.103 9.07031 48.0094 8.42065 47.6231 7.34374C47.2602 6.43071 45.1825 6.29024 44.9483 6.65896C44.7845 6.92234 44.9425 7.43738 45.0186 7.75343C44.2752 7.96999 43.8188 8.03437 42.2561 8.53185C41.542 5.7752 39.0195 6.89893 35.6659 8.37969C33.8106 9.19907 31.7387 10.6916 27.3666 8.60209C26.0439 7.96999 26.4244 10.5218 29.7195 11.1773C30.8491 11.3997 30.9895 12.0844 30.217 12.4707C29.9009 12.6287 29.7897 12.8863 29.8365 13.1438C29.8833 13.4248 30.2462 13.7057 30.7145 13.7818C31.5162 13.9047 32.0255 14.332 31.604 14.8938C31.4402 15.1103 31.329 15.4147 31.528 15.6956C31.727 15.9824 32.1717 16.0585 32.5054 16.1288C33.7754 16.3863 36.7838 18.8386 36.8189 21.209C36.8598 23.9422 32.722 27.7055 27.1677 25.6687C24.2998 24.6152 22.7312 23.4681 20.8525 22.0868C20.8291 23.4447 21.4963 24.8376 22.585 25.9731C22.702 25.856 23.3633 25.1596 23.4863 25.0308C24.5105 25.6863 25.1134 26.5115 24.2062 27.5124C24.9553 28.1737 25.7513 27.7757 26.1434 27.2958C27.3842 27.846 28.6074 28.5834 28.0749 30.1461C29.222 30.7021 31.0129 31.3108 32.2245 31.7147C32.2947 29.1863 36.3214 27.0617 38.6391 28.8585C40.1491 30.029 40.0555 32.7448 38.1709 35.6829C38.0128 35.9287 38.1182 36.274 38.2703 36.4086C38.5395 36.6544 37.9543 37.0817 37.7085 37.2455C36.9008 37.784 36.3272 37.7898 35.4728 38.1117C35.063 38.2639 34.8933 38.5156 34.9518 38.8082C34.9811 38.972 34.747 39.294 34.4485 39.3993C33.3775 39.7973 32.3298 39.9261 31.3114 40.2188C30.931 40.33 30.7495 40.5465 30.732 40.7455C30.7145 40.9561 30.7554 41.1083 30.416 41.3074C30.1174 41.483 28.5548 42.1325 26.4888 42.3609C26.1961 42.3901 25.9444 42.6125 25.8215 42.911C25.4469 43.8182 22.1694 44.9595 21.1334 45.8081C20.9169 45.9837 20.9286 46.3056 20.8408 46.5338C20.6243 47.084 19.7346 47.88 19.0967 49.7646C18.2305 52.3223 17.3292 56.5831 18.9914 59.6382C23.0063 67.0127 31.9493 66.6908 36.216 64.6774C40.354 62.7227 43.3623 60.9902 46.0838 61.5931C50.4266 62.5587 50.526 68.6983 44.5679 69.9859C43.4735 70.2201 41.2085 69.9332 39.6341 66.7376C37.9718 69.1723 33.2194 70.4483 30.1116 70.1088C36.7194 73.1347 42.0103 72.1163 44.328 71.6423C48.9751 70.7 51.2577 67.9667 51.7142 65.9358C53.0662 59.9484 46.8914 56.2905 40.1257 59.8255C34.8933 62.5587 30.5564 65.3798 24.8558 61.4877C22.0231 59.5562 21.432 55.8456 22.6962 52.6793C23.9896 49.4486 26.5531 47.8508 30.1408 47.4527C33.0907 47.1309 35.7244 48.2604 36.2336 49.9167C36.8306 51.8364 35.3322 52.5505 34.0212 52.5505C32.7102 52.5505 30.6793 51.8658 28.9644 50.4318C27.7178 53.5806 25.1368 55.3306 25.1368 55.3306L30.4745 59.9016L32.2947 58.3214L31.7679 56.8992L30.3984 57.262C30.3984 57.262 28.3675 55.711 28.8884 54.7745C29.4444 53.7796 31.2763 54.2654 34.0271 55.2018C37.7553 56.4719 41.2085 56.3958 42.7536 54.1249C44.3924 51.7194 43.5847 47.4118 41.9752 45.5214C45.7326 45.498 52.7793 46.3817 47.5119 54.8039C50.608 55.711 53.4114 58.3799 53.4114 58.3799L58.4507 53.2821L57.046 51.6492L55.5653 52.1993L55.7818 53.3933C55.7818 53.3933 53.9733 55.4886 52.7384 54.6165C51.9014 54.0196 52.1882 52.849 53.1071 51.696C57.9005 45.6911 53.4349 40.9387 48.3781 40.2422C51.2049 35.3609 51.1991 28.6478 48.501 23.8837C50.4266 22.7365 51.5035 23.2516 51.9542 23.9422C52.8847 23.4856 53.7041 22.9941 54.6112 22.4263C54.2308 21.5835 54.8981 20.4013 55.4892 20.0969C56.2091 20.6061 56.8704 20.6822 57.4616 20.0384C56.9816 19.734 55.8872 19.1371 57.7309 17.6095ZM38.4693 11.0368C36.8306 11.7626 35.2972 11.6982 34.39 11.0661C35.4142 10.7208 38.6333 9.49171 39.4585 9.19907C39.7219 9.77264 39.3648 10.6447 38.4693 11.0368ZM47.5177 26.0609C48.1616 26.9095 48.2903 28.3201 48.3781 29.2448C47.0436 29.6486 45.0771 29.9296 42.976 29.9296C44.6499 29.0224 46.593 27.6412 47.5177 26.0609ZM44.2694 22.6546C44.7903 22.9179 45.6682 23.6671 45.9609 24.1061C45.399 24.5977 43.9241 25.1596 42.8706 25.4463C43.6549 24.3519 44.0588 23.3979 44.2694 22.6546ZM46.0955 40.6811C44.8723 41.0908 42.8062 41.3074 41.3313 41.401C43.2803 40.5289 46.3765 38.82 47.8396 37.1987C47.5235 38.4103 46.7802 39.692 46.0955 40.6811ZM48.6181 31.264C48.7761 32.4462 48.5771 33.8276 48.4542 34.7991C47.1958 35.1736 44.404 35.5775 42.4551 35.5833C44.8605 34.4655 47.8748 32.6336 48.6181 31.264Z" fill="#1E45AB"/>
<path d="M43.9941 12.7341C47.9181 8.74251 51.9294 14.7475 54.6644 13.6295C53.4028 12.8804 52.2212 11.4582 52.0097 10.8963C55.2917 12.9214 58.0195 12.4063 59.8136 11.8504C57.4797 13.7057 54.2925 14.9289 52.1701 14.4138C49.0922 13.6647 48.5598 11.0075 43.9941 12.7341Z" fill="#F66868"/>
</svg>
