<svg width="380" height="380" fill="none" xmlns="http://www.w3.org/2000/svg"><path d="M249.876 272.422v26.745c0 12.178-15.414 26.708-15.414 26.708h-34.366s-15.414-14.53-15.414-26.708v-26.745h65.194Zm-105.247-55.823c-6.591 0-11.923-5.342-11.923-11.923 0-1.604.319-3.127.893-4.521-2.78-.246-5.661.109-8.186.884a13.641 13.641 0 0 1-3.19.565c1.385-24.347-20.984-22.087-20.984-22.087s-2.67 14.84 10.337 20.565c-7.694-.155-15.597 3.828-13.591 15.925 2.023 12.242 10.446 18.659 15.742 20.209a4.456 4.456 0 0 0 4.512-1.24 4.456 4.456 0 0 1 6.527 0 4.457 4.457 0 0 0 4.512 1.24c5.214-1.523 13.737-7.776 15.642-19.635-.1.009-.191.018-.291.018ZM121.156 94.16c-7.019 17.474-2.707 38.203 12.261 51.329 14.812 12.981 35.632 14.649 51.967 5.725L121.156 94.16Z" fill="url(#a)"/><path d="M253.531 91.535a5.45 5.45 0 1 0 0-10.902 5.45 5.45 0 0 0 0 10.902ZM99.853 331.327a5.452 5.452 0 1 0 0-10.904 5.452 5.452 0 0 0 0 10.904Z" fill="#0061FF"/><path d="M217.279 283.999h-35.45a1.366 1.366 0 0 1-1.367-1.367c0-.757.611-1.368 1.367-1.368h35.45c.757 0 1.368.611 1.368 1.368 0 .756-.611 1.367-1.368 1.367ZM256.986 308.62c-7.538 0-13.682-6.135-13.682-13.682 0-7.548 6.135-13.683 13.682-13.683 7.548 0 13.683 6.135 13.683 13.683 0 7.547-6.144 13.682-13.683 13.682Zm0-24.621c-6.034 0-10.947 4.913-10.947 10.948 0 6.034 4.913 10.947 10.947 10.947 6.035 0 10.948-4.913 10.948-10.947 0-6.035-4.913-10.948-10.948-10.948ZM128.002 237.774a5.804 5.804 0 0 1-4.248-1.859 3.05 3.05 0 0 0-2.261-.985 3.05 3.05 0 0 0-2.26.985 5.803 5.803 0 0 1-5.898 1.622c-6.672-1.959-14.749-9.452-16.709-21.302-1.276-7.703 1.386-11.869 3.838-14.011 4.922-4.302 12.516-4.029 17.511-2.488 2.297.711 4.731.711 7.037 0 4.895-1.505 12.342-1.805 17.21 2.342 2.498 2.124 5.241 6.299 4.148 14.129-1.887 13.564-11.759 19.89-16.718 21.34a6.464 6.464 0 0 1-1.65.227Zm-6.509-5.578c1.614 0 3.164.674 4.267 1.85a3.06 3.06 0 0 0 3.126.857c4.366-1.276 13.081-6.909 14.776-19.088.739-5.296-.346-9.225-3.208-11.668-4.02-3.427-10.392-3.117-14.631-1.804a14.58 14.58 0 0 1-8.65 0c-4.667-1.441-11.094-1.404-14.904 1.932-2.808 2.452-3.792 6.326-2.935 11.504 2.033 12.306 10.555 17.884 14.776 19.124 1.13.328 2.324 0 3.127-.857a5.824 5.824 0 0 1 4.256-1.85ZM163.352 151.496c-22.388 0-40.61-18.212-40.61-40.609 0-22.397 18.213-40.61 40.61-40.61s40.609 18.213 40.609 40.61c0 .757-.611 1.367-1.367 1.367-.757 0-1.367-.61-1.367-1.367 0-20.884-16.992-37.875-37.875-37.875-20.884 0-37.875 16.991-37.875 37.875s16.991 37.875 37.875 37.875a37.912 37.912 0 0 0 28.513-12.944 1.37 1.37 0 1 1 2.06 1.805 40.645 40.645 0 0 1-30.573 13.873Z" fill="#6A2EA0"/><path d="M180.106 127.732c-.319 0-.638-.109-.893-.328l-17.958-15.478a1.363 1.363 0 0 1-.474-1.039v-48.13c0-.756.611-1.367 1.368-1.367.756 0 1.367.61 1.367 1.367v47.501l17.483 15.068a1.37 1.37 0 0 1 .146 1.932c-.273.31-.647.474-1.039.474ZM271.635 327.243H143.608a1.366 1.366 0 0 1-1.368-1.367c0-.757.611-1.368 1.368-1.368h128.027c.756 0 1.367.611 1.367 1.368 0 .756-.611 1.367-1.367 1.367Z" fill="#6A2EA0"/><path d="M195.201 238.768a1.366 1.366 0 0 1-1.367-1.367v-27.137c0-14.576 11.859-26.435 26.435-26.435h50.563c7.074 0 12.826-5.752 12.826-12.825 0-7.074-5.752-12.826-12.826-12.826h-15.359c-17.137 0-31.084-13.947-31.084-31.084v-27.009c0-27.328-22.233-49.552-49.552-49.552h-12.688c-.757 0-1.368-.61-1.368-1.367 0-.756.611-1.367 1.368-1.367h12.688c28.833 0 52.287 23.454 52.287 52.286v27.009c0 15.633 12.716 28.349 28.349 28.349h15.369c8.577 0 15.56 6.983 15.56 15.561 0 8.577-6.983 15.56-15.56 15.56h-50.564c-13.072 0-23.7 10.628-23.7 23.7v27.137a1.38 1.38 0 0 1-1.377 1.367ZM121.494 202.999a1.365 1.365 0 0 1-1.367-1.367v-13.929c0-.757.61-1.367 1.367-1.367.756 0 1.367.61 1.367 1.367v13.929c0 .756-.611 1.367-1.367 1.367ZM217.279 264.291c-.757 0-1.367-.61-1.367-1.367v-35.113c0-.756.61-1.367 1.367-1.367s1.367.611 1.367 1.367v35.113c0 .757-.61 1.367-1.367 1.367Z" fill="#6A2EA0"/><defs><linearGradient id="a" x1="134.383" y1="287.932" x2="214.982" y2="148.331" gradientUnits="userSpaceOnUse"><stop stop-color="#FF4C84"/><stop offset=".119" stop-color="#F94F88"/><stop offset=".274" stop-color="#E95594"/><stop offset=".449" stop-color="#CE5FA6"/><stop offset=".638" stop-color="#A96DC0"/><stop offset=".837" stop-color="#797FE0"/><stop offset="1" stop-color="#4C90FF"/></linearGradient></defs></svg>