<svg width="91" height="125" viewBox="624 37 91 125" fill="none" xmlns="http://www.w3.org/2000/svg">
<path d="M713.684 72.9091L713.782 132.854C713.729 132.862 693.822 131.673 686.965 118.814C681.627 108.81 682.441 99.111 691.383 93.1947C696.904 89.5423 698.089 84.5341 696.147 80.6618C693.785 75.963 693.651 70.7307 698.932 66.4106C704.119 62.1597 704.062 60.2093 702.336 54.749C701.99 53.6497 701.469 50.152 702.173 46.5688C706.469 50.3271 713.289 58.5195 713.684 72.9091ZM665.686 149.78C666.126 145.529 661.374 144.833 661.374 144.833C661.374 144.833 668.532 134.14 665.686 123.411C664 117.063 662.188 114.592 662.188 114.592C662.188 114.592 669.208 113.908 671.822 109.755C670.674 100.78 660.987 99.7096 660.987 99.7096V93.7078C660.987 93.7078 652.827 95.8699 653.939 109.409C653.939 109.409 655.291 117.426 649.439 117.426C641.74 117.426 634.044 120.248 634.199 135.114C634.199 140.501 637.546 149.78 637.546 149.78H665.686Z" fill="url(#paint0_linear_appointment)"/>
<path d="M713.59 123.256C713.44 123.256 713.289 123.199 713.171 123.09L695.129 105.956C694.885 105.723 694.876 105.337 695.109 105.092C695.341 104.848 695.727 104.84 695.972 105.072L714.014 122.206C714.258 122.438 714.266 122.825 714.034 123.069C713.916 123.195 713.753 123.256 713.59 123.256Z" fill="#6A2EA0"/>
<path d="M713.786 161.087H644.517C644.179 161.087 643.906 160.815 643.906 160.477C643.906 160.139 644.179 159.866 644.517 159.866H713.175V72.6037C713.175 53.845 697.914 38.5799 679.151 38.5799C660.389 38.5799 645.128 53.845 645.128 72.6037V101.029C645.128 101.367 644.855 101.639 644.517 101.639C644.179 101.639 643.906 101.367 643.906 101.029V72.6037C643.906 53.1691 659.717 37.3584 679.151 37.3584C698.586 37.3584 714.397 53.1691 714.397 72.6037V160.477C714.397 160.815 714.12 161.087 713.786 161.087Z" fill="#6A2EA0"/>
<path d="M662.188 115.198C661.879 115.198 661.61 114.962 661.582 114.649C661.549 114.315 661.793 114.014 662.131 113.981C662.2 113.973 668.886 113.273 671.309 109.425C671.488 109.14 671.867 109.054 672.152 109.233C672.437 109.412 672.522 109.791 672.343 110.076C669.599 114.437 662.551 115.17 662.249 115.198C662.229 115.198 662.209 115.198 662.188 115.198Z" fill="#6A2EA0"/>
<path d="M637.554 150.391C637.306 150.391 637.07 150.236 636.98 149.988C636.842 149.605 633.596 140.545 633.596 135.113C633.527 128.566 634.997 123.721 637.965 120.724C640.567 118.093 644.325 116.815 649.448 116.815C650.681 116.815 651.602 116.432 652.269 115.646C654.004 113.598 653.353 109.547 653.344 109.506C653.34 109.49 653.34 109.473 653.336 109.453C652.196 95.5643 660.482 93.2068 660.836 93.1131C661.02 93.0642 661.215 93.105 661.366 93.219C661.516 93.333 661.602 93.5121 661.602 93.7035V99.7053C661.602 100.043 661.329 100.316 660.991 100.316C660.653 100.316 660.38 100.043 660.38 99.7053V94.5912C658.459 95.5032 653.699 98.8462 654.55 109.327C654.619 109.746 655.238 114.018 653.202 116.428C652.302 117.491 651.04 118.032 649.448 118.032C644.667 118.032 641.198 119.193 638.837 121.579C636.109 124.335 634.757 128.888 634.818 135.105C634.818 140.333 638.096 149.483 638.128 149.572C638.242 149.89 638.079 150.24 637.762 150.354C637.693 150.379 637.623 150.391 637.554 150.391Z" fill="#6A2EA0"/>
<path d="M651.292 150.391C651.219 150.391 651.146 150.379 651.076 150.35C650.763 150.232 650.6 149.878 650.722 149.564C653.654 141.812 653.943 136.176 651.553 133.265C649.102 130.28 644.545 131.005 644.496 131.013C644.163 131.066 643.849 130.846 643.792 130.512C643.735 130.178 643.959 129.865 644.289 129.808C644.505 129.771 649.578 128.949 652.485 132.483C655.217 135.798 655.006 141.689 651.862 149.996C651.773 150.24 651.541 150.391 651.292 150.391Z" fill="#6A2EA0"/>
<path d="M637.554 150.391C637.436 150.391 637.318 150.358 637.212 150.285C626.304 142.903 624.903 130.113 629.154 121.298C634.313 110.597 634.329 101.428 629.203 94.0496C629.011 93.7728 629.081 93.3941 629.358 93.1986C629.634 93.0073 630.017 93.0724 630.209 93.3534C635.608 101.122 635.624 110.703 630.257 121.831C626.235 130.174 627.566 142.284 637.9 149.275C638.181 149.462 638.254 149.845 638.063 150.122C637.941 150.293 637.75 150.391 637.554 150.391Z" fill="#6A2EA0"/>
<path d="M713.786 150.501H624.158C623.82 150.501 623.547 150.228 623.547 149.89C623.547 149.552 623.82 149.279 624.158 149.279H713.786C714.124 149.279 714.397 149.552 714.397 149.89C714.397 150.228 714.12 150.501 713.786 150.501Z" fill="#6A2EA0"/>
<path d="M681.517 59.0812C682.551 59.0812 683.39 58.2427 683.39 57.2082C683.39 56.1738 682.551 55.3352 681.517 55.3352C680.483 55.3352 679.644 56.1738 679.644 57.2082C679.644 58.2427 680.483 59.0812 681.517 59.0812Z" fill="#0061FF"/>
<path d="M713.59 86.5007C713.44 86.5007 713.289 86.4437 713.171 86.3338L688.81 63.198C688.565 62.9659 688.557 62.579 688.789 62.3347C689.021 62.0904 689.408 62.0823 689.652 62.3144L714.014 85.4502C714.258 85.6823 714.266 86.0691 714.034 86.3134C713.916 86.4356 713.753 86.5007 713.59 86.5007Z" fill="#6A2EA0"/>
<defs>
  <linearGradient id="paint0_linear_appointment" x1="634.203" y1="98.1725" x2="713.784" y2="98.1725" gradientUnits="userSpaceOnUse">
    <stop stop-color="#FF4C84"/>
    <stop offset="1" stop-color="#4C90FF"/>
  </linearGradient>
</defs>
</svg>
