<svg xmlns="http://www.w3.org/2000/svg" width="104" height="164" viewBox="0 0 104 164" fill="none">
  <path d="M45.8973 134.453C35.2065 130.58 19.5756 125.379 3.03833 131.013C5.47058 108.761 25.1955 94.1571 39.8243 88.5624C31.893 80.8325 44.0643 69.5827 44.0643 69.5827C67.1732 73.0272 73.5183 65.957 73.5183 65.957C73.5183 65.957 76.6757 70.8719 82.9854 72.8308C83.912 82.2627 83.1868 91.2615 81.8775 98.9511L82.1243 95.0433C70.5824 97.8734 58.2046 92.8679 58.2046 92.8679C56.9306 105.498 60.9441 120.151 60.9441 120.151C55.4199 123.797 49.3619 130.399 45.8973 134.453ZM62.0922 137.721C68.8602 138.25 75.1196 137.771 78.272 136.241L75.1398 122.564L62.0922 137.721Z" fill="url(#paint0_linear_1182_3402)"/>
  <path d="M4.53404 148.553C4.18154 148.553 3.86932 148.306 3.79379 147.949C0.580997 132.428 3.20964 118.983 11.6092 107.975C17.7226 99.9582 26.7919 93.3312 38.5755 88.2652C36.7929 86.0143 36.0929 83.4763 36.5058 80.7016C38.082 70.0863 55.4905 59.3602 58.386 57.643V45.7084C58.386 45.2904 58.7234 44.953 59.1414 44.953C59.5593 44.953 59.8967 45.2904 59.8967 45.7084V58.0761C59.8967 58.348 59.7507 58.5948 59.5191 58.7307C59.3176 58.8466 39.5776 70.3129 38.0014 80.9231C37.6036 83.587 38.3841 85.9136 40.3732 88.0386C40.5445 88.2199 40.615 88.4717 40.5596 88.7134C40.5092 88.9551 40.343 89.1565 40.1114 89.2522C20.4117 97.4856 -1.62968 114.295 5.27429 147.646C5.3599 148.054 5.09804 148.452 4.69014 148.538C4.63475 148.548 4.58439 148.553 4.53404 148.553Z" fill="#6A2EA0"/>
  <path d="M78.5894 160.729C78.5592 160.729 78.529 160.729 78.5038 160.724C78.0909 160.674 77.7938 160.301 77.8391 159.888C78.9167 150.617 79.1987 136.658 74.4249 122.81C74.3594 122.624 74.3695 122.427 74.4551 122.246C77.6276 115.347 82.8597 99.7516 82.2302 72.8458C82.2202 72.4278 82.5525 72.0804 82.9655 72.0753C83.3885 72.0753 83.7309 72.3976 83.7359 72.8105C84.3704 99.6711 79.1887 115.448 75.9507 122.599C80.7145 136.618 80.4275 150.693 79.3397 160.059C79.2944 160.447 78.9721 160.729 78.5894 160.729Z" fill="#6A2EA0"/>
  <path d="M19.178 148.82C18.9362 148.82 18.6945 148.704 18.5485 148.482C18.3169 148.135 18.4075 147.667 18.755 147.435C18.9413 147.309 23.3727 144.373 28.5746 143.648C31.5759 143.23 35.534 144.237 36.9641 144.65C39.3309 141.312 53.6726 121.566 65.139 117.014C65.5267 116.858 65.9648 117.049 66.1209 117.437C66.2771 117.825 66.0857 118.263 65.6979 118.419C53.8489 123.123 38.0518 145.733 37.8907 145.959C37.6993 146.231 37.3569 146.347 37.0397 146.247C36.9893 146.231 32.0845 144.68 28.7861 145.144C23.9216 145.824 19.6412 148.664 19.5959 148.694C19.47 148.779 19.324 148.82 19.178 148.82Z" fill="#6A2EA0"/>
  <path d="M15.7032 155.683C12.4199 155.683 10.1337 155.336 9.94237 155.306C9.52944 155.24 9.24744 154.852 9.31291 154.445C9.37837 154.032 9.76612 153.75 10.174 153.815C10.2647 153.83 19.5707 155.23 27.8192 152.259C28.212 152.118 28.645 152.319 28.786 152.712C28.927 153.105 28.7256 153.538 28.3328 153.679C23.8762 155.286 19.2182 155.683 15.7032 155.683Z" fill="#6A2EA0"/>
  <path d="M16.0004 159.848C14.54 159.848 13.5933 159.787 13.4825 159.777C13.0646 159.747 12.7524 159.39 12.7775 158.972C12.8078 158.554 13.1653 158.242 13.5833 158.267C13.6638 158.272 21.7562 158.79 28.3581 156.645C28.7559 156.519 29.1789 156.736 29.3098 157.129C29.4407 157.526 29.2192 157.949 28.8264 158.08C24.1935 159.591 19.0017 159.848 16.0004 159.848Z" fill="#6A2EA0"/>
  <path d="M18.5032 163.705C17.3853 163.705 16.7054 163.645 16.5896 163.635C16.1767 163.594 15.8695 163.227 15.9098 162.814C15.9501 162.401 16.3177 162.094 16.7306 162.134C16.8616 162.144 29.7882 163.227 42.3423 154.636C59.1213 143.16 74.3795 122.327 74.5306 122.115C74.7774 121.778 75.2507 121.702 75.5881 121.949C75.9255 122.196 76.001 122.669 75.7543 123.007C75.5982 123.218 60.1939 144.257 43.1984 155.885C32.9305 162.905 22.6627 163.705 18.5032 163.705Z" fill="#6A2EA0"/>
  <path d="M60.9341 120.217C60.6118 120.217 60.3097 120.005 60.2089 119.678C58.3961 113.696 57.4645 104.581 57.4393 92.5808C57.4192 83.6675 57.9328 76.406 57.9378 76.3355C57.9681 75.9176 58.3357 75.6054 58.7435 75.6356C59.1615 75.6658 59.4737 76.0284 59.4435 76.4413C59.4234 76.7283 57.4292 105.286 61.6542 119.24C61.775 119.638 61.5484 120.061 61.1506 120.182C61.0801 120.207 61.0096 120.217 60.9341 120.217Z" fill="#6A2EA0"/>
  <path d="M53.1639 48.3723C51.5877 48.3723 50.1374 47.8788 48.808 46.8968C46.6426 45.2904 44.7543 42.0222 43.6262 37.9232C42.3824 33.4112 42.2112 28.3402 43.1428 23.6469C43.2234 23.239 43.6212 22.9721 44.0291 23.0527C44.437 23.1333 44.7039 23.5311 44.6233 23.939C42.5939 34.1564 46.275 43.1301 49.7094 45.6832C53.1891 48.2615 57.7363 46.6601 63.6181 40.7784C63.9152 40.4813 64.3936 40.4813 64.6856 40.7784C64.9827 41.0755 64.9827 41.5539 64.6856 41.846C60.3348 46.1918 56.4824 48.3723 53.1639 48.3723Z" fill="#6A2EA0"/>
  <path d="M86.4198 73.3545C79.7576 73.3545 73.76 69.3964 71.1465 63.2679C70.9803 62.8852 71.1616 62.4421 71.5443 62.2759C71.927 62.1147 72.3702 62.291 72.5363 62.6737C74.9182 68.2432 80.3669 71.8437 86.4249 71.8437C94.7489 71.8437 101.517 65.0707 101.517 56.7517C101.517 48.4327 94.7439 41.6596 86.4249 41.6596C83.207 41.6596 80.1403 42.6567 77.5469 44.5451C77.2095 44.7919 76.7361 44.7163 76.4894 44.3789C76.2426 44.0415 76.3182 43.5682 76.6556 43.3214C79.5058 41.2467 82.8848 40.1489 86.4198 40.1489C95.5748 40.1489 103.023 47.5968 103.023 56.7517C103.023 65.9066 95.5748 73.3545 86.4198 73.3545Z" fill="#6A2EA0"/>
  <path d="M45.2729 7.61816C47.1057 7.61816 48.5914 6.1324 48.5914 4.29962C48.5914 2.46684 47.1057 0.981079 45.2729 0.981079C43.4401 0.981079 41.9543 2.46684 41.9543 4.29962C41.9543 6.1324 43.4401 7.61816 45.2729 7.61816Z" fill="#0061FF"/>
  <path d="M72.3601 57.638C70.4214 57.638 68.5481 57.0287 67.0021 56.0316C62.9886 53.4483 60.1737 47.637 63.4721 40.9798C64.7612 38.3763 64.9123 36.0347 63.9202 34.0255C62.4599 31.0645 58.4464 28.8639 52.3129 27.6603C48.6671 26.9453 45.696 25.8576 43.4752 24.4324C38.5856 21.2952 37.095 16.4508 39.2805 10.7957C39.4315 10.408 39.8697 10.2116 40.2574 10.3626C40.6452 10.5137 40.8416 10.9518 40.6905 11.3396C39.3459 14.8142 38.8827 19.6888 44.291 23.1584C46.3506 24.4828 49.1455 25.495 52.605 26.1748C59.3126 27.4891 63.5778 29.9063 65.2749 33.3507C66.4683 35.7729 66.3173 38.6432 64.8267 41.6445C62.8023 45.7285 62.8779 51.575 67.8179 54.7575C70.648 56.5805 75.2103 57.1747 78.7353 52.854C78.9972 52.5318 79.4756 52.4814 79.7979 52.7483C80.1202 53.0102 80.1705 53.4885 79.9036 53.8108C77.6778 56.5402 74.9585 57.638 72.3601 57.638Z" fill="#6A2EA0"/>
  <path d="M86.4351 66.2842C86.0171 66.2842 85.6797 65.9468 85.6797 65.5289C85.6797 65.1109 86.0171 64.7735 86.4351 64.7735C90.5241 64.7735 93.8527 61.4449 93.8527 57.3559C93.8527 53.2669 90.5241 49.9383 86.4351 49.9383C83.7661 49.9383 81.2936 51.3835 79.9742 53.705C79.7678 54.0676 79.3095 54.1935 78.9469 53.992C78.5844 53.7856 78.4585 53.3273 78.6649 52.9648C80.2512 50.1699 83.2273 48.4326 86.4351 48.4326C91.36 48.4326 95.3634 52.436 95.3634 57.3609C95.3634 62.2859 91.36 66.2842 86.4351 66.2842Z" fill="#6A2EA0"/>
  <path d="M28.5947 124.386C28.5141 124.386 28.4335 124.371 28.353 124.346C14.7213 119.693 1.47229 123.253 1.33633 123.289C0.933469 123.399 0.52054 123.163 0.404718 122.76C0.293932 122.357 0.530611 121.944 0.933469 121.833C1.49243 121.677 14.7515 118.112 28.8364 122.916C29.2292 123.052 29.4407 123.48 29.3097 123.873C29.204 124.19 28.9069 124.386 28.5947 124.386Z" fill="#6A2EA0"/>
  <defs>
    <linearGradient id="paint0_linear_1182_3402" x1="29.2666" y1="78.1214" x2="66.6828" y2="142.928" gradientUnits="userSpaceOnUse">
      <stop stop-color="#FF4C84"/>
      <stop offset="0.1493" stop-color="#EB5492"/>
      <stop offset="0.4559" stop-color="#B668B6"/>
      <stop offset="0.8895" stop-color="#6388F0"/>
      <stop offset="1" stop-color="#4C90FF"/>
    </linearGradient>
  </defs>
</svg>