<svg width="432" height="445" fill="none" xmlns="http://www.w3.org/2000/svg"><path d="M244.614 98.2a1.575 1.575 0 1 0 .001-3.151 1.575 1.575 0 0 0-.001 3.15ZM206.794 98.2a1.575 1.575 0 1 0 .001-3.151 1.575 1.575 0 0 0-.001 3.15ZM168.972 98.2a1.575 1.575 0 1 0 .002-3.15 1.575 1.575 0 0 0-.002 3.15ZM244.614 135.987a1.576 1.576 0 1 0 0-3.151 1.576 1.576 0 0 0 0 3.151ZM244.614 192.668a1.576 1.576 0 1 0 0-3.151 1.576 1.576 0 0 0 0 3.151ZM206.794 135.987a1.576 1.576 0 1 0 0-3.151 1.576 1.576 0 0 0 0 3.151ZM168.972 135.987a1.575 1.575 0 1 0 .002-3.15 1.575 1.575 0 0 0-.002 3.15ZM206.794 192.668a1.576 1.576 0 1 0 0-3.151 1.576 1.576 0 0 0 0 3.151ZM168.972 192.668a1.575 1.575 0 1 0 .002-3.15 1.575 1.575 0 0 0-.002 3.15ZM225.704 98.2a1.575 1.575 0 1 0 .001-3.151 1.575 1.575 0 0 0-.001 3.15ZM187.883 98.2a1.575 1.575 0 1 0 0-3.15 1.575 1.575 0 0 0 0 3.15ZM150.062 98.2a1.575 1.575 0 1 0 .002-3.15 1.575 1.575 0 0 0-.002 3.15ZM131.152 98.2a1.575 1.575 0 1 0 .001-3.151 1.575 1.575 0 0 0-.001 3.15ZM225.704 135.987a1.576 1.576 0 1 0 0-3.151 1.576 1.576 0 0 0 0 3.151ZM225.704 192.668a1.576 1.576 0 1 0 0-3.151 1.576 1.576 0 0 0 0 3.151ZM187.883 135.987a1.575 1.575 0 1 0 0-3.15 1.575 1.575 0 0 0 0 3.15ZM150.062 135.987a1.575 1.575 0 1 0 .002-3.15 1.575 1.575 0 0 0-.002 3.15ZM131.152 135.987a1.576 1.576 0 1 0 0-3.151 1.576 1.576 0 0 0 0 3.151ZM187.883 192.668a1.575 1.575 0 1 0 0-3.15 1.575 1.575 0 0 0 0 3.15ZM150.062 192.668a1.575 1.575 0 1 0 .002-3.15 1.575 1.575 0 0 0-.002 3.15ZM131.152 192.668a1.576 1.576 0 1 0 0-3.151 1.576 1.576 0 0 0 0 3.151ZM244.614 117.093a1.575 1.575 0 1 0 .001-3.15 1.575 1.575 0 0 0-.001 3.15ZM244.614 173.774a1.576 1.576 0 1 0 0-3.151 1.576 1.576 0 0 0 0 3.151ZM206.794 117.093a1.575 1.575 0 1 0 .001-3.15 1.575 1.575 0 0 0-.001 3.15ZM168.972 117.093a1.575 1.575 0 1 0-1.576-1.574c0 .869.706 1.574 1.576 1.574ZM206.794 173.774a1.576 1.576 0 1 0 0-3.151 1.576 1.576 0 0 0 0 3.151ZM168.972 173.774a1.575 1.575 0 1 0 .002-3.15 1.575 1.575 0 0 0-.002 3.15ZM244.614 154.88a1.575 1.575 0 1 0 .001-3.15 1.575 1.575 0 0 0-.001 3.15ZM244.614 211.561a1.575 1.575 0 1 0 .001-3.15 1.575 1.575 0 0 0-.001 3.15ZM206.794 154.88a1.575 1.575 0 1 0 .001-3.15 1.575 1.575 0 0 0-.001 3.15ZM168.972 154.88a1.575 1.575 0 1 0-1.576-1.574c0 .869.706 1.574 1.576 1.574ZM206.794 211.561a1.575 1.575 0 1 0 .001-3.15 1.575 1.575 0 0 0-.001 3.15ZM168.972 211.561a1.575 1.575 0 1 0-1.576-1.574c0 .869.706 1.574 1.576 1.574ZM225.704 117.093a1.575 1.575 0 1 0 .001-3.15 1.575 1.575 0 0 0-.001 3.15ZM225.704 173.774a1.576 1.576 0 1 0 0-3.151 1.576 1.576 0 0 0 0 3.151ZM187.883 117.093a1.575 1.575 0 1 0 0-3.15 1.575 1.575 0 0 0 0 3.15ZM150.062 117.093a1.575 1.575 0 1 0-1.576-1.574c0 .869.706 1.574 1.576 1.574ZM131.152 117.093a1.575 1.575 0 1 0 .001-3.15 1.575 1.575 0 0 0-.001 3.15ZM187.883 173.774a1.575 1.575 0 1 0 0-3.15 1.575 1.575 0 0 0 0 3.15ZM150.062 173.774a1.575 1.575 0 1 0 .002-3.15 1.575 1.575 0 0 0-.002 3.15ZM131.152 173.774a1.576 1.576 0 1 0 0-3.151 1.576 1.576 0 0 0 0 3.151ZM225.704 154.88a1.575 1.575 0 1 0 .001-3.15 1.575 1.575 0 0 0-.001 3.15ZM225.704 211.561a1.575 1.575 0 1 0 .001-3.15 1.575 1.575 0 0 0-.001 3.15ZM187.883 154.88a1.575 1.575 0 1 0 0-3.15 1.575 1.575 0 0 0 0 3.15ZM150.062 154.88a1.575 1.575 0 1 0-1.576-1.574c0 .869.706 1.574 1.576 1.574ZM131.152 154.88a1.575 1.575 0 1 0 .001-3.15 1.575 1.575 0 0 0-.001 3.15ZM187.883 211.561a1.575 1.575 0 1 0 0-3.15 1.575 1.575 0 0 0 0 3.15ZM150.062 211.561a1.575 1.575 0 1 0-1.576-1.574c0 .869.706 1.574 1.576 1.574ZM131.152 211.561a1.575 1.575 0 1 0 .001-3.15 1.575 1.575 0 0 0-.001 3.15ZM263.525 98.2a1.575 1.575 0 1 0 .001-3.151 1.575 1.575 0 0 0-.001 3.15ZM263.525 135.987a1.576 1.576 0 1 0 0-3.151 1.576 1.576 0 0 0 0 3.151ZM263.525 192.668a1.576 1.576 0 1 0 0-3.151 1.576 1.576 0 0 0 0 3.151ZM263.525 117.093a1.575 1.575 0 1 0 .001-3.15 1.575 1.575 0 0 0-.001 3.15ZM263.525 173.774a1.576 1.576 0 1 0 0-3.151 1.576 1.576 0 0 0 0 3.151ZM263.525 154.88a1.575 1.575 0 1 0 .001-3.15 1.575 1.575 0 0 0-.001 3.15ZM263.525 211.561a1.575 1.575 0 1 0 .001-3.15 1.575 1.575 0 0 0-.001 3.15ZM112.241 98.2a1.575 1.575 0 1 0 .001-3.151 1.575 1.575 0 0 0-.001 3.15ZM74.42 98.2a1.575 1.575 0 1 0 .002-3.15 1.575 1.575 0 0 0-.001 3.15ZM36.6 98.2a1.575 1.575 0 1 0 0-3.15 1.575 1.575 0 0 0 0 3.15ZM112.241 135.987a1.576 1.576 0 1 0 0-3.151 1.576 1.576 0 0 0 0 3.151ZM112.241 192.668a1.576 1.576 0 1 0 0-3.151 1.576 1.576 0 0 0 0 3.151ZM74.42 135.987a1.575 1.575 0 1 0 .002-3.15 1.575 1.575 0 0 0-.001 3.15ZM36.6 135.987a1.575 1.575 0 1 0 0-3.15 1.575 1.575 0 0 0 0 3.15ZM74.42 192.668a1.575 1.575 0 1 0 .002-3.15 1.575 1.575 0 0 0-.001 3.15ZM36.6 192.668a1.575 1.575 0 1 0 0-3.15 1.575 1.575 0 0 0 0 3.15ZM93.33 98.2a1.575 1.575 0 1 0 .002-3.15 1.575 1.575 0 0 0-.001 3.15ZM55.51 98.2a1.575 1.575 0 1 0 .002-3.15 1.575 1.575 0 0 0-.002 3.15ZM17.69 98.2a1.575 1.575 0 1 0 0-3.15 1.575 1.575 0 0 0 0 3.15ZM93.33 135.987a1.575 1.575 0 1 0 .002-3.15 1.575 1.575 0 0 0-.001 3.15ZM93.33 192.668a1.575 1.575 0 1 0 .002-3.15 1.575 1.575 0 0 0-.001 3.15ZM55.51 135.987a1.575 1.575 0 1 0 .002-3.15 1.575 1.575 0 0 0-.002 3.15ZM17.69 135.987a1.575 1.575 0 1 0 0-3.15 1.575 1.575 0 0 0 0 3.15ZM55.51 192.668a1.575 1.575 0 1 0 .002-3.15 1.575 1.575 0 0 0-.002 3.15ZM17.69 192.668a1.575 1.575 0 1 0 0-3.15 1.575 1.575 0 0 0 0 3.15ZM112.241 117.093a1.575 1.575 0 1 0 .001-3.15 1.575 1.575 0 0 0-.001 3.15ZM112.241 173.774a1.576 1.576 0 1 0 0-3.151 1.576 1.576 0 0 0 0 3.151ZM74.42 117.093a1.575 1.575 0 1 0 .002-3.15 1.575 1.575 0 0 0-.001 3.15ZM36.6 117.093a1.575 1.575 0 1 0 0-3.15 1.575 1.575 0 0 0 0 3.15ZM74.42 173.774a1.575 1.575 0 1 0 .002-3.15 1.575 1.575 0 0 0-.001 3.15ZM36.6 173.774a1.575 1.575 0 1 0 0-3.15 1.575 1.575 0 0 0 0 3.15ZM112.241 154.88a1.575 1.575 0 1 0 .001-3.15 1.575 1.575 0 0 0-.001 3.15ZM112.241 211.561a1.575 1.575 0 1 0 .001-3.15 1.575 1.575 0 0 0-.001 3.15ZM74.42 154.88a1.575 1.575 0 1 0 .002-3.15 1.575 1.575 0 0 0-.001 3.15ZM36.6 154.88a1.575 1.575 0 1 0 0-3.15 1.575 1.575 0 0 0 0 3.15ZM74.42 211.561a1.575 1.575 0 1 0 .002-3.15 1.575 1.575 0 0 0-.001 3.15ZM36.6 211.561a1.575 1.575 0 1 0 0-3.15 1.575 1.575 0 0 0 0 3.15ZM93.33 117.093a1.575 1.575 0 1 0 .002-3.15 1.575 1.575 0 0 0-.001 3.15ZM93.33 173.774a1.575 1.575 0 1 0 .002-3.15 1.575 1.575 0 0 0-.001 3.15ZM55.51 117.093a1.575 1.575 0 1 0 .002-3.15 1.575 1.575 0 0 0-.002 3.15ZM17.69 117.093a1.575 1.575 0 1 0 0-3.15 1.575 1.575 0 0 0 0 3.15ZM55.51 173.774a1.575 1.575 0 1 0 .002-3.15 1.575 1.575 0 0 0-.002 3.15ZM17.69 173.774a1.575 1.575 0 1 0 0-3.15 1.575 1.575 0 0 0 0 3.15ZM93.33 154.88a1.575 1.575 0 1 0 .002-3.15 1.575 1.575 0 0 0-.001 3.15ZM93.33 211.561a1.575 1.575 0 1 0 .002-3.15 1.575 1.575 0 0 0-.001 3.15ZM55.51 154.88a1.575 1.575 0 1 0 .002-3.15 1.575 1.575 0 0 0-.002 3.15ZM17.69 154.88a1.575 1.575 0 1 0 0-3.15 1.575 1.575 0 0 0 0 3.15ZM55.51 211.561a1.575 1.575 0 1 0 .002-3.15 1.575 1.575 0 0 0-.002 3.15ZM17.69 211.561a1.575 1.575 0 1 0 0-3.15 1.575 1.575 0 0 0 0 3.15ZM244.614 230.455a1.576 1.576 0 1 0 0-3.151 1.576 1.576 0 0 0 0 3.151ZM206.794 230.455a1.576 1.576 0 1 0 0-3.151 1.576 1.576 0 0 0 0 3.151ZM168.972 230.455a1.575 1.575 0 1 0 .002-3.15 1.575 1.575 0 0 0-.002 3.15ZM244.614 268.242a1.575 1.575 0 1 0 .001-3.15 1.575 1.575 0 0 0-.001 3.15ZM244.614 324.923a1.575 1.575 0 1 0 .001-3.15 1.575 1.575 0 0 0-.001 3.15ZM206.794 268.242a1.575 1.575 0 1 0 .001-3.15 1.575 1.575 0 0 0-.001 3.15ZM168.972 268.242a1.575 1.575 0 1 0-1.576-1.574c0 .869.706 1.574 1.576 1.574ZM206.794 324.923a1.575 1.575 0 1 0 .001-3.15 1.575 1.575 0 0 0-.001 3.15ZM168.972 324.923a1.575 1.575 0 1 0-1.576-1.574c0 .869.706 1.574 1.576 1.574ZM225.704 230.455a1.576 1.576 0 1 0 0-3.151 1.576 1.576 0 0 0 0 3.151ZM187.883 230.455a1.575 1.575 0 1 0 0-3.15 1.575 1.575 0 0 0 0 3.15ZM150.062 230.455a1.575 1.575 0 1 0 .002-3.15 1.575 1.575 0 0 0-.002 3.15ZM131.152 230.455a1.576 1.576 0 1 0 0-3.151 1.576 1.576 0 0 0 0 3.151ZM225.704 268.242a1.575 1.575 0 1 0 .001-3.15 1.575 1.575 0 0 0-.001 3.15ZM225.704 324.923a1.575 1.575 0 1 0 .001-3.15 1.575 1.575 0 0 0-.001 3.15ZM187.883 268.242a1.575 1.575 0 1 0 0-3.15 1.575 1.575 0 0 0 0 3.15ZM150.062 268.242a1.575 1.575 0 1 0-1.576-1.574c0 .869.706 1.574 1.576 1.574ZM131.152 268.242a1.575 1.575 0 1 0 .001-3.15 1.575 1.575 0 0 0-.001 3.15ZM187.883 324.923a1.575 1.575 0 1 0 0-3.15 1.575 1.575 0 0 0 0 3.15ZM150.062 324.923a1.575 1.575 0 1 0-1.576-1.574c0 .869.706 1.574 1.576 1.574ZM131.152 324.923a1.575 1.575 0 1 0 .001-3.15 1.575 1.575 0 0 0-.001 3.15ZM244.614 249.349a1.576 1.576 0 1 0 0-3.151 1.576 1.576 0 0 0 0 3.151ZM244.614 306.029a1.575 1.575 0 1 0 .001-3.15 1.575 1.575 0 0 0-.001 3.15ZM206.794 249.349a1.576 1.576 0 1 0 0-3.151 1.576 1.576 0 0 0 0 3.151ZM168.972 249.349a1.575 1.575 0 1 0 .002-3.15 1.575 1.575 0 0 0-.002 3.15ZM206.794 306.029a1.575 1.575 0 1 0 .001-3.15 1.575 1.575 0 0 0-.001 3.15ZM168.972 306.029a1.575 1.575 0 1 0-1.576-1.574c0 .869.706 1.574 1.576 1.574ZM244.614 287.136a1.576 1.576 0 1 0 0-3.151 1.576 1.576 0 0 0 0 3.151ZM244.614 343.817a1.576 1.576 0 1 0 0-3.151 1.576 1.576 0 0 0 0 3.151ZM206.794 287.136a1.576 1.576 0 1 0 0-3.151 1.576 1.576 0 0 0 0 3.151ZM168.972 287.136a1.575 1.575 0 1 0 .002-3.15 1.575 1.575 0 0 0-.002 3.15ZM206.794 343.817a1.576 1.576 0 1 0 0-3.151 1.576 1.576 0 0 0 0 3.151ZM168.972 343.817a1.575 1.575 0 1 0 .002-3.15 1.575 1.575 0 0 0-.002 3.15ZM225.704 249.349a1.576 1.576 0 1 0 0-3.151 1.576 1.576 0 0 0 0 3.151ZM225.704 306.029a1.575 1.575 0 1 0 .001-3.15 1.575 1.575 0 0 0-.001 3.15ZM187.883 249.349a1.575 1.575 0 1 0 0-3.15 1.575 1.575 0 0 0 0 3.15ZM150.062 249.349a1.575 1.575 0 1 0 .002-3.15 1.575 1.575 0 0 0-.002 3.15ZM131.152 249.349a1.576 1.576 0 1 0 0-3.151 1.576 1.576 0 0 0 0 3.151ZM187.883 306.029a1.575 1.575 0 1 0 0-3.15 1.575 1.575 0 0 0 0 3.15ZM150.062 306.029a1.575 1.575 0 1 0-1.576-1.574c0 .869.706 1.574 1.576 1.574ZM131.152 306.029a1.575 1.575 0 1 0 .001-3.15 1.575 1.575 0 0 0-.001 3.15ZM225.704 287.136a1.576 1.576 0 1 0 0-3.151 1.576 1.576 0 0 0 0 3.151ZM225.704 343.817a1.576 1.576 0 1 0 0-3.151 1.576 1.576 0 0 0 0 3.151ZM187.883 287.136a1.575 1.575 0 1 0 0-3.15 1.575 1.575 0 0 0 0 3.15ZM150.062 287.136a1.575 1.575 0 1 0 .002-3.15 1.575 1.575 0 0 0-.002 3.15ZM131.152 287.136a1.576 1.576 0 1 0 0-3.151 1.576 1.576 0 0 0 0 3.151ZM187.883 343.817a1.575 1.575 0 1 0 0-3.15 1.575 1.575 0 0 0 0 3.15ZM150.062 343.817a1.575 1.575 0 1 0 .002-3.15 1.575 1.575 0 0 0-.002 3.15ZM131.152 343.817a1.576 1.576 0 1 0 0-3.151 1.576 1.576 0 0 0 0 3.151ZM263.525 230.455a1.576 1.576 0 1 0 0-3.151 1.576 1.576 0 0 0 0 3.151ZM263.525 268.242a1.575 1.575 0 1 0 .001-3.15 1.575 1.575 0 0 0-.001 3.15ZM263.525 324.923a1.575 1.575 0 1 0 .001-3.15 1.575 1.575 0 0 0-.001 3.15ZM263.525 249.349a1.576 1.576 0 1 0 0-3.151 1.576 1.576 0 0 0 0 3.151ZM263.525 306.029a1.575 1.575 0 1 0 .001-3.15 1.575 1.575 0 0 0-.001 3.15ZM263.525 287.136a1.576 1.576 0 1 0 0-3.151 1.576 1.576 0 0 0 0 3.151ZM263.525 343.817a1.576 1.576 0 1 0 0-3.151 1.576 1.576 0 0 0 0 3.151ZM244.614 60.412a1.576 1.576 0 1 0 0-3.15 1.576 1.576 0 0 0 0 3.15ZM206.794 60.412a1.576 1.576 0 1 0 0-3.15 1.576 1.576 0 0 0 0 3.15ZM168.972 60.412a1.575 1.575 0 1 0 .002-3.15 1.575 1.575 0 0 0-.002 3.15ZM225.704 60.412a1.576 1.576 0 1 0 0-3.15 1.576 1.576 0 0 0 0 3.15ZM187.883 60.412a1.575 1.575 0 1 0 0-3.149 1.575 1.575 0 0 0 0 3.15ZM150.062 60.412a1.575 1.575 0 1 0 .002-3.15 1.575 1.575 0 0 0-.002 3.15ZM131.152 60.412a1.576 1.576 0 1 0 0-3.15 1.576 1.576 0 0 0 0 3.15ZM244.614 41.519a1.575 1.575 0 1 0 .001-3.151 1.575 1.575 0 0 0-.001 3.15ZM206.794 41.519a1.575 1.575 0 1 0 .001-3.151 1.575 1.575 0 0 0-.001 3.15ZM168.972 41.519a1.575 1.575 0 1 0 .002-3.15 1.575 1.575 0 0 0-.002 3.15ZM244.614 79.306a1.575 1.575 0 1 0 .001-3.151 1.575 1.575 0 0 0-.001 3.15ZM206.794 79.306a1.575 1.575 0 1 0 .001-3.151 1.575 1.575 0 0 0-.001 3.15ZM168.972 79.306a1.575 1.575 0 1 0 .002-3.15 1.575 1.575 0 0 0-.002 3.15ZM225.704 41.519a1.575 1.575 0 1 0 .001-3.151 1.575 1.575 0 0 0-.001 3.15ZM187.883 41.519a1.575 1.575 0 1 0 0-3.15 1.575 1.575 0 0 0 0 3.15ZM150.062 41.519a1.575 1.575 0 1 0 .002-3.15 1.575 1.575 0 0 0-.002 3.15ZM131.152 41.519a1.575 1.575 0 1 0 .001-3.151 1.575 1.575 0 0 0-.001 3.15ZM225.704 79.306a1.575 1.575 0 1 0 .001-3.151 1.575 1.575 0 0 0-.001 3.15ZM187.883 79.306a1.575 1.575 0 1 0 0-3.15 1.575 1.575 0 0 0 0 3.15ZM150.062 79.306a1.575 1.575 0 1 0 .002-3.15 1.575 1.575 0 0 0-.002 3.15ZM131.152 79.306a1.575 1.575 0 1 0 .001-3.151 1.575 1.575 0 0 0-.001 3.15ZM263.525 60.412a1.576 1.576 0 1 0 0-3.15 1.576 1.576 0 0 0 0 3.15ZM263.525 41.519a1.575 1.575 0 1 0 .001-3.151 1.575 1.575 0 0 0-.001 3.15ZM263.525 79.306a1.575 1.575 0 1 0 .001-3.151 1.575 1.575 0 0 0-.001 3.15ZM112.241 230.455a1.576 1.576 0 1 0 0-3.151 1.576 1.576 0 0 0 0 3.151ZM74.42 230.455a1.575 1.575 0 1 0 .002-3.15 1.575 1.575 0 0 0-.001 3.15ZM36.6 230.455a1.575 1.575 0 1 0 0-3.15 1.575 1.575 0 0 0 0 3.15ZM112.241 268.242a1.575 1.575 0 1 0 .001-3.15 1.575 1.575 0 0 0-.001 3.15ZM112.241 324.923a1.575 1.575 0 1 0 .001-3.15 1.575 1.575 0 0 0-.001 3.15ZM74.42 268.242a1.575 1.575 0 1 0 .002-3.15 1.575 1.575 0 0 0-.001 3.15ZM36.6 268.242a1.575 1.575 0 1 0 0-3.15 1.575 1.575 0 0 0 0 3.15ZM74.42 324.923a1.575 1.575 0 1 0 .002-3.15 1.575 1.575 0 0 0-.001 3.15ZM36.6 324.923a1.575 1.575 0 1 0 0-3.15 1.575 1.575 0 0 0 0 3.15ZM93.33 230.455a1.575 1.575 0 1 0 .002-3.15 1.575 1.575 0 0 0-.001 3.15ZM55.51 230.455a1.575 1.575 0 1 0 .002-3.15 1.575 1.575 0 0 0-.002 3.15ZM17.69 230.455a1.575 1.575 0 1 0 0-3.15 1.575 1.575 0 0 0 0 3.15ZM93.33 268.242a1.575 1.575 0 1 0 .002-3.15 1.575 1.575 0 0 0-.001 3.15ZM93.33 324.923a1.575 1.575 0 1 0 .002-3.15 1.575 1.575 0 0 0-.001 3.15ZM55.51 268.242a1.575 1.575 0 1 0 .002-3.15 1.575 1.575 0 0 0-.002 3.15ZM17.69 268.242a1.575 1.575 0 1 0 0-3.15 1.575 1.575 0 0 0 0 3.15ZM55.51 324.923a1.575 1.575 0 1 0 .002-3.15 1.575 1.575 0 0 0-.002 3.15ZM17.69 324.923a1.575 1.575 0 1 0 0-3.15 1.575 1.575 0 0 0 0 3.15ZM112.241 249.349a1.576 1.576 0 1 0 0-3.151 1.576 1.576 0 0 0 0 3.151ZM112.241 306.029a1.575 1.575 0 1 0 .001-3.15 1.575 1.575 0 0 0-.001 3.15ZM74.42 249.349a1.575 1.575 0 1 0 .002-3.15 1.575 1.575 0 0 0-.001 3.15ZM36.6 249.349a1.575 1.575 0 1 0 0-3.15 1.575 1.575 0 0 0 0 3.15ZM74.42 306.029a1.575 1.575 0 1 0 .002-3.15 1.575 1.575 0 0 0-.001 3.15ZM36.6 306.029a1.575 1.575 0 1 0 0-3.15 1.575 1.575 0 0 0 0 3.15ZM112.241 287.136a1.576 1.576 0 1 0 0-3.151 1.576 1.576 0 0 0 0 3.151ZM112.241 343.817a1.576 1.576 0 1 0 0-3.151 1.576 1.576 0 0 0 0 3.151ZM74.42 287.136a1.575 1.575 0 1 0 .002-3.15 1.575 1.575 0 0 0-.001 3.15ZM36.6 287.136a1.575 1.575 0 1 0 0-3.15 1.575 1.575 0 0 0 0 3.15ZM74.42 343.817a1.575 1.575 0 1 0 .002-3.15 1.575 1.575 0 0 0-.001 3.15ZM36.6 343.817a1.575 1.575 0 1 0 0-3.15 1.575 1.575 0 0 0 0 3.15ZM93.33 249.349a1.575 1.575 0 1 0 .002-3.15 1.575 1.575 0 0 0-.001 3.15ZM93.33 306.029a1.575 1.575 0 1 0 .002-3.15 1.575 1.575 0 0 0-.001 3.15ZM55.51 249.349a1.575 1.575 0 1 0 .002-3.15 1.575 1.575 0 0 0-.002 3.15ZM17.69 249.349a1.575 1.575 0 1 0 0-3.15 1.575 1.575 0 0 0 0 3.15ZM55.51 306.029a1.575 1.575 0 1 0 .002-3.15 1.575 1.575 0 0 0-.002 3.15ZM17.69 306.029a1.575 1.575 0 1 0 0-3.15 1.575 1.575 0 0 0 0 3.15ZM93.33 287.136a1.575 1.575 0 1 0 .002-3.15 1.575 1.575 0 0 0-.001 3.15ZM93.33 343.817a1.575 1.575 0 1 0 .002-3.15 1.575 1.575 0 0 0-.001 3.15ZM55.51 287.136a1.575 1.575 0 1 0 .002-3.15 1.575 1.575 0 0 0-.002 3.15ZM17.69 287.136a1.575 1.575 0 1 0 0-3.15 1.575 1.575 0 0 0 0 3.15ZM55.51 343.817a1.575 1.575 0 1 0 .002-3.15 1.575 1.575 0 0 0-.002 3.15ZM17.69 343.817a1.575 1.575 0 1 0 0-3.15 1.575 1.575 0 0 0 0 3.15ZM112.241 60.412a1.576 1.576 0 1 0 0-3.15 1.576 1.576 0 0 0 0 3.15ZM74.42 60.412a1.575 1.575 0 1 0 .002-3.15 1.575 1.575 0 0 0-.001 3.15ZM36.6 60.412a1.575 1.575 0 1 0 0-3.15 1.575 1.575 0 0 0 0 3.15ZM93.33 60.412a1.575 1.575 0 1 0 .002-3.15 1.575 1.575 0 0 0-.001 3.15ZM55.51 60.412a1.575 1.575 0 1 0 .002-3.15 1.575 1.575 0 0 0-.002 3.15ZM17.69 60.412a1.575 1.575 0 1 0 0-3.15 1.575 1.575 0 0 0 0 3.15ZM112.241 41.519a1.575 1.575 0 1 0 .001-3.151 1.575 1.575 0 0 0-.001 3.15ZM74.42 41.519a1.575 1.575 0 1 0 .002-3.15 1.575 1.575 0 0 0-.001 3.15ZM36.6 41.519a1.575 1.575 0 1 0 0-3.15 1.575 1.575 0 0 0 0 3.15ZM112.241 79.306a1.575 1.575 0 1 0 .001-3.151 1.575 1.575 0 0 0-.001 3.15ZM74.42 79.306a1.575 1.575 0 1 0 .002-3.15 1.575 1.575 0 0 0-.001 3.15ZM36.6 79.306a1.575 1.575 0 1 0 0-3.15 1.575 1.575 0 0 0 0 3.15ZM93.33 41.519a1.575 1.575 0 1 0 .002-3.15 1.575 1.575 0 0 0-.001 3.15ZM55.51 41.519a1.575 1.575 0 1 0 .002-3.15 1.575 1.575 0 0 0-.002 3.15ZM17.69 41.519a1.575 1.575 0 1 0 0-3.15 1.575 1.575 0 0 0 0 3.15ZM93.33 79.306a1.575 1.575 0 1 0 .002-3.15 1.575 1.575 0 0 0-.001 3.15ZM55.51 79.306a1.575 1.575 0 1 0 .002-3.15 1.575 1.575 0 0 0-.002 3.15ZM17.69 79.306a1.575 1.575 0 1 0 0-3.15 1.575 1.575 0 0 0 0 3.15ZM244.614 362.71a1.575 1.575 0 1 0 .001-3.15 1.575 1.575 0 0 0-.001 3.15ZM206.794 362.71a1.575 1.575 0 1 0 .001-3.15 1.575 1.575 0 0 0-.001 3.15ZM168.972 362.71a1.575 1.575 0 1 0-1.576-1.574c0 .869.706 1.574 1.576 1.574ZM244.614 400.497a1.575 1.575 0 1 0-1.576-1.574c0 .87.706 1.574 1.576 1.574ZM206.794 400.497a1.575 1.575 0 1 0-1.576-1.574c0 .87.705 1.574 1.576 1.574ZM168.972 400.497a1.574 1.574 0 1 0 0-3.148 1.575 1.575 0 1 0 0 3.148ZM225.704 362.71a1.575 1.575 0 1 0 .001-3.15 1.575 1.575 0 0 0-.001 3.15ZM187.883 362.71a1.575 1.575 0 1 0 0-3.15 1.575 1.575 0 0 0 0 3.15ZM150.062 362.71a1.575 1.575 0 1 0-1.576-1.574c0 .869.706 1.574 1.576 1.574ZM131.152 362.71a1.575 1.575 0 1 0 .001-3.15 1.575 1.575 0 0 0-.001 3.15ZM225.704 400.497a1.575 1.575 0 1 0-1.576-1.574c0 .87.705 1.574 1.576 1.574ZM187.883 400.497a1.574 1.574 0 1 0 0-3.148 1.574 1.574 0 1 0 0 3.148ZM150.062 400.497a1.574 1.574 0 1 0 0-3.148 1.575 1.575 0 1 0 0 3.148ZM131.152 400.497a1.575 1.575 0 1 0-1.576-1.574c0 .87.706 1.574 1.576 1.574ZM244.614 381.604a1.576 1.576 0 1 0 0-3.151 1.576 1.576 0 0 0 0 3.151ZM206.794 381.604a1.576 1.576 0 1 0 0-3.151 1.576 1.576 0 0 0 0 3.151ZM168.972 381.604a1.575 1.575 0 1 0 .002-3.15 1.575 1.575 0 0 0-.002 3.15ZM244.614 419.391a1.575 1.575 0 1 0 .001-3.15 1.575 1.575 0 0 0-.001 3.15ZM206.794 419.391a1.575 1.575 0 1 0 .001-3.15 1.575 1.575 0 0 0-.001 3.15ZM168.972 419.391a1.575 1.575 0 1 0-1.576-1.574c0 .869.706 1.574 1.576 1.574ZM225.704 381.604a1.576 1.576 0 1 0 0-3.151 1.576 1.576 0 0 0 0 3.151ZM187.883 381.604a1.575 1.575 0 1 0 0-3.15 1.575 1.575 0 0 0 0 3.15ZM150.062 381.604a1.575 1.575 0 1 0 .002-3.15 1.575 1.575 0 0 0-.002 3.15ZM131.152 381.604a1.576 1.576 0 1 0 0-3.151 1.576 1.576 0 0 0 0 3.151ZM225.704 419.391a1.575 1.575 0 1 0 .001-3.15 1.575 1.575 0 0 0-.001 3.15ZM187.883 419.391a1.575 1.575 0 1 0 0-3.15 1.575 1.575 0 0 0 0 3.15ZM150.062 419.391a1.575 1.575 0 1 0-1.576-1.574c0 .869.706 1.574 1.576 1.574ZM131.152 419.391a1.575 1.575 0 1 0 .001-3.15 1.575 1.575 0 0 0-.001 3.15ZM263.525 362.71a1.575 1.575 0 1 0 .001-3.15 1.575 1.575 0 0 0-.001 3.15ZM263.525 400.497a1.575 1.575 0 1 0-1.576-1.574c0 .87.706 1.574 1.576 1.574ZM263.525 381.604a1.576 1.576 0 1 0 0-3.151 1.576 1.576 0 0 0 0 3.151ZM263.525 419.391a1.575 1.575 0 1 0 .001-3.15 1.575 1.575 0 0 0-.001 3.15ZM112.241 362.71a1.575 1.575 0 1 0 .001-3.15 1.575 1.575 0 0 0-.001 3.15ZM74.42 362.71a1.575 1.575 0 1 0 .002-3.15 1.575 1.575 0 0 0-.001 3.15ZM36.6 362.71a1.575 1.575 0 1 0 0-3.15 1.575 1.575 0 0 0 0 3.15ZM112.241 400.497a1.575 1.575 0 1 0-1.576-1.574c0 .87.706 1.574 1.576 1.574ZM74.42 400.497a1.575 1.575 0 1 0 0-3.148 1.575 1.575 0 1 0 0 3.148ZM36.6 400.497a1.575 1.575 0 1 0 0-3.148 1.575 1.575 0 1 0 0 3.148ZM93.33 362.71a1.575 1.575 0 1 0 .002-3.15 1.575 1.575 0 0 0-.001 3.15ZM55.51 362.71a1.575 1.575 0 1 0 .002-3.15 1.575 1.575 0 0 0-.002 3.15ZM17.69 362.71a1.575 1.575 0 1 0 0-3.15 1.575 1.575 0 0 0 0 3.15ZM93.33 400.497a1.574 1.574 0 1 0 0-3.148 1.574 1.574 0 1 0 0 3.148ZM55.51 400.497a1.574 1.574 0 1 0 0-3.148 1.574 1.574 0 1 0 0 3.148ZM17.69 400.497a1.574 1.574 0 1 0 0-3.148 1.574 1.574 0 1 0 0 3.148ZM112.241 381.604a1.576 1.576 0 1 0 0-3.151 1.576 1.576 0 0 0 0 3.151ZM74.42 381.604a1.575 1.575 0 1 0 .002-3.15 1.575 1.575 0 0 0-.001 3.15ZM36.6 381.604a1.575 1.575 0 1 0 0-3.15 1.575 1.575 0 0 0 0 3.15ZM112.241 419.391a1.575 1.575 0 1 0 .001-3.15 1.575 1.575 0 0 0-.001 3.15ZM74.42 419.391a1.575 1.575 0 1 0 .002-3.15 1.575 1.575 0 0 0-.001 3.15ZM36.6 419.391a1.575 1.575 0 1 0 0-3.15 1.575 1.575 0 0 0 0 3.15ZM93.33 381.604a1.575 1.575 0 1 0 .002-3.15 1.575 1.575 0 0 0-.001 3.15ZM55.51 381.604a1.575 1.575 0 1 0 .002-3.15 1.575 1.575 0 0 0-.002 3.15ZM17.69 381.604a1.575 1.575 0 1 0 0-3.15 1.575 1.575 0 0 0 0 3.15ZM93.33 419.391a1.575 1.575 0 1 0 .002-3.15 1.575 1.575 0 0 0-.001 3.15ZM55.51 419.391a1.575 1.575 0 1 0 .002-3.15 1.575 1.575 0 0 0-.002 3.15ZM17.69 419.391a1.575 1.575 0 1 0 0-3.15 1.575 1.575 0 0 0 0 3.15ZM320.342 98.2a1.575 1.575 0 1 0 .002-3.15 1.575 1.575 0 0 0-.002 3.15ZM282.522 98.2a1.575 1.575 0 1 0 .001-3.151 1.575 1.575 0 0 0-.001 3.15ZM320.342 135.987a1.575 1.575 0 1 0 .002-3.15 1.575 1.575 0 0 0-.002 3.15ZM282.522 135.987a1.576 1.576 0 1 0 0-3.151 1.576 1.576 0 0 0 0 3.151ZM320.342 192.668a1.575 1.575 0 1 0 .002-3.15 1.575 1.575 0 0 0-.002 3.15ZM282.522 192.668a1.576 1.576 0 1 0 0-3.151 1.576 1.576 0 0 0 0 3.151ZM339.253 98.2a1.575 1.575 0 1 0 0-3.15 1.575 1.575 0 0 0 0 3.15ZM301.432 98.2a1.575 1.575 0 1 0 .002-3.15 1.575 1.575 0 0 0-.002 3.15ZM339.253 135.987a1.575 1.575 0 1 0 0-3.15 1.575 1.575 0 0 0 0 3.15ZM339.253 192.668a1.575 1.575 0 1 0 0-3.15 1.575 1.575 0 0 0 0 3.15ZM301.432 135.987a1.575 1.575 0 1 0 .002-3.15 1.575 1.575 0 0 0-.002 3.15ZM301.432 192.668a1.575 1.575 0 1 0 .002-3.15 1.575 1.575 0 0 0-.002 3.15ZM320.342 117.093a1.575 1.575 0 1 0 .002-3.15 1.575 1.575 0 0 0-.002 3.15ZM282.522 117.093a1.575 1.575 0 1 0 .001-3.15 1.575 1.575 0 0 0-.001 3.15ZM320.342 173.774a1.575 1.575 0 1 0 .002-3.15 1.575 1.575 0 0 0-.002 3.15ZM282.522 173.774a1.576 1.576 0 1 0 0-3.151 1.576 1.576 0 0 0 0 3.151ZM320.342 154.88a1.575 1.575 0 1 0 .002-3.15 1.575 1.575 0 0 0-.002 3.15ZM282.522 154.88a1.575 1.575 0 1 0 .001-3.15 1.575 1.575 0 0 0-.001 3.15ZM320.342 211.561a1.575 1.575 0 1 0 .002-3.15 1.575 1.575 0 0 0-.002 3.15ZM282.522 211.561a1.575 1.575 0 1 0 .001-3.15 1.575 1.575 0 0 0-.001 3.15ZM339.253 117.093a1.575 1.575 0 1 0 0-3.15 1.575 1.575 0 0 0 0 3.15ZM339.253 173.774a1.575 1.575 0 1 0 0-3.15 1.575 1.575 0 0 0 0 3.15ZM301.432 117.093a1.575 1.575 0 1 0-1.576-1.574c0 .869.706 1.574 1.576 1.574ZM301.432 173.774a1.575 1.575 0 1 0 .002-3.15 1.575 1.575 0 0 0-.002 3.15ZM339.253 154.88a1.575 1.575 0 1 0 0-3.15 1.575 1.575 0 0 0 0 3.15ZM339.253 211.561a1.575 1.575 0 1 0 0-3.15 1.575 1.575 0 0 0 0 3.15ZM301.432 154.88a1.575 1.575 0 1 0-1.576-1.574c0 .869.706 1.574 1.576 1.574ZM301.432 211.561a1.575 1.575 0 1 0-1.576-1.574c0 .869.706 1.574 1.576 1.574ZM320.342 230.455a1.575 1.575 0 1 0 .002-3.15 1.575 1.575 0 0 0-.002 3.15ZM282.522 230.455a1.576 1.576 0 1 0 0-3.151 1.576 1.576 0 0 0 0 3.151ZM320.342 268.242a1.575 1.575 0 1 0 .002-3.15 1.575 1.575 0 0 0-.002 3.15ZM282.522 268.242a1.575 1.575 0 1 0 .001-3.15 1.575 1.575 0 0 0-.001 3.15ZM320.342 324.923a1.575 1.575 0 1 0 .002-3.15 1.575 1.575 0 0 0-.002 3.15ZM282.522 324.923a1.575 1.575 0 1 0 .001-3.15 1.575 1.575 0 0 0-.001 3.15ZM339.253 230.455a1.575 1.575 0 1 0 0-3.15 1.575 1.575 0 0 0 0 3.15ZM301.432 230.455a1.575 1.575 0 1 0 .002-3.15 1.575 1.575 0 0 0-.002 3.15ZM339.253 268.242a1.575 1.575 0 1 0 0-3.15 1.575 1.575 0 0 0 0 3.15ZM339.253 324.923a1.575 1.575 0 1 0 0-3.15 1.575 1.575 0 0 0 0 3.15ZM301.432 268.242a1.575 1.575 0 1 0-1.576-1.574c0 .869.706 1.574 1.576 1.574ZM301.432 324.923a1.575 1.575 0 1 0-1.576-1.574c0 .869.706 1.574 1.576 1.574ZM320.342 249.349a1.575 1.575 0 1 0 .002-3.15 1.575 1.575 0 0 0-.002 3.15ZM282.522 249.349a1.576 1.576 0 1 0 0-3.151 1.576 1.576 0 0 0 0 3.151ZM320.342 306.029a1.575 1.575 0 1 0 .002-3.15 1.575 1.575 0 0 0-.002 3.15ZM282.522 306.029a1.575 1.575 0 1 0 .001-3.15 1.575 1.575 0 0 0-.001 3.15ZM320.342 287.136a1.575 1.575 0 1 0 .002-3.15 1.575 1.575 0 0 0-.002 3.15ZM282.522 287.136a1.576 1.576 0 1 0 0-3.151 1.576 1.576 0 0 0 0 3.151ZM320.342 343.817a1.575 1.575 0 1 0 .002-3.15 1.575 1.575 0 0 0-.002 3.15ZM282.522 343.817a1.576 1.576 0 1 0 0-3.151 1.576 1.576 0 0 0 0 3.151ZM339.253 249.349a1.575 1.575 0 1 0 0-3.15 1.575 1.575 0 0 0 0 3.15ZM339.253 306.029a1.575 1.575 0 1 0 0-3.15 1.575 1.575 0 0 0 0 3.15ZM301.432 249.349a1.575 1.575 0 1 0 .002-3.15 1.575 1.575 0 0 0-.002 3.15ZM301.432 306.029a1.575 1.575 0 1 0-1.576-1.574c0 .869.706 1.574 1.576 1.574ZM339.253 287.136a1.575 1.575 0 1 0 0-3.15 1.575 1.575 0 0 0 0 3.15ZM339.253 343.817a1.575 1.575 0 1 0 0-3.15 1.575 1.575 0 0 0 0 3.15ZM301.432 287.136a1.575 1.575 0 1 0 .002-3.15 1.575 1.575 0 0 0-.002 3.15ZM301.432 343.817a1.575 1.575 0 1 0 .002-3.15 1.575 1.575 0 0 0-.002 3.15ZM320.342 60.412a1.575 1.575 0 1 0 .002-3.15 1.575 1.575 0 0 0-.002 3.15ZM282.522 60.412a1.576 1.576 0 1 0 0-3.15 1.576 1.576 0 0 0 0 3.15ZM339.253 60.412a1.575 1.575 0 1 0 0-3.149 1.575 1.575 0 0 0 0 3.15ZM301.432 60.412a1.575 1.575 0 1 0 .002-3.15 1.575 1.575 0 0 0-.002 3.15ZM320.342 41.519a1.575 1.575 0 1 0 .002-3.15 1.575 1.575 0 0 0-.002 3.15ZM282.522 41.519a1.575 1.575 0 1 0 .001-3.151 1.575 1.575 0 0 0-.001 3.15ZM320.342 79.306a1.575 1.575 0 1 0 .002-3.15 1.575 1.575 0 0 0-.002 3.15ZM282.522 79.306a1.575 1.575 0 1 0 .001-3.151 1.575 1.575 0 0 0-.001 3.15ZM339.253 41.519a1.575 1.575 0 1 0 0-3.15 1.575 1.575 0 0 0 0 3.15ZM301.432 41.519a1.575 1.575 0 1 0 .002-3.15 1.575 1.575 0 0 0-.002 3.15ZM339.253 79.306a1.575 1.575 0 1 0 0-3.15 1.575 1.575 0 0 0 0 3.15ZM301.432 79.306a1.575 1.575 0 1 0 .002-3.15 1.575 1.575 0 0 0-.002 3.15ZM320.342 362.71a1.575 1.575 0 1 0 .002-3.15 1.575 1.575 0 0 0-.002 3.15ZM282.522 362.71a1.575 1.575 0 1 0 .001-3.15 1.575 1.575 0 0 0-.001 3.15ZM320.342 400.497a1.574 1.574 0 1 0 0-3.148 1.574 1.574 0 1 0 0 3.148ZM282.522 400.497a1.575 1.575 0 1 0-1.576-1.574c0 .87.706 1.574 1.576 1.574ZM339.253 362.71a1.575 1.575 0 1 0 0-3.15 1.575 1.575 0 0 0 0 3.15ZM301.432 362.71a1.575 1.575 0 1 0-1.576-1.574c0 .869.706 1.574 1.576 1.574ZM339.253 400.497a1.574 1.574 0 1 0 0-3.148 1.574 1.574 0 1 0 0 3.148ZM301.432 400.497a1.574 1.574 0 1 0 0-3.148 1.575 1.575 0 1 0 0 3.148ZM320.342 381.604a1.575 1.575 0 1 0 .002-3.15 1.575 1.575 0 0 0-.002 3.15ZM282.522 381.604a1.576 1.576 0 1 0 0-3.151 1.576 1.576 0 0 0 0 3.151ZM320.342 419.391a1.575 1.575 0 1 0 .002-3.15 1.575 1.575 0 0 0-.002 3.15ZM282.522 419.391a1.575 1.575 0 1 0 .001-3.15 1.575 1.575 0 0 0-.001 3.15ZM339.253 381.604a1.575 1.575 0 1 0 0-3.15 1.575 1.575 0 0 0 0 3.15ZM301.432 381.604a1.575 1.575 0 1 0 .002-3.15 1.575 1.575 0 0 0-.002 3.15ZM339.253 419.391a1.575 1.575 0 1 0 0-3.15 1.575 1.575 0 0 0 0 3.15ZM301.432 419.391a1.575 1.575 0 1 0-1.576-1.574c0 .869.706 1.574 1.576 1.574Z" fill="#CCDFFF"/><path d="M178.561 246.892c-1.977-1.055-4.577-1.59-8.013-1.157-3.475.441-5.76 1.653-7.241 3.244-5.823.44-12.103.48-18.469-.197 0 0-2.868-15.036-19.013-12.691-9.66 1.41-13.749 8.904-10.787 23.594l12.26 60.782h26.184l-6.28-52.099 11.63-.142 1.56 68.742 25.489-.016 1.994-68.56s7.643-5.629 8.123-12.132c.481-6.502-2.316-13.32-2.316-13.32s-5.981 2.157-15.121 3.952ZM69.211 70.064c-7.563 0-13.701 6.132-13.701 13.69 0 7.557 6.138 13.69 13.702 13.69s13.702-6.133 13.702-13.69c0-7.558-6.138-13.69-13.702-13.69Zm290.804 333.535c-.166-4.881-1.127-9.958-1.127-9.958l-12.804 10.73s-8.573-2.039-9.282 2.629c-.331 2.173.946 4.086 2.498 5.802l1.292-3.094s5.736 4.645 12.718 4.377l-2.932 5.464h2.419l4.539-6.141c7.139-2.039 11.512-7.754 11.512-7.754l-8.833-2.055Zm-55.613-18.665c-1.465-1.787-3.175-3.33-5.365-3.33-4.728 0-3.987 8.778-3.987 8.778l-12.529 11.052s8.156 3.74 15.515 3.086c4.515-.779 5.862-2.566 6.366-4.542 1.474-5.763-3.254-14.233-3.254-14.233l3.254-.811Zm-6.043-262.598c3.325 10.518 3.435 14.273-6.564 22.46-10.172 8.321-9.912 18.398-5.365 27.443 3.75 7.455 1.465 17.091-9.18 24.129-17.24 11.399-18.808 30.072-8.517 49.336 13.221 24.758 51.586 27.049 51.688 27.033l-.307-184.134c-26.546.394-23.268 28.939-21.755 33.733ZM160.47 195.62a8.303 8.303 0 0 1-8.304-8.156H141.82v11.58h15.333s-.827 3.44-2.364 4.055c0 0 1.119 5.274-3.947 6.211 0 .016.008.039.008.055.039 2.448-2.703 5.518-6.319 5.518h16.018v-19.271c-.031 0-.055.008-.079.008Z" fill="url(#a)"/><path d="M320.342 43.73a3.623 3.623 0 0 0 3.625-3.62c0-2-1.623-3.622-3.625-3.622a3.623 3.623 0 0 0-3.624 3.622c0 2 1.623 3.62 3.624 3.62ZM93.33 158.667a3.623 3.623 0 1 0 0-7.243 3.623 3.623 0 1 0 0 7.243ZM225.704 403.127a3.623 3.623 0 1 0 0-7.243 3.624 3.624 0 0 0-3.625 3.622c0 2 1.623 3.621 3.625 3.621Z" fill="#0061FF"/><path d="M268.189 334.834h-42.486a1.18 1.18 0 1 1 0-2.361h42.486c7.359 0 13.347-5.983 13.347-13.336 0-8.66 7.052-15.698 15.712-15.698h69.771a1.18 1.18 0 1 1 0 2.362h-69.771c-7.36 0-13.348 5.983-13.348 13.336 0 8.652-7.044 15.697-15.711 15.697ZM134.027 362.23H43.375a1.18 1.18 0 1 1 0-2.362h90.652a1.18 1.18 0 1 1 0 2.362ZM263.525 362.23H200.23a1.18 1.18 0 1 1 0-2.362h63.295a1.18 1.18 0 0 1 1.181 1.181c0 .654-.527 1.181-1.181 1.181ZM240.438 183.803c-29.083 0-47.772-6.337-60.143-10.533-4.838-1.637-8.659-2.936-11.78-3.424a1.177 1.177 0 0 1-.985-1.346 1.183 1.183 0 0 1 1.348-.985c3.325.52 7.225 1.843 12.173 3.519 12.221 4.149 30.69 10.408 59.379 10.408a1.18 1.18 0 0 1 1.182 1.181c0 .653-.52 1.18-1.174 1.18ZM158.761 168.854c-7.415 0-13.45-6.03-13.45-13.438v-16.682a1.18 1.18 0 0 1 1.181-1.181 1.18 1.18 0 0 1 1.182 1.181v16.682c0 6.109 4.972 11.076 11.087 11.076 6.114 0 11.086-4.967 11.086-11.076v-16.682a1.18 1.18 0 0 1 1.182-1.181 1.18 1.18 0 0 1 1.182 1.181v16.682c.008 7.408-6.028 13.438-13.45 13.438Z" fill="#6A2EA0"/><path d="M147.943 173.664a1.18 1.18 0 0 1-1.182-1.181v-11.061a1.18 1.18 0 0 1 1.182-1.181 1.18 1.18 0 0 1 1.182 1.181v11.061a1.18 1.18 0 0 1-1.182 1.181ZM168.578 173.664a1.18 1.18 0 0 1-1.182-1.181v-9.612a1.18 1.18 0 0 1 1.182-1.181 1.18 1.18 0 0 1 1.182 1.181v9.612a1.18 1.18 0 0 1-1.182 1.181ZM160.55 216.064h-18.714a1.18 1.18 0 1 1 0-2.361h17.532v-25.058h-16.366v10.399c0 .654-.527 1.181-1.181 1.181a1.18 1.18 0 0 1-1.182-1.181v-11.58a1.18 1.18 0 0 1 1.182-1.181h18.729a1.18 1.18 0 0 1 1.182 1.181v27.419a1.18 1.18 0 0 1-1.182 1.181ZM114.251 247.758H36.6a1.18 1.18 0 0 1-1.182-1.181v-19.594c0-18.712 15.239-33.937 33.968-33.937h43.328a1.18 1.18 0 1 1 0 2.361H69.386c-17.43 0-31.604 14.163-31.604 31.576v18.414h76.469a1.18 1.18 0 1 1 0 2.361ZM247.49 247.758h-52.602a1.18 1.18 0 1 1 0-2.361h52.602c16.145 0 29.28-13.124 29.28-29.254v-20.728h-21.637a1.18 1.18 0 1 1 0-2.362h22.819a1.18 1.18 0 0 1 1.182 1.181v21.909c0 17.429-14.199 31.615-31.644 31.615ZM160.123 162.564c-.906 0-1.709-.189-2.261-.425a1.18 1.18 0 0 1-.63-1.543 1.18 1.18 0 0 1 1.544-.63c.284.118 2.781 1.015 4.507-1.527a1.18 1.18 0 0 1 1.954 1.322c-1.481 2.173-3.475 2.803-5.114 2.803Z" fill="#6A2EA0"/><path d="M131.971 207.373a1.18 1.18 0 0 1-.811-2.039l7.556-7.148a1.2 1.2 0 0 1 .812-.323h17.634a1.18 1.18 0 0 1 1.182 1.181c0 2.102-1.474 6.07-7.068 6.07h-9.471a1.18 1.18 0 1 1 0-2.362h9.471c2.955 0 4.05-1.433 4.46-2.527h-15.735l-7.218 6.825a1.19 1.19 0 0 1-.812.323ZM208.22 201.776c-12.536 0-18.194-.874-18.564-.929a1.178 1.178 0 0 1-.977-1.354 1.178 1.178 0 0 1 1.355-.976c.142.023 14.75 2.251 49.23-.465V182.63c0-.653.528-1.18 1.182-1.18a1.18 1.18 0 0 1 1.182 1.18v16.517c0 .614-.473 1.125-1.087 1.18-13.773 1.103-24.418 1.449-32.321 1.449Z" fill="#6A2EA0"/><path d="M121.499 238.784c-.315 0-.622-.126-.858-.37-8.62-9.045-14.648-26.664-8.683-45.628 5.428-17.256 21.66-26.286 34.881-26.286a1.18 1.18 0 1 1 0 2.362c-12.055 0-27.593 8.636-32.62 24.632-5.673 18.044 0 34.749 8.139 43.29a1.18 1.18 0 0 1-.039 1.669 1.183 1.183 0 0 1-.82.331Z" fill="#6A2EA0"/><path d="M134.193 221.583a1.18 1.18 0 0 1-.638-.189c-8.077-5.157-8.171-11.761-8.171-12.037a1.18 1.18 0 0 1 1.182-1.181c.654 0 1.182.528 1.182 1.173 0 .244.165 5.637 7.083 10.053a1.183 1.183 0 0 1-.638 2.181ZM158.107 154.975c-.197 0-.394-.016-.583-.055-1.316-.26-2.199-1.37-2.199-2.763v-9.077a1.18 1.18 0 0 1 1.182-1.181 1.18 1.18 0 0 1 1.182 1.181v9.077c0 .393.197.433.292.448.496.095 1.528-.378 2.214-2.07a1.177 1.177 0 0 1 1.544-.646c.607.244.898.937.646 1.543-1.024 2.496-2.789 3.543-4.278 3.543ZM171.47 152.338a1.18 1.18 0 1 1 0-2.362 2.855 2.855 0 0 0 2.852-2.85 2.86 2.86 0 0 0-2.852-2.85 1.18 1.18 0 1 1 0-2.361 5.22 5.22 0 0 1 5.216 5.211 5.22 5.22 0 0 1-5.216 5.212ZM146.422 152.338a5.22 5.22 0 0 1-5.216-5.212 5.22 5.22 0 0 1 5.216-5.211 1.18 1.18 0 1 1 0 2.361 2.856 2.856 0 0 0-2.852 2.85 2.86 2.86 0 0 0 2.852 2.85 1.18 1.18 0 1 1 0 2.362ZM251.91 199.879c-6.209 0-11.638-2.275-11.937-2.401a1.181 1.181 0 1 1 .93-2.173c.086.031 7.824 3.267 14.9 1.842-1.017-1.204-2.9-2.921-5.752-3.44a1.182 1.182 0 1 1 .433-2.323c5.689 1.055 8.21 5.739 8.313 5.936.165.307.181.677.047 1a1.17 1.17 0 0 1-.741.677c-2.04.638-4.16.882-6.193.882ZM268.3 195.415c-.237 0-.473-.071-.686-.22l-11.756-8.321-14.608-1.236a1.182 1.182 0 0 1-1.08-1.276 1.188 1.188 0 0 1 1.277-1.078l14.923 1.259c.213.016.41.095.583.213l12.016 8.51c.536.378.662 1.118.284 1.645a1.137 1.137 0 0 1-.953.504ZM158.831 269.415h-11.267a1.18 1.18 0 1 1 0-2.362h11.267a1.18 1.18 0 1 1 0 2.362ZM263.525 269.415h-75.539a1.18 1.18 0 1 1 0-2.362h75.539a1.18 1.18 0 1 1 0 2.362ZM119.995 286.829h-74.68c-5.461 0-9.897-4.432-9.897-9.888 0-5.455 4.436-9.888 9.896-9.888h71.214a1.18 1.18 0 1 1 0 2.362H45.314c-4.152 0-7.532 3.377-7.532 7.526s3.38 7.526 7.532 7.526h74.681a1.18 1.18 0 1 1 0 2.362ZM153.174 362.23h-43.186a1.18 1.18 0 1 1 0-2.362h42.004l.032-27.789a1.18 1.18 0 0 1 1.182-1.181 1.18 1.18 0 0 1 1.182 1.181l-.032 28.97c0 .654-.536 1.181-1.182 1.181Z" fill="#6A2EA0"/><path d="m154.789 332.496-25.308-.047a1.18 1.18 0 1 1 0-2.362l23.969.04-9.786-81.204c-.702-3.952-2.868-7.368-6.083-9.565-3.246-2.204-7.336-2.96-11.52-2.109a15.262 15.262 0 0 0-4.01 1.393c-6.737 3.511-8.392 11.376-6.556 17.343.008.039.024.079.032.118l12.937 64.128a1.186 1.186 0 0 1-.921 1.393 1.189 1.189 0 0 1-1.395-.921l-12.93-64.073c-2.096-6.888-.118-15.98 7.737-20.074a17.476 17.476 0 0 1 4.633-1.614c4.815-.976 9.542-.094 13.324 2.472 3.751 2.551 6.272 6.518 7.092 11.163l9.959 82.597a1.175 1.175 0 0 1-1.174 1.322ZM172.919 377.125c-4.853 0-8.809-3.952-8.809-8.802v-24.191a1.18 1.18 0 0 1 1.182-1.181 1.18 1.18 0 0 1 1.182 1.181v24.191c0 3.551 2.892 6.44 6.445 6.44 3.554 0 6.446-2.889 6.446-6.44v-24.191a1.18 1.18 0 0 1 1.182-1.181 1.18 1.18 0 0 1 1.182 1.181v24.191c0 4.857-3.956 8.802-8.81 8.802Z" fill="#6A2EA0"/><path d="M124.139 352.98a1.18 1.18 0 0 1-.536-2.236l12.796-6.51-3.262-12.667a1.185 1.185 0 0 1 .851-1.44c.63-.166 1.277.22 1.442.85l3.498 13.58a1.181 1.181 0 0 1-.606 1.346l-13.647 6.935a1.03 1.03 0 0 1-.536.142ZM185.685 345.32h-8.384a1.18 1.18 0 1 1 0-2.362h7.225l1.647-82.273c0-8.621-4.491-13.871-12-14.021-2.514-.047-7.241.346-10.551 3.59-2.355 2.306-3.553 5.644-3.553 9.911l1.647 82.793h6.902a1.18 1.18 0 1 1 0 2.362h-8.061a1.179 1.179 0 0 1-1.181-1.157l-1.671-83.974c0-4.952 1.434-8.849 4.263-11.62 2.907-2.85 7.265-4.361 12.252-4.267 10.558.213 14.317 8.613 14.317 16.406l-1.67 83.455a1.185 1.185 0 0 1-1.182 1.157Z" fill="#6A2EA0"/><path d="M109.98 362.23a1.18 1.18 0 0 1-1.182-1.181c0-6.172 5.027-11.186 11.196-11.186a11.18 11.18 0 0 1 9.282 4.935 1.183 1.183 0 0 1-.315 1.638 1.186 1.186 0 0 1-1.639-.315 8.827 8.827 0 0 0-7.328-3.889c-4.869 0-8.832 3.96-8.832 8.825 0 .646-.528 1.173-1.182 1.173ZM129.481 332.457c-4.042 0-7.115-1.173-9.124-3.488-3.081-3.558-2.419-8.455-2.388-8.659a1.186 1.186 0 0 1 1.167-1.016h17.744a1.18 1.18 0 1 1 0 2.362h-16.626c0 1.378.253 3.889 1.899 5.778 1.537 1.764 4.003 2.661 7.32 2.661a1.18 1.18 0 0 1 1.182 1.181c0 .653-.52 1.181-1.174 1.181ZM187.985 269.415c-.441 0-.867-.252-1.072-.677a1.178 1.178 0 0 1 .56-1.574c5.192-2.464 7.651-7.141 7.32-13.895-.26-5.243-2.175-9.817-2.191-9.864-8.596-23.483-3.025-49.541-2.97-49.801a1.181 1.181 0 0 1 2.308.512c-.055.252-5.476 25.656 2.861 48.423.063.142 8.241 19.854-6.312 26.758a1.171 1.171 0 0 1-.504.118Z" fill="#6A2EA0"/><path d="M179.437 247.703a1.186 1.186 0 0 1-1.159-.945 1.177 1.177 0 0 1 .914-1.393 181.794 181.794 0 0 0 14.159-3.55 1.178 1.178 0 0 1 1.466.803 1.177 1.177 0 0 1-.804 1.464 182.759 182.759 0 0 1-14.34 3.59.8.8 0 0 1-.236.031ZM153.907 250.584c-5.965 0-9.116-.606-9.298-.637a1.181 1.181 0 0 1-.929-1.386 1.182 1.182 0 0 1 1.386-.929c.063.016 6.375 1.213 18.107.158a1.189 1.189 0 0 1 1.285 1.07 1.183 1.183 0 0 1-1.072 1.284c-3.695.322-6.855.44-9.479.44ZM176.851 350.744a1.18 1.18 0 0 1-1.182-1.181v-8.825c0-1.487-1.213-2.7-2.702-2.7a2.707 2.707 0 0 0-2.703 2.7v8.825a1.18 1.18 0 0 1-1.182 1.181 1.18 1.18 0 0 1-1.182-1.181v-8.825a5.07 5.07 0 0 1 5.067-5.061c2.789 0 5.066 2.275 5.066 5.061v8.825a1.18 1.18 0 0 1-1.182 1.181ZM176.851 360.254h-7.777a1.179 1.179 0 0 1-1.181-1.181 1.18 1.18 0 0 1 1.181-1.181h7.777a1.18 1.18 0 1 1 0 2.362ZM176.851 366.426h-7.777a1.18 1.18 0 0 1-1.181-1.181 1.18 1.18 0 0 1 1.181-1.181h7.777a1.18 1.18 0 1 1 0 2.362ZM55.51 361.222a1.18 1.18 0 0 1-1.182-1.181v-73.165a1.18 1.18 0 0 1 1.182-1.181 1.18 1.18 0 0 1 1.182 1.181v73.165a1.18 1.18 0 0 1-1.182 1.181ZM248.885 361.222a1.18 1.18 0 0 1-1.182-1.181v-73.165a1.18 1.18 0 0 1 1.182-1.181 1.18 1.18 0 0 1 1.182 1.181v73.165a1.18 1.18 0 0 1-1.182 1.181Z" fill="#6A2EA0"/><path d="M263.525 286.829h-75.539a1.18 1.18 0 1 1 0-2.362h75.539a1.18 1.18 0 1 1 0 2.362ZM320.184 273.91h-.023a1.175 1.175 0 0 1-.985-1.346 1.181 1.181 0 0 1 1.15-1c.875-.047 38.002-2.7 50.664-26.411 10.638-19.925 7.675-37.347-8.131-47.801-10.251-6.778-14.009-16.847-9.581-25.648 5.169-10.274 3.467-19.028-5.059-26.003-10.582-8.659-10.361-12.887-6.942-23.727 1.104-3.487 2.372-16.28-3.529-24.452-3.625-5.022-9.385-7.62-17.114-7.738a1.181 1.181 0 1 1 .031-2.362c8.518.126 14.908 3.055 18.997 8.715 6.509 9.006 5.114 22.609 3.869 26.546-3.144 9.95-3.609 13.17 6.185 21.192 11.827 9.683 9.613 21.051 5.673 28.891-3.853 7.668-.409 16.54 8.778 22.618 16.941 11.202 20.187 29.749 8.911 50.879-13.418 25.128-51.704 27.647-52.894 27.647Z" fill="#6A2EA0"/><path d="M320.28 304.998a1.18 1.18 0 0 1-1.182-1.181V77.346c0-.654.528-1.181 1.182-1.181a1.18 1.18 0 0 1 1.181 1.18v226.472c0 .654-.527 1.181-1.181 1.181Z" fill="#6A2EA0"/><path d="M320.28 135.026c-.292 0-.583-.11-.812-.322l-13.411-12.722a1.181 1.181 0 0 1-.047-1.669 1.175 1.175 0 0 1 1.67-.039l13.411 12.721a1.18 1.18 0 0 1 .047 1.669 1.211 1.211 0 0 1-.858.362ZM320.279 247.601c-.315 0-.622-.126-.859-.37a1.174 1.174 0 0 1 .047-1.669l25.577-24.263a1.182 1.182 0 0 1 1.67.04c.449.472.433 1.22-.047 1.669l-25.576 24.262c-.229.221-.52.331-.812.331ZM320.28 190.558c-.292 0-.583-.11-.812-.323l-45.897-43.55a1.18 1.18 0 0 1-.047-1.669 1.182 1.182 0 0 1 1.67-.039l45.897 43.55a1.18 1.18 0 0 1 .048 1.669 1.183 1.183 0 0 1-.859.362ZM134.193 86.163H35.268a1.176 1.176 0 0 1-1.174-1.252c.772-11.659 7.249-21.247 17.783-26.294 14.72-7.061 34.26-3.826 52.359 8.644 20.029-3.826 29.106 9.691 31.107 17.43.095.354.016.732-.212 1.015a1.218 1.218 0 0 1-.938.457ZM36.56 83.8h96.01c-1.742-4.637-8.589-18.162-28.358-14.13-.315.062-.646 0-.914-.19-17.5-12.21-36.34-15.477-50.396-8.738-9.36 4.48-15.263 12.84-16.342 23.058ZM173.834 139.592h-30.95c-6.682 0-12.118-5.432-12.118-12.107a1.18 1.18 0 0 1 1.182-1.181h14.253a1.18 1.18 0 1 1 0 2.362H133.2c.583 4.817 4.704 8.565 9.684 8.565h29.768v-7.747a1.18 1.18 0 0 1 1.182-1.181 1.18 1.18 0 0 1 1.182 1.181v8.927a1.18 1.18 0 0 1-1.182 1.181Z" fill="#6A2EA0"/><path d="M146.194 134.523a1.18 1.18 0 0 1-1.182-1.181v-3.858c0-5.258 4.286-9.541 9.549-9.541h10.906c5.263 0 9.549 4.283 9.549 9.541a1.18 1.18 0 0 1-1.182 1.181 1.18 1.18 0 0 1-1.182-1.181c0-3.96-3.222-7.179-7.185-7.179h-10.906c-3.963 0-7.185 3.219-7.185 7.179v3.858a1.18 1.18 0 0 1-1.182 1.181ZM308.996 418.997a1.18 1.18 0 0 1-1.182-1.18c0-6.637-5.405-12.045-12.055-12.045-6.65 0-12.055 5.4-12.055 12.045a1.18 1.18 0 0 1-1.182 1.18 1.18 1.18 0 0 1-1.182-1.18c0-7.944 6.469-14.407 14.419-14.407s14.419 6.463 14.419 14.407c0 .653-.536 1.18-1.182 1.18ZM162.039 240.468c-4.145 0-6.832-.33-7.115-.37a1.191 1.191 0 0 1-1.025-1.322 1.191 1.191 0 0 1 1.324-1.023c.181.023 18.154 2.212 34.417-5.196a1.192 1.192 0 0 1 1.568.582 1.183 1.183 0 0 1-.583 1.567c-10.582 4.834-21.629 5.762-28.586 5.762ZM159.233 286.907h-9.944a1.18 1.18 0 1 1 0-2.361h9.944a1.18 1.18 0 1 1 0 2.361Z" fill="#6A2EA0"/><path d="M237.074 112.63c5.113 0 9.258-4.142 9.258-9.25 0-5.11-4.145-9.25-9.258-9.25-5.114 0-9.259 4.14-9.259 9.25 0 5.108 4.145 9.25 9.259 9.25Z" fill="#FF4C84"/><path d="M167.711 203.61a1.183 1.183 0 0 1-.685-2.149l.118-.079a1.178 1.178 0 0 1 1.647.268c.386.527.26 1.267-.268 1.645l-.142.103a1.151 1.151 0 0 1-.67.212Zm3.861-4.101c-.22 0-.441-.063-.638-.189a1.176 1.176 0 0 1-.355-1.63l.079-.118a1.186 1.186 0 0 1 1.631-.37c.552.347.717 1.079.371 1.63l-.095.141a1.168 1.168 0 0 1-.993.536Zm2.301-5.157c-.102 0-.213-.015-.323-.047a1.18 1.18 0 0 1-.819-1.456l.039-.142c.173-.63.819-1 1.45-.827.63.174 1 .819.827 1.449l-.047.165a1.177 1.177 0 0 1-1.127.858Zm.859-5.589h-.047a1.181 1.181 0 0 1-1.135-1.228l.008-.118v-.063a1.186 1.186 0 0 1 1.253-1.11c.654.039 1.15.598 1.111 1.252v.015l-.008.118a1.187 1.187 0 0 1-1.182 1.134Zm.008-1.338h.023-.023Zm.796-4.291c-.087 0-.166-.008-.253-.023a1.192 1.192 0 0 1-.906-1.41l.032-.149a1.18 1.18 0 0 1 2.308.496l-.031.157a1.178 1.178 0 0 1-1.15.929Zm1.536-5.463a1.43 1.43 0 0 1-.394-.063 1.183 1.183 0 0 1-.725-1.504l.055-.157a1.184 1.184 0 0 1 2.23.795l-.047.142c-.173.48-.63.787-1.119.787Zm2.246-5.212a1.184 1.184 0 0 1-1.048-1.724l.078-.149a1.183 1.183 0 0 1 2.089 1.11l-.071.134a1.184 1.184 0 0 1-1.048.629Zm3.017-4.794c-.244 0-.496-.079-.709-.236a1.18 1.18 0 0 1-.228-1.653l.102-.134a1.181 1.181 0 0 1 1.875 1.433l-.094.118a1.197 1.197 0 0 1-.946.472Zm3.814-4.18c-.323 0-.646-.134-.875-.394a1.183 1.183 0 0 1 .087-1.669l.118-.11a1.182 1.182 0 1 1 1.576 1.764l-.11.102a1.155 1.155 0 0 1-.796.307Zm4.57-3.338c-.41 0-.804-.213-1.024-.583a1.173 1.173 0 0 1 .425-1.613l.142-.079a1.181 1.181 0 0 1 1.19 2.039l-.134.079a1.313 1.313 0 0 1-.599.157Zm5.129-2.362a1.19 1.19 0 0 1-1.118-.795 1.179 1.179 0 0 1 .732-1.503l.15-.056a1.19 1.19 0 0 1 1.505.733 1.185 1.185 0 0 1-.733 1.503l-.142.047c-.133.048-.26.071-.394.071Zm5.492-1.377c-.567 0-1.071-.41-1.166-.984a1.185 1.185 0 0 1 .969-1.362l.166-.024a1.183 1.183 0 1 1 .37 2.338l-.15.024c-.063 0-.126.008-.189.008Zm5.595-.882a1.188 1.188 0 0 1-1.159-.953 1.182 1.182 0 0 1 .93-1.385l.15-.032a1.183 1.183 0 0 1 1.387.929 1.182 1.182 0 0 1-.93 1.386l-.158.031a.976.976 0 0 1-.22.024Zm5.499-1.362c-.504 0-.977-.331-1.134-.834a1.183 1.183 0 0 1 .788-1.473l.15-.047a1.179 1.179 0 0 1 .693 2.252l-.158.047a.992.992 0 0 1-.339.055Zm5.311-1.968a1.181 1.181 0 0 1-.48-2.259l.133-.063a1.175 1.175 0 0 1 1.561.59 1.174 1.174 0 0 1-.591 1.559l-.15.071a1.1 1.1 0 0 1-.473.102Zm4.988-2.685c-.386 0-.772-.188-.993-.543a1.172 1.172 0 0 1 .355-1.629l.126-.079a1.187 1.187 0 0 1 1.639.346 1.185 1.185 0 0 1-.347 1.638l-.142.086a1.174 1.174 0 0 1-.638.181Zm4.475-3.455a1.182 1.182 0 0 1-.803-2.047l.11-.103a1.18 1.18 0 1 1 1.623 1.717l-.118.11a1.16 1.16 0 0 1-.812.323Zm3.767-4.22c-.237 0-.481-.071-.694-.228a1.174 1.174 0 0 1-.26-1.646l.095-.126a1.185 1.185 0 0 1 1.647-.267c.527.385.646 1.118.26 1.645l-.095.126a1.17 1.17 0 0 1-.953.496Zm2.883-4.873c-.165 0-.338-.039-.504-.11a1.186 1.186 0 0 1-.567-1.575l.063-.134a1.181 1.181 0 0 1 2.143.992l-.071.15a1.173 1.173 0 0 1-1.064.677Zm1.947-5.314a1.55 1.55 0 0 1-.316-.039c-.63-.173-1-.819-.827-1.449l.04-.134 2.285.607-.04.149c-.15.52-.622.866-1.142.866Zm1.04-5.573c-.04 0-.087 0-.134-.008a1.183 1.183 0 0 1-1.048-1.299l.016-.15a1.19 1.19 0 0 1 1.3-1.055 1.189 1.189 0 0 1 1.055 1.299l-.015.158a1.178 1.178 0 0 1-1.174 1.055Zm.228-5.653a1.184 1.184 0 0 1-1.182-1.149l-.008-.158a1.181 1.181 0 0 1 2.364-.063l.008.158a1.18 1.18 0 0 1-1.15 1.212c-.008-.008-.016 0-.032 0ZM238.035 107.977c-.339 0-.662-.142-.882-.401l-5.335-6.039a1.182 1.182 0 1 1 1.773-1.566l4.294 4.857 6.792-10.8a1.184 1.184 0 0 1 2.002 1.26l-7.635 12.138a1.19 1.19 0 0 1-.907.551h-.102ZM150.575 210.546h-8.754a1.18 1.18 0 1 1 0-2.362h8.754a1.18 1.18 0 0 1 1.181 1.181 1.18 1.18 0 0 1-1.181 1.181Z" fill="#6A2EA0"/><defs><linearGradient id="a" x1="76.324" y1="57.286" x2="396.717" y2="377.965" gradientUnits="userSpaceOnUse"><stop stop-color="#FF4C84"/><stop offset=".226" stop-color="#D45DA2"/><stop offset=".76" stop-color="#7382E5"/><stop offset="1" stop-color="#4C90FF"/></linearGradient></defs></svg>