<svg width="432" height="445" fill="none" xmlns="http://www.w3.org/2000/svg"><path d="M244.614 97.822a1.575 1.575 0 1 0 .001-3.151 1.575 1.575 0 0 0-.001 3.15ZM206.794 97.822a1.575 1.575 0 1 0 .001-3.151 1.575 1.575 0 0 0-.001 3.15ZM168.972 97.822a1.575 1.575 0 1 0 .002-3.15 1.575 1.575 0 0 0-.002 3.15ZM244.614 135.609a1.576 1.576 0 1 0 0-3.151 1.576 1.576 0 0 0 0 3.151ZM244.614 192.29a1.576 1.576 0 1 0 0-3.151 1.576 1.576 0 0 0 0 3.151ZM206.794 135.609a1.576 1.576 0 1 0 0-3.151 1.576 1.576 0 0 0 0 3.151ZM168.972 135.609a1.575 1.575 0 1 0 .002-3.15 1.575 1.575 0 0 0-.002 3.15ZM206.794 192.29a1.576 1.576 0 1 0 0-3.151 1.576 1.576 0 0 0 0 3.151ZM168.972 192.29a1.575 1.575 0 1 0 .002-3.15 1.575 1.575 0 0 0-.002 3.15ZM225.704 97.822a1.575 1.575 0 1 0 .001-3.151 1.575 1.575 0 0 0-.001 3.15ZM187.883 97.822a1.575 1.575 0 1 0 0-3.15 1.575 1.575 0 0 0 0 3.15ZM150.062 97.822a1.575 1.575 0 1 0 .002-3.15 1.575 1.575 0 0 0-.002 3.15ZM131.152 97.822a1.575 1.575 0 1 0 .001-3.151 1.575 1.575 0 0 0-.001 3.15ZM225.704 135.609a1.576 1.576 0 1 0 0-3.151 1.576 1.576 0 0 0 0 3.151ZM225.704 192.29a1.576 1.576 0 1 0 0-3.151 1.576 1.576 0 0 0 0 3.151ZM187.883 135.609a1.575 1.575 0 1 0 0-3.15 1.575 1.575 0 0 0 0 3.15ZM150.062 135.609a1.575 1.575 0 1 0 .002-3.15 1.575 1.575 0 0 0-.002 3.15ZM131.152 135.609a1.576 1.576 0 1 0 0-3.151 1.576 1.576 0 0 0 0 3.151ZM187.883 192.29a1.575 1.575 0 1 0 0-3.15 1.575 1.575 0 0 0 0 3.15ZM150.062 192.29a1.575 1.575 0 1 0 .002-3.15 1.575 1.575 0 0 0-.002 3.15ZM131.152 192.29a1.576 1.576 0 1 0 0-3.151 1.576 1.576 0 0 0 0 3.151ZM244.614 116.715a1.575 1.575 0 1 0 .001-3.15 1.575 1.575 0 0 0-.001 3.15ZM244.614 173.396a1.575 1.575 0 1 0 .001-3.15 1.575 1.575 0 0 0-.001 3.15ZM206.794 116.715a1.575 1.575 0 1 0 .001-3.15 1.575 1.575 0 0 0-.001 3.15ZM168.972 116.715a1.575 1.575 0 1 0-1.576-1.574c0 .869.706 1.574 1.576 1.574ZM206.794 173.396a1.575 1.575 0 1 0 .001-3.15 1.575 1.575 0 0 0-.001 3.15ZM168.972 173.396a1.575 1.575 0 1 0-1.576-1.574c0 .869.706 1.574 1.576 1.574ZM244.614 154.503a1.576 1.576 0 1 0 0-3.151 1.576 1.576 0 0 0 0 3.151ZM244.614 211.183a1.575 1.575 0 1 0-1.576-1.574c0 .87.706 1.574 1.576 1.574ZM206.794 154.503a1.576 1.576 0 1 0 0-3.151 1.576 1.576 0 0 0 0 3.151ZM168.972 154.503a1.575 1.575 0 1 0 .002-3.15 1.575 1.575 0 0 0-.002 3.15ZM206.794 211.183a1.575 1.575 0 1 0-1.576-1.574c0 .87.705 1.574 1.576 1.574ZM168.972 211.183a1.574 1.574 0 1 0 0-3.148 1.575 1.575 0 1 0 0 3.148ZM225.704 116.715a1.575 1.575 0 1 0 .001-3.15 1.575 1.575 0 0 0-.001 3.15ZM225.704 173.396a1.575 1.575 0 1 0 .001-3.15 1.575 1.575 0 0 0-.001 3.15ZM187.883 116.715a1.575 1.575 0 1 0 0-3.15 1.575 1.575 0 0 0 0 3.15ZM150.062 116.715a1.575 1.575 0 1 0-1.576-1.574c0 .869.706 1.574 1.576 1.574ZM131.152 116.715a1.575 1.575 0 1 0 .001-3.15 1.575 1.575 0 0 0-.001 3.15ZM187.883 173.396a1.575 1.575 0 1 0 0-3.15 1.575 1.575 0 0 0 0 3.15ZM150.062 173.396a1.575 1.575 0 1 0-1.576-1.574c0 .869.706 1.574 1.576 1.574ZM131.152 173.396a1.575 1.575 0 1 0 .001-3.15 1.575 1.575 0 0 0-.001 3.15ZM225.704 154.503a1.576 1.576 0 1 0 0-3.151 1.576 1.576 0 0 0 0 3.151ZM225.704 211.183a1.575 1.575 0 1 0-1.576-1.574c0 .87.705 1.574 1.576 1.574ZM187.883 154.503a1.575 1.575 0 1 0 0-3.15 1.575 1.575 0 0 0 0 3.15ZM150.062 154.503a1.575 1.575 0 1 0 .002-3.15 1.575 1.575 0 0 0-.002 3.15ZM131.152 154.503a1.576 1.576 0 1 0 0-3.151 1.576 1.576 0 0 0 0 3.151ZM187.883 211.183a1.574 1.574 0 1 0 0-3.148 1.574 1.574 0 1 0 0 3.148ZM150.062 211.183a1.574 1.574 0 1 0 0-3.148 1.575 1.575 0 1 0 0 3.148ZM131.152 211.183a1.575 1.575 0 1 0-1.576-1.574c0 .87.706 1.574 1.576 1.574ZM263.525 97.822a1.575 1.575 0 1 0 .001-3.151 1.575 1.575 0 0 0-.001 3.15ZM263.525 135.609a1.576 1.576 0 1 0 0-3.151 1.576 1.576 0 0 0 0 3.151ZM263.525 192.29a1.576 1.576 0 1 0 0-3.151 1.576 1.576 0 0 0 0 3.151ZM263.525 116.715a1.575 1.575 0 1 0 .001-3.15 1.575 1.575 0 0 0-.001 3.15ZM263.525 173.396a1.575 1.575 0 1 0 .001-3.15 1.575 1.575 0 0 0-.001 3.15ZM263.525 154.503a1.576 1.576 0 1 0 0-3.151 1.576 1.576 0 0 0 0 3.151ZM263.525 211.183a1.575 1.575 0 1 0-1.576-1.574c0 .87.706 1.574 1.576 1.574ZM112.241 97.822a1.575 1.575 0 1 0 .001-3.151 1.575 1.575 0 0 0-.001 3.15ZM74.42 97.822a1.575 1.575 0 1 0 .002-3.15 1.575 1.575 0 0 0-.001 3.15ZM36.6 97.822a1.575 1.575 0 1 0 0-3.15 1.575 1.575 0 0 0 0 3.15ZM112.241 135.609a1.576 1.576 0 1 0 0-3.151 1.576 1.576 0 0 0 0 3.151ZM112.241 192.29a1.576 1.576 0 1 0 0-3.151 1.576 1.576 0 0 0 0 3.151ZM74.42 135.609a1.575 1.575 0 1 0 .002-3.15 1.575 1.575 0 0 0-.001 3.15ZM36.6 135.609a1.575 1.575 0 1 0 0-3.15 1.575 1.575 0 0 0 0 3.15ZM74.42 192.29a1.575 1.575 0 1 0 .002-3.15 1.575 1.575 0 0 0-.001 3.15ZM36.6 192.29a1.575 1.575 0 1 0 0-3.15 1.575 1.575 0 0 0 0 3.15ZM93.33 97.822a1.575 1.575 0 1 0 .002-3.15 1.575 1.575 0 0 0-.001 3.15ZM55.51 97.822a1.575 1.575 0 1 0 .002-3.15 1.575 1.575 0 0 0-.002 3.15ZM17.69 97.822a1.575 1.575 0 1 0 0-3.15 1.575 1.575 0 0 0 0 3.15ZM93.33 135.609a1.575 1.575 0 1 0 .002-3.15 1.575 1.575 0 0 0-.001 3.15ZM93.33 192.29a1.575 1.575 0 1 0 .002-3.15 1.575 1.575 0 0 0-.001 3.15ZM55.51 135.609a1.575 1.575 0 1 0 .002-3.15 1.575 1.575 0 0 0-.002 3.15ZM17.69 135.609a1.575 1.575 0 1 0 0-3.15 1.575 1.575 0 0 0 0 3.15ZM55.51 192.29a1.575 1.575 0 1 0 .002-3.15 1.575 1.575 0 0 0-.002 3.15ZM17.69 192.29a1.575 1.575 0 1 0 0-3.15 1.575 1.575 0 0 0 0 3.15ZM112.241 116.715a1.575 1.575 0 1 0 .001-3.15 1.575 1.575 0 0 0-.001 3.15ZM112.241 173.396a1.575 1.575 0 1 0 .001-3.15 1.575 1.575 0 0 0-.001 3.15ZM74.42 116.715a1.575 1.575 0 1 0 .002-3.15 1.575 1.575 0 0 0-.001 3.15ZM36.6 116.715a1.575 1.575 0 1 0 0-3.15 1.575 1.575 0 0 0 0 3.15ZM74.42 173.396a1.575 1.575 0 1 0 .002-3.15 1.575 1.575 0 0 0-.001 3.15ZM36.6 173.396a1.575 1.575 0 1 0 0-3.15 1.575 1.575 0 0 0 0 3.15ZM112.241 154.503a1.576 1.576 0 1 0 0-3.151 1.576 1.576 0 0 0 0 3.151ZM112.241 211.183a1.575 1.575 0 1 0-1.576-1.574c0 .87.706 1.574 1.576 1.574ZM74.42 154.503a1.575 1.575 0 1 0 .002-3.15 1.575 1.575 0 0 0-.001 3.15ZM36.6 154.503a1.575 1.575 0 1 0 0-3.15 1.575 1.575 0 0 0 0 3.15ZM74.42 211.183a1.575 1.575 0 1 0 0-3.148 1.575 1.575 0 1 0 0 3.148ZM36.6 211.183a1.575 1.575 0 1 0 0-3.148 1.575 1.575 0 1 0 0 3.148ZM93.33 116.715a1.575 1.575 0 1 0 .002-3.15 1.575 1.575 0 0 0-.001 3.15ZM93.33 173.396a1.575 1.575 0 1 0 .002-3.15 1.575 1.575 0 0 0-.001 3.15ZM55.51 116.715a1.575 1.575 0 1 0 .002-3.15 1.575 1.575 0 0 0-.002 3.15ZM17.69 116.715a1.575 1.575 0 1 0 0-3.15 1.575 1.575 0 0 0 0 3.15ZM55.51 173.396a1.575 1.575 0 1 0 .002-3.15 1.575 1.575 0 0 0-.002 3.15ZM17.69 173.396a1.575 1.575 0 1 0 0-3.15 1.575 1.575 0 0 0 0 3.15ZM93.33 154.503a1.575 1.575 0 1 0 .002-3.15 1.575 1.575 0 0 0-.001 3.15ZM93.33 211.183a1.574 1.574 0 1 0 0-3.148 1.574 1.574 0 1 0 0 3.148ZM55.51 154.503a1.575 1.575 0 1 0 .002-3.15 1.575 1.575 0 0 0-.002 3.15ZM17.69 154.503a1.575 1.575 0 1 0 0-3.15 1.575 1.575 0 0 0 0 3.15ZM55.51 211.183a1.574 1.574 0 1 0 0-3.148 1.574 1.574 0 1 0 0 3.148ZM17.69 211.183a1.574 1.574 0 1 0 0-3.148 1.574 1.574 0 1 0 0 3.148ZM244.614 230.077a1.575 1.575 0 1 0 .001-3.15 1.575 1.575 0 0 0-.001 3.15ZM206.794 230.077a1.575 1.575 0 1 0 .001-3.15 1.575 1.575 0 0 0-.001 3.15ZM168.972 230.077a1.575 1.575 0 1 0-1.576-1.574c0 .869.706 1.574 1.576 1.574ZM244.614 267.864a1.575 1.575 0 1 0 .001-3.15 1.575 1.575 0 0 0-.001 3.15ZM244.614 324.545a1.575 1.575 0 1 0 .001-3.15 1.575 1.575 0 0 0-.001 3.15ZM206.794 267.864a1.575 1.575 0 1 0 .001-3.15 1.575 1.575 0 0 0-.001 3.15ZM168.972 267.864a1.575 1.575 0 1 0-1.576-1.574c0 .869.706 1.574 1.576 1.574ZM206.794 324.545a1.575 1.575 0 1 0 .001-3.15 1.575 1.575 0 0 0-.001 3.15ZM168.972 324.545a1.575 1.575 0 1 0-1.576-1.574c0 .869.706 1.574 1.576 1.574ZM225.704 230.077a1.575 1.575 0 1 0 .001-3.15 1.575 1.575 0 0 0-.001 3.15ZM187.883 230.077a1.575 1.575 0 1 0 0-3.15 1.575 1.575 0 0 0 0 3.15ZM150.062 230.077a1.575 1.575 0 1 0-1.576-1.574c0 .869.706 1.574 1.576 1.574ZM131.152 230.077a1.575 1.575 0 1 0 .001-3.15 1.575 1.575 0 0 0-.001 3.15ZM225.704 267.864a1.575 1.575 0 1 0 .001-3.15 1.575 1.575 0 0 0-.001 3.15ZM225.704 324.545a1.575 1.575 0 1 0 .001-3.15 1.575 1.575 0 0 0-.001 3.15ZM187.883 267.864a1.575 1.575 0 1 0 0-3.15 1.575 1.575 0 0 0 0 3.15ZM150.062 267.864a1.575 1.575 0 1 0-1.576-1.574c0 .869.706 1.574 1.576 1.574ZM131.152 267.864a1.575 1.575 0 1 0 .001-3.15 1.575 1.575 0 0 0-.001 3.15ZM187.883 324.545a1.575 1.575 0 1 0 0-3.15 1.575 1.575 0 0 0 0 3.15ZM150.062 324.545a1.575 1.575 0 1 0-1.576-1.574c0 .869.706 1.574 1.576 1.574ZM131.152 324.545a1.575 1.575 0 1 0 .001-3.15 1.575 1.575 0 0 0-.001 3.15ZM244.614 248.971a1.576 1.576 0 1 0 0-3.151 1.576 1.576 0 0 0 0 3.151ZM244.614 305.651a1.575 1.575 0 1 0-1.576-1.574c0 .87.706 1.574 1.576 1.574ZM206.794 248.971a1.576 1.576 0 1 0 0-3.151 1.576 1.576 0 0 0 0 3.151ZM168.972 248.971a1.575 1.575 0 1 0 .002-3.15 1.575 1.575 0 0 0-.002 3.15ZM206.794 305.651a1.575 1.575 0 1 0-1.576-1.574c0 .87.705 1.574 1.576 1.574ZM168.972 305.651a1.574 1.574 0 1 0 0-3.148 1.575 1.575 0 1 0 0 3.148ZM244.614 286.758a1.576 1.576 0 1 0 0-3.151 1.576 1.576 0 0 0 0 3.151ZM244.614 343.439a1.576 1.576 0 1 0 0-3.151 1.576 1.576 0 0 0 0 3.151ZM206.794 286.758a1.576 1.576 0 1 0 0-3.151 1.576 1.576 0 0 0 0 3.151ZM168.972 286.758a1.575 1.575 0 1 0 .002-3.15 1.575 1.575 0 0 0-.002 3.15ZM206.794 343.439a1.576 1.576 0 1 0 0-3.151 1.576 1.576 0 0 0 0 3.151ZM168.972 343.439a1.575 1.575 0 1 0 .002-3.15 1.575 1.575 0 0 0-.002 3.15ZM225.704 248.971a1.576 1.576 0 1 0 0-3.151 1.576 1.576 0 0 0 0 3.151ZM225.704 305.651a1.575 1.575 0 1 0-1.576-1.574c0 .87.705 1.574 1.576 1.574ZM187.883 248.971a1.575 1.575 0 1 0 0-3.15 1.575 1.575 0 0 0 0 3.15ZM150.062 248.971a1.575 1.575 0 1 0 .002-3.15 1.575 1.575 0 0 0-.002 3.15ZM131.152 248.971a1.576 1.576 0 1 0 0-3.151 1.576 1.576 0 0 0 0 3.151ZM187.883 305.651a1.574 1.574 0 1 0 0-3.148 1.574 1.574 0 1 0 0 3.148ZM150.062 305.651a1.574 1.574 0 1 0 0-3.148 1.575 1.575 0 1 0 0 3.148ZM131.152 305.651a1.575 1.575 0 1 0-1.576-1.574c0 .87.706 1.574 1.576 1.574ZM225.704 286.758a1.576 1.576 0 1 0 0-3.151 1.576 1.576 0 0 0 0 3.151ZM225.704 343.439a1.576 1.576 0 1 0 0-3.151 1.576 1.576 0 0 0 0 3.151ZM187.883 286.758a1.575 1.575 0 1 0 0-3.15 1.575 1.575 0 0 0 0 3.15ZM150.062 286.758a1.575 1.575 0 1 0 .002-3.15 1.575 1.575 0 0 0-.002 3.15ZM131.152 286.758a1.576 1.576 0 1 0 0-3.151 1.576 1.576 0 0 0 0 3.151ZM187.883 343.439a1.575 1.575 0 1 0 0-3.15 1.575 1.575 0 0 0 0 3.15ZM150.062 343.439a1.575 1.575 0 1 0 .002-3.15 1.575 1.575 0 0 0-.002 3.15ZM131.152 343.439a1.576 1.576 0 1 0 0-3.151 1.576 1.576 0 0 0 0 3.151ZM263.525 230.077a1.575 1.575 0 1 0 .001-3.15 1.575 1.575 0 0 0-.001 3.15ZM263.525 267.864a1.575 1.575 0 1 0 .001-3.15 1.575 1.575 0 0 0-.001 3.15ZM263.525 324.545a1.575 1.575 0 1 0 .001-3.15 1.575 1.575 0 0 0-.001 3.15ZM263.525 248.971a1.576 1.576 0 1 0 0-3.151 1.576 1.576 0 0 0 0 3.151ZM263.525 305.651a1.575 1.575 0 1 0-1.576-1.574c0 .87.706 1.574 1.576 1.574ZM263.525 286.758a1.576 1.576 0 1 0 0-3.151 1.576 1.576 0 0 0 0 3.151ZM263.525 343.439a1.576 1.576 0 1 0 0-3.151 1.576 1.576 0 0 0 0 3.151ZM244.614 60.035a1.576 1.576 0 1 0 0-3.152 1.576 1.576 0 0 0 0 3.152ZM206.794 60.035a1.576 1.576 0 1 0 0-3.152 1.576 1.576 0 0 0 0 3.152ZM168.972 60.035a1.575 1.575 0 1 0 .002-3.15 1.575 1.575 0 0 0-.002 3.15ZM225.704 60.035a1.576 1.576 0 1 0 0-3.152 1.576 1.576 0 0 0 0 3.152ZM187.883 60.035a1.575 1.575 0 1 0 0-3.15 1.575 1.575 0 0 0 0 3.15ZM150.062 60.035a1.575 1.575 0 1 0 .002-3.15 1.575 1.575 0 0 0-.002 3.15ZM131.152 60.035a1.576 1.576 0 1 0 0-3.152 1.576 1.576 0 0 0 0 3.152ZM244.614 41.14a1.575 1.575 0 1 0 .001-3.15 1.575 1.575 0 0 0-.001 3.15ZM206.794 41.14a1.575 1.575 0 1 0 .001-3.15 1.575 1.575 0 0 0-.001 3.15ZM168.972 41.14a1.575 1.575 0 1 0 .002-3.149 1.575 1.575 0 0 0-.002 3.15ZM244.614 78.928a1.575 1.575 0 1 0 .001-3.15 1.575 1.575 0 0 0-.001 3.15ZM206.794 78.928a1.575 1.575 0 1 0 .001-3.15 1.575 1.575 0 0 0-.001 3.15ZM168.972 78.928a1.575 1.575 0 1 0 .002-3.15 1.575 1.575 0 0 0-.002 3.15ZM225.704 41.14a1.575 1.575 0 1 0 .001-3.15 1.575 1.575 0 0 0-.001 3.15ZM187.883 41.14a1.575 1.575 0 1 0 0-3.148 1.575 1.575 0 0 0 0 3.149ZM150.062 41.14a1.575 1.575 0 1 0 .002-3.149 1.575 1.575 0 0 0-.002 3.15ZM131.152 41.14a1.575 1.575 0 1 0 .001-3.15 1.575 1.575 0 0 0-.001 3.15ZM225.704 78.928a1.575 1.575 0 1 0 .001-3.15 1.575 1.575 0 0 0-.001 3.15ZM187.883 78.928a1.575 1.575 0 1 0 0-3.15 1.575 1.575 0 0 0 0 3.15ZM150.062 78.928a1.575 1.575 0 1 0 .002-3.15 1.575 1.575 0 0 0-.002 3.15ZM131.152 78.928a1.575 1.575 0 1 0 .001-3.15 1.575 1.575 0 0 0-.001 3.15ZM263.525 60.035a1.576 1.576 0 1 0 0-3.152 1.576 1.576 0 0 0 0 3.152ZM263.525 41.14a1.575 1.575 0 1 0 .001-3.15 1.575 1.575 0 0 0-.001 3.15ZM263.525 78.928a1.575 1.575 0 1 0 .001-3.15 1.575 1.575 0 0 0-.001 3.15ZM112.241 230.077a1.575 1.575 0 1 0 .001-3.15 1.575 1.575 0 0 0-.001 3.15ZM74.42 230.077a1.575 1.575 0 1 0 .002-3.15 1.575 1.575 0 0 0-.001 3.15ZM36.6 230.077a1.575 1.575 0 1 0 0-3.15 1.575 1.575 0 0 0 0 3.15ZM112.241 267.864a1.575 1.575 0 1 0 .001-3.15 1.575 1.575 0 0 0-.001 3.15ZM112.241 324.545a1.575 1.575 0 1 0 .001-3.15 1.575 1.575 0 0 0-.001 3.15ZM74.42 267.864a1.575 1.575 0 1 0 .002-3.15 1.575 1.575 0 0 0-.001 3.15ZM36.6 267.864a1.575 1.575 0 1 0 0-3.15 1.575 1.575 0 0 0 0 3.15ZM74.42 324.545a1.575 1.575 0 1 0 .002-3.15 1.575 1.575 0 0 0-.001 3.15ZM36.6 324.545a1.575 1.575 0 1 0 0-3.15 1.575 1.575 0 0 0 0 3.15ZM93.33 230.077a1.575 1.575 0 1 0 .002-3.15 1.575 1.575 0 0 0-.001 3.15ZM55.51 230.077a1.575 1.575 0 1 0 .002-3.15 1.575 1.575 0 0 0-.002 3.15ZM17.69 230.077a1.575 1.575 0 1 0 0-3.15 1.575 1.575 0 0 0 0 3.15ZM93.33 267.864a1.575 1.575 0 1 0 .002-3.15 1.575 1.575 0 0 0-.001 3.15ZM93.33 324.545a1.575 1.575 0 1 0 .002-3.15 1.575 1.575 0 0 0-.001 3.15ZM55.51 267.864a1.575 1.575 0 1 0 .002-3.15 1.575 1.575 0 0 0-.002 3.15ZM17.69 267.864a1.575 1.575 0 1 0 0-3.15 1.575 1.575 0 0 0 0 3.15ZM55.51 324.545a1.575 1.575 0 1 0 .002-3.15 1.575 1.575 0 0 0-.002 3.15ZM17.69 324.545a1.575 1.575 0 1 0 0-3.15 1.575 1.575 0 0 0 0 3.15ZM112.241 248.971a1.576 1.576 0 1 0 0-3.151 1.576 1.576 0 0 0 0 3.151ZM112.241 305.651a1.575 1.575 0 1 0-1.576-1.574c0 .87.706 1.574 1.576 1.574ZM74.42 248.971a1.575 1.575 0 1 0 .002-3.15 1.575 1.575 0 0 0-.001 3.15ZM36.6 248.971a1.575 1.575 0 1 0 0-3.15 1.575 1.575 0 0 0 0 3.15ZM74.42 305.651a1.575 1.575 0 1 0 0-3.148 1.575 1.575 0 1 0 0 3.148ZM36.6 305.651a1.575 1.575 0 1 0 0-3.148 1.575 1.575 0 1 0 0 3.148ZM112.241 286.758a1.576 1.576 0 1 0 0-3.151 1.576 1.576 0 0 0 0 3.151ZM112.241 343.439a1.576 1.576 0 1 0 0-3.151 1.576 1.576 0 0 0 0 3.151ZM74.42 286.758a1.575 1.575 0 1 0 .002-3.15 1.575 1.575 0 0 0-.001 3.15ZM36.6 286.758a1.575 1.575 0 1 0 0-3.15 1.575 1.575 0 0 0 0 3.15ZM74.42 343.439a1.575 1.575 0 1 0 .002-3.15 1.575 1.575 0 0 0-.001 3.15ZM36.6 343.439a1.575 1.575 0 1 0 0-3.15 1.575 1.575 0 0 0 0 3.15ZM93.33 248.971a1.575 1.575 0 1 0 .002-3.15 1.575 1.575 0 0 0-.001 3.15ZM93.33 305.651a1.574 1.574 0 1 0 0-3.148 1.574 1.574 0 1 0 0 3.148ZM55.51 248.971a1.575 1.575 0 1 0 .002-3.15 1.575 1.575 0 0 0-.002 3.15ZM17.69 248.971a1.575 1.575 0 1 0 0-3.15 1.575 1.575 0 0 0 0 3.15ZM55.51 305.651a1.574 1.574 0 1 0 0-3.148 1.574 1.574 0 1 0 0 3.148ZM17.69 305.651a1.574 1.574 0 1 0 0-3.148 1.574 1.574 0 1 0 0 3.148ZM93.33 286.758a1.575 1.575 0 1 0 .002-3.15 1.575 1.575 0 0 0-.001 3.15ZM93.33 343.439a1.575 1.575 0 1 0 .002-3.15 1.575 1.575 0 0 0-.001 3.15ZM55.51 286.758a1.575 1.575 0 1 0 .002-3.15 1.575 1.575 0 0 0-.002 3.15ZM17.69 286.758a1.575 1.575 0 1 0 0-3.15 1.575 1.575 0 0 0 0 3.15ZM55.51 343.439a1.575 1.575 0 1 0 .002-3.15 1.575 1.575 0 0 0-.002 3.15ZM17.69 343.439a1.575 1.575 0 1 0 0-3.15 1.575 1.575 0 0 0 0 3.15ZM112.241 60.035a1.576 1.576 0 1 0 0-3.152 1.576 1.576 0 0 0 0 3.152ZM74.42 60.035a1.575 1.575 0 1 0 .002-3.151 1.575 1.575 0 0 0-.001 3.15ZM36.6 60.035a1.575 1.575 0 1 0 0-3.151 1.575 1.575 0 0 0 0 3.15ZM93.33 60.035a1.575 1.575 0 1 0 .002-3.15 1.575 1.575 0 0 0-.001 3.15ZM55.51 60.035a1.575 1.575 0 1 0 .002-3.15 1.575 1.575 0 0 0-.002 3.15ZM17.69 60.035a1.575 1.575 0 1 0 0-3.15 1.575 1.575 0 0 0 0 3.15ZM112.241 41.14a1.575 1.575 0 1 0 .001-3.15 1.575 1.575 0 0 0-.001 3.15ZM74.42 41.14a1.575 1.575 0 1 0 .002-3.15 1.575 1.575 0 0 0-.001 3.15ZM36.6 41.14a1.575 1.575 0 1 0 0-3.15 1.575 1.575 0 0 0 0 3.15ZM112.241 78.928a1.575 1.575 0 1 0 .001-3.15 1.575 1.575 0 0 0-.001 3.15ZM74.42 78.928a1.575 1.575 0 1 0 .002-3.15 1.575 1.575 0 0 0-.001 3.15ZM36.6 78.928a1.575 1.575 0 1 0 0-3.15 1.575 1.575 0 0 0 0 3.15ZM93.33 41.14a1.575 1.575 0 1 0 .002-3.15 1.575 1.575 0 0 0-.001 3.15ZM55.51 41.14a1.575 1.575 0 1 0 .002-3.15 1.575 1.575 0 0 0-.002 3.15ZM17.69 41.14a1.575 1.575 0 1 0 0-3.15 1.575 1.575 0 0 0 0 3.15ZM93.33 78.928a1.575 1.575 0 1 0 .002-3.15 1.575 1.575 0 0 0-.001 3.15ZM55.51 78.928a1.575 1.575 0 1 0 .002-3.15 1.575 1.575 0 0 0-.002 3.15ZM17.69 78.928a1.575 1.575 0 1 0 0-3.15 1.575 1.575 0 0 0 0 3.15ZM244.614 362.332a1.575 1.575 0 1 0 .001-3.15 1.575 1.575 0 0 0-.001 3.15ZM206.794 362.332a1.575 1.575 0 1 0 .001-3.15 1.575 1.575 0 0 0-.001 3.15ZM168.972 362.332a1.575 1.575 0 1 0-1.576-1.574c0 .869.706 1.574 1.576 1.574ZM244.614 400.12a1.576 1.576 0 1 0 0-3.151 1.576 1.576 0 0 0 0 3.151ZM206.794 400.12a1.576 1.576 0 1 0 0-3.151 1.576 1.576 0 0 0 0 3.151ZM168.972 400.12a1.575 1.575 0 1 0 .002-3.15 1.575 1.575 0 0 0-.002 3.15ZM225.704 362.332a1.575 1.575 0 1 0 .001-3.15 1.575 1.575 0 0 0-.001 3.15ZM187.883 362.332a1.575 1.575 0 1 0 0-3.15 1.575 1.575 0 0 0 0 3.15ZM150.062 362.332a1.575 1.575 0 1 0-1.576-1.574c0 .869.706 1.574 1.576 1.574ZM131.152 362.332a1.575 1.575 0 1 0 .001-3.15 1.575 1.575 0 0 0-.001 3.15ZM225.704 400.12a1.576 1.576 0 1 0 0-3.151 1.576 1.576 0 0 0 0 3.151ZM187.883 400.12a1.575 1.575 0 1 0 0-3.15 1.575 1.575 0 0 0 0 3.15ZM150.062 400.12a1.575 1.575 0 1 0 .002-3.15 1.575 1.575 0 0 0-.002 3.15ZM131.152 400.12a1.576 1.576 0 1 0 0-3.151 1.576 1.576 0 0 0 0 3.151ZM244.614 381.226a1.576 1.576 0 1 0 0-3.151 1.576 1.576 0 0 0 0 3.151ZM206.794 381.226a1.576 1.576 0 1 0 0-3.151 1.576 1.576 0 0 0 0 3.151ZM168.972 381.226a1.575 1.575 0 1 0 .002-3.15 1.575 1.575 0 0 0-.002 3.15ZM244.614 419.013a1.575 1.575 0 1 0 .001-3.15 1.575 1.575 0 0 0-.001 3.15ZM206.794 419.013a1.575 1.575 0 1 0 .001-3.15 1.575 1.575 0 0 0-.001 3.15ZM168.972 419.013a1.575 1.575 0 1 0-1.576-1.574c0 .869.706 1.574 1.576 1.574ZM225.704 381.226a1.576 1.576 0 1 0 0-3.151 1.576 1.576 0 0 0 0 3.151ZM187.883 381.226a1.575 1.575 0 1 0 0-3.15 1.575 1.575 0 0 0 0 3.15ZM150.062 381.226a1.575 1.575 0 1 0 .002-3.15 1.575 1.575 0 0 0-.002 3.15ZM131.152 381.226a1.576 1.576 0 1 0 0-3.151 1.576 1.576 0 0 0 0 3.151ZM225.704 419.013a1.575 1.575 0 1 0 .001-3.15 1.575 1.575 0 0 0-.001 3.15ZM187.883 419.013a1.575 1.575 0 1 0 0-3.15 1.575 1.575 0 0 0 0 3.15ZM150.062 419.013a1.575 1.575 0 1 0-1.576-1.574c0 .869.706 1.574 1.576 1.574ZM131.152 419.013a1.575 1.575 0 1 0 .001-3.15 1.575 1.575 0 0 0-.001 3.15ZM263.525 362.332a1.575 1.575 0 1 0 .001-3.15 1.575 1.575 0 0 0-.001 3.15ZM263.525 400.12a1.576 1.576 0 1 0 0-3.151 1.576 1.576 0 0 0 0 3.151ZM263.525 381.226a1.576 1.576 0 1 0 0-3.151 1.576 1.576 0 0 0 0 3.151ZM263.525 419.013a1.575 1.575 0 1 0 .001-3.15 1.575 1.575 0 0 0-.001 3.15ZM112.241 362.332a1.575 1.575 0 1 0 .001-3.15 1.575 1.575 0 0 0-.001 3.15ZM74.42 362.332a1.575 1.575 0 1 0 .002-3.15 1.575 1.575 0 0 0-.001 3.15ZM36.6 362.332a1.575 1.575 0 1 0 0-3.15 1.575 1.575 0 0 0 0 3.15ZM112.241 400.12a1.576 1.576 0 1 0 0-3.151 1.576 1.576 0 0 0 0 3.151ZM74.42 400.12a1.575 1.575 0 1 0 .002-3.15 1.575 1.575 0 0 0-.001 3.15ZM36.6 400.12a1.575 1.575 0 1 0 0-3.15 1.575 1.575 0 0 0 0 3.15ZM93.33 362.332a1.575 1.575 0 1 0 .002-3.15 1.575 1.575 0 0 0-.001 3.15ZM55.51 362.332a1.575 1.575 0 1 0 .002-3.15 1.575 1.575 0 0 0-.002 3.15ZM17.69 362.332a1.575 1.575 0 1 0 0-3.15 1.575 1.575 0 0 0 0 3.15ZM93.33 400.12a1.575 1.575 0 1 0 .002-3.15 1.575 1.575 0 0 0-.001 3.15ZM55.51 400.12a1.575 1.575 0 1 0 .002-3.15 1.575 1.575 0 0 0-.002 3.15ZM17.69 400.12a1.575 1.575 0 1 0 0-3.15 1.575 1.575 0 0 0 0 3.15ZM112.241 381.226a1.576 1.576 0 1 0 0-3.151 1.576 1.576 0 0 0 0 3.151ZM74.42 381.226a1.575 1.575 0 1 0 .002-3.15 1.575 1.575 0 0 0-.001 3.15ZM36.6 381.226a1.575 1.575 0 1 0 0-3.15 1.575 1.575 0 0 0 0 3.15ZM112.241 419.013a1.575 1.575 0 1 0 .001-3.15 1.575 1.575 0 0 0-.001 3.15ZM74.42 419.013a1.575 1.575 0 1 0 .002-3.15 1.575 1.575 0 0 0-.001 3.15ZM36.6 419.013a1.575 1.575 0 1 0 0-3.15 1.575 1.575 0 0 0 0 3.15ZM93.33 381.226a1.575 1.575 0 1 0 .002-3.15 1.575 1.575 0 0 0-.001 3.15ZM55.51 381.226a1.575 1.575 0 1 0 .002-3.15 1.575 1.575 0 0 0-.002 3.15ZM17.69 381.226a1.575 1.575 0 1 0 0-3.15 1.575 1.575 0 0 0 0 3.15ZM93.33 419.013a1.575 1.575 0 1 0 .002-3.15 1.575 1.575 0 0 0-.001 3.15ZM55.51 419.013a1.575 1.575 0 1 0 .002-3.15 1.575 1.575 0 0 0-.002 3.15ZM17.69 419.013a1.575 1.575 0 1 0 0-3.15 1.575 1.575 0 0 0 0 3.15ZM320.342 97.822a1.575 1.575 0 1 0 .002-3.15 1.575 1.575 0 0 0-.002 3.15ZM282.522 97.822a1.575 1.575 0 1 0 .001-3.151 1.575 1.575 0 0 0-.001 3.15ZM320.342 135.609a1.575 1.575 0 1 0 .002-3.15 1.575 1.575 0 0 0-.002 3.15ZM282.522 135.609a1.576 1.576 0 1 0 0-3.151 1.576 1.576 0 0 0 0 3.151ZM320.342 192.29a1.575 1.575 0 1 0 .002-3.15 1.575 1.575 0 0 0-.002 3.15ZM282.522 192.29a1.576 1.576 0 1 0 0-3.151 1.576 1.576 0 0 0 0 3.151ZM339.253 97.822a1.575 1.575 0 1 0 0-3.15 1.575 1.575 0 0 0 0 3.15ZM301.432 97.822a1.575 1.575 0 1 0 .002-3.15 1.575 1.575 0 0 0-.002 3.15ZM339.253 135.609a1.575 1.575 0 1 0 0-3.15 1.575 1.575 0 0 0 0 3.15ZM339.253 192.29a1.575 1.575 0 1 0 0-3.15 1.575 1.575 0 0 0 0 3.15ZM301.432 135.609a1.575 1.575 0 1 0 .002-3.15 1.575 1.575 0 0 0-.002 3.15ZM301.432 192.29a1.575 1.575 0 1 0 .002-3.15 1.575 1.575 0 0 0-.002 3.15ZM320.342 116.715a1.575 1.575 0 1 0 .002-3.15 1.575 1.575 0 0 0-.002 3.15ZM282.522 116.715a1.575 1.575 0 1 0 .001-3.15 1.575 1.575 0 0 0-.001 3.15ZM320.342 173.396a1.575 1.575 0 1 0 .002-3.15 1.575 1.575 0 0 0-.002 3.15ZM282.522 173.396a1.575 1.575 0 1 0 .001-3.15 1.575 1.575 0 0 0-.001 3.15ZM320.342 154.503a1.575 1.575 0 1 0 .002-3.15 1.575 1.575 0 0 0-.002 3.15ZM282.522 154.503a1.576 1.576 0 1 0 0-3.151 1.576 1.576 0 0 0 0 3.151ZM320.342 211.183a1.574 1.574 0 1 0 0-3.148 1.574 1.574 0 1 0 0 3.148ZM282.522 211.183a1.575 1.575 0 1 0-1.576-1.574c0 .87.706 1.574 1.576 1.574ZM339.253 116.715a1.575 1.575 0 1 0 0-3.15 1.575 1.575 0 0 0 0 3.15ZM339.253 173.396a1.575 1.575 0 1 0 0-3.15 1.575 1.575 0 0 0 0 3.15ZM301.432 116.715a1.575 1.575 0 1 0-1.576-1.574c0 .869.706 1.574 1.576 1.574ZM301.432 173.396a1.575 1.575 0 1 0-1.576-1.574c0 .869.706 1.574 1.576 1.574ZM339.253 154.503a1.575 1.575 0 1 0 0-3.15 1.575 1.575 0 0 0 0 3.15ZM339.253 211.183a1.574 1.574 0 1 0 0-3.148 1.574 1.574 0 1 0 0 3.148ZM301.432 154.503a1.575 1.575 0 1 0 .002-3.15 1.575 1.575 0 0 0-.002 3.15ZM301.432 211.183a1.574 1.574 0 1 0 0-3.148 1.575 1.575 0 1 0 0 3.148ZM320.342 230.077a1.575 1.575 0 1 0 .002-3.15 1.575 1.575 0 0 0-.002 3.15ZM282.522 230.077a1.575 1.575 0 1 0 .001-3.15 1.575 1.575 0 0 0-.001 3.15ZM320.342 267.864a1.575 1.575 0 1 0 .002-3.15 1.575 1.575 0 0 0-.002 3.15ZM282.522 267.864a1.575 1.575 0 1 0 .001-3.15 1.575 1.575 0 0 0-.001 3.15ZM320.342 324.545a1.575 1.575 0 1 0 .002-3.15 1.575 1.575 0 0 0-.002 3.15ZM282.522 324.545a1.575 1.575 0 1 0 .001-3.15 1.575 1.575 0 0 0-.001 3.15ZM339.253 230.077a1.575 1.575 0 1 0 0-3.15 1.575 1.575 0 0 0 0 3.15ZM301.432 230.077a1.575 1.575 0 1 0-1.576-1.574c0 .869.706 1.574 1.576 1.574ZM339.253 267.864a1.575 1.575 0 1 0 0-3.15 1.575 1.575 0 0 0 0 3.15ZM339.253 324.545a1.575 1.575 0 1 0 0-3.15 1.575 1.575 0 0 0 0 3.15ZM301.432 267.864a1.575 1.575 0 1 0-1.576-1.574c0 .869.706 1.574 1.576 1.574ZM301.432 324.545a1.575 1.575 0 1 0-1.576-1.574c0 .869.706 1.574 1.576 1.574ZM320.342 248.971a1.575 1.575 0 1 0 .002-3.15 1.575 1.575 0 0 0-.002 3.15ZM282.522 248.971a1.576 1.576 0 1 0 0-3.151 1.576 1.576 0 0 0 0 3.151ZM320.342 305.651a1.574 1.574 0 1 0 0-3.148 1.574 1.574 0 1 0 0 3.148ZM282.522 305.651a1.575 1.575 0 1 0-1.576-1.574c0 .87.706 1.574 1.576 1.574ZM320.342 286.758a1.575 1.575 0 1 0 .002-3.15 1.575 1.575 0 0 0-.002 3.15ZM282.522 286.758a1.576 1.576 0 1 0 0-3.151 1.576 1.576 0 0 0 0 3.151ZM320.342 343.439a1.575 1.575 0 1 0 .002-3.15 1.575 1.575 0 0 0-.002 3.15ZM282.522 343.439a1.576 1.576 0 1 0 0-3.151 1.576 1.576 0 0 0 0 3.151ZM339.253 248.971a1.575 1.575 0 1 0 0-3.15 1.575 1.575 0 0 0 0 3.15ZM339.253 305.651a1.574 1.574 0 1 0 0-3.148 1.574 1.574 0 1 0 0 3.148ZM301.432 248.971a1.575 1.575 0 1 0 .002-3.15 1.575 1.575 0 0 0-.002 3.15ZM301.432 305.651a1.574 1.574 0 1 0 0-3.148 1.575 1.575 0 1 0 0 3.148ZM339.253 286.758a1.575 1.575 0 1 0 0-3.15 1.575 1.575 0 0 0 0 3.15ZM339.253 343.439a1.575 1.575 0 1 0 0-3.15 1.575 1.575 0 0 0 0 3.15ZM301.432 286.758a1.575 1.575 0 1 0 .002-3.15 1.575 1.575 0 0 0-.002 3.15ZM301.432 343.439a1.575 1.575 0 1 0 .002-3.15 1.575 1.575 0 0 0-.002 3.15ZM320.342 60.035a1.575 1.575 0 1 0 .002-3.15 1.575 1.575 0 0 0-.002 3.15ZM282.522 60.035a1.576 1.576 0 1 0 0-3.152 1.576 1.576 0 0 0 0 3.152ZM339.253 60.035a1.575 1.575 0 1 0 0-3.15 1.575 1.575 0 0 0 0 3.15ZM301.432 60.035a1.575 1.575 0 1 0 .002-3.15 1.575 1.575 0 0 0-.002 3.15ZM320.342 41.14a1.575 1.575 0 1 0 .002-3.149 1.575 1.575 0 0 0-.002 3.15ZM282.522 41.14a1.575 1.575 0 1 0 .001-3.15 1.575 1.575 0 0 0-.001 3.15ZM320.342 78.928a1.575 1.575 0 1 0 .002-3.15 1.575 1.575 0 0 0-.002 3.15ZM282.522 78.928a1.575 1.575 0 1 0 .001-3.15 1.575 1.575 0 0 0-.001 3.15ZM339.253 41.14a1.575 1.575 0 1 0 0-3.148 1.575 1.575 0 0 0 0 3.149ZM301.432 41.14a1.575 1.575 0 1 0 .002-3.149 1.575 1.575 0 0 0-.002 3.15ZM339.253 78.928a1.575 1.575 0 1 0 0-3.15 1.575 1.575 0 0 0 0 3.15ZM301.432 78.928a1.575 1.575 0 1 0 .002-3.15 1.575 1.575 0 0 0-.002 3.15ZM320.342 362.332a1.575 1.575 0 1 0 .002-3.15 1.575 1.575 0 0 0-.002 3.15ZM282.522 362.332a1.575 1.575 0 1 0 .001-3.15 1.575 1.575 0 0 0-.001 3.15ZM320.342 400.12a1.575 1.575 0 1 0 .002-3.15 1.575 1.575 0 0 0-.002 3.15ZM282.522 400.12a1.576 1.576 0 1 0 0-3.151 1.576 1.576 0 0 0 0 3.151ZM339.253 362.332a1.575 1.575 0 1 0 0-3.15 1.575 1.575 0 0 0 0 3.15ZM301.432 362.332a1.575 1.575 0 1 0-1.576-1.574c0 .869.706 1.574 1.576 1.574ZM339.253 400.12a1.575 1.575 0 1 0 0-3.15 1.575 1.575 0 0 0 0 3.15ZM301.432 400.12a1.575 1.575 0 1 0 .002-3.15 1.575 1.575 0 0 0-.002 3.15ZM320.342 381.226a1.575 1.575 0 1 0 .002-3.15 1.575 1.575 0 0 0-.002 3.15ZM282.522 381.226a1.576 1.576 0 1 0 0-3.151 1.576 1.576 0 0 0 0 3.151ZM320.342 419.013a1.575 1.575 0 1 0 .002-3.15 1.575 1.575 0 0 0-.002 3.15ZM282.522 419.013a1.575 1.575 0 1 0 .001-3.15 1.575 1.575 0 0 0-.001 3.15ZM339.253 381.226a1.575 1.575 0 1 0 0-3.15 1.575 1.575 0 0 0 0 3.15ZM301.432 381.226a1.575 1.575 0 1 0 .002-3.15 1.575 1.575 0 0 0-.002 3.15ZM339.253 419.013a1.575 1.575 0 1 0 0-3.15 1.575 1.575 0 0 0 0 3.15ZM301.432 419.013a1.575 1.575 0 1 0-1.576-1.574c0 .869.706 1.574 1.576 1.574Z" fill="#CCDFFF"/><path d="M314.378 238.39c-17.067 0-34.007-2.613-34.236-2.645a1.18 1.18 0 1 1 .363-2.33c.299.047 29.886 4.605 49.931 1.598 7.422-12.013 10.196-36.937 10.196-49.989 0-5.732-1.994-24.452-27.696-24.523-.457 0-.875-.267-1.072-.685l-5.405-11.714a1.181 1.181 0 0 1 2.143-.992l5.09 11.037c14.309.276 29.296 7.455 29.296 26.877 0 14.02-2.892 39.361-10.85 51.713a1.179 1.179 0 0 1-.812.527c-5.208.819-11.086 1.126-16.948 1.126ZM293.773 157.053c-2.458 0-4.649-.889-6.02-2.503-8.013-8.18-10.077-24.263-10.164-24.94a1.183 1.183 0 0 1 2.348-.291c.016.157 2.056 16.012 9.534 23.609.024.024.039.047.063.071 1.111 1.323 3.112 1.929 5.358 1.622 2.269-.307 5.192-1.709 6.571-4.724.276-.59.977-.85 1.568-.582.591.267.851.976.583 1.566-1.489 3.252-4.711 5.574-8.407 6.078-.488.063-.969.094-1.434.094Z" fill="#6A2EA0"/><path d="m256.259 194.982-13.946-21.909a1.161 1.161 0 0 0-1.931-.047l-8.17 11.525c-.26.37-.284.858-.056 1.252l13.545 23.436a1.162 1.162 0 0 0 1.978.055l8.572-13.044a1.17 1.17 0 0 0 .008-1.268Zm-15.199-15.154a1.733 1.733 0 1 1 0-3.464c.953 0 1.734.779 1.734 1.732a1.724 1.724 0 0 1-1.734 1.732Zm89.525 69.3s-23.614-.614-56.613-17.689c-3.483-1.803-7.076-3.377-10.787-4.637-8.068-2.732-21.652-6.715-28.239-5.141-9.716 2.323-65.162 63.648-65.162 63.648s21.936 18.516 38.971 27.081l11.086-19.334 11.464 53.012h41.974l-22.047-60.751 51.153.04c0-.016 24.402-6.196 28.2-36.229Zm-179.546-9.25c0-12.848 10.424-23.263 23.283-23.263 12.859 0 23.283 10.415 23.283 23.263h-46.566ZM84.671 91.815c13-6.321 31.99-5.022 51.744 8.754 24.662-5.022 30.225 16.469 30.225 16.469H84.67V91.815Zm232.125 38.268c-1.386-1.843-2.592-3.362-3.561-4.685-2.254-3.07-1.805-7.281.937-9.927 3.184-3.07 4.972-7.919 2.364-12.288-3.041-5.102-14.907-7.865-18.099-1.606-1.575 3.094 1.789 6.479-1.252 8.526-5.027 3.4-7.746-6.086-13.08-3.661-3.751 1.7-4.168 5.644-3.112 8.707 1.055 3.062.055 7.305-5.934 5.613-7.674-2.165-8.336 10.242-3.632 14.745 5.917 5.66 14.537 2.196 10.361-3.677-1.938-2.724-.843-5.786 2.813-4.558 2.506.835 8.565 2.472 9.298-1.795-.496 4.826 4.507 3.85 6.414 2.409 2.174-1.637 4.396.354 1.119 4.724-2.309 3.07 3.474 6.675 4.278-.237.528-4.542 6.051-2.298 3.388 2.173-2.655 4.464-6.949 12.478-.74 16.083 7.044 4.094 17.799-8.1 8.438-20.546ZM93.858 358.703h14.475v7.865a7.239 7.239 0 0 1-7.242 7.234c-3.994 0-7.24-3.235-7.24-7.234v-7.865h.007Z" fill="url(#a)"/><path d="M268.307 218.544a1.18 1.18 0 0 1-1.159-.968c-3.38-18.453-1.82-32.82 4.641-42.7 7.029-10.753 18.706-13.666 22.259-14.32v-3.684a1.18 1.18 0 0 1 1.182-1.181 1.18 1.18 0 0 1 1.182 1.181v4.692c0 .598-.449 1.102-1.04 1.173-.142.016-14.025 1.842-21.605 13.43-6.114 9.36-7.564 23.145-4.294 40.984a1.186 1.186 0 0 1-.954 1.377c-.071.008-.142.016-.212.016ZM262.69 228.266a1.18 1.18 0 0 1-1.159-.968 1.175 1.175 0 0 1 .954-1.37c32.833-5.983 61.104-2.314 61.388-2.283a1.182 1.182 0 0 1 1.016 1.331 1.18 1.18 0 0 1-1.331 1.015c-.276-.039-28.201-3.652-60.648 2.26a2.16 2.16 0 0 1-.22.015Z" fill="#6A2EA0"/><path d="M321.918 225.117a1.178 1.178 0 0 1-1.151-.929c-3.136-14.217-6.303-36.685-6.335-36.913a1.176 1.176 0 0 1 1.009-1.33 1.175 1.175 0 0 1 1.331 1.007c.032.221 3.192 22.61 6.304 36.733a1.18 1.18 0 0 1-.898 1.409 1.436 1.436 0 0 1-.26.023ZM300.273 285.128c-1.095 0-2.206-.063-3.341-.196-8.163-.929-21.416-5.22-38.175-20.39-9.967-9.022-16.578-17.776-16.641-17.862a1.183 1.183 0 0 1 1.891-1.417c.26.338 25.994 34.229 53.185 37.323 7.872.897 14.695-1.638 20.29-7.526 10.597-11.156 13.765-31.175 12.496-38.78a1.184 1.184 0 0 1 .969-1.361 1.185 1.185 0 0 1 1.364.968c1.339 8.006-1.986 29.08-13.112 40.794-5.326 5.621-11.677 8.447-18.926 8.447Z" fill="#6A2EA0"/><path d="M203.5 322.734c-.158 0-.323-.031-.473-.102-21.448-9.392-42.517-26.238-42.73-26.404a1.144 1.144 0 0 1-.433-.811 1.17 1.17 0 0 1 .284-.881c2.521-2.929 61.86-71.694 74.601-74.047 12.725-2.346 27.846 5.219 28.484 5.542.583.291.812 1.007.52 1.59a1.188 1.188 0 0 1-1.591.519c-.15-.078-15.058-7.525-26.987-5.321-9.747 1.795-54.809 51.926-72.435 72.331 4.263 3.306 22.031 16.721 40.263 24.9l15.814-27.585a1.183 1.183 0 0 1 2.057 1.173l-16.342 28.506c-.229.37-.622.59-1.032.59Z" fill="#6A2EA0"/><path d="M276.526 357.373h-43.148c-.559 0-1.04-.386-1.158-.929-.15-.685-14.79-68.434-17.343-81.479-1.418-7.258-.26-13.603 3.247-17.87 2.695-3.275 6.642-5.07 11.102-5.07h12.221a1.18 1.18 0 1 1 0 2.362h-12.221c-3.798 0-7.005 1.456-9.274 4.212-3.057 3.707-4.034 9.36-2.758 15.917 2.38 12.179 15.349 72.261 17.13 80.495h40.586c-2.411-7.652-13.678-42.755-27.79-76.606a1.177 1.177 0 0 1 .638-1.543 1.176 1.176 0 0 1 1.544.638c15.925 38.181 28.224 77.944 28.35 78.346.111.362.048.747-.181 1.047-.221.299-.575.48-.945.48Z" fill="#6A2EA0"/><path d="M322.604 286.482h-71.379a1.18 1.18 0 1 1 0-2.361h71.379a1.18 1.18 0 1 1 0 2.361ZM322.604 303.841h-63.886a1.18 1.18 0 1 1 0-2.362h63.886a1.18 1.18 0 1 1 0 2.362ZM321.572 379.888c-.071 0-.142-.008-.213-.016a1.174 1.174 0 0 1-.954-1.37l44.101-246.569a1.179 1.179 0 0 1 1.371-.953c.646.118 1.072.724.954 1.37l-44.093 246.569a1.183 1.183 0 0 1-1.166.969ZM169.477 343.84l37.56-6.542-3.538-15.744-12.89-6.464s1.308 16.863-18.958 19.429c0 0-4.995.969-2.174 9.321ZM255.125 356.192l2.088 23.538h-38.286s-2.253-8.998 6.753-8.998 15.294-3.424 16.586-6.313c1.284-2.89-1.166-8.219-1.166-8.219h14.025v-.008ZM50.112 126.658H23.086a1.18 1.18 0 0 1-1.182-1.181v-7.156c0-8.093 6.595-14.682 14.695-14.682 8.1 0 14.695 6.589 14.695 14.682v7.156a1.18 1.18 0 0 1-1.182 1.181Zm-25.844-2.362H48.93v-5.975c0-6.794-5.53-12.32-12.33-12.32s-12.332 5.526-12.332 12.32v5.975Z" fill="#6A2EA0"/><path d="M36.599 106.001a1.18 1.18 0 0 1-1.182-1.181V47.596c0-.653.528-1.18 1.182-1.18a1.18 1.18 0 0 1 1.182 1.18v57.224a1.18 1.18 0 0 1-1.182 1.181ZM211.86 241.059H102.463c-10.464 0-18.982-8.502-18.982-18.965V88.367c0-10.454 8.51-18.964 18.982-18.964h228.122a1.18 1.18 0 1 1 0 2.361H102.463c-9.164 0-16.618 7.448-16.618 16.603v133.727c0 9.156 7.454 16.603 16.618 16.603H211.86a1.18 1.18 0 0 1 1.181 1.181c0 .654-.527 1.181-1.181 1.181ZM285.673 380.99H177.639a1.18 1.18 0 1 1 0-2.362H285.68a1.18 1.18 0 0 1 1.182 1.181c0 .653-.535 1.181-1.189 1.181ZM117.173 380.911H65.989a1.175 1.175 0 0 1-1.158-.952c-2.443-12.58-3.105-30.553 7.588-44.723 2.182-2.889 9.25-8.628 15.041-9.612 2.05-9.203 6.139-15.8 12.158-19.642 8.415-5.369 17.445-3.322 17.831-3.227.536.126.914.598.914 1.149v75.834a1.19 1.19 0 0 1-1.19 1.173Zm-50.199-2.362h49.018v-73.661c-2.38-.339-9.03-.803-15.129 3.094-5.626 3.597-9.408 9.966-11.26 18.909 0 .016-.007.024-.007.04-1.576 8.698-1.757 31.552-1.757 31.78a1.195 1.195 0 0 1-1.19 1.173 1.18 1.18 0 0 1-1.174-1.189c.008-.889.165-20.822 1.536-30.568-4.798 1.228-10.81 6.015-12.709 8.526-9.897 13.123-9.526 29.844-7.328 41.896Z" fill="#6A2EA0"/><path d="M109.703 313.555a1.18 1.18 0 0 1-1.182-1.181v-16.248a1.18 1.18 0 0 1 1.182-1.181 1.18 1.18 0 0 1 1.182 1.181v16.248a1.18 1.18 0 0 1-1.182 1.181ZM117.173 380.911c-.11 0-.228-.016-.339-.047a1.185 1.185 0 0 1-.796-1.472l16.815-56.319a7.32 7.32 0 0 0-1.158-6.534 7.346 7.346 0 0 0-5.933-2.976h-8.581a1.18 1.18 0 1 1 0-2.362h8.581a9.689 9.689 0 0 1 7.832 3.929 9.67 9.67 0 0 1 1.528 8.62l-16.814 56.327c-.15.503-.623.834-1.135.834Z" fill="#6A2EA0"/><path d="M142.97 380.99H48.418a1.18 1.18 0 1 1 0-2.362h94.552a1.18 1.18 0 1 1 0 2.362Z" fill="#6A2EA0"/><path d="M109.704 297.37a3.624 3.624 0 0 0 3.624-3.622 3.623 3.623 0 0 0-3.624-3.621 3.624 3.624 0 0 0-3.625 3.621c0 2 1.623 3.622 3.625 3.622ZM38.175 176.151a3.623 3.623 0 0 0 3.625-3.621c0-2-1.623-3.621-3.625-3.621a3.623 3.623 0 0 0-3.624 3.621c0 2 1.622 3.621 3.624 3.621ZM340.829 62.239a3.623 3.623 0 0 0 3.624-3.622c0-2-1.623-3.62-3.624-3.62a3.623 3.623 0 0 0-3.625 3.62c0 2 1.623 3.622 3.625 3.622Z" fill="#0061FF"/><path d="M180.445 218.544a1.18 1.18 0 0 1-1.182-1.181v-28.08h-38.215a1.18 1.18 0 0 1-1.182-1.181v-31.151H85.893a1.18 1.18 0 1 1 0-2.362h55.155a1.18 1.18 0 0 1 1.182 1.181v31.151h38.215a1.18 1.18 0 0 1 1.182 1.181v29.261c0 .646-.528 1.181-1.182 1.181Z" fill="#6A2EA0"/><path d="M141.048 205.169a1.18 1.18 0 0 1-1.182-1.181v-15.886a1.18 1.18 0 0 1 1.182-1.181 1.18 1.18 0 0 1 1.182 1.181v15.886a1.18 1.18 0 0 1-1.182 1.181ZM197.606 241.059a1.18 1.18 0 0 1-1.182-1.181c0-12.178-9.912-22.082-22.101-22.082-12.19 0-22.102 9.904-22.102 22.082a1.18 1.18 0 0 1-1.182 1.181 1.18 1.18 0 0 1-1.182-1.181c0-13.477 10.976-24.444 24.466-24.444 13.489 0 24.465 10.967 24.465 24.444 0 .646-.528 1.181-1.182 1.181ZM73.104 225.991a1.18 1.18 0 0 1-1.182-1.181V83.478c0-14.359 11.693-26.041 26.065-26.041h156.87a1.18 1.18 0 0 1 1.181 1.18c0 .654-.527 1.181-1.181 1.181H97.979c-13.064 0-23.701 10.62-23.701 23.68v141.34a1.166 1.166 0 0 1-1.174 1.173Z" fill="#6A2EA0"/><path d="M130.804 192.054h-12.26a1.18 1.18 0 0 1-1.182-1.181v-18.894a1.18 1.18 0 0 1 1.182-1.181h12.26a1.18 1.18 0 0 1 1.182 1.181v18.894a1.18 1.18 0 0 1-1.182 1.181Zm-11.078-2.362h9.897V173.16h-9.897v16.532ZM130.804 229.124h-12.26a1.18 1.18 0 0 1-1.182-1.18V209.05a1.18 1.18 0 0 1 1.182-1.181h12.26a1.18 1.18 0 0 1 1.182 1.181v18.894c0 .645-.528 1.18-1.182 1.18Zm-11.078-2.361h9.897v-16.532h-9.897v16.532ZM254.857 225.117a1.17 1.17 0 0 1-.591-.157c-22.093-12.745-24.063-27.238-24.134-27.852a1.185 1.185 0 0 1 1.032-1.315 1.19 1.19 0 0 1 1.316 1.031c.016.142 1.993 13.982 22.968 26.089a1.182 1.182 0 0 1-.591 2.204ZM236.633 198.155a1.184 1.184 0 0 1-1.111-1.583l2.048-5.739a1.185 1.185 0 0 1 1.513-.716c.615.22.938.897.717 1.511l-2.049 5.739c-.173.481-.63.788-1.118.788Z" fill="#6A2EA0"/><path d="M231.305 198.155a1.185 1.185 0 0 1-1.111-1.583l4.641-12.997a1.185 1.185 0 0 1 1.513-.716c.615.22.938.897.717 1.511l-4.641 12.997a1.209 1.209 0 0 1-1.119.788ZM239.635 206.405a1.13 1.13 0 0 1-.394-.071 1.182 1.182 0 0 1-.717-1.511l3.435-9.613a1.185 1.185 0 0 1 2.23.796l-3.436 9.612a1.198 1.198 0 0 1-1.118.787ZM244.015 210.782a1.184 1.184 0 0 1-1.111-1.582l3.436-9.613a1.185 1.185 0 0 1 2.23.796l-3.436 9.612a1.198 1.198 0 0 1-1.119.787ZM286.997 225.165a1.19 1.19 0 0 1-1.174-1.055c-1.592-14.414-6.556-27.986-6.603-28.12a1.182 1.182 0 0 1 .701-1.52 1.183 1.183 0 0 1 1.521.701c.047.142 5.114 13.981 6.737 28.679a1.19 1.19 0 0 1-1.048 1.307c-.047.008-.087.008-.134.008ZM270.632 220.134a1.17 1.17 0 0 1-.67-.212c-.079-.055-7.911-5.409-20.384-7.416a1.178 1.178 0 0 1-.977-1.354 1.178 1.178 0 0 1 1.355-.976c13.04 2.102 21.022 7.581 21.353 7.809.536.37.67 1.11.292 1.645a1.186 1.186 0 0 1-.969.504ZM281.923 152.637a2.84 2.84 0 0 1-.977-.166c-.56-.204-1.529-.787-1.71-2.401-.252-2.251.449-10.005.536-10.879a1.183 1.183 0 0 1 1.284-1.071 1.193 1.193 0 0 1 1.072 1.283c-.213 2.315-.725 8.699-.536 10.4.024.181.079.409.173.448.292.103 1.285-.133 2.388-1.172a1.182 1.182 0 0 1 1.623 1.716c-1.261 1.188-2.655 1.842-3.853 1.842ZM312.605 118.786c-.197 0-.402-.048-.583-.158l-14.577-8.313a1.184 1.184 0 0 1 1.174-2.055l14.577 8.314a1.183 1.183 0 0 1-.591 2.212ZM287.95 153.715c-.591 0-1.095-.44-1.174-1.039a1.18 1.18 0 0 1 1.025-1.314c.173-.024 3.924-.567 4.373-4.244a1.185 1.185 0 0 1 1.316-1.031 1.185 1.185 0 0 1 1.032 1.315c-.544 4.424-4.444 6.054-6.43 6.298a.455.455 0 0 1-.142.015ZM297.556 171.334c-.741 0-1.466-.048-2.183-.142-6.934-.913-10.251-5.936-10.385-6.148a1.174 1.174 0 0 1 .355-1.63 1.181 1.181 0 0 1 1.631.346c.047.063 2.931 4.354 8.762 5.094 6.145.787 13.268-2.441 21.171-9.597a1.181 1.181 0 1 1 1.592 1.748c-7.596 6.865-14.624 10.329-20.943 10.329Z" fill="#6A2EA0"/><path d="M218.691 124.399c5.113 0 9.258-4.142 9.258-9.25 0-5.109-4.145-9.25-9.258-9.25-5.113 0-9.258 4.141-9.258 9.25 0 5.108 4.145 9.25 9.258 9.25Z" fill="#FF4C84"/><path d="M218.864 119.746c-.339 0-.662-.141-.882-.401l-5.335-6.038a1.182 1.182 0 1 1 1.773-1.567l4.294 4.857 6.792-10.801a1.186 1.186 0 0 1 1.631-.37c.552.347.717 1.079.371 1.63l-7.635 12.139a1.19 1.19 0 0 1-.906.551h-.103ZM226.854 183.355c-.197 0-.402-.048-.591-.158l-.142-.079a1.173 1.173 0 0 1-.425-1.613 1.175 1.175 0 0 1 1.615-.425l.134.078c.567.323.756 1.047.433 1.614-.22.37-.614.583-1.024.583Zm-4.791-3.031a1.18 1.18 0 0 1-.669-.213l-.134-.094a1.177 1.177 0 0 1-.292-1.646 1.179 1.179 0 0 1 1.647-.291l.126.087c.536.37.67 1.102.299 1.645a1.206 1.206 0 0 1-.977.512Zm-4.499-3.44a1.18 1.18 0 0 1-.764-.284l-.118-.102a1.173 1.173 0 0 1-.134-1.661 1.176 1.176 0 0 1 1.662-.134l.119.102c.496.425.559 1.165.134 1.661a1.184 1.184 0 0 1-.899.418Zm-4.113-3.897c-.315 0-.63-.126-.859-.37l-.118-.118a1.182 1.182 0 1 1 1.734-1.606l.102.11a1.18 1.18 0 0 1-.047 1.669c-.229.205-.52.315-.812.315Zm-3.601-4.377c-.37 0-.732-.173-.961-.496l-.094-.134a1.174 1.174 0 0 1 .283-1.645 1.178 1.178 0 0 1 1.647.283l.087.126a1.181 1.181 0 0 1-.962 1.866Zm-2.931-4.842c-.433 0-.843-.236-1.056-.645l-.07-.15a1.178 1.178 0 0 1 .527-1.582 1.181 1.181 0 0 1 1.584.527l.071.134a1.18 1.18 0 0 1-1.056 1.716Zm-2.143-5.235a1.18 1.18 0 0 1-1.127-.826l-.047-.15a1.182 1.182 0 0 1 2.254-.709l.047.15a1.18 1.18 0 0 1-1.127 1.535Zm-1.276-5.518c-.576 0-1.08-.425-1.167-1.008l-.023-.165a1.175 1.175 0 0 1 1.008-1.331 1.176 1.176 0 0 1 1.332 1.008l.024.149a1.177 1.177 0 0 1-.993 1.339c-.063 0-.118.008-.181.008Zm-.386-5.653h-.008a1.185 1.185 0 0 1-1.174-1.188v-.166c.008-.653.559-1.188 1.197-1.165a1.18 1.18 0 0 1 1.166 1.197v.149c0 .654-.527 1.173-1.181 1.173Zm.449-5.644c-.055 0-.119-.008-.174-.016a1.169 1.169 0 0 1-.992-1.338l.023-.158a1.182 1.182 0 0 1 1.34-.992 1.17 1.17 0 0 1 .992 1.339l-.023.157a1.184 1.184 0 0 1-1.166 1.008Zm1.182-5.542c-.103 0-.213-.016-.323-.048a1.18 1.18 0 0 1-.82-1.456l.047-.157a1.19 1.19 0 0 1 1.458-.819c.63.181.993.827.819 1.456l-.039.15a1.19 1.19 0 0 1-1.142.874Zm1.835-5.361c-.149 0-.299-.032-.449-.087a1.183 1.183 0 0 1-.646-1.543l.063-.149c.252-.607.938-.89 1.545-.638.606.252.89.937.638 1.543l-.055.142a1.172 1.172 0 0 1-1.096.732Zm2.49-5.094c-.205 0-.417-.055-.606-.165a1.189 1.189 0 0 1-.41-1.622l.094-.157a1.185 1.185 0 0 1 1.631-.37c.552.346.717 1.07.371 1.629l-.071.118a1.168 1.168 0 0 1-1.009.567Z" fill="#6A2EA0"/><defs><linearGradient id="a" x1="94.105" y1="370.889" x2="266.012" y2="72.872" gradientUnits="userSpaceOnUse"><stop stop-color="#FF4C84"/><stop offset=".254" stop-color="#D65CA1"/><stop offset=".823" stop-color="#6E84E8"/><stop offset="1" stop-color="#4C90FF"/></linearGradient></defs></svg>