<svg width="161" height="238" fill="none" xmlns="http://www.w3.org/2000/svg"><path d="M130.107 187.975v22.381c0 10.191-12.9 22.35-12.9 22.35H88.449s-12.9-12.159-12.9-22.35v-22.381H130.108Zm-88.076-46.716c-5.515 0-9.977-4.47-9.977-9.977 0-1.343.267-2.617.747-3.784-2.327-.206-4.737.092-6.85.74-.87.267-1.77.419-2.67.473 1.16-20.375-17.56-18.483-17.56-18.483s-2.235 12.418 8.65 17.209c-6.438-.13-13.052 3.204-11.373 13.326 1.693 10.245 8.742 15.615 13.174 16.912a3.729 3.729 0 0 0 3.776-1.037 3.728 3.728 0 0 1 5.461 0 3.728 3.728 0 0 0 3.776 1.037c4.364-1.274 11.496-6.507 13.09-16.431a2.5 2.5 0 0 1-.244.015ZM22.39 38.797c-5.874 14.623-2.266 31.97 10.26 42.955 12.395 10.862 29.818 12.258 43.488 4.79L22.389 38.797Z" fill="url(#a)"/><path d="M133.166 36.6a4.561 4.561 0 1 0 0-9.123 4.561 4.561 0 0 0 0 9.123ZM4.562 237.268a4.562 4.562 0 1 0 0-9.123 4.562 4.562 0 0 0 0 9.123Z" fill="#0061FF"/><path d="M102.828 197.662H73.162a1.143 1.143 0 0 1-1.144-1.144c0-.633.511-1.144 1.144-1.144h29.666c.634 0 1.145.511 1.145 1.144 0 .633-.511 1.144-1.145 1.144ZM136.057 218.266c-6.309 0-11.45-5.134-11.45-11.45 0-6.316 5.134-11.45 11.45-11.45 6.316 0 11.45 5.134 11.45 11.45 0 6.316-5.142 11.45-11.45 11.45Zm0-20.604c-5.05 0-9.162 4.112-9.162 9.162 0 5.05 4.112 9.161 9.162 9.161 5.05 0 9.161-4.111 9.161-9.161s-4.111-9.162-9.161-9.162ZM28.117 158.98a4.856 4.856 0 0 1-3.554-1.557 2.551 2.551 0 0 0-1.892-.823 2.55 2.55 0 0 0-1.892.823 4.855 4.855 0 0 1-4.935 1.358c-5.584-1.64-12.343-7.91-13.983-17.827-1.068-6.446 1.16-9.932 3.212-11.724 4.119-3.601 10.473-3.372 14.653-2.083a9.937 9.937 0 0 0 5.89 0c4.096-1.259 10.328-1.51 14.401 1.961 2.09 1.777 4.387 5.271 3.471 11.823-1.579 11.351-9.84 16.645-13.99 17.858a5.381 5.381 0 0 1-1.38.191Zm-5.446-4.669c1.35 0 2.647.565 3.57 1.549.671.717 1.67.999 2.616.717 3.654-1.068 10.947-5.782 12.366-15.974.618-4.432-.29-7.719-2.685-9.764-3.364-2.868-8.697-2.609-12.244-1.51a12.207 12.207 0 0 1-7.239 0c-3.905-1.206-9.283-1.175-12.472 1.617-2.35 2.052-3.173 5.294-2.456 9.627 1.7 10.298 8.833 14.966 12.365 16.004.946.274 1.945 0 2.616-.717a4.877 4.877 0 0 1 3.563-1.549ZM57.7 86.779c-18.735 0-33.984-15.242-33.984-33.984 0-18.743 15.241-33.984 33.983-33.984 18.743 0 33.984 15.241 33.984 33.984 0 .633-.51 1.144-1.144 1.144a1.143 1.143 0 0 1-1.144-1.144c0-17.476-14.22-31.695-31.695-31.695-17.477 0-31.696 14.219-31.696 31.695S40.224 84.49 57.7 84.49a31.726 31.726 0 0 0 23.862-10.832 1.146 1.146 0 0 1 1.724 1.51A34.012 34.012 0 0 1 57.7 86.778Z" fill="#6A2EA0"/><path d="M71.72 66.892c-.267 0-.534-.092-.747-.275L55.945 53.664a1.141 1.141 0 0 1-.397-.87V12.519c0-.633.511-1.144 1.145-1.144.633 0 1.144.51 1.144 1.144v39.75l14.63 12.61c.481.412.535 1.137.123 1.617a1.15 1.15 0 0 1-.87.397ZM148.315 233.851H41.177a1.143 1.143 0 0 1-1.144-1.145c0-.633.51-1.144 1.144-1.144h107.138c.633 0 1.144.511 1.144 1.144 0 .634-.511 1.145-1.144 1.145Z" fill="#6A2EA0"/><path d="M84.353 159.811a1.143 1.143 0 0 1-1.145-1.144v-22.709c0-12.198 9.925-22.122 22.122-22.122h42.314c5.919 0 10.733-4.814 10.733-10.733 0-5.92-4.814-10.733-10.733-10.733H134.79c-14.341 0-26.012-11.671-26.012-26.012V43.755c0-22.869-18.605-41.467-41.467-41.467H56.693a1.143 1.143 0 0 1-1.145-1.144C55.548.511 56.06 0 56.693 0H67.31c24.128 0 43.755 19.627 43.755 43.755v22.603c0 13.082 10.642 23.724 23.724 23.724h12.861c7.179 0 13.022 5.843 13.022 13.021 0 7.178-5.843 13.021-13.022 13.021h-42.313c-10.94 0-19.834 8.895-19.834 19.834v22.709a1.154 1.154 0 0 1-1.151 1.144ZM22.671 129.878a1.143 1.143 0 0 1-1.144-1.144v-11.656c0-.633.51-1.144 1.144-1.144.633 0 1.144.511 1.144 1.144v11.656c0 .633-.51 1.144-1.144 1.144ZM102.828 181.17a1.142 1.142 0 0 1-1.144-1.144v-29.384c0-.633.511-1.144 1.144-1.144.633 0 1.145.511 1.145 1.144v29.384c0 .633-.512 1.144-1.145 1.144Z" fill="#6A2EA0"/><defs><linearGradient id="a" x1="33.457" y1="200.954" x2="100.906" y2="84.129" gradientUnits="userSpaceOnUse"><stop stop-color="#FF4C84"/><stop offset=".119" stop-color="#F94F88"/><stop offset=".274" stop-color="#E95594"/><stop offset=".449" stop-color="#CE5FA6"/><stop offset=".638" stop-color="#A96DC0"/><stop offset=".837" stop-color="#797FE0"/><stop offset="1" stop-color="#4C90FF"/></linearGradient></defs></svg>