<svg width="113" height="145" viewBox="0 0 113 145" fill="none" xmlns="http://www.w3.org/2000/svg">
<path d="M73.6159 9.97852H15.7922C12.5075 9.97852 9.84766 12.6383 9.84766 15.9231C9.84766 19.2078 12.5075 21.8676 15.7922 21.8676H73.6211C76.9058 21.8676 79.5656 19.2078 79.5656 15.9231C79.5604 12.6383 76.9006 9.97852 73.6159 9.97852ZM112.351 101.528C112.351 104.993 109.541 107.803 106.076 107.803V127.279H60.26V101.528L83.0156 118.209L106.097 101.528C106.05 101.212 99.8008 101.853 99.8008 101.528C99.8008 98.062 102.61 95.2525 106.076 95.2525C109.541 95.2525 112.351 98.062 112.351 101.528Z" fill="url(#paint0_linear_9352_8172)"/>
<path d="M11.466 144.106C13.3457 144.106 14.8695 142.582 14.8695 140.702C14.8695 138.823 13.3457 137.299 11.466 137.299C9.58631 137.299 8.0625 138.823 8.0625 140.702C8.0625 142.582 9.58631 144.106 11.466 144.106Z" fill="#0061FF"/>
<path d="M91.2277 43.9106C93.1075 43.9106 94.6313 42.3867 94.6313 40.507C94.6313 38.6273 93.1075 37.1035 91.2277 37.1035C89.348 37.1035 87.8242 38.6273 87.8242 40.507C87.8242 42.3867 89.348 43.9106 91.2277 43.9106Z" fill="#0061FF"/>
<path d="M10.431 120.612C10.0023 120.612 9.65625 120.266 9.65625 119.837C9.65625 107.458 13.4368 98.0321 20.8894 91.819C28.0373 85.8641 38.6094 82.8428 52.3113 82.8428H52.9362C61.5509 82.8428 70.4548 82.8479 77.3135 79.8111C84.9985 76.4076 88.7377 69.5282 88.7377 58.7806C88.7377 58.3519 89.0838 58.0059 89.5124 58.0059C89.9411 58.0059 90.2871 58.3519 90.2871 58.7806C90.2871 70.2048 86.2484 77.549 77.9436 81.2262C70.7853 84.3973 61.7162 84.3922 52.9414 84.3922H52.3165C25.0418 84.3922 11.2108 96.3174 11.2108 119.837C11.2057 120.261 10.8596 120.612 10.431 120.612Z" fill="#6A2EA0"/>
<path d="M35.48 65.8973H10.9219C4.98257 65.8973 0.148438 61.0683 0.148438 55.1238V11.0743C0.148438 5.13492 4.98257 0.300781 10.9219 0.300781H79.4417C85.3811 0.300781 90.2152 5.13492 90.2152 11.0743V16.7503C90.2152 17.1789 89.8692 17.525 89.4405 17.525C89.0118 17.525 88.6658 17.1789 88.6658 16.7503V11.0743C88.6658 5.98709 84.5289 1.85018 79.4417 1.85018H10.9219C5.83474 1.85018 1.69784 5.98709 1.69784 11.0743V55.1238C1.69784 60.211 5.83474 64.3479 10.9219 64.3479H35.48C35.9086 64.3479 36.2547 64.6939 36.2547 65.1226C36.2547 65.5513 35.9086 65.8973 35.48 65.8973Z" fill="#6A2EA0"/>
<path d="M19.4747 49.34C14.9349 49.34 11.2422 45.6472 11.2422 41.1075C11.2422 36.5677 14.9349 32.875 19.4747 32.875C24.0144 32.875 27.7072 36.5677 27.7072 41.1075C27.7072 45.6472 24.0144 49.34 19.4747 49.34ZM19.4747 34.4192C15.7871 34.4192 12.7916 37.4199 12.7916 41.1023C12.7916 44.7899 15.7923 47.7854 19.4747 47.7854C23.1623 47.7854 26.1578 44.7847 26.1578 41.1023C26.1578 37.4199 23.1623 34.4192 19.4747 34.4192Z" fill="#6A2EA0"/>
<path d="M44.295 49.34C39.7552 49.34 36.0625 45.6472 36.0625 41.1075C36.0625 36.5677 39.7552 32.875 44.295 32.875C48.8347 32.875 52.5275 36.5677 52.5275 41.1075C52.5275 45.6472 48.8347 49.34 44.295 49.34ZM44.295 34.4192C40.6074 34.4192 37.6119 37.4199 37.6119 41.1023C37.6119 44.7899 40.6126 47.7854 44.295 47.7854C47.9774 47.7854 50.9781 44.7847 50.9781 41.1023C50.9781 37.4199 47.9774 34.4192 44.295 34.4192Z" fill="#6A2EA0"/>
<path d="M12.8177 48.9374C12.6215 48.9374 12.4252 48.8651 12.2754 48.7153C11.9707 48.4157 11.9656 47.9251 12.26 47.6204L25.967 33.5931C26.2665 33.2884 26.7572 33.2833 27.0619 33.5828C27.3666 33.8824 27.3718 34.373 27.0774 34.6777L13.3704 48.705C13.2206 48.8599 13.0192 48.9374 12.8177 48.9374Z" fill="#6A2EA0"/>
<path d="M37.7084 48.9374C37.5121 48.9374 37.3158 48.8651 37.1661 48.7153C36.8614 48.4157 36.8562 47.9251 37.1506 47.6204L50.8576 33.5931C51.1572 33.2884 51.6478 33.2833 51.9525 33.5828C52.2573 33.8824 52.2624 34.373 51.968 34.6777L38.261 48.705C38.1112 48.8599 37.9098 48.9374 37.7084 48.9374Z" fill="#6A2EA0"/>
<path d="M62.5951 48.9374C62.3988 48.9374 62.2026 48.8651 62.0528 48.7153C61.7481 48.4157 61.7429 47.9251 62.0373 47.6204L75.7443 33.5931C76.0439 33.2884 76.5345 33.2833 76.8393 33.5828C77.144 33.8824 77.1491 34.373 76.8547 34.6777L63.1477 48.705C62.9979 48.8599 62.7965 48.9374 62.5951 48.9374Z" fill="#6A2EA0"/>
<path d="M76.3008 48.9374C76.0994 48.9374 75.898 48.8599 75.7482 48.705L62.0412 34.6777C61.7416 34.373 61.7468 33.8824 62.0567 33.5828C62.3614 33.2833 62.852 33.2884 63.1516 33.5931L76.8586 47.6204C77.1582 47.9251 77.153 48.4157 76.8431 48.7153C76.6882 48.8651 76.4971 48.9374 76.3008 48.9374Z" fill="#6A2EA0"/>
<path d="M106.102 128.659H59.9349C59.5062 128.659 59.1602 128.313 59.1602 127.884V101.529C59.1602 101.1 59.5062 100.754 59.9349 100.754H106.102C106.531 100.754 106.877 101.1 106.877 101.529V127.884C106.877 128.313 106.525 128.659 106.102 128.659ZM60.7096 127.109H105.327V102.303H60.7096V127.109Z" fill="#6A2EA0"/>
<path d="M83.0161 118.986C82.856 118.986 82.6959 118.94 82.5617 118.842L59.4807 102.16C59.1347 101.907 59.0572 101.426 59.3051 101.08C59.5582 100.734 60.0385 100.657 60.3845 100.905L83.011 117.261L105.637 100.905C105.983 100.657 106.469 100.734 106.717 101.08C106.97 101.426 106.887 101.912 106.541 102.16L83.4603 118.842C83.3364 118.935 83.1762 118.986 83.0161 118.986Z" fill="#6A2EA0"/>
<path d="M59.9329 128.659C59.7315 128.659 59.5352 128.581 59.3803 128.432C59.0807 128.127 59.0807 127.636 59.3854 127.337L74.771 112.101C75.0757 111.801 75.5664 111.801 75.8659 112.106C76.1655 112.411 76.1655 112.902 75.8608 113.201L60.4752 128.437C60.3254 128.587 60.1292 128.659 59.9329 128.659Z" fill="#6A2EA0"/>
<path d="M106.101 128.659C105.905 128.659 105.708 128.587 105.554 128.437L90.1628 113.201C89.8581 112.902 89.8581 112.411 90.1576 112.106C90.4572 111.801 90.9478 111.801 91.2525 112.101L106.643 127.337C106.948 127.636 106.948 128.127 106.648 128.432C106.499 128.581 106.297 128.659 106.101 128.659Z" fill="#6A2EA0"/>
<defs>
<linearGradient id="paint0_linear_9352_8172" x1="11.4241" y1="11.8809" x2="116.447" y2="116.904" gradientUnits="userSpaceOnUse">
<stop stop-color="#FF4C84"/>
<stop offset="0.2166" stop-color="#D35DA3"/>
<stop offset="0.593" stop-color="#8B79D4"/>
<stop offset="0.8638" stop-color="#5E8AF3"/>
<stop offset="1" stop-color="#4C90FF"/>
</linearGradient>
</defs>
</svg>
