<svg width="318" height="318" viewBox="0 0 318 318" fill="none" xmlns="http://www.w3.org/2000/svg">
<path d="M115.642 75.4302C113.092 75.6479 111.21 77.8884 111.427 80.4379C111.645 82.9875 113.886 84.8698 116.435 84.6521C118.985 84.4343 120.867 82.1938 120.649 79.6443C120.432 77.0948 118.191 75.2054 115.642 75.4302ZM192.781 45.0606C192.781 45.0606 192.703 45.1378 192.563 45.2923C192.563 45.2923 180.173 56.9092 179.352 76.1606C178.825 88.536 186.537 97.8 189.964 103.995C190.477 104.929 191.481 107.254 192.563 110.681V166.715C192.64 166.813 192.71 166.904 192.781 167.003C244.895 96.6763 192.781 45.0606 192.781 45.0606ZM134.479 197.506H97.8088V260.766C97.8088 267.354 103.154 272.699 109.742 272.699H122.546C129.134 272.699 134.479 267.354 134.479 260.766V197.506Z" fill="url(#paint0_linear_13909_86668)"/>
<path d="M116.042 197.857C115.459 197.857 114.988 197.386 114.988 196.803V99.1064C114.988 98.5234 115.459 98.0529 116.042 98.0529C116.625 98.0529 117.095 98.5234 117.095 99.1064V196.803C117.095 197.386 116.625 197.857 116.042 197.857Z" fill="#6A2EA0"/>
<path d="M116.098 180.86C116.042 180.86 116.007 180.86 116 180.86C115.431 180.839 114.981 180.375 114.981 179.806C114.981 154.957 139.275 153.588 139.521 153.581C139.837 153.567 140.139 153.693 140.35 153.925C140.561 154.157 140.659 154.473 140.61 154.782C136.902 180.319 117.636 180.86 116.098 180.86ZM138.32 155.8C133.565 156.397 117.699 159.811 117.116 178.718C121.05 178.458 134.809 176.077 138.32 155.8Z" fill="#6A2EA0"/>
<path d="M115.522 144.984C113.991 144.984 94.7255 144.45 91.01 118.906C90.9679 118.597 91.0592 118.281 91.2699 118.049C91.4806 117.817 91.7826 117.691 92.0987 117.705C92.3445 117.719 116.639 119.088 116.639 143.93C116.639 144.499 116.189 144.963 115.62 144.984C115.606 144.984 115.578 144.984 115.522 144.984ZM93.2997 119.931C96.8044 140.201 110.563 142.589 114.504 142.849C113.928 123.934 98.0546 120.528 93.2997 119.931Z" fill="#6A2EA0"/>
<path d="M192.76 248.314C174.379 248.314 159.426 233.361 159.426 214.98C159.426 208.561 161.259 202.324 164.722 196.944C164.918 196.642 165.249 196.459 165.607 196.459H219.912C220.264 196.459 220.587 196.635 220.783 196.923C224.351 202.211 226.093 208.111 226.093 214.973C226.093 233.361 211.14 248.314 192.76 248.314ZM166.19 198.573C163.141 203.497 161.533 209.158 161.533 214.98C161.533 232.202 175.538 246.207 192.76 246.207C209.981 246.207 223.986 232.202 223.986 214.98C223.986 208.666 222.511 203.434 219.351 198.573H166.19Z" fill="#6A2EA0"/>
<path d="M192.738 197.794C192.156 197.794 191.685 197.323 191.685 196.74V86.5203C191.685 85.9374 192.156 85.4668 192.738 85.4668C193.321 85.4668 193.792 85.9374 193.792 86.5203V196.74C193.792 197.323 193.321 197.794 192.738 197.794Z" fill="#6A2EA0"/>
<path d="M192.781 168.056C192.458 168.056 192.149 167.909 191.952 167.649C164.244 132.166 165.733 100.518 171.858 80.2202C178.495 58.2366 191.896 44.4495 192.029 44.3161C192.226 44.1194 192.493 44 192.774 44C193.048 44 193.322 44.1054 193.518 44.302C193.652 44.4355 206.814 57.6467 213.331 79.3493C219.344 99.3733 220.804 130.944 193.624 167.621C193.427 167.888 193.118 168.042 192.788 168.049C192.795 168.056 192.788 168.056 192.781 168.056ZM192.795 46.6057C189.922 49.8084 179.436 62.3805 173.852 80.9226C170.06 93.5227 169.245 106.383 171.429 119.144C174.098 134.737 181.269 150.245 192.76 165.254C204.046 149.725 211.098 133.894 213.718 118.168C215.86 105.308 215.059 92.4832 211.344 80.0516C205.887 61.8116 195.639 49.7171 192.795 46.6057Z" fill="#6A2EA0"/>
<path d="M192.394 140.65C192.022 140.65 191.664 140.454 191.467 140.103L177.188 114.003C176.907 113.491 177.097 112.851 177.61 112.57C178.122 112.289 178.762 112.479 179.043 112.992L193.321 139.091C193.602 139.604 193.413 140.243 192.9 140.524C192.738 140.608 192.57 140.65 192.394 140.65Z" fill="#6A2EA0"/>
<path d="M217.545 249.016H165.487C164.904 249.016 164.434 248.546 164.434 247.963C164.434 247.38 164.904 246.909 165.487 246.909H217.545C218.128 246.909 218.599 247.38 218.599 247.963C218.599 248.546 218.128 249.016 217.545 249.016Z" fill="#6A2EA0"/>
<path d="M150.036 273.753H109.742C102.578 273.753 96.7552 267.93 96.7552 260.766V197.506C96.7552 196.923 97.2258 196.452 97.8088 196.452H134.478C135.061 196.452 135.532 196.923 135.532 197.506C135.532 198.089 135.061 198.559 134.478 198.559H98.8623V260.766C98.8623 266.764 103.744 271.646 109.742 271.646H150.043C150.626 271.646 151.096 272.116 151.096 272.699C151.096 273.282 150.618 273.753 150.036 273.753Z" fill="#6A2EA0"/>
<defs>
<linearGradient id="paint0_linear_13909_86668" x1="104.301" y1="81.471" x2="192.467" y2="234.179" gradientUnits="userSpaceOnUse">
<stop stop-color="#FF4C84"/>
<stop offset="0.1681" stop-color="#DF599A"/>
<stop offset="0.7433" stop-color="#7680E2"/>
<stop offset="1" stop-color="#4C90FF"/>
</linearGradient>
</defs>
</svg>
