<svg width="136" height="195" viewBox="0 0 136 195" fill="none" xmlns="http://www.w3.org/2000/svg">
<path d="M119.071 56.9744C121.451 56.9744 123.381 55.045 123.381 52.6649C123.381 50.2848 121.451 48.3554 119.071 48.3554C116.691 48.3554 114.762 50.2848 114.762 52.6649C114.762 55.045 116.691 56.9744 119.071 56.9744Z" fill="#0061FF"/>
<path d="M79.1405 182.572H40.3874C30.7285 182.572 22.8353 174.862 22.5476 165.269C22.541 165.23 22.541 165.184 22.541 165.138V164.72C22.541 164.177 22.9792 163.739 23.5219 163.739C24.0647 163.739 24.5029 164.177 24.5029 164.72C24.5029 173.482 31.6309 180.611 40.3939 180.611H79.147C79.6898 180.611 80.128 181.049 80.128 181.591C80.128 182.134 79.6833 182.572 79.1405 182.572Z" fill="#6A2EA0"/>
<path d="M134.766 182.572C134.224 182.572 133.785 182.134 133.785 181.591V41.0115C133.785 31.3854 125.958 23.5576 116.331 23.5576H41.951C32.3248 23.5576 24.497 31.3854 24.497 41.0115V54.326C24.497 54.8688 24.0589 55.3069 23.5161 55.3069C22.9733 55.3069 22.5352 54.8688 22.5352 54.326V41.0115C22.5352 30.3063 31.2458 21.5957 41.951 21.5957H116.331C127.037 21.5957 135.747 30.3063 135.747 41.0115V181.591C135.747 182.134 135.309 182.572 134.766 182.572Z" fill="#6A2EA0"/>
<path d="M122.962 177.458C122.962 187.045 115.186 194.821 105.6 194.821C96.0126 194.821 88.2371 187.045 88.2371 177.458C88.2371 167.872 96.0126 160.096 105.6 160.096C115.186 160.096 122.962 167.872 122.962 177.458ZM108.346 24.0349C108.346 28.1483 105.011 31.4834 100.898 31.4834H58.7112C54.5978 31.4834 51.2627 28.1483 51.2627 24.0349C51.2627 19.9216 54.5978 16.5864 58.7112 16.5864H70.2992C70.3254 16.5864 70.345 16.5537 70.3254 16.5341C69.2006 14.8469 68.5401 12.8197 68.5401 10.6355C68.5401 5.05727 72.83 0.486154 78.2905 0.0349271C84.5161 -0.475155 89.9701 4.67144 89.8066 10.9101C89.7543 12.9897 89.1069 14.9123 88.0278 16.5341C88.0148 16.5603 88.0278 16.5864 88.054 16.5864H100.891C105.017 16.593 108.346 19.9281 108.346 24.0349ZM85.0981 10.23C85.0981 7.05837 82.5281 4.48834 79.3564 4.48834C76.1848 4.48834 73.6148 7.05837 73.6148 10.23C73.6148 13.4017 76.1848 15.9717 79.3564 15.9717C82.5281 15.9717 85.0981 13.4017 85.0981 10.23Z" fill="url(#paint0_linear_14238_53039)"/>
<path d="M72.7649 104.249H60.4118C59.869 104.249 59.4309 103.81 59.4309 103.268C59.4309 102.725 59.869 102.287 60.4118 102.287H71.784V73.7287C71.784 68.5952 67.6053 64.4164 62.4717 64.4164H1.47116C0.928382 64.4164 0.490234 63.9783 0.490234 63.4355C0.490234 62.8927 0.928382 62.4546 1.47116 62.4546H62.4717C68.6843 62.4546 73.7459 67.5096 73.7459 73.7287V103.268C73.7459 103.81 73.3077 104.249 72.7649 104.249Z" fill="#6A2EA0"/>
<path d="M48.8893 104.249H23.5356C22.9928 104.249 22.5547 103.811 22.5547 103.268C22.5547 102.725 22.9928 102.287 23.5356 102.287H48.8893C49.4321 102.287 49.8702 102.725 49.8702 103.268C49.8702 103.811 49.4321 104.249 48.8893 104.249Z" fill="#6A2EA0"/>
<path d="M104.749 104.249H96.1958C95.653 104.249 95.2148 103.81 95.2148 103.268C95.2148 102.725 95.653 102.287 96.1958 102.287H103.762V85.4998C103.762 84.9571 104.2 84.5189 104.743 84.5189C105.286 84.5189 105.724 84.9571 105.724 85.4998V103.268C105.73 103.81 105.286 104.249 104.749 104.249Z" fill="#6A2EA0"/>
<path d="M84.7064 104.249H77.9184C77.3756 104.249 76.9375 103.81 76.9375 103.268V67.3592C76.9375 66.8164 77.3756 66.3783 77.9184 66.3783H89.7942C90.0885 66.3783 90.3631 66.5091 90.5528 66.738L105.509 84.872C105.855 85.2906 105.796 85.9053 105.378 86.2519C104.959 86.5985 104.345 86.5396 103.998 86.1211L89.3299 68.3467H78.8928V102.293H84.6999C85.2427 102.293 85.6808 102.731 85.6808 103.274C85.6808 103.817 85.2492 104.249 84.7064 104.249Z" fill="#6A2EA0"/>
<path d="M90.4671 112.449C86.563 112.449 83.3848 109.271 83.3848 105.367C83.3848 101.463 86.563 98.2846 90.4671 98.2846C94.3712 98.2846 97.5494 101.463 97.5494 105.367C97.5494 109.271 94.3712 112.449 90.4671 112.449ZM90.4671 100.246C87.642 100.246 85.3466 102.542 85.3466 105.367C85.3466 108.192 87.642 110.487 90.4671 110.487C93.2921 110.487 95.5875 108.192 95.5875 105.367C95.5875 102.542 93.2856 100.246 90.4671 100.246Z" fill="#6A2EA0"/>
<path d="M54.6507 112.449C50.7466 112.449 47.5684 109.271 47.5684 105.367C47.5684 101.463 50.7466 98.2846 54.6507 98.2846C58.5547 98.2846 61.7329 101.463 61.7329 105.367C61.7329 109.271 58.5547 112.449 54.6507 112.449ZM54.6507 100.246C51.8256 100.246 49.5302 102.542 49.5302 105.367C49.5302 108.192 51.8256 110.487 54.6507 110.487C57.4757 110.487 59.7711 108.192 59.7711 105.367C59.7711 102.542 57.4757 100.246 54.6507 100.246Z" fill="#6A2EA0"/>
<path d="M45.3509 104.249C45.2789 104.249 45.207 104.242 45.1351 104.222C44.6054 104.105 44.2719 103.582 44.3961 103.052C45.4751 98.2519 49.8435 94.7664 54.7678 94.7664C57.789 94.7664 60.6795 96.0612 62.6937 98.3108C63.0533 98.7162 63.0206 99.3375 62.6152 99.6971C62.2097 100.057 61.5885 100.024 61.2288 99.6187C59.5809 97.7811 57.2266 96.7282 54.7612 96.7282C50.7394 96.7282 47.1819 99.5729 46.2991 103.484C46.2075 103.941 45.8021 104.249 45.3509 104.249Z" fill="#6A2EA0"/>
<path d="M30.1733 84.4601C29.6305 84.4601 29.1924 84.0219 29.1924 83.4791V63.6971C29.1924 63.1543 29.6305 62.7162 30.1733 62.7162C30.7161 62.7162 31.1542 63.1543 31.1542 63.6971V83.4791C31.1542 84.0219 30.7161 84.4601 30.1733 84.4601Z" fill="#6A2EA0"/>
<path d="M16.4272 80.7522C15.8844 80.7522 15.4463 80.314 15.4463 79.7712V63.6971C15.4463 63.1543 15.8844 62.7162 16.4272 62.7162C16.97 62.7162 17.4081 63.1543 17.4081 63.6971V79.7712C17.4081 80.314 16.97 80.7522 16.4272 80.7522Z" fill="#6A2EA0"/>
<path d="M56.2139 124.273H9.12936C8.58658 124.273 8.14844 123.834 8.14844 123.292C8.14844 122.749 8.58658 122.311 9.12936 122.311H56.2139C56.7566 122.311 57.1948 122.749 57.1948 123.292C57.1948 123.834 56.7566 124.273 56.2139 124.273Z" fill="#6A2EA0"/>
<path d="M71.9087 138.66H9.12936C8.58658 138.66 8.14844 138.221 8.14844 137.679C8.14844 137.136 8.58658 136.698 9.12936 136.698H71.9087C72.4515 136.698 72.8896 137.136 72.8896 137.679C72.8896 138.221 72.4515 138.66 71.9087 138.66Z" fill="#6A2EA0"/>
<path d="M56.2139 153.047H9.12936C8.58658 153.047 8.14844 152.608 8.14844 152.066C8.14844 151.523 8.58658 151.085 9.12936 151.085H56.2139C56.7566 151.085 57.1948 151.523 57.1948 152.066C57.1948 152.608 56.7566 153.047 56.2139 153.047Z" fill="#6A2EA0"/>
<path d="M104.253 86.3435H98.5308C91.9652 86.3435 86.6289 81.0072 86.6289 74.4415V67.3658C86.6289 66.823 87.0671 66.3849 87.6098 66.3849C88.1526 66.3849 88.5908 66.823 88.5908 67.3658V74.4415C88.5908 79.9217 93.0507 84.3816 98.5308 84.3816H104.253C104.796 84.3816 105.234 84.8197 105.234 85.3625C105.234 85.9053 104.789 86.3435 104.253 86.3435Z" fill="#6A2EA0"/>
<path d="M105.586 186.006C105.305 186.006 105.037 185.888 104.854 185.672L93.3313 172.619C92.9716 172.214 93.0108 171.592 93.4163 171.233C93.8217 170.873 94.443 170.912 94.8027 171.318L105.462 183.383L121.242 158.258C121.53 157.801 122.138 157.663 122.596 157.951C123.053 158.239 123.191 158.847 122.903 159.305L106.423 185.541C106.26 185.803 105.979 185.973 105.671 185.999C105.639 186.006 105.612 186.006 105.586 186.006Z" fill="#6A2EA0"/>
<defs>
<linearGradient id="paint0_linear_14238_53039" x1="51.2692" y1="97.4113" x2="122.959" y2="97.4113" gradientUnits="userSpaceOnUse">
<stop stop-color="#FF4C84"/>
<stop offset="0.1681" stop-color="#DF599A"/>
<stop offset="0.7433" stop-color="#7680E2"/>
<stop offset="1" stop-color="#4C90FF"/>
</linearGradient>
</defs>
</svg>
