<svg width="51" height="73" fill="none" xmlns="http://www.w3.org/2000/svg"><path d="M38.518 56.06a4.027 4.027 0 0 1-4.023-4.021v-3.976a.436.436 0 1 1 .873 0v3.976a3.154 3.154 0 0 0 3.15 3.15 3.154 3.154 0 0 0 3.15-3.15V38.864a.436.436 0 1 1 .872 0v13.175a4.029 4.029 0 0 1-4.022 4.022ZM42.104 24.377a.436.436 0 0 1-.437-.436V9.768a4.027 4.027 0 0 1 4.023-4.022h.808a4.027 4.027 0 0 1 4.022 4.022v1.885a.436.436 0 1 1-.872 0V9.768a3.154 3.154 0 0 0-3.15-3.15h-.808a3.154 3.154 0 0 0-3.15 3.15v14.173a.436.436 0 0 1-.436.436ZM11.258 48.498a.436.436 0 0 1-.436-.436V9.768a4.027 4.027 0 0 1 4.022-4.022h.809a.436.436 0 1 1 0 .873h-.809a3.154 3.154 0 0 0-3.15 3.15v38.293a.436.436 0 0 1-.436.436Z" fill="#6A2EA0"/><path d="M45.69 6.619H15.656a.436.436 0 1 1 0-.873H45.69a.436.436 0 1 1 0 .873Z" fill="#6A2EA0"/><path d="M25.331 11.16H6.381V1.046h18.95v10.112Zm16.944 14.677a4.673 4.673 0 0 0-4.668 4.668 4.673 4.673 0 0 0 4.668 4.668 4.673 4.673 0 0 0 4.668-4.668 4.673 4.673 0 0 0-4.668-4.668Zm7.707 4.884a7.761 7.761 0 0 1-5.156 7.308v8.248l-2.583-1.838-2.536 1.838v-8.219a7.756 7.756 0 0 1 2.522-15.091 7.753 7.753 0 0 1 7.753 7.754Zm-2.166-.216a5.546 5.546 0 0 0-5.54-5.54 5.548 5.548 0 0 0-5.541 5.54 5.546 5.546 0 0 0 5.54 5.54 5.546 5.546 0 0 0 5.54-5.54Z" fill="url(#a)"/><path d="M4.1 23.386a1.74 1.74 0 1 0 0-3.479 1.74 1.74 0 0 0 0 3.479ZM46.37 72.536a1.74 1.74 0 1 0 0-3.478 1.74 1.74 0 0 0 0 3.478Z" fill="#0061FF"/><path d="M7.672 56.06a4.027 4.027 0 0 1-4.022-4.022v-3.976c0-.241.195-.436.436-.436h27.55a.436.436 0 1 1 0 .873H4.523v3.539a3.154 3.154 0 0 0 3.15 3.15.436.436 0 1 1 0 .872ZM38.442 56.06H11.258a.436.436 0 1 1 0-.873h27.184a.436.436 0 1 1 0 .873ZM30.488 1.483H.707a.436.436 0 1 1 0-.873h29.78a.436.436 0 1 1 0 .873Z" fill="#6A2EA0"/><path d="M4.1 15.393a.436.436 0 0 1-.436-.436V1.047a.436.436 0 1 1 .873 0v13.91a.436.436 0 0 1-.436.436ZM25.395 22.449h-13.96a.436.436 0 1 1 0-.873h13.96a.436.436 0 1 1 0 .873ZM20.192 29.487h-8.757a.436.436 0 1 1 0-.873h8.757a.436.436 0 1 1 0 .873ZM29.284 36.232H11.435a.436.436 0 1 1 0-.873h17.846a.436.436 0 0 1 .003.873ZM20.361 6.95a.436.436 0 0 1-.436-.436V1.58a.436.436 0 1 1 .872 0v4.935a.438.438 0 0 1-.436.436ZM42.103 32.416a.433.433 0 0 1-.31-.131l-2.438-2.481a.436.436 0 0 1 .623-.61l2.056 2.093 3.97-6.081a.44.44 0 0 1 .605-.128c.2.13.258.401.127.605l-4.266 6.535a.435.435 0 0 1-.323.195c-.014.003-.029.003-.044.003Z" fill="#6A2EA0"/><defs><linearGradient id="a" x1="6.381" y1="23.661" x2="49.984" y2="23.661" gradientUnits="userSpaceOnUse"><stop stop-color="#4C90FF"/><stop offset=".392" stop-color="#9077D1"/><stop offset="1" stop-color="#FF4C84"/></linearGradient></defs></svg>