<svg width="185" height="221" fill="none" xmlns="http://www.w3.org/2000/svg"><path d="M89.825 142.181H16.156V80.797c14.053 0 21.002-17.58 41.135-17.58 27.14 0 32.542 17.58 32.542 17.58l-.008 61.384Zm51.3 58.912c5.917 0 10.705-4.796 10.705-10.706 0-1.44-.286-2.807-.802-4.059 2.497-.221 5.083.098 7.35.794.933.286 1.899.45 2.865.507-1.245-21.86 18.848-19.831 18.848-19.831s2.398 13.325-9.281 18.465c6.908-.14 14.004 3.437 12.203 14.298-1.817 10.992-9.379 16.753-14.134 18.145a4.004 4.004 0 0 1-4.052-1.113 4 4 0 0 0-5.86 0 4.002 4.002 0 0 1-4.051 1.113c-4.682-1.367-12.334-6.982-14.045-17.63.09.009.172.017.254.017ZM89.948 8.987v-7.76H25.086v7.76h64.862Zm20.33 87.36-6.106-4.656-6.105 4.657V50.163h12.219v46.185h-.008Z" fill="url(#a)"/><path d="M163.493 143.409H16.156c-.679 0-1.227-.549-1.227-1.228V50.515c0-.68.548-1.228 1.227-1.228h147.337c.68 0 1.228.548 1.228 1.228v91.666c0 .679-.548 1.228-1.228 1.228Zm-146.109-2.456h144.882v-89.21H17.384v89.21Z" fill="#6A2EA0"/><path d="M89.825 143.409c-.68 0-1.228-.549-1.228-1.228V71.794c0-.679.548-1.227 1.228-1.227.679 0 1.227.548 1.227 1.227v70.387c0 .679-.548 1.228-1.227 1.228ZM150.48 81.395h-32.836a1.226 1.226 0 1 1 0-2.456h32.836a1.227 1.227 0 1 1 0 2.456ZM150.48 97.576h-17.188a1.226 1.226 0 0 1-1.227-1.228c0-.68.548-1.228 1.227-1.228h17.188c.679 0 1.227.548 1.227 1.228a1.23 1.23 0 0 1-1.227 1.228ZM150.48 113.756H98.066c-.679 0-1.227-.548-1.227-1.227 0-.68.548-1.228 1.227-1.228h52.414c.679 0 1.227.548 1.227 1.228a1.23 1.23 0 0 1-1.227 1.227Z" fill="#6A2EA0"/><path d="M89.825 150.652c-5.018 0-9.691-2.701-12.204-7.047a1.224 1.224 0 0 1 .45-1.678 1.233 1.233 0 0 1 1.678.45 11.682 11.682 0 0 0 10.084 5.819c4.141 0 8.004-2.226 10.083-5.819a1.232 1.232 0 0 1 1.678-.45c.589.344.785 1.089.45 1.678a14.174 14.174 0 0 1-12.22 7.047ZM77.13 150.652H16.157c-.679 0-1.227-.549-1.227-1.228 0-.679.548-1.228 1.227-1.228h60.975c.68 0 1.227.549 1.227 1.228 0 .679-.548 1.228-1.227 1.228ZM163.772 150.652h-60.975a1.226 1.226 0 0 1-1.227-1.228c0-.679.548-1.228 1.227-1.228h60.975c.679 0 1.227.549 1.227 1.228 0 .679-.548 1.228-1.227 1.228ZM167.741 220.097a5.21 5.21 0 0 1-3.814-1.669 2.738 2.738 0 0 0-2.03-.884 2.74 2.74 0 0 0-2.03.884c-1.358 1.456-3.38 2.013-5.295 1.456-4.444-1.301-13.308-6.981-15.01-19.16-.983-7.022 1.481-10.77 3.724-12.677 4.37-3.716 11.049-3.454 15.452-2.104 2.071.639 4.248.639 6.318 0 4.494-1.383 11.303-1.628 15.723 2.235 2.201 1.923 4.591 5.672 3.445 12.579-1.759 10.64-9.011 17.376-15.002 19.127-.491.148-.99.213-1.481.213Zm-5.844-5.009c1.449 0 2.84.606 3.83 1.662.721.769 1.801 1.072 2.808.769 3.789-1.113 11.442-6.13 13.267-17.171.769-4.657-.115-8.127-2.636-10.329-3.421-2.995-9.191-3.028-13.39-1.735a13.057 13.057 0 0 1-7.758 0c-3.806-1.17-9.519-1.449-13.136 1.621-2.579 2.193-3.544 5.721-2.89 10.476 1.523 10.934 9.347 15.992 13.267 17.138 1.015.295 2.087 0 2.808-.769a5.277 5.277 0 0 1 3.83-1.662Z" fill="#6A2EA0"/><path d="M161.897 188.873a1.225 1.225 0 0 1-1.227-1.227V175.14c0-.68.548-1.228 1.227-1.228.68 0 1.228.548 1.228 1.228v12.506c0 .679-.548 1.227-1.228 1.227Z" fill="#6A2EA0"/><path d="M4.894 10.002a4.894 4.894 0 1 0 0-9.79 4.894 4.894 0 0 0 0 9.79Z" fill="#0061FF"/><path d="M89.947 10.214H25.085c-.679 0-1.227-.548-1.227-1.227v-7.76c0-.679.548-1.227 1.227-1.227h24.48c.68 0 1.228.548 1.228 1.228 0 .68-.549 1.227-1.228 1.227H26.313V7.76H88.72V2.455H59.828c-.679 0-1.227-.548-1.227-1.227C58.6.548 59.149 0 59.828 0h30.127c.68 0 1.228.548 1.228 1.228v7.759a1.238 1.238 0 0 1-1.236 1.227Z" fill="#6A2EA0"/><path d="M89.948 10.214a1.226 1.226 0 0 1-.368-2.398l8.601-2.709-8.602-2.709a1.226 1.226 0 1 1 .737-2.34l8.962 2.823a2.328 2.328 0 0 1 1.629 2.226 2.328 2.328 0 0 1-1.63 2.226l-8.961 2.824c-.123.04-.246.057-.368.057ZM89.947 58.715c-.679 0-1.227-.548-1.227-1.227V44.393c0-.68.548-1.228 1.227-1.228.68 0 1.228.548 1.228 1.228v13.095c0 .68-.548 1.227-1.228 1.227Z" fill="#6A2EA0"/><defs><linearGradient id="a" x1="16.157" y1="110.048" x2="183.299" y2="110.048" gradientUnits="userSpaceOnUse"><stop stop-color="#4C90FF"/><stop offset=".392" stop-color="#9077D1"/><stop offset="1" stop-color="#FF4C84"/></linearGradient></defs></svg>