<svg width="251" height="249" viewBox="0 0 251 249" fill="none" xmlns="http://www.w3.org/2000/svg">
<path d="M121.611 223.027C113.226 223.027 106.435 216.257 106.435 207.911V192.795H136.793V207.911C136.793 216.263 129.996 223.027 121.611 223.027ZM166.077 27.3906C153.445 27.3906 145.466 42.6755 147.579 53.9663C149.692 65.2572 146.047 73.3579 131.904 80.5421C153.445 71.5094 176.503 53.5413 166.077 27.3906ZM112.455 113.314C102.075 114.491 99.6535 108.695 96.9801 95.0947C94.3067 81.4945 82.2456 78.0381 82.2456 78.0381C82.0554 86.1491 85.3869 117.047 112.455 113.314Z" fill="url(#paint0_linear_2732_52121)"/>
<path d="M121.817 193.746C121.39 193.746 121.046 193.403 121.046 192.978V127.291C121.046 107.075 126.444 87.156 136.649 69.6897L152.798 44.3532C153.029 43.9947 153.502 43.8872 153.862 44.1176C154.222 44.3429 154.33 44.8191 154.098 45.1776L137.965 70.4885C127.909 87.6987 122.588 107.351 122.588 127.291V192.972C122.588 193.397 122.239 193.746 121.817 193.746Z" fill="#6A2EA0"/>
<path d="M136.793 201.856H121.612C121.185 201.856 120.84 201.513 120.84 201.088C120.84 200.663 121.185 200.32 121.612 200.32H136.788C137.215 200.32 137.559 200.663 137.559 201.088C137.559 201.513 137.22 201.856 136.793 201.856Z" fill="#6A2EA0"/>
<path d="M136.793 193.747H106.435C106.008 193.747 105.664 193.404 105.664 192.979C105.664 192.554 106.008 192.211 106.435 192.211H136.793C137.22 192.211 137.564 192.554 137.564 192.979C137.564 193.404 137.22 193.747 136.793 193.747Z" fill="#6A2EA0"/>
<path d="M129.01 165.628C126.172 165.628 123.642 164.368 121.575 161.895C121.468 161.761 121.406 161.598 121.396 161.429C121.257 157.419 122.521 154.178 125.164 151.807C131.93 145.724 145.281 147.46 145.847 147.537C146.258 147.593 146.551 147.962 146.51 148.371C145.955 154.142 139.477 162.893 132.269 165.11C131.143 165.459 130.053 165.628 129.01 165.628ZM122.933 161.116C125.339 163.866 128.326 164.721 131.811 163.646C137.986 161.746 143.888 154.25 144.865 148.981C141.955 148.709 131.544 148.136 126.192 152.954C123.966 154.956 122.871 157.701 122.933 161.116Z" fill="#6A2EA0"/>
<path d="M122.085 125.6C121.863 125.6 121.642 125.508 121.493 125.323L97.9007 97.0937C97.6282 96.766 97.6745 96.2847 97.9984 96.0133C98.3274 95.7419 98.8107 95.788 99.0832 96.1106L122.676 124.34C122.948 124.668 122.902 125.149 122.578 125.421C122.434 125.544 122.259 125.6 122.085 125.6Z" fill="#6A2EA0"/>
<path d="M131.909 81.3138C131.776 81.3138 131.642 81.278 131.524 81.2114C131.333 81.1039 131.2 80.9195 131.153 80.7045C131.097 80.428 129.735 73.8941 129.92 65.3326C130.089 57.3906 131.698 46.2021 138.392 37.9836C144.536 30.4462 153.852 26.6211 166.077 26.6211C166.396 26.6211 166.684 26.8208 166.797 27.1178C170.468 36.8161 170.298 45.9615 166.293 54.308C163.733 59.6487 158.103 67.5446 145.842 74.8209C138.536 79.1581 132.408 81.1909 132.151 81.278C132.074 81.2985 131.991 81.3138 131.909 81.3138ZM165.542 28.1573C154.067 28.2648 145.338 31.8953 139.59 38.9514C128.552 52.5055 131.693 74.8517 132.5 79.5165C136.876 77.8984 157.229 69.6441 164.905 53.6423C168.653 45.8334 168.864 37.2616 165.542 28.1573Z" fill="#6A2EA0"/>
<path d="M106.882 114.644C101.705 114.644 97.2116 113.103 93.474 110.036C87.2687 104.941 84.3331 96.4972 82.9707 90.3065C81.5003 83.6497 81.4746 78.2629 81.4746 78.0376C81.4746 77.7969 81.5826 77.5716 81.7728 77.4282C81.963 77.2849 82.2098 77.2337 82.4411 77.2951C82.6622 77.3514 87.9833 78.7698 94.2914 81.8626C100.152 84.7353 107.957 89.6561 111.854 96.7737C114.681 101.94 115.134 107.583 113.185 113.554C113.098 113.82 112.871 114.02 112.599 114.071C110.615 114.45 108.707 114.644 106.882 114.644ZM83.0478 79.0668C83.238 83.4654 84.621 100.778 94.4611 108.853C99.0418 112.612 104.892 113.887 111.859 112.647C113.509 107.261 113.051 102.171 110.501 97.5162C106.8 90.7571 99.2886 86.0308 93.6385 83.2554C89.0372 80.9921 84.8832 79.625 83.0478 79.0668Z" fill="#6A2EA0"/>
<path d="M157.646 146.944C159.517 146.944 161.034 145.433 161.034 143.57C161.034 141.706 159.517 140.195 157.646 140.195C155.775 140.195 154.258 141.706 154.258 143.57C154.258 145.433 155.775 146.944 157.646 146.944Z" fill="#0061FF"/>
<defs>
<linearGradient id="paint0_linear_2732_52121" x1="82.2382" y1="125.21" x2="168.665" y2="125.21" gradientUnits="userSpaceOnUse">
<stop stop-color="#FF4C84"/>
<stop offset="0.1681" stop-color="#DF599A"/>
<stop offset="0.7433" stop-color="#7680E2"/>
<stop offset="1" stop-color="#4C90FF"/>
</linearGradient>
</defs>
</svg>
