<svg width="270" height="270" fill="none" xmlns="http://www.w3.org/2000/svg"><path d="M177.696 70.596a1.8 1.8 0 1 0 .001-3.599 1.8 1.8 0 0 0-.001 3.6ZM134.497 70.596a1.8 1.8 0 1 0 0-3.6 1.8 1.8 0 0 0 0 3.6ZM91.296 70.596a1.8 1.8 0 1 0 0-3.6 1.8 1.8 0 0 0 0 3.6ZM177.696 113.795a1.8 1.8 0 1 0 .001-3.599 1.8 1.8 0 0 0-.001 3.599ZM177.696 178.596a1.8 1.8 0 1 0 .001-3.599 1.8 1.8 0 0 0-.001 3.599ZM134.497 113.795a1.8 1.8 0 1 0 0-3.6 1.8 1.8 0 0 0 0 3.6ZM91.296 113.795a1.8 1.8 0 1 0 0-3.6 1.8 1.8 0 0 0 0 3.6ZM134.497 178.596a1.8 1.8 0 1 0 0-3.6 1.8 1.8 0 0 0 0 3.6ZM91.296 178.596a1.8 1.8 0 1 0 0-3.6 1.8 1.8 0 0 0 0 3.6ZM156.097 70.596a1.8 1.8 0 1 0 0-3.6 1.8 1.8 0 0 0 0 3.6ZM112.896 70.596a1.8 1.8 0 1 0 0-3.6 1.8 1.8 0 0 0 0 3.6ZM69.697 70.596a1.8 1.8 0 1 0 0-3.6 1.8 1.8 0 0 0 0 3.6ZM156.097 113.795a1.8 1.8 0 1 0 0-3.6 1.8 1.8 0 0 0 0 3.6ZM156.097 178.596a1.8 1.8 0 1 0 0-3.6 1.8 1.8 0 0 0 0 3.6ZM112.896 113.795a1.8 1.8 0 1 0 0-3.6 1.8 1.8 0 0 0 0 3.6ZM69.697 113.795a1.8 1.8 0 1 0 0-3.6 1.8 1.8 0 0 0 0 3.6ZM112.896 178.596a1.8 1.8 0 1 0 0-3.6 1.8 1.8 0 0 0 0 3.6ZM69.697 178.596a1.8 1.8 0 1 0 0-3.6 1.8 1.8 0 0 0 0 3.6ZM177.696 92.196a1.8 1.8 0 1 0 .001-3.6 1.8 1.8 0 0 0-.001 3.6ZM177.696 156.995a1.8 1.8 0 1 0 .001-3.599 1.8 1.8 0 0 0-.001 3.599ZM134.497 92.196a1.8 1.8 0 1 0 0-3.6 1.8 1.8 0 0 0 0 3.6ZM91.296 92.196a1.8 1.8 0 1 0 0-3.6 1.8 1.8 0 0 0 0 3.6ZM134.497 156.995a1.8 1.8 0 1 0 0-3.6 1.8 1.8 0 0 0 0 3.6ZM91.296 156.995a1.8 1.8 0 1 0 0-3.6 1.8 1.8 0 0 0 0 3.6ZM177.696 135.395a1.8 1.8 0 1 0 .001-3.599 1.8 1.8 0 0 0-.001 3.599ZM177.696 200.196a1.8 1.8 0 1 0 .001-3.599 1.8 1.8 0 0 0-.001 3.599ZM134.497 135.395a1.8 1.8 0 1 0 0-3.6 1.8 1.8 0 0 0 0 3.6ZM91.296 135.395a1.8 1.8 0 1 0 0-3.6 1.8 1.8 0 0 0 0 3.6ZM134.497 200.196a1.8 1.8 0 1 0 0-3.6 1.8 1.8 0 0 0 0 3.6ZM91.296 200.196a1.8 1.8 0 1 0 0-3.6 1.8 1.8 0 0 0 0 3.6ZM156.097 92.196a1.8 1.8 0 1 0 0-3.6 1.8 1.8 0 0 0 0 3.6ZM156.097 156.995a1.8 1.8 0 1 0 0-3.6 1.8 1.8 0 0 0 0 3.6ZM112.896 92.196a1.8 1.8 0 1 0 0-3.6 1.8 1.8 0 0 0 0 3.6ZM69.697 92.196a1.8 1.8 0 1 0 0-3.6 1.8 1.8 0 0 0 0 3.6ZM112.896 156.995a1.8 1.8 0 1 0 0-3.6 1.8 1.8 0 0 0 0 3.6ZM69.697 156.995a1.8 1.8 0 1 0 0-3.6 1.8 1.8 0 0 0 0 3.6ZM156.097 135.395a1.8 1.8 0 1 0 0-3.6 1.8 1.8 0 0 0 0 3.6ZM156.097 200.196a1.8 1.8 0 1 0 0-3.6 1.8 1.8 0 0 0 0 3.6ZM112.896 135.395a1.8 1.8 0 1 0 0-3.6 1.8 1.8 0 0 0 0 3.6ZM69.697 135.395a1.8 1.8 0 1 0 0-3.6 1.8 1.8 0 0 0 0 3.6ZM112.896 200.196a1.8 1.8 0 1 0 0-3.6 1.8 1.8 0 0 0 0 3.6ZM69.697 200.196a1.8 1.8 0 1 0 0-3.6 1.8 1.8 0 0 0 0 3.6ZM199.296 70.596a1.8 1.8 0 1 0 0-3.6 1.8 1.8 0 0 0 0 3.6ZM199.296 113.795a1.8 1.8 0 1 0 0-3.6 1.8 1.8 0 0 0 0 3.6ZM199.296 178.596a1.8 1.8 0 1 0 0-3.6 1.8 1.8 0 0 0 0 3.6ZM199.296 92.196a1.8 1.8 0 1 0 0-3.6 1.8 1.8 0 0 0 0 3.6ZM199.296 156.995a1.8 1.8 0 1 0 0-3.6 1.8 1.8 0 0 0 0 3.6ZM199.296 135.395a1.8 1.8 0 1 0 0-3.6 1.8 1.8 0 0 0 0 3.6ZM199.296 200.196a1.8 1.8 0 1 0 0-3.6 1.8 1.8 0 0 0 0 3.6ZM177.696 221.795a1.8 1.8 0 1 0 .001-3.599 1.8 1.8 0 0 0-.001 3.599ZM134.497 221.795a1.8 1.8 0 1 0 0-3.6 1.8 1.8 0 0 0 0 3.6ZM91.296 221.795a1.8 1.8 0 1 0 0-3.6 1.8 1.8 0 0 0 0 3.6ZM156.097 221.795a1.8 1.8 0 1 0 0-3.6 1.8 1.8 0 0 0 0 3.6ZM112.896 221.795a1.8 1.8 0 1 0 0-3.6 1.8 1.8 0 0 0 0 3.6ZM69.697 221.795a1.8 1.8 0 1 0 0-3.6 1.8 1.8 0 0 0 0 3.6ZM199.296 221.795a1.8 1.8 0 1 0 0-3.6 1.8 1.8 0 0 0 0 3.6ZM177.696 27.395a1.8 1.8 0 1 0 .001-3.599 1.8 1.8 0 0 0-.001 3.599ZM134.497 27.395a1.8 1.8 0 1 0 0-3.6 1.8 1.8 0 0 0 0 3.6ZM91.296 27.395a1.8 1.8 0 1 0 0-3.6 1.8 1.8 0 0 0 0 3.6ZM156.097 27.395a1.8 1.8 0 1 0 0-3.6 1.8 1.8 0 0 0 0 3.6ZM112.896 27.395a1.8 1.8 0 1 0 0-3.6 1.8 1.8 0 0 0 0 3.6ZM69.697 27.395a1.8 1.8 0 1 0 0-3.6 1.8 1.8 0 0 0 0 3.6ZM177.696 5.795a1.8 1.8 0 1 0 .001-3.599 1.8 1.8 0 0 0-.001 3.6ZM134.497 5.795a1.8 1.8 0 1 0 0-3.6 1.8 1.8 0 0 0 0 3.6ZM91.296 5.795a1.8 1.8 0 1 0 0-3.6 1.8 1.8 0 0 0 0 3.6ZM177.696 48.995a1.8 1.8 0 1 0 .001-3.6 1.8 1.8 0 0 0-.001 3.6ZM134.497 48.995a1.8 1.8 0 1 0 0-3.6 1.8 1.8 0 0 0 0 3.6ZM91.296 48.995a1.8 1.8 0 1 0 0-3.6 1.8 1.8 0 0 0 0 3.6ZM156.097 5.795a1.8 1.8 0 1 0 0-3.6 1.8 1.8 0 0 0 0 3.6ZM112.896 5.795a1.8 1.8 0 1 0 0-3.6 1.8 1.8 0 0 0 0 3.6ZM69.697 5.795a1.8 1.8 0 1 0 0-3.6 1.8 1.8 0 0 0 0 3.6ZM156.097 48.995a1.8 1.8 0 1 0 0-3.6 1.8 1.8 0 0 0 0 3.6ZM112.896 48.995a1.8 1.8 0 1 0 0-3.6 1.8 1.8 0 0 0 0 3.6ZM69.697 48.995a1.8 1.8 0 1 0 0-3.6 1.8 1.8 0 0 0 0 3.6ZM199.296 27.395a1.8 1.8 0 1 0 0-3.6 1.8 1.8 0 0 0 0 3.6ZM199.296 5.795a1.8 1.8 0 1 0 0-3.6 1.8 1.8 0 0 0 0 3.6ZM199.296 48.995a1.8 1.8 0 1 0 0-3.6 1.8 1.8 0 0 0 0 3.6ZM264.196 70.596a1.8 1.8 0 1 0 .001-3.599 1.8 1.8 0 0 0-.001 3.6ZM220.995 70.596a1.8 1.8 0 1 0 0-3.6 1.8 1.8 0 0 0 0 3.6ZM264.196 113.795a1.8 1.8 0 1 0 .001-3.599 1.8 1.8 0 0 0-.001 3.599ZM220.995 113.795a1.8 1.8 0 1 0 0-3.6 1.8 1.8 0 0 0 0 3.6ZM264.196 178.596a1.8 1.8 0 1 0 .001-3.599 1.8 1.8 0 0 0-.001 3.599ZM220.995 178.596a1.8 1.8 0 1 0 0-3.6 1.8 1.8 0 0 0 0 3.6ZM242.595 70.596a1.8 1.8 0 1 0 0-3.6 1.8 1.8 0 0 0 0 3.6ZM242.595 113.795a1.8 1.8 0 1 0 0-3.6 1.8 1.8 0 0 0 0 3.6ZM242.595 178.596a1.8 1.8 0 1 0 0-3.6 1.8 1.8 0 0 0 0 3.6ZM264.196 92.196a1.8 1.8 0 1 0 .001-3.6 1.8 1.8 0 0 0-.001 3.6ZM220.995 92.196a1.8 1.8 0 1 0 0-3.6 1.8 1.8 0 0 0 0 3.6ZM264.196 156.995a1.8 1.8 0 1 0 .001-3.599 1.8 1.8 0 0 0-.001 3.599ZM220.995 156.995a1.8 1.8 0 1 0 0-3.6 1.8 1.8 0 0 0 0 3.6ZM264.196 135.395a1.8 1.8 0 1 0 .001-3.599 1.8 1.8 0 0 0-.001 3.599ZM220.995 135.395a1.8 1.8 0 1 0 0-3.6 1.8 1.8 0 0 0 0 3.6ZM264.196 200.196a1.8 1.8 0 1 0 .001-3.599 1.8 1.8 0 0 0-.001 3.599ZM220.995 200.196a1.8 1.8 0 1 0 0-3.6 1.8 1.8 0 0 0 0 3.6ZM242.595 92.196a1.8 1.8 0 1 0 0-3.6 1.8 1.8 0 0 0 0 3.6ZM242.595 156.995a1.8 1.8 0 1 0 0-3.6 1.8 1.8 0 0 0 0 3.6ZM242.595 135.395a1.8 1.8 0 1 0 0-3.6 1.8 1.8 0 0 0 0 3.6ZM242.595 200.196a1.8 1.8 0 1 0 0-3.6 1.8 1.8 0 0 0 0 3.6ZM264.196 221.795a1.8 1.8 0 1 0 .001-3.599 1.8 1.8 0 0 0-.001 3.599ZM220.995 221.795a1.8 1.8 0 1 0 0-3.6 1.8 1.8 0 0 0 0 3.6ZM242.595 221.795a1.8 1.8 0 1 0 0-3.6 1.8 1.8 0 0 0 0 3.6ZM264.196 27.395a1.8 1.8 0 1 0 .001-3.599 1.8 1.8 0 0 0-.001 3.599ZM220.995 27.395a1.8 1.8 0 1 0 0-3.6 1.8 1.8 0 0 0 0 3.6ZM242.595 27.395a1.8 1.8 0 1 0 0-3.6 1.8 1.8 0 0 0 0 3.6ZM264.196 5.795a1.8 1.8 0 1 0 .001-3.599 1.8 1.8 0 0 0-.001 3.6ZM220.995 5.795a1.8 1.8 0 1 0 0-3.6 1.8 1.8 0 0 0 0 3.6ZM264.196 48.995a1.8 1.8 0 1 0 .001-3.6 1.8 1.8 0 0 0-.001 3.6ZM220.995 48.995a1.8 1.8 0 1 0 0-3.6 1.8 1.8 0 0 0 0 3.6ZM242.595 5.795a1.8 1.8 0 1 0 0-3.6 1.8 1.8 0 0 0 0 3.6ZM242.595 48.995a1.8 1.8 0 1 0 0-3.6 1.8 1.8 0 0 0 0 3.6Z" fill="#D7DFFE"/><path d="M34.183 52.83a5.382 5.382 0 1 0 0-10.764 5.382 5.382 0 0 0 0 10.764Z" fill="#3761FB"/><path d="M213.301 191.152v54.315a5.694 5.694 0 0 1 4.284 5.634h-11.664s0-4.041-6.3-5.445c-8.019-1.8-11.043-6.3-10.8-9.117h1.512l-3.654-28.71 6.534-10.026v-15.354a4.852 4.852 0 0 1 4.851-4.851h19.233a6.881 6.881 0 0 0 3.429 5.76 12.055 12.055 0 0 1-7.425 7.794Zm-34.245 45.387-2.655-12.951c-7.407 7.119-9.27 17.1-9.693 22.842 2.106.774 2.421 2.223 3.456 4.671h10.341v-14.562h-1.449ZM114.499 27.091c1.656.315 6.552.594 6.354 2.78-9.126 1.98-10.8 13.096-4.824 21.6 0 0-3.6-16.082 9.063-10.8a15.732 15.732 0 0 0 9.063.694s1.089 2.988-.765 7.083a5.872 5.872 0 0 1-1.287 3.042 13.856 13.856 0 0 0 6.426-9.333c1.386-6.75-7.344-13.887-14.103-12.303 1.314-3.177.207-10.422-6.147-11.232-8.541-1.062-7.947 7.668-3.78 8.469Zm31.563 8.1c-1.683-5.886.315-15.147 5.094-12.384s7.776-1.107 11.07 0c3.294 1.107 2.169 13.743 2.169 13.743 11.574-5.805 6.39-19.494 1.368-19.854-5.022-.36-10.962-4.095-14.634-5.895-4.788-2.367-7.65.18-9.306 3.33a14.78 14.78 0 0 0-.963 11.124c1.341 4.446 3.483 10.602 5.202 9.963v-.027Zm-5.868 93.357 4.203 103.293h-25.371l-.468-93.438-20.151 93.465H64l36.9-111.87 4.446 9.18-3.501 4.617 11.376.504a1.192 1.192 0 0 0 .878-.328 1.192 1.192 0 0 0 .373-.86v-14.787l-4.572 5.202-3.672-12.357 30.141.9v-6.525s-8.685-1.8-8.685-7.641V58.366l4.347-6.858 9.9.549a15.162 15.162 0 0 0 13.302 7.416 16.202 16.202 0 0 0 13.689-7.416s10.692-.621 12.249 7.416c1.557 8.037 0 37.017 0 37.017s-1.476 6.714-5.895 6.453v17.1h-38.835v8.631l3.753-.126Zm24.678-32.085 12.474-3.78s-2.493-3.024-12.474-1.89v5.67Z" fill="url(#a)"/><path d="M116.884 41.4s-3.789 14.4 4.572 16.677c9.324 2.583 12.699-12.114 12.699-12.114M145.954 31.807s-.9 12.204 7.938 14.03c8.838 1.828 11.7-10.547 10.8-15.155M122.104 70.561l-6.075-10.809M105.111 128.629l-10.152-28.278 5.778-29.934a9.614 9.614 0 0 1 9.441-7.794h7.461" stroke="#5E329C" stroke-width="3" stroke-linecap="round" stroke-linejoin="round"/><path d="m109.081 123.527-5.733-23.391 4.185-11.034M106.301 111.168h30.141M112.834 119.998l-9.486 11.691M101.414 118.324c-18.666 65.277-40.113 121.743-40.113 121.743h35.334l22.428-103.986v103.986h25.668M162.748 51.508h7.866a11.124 11.124 0 0 1 11.124 11.124V96.49a6.48 6.48 0 0 1-2.086 4.762 6.456 6.456 0 0 1-4.916 1.691l-24.939-1.746" stroke="#5E329C" stroke-width="3" stroke-linecap="round" stroke-linejoin="round"/><path d="M127.801 56.988V97.2a7.998 7.998 0 0 0 6.683 7.887 8.01 8.01 0 0 0 3.703-.255l26.73-8.352v-5.67h-26.244V71.496M149.798 51.508h-17.694M142.039 52.057s1.8 7.416 13.302 7.416c11.502 0 13.689-7.416 13.689-7.416M171.686 71.496v6.615M136.441 105.543v23.085l38.943-7.434 15.156 115.344M175.385 102.943v18.252" stroke="#5E329C" stroke-width="3" stroke-linecap="round" stroke-linejoin="round"/><path d="m158.734 136.629-2.763 99.909H144.73M144.729 240.066l-4.536-111.492M82.747 240.939V251.1H57.322s.216-4.572 6.3-5.445c6.426-.9 9.297-4.716 9.297-4.716M144.73 240.939V251.1h25.425s-.216-4.572-6.3-5.445c-6.426-.9-9.297-4.716-9.297-4.716M180.496 236.539v14.562h25.425s-.216-4.572-6.3-5.445c-6.426-.9-9.297-4.716-9.297-4.716M130.78 243.819c9.99 0 9.414 7.281 9.414 7.281H123.49v-10.161" stroke="#5E329C" stroke-width="3" stroke-linecap="round" stroke-linejoin="round"/><path d="M190.54 236.538h-11.511l-20.304-99.909M148.141 42.273v8.856M162.748 41.563v9.944" stroke="#5E329C" stroke-width="3" stroke-linecap="round" stroke-linejoin="round"/><path d="M203.841 188.272v7.47a5.515 5.515 0 0 1-9.415 3.899 5.53 5.53 0 0 1-1.619-3.899v-12.825a5.52 5.52 0 0 1 5.517-5.517h23.211a13.919 13.919 0 0 1-8.235 13.752v54.315a4.286 4.286 0 0 1 4.284 4.284v1.35h-47.43M176.194 222.588l-3.987 5.868a30.134 30.134 0 0 0-5.58 17.46M193.141 197.623l-6.237 9.18M203.842 195.742h9.432" stroke="#5E329C" stroke-width="3" stroke-linecap="round" stroke-linejoin="round"/><defs><linearGradient id="a" x1="69.922" y1="44.551" x2="196.273" y2="263.395" gradientUnits="userSpaceOnUse"><stop stop-color="#7390FC"/><stop offset=".35" stop-color="#9F76CE"/><stop offset=".79" stop-color="#D25899"/><stop offset="1" stop-color="#E64C84"/></linearGradient></defs></svg>