<svg width="314" height="314" fill="none" xmlns="http://www.w3.org/2000/svg"><path d="M259.552 125.286a6.26 6.26 0 1 0 0-12.519 6.26 6.26 0 0 0 0 12.519ZM158.025 285.424a6.26 6.26 0 1 0 0-12.519 6.26 6.26 0 0 0 0 12.519ZM39.751 79.233a6.26 6.26 0 1 0 0-12.518 6.26 6.26 0 0 0 0 12.518Z" fill="#3761FB"/><path d="M185.383 216.139a49.453 49.453 0 0 1-15.909-7.326v-68.839c0-8.374 6.206-9.42 6.206-9.42l16.841-13.021s-15.511 0-36.706-17.04c-21.195-17.04-45.457-24.073-45.457-24.073-1.717 41.123 18.662 49.089 27.611 54.311 8.949 5.223 6.28 9.222 6.28 9.222v66.473a71.014 71.014 0 0 0-33.922 19.144v5.746h37.439a10.51 10.51 0 0 1-.136-1.633 10.235 10.235 0 0 1 17.474-7.238 10.236 10.236 0 0 1 2.999 7.238 10.512 10.512 0 0 1-.137 1.633H202.8v-15.177s-5.799 3.371-17.417 0Z" fill="url(#a)"/><path d="M202.83 88.423a46.214 46.214 0 0 1-27.15 42.107 10.41 10.41 0 0 0-6.207 9.42v0a10.403 10.403 0 0 0 6.207 9.42 46.237 46.237 0 0 1 27.15 42.171v39.773h-92.473v-39.773c0-8.974 2.61-17.754 7.512-25.27a46.257 46.257 0 0 1 20.099-17.058 10.11 10.11 0 0 0 6.113-9.231 10.11 10.11 0 0 0-6.113-9.221 46.26 46.26 0 0 1-20.095-17.061 46.258 46.258 0 0 1-7.516-25.267V48.66h92.473v12.958M208.024 38.078H103.608a5.265 5.265 0 0 0 0 10.53h104.416a5.265 5.265 0 1 0 0-10.53ZM157.898 242.829h-54.28a5.23 5.23 0 0 1-5.233-5.233v-.953a5.233 5.233 0 0 1 5.233-5.233h104.426a5.234 5.234 0 0 1 5.233 5.233v.953a5.232 5.232 0 0 1-5.233 5.233h-22.891" stroke="#5E329C" stroke-width="2.6" stroke-linecap="round" stroke-linejoin="round"/><path d="M87.678 73.486c54.688 0 67.918 45.928 127.526 45.928M157.898 139.969v66.808" stroke="#5E329C" stroke-width="2.6" stroke-linecap="round" stroke-linejoin="round"/><defs><linearGradient id="a" x1="110.264" y1="153.894" x2="202.831" y2="153.894" gradientUnits="userSpaceOnUse"><stop stop-color="#7390FC"/><stop offset="1" stop-color="#E64C84"/></linearGradient></defs></svg>