<svg width="312" height="312" viewBox="0 0 312 312" fill="none" xmlns="http://www.w3.org/2000/svg">
<path d="M163.351 131.222C163.329 131.222 163.306 131.222 163.284 131.222C162.932 131.2 127.801 128.715 127.801 100.148V62.7636C127.801 56.7014 132.733 51.7692 138.795 51.7692H148.465C149.086 51.7692 149.588 52.2707 149.588 52.8919C149.588 53.5131 149.086 54.0145 148.465 54.0145H138.795C133.968 54.0145 130.046 57.9363 130.046 62.7636V100.14C130.046 111.194 135.599 119.397 146.556 124.517C154.872 128.401 163.336 128.97 163.419 128.977C164.04 129.015 164.511 129.546 164.466 130.167C164.436 130.766 163.942 131.222 163.351 131.222Z" fill="#6A2EA0"/>
<path d="M167.288 131.222C166.697 131.222 166.203 130.766 166.166 130.167C166.128 129.546 166.6 129.015 167.213 128.977C167.296 128.97 175.76 128.408 184.075 124.517C195.032 119.397 200.586 111.194 200.586 100.14V62.7636C200.586 57.9438 196.664 54.0145 191.837 54.0145H182.167C181.546 54.0145 181.044 53.5131 181.044 52.8919C181.044 52.2707 181.546 51.7692 182.167 51.7692H191.837C197.899 51.7692 202.831 56.7014 202.831 62.7636V100.14C202.831 128.708 167.707 131.192 167.348 131.215C167.341 131.222 167.311 131.222 167.288 131.222Z" fill="#6A2EA0"/>
<path d="M200.002 197.286C179.929 197.286 163.591 180.956 163.591 160.875V138.175C163.591 137.554 164.092 137.053 164.713 137.053C165.335 137.053 165.836 137.554 165.836 138.175V160.875C165.836 179.713 181.164 195.041 200.002 195.041C218.84 195.041 234.168 179.713 234.168 160.875V113.515C234.168 112.893 234.669 112.392 235.29 112.392C235.911 112.392 236.413 112.893 236.413 113.515V160.875C236.413 180.948 220.075 197.286 200.002 197.286Z" fill="#6A2EA0"/>
<path d="M235.29 123.259C227.26 123.259 220.733 116.725 220.733 108.702C220.733 100.672 227.267 94.1453 235.29 94.1453C243.313 94.1453 249.847 100.679 249.847 108.702C249.847 116.725 243.313 123.259 235.29 123.259ZM235.29 96.3905C228.502 96.3905 222.979 101.914 222.979 108.702C222.979 115.49 228.502 121.014 235.29 121.014C242.079 121.014 247.602 115.49 247.602 108.702C247.602 101.914 242.079 96.3905 235.29 96.3905Z" fill="#6A2EA0"/>
<path d="M109.292 97.4084C111.764 97.4084 113.768 95.4046 113.768 92.9328C113.768 90.461 111.764 88.4572 109.292 88.4572C106.82 88.4572 104.817 90.461 104.817 92.9328C104.817 95.4046 106.82 97.4084 109.292 97.4084Z" fill="#0061FF"/>
<path d="M146.542 254.399C145.92 254.399 145.419 253.897 145.419 253.276V166.122C145.419 159.947 140.397 154.925 134.223 154.925H84.5269C78.3523 154.925 73.3304 159.947 73.3304 166.122V186.763C73.3304 187.385 72.8289 187.886 72.2077 187.886C71.5865 187.886 71.0851 187.385 71.0851 186.763V166.122C71.0851 158.712 77.1174 152.68 84.5269 152.68H134.223C141.632 152.68 147.664 158.712 147.664 166.122V253.284C147.664 253.897 147.163 254.399 146.542 254.399Z" fill="#6A2EA0"/>
<path d="M122.495 188.133H63.9151C63.2939 188.133 62.7924 187.631 62.7924 187.01C62.7924 186.389 63.2939 185.888 63.9151 185.888H122.495C123.116 185.888 123.617 186.389 123.617 187.01C123.617 187.631 123.116 188.133 122.495 188.133Z" fill="#6A2EA0"/>
<path d="M132.98 200.819H91.7418C91.1206 200.819 90.6192 200.317 90.6192 199.696C90.6192 199.075 91.1206 198.574 91.7418 198.574H132.988C133.609 198.574 134.11 199.075 134.11 199.696C134.11 200.317 133.601 200.819 132.98 200.819Z" fill="#6A2EA0"/>
<path d="M122.495 214.897H82.8729C82.2517 214.897 81.7502 214.395 81.7502 213.774C81.7502 213.153 82.2517 212.651 82.8729 212.651H122.495C123.116 212.651 123.617 213.153 123.617 213.774C123.617 214.395 123.116 214.897 122.495 214.897Z" fill="#6A2EA0"/>
<path d="M100.438 254.399H83.4864C71.2346 254.399 71.0924 242.409 71.0924 242.282V214.261C71.0924 213.639 71.5939 213.138 72.2151 213.138C72.8362 213.138 73.3377 213.639 73.3377 214.261V242.282C73.3377 242.686 73.4949 252.154 83.4864 252.154H100.438C101.059 252.154 101.561 252.655 101.561 253.276C101.561 253.897 101.059 254.399 100.438 254.399Z" fill="#6A2EA0"/>
<path d="M149.049 59.4107H148.839V46.5827H149.049C152.589 46.5827 155.463 49.4566 155.463 52.9967C155.463 56.5368 152.589 59.4107 149.049 59.4107ZM164.713 122.024C160.253 122.024 156.638 125.639 156.638 130.1C156.638 134.56 160.253 138.175 164.713 138.175C169.174 138.175 172.789 134.56 172.789 130.1C172.796 125.639 169.181 122.024 164.713 122.024ZM181.598 59.4107H181.807V46.5827H181.598C178.058 46.5827 175.184 49.4566 175.184 52.9967C175.184 56.5368 178.058 59.4107 181.598 59.4107ZM235.29 91.7054C229.258 91.7054 224.371 96.5927 224.371 102.625C224.371 108.657 229.258 113.545 235.29 113.545C241.323 113.545 246.21 108.657 246.21 102.625C246.21 96.5927 241.315 91.7054 235.29 91.7054ZM128.894 154.776C128.894 157.522 126.663 159.753 123.917 159.753H95.7307C92.9839 159.753 90.7536 157.522 90.7536 154.776C90.7536 152.029 92.9839 149.798 95.7307 149.798H103.477C103.499 149.798 103.507 149.776 103.499 149.761C102.743 148.631 102.309 147.276 102.309 145.817C102.309 142.09 105.176 139.036 108.828 138.737C112.982 138.392 116.627 141.835 116.522 146.004C116.485 147.389 116.051 148.683 115.332 149.761C115.325 149.776 115.332 149.798 115.354 149.798H123.931C126.663 149.806 128.894 152.029 128.894 154.776ZM113.356 145.555C113.356 143.437 111.642 141.723 109.524 141.723C107.406 141.723 105.692 143.437 105.692 145.555C105.692 147.673 107.406 149.387 109.524 149.387C111.642 149.387 113.356 147.673 113.356 145.555ZM141.969 253.433C141.969 261.449 135.472 267.945 127.457 267.945C119.441 267.945 112.945 261.449 112.945 253.433C112.945 245.418 119.441 238.921 127.457 238.921C135.472 238.921 141.969 245.418 141.969 253.433ZM135.12 251.345H129.425V245.65H125.084V251.345H119.389V255.686H125.084V261.382H129.425V255.686H135.12V251.345Z" fill="url(#paint0_linear_1_2583)"/>
<path d="M148.839 62.5017C148.218 62.5017 147.717 62.0003 147.717 61.3791V44.2924C147.717 43.6712 148.218 43.1698 148.839 43.1698C149.461 43.1698 149.962 43.6712 149.962 44.2924V61.3791C149.962 62.0003 149.453 62.5017 148.839 62.5017Z" fill="#6A2EA0"/>
<path d="M181.808 62.5017C181.186 62.5017 180.685 62.0003 180.685 61.3791V44.2924C180.685 43.6712 181.186 43.1698 181.808 43.1698C182.429 43.1698 182.93 43.6712 182.93 44.2924V61.3791C182.93 62.0003 182.429 62.5017 181.808 62.5017Z" fill="#6A2EA0"/>
<defs>
<linearGradient id="paint0_linear_1_2583" x1="90.7566" y1="157.265" x2="246.208" y2="157.265" gradientUnits="userSpaceOnUse">
<stop stop-color="#FF4C84"/>
<stop offset="0.603" stop-color="#9176D0"/>
<stop offset="1" stop-color="#4C90FF"/>
</linearGradient>
</defs>
</svg>
