<svg width="318" height="318" viewBox="0 0 318 318" fill="none" xmlns="http://www.w3.org/2000/svg">
<path d="M166.493 133.746C166.47 133.746 166.447 133.746 166.424 133.746C166.066 133.723 130.259 131.19 130.259 102.074V63.9706C130.259 57.7918 135.286 52.7648 141.465 52.7648H151.32C151.953 52.7648 152.465 53.2759 152.465 53.909C152.465 54.5421 151.953 55.0532 151.32 55.0532H141.465C136.544 55.0532 132.547 59.0504 132.547 63.9706V102.066C132.547 113.333 138.207 121.693 149.375 126.911C157.85 130.87 166.478 131.45 166.561 131.457C167.195 131.496 167.675 132.037 167.629 132.67C167.599 133.281 167.095 133.746 166.493 133.746Z" fill="#6A2EA0"/>
<path d="M170.506 133.746C169.903 133.746 169.4 133.281 169.361 132.67C169.323 132.037 169.804 131.496 170.429 131.457C170.513 131.45 179.141 130.878 187.616 126.911C198.784 121.693 204.444 113.333 204.444 102.066V63.9706C204.444 59.058 200.446 55.0532 195.526 55.0532H185.671C185.037 55.0532 184.526 54.5421 184.526 53.909C184.526 53.2759 185.037 52.7648 185.671 52.7648H195.526C201.705 52.7648 206.732 57.7918 206.732 63.9706V102.066C206.732 131.183 170.933 133.715 170.567 133.738C170.559 133.746 170.529 133.746 170.506 133.746Z" fill="#6A2EA0"/>
<path d="M203.849 201.08C183.39 201.08 166.737 184.435 166.737 163.969V140.833C166.737 140.199 167.248 139.688 167.882 139.688C168.515 139.688 169.026 140.199 169.026 140.833V163.969C169.026 183.169 184.648 198.792 203.849 198.792C223.049 198.792 238.671 183.169 238.671 163.969V115.698C238.671 115.064 239.182 114.553 239.816 114.553C240.449 114.553 240.96 115.064 240.96 115.698V163.969C240.96 184.428 224.307 201.08 203.849 201.08Z" fill="#6A2EA0"/>
<path d="M239.815 125.629C231.63 125.629 224.979 118.97 224.979 110.793C224.979 102.607 231.638 95.9557 239.815 95.9557C247.993 95.9557 254.652 102.615 254.652 110.793C254.652 118.97 247.993 125.629 239.815 125.629ZM239.815 98.2442C232.897 98.2442 227.267 103.874 227.267 110.793C227.267 117.711 232.897 123.341 239.815 123.341C246.734 123.341 252.364 117.711 252.364 110.793C252.364 103.874 246.734 98.2442 239.815 98.2442Z" fill="#6A2EA0"/>
<path d="M111.394 99.2817C113.913 99.2817 115.955 97.2393 115.955 94.72C115.955 92.2007 113.913 90.1583 111.394 90.1583C108.874 90.1583 106.832 92.2007 106.832 94.72C106.832 97.2393 108.874 99.2817 111.394 99.2817Z" fill="#0061FF"/>
<path d="M149.36 259.291C148.727 259.291 148.216 258.78 148.216 258.147V169.316C148.216 163.023 143.097 157.905 136.804 157.905H86.1524C79.8591 157.905 74.7406 163.023 74.7406 169.316V190.355C74.7406 190.988 74.2295 191.499 73.5964 191.499C72.9632 191.499 72.4521 190.988 72.4521 190.355V169.316C72.4521 161.764 78.6005 155.616 86.1524 155.616H136.804C144.356 155.616 150.504 161.764 150.504 169.316V258.155C150.504 258.78 149.993 259.291 149.36 259.291Z" fill="#6A2EA0"/>
<path d="M124.85 191.751H65.1442C64.5111 191.751 64 191.24 64 190.607C64 189.973 64.5111 189.462 65.1442 189.462H124.85C125.483 189.462 125.995 189.973 125.995 190.607C125.995 191.24 125.483 191.751 124.85 191.751Z" fill="#6A2EA0"/>
<path d="M135.538 204.681H93.5065C92.8734 204.681 92.3623 204.17 92.3623 203.537C92.3623 202.903 92.8734 202.392 93.5065 202.392H135.546C136.179 202.392 136.69 202.903 136.69 203.537C136.69 204.17 136.171 204.681 135.538 204.681Z" fill="#6A2EA0"/>
<path d="M124.85 219.029H84.4665C83.8334 219.029 83.3223 218.518 83.3223 217.885C83.3223 217.252 83.8334 216.741 84.4665 216.741H124.85C125.483 216.741 125.994 217.252 125.994 217.885C125.994 218.518 125.483 219.029 124.85 219.029Z" fill="#6A2EA0"/>
<path d="M102.37 259.291H85.0923C72.6049 259.291 72.46 247.071 72.46 246.941V218.381C72.46 217.748 72.9711 217.237 73.6042 217.237C74.2373 217.237 74.7484 217.748 74.7484 218.381V246.941C74.7484 247.353 74.9086 257.003 85.0923 257.003H102.37C103.003 257.003 103.514 257.514 103.514 258.147C103.514 258.78 103.003 259.291 102.37 259.291Z" fill="#6A2EA0"/>
<path d="M151.915 60.5533H151.702V47.4785H151.915C155.523 47.4785 158.453 50.4078 158.453 54.0159C158.453 57.624 155.523 60.5533 151.915 60.5533ZM167.881 124.371C163.335 124.371 159.65 128.055 159.65 132.602C159.65 137.148 163.335 140.833 167.881 140.833C172.427 140.833 176.112 137.148 176.112 132.602C176.12 128.055 172.435 124.371 167.881 124.371ZM185.09 60.5533H185.304V47.4785H185.09C181.482 47.4785 178.553 50.4078 178.553 54.0159C178.553 57.624 181.482 60.5533 185.09 60.5533ZM239.815 93.469C233.667 93.469 228.686 98.4503 228.686 104.599C228.686 110.747 233.667 115.728 239.815 115.728C245.963 115.728 250.945 110.747 250.945 104.599C250.945 98.4503 245.956 93.469 239.815 93.469ZM131.372 157.752C131.372 160.552 129.099 162.825 126.3 162.825H97.5718C94.7722 162.825 92.499 160.552 92.499 157.752C92.499 154.952 94.7722 152.679 97.5718 152.679H105.467C105.49 152.679 105.498 152.656 105.49 152.641C104.719 151.489 104.277 150.109 104.277 148.621C104.277 144.822 107.199 141.71 110.921 141.405C115.155 141.054 118.87 144.563 118.763 148.812C118.725 150.223 118.282 151.543 117.55 152.641C117.542 152.656 117.55 152.679 117.573 152.679H126.315C129.099 152.687 131.372 154.952 131.372 157.752ZM115.536 148.354C115.536 146.195 113.789 144.448 111.631 144.448C109.472 144.448 107.725 146.195 107.725 148.354C107.725 150.513 109.472 152.26 111.631 152.26C113.789 152.26 115.536 150.513 115.536 148.354ZM144.699 258.307C144.699 266.477 138.078 273.098 129.908 273.098C121.738 273.098 115.117 266.477 115.117 258.307C115.117 250.137 121.738 243.516 129.908 243.516C138.078 243.516 144.699 250.137 144.699 258.307ZM137.719 256.179H131.914V250.374H127.49V256.179H121.685V260.603H127.49V266.408H131.914V260.603H137.719V256.179Z" fill="url(#paint0_linear_3928_56)"/>
<path d="M151.702 63.7037C151.069 63.7037 150.558 63.1926 150.558 62.5594V45.1442C150.558 44.5111 151.069 44 151.702 44C152.335 44 152.846 44.5111 152.846 45.1442V62.5594C152.846 63.1926 152.327 63.7037 151.702 63.7037Z" fill="#6A2EA0"/>
<path d="M185.304 63.7037C184.671 63.7037 184.16 63.1926 184.16 62.5594V45.1442C184.16 44.5111 184.671 44 185.304 44C185.938 44 186.449 44.5111 186.449 45.1442V62.5594C186.449 63.1926 185.938 63.7037 185.304 63.7037Z" fill="#6A2EA0"/>
<defs>
<linearGradient id="paint0_linear_3928_56" x1="92.502" y1="160.29" x2="250.943" y2="160.29" gradientUnits="userSpaceOnUse">
<stop stop-color="#FF4C84"/>
<stop offset="0.603" stop-color="#9176D0"/>
<stop offset="1" stop-color="#4C90FF"/>
</linearGradient>
</defs>
</svg>
