<svg width="387" height="387" fill="none" xmlns="http://www.w3.org/2000/svg"><path d="M254.697 101.187a2.58 2.58 0 1 0 0-5.16 2.58 2.58 0 0 0 0 5.16ZM192.777 101.187a2.58 2.58 0 1 0 0-5.16 2.58 2.58 0 0 0 0 5.16ZM130.857 101.187a2.58 2.58 0 1 0 0-5.16 2.58 2.58 0 0 0 0 5.16ZM254.697 163.107a2.58 2.58 0 1 0 0-5.16 2.58 2.58 0 0 0 0 5.16ZM254.697 255.986a2.58 2.58 0 1 0 0-5.16 2.58 2.58 0 0 0 0 5.16ZM192.777 163.107a2.58 2.58 0 1 0 0-5.16 2.58 2.58 0 0 0 0 5.16ZM130.857 163.107a2.58 2.58 0 1 0 0-5.16 2.58 2.58 0 0 0 0 5.16ZM192.777 255.986a2.58 2.58 0 1 0 0-5.16 2.58 2.58 0 0 0 0 5.16ZM130.857 255.986a2.58 2.58 0 1 0 0-5.16 2.58 2.58 0 0 0 0 5.16ZM223.737 101.187a2.58 2.58 0 1 0 0-5.16 2.58 2.58 0 0 0 0 5.16ZM161.817 101.187a2.58 2.58 0 1 0 0-5.16 2.58 2.58 0 0 0 0 5.16ZM99.897 101.187a2.58 2.58 0 1 0 0-5.16 2.58 2.58 0 0 0 0 5.16ZM223.737 163.107a2.58 2.58 0 1 0 0-5.16 2.58 2.58 0 0 0 0 5.16ZM223.737 255.986a2.58 2.58 0 1 0 0-5.16 2.58 2.58 0 0 0 0 5.16ZM161.817 163.107a2.58 2.58 0 1 0 0-5.16 2.58 2.58 0 0 0 0 5.16ZM99.897 163.107a2.58 2.58 0 1 0 0-5.16 2.58 2.58 0 0 0 0 5.16ZM161.817 255.986a2.58 2.58 0 1 0 0-5.16 2.58 2.58 0 0 0 0 5.16ZM99.897 255.986a2.58 2.58 0 1 0 0-5.16 2.58 2.58 0 0 0 0 5.16ZM254.697 132.146a2.58 2.58 0 1 0 0-5.16 2.58 2.58 0 0 0 0 5.16ZM254.697 225.025a2.58 2.58 0 1 0 0-5.16 2.58 2.58 0 0 0 0 5.16ZM192.777 132.146a2.58 2.58 0 1 0 0-5.16 2.58 2.58 0 0 0 0 5.16ZM130.857 132.146a2.58 2.58 0 1 0 0-5.16 2.58 2.58 0 0 0 0 5.16ZM192.777 225.025a2.58 2.58 0 1 0 0-5.16 2.58 2.58 0 0 0 0 5.16ZM130.857 225.025a2.58 2.58 0 1 0 0-5.16 2.58 2.58 0 0 0 0 5.16ZM254.697 194.066a2.58 2.58 0 1 0 0-5.16 2.58 2.58 0 0 0 0 5.16ZM254.697 286.947a2.58 2.58 0 1 0 0-5.16 2.58 2.58 0 0 0 0 5.16ZM192.777 194.066a2.58 2.58 0 1 0 0-5.16 2.58 2.58 0 0 0 0 5.16ZM130.857 194.066a2.58 2.58 0 1 0 0-5.16 2.58 2.58 0 0 0 0 5.16ZM192.777 286.947a2.58 2.58 0 1 0 0-5.16 2.58 2.58 0 0 0 0 5.16ZM130.857 286.947a2.58 2.58 0 1 0 0-5.16 2.58 2.58 0 0 0 0 5.16ZM223.737 132.146a2.58 2.58 0 1 0 0-5.16 2.58 2.58 0 0 0 0 5.16ZM223.737 225.025a2.58 2.58 0 1 0 0-5.16 2.58 2.58 0 0 0 0 5.16ZM161.817 132.146a2.58 2.58 0 1 0 0-5.16 2.58 2.58 0 0 0 0 5.16ZM99.897 132.146a2.58 2.58 0 1 0 0-5.16 2.58 2.58 0 0 0 0 5.16ZM161.817 225.025a2.58 2.58 0 1 0 0-5.16 2.58 2.58 0 0 0 0 5.16ZM99.897 225.025a2.58 2.58 0 1 0 0-5.16 2.58 2.58 0 0 0 0 5.16ZM223.737 194.066a2.58 2.58 0 1 0 0-5.16 2.58 2.58 0 0 0 0 5.16ZM223.737 286.947a2.58 2.58 0 1 0 0-5.16 2.58 2.58 0 0 0 0 5.16ZM161.817 194.066a2.58 2.58 0 1 0 0-5.16 2.58 2.58 0 0 0 0 5.16ZM99.897 194.066a2.58 2.58 0 1 0 0-5.16 2.58 2.58 0 0 0 0 5.16ZM161.817 286.947a2.58 2.58 0 1 0 0-5.16 2.58 2.58 0 0 0 0 5.16ZM99.897 286.947a2.58 2.58 0 1 0 0-5.16 2.58 2.58 0 0 0 0 5.16ZM285.657 101.187a2.58 2.58 0 1 0 0-5.16 2.58 2.58 0 0 0 0 5.16ZM285.657 163.107a2.58 2.58 0 1 0 0-5.16 2.58 2.58 0 0 0 0 5.16ZM285.657 255.986a2.58 2.58 0 1 0 0-5.16 2.58 2.58 0 0 0 0 5.16ZM285.657 132.146a2.58 2.58 0 1 0 0-5.16 2.58 2.58 0 0 0 0 5.16ZM285.657 225.025a2.58 2.58 0 1 0 0-5.16 2.58 2.58 0 0 0 0 5.16ZM285.657 194.066a2.58 2.58 0 1 0 0-5.16 2.58 2.58 0 0 0 0 5.16ZM285.657 286.947a2.58 2.58 0 1 0 0-5.16 2.58 2.58 0 0 0 0 5.16ZM254.697 317.906a2.58 2.58 0 1 0 0-5.16 2.58 2.58 0 0 0 0 5.16ZM192.777 317.906a2.58 2.58 0 1 0 0-5.16 2.58 2.58 0 0 0 0 5.16ZM130.857 317.906a2.58 2.58 0 1 0 0-5.16 2.58 2.58 0 0 0 0 5.16ZM223.737 317.906a2.58 2.58 0 1 0 0-5.16 2.58 2.58 0 0 0 0 5.16ZM161.817 317.906a2.58 2.58 0 1 0 0-5.16 2.58 2.58 0 0 0 0 5.16ZM99.897 317.906a2.58 2.58 0 1 0 0-5.16 2.58 2.58 0 0 0 0 5.16ZM285.657 317.906a2.58 2.58 0 1 0 0-5.16 2.58 2.58 0 0 0 0 5.16ZM254.697 39.266a2.58 2.58 0 1 0 0-5.16 2.58 2.58 0 0 0 0 5.16ZM192.777 39.266a2.58 2.58 0 1 0 0-5.16 2.58 2.58 0 0 0 0 5.16ZM130.857 39.266a2.58 2.58 0 1 0 0-5.16 2.58 2.58 0 0 0 0 5.16ZM223.737 39.266a2.58 2.58 0 1 0 0-5.16 2.58 2.58 0 0 0 0 5.16ZM161.817 39.266a2.58 2.58 0 1 0 0-5.16 2.58 2.58 0 0 0 0 5.16ZM99.897 39.266a2.58 2.58 0 1 0 0-5.16 2.58 2.58 0 0 0 0 5.16ZM254.697 8.306a2.58 2.58 0 1 0 0-5.16 2.58 2.58 0 0 0 0 5.16ZM192.777 8.306a2.58 2.58 0 1 0 0-5.16 2.58 2.58 0 0 0 0 5.16ZM130.857 8.306a2.58 2.58 0 1 0 0-5.16 2.58 2.58 0 0 0 0 5.16ZM254.697 70.226a2.58 2.58 0 1 0 0-5.16 2.58 2.58 0 0 0 0 5.16ZM192.777 70.226a2.58 2.58 0 1 0 0-5.16 2.58 2.58 0 0 0 0 5.16ZM130.857 70.226a2.58 2.58 0 1 0 0-5.16 2.58 2.58 0 0 0 0 5.16ZM223.737 8.306a2.58 2.58 0 1 0 0-5.16 2.58 2.58 0 0 0 0 5.16ZM161.817 8.306a2.58 2.58 0 1 0 0-5.16 2.58 2.58 0 0 0 0 5.16ZM99.897 8.306a2.58 2.58 0 1 0 0-5.16 2.58 2.58 0 0 0 0 5.16ZM223.737 70.226a2.58 2.58 0 1 0 0-5.16 2.58 2.58 0 0 0 0 5.16ZM161.817 70.226a2.58 2.58 0 1 0 0-5.16 2.58 2.58 0 0 0 0 5.16ZM99.897 70.226a2.58 2.58 0 1 0 0-5.16 2.58 2.58 0 0 0 0 5.16ZM285.657 39.266a2.58 2.58 0 1 0 0-5.16 2.58 2.58 0 0 0 0 5.16ZM285.657 8.306a2.58 2.58 0 1 0 0-5.16 2.58 2.58 0 0 0 0 5.16ZM285.657 70.226a2.58 2.58 0 1 0 0-5.16 2.58 2.58 0 0 0 0 5.16ZM378.68 101.187a2.58 2.58 0 1 0 0-5.16 2.58 2.58 0 0 0 0 5.16ZM316.76 101.187a2.58 2.58 0 1 0 0-5.16 2.58 2.58 0 0 0 0 5.16ZM378.68 163.107a2.58 2.58 0 1 0-.001-5.161 2.58 2.58 0 0 0 .001 5.161ZM316.76 163.107a2.58 2.58 0 1 0 0-5.16 2.58 2.58 0 0 0 0 5.16ZM378.68 255.986a2.58 2.58 0 1 0-.001-5.161 2.58 2.58 0 0 0 .001 5.161ZM316.76 255.986a2.58 2.58 0 1 0 0-5.16 2.58 2.58 0 0 0 0 5.16ZM347.72 101.187a2.58 2.58 0 1 0 0-5.16 2.58 2.58 0 0 0 0 5.16ZM347.72 163.107a2.58 2.58 0 1 0 0-5.16 2.58 2.58 0 0 0 0 5.16ZM347.72 255.986a2.58 2.58 0 1 0 0-5.16 2.58 2.58 0 0 0 0 5.16ZM378.68 132.146a2.58 2.58 0 1 0-.001-5.161 2.58 2.58 0 0 0 .001 5.161ZM316.76 132.146a2.58 2.58 0 1 0 0-5.16 2.58 2.58 0 0 0 0 5.16ZM378.68 225.025a2.58 2.58 0 1 0-.001-5.161 2.58 2.58 0 0 0 .001 5.161ZM316.76 225.025a2.58 2.58 0 1 0 0-5.16 2.58 2.58 0 0 0 0 5.16ZM378.68 194.066a2.58 2.58 0 1 0-.001-5.161 2.58 2.58 0 0 0 .001 5.161ZM316.76 194.066a2.58 2.58 0 1 0 0-5.16 2.58 2.58 0 0 0 0 5.16ZM378.68 286.947a2.58 2.58 0 1 0-.001-5.161 2.58 2.58 0 0 0 .001 5.161ZM316.76 286.947a2.58 2.58 0 1 0 0-5.16 2.58 2.58 0 0 0 0 5.16ZM347.72 132.146a2.58 2.58 0 1 0 0-5.16 2.58 2.58 0 0 0 0 5.16ZM347.72 225.025a2.58 2.58 0 1 0 0-5.16 2.58 2.58 0 0 0 0 5.16ZM347.72 194.066a2.58 2.58 0 1 0 0-5.16 2.58 2.58 0 0 0 0 5.16ZM347.72 286.947a2.58 2.58 0 1 0 0-5.16 2.58 2.58 0 0 0 0 5.16ZM378.68 317.906a2.58 2.58 0 1 0-.001-5.161 2.58 2.58 0 0 0 .001 5.161ZM316.76 317.906a2.58 2.58 0 1 0 0-5.16 2.58 2.58 0 0 0 0 5.16ZM347.72 317.906a2.58 2.58 0 1 0 0-5.16 2.58 2.58 0 0 0 0 5.16ZM378.68 39.266a2.58 2.58 0 1 0-.001-5.162 2.58 2.58 0 0 0 .001 5.162ZM316.76 39.266a2.58 2.58 0 1 0 0-5.16 2.58 2.58 0 0 0 0 5.16ZM347.72 39.266a2.58 2.58 0 1 0 0-5.16 2.58 2.58 0 0 0 0 5.16ZM378.68 8.306a2.58 2.58 0 1 0-.001-5.16 2.58 2.58 0 0 0 .001 5.16ZM316.76 8.306a2.58 2.58 0 1 0 0-5.16 2.58 2.58 0 0 0 0 5.16ZM378.68 70.226a2.58 2.58 0 1 0-.001-5.16 2.58 2.58 0 0 0 .001 5.16ZM316.76 70.226a2.58 2.58 0 1 0 0-5.16 2.58 2.58 0 0 0 0 5.16ZM347.72 8.306a2.58 2.58 0 1 0 0-5.16 2.58 2.58 0 0 0 0 5.16ZM347.72 70.226a2.58 2.58 0 1 0 0-5.16 2.58 2.58 0 0 0 0 5.16Z" fill="#D7DFFE"/><path d="M350.854 44.762a7.714 7.714 0 1 0 0-15.428 7.714 7.714 0 0 0 0 15.428ZM45.124 252.452a7.714 7.714 0 1 0 0-15.429 7.714 7.714 0 0 0 0 15.429Z" fill="#3761FB"/><path d="M207.264 317.545h-59.843a26.048 26.048 0 0 1-26.058-26.006v.645M121.363 121.002v-20.563a28.471 28.471 0 0 1 28.471-28.47h114.81a28.47 28.47 0 0 1 28.47 28.47v217.107" stroke="#5E329C" stroke-width="3" stroke-linecap="round" stroke-linejoin="round"/><path d="M270.417 326.074a26.82 26.82 0 0 0 4.52-14.901 26.808 26.808 0 0 0-16.544-24.777 26.81 26.81 0 0 0-10.262-2.042 26.817 26.817 0 0 0-24.787 16.547 26.828 26.828 0 0 0 5.806 29.232 26.82 26.82 0 0 0 41.267-4.059Z" fill="url(#a)"/><path d="M87.32 135.076h94.17a15.894 15.894 0 0 1 15.88 15.854v45.615h-19.027M160.54 196.582h-39.151M246.816 169.145v27.451h-13.21M246.816 169.145l-23.104-28.006h-18.344v55.457h10.488" stroke="#5E329C" stroke-width="3" stroke-linecap="round" stroke-linejoin="round"/><path d="M224.757 209.236a9.417 9.417 0 0 0 9.417-9.417 9.417 9.417 0 0 0-9.417-9.417 9.417 9.417 0 0 0-9.417 9.417 9.417 9.417 0 0 0 9.417 9.417ZM169.441 209.236a9.417 9.417 0 0 0 9.417-9.417 9.417 9.417 0 1 0-9.417 9.417Z" stroke="#5E329C" stroke-width="3" stroke-linecap="round" stroke-linejoin="round"/><path d="M155.084 196.583a14.907 14.907 0 0 1 10.805-11.138 14.91 14.91 0 0 1 14.853 4.494M131.645 166.022v-30.547M110.411 160.294v-24.819M99.137 223.635h72.717M70.306 244.57h125.788M99.137 268.074h72.717M246.042 168.99h-8.837a16.86 16.86 0 0 1-16.86-16.861v-10.926M230.304 302.697l17.802 20.163 25.451-40.532" stroke="#5E329C" stroke-width="3" stroke-linecap="round" stroke-linejoin="round"/><defs><linearGradient id="a" x1="164.217" y1="187.54" x2="274.937" y2="187.54" gradientUnits="userSpaceOnUse"><stop stop-color="#E64C84"/><stop offset=".63" stop-color="#9B78D2"/><stop offset="1" stop-color="#7390FC"/></linearGradient></defs></svg>