<svg width="55" height="82" fill="none" xmlns="http://www.w3.org/2000/svg"><path d="m54.05 48.899-14.663 4.384-5.024-1.678c-3.445-1.15-4.088-1.273-6.2-.668-2.07.377-5.865 5.645-5.865 5.645 3.154.256 5.535-1.733 5.535-1.733l9.452 4.686h16.768V48.899h-.003ZM13.311 5.955a7.854 7.854 0 0 0-7.854 7.854 7.854 7.854 0 0 0 7.854 7.854 7.854 7.854 0 0 0 7.854-7.854 7.854 7.854 0 0 0-7.854-7.854Z" fill="url(#a)"/><path d="M17.778 3.832a1.463 1.463 0 1 0 0-2.927 1.463 1.463 0 0 0 0 2.927Z" fill="#0061FF"/><path d="M23.105 56.949c-.68 0-1.066-.133-1.11-.147a.36.36 0 0 1-.233-.262.36.36 0 0 1 .093-.338l3.962-4.144c.073-.076.149-.152.225-.226 1.634-1.55 4.027-2.052 6.249-1.311l7.157 2.39c1.495-.063 8.727-2.574 11.424-3.547a.367.367 0 1 1 .25.69c-.407.146-9.964 3.594-11.73 3.594a.395.395 0 0 1-.118-.02l-7.216-2.41c-1.962-.655-4.074-.215-5.51 1.148a3.78 3.78 0 0 0-.198.198l-3.477 3.638c1.006.052 3.164-.215 6.041-2.635a.368.368 0 0 1 .516.044c.13.154.11.387-.044.517-2.835 2.383-5.04 2.82-6.28 2.82Z" fill="#6A2EA0"/><path d="M39.387 60.957a.366.366 0 0 1-.164-.039l-11.556-5.74a.37.37 0 0 1-.167-.492.37.37 0 0 1 .492-.166l11.556 5.74a.37.37 0 0 1 .166.492.366.366 0 0 1-.327.205ZM36.355 63.056a.36.36 0 0 1-.164-.04c-2.176-1.086-7.559-3.584-7.615-3.608a.367.367 0 0 1 .308-.666c.054.025 5.45 2.525 7.634 3.619a.367.367 0 0 1-.163.695ZM32.91 64.847a.358.358 0 0 1-.164-.04l-5.993-2.99a.367.367 0 1 1 .328-.655l5.993 2.99a.367.367 0 0 1-.164.695ZM29.02 65.725a.37.37 0 0 1-.16-.036l-5.023-2.425a.366.366 0 1 1 .318-.66l5.023 2.424a.366.366 0 0 1-.159.697ZM25.321 66.606a.408.408 0 0 1-.056-.005c-.132-.02-3.262-.553-7.79-4.847C13.94 58.404.595 59.738.464 59.753a.368.368 0 0 1-.077-.732c.563-.059 13.815-1.382 17.593 2.2 4.34 4.115 7.37 4.649 7.399 4.654.2.031.335.22.303.42a.365.365 0 0 1-.362.311ZM15.92 53.32a.39.39 0 0 1-.118-.02L.307 48.06a.366.366 0 0 1-.23-.465.364.364 0 0 1 .465-.23l15.353 5.194c5.244-2.464 11.696-1.908 11.97-1.884.2.02.35.198.333.4a.364.364 0 0 1-.4.332c-.065-.005-6.64-.57-11.72 1.879a.404.404 0 0 1-.158.034ZM37.191 35.503h-21.12a3.13 3.13 0 0 1-3.128-3.127V16.572a3.13 3.13 0 0 1 3.127-3.127h29.022a3.13 3.13 0 0 1 3.127 3.127v7.901a.367.367 0 1 1-.734 0v-7.9a2.397 2.397 0 0 0-2.393-2.394H16.07a2.397 2.397 0 0 0-2.393 2.393v15.804a2.397 2.397 0 0 0 2.393 2.393h21.121a.366.366 0 1 1 0 .734Z" fill="#6A2EA0"/><path d="M42.523 24.84H37.19a.367.367 0 0 1-.367-.367v-2.039a.367.367 0 1 1 .734 0v1.671h4.598v-5.04h-3.098a.367.367 0 1 1 0-.734h3.465c.203 0 .367.164.367.367v5.774a.366.366 0 0 1-.367.367Z" fill="#6A2EA0"/><path d="M39.857 23.237a.357.357 0 0 1-.274-.125l-2.665-3.019a.368.368 0 0 1 .55-.487l2.342 2.65 3.55-5.652a.368.368 0 0 1 .622.391l-3.812 6.068a.37.37 0 0 1-.281.172c-.013.002-.022.002-.032.002ZM13.43 28.532c-1.334 0-2.67-.301-3.842-.9-2.535-1.3-5.192-1.31-6.936-.033a.367.367 0 1 1-.436-.592c1.97-1.443 4.92-1.456 7.705-.032 2.139 1.097 4.881 1.097 6.983 0 2.418-1.26 5.361-1.252 7.683.015a.37.37 0 0 1 .147.5.367.367 0 0 1-.5.146c-2.077-1.135-4.822-1.138-6.992-.007-1.15.602-2.479.903-3.812.903Z" fill="#6A2EA0"/><defs><linearGradient id="a" x1="5.456" y1="32.745" x2="54.051" y2="32.745" gradientUnits="userSpaceOnUse"><stop stop-color="#4C90FF"/><stop offset=".126" stop-color="#5B8BF5"/><stop offset=".368" stop-color="#827CDA"/><stop offset=".699" stop-color="#C064AF"/><stop offset="1" stop-color="#FF4C84"/></linearGradient></defs></svg>