<svg width="52" height="67" fill="none" xmlns="http://www.w3.org/2000/svg"><path d="M33.5 5.333H7.24a2.699 2.699 0 1 0 0 5.4h26.264a2.699 2.699 0 1 0-.002-5.4Zm17.593 41.578a2.85 2.85 0 0 1-2.85 2.85v8.846H27.435V46.91l10.335 7.577 10.482-7.577c-.021-.143-2.86.148-2.86 0a2.85 2.85 0 0 1 5.7 0Z" fill="url(#a)"/><path d="M5.274 66.249a1.546 1.546 0 1 0 0-3.092 1.546 1.546 0 0 0 0 3.092ZM41.499 20.744a1.546 1.546 0 1 0 0-3.092 1.546 1.546 0 0 0 0 3.092Z" fill="#0061FF"/><path d="M4.805 55.58a.351.351 0 0 1-.352-.353c0-5.622 1.717-9.903 5.102-12.725 3.246-2.704 8.048-4.076 14.27-4.076h.284c3.913 0 7.957.002 11.072-1.377 3.49-1.546 5.188-4.67 5.188-9.552a.351.351 0 1 1 .704 0c0 5.189-1.834 8.524-5.606 10.194-3.251 1.44-7.37 1.438-11.355 1.438h-.284c-12.387 0-18.669 5.416-18.669 16.098a.356.356 0 0 1-.354.352ZM16.181 30.73H5.028a4.898 4.898 0 0 1-4.893-4.894V5.83A4.9 4.9 0 0 1 5.028.937h31.12A4.9 4.9 0 0 1 41.04 5.83v2.578a.351.351 0 1 1-.704 0V5.83c0-2.31-1.878-4.189-4.189-4.189H5.027a4.193 4.193 0 0 0-4.189 4.19v20.005c0 2.31 1.88 4.19 4.19 4.19H16.18a.351.351 0 1 1 0 .703Z" fill="#6A2EA0"/><path d="M8.913 23.21a3.743 3.743 0 0 1-3.74-3.74 3.743 3.743 0 0 1 3.74-3.739 3.743 3.743 0 0 1 3.739 3.74 3.743 3.743 0 0 1-3.74 3.738Zm0-6.777a3.039 3.039 0 0 0-3.035 3.035 3.039 3.039 0 0 0 3.035 3.035 3.039 3.039 0 0 0 3.035-3.035 3.039 3.039 0 0 0-3.035-3.035ZM20.184 23.21a3.743 3.743 0 0 1-3.739-3.74 3.743 3.743 0 0 1 3.74-3.739 3.743 3.743 0 0 1 3.738 3.74 3.743 3.743 0 0 1-3.739 3.738Zm0-6.777a3.039 3.039 0 0 0-3.035 3.035 3.039 3.039 0 0 0 3.035 3.035 3.04 3.04 0 0 0 3.035-3.035 3.04 3.04 0 0 0-3.035-3.035Z" fill="#6A2EA0"/><path d="M5.889 23.026a.354.354 0 0 1-.253-.598l6.225-6.37a.352.352 0 0 1 .504.492L6.14 22.92a.348.348 0 0 1-.251.106ZM17.192 23.026a.354.354 0 0 1-.253-.598l6.225-6.37a.352.352 0 0 1 .504.492l-6.225 6.37a.348.348 0 0 1-.251.106ZM28.496 23.026a.354.354 0 0 1-.253-.598l6.225-6.37a.352.352 0 0 1 .505.492l-6.226 6.37a.348.348 0 0 1-.25.106Z" fill="#6A2EA0"/><path d="M34.721 23.026a.348.348 0 0 1-.25-.105l-6.226-6.371a.35.35 0 0 1 .007-.497.352.352 0 0 1 .497.004l6.225 6.371a.35.35 0 0 1-.007.497.35.35 0 0 1-.246.101ZM48.255 59.233H27.287a.351.351 0 0 1-.351-.352v-11.97c0-.194.157-.351.351-.351h20.968c.195 0 .352.157.352.351v11.97c0 .195-.16.352-.352.352Zm-20.616-.704h20.264V47.263H27.64V58.53Z" fill="#6A2EA0"/><path d="M37.77 54.84a.348.348 0 0 1-.206-.065L27.08 47.198a.352.352 0 0 1-.08-.49.352.352 0 0 1 .49-.08l10.277 7.429 10.276-7.429a.352.352 0 0 1 .41.57l-10.482 7.577a.34.34 0 0 1-.202.065Z" fill="#6A2EA0"/><path d="M27.288 59.233a.352.352 0 0 1-.249-.6l6.988-6.92a.352.352 0 0 1 .495.5l-6.987 6.92a.346.346 0 0 1-.247.1ZM48.255 59.233a.355.355 0 0 1-.249-.1l-6.99-6.92a.352.352 0 0 1 .495-.5l6.99 6.92a.352.352 0 0 1-.246.6Z" fill="#6A2EA0"/><defs><linearGradient id="a" x1="5.255" y1="6.197" x2="52.953" y2="53.895" gradientUnits="userSpaceOnUse"><stop stop-color="#FF4C84"/><stop offset=".217" stop-color="#D35DA3"/><stop offset=".593" stop-color="#8B79D4"/><stop offset=".864" stop-color="#5E8AF3"/><stop offset="1" stop-color="#4C90FF"/></linearGradient></defs></svg>