<svg id="Layer_1" data-name="Layer 1" xmlns="http://www.w3.org/2000/svg" viewBox="0 0 502.89 706.29">
  <defs>
    <style>
      .cls-1 {
        fill: #4e7236;
      }
    </style>
  </defs>
  <path class="cls-1" d="M109.56,646.83c7.41,7.87,9.62,8.49,10.84,7.61,1.3-.89,1.03-3.62-2.11-9.93-8.59-17.08-23.44-47.55-31.07-64.81C11.67,412.25,50.45,229.4,183.7,102.96c1.03-.98,2.57-.89,3.65,0,50.91,41.08,114.37,141.77,128.87,277.98.41,3.93.86,5.28,1.34,6.17.36.72,1.49.77,1.94.22,1.39-1.66,3.14-6.84,4.01-10.46,11.37-46.88,18.83-106.55-14.8-202.16C279.79,95.31,228.88,35.2,188.98,1.28c-2.02-1.7-4.94-1.7-6.93,0C112.06,60.54,69.33,117.26,44.95,169.71-28.49,311.99-15.32,513.94,109.54,646.81l.02.02Z"/>
  <path class="cls-1" d="M393.33,59.36c-7.41-7.87-9.62-8.49-10.84-7.61-1.3.89-1.03,3.62,2.11,9.93,8.59,17.08,23.44,47.55,31.07,64.81,75.51,167.52,36.78,350.3-96.48,476.74-1.03.98-2.57.89-3.65,0-50.91-41.08-114.37-141.77-128.87-277.98-.41-3.93-.86-5.28-1.34-6.17-.36-.72-1.49-.77-1.94-.22-1.39,1.66-3.14,6.84-4.01,10.46-11.37,46.88-18.81,106.55,14.8,202.16,28.91,79.51,79.75,139.54,119.72,173.52,2.02,1.7,4.94,1.7,6.93,0,69.99-59.31,112.72-116.03,137.1-168.43,73.44-142.33,60.27-344.3-64.59-477.15v-.05l-.02-.02Z"/>
</svg>
