<svg width="183" height="229" fill="none" xmlns="http://www.w3.org/2000/svg"><path d="M83.068 1.386a7.055 7.055 0 0 0-2.698 9.6l7.114 12.667 12.299-6.902-7.114-12.667c-1.914-3.401-6.207-4.612-9.6-2.698Z" fill="#6A2EA0"/><path d="m127.284 36.917-15.194 8.382-3.336 1.84-.54.302-2.24 1.235-16.29 8.995-3.254-26.765-.025.017c-3.042-5.52-1.038-12.454 4.473-15.496 5.512-3.043 12.454-1.039 15.496 4.473h.017l20.893 17.017Zm-20.91 190.427h47.519v-96.387h-47.519v96.387ZM1.761 152.406H86.34l20.042-21.441H20.716L1.761 152.406Z" fill="url(#a)"/><path d="M19.195 194.855a1.225 1.225 0 0 1-1.227-1.227v-41.23c0-.679.548-1.227 1.227-1.227s1.227.548 1.227 1.227v41.23a1.23 1.23 0 0 1-1.227 1.227Z" fill="#6A2EA0"/><path d="M106.374 228.57h-87.18a1.224 1.224 0 0 1-1.226-1.226v-33.716c0-.678.548-1.226 1.227-1.226s1.227.548 1.227 1.226v32.489h84.734V131.3c0-.678.548-1.226 1.226-1.226.679 0 1.227.548 1.227 1.226v96.044a1.236 1.236 0 0 1-1.235 1.226Z" fill="#6A2EA0"/><path d="M86.332 153.633H1.76a1.225 1.225 0 0 1-1.227-1.227c0-.679.548-1.226 1.227-1.226h84.03l44.903-49.874c.237-.262.564-.409.916-.409h50.037c.491 0 .941.294 1.129.752.188.458.09.981-.254 1.333l-28.302 28.833a1.215 1.215 0 0 1-.875.368h-35.972a1.224 1.224 0 0 1-1.227-1.226c0-.679.548-1.227 1.227-1.227h35.457l25.89-26.38h-46.571l-44.902 49.874a1.227 1.227 0 0 1-.915.409Z" fill="#6A2EA0"/><path d="M117.372 132.183H20.715a1.224 1.224 0 0 1-1.226-1.226c0-.679.548-1.227 1.226-1.227h96.657c.679 0 1.227.548 1.227 1.227s-.548 1.226-1.227 1.226Z" fill="#6A2EA0"/><path d="M51.56 131.66c-.482 0-.948-.294-1.136-.769l-34.82-86.418c-.253-.63.05-1.341.68-1.595s1.34.05 1.594.679l34.82 86.419a1.222 1.222 0 0 1-.68 1.594c-.147.066-.302.09-.457.09Z" fill="#6A2EA0"/><path d="M51.56 131.66c-.122 0-.245-.016-.367-.057-.532-.172-13.158-4.26-18.22-15.692-3.189-7.205-2.608-15.636 1.734-25.056 5.103-11.072 12.896-19.168 20.427-27.002 11.58-12.029 23.551-24.483 26.323-48.296a1.23 1.23 0 0 1 1.358-1.079c.67.082 1.153.687 1.079 1.357-2.87 24.639-15.136 37.388-26.994 49.72-7.735 8.037-15.038 15.626-19.969 26.322-4.031 8.742-4.612 16.494-1.725 23.02 4.595 10.409 16.6 14.326 16.723 14.359.646.204 1.005.891.8 1.537a1.22 1.22 0 0 1-1.168.867Z" fill="#6A2EA0"/><path d="M16.741 45.241c-.474 0-.924-.27-1.12-.736a1.232 1.232 0 0 1 .63-1.619l65.934-29.03a1.232 1.232 0 0 1 1.62.63 1.232 1.232 0 0 1-.63 1.62L17.24 45.134a1.218 1.218 0 0 1-.499.106Z" fill="#6A2EA0"/><path d="M16.741 49.37a5.356 5.356 0 1 0 0-10.711 5.356 5.356 0 0 0 0 10.712ZM89.676 58.906c-.434 0-.85-.23-1.072-.638a1.225 1.225 0 0 1 .483-1.668l37.608-20.755a1.226 1.226 0 0 1 1.668.483 1.225 1.225 0 0 1-.482 1.668L90.273 58.75a1.204 1.204 0 0 1-.597.156ZM86.405 32.15c-.434 0-.859-.221-1.088-.622-3.369-6.1-1.145-13.804 4.956-17.165 6.067-3.344 13.713-1.169 17.115 4.858a1.22 1.22 0 0 1-.949 1.913h-.016c-.45.025-.908-.22-1.128-.63-2.715-4.914-8.922-6.697-13.829-3.99-4.857 2.682-6.664 8.783-4.08 13.673.04.049.074.106.106.163a1.208 1.208 0 0 1-.474 1.652 1.407 1.407 0 0 1-.613.147Z" fill="#6A2EA0"/><path d="M96.283 26.793a1.24 1.24 0 0 1-1.072-.63 1.221 1.221 0 0 1 .466-1.668l10.083-5.659a1.228 1.228 0 0 1 1.668.467 1.22 1.22 0 0 1-.466 1.668L96.88 26.63a1.134 1.134 0 0 1-.597.163ZM1.409 153.633c-.295 0-.589-.107-.818-.319a1.22 1.22 0 0 1-.09-1.734l19.307-21.441a1.228 1.228 0 0 1 1.734-.09 1.22 1.22 0 0 1 .09 1.734L2.317 153.224c-.238.27-.573.409-.908.409ZM63.729 132.183a1.23 1.23 0 0 1-1.194-.948 43.461 43.461 0 0 1-1.088-9.666c0-23.747 19.315-43.062 43.062-43.062 16.045 0 30.658 8.832 38.132 23.044a1.232 1.232 0 0 1-.515 1.66 1.231 1.231 0 0 1-1.66-.515c-7.049-13.403-20.828-21.736-35.965-21.736-22.39 0-40.609 18.22-40.609 40.609 0 3.075.344 6.141 1.03 9.118a1.227 1.227 0 0 1-.923 1.472c-.09.016-.18.024-.27.024Z" fill="#6A2EA0"/><path d="M90.02 116.246a5.39 5.39 0 1 0-.001-10.778 5.39 5.39 0 0 0 0 10.778Z" fill="#0061FF"/><defs><linearGradient id="a" x1="37.761" y1="67.901" x2="175.549" y2="205.69" gradientUnits="userSpaceOnUse"><stop stop-color="#FF4C84"/><stop offset=".168" stop-color="#DF599A"/><stop offset=".743" stop-color="#7680E2"/><stop offset="1" stop-color="#4C90FF"/></linearGradient></defs></svg>
