<svg width="205" height="289" fill="none" xmlns="http://www.w3.org/2000/svg"><path d="M97.896 125.036v25.076c0 7.761 6.292 14.062 14.062 14.062h77.18c7.761 0 14.062-6.292 14.062-14.062v-25.076H97.896Zm33.571 27.985H111.27v-5.465h20.197v5.465Zm20.196-12.826h-40.384v-5.465h40.384v5.465Zm31.768 12.826c-5.047 0-9.145-4.099-9.145-9.146 0-5.046 4.098-9.145 9.145-9.145s9.146 4.099 9.146 9.145a9.146 9.146 0 0 1-9.146 9.146Zm-85.535-42.856v-.344c0-7.761 6.292-14.062 14.062-14.062h77.18c7.761 0 14.062 6.292 14.062 14.062v.344H97.896ZM38.7 93.983s16.284 3.133 20.373-22.473c0 0 12.325 30.476-1.97 65.515 0 0 20.187 40.282 0 71.883h43.246S81.956 240.852 79.79 253.52H6.653l16.48-36.452s-8.329-46.62.566-76.892C32.594 109.905 38.7 93.983 38.7 93.983Z" fill="url(#a)"/><path d="M31.747 11.311a5.558 5.558 0 1 0 0-11.116 5.558 5.558 0 0 0 0 11.116Z" fill="#0061FF"/><path d="M1.96 261.961c-.205 0-.41-.047-.614-.14a1.379 1.379 0 0 1-.641-1.859l20.986-43.116c-.353-2.863-2.398-20.15-3.42-40.486-2.268-45.226 33.134-114.683 33.487-115.38a1.393 1.393 0 0 1 1.878-.604 1.39 1.39 0 0 1 .604 1.877c-.353.688-35.42 69.494-33.19 113.967 1.106 22.065 3.43 40.505 3.457 40.682.038.269-.009.539-.13.79L3.214 261.18a1.394 1.394 0 0 1-1.255.781ZM68.144 211.938c-.185 0-.371-.038-.557-.121a1.397 1.397 0 0 1-.716-1.84c13.114-29.984-10.735-71.827-10.976-72.245a1.399 1.399 0 0 1 .51-1.906 1.39 1.39 0 0 1 1.906.512c.065.111 6.283 10.93 10.735 25.42 4.136 13.458 7.556 32.939.381 49.343a1.408 1.408 0 0 1-1.283.837Z" fill="#6A2EA0"/><path d="M57.102 138.429c-.148 0-.306-.028-.464-.075a1.396 1.396 0 0 1-.855-1.775C73.6 85.786 52.212 62.81 52 62.587a1.394 1.394 0 0 1 .037-1.97 1.394 1.394 0 0 1 1.97.028c.939.966 22.846 24.313 4.415 76.854-.204.577-.743.93-1.32.93ZM95.22 247.211c-.159 0-.308-.028-.466-.084a1.4 1.4 0 0 1-.855-1.775c5.056-14.323 11.135-26.814 18.069-37.131a1.391 1.391 0 0 1 1.933-.381c.641.427.808 1.292.381 1.933-6.804 10.122-12.78 22.399-17.762 36.499a1.353 1.353 0 0 1-1.3.939Z" fill="#6A2EA0"/><path d="M137.48 210.396H79.79a1.392 1.392 0 0 1-1.394-1.394c0-.772.623-1.394 1.395-1.394h57.68c8.114 0 14.704-6.599 14.704-14.704v-27c0-.772.623-1.394 1.394-1.394.771 0 1.394.622 1.394 1.394v27c.009 9.647-7.835 17.492-17.483 17.492ZM153.577 97.153a1.392 1.392 0 0 1-1.394-1.394V32.306c0-8.114-6.599-14.703-14.703-14.703H79.79c-8.114 0-14.704 6.599-14.704 14.703V87.86c0 .77-.623 1.394-1.394 1.394a1.392 1.392 0 0 1-1.394-1.394V32.306c0-9.647 7.844-17.491 17.492-17.491h57.68c9.648 0 17.492 7.844 17.492 17.491v63.462a1.376 1.376 0 0 1-1.385 1.385Z" fill="#6A2EA0"/><path d="M131.931 31.462h-32.26a1.392 1.392 0 0 1-1.395-1.394c0-.771.623-1.394 1.395-1.394h32.26c.772 0 1.394.623 1.394 1.394 0 .771-.622 1.394-1.394 1.394ZM89.122 31.462h-5.056a1.392 1.392 0 0 1-1.394-1.394c0-.771.623-1.394 1.394-1.394h5.056c.772 0 1.394.623 1.394 1.394 0 .771-.632 1.394-1.394 1.394ZM203.182 126.431a1.393 1.393 0 0 1-1.394-1.394v-15.215c0-6.98-5.679-12.669-12.668-12.669a1.392 1.392 0 0 1-1.394-1.394c0-.771.622-1.394 1.394-1.394 8.523 0 15.456 6.934 15.456 15.457v15.215c0 .771-.623 1.394-1.394 1.394ZM189.129 165.569h-77.18c-8.523 0-15.457-6.934-15.457-15.456v-40.291c0-8.523 6.934-15.457 15.457-15.457h41.452c.772 0 1.394.623 1.394 1.394 0 .772-.622 1.394-1.394 1.394h-41.452c-6.98 0-12.668 5.679-12.668 12.669v40.291c0 6.98 5.678 12.668 12.668 12.668h77.18c6.98 0 12.668-5.679 12.668-12.668v-6.237c0-.771.623-1.394 1.394-1.394.771 0 1.394.623 1.394 1.394v6.237c-.009 8.522-6.933 15.456-15.456 15.456ZM103.156 254.935h-87.31a1.392 1.392 0 0 1-1.395-1.394c0-.772.623-1.395 1.394-1.395h87.311c.772 0 1.394.623 1.394 1.395 0 .771-.632 1.394-1.394 1.394ZM62.42 277.073H15.844a1.392 1.392 0 0 1-1.394-1.394c0-.771.623-1.394 1.394-1.394H62.42c.772 0 1.394.623 1.394 1.394 0 .772-.632 1.394-1.394 1.394Z" fill="#6A2EA0"/><path d="M63.098 288.338c-7.268 0-13.189-5.911-13.189-13.188 0-7.278 5.911-13.189 13.189-13.189 7.277 0 13.189 5.911 13.189 13.189 0 7.277-5.912 13.188-13.19 13.188Zm0-23.589c-5.735 0-10.4 4.666-10.4 10.401 0 5.734 4.665 10.4 10.4 10.4 5.734 0 10.4-4.666 10.4-10.4 0-5.735-4.666-10.401-10.4-10.401ZM164.759 76.483a1.392 1.392 0 0 1-1.394-1.394V27.381c0-11.153-9.081-20.233-20.234-20.233H64.669a1.392 1.392 0 0 1-1.395-1.394c0-.772.623-1.395 1.395-1.395h78.472c12.696 0 23.022 10.326 23.022 23.022V75.08a1.415 1.415 0 0 1-1.404 1.403ZM42.009 95.862c-1.2 0-2.426-.176-3.68-.53a1.394 1.394 0 1 1 .752-2.686c2.872.809 5.437.474 7.844-1.022 7.836-4.88 10.745-20.206 10.773-20.355a1.396 1.396 0 0 1 2.741.512c-.12.678-3.16 16.683-12.045 22.213-1.998 1.246-4.136 1.868-6.385 1.868Z" fill="#6A2EA0"/><defs><linearGradient id="a" x1="6.65" y1="162.527" x2="203.186" y2="162.527" gradientUnits="userSpaceOnUse"><stop stop-color="#FF4C84"/><stop offset="1" stop-color="#4C90FF"/></linearGradient></defs></svg>