<svg width="138" height="194" fill="none" xmlns="http://www.w3.org/2000/svg"><path d="M65.916 83.963v16.797c0 5.198 4.215 9.419 9.42 9.419h51.697c5.199 0 9.42-4.215 9.42-9.419V83.963H65.916Zm22.487 18.745H74.875v-3.66h13.528v3.66Zm13.528-8.591h-27.05v-3.66h27.05v3.66Zm21.28 8.591a6.129 6.129 0 0 1-6.126-6.126 6.13 6.13 0 0 1 6.126-6.126 6.126 6.126 0 1 1 0 12.252ZM65.916 74.002v-.23c0-5.199 4.215-9.42 9.42-9.42h51.697c5.199 0 9.42 4.215 9.42 9.42v.23H65.916ZM26.265 63.163s10.907 2.098 13.646-15.054c0 0 8.256 20.414-1.32 43.885 0 0 13.523 26.982 0 48.149H67.56s-12.321 21.398-13.772 29.883H4.798l11.039-24.417s-5.578-31.228.38-51.505c5.958-20.276 10.048-30.941 10.048-30.941Z" fill="url(#a)"/><path d="M21.608 7.786a3.723 3.723 0 1 0 0-7.446 3.723 3.723 0 0 0 0 7.446Z" fill="#0061FF"/><path d="M1.655 175.679a.99.99 0 0 1-.411-.093.925.925 0 0 1-.43-1.246l14.058-28.88c-.237-1.918-1.607-13.498-2.291-27.119-1.52-30.294 22.194-76.819 22.43-77.285a.933.933 0 1 1 1.663.852c-.237.461-23.726 46.55-22.232 76.339.74 14.78 2.297 27.132 2.316 27.25a.92.92 0 0 1-.087.529l-14.176 29.13a.933.933 0 0 1-.84.523ZM45.987 142.172a.935.935 0 0 1-.853-1.313c8.784-20.084-7.19-48.112-7.352-48.392a.936.936 0 0 1 .342-1.276.93.93 0 0 1 1.276.342c.044.075 4.209 7.321 7.19 17.027 2.771 9.015 5.062 22.064.256 33.052a.942.942 0 0 1-.86.56Z" fill="#6A2EA0"/><path d="M38.592 92.934c-.1 0-.206-.019-.311-.05a.935.935 0 0 1-.573-1.189c11.934-34.023-2.39-49.413-2.534-49.562a.934.934 0 0 1 .025-1.32.934.934 0 0 1 1.32.018c.628.648 15.302 16.287 2.957 51.48a.935.935 0 0 1-.884.623ZM64.123 165.799a.938.938 0 0 1-.884-1.245c3.387-9.594 7.459-17.961 12.103-24.872a.933.933 0 1 1 1.55 1.04c-4.557 6.78-8.56 15.004-11.897 24.448a.906.906 0 0 1-.872.629Z" fill="#6A2EA0"/><path d="M92.431 141.139H53.788a.932.932 0 1 1 0-1.867h38.637c5.435 0 9.849-4.421 9.849-9.849v-18.086a.933.933 0 1 1 1.867 0v18.086c.007 6.462-5.248 11.716-11.71 11.716ZM103.213 65.286a.932.932 0 0 1-.933-.934V21.849c0-5.434-4.42-9.848-9.85-9.848H53.789c-5.435 0-9.849 4.42-9.849 9.848V59.06a.933.933 0 0 1-.934.934.933.933 0 0 1-.934-.934V21.85c0-6.463 5.255-11.717 11.717-11.717h38.636c6.463 0 11.717 5.254 11.717 11.716v42.51a.922.922 0 0 1-.928.927Z" fill="#6A2EA0"/><path d="M88.714 21.283h-21.61a.933.933 0 1 1 0-1.868h21.61a.933.933 0 1 1 0 1.868ZM60.038 21.283h-3.386a.933.933 0 1 1 0-1.868h3.386a.933.933 0 1 1 0 1.868ZM136.44 84.897a.933.933 0 0 1-.934-.934V73.77c0-4.675-3.804-8.485-8.485-8.485a.933.933 0 1 1 0-1.868c5.709 0 10.353 4.644 10.353 10.353v10.192a.933.933 0 0 1-.934.934ZM127.027 111.113H75.329c-5.71 0-10.353-4.645-10.353-10.354V73.771c0-5.709 4.644-10.353 10.353-10.353h27.766c.517 0 .934.417.934.934a.933.933 0 0 1-.934.934H75.329c-4.676 0-8.486 3.803-8.486 8.485v26.988c0 4.676 3.804 8.486 8.486 8.486h51.698c4.675 0 8.485-3.804 8.485-8.486v-4.177c0-.517.417-.934.934-.934.517 0 .934.417.934.934v4.177c-.006 5.709-4.644 10.354-10.353 10.354ZM69.44 170.972H10.954a.933.933 0 1 1 0-1.868H69.44a.933.933 0 1 1 0 1.868ZM42.152 185.802H10.955a.933.933 0 1 1 0-1.867h31.197a.932.932 0 1 1 0 1.867Z" fill="#6A2EA0"/><path d="M42.607 193.347c-4.869 0-8.834-3.959-8.834-8.834s3.959-8.834 8.834-8.834c4.874 0 8.834 3.959 8.834 8.834s-3.96 8.834-8.834 8.834Zm0-15.801c-3.842 0-6.967 3.126-6.967 6.967a6.974 6.974 0 0 0 6.967 6.966 6.974 6.974 0 0 0 6.966-6.966c0-3.841-3.125-6.967-6.966-6.967ZM110.703 51.44a.932.932 0 0 1-.933-.934V18.55c0-7.47-6.083-13.553-13.554-13.553H43.66a.933.933 0 0 1-.933-.934c0-.517.417-.934.933-.934h52.564c8.504 0 15.421 6.917 15.421 15.42V50.5a.948.948 0 0 1-.941.94ZM28.481 64.42a9.075 9.075 0 0 1-2.465-.355.933.933 0 1 1 .504-1.799c1.924.542 3.642.318 5.254-.685 5.249-3.268 7.197-13.534 7.216-13.634a.935.935 0 0 1 1.837.343c-.081.454-2.117 11.175-8.069 14.879-1.339.834-2.77 1.251-4.277 1.251Z" fill="#6A2EA0"/><defs><linearGradient id="a" x1="4.796" y1="109.076" x2="136.443" y2="109.076" gradientUnits="userSpaceOnUse"><stop stop-color="#FF4C84"/><stop offset="1" stop-color="#4C90FF"/></linearGradient></defs></svg>