<svg width="47" height="67" fill="none" xmlns="http://www.w3.org/2000/svg"><path d="M1.869 3.895a1.554 1.554 0 1 0 0-3.109 1.554 1.554 0 0 0 0 3.11ZM33.715 66.283a1.554 1.554 0 1 0 0-3.11 1.554 1.554 0 0 0 0 3.11Z" fill="#0061FF"/><path d="M34.923 13.006c-3.442 1.373-4.13 4.16-4.328 7.242-.198 3.083-.424 5.3-3.64 7.988-4.486 3.752-2.643 11.017 3.983 12.338 0 0 7.572-2.831 9.699-12.337 2.126-9.507-5.714-15.23-5.714-15.23ZM7.733 25.372s4.582 2.776 9.493.613c4.91-2.162 1.913-7.967 3.805-10.624 1.893-2.656 4.744-2.95 5.532-6.296 0 0-7.947-1.341-13.166 3.939-5.22 5.28-5.665 12.368-5.665 12.368Zm7.42 5.04c-1.6.762-1.67 3.023.69 4.659 2.36 1.635 4.871-1.415 5.19-3.086.318-1.672-1.748-3.54-5.88-1.573Z" fill="url(#a)"/><path d="M24.313 42.341c-9.358 0-16.97-7.611-16.97-16.97 0-9.357 7.612-16.969 16.97-16.969 9.358 0 16.97 7.612 16.97 16.97 0 9.358-7.612 16.97-16.97 16.97Zm0-33.159c-8.926 0-16.19 7.263-16.19 16.19 0 8.926 7.264 16.19 16.19 16.19 8.927 0 16.19-7.264 16.19-16.19 0-8.927-7.263-16.19-16.19-16.19ZM29.527 49.378H19.043c-1 0-1.814.811-1.814 1.814v.934H31.34v-.934a1.815 1.815 0 0 0-1.814-1.814Z" fill="#6A2EA0"/><path d="M24.285 50.48a.39.39 0 0 1-.39-.39v-8.139a.39.39 0 1 1 .78 0v8.14a.39.39 0 0 1-.39.39Z" fill="#6A2EA0"/><path d="M24.142 46.475C12.482 46.475 3 36.989 3 25.333c0-5.797 2.298-11.204 6.475-15.225a.39.39 0 0 1 .541.561C5.995 14.543 3.78 19.75 3.78 25.333c0 11.227 9.134 20.362 20.361 20.362a20.25 20.25 0 0 0 14.264-5.828.39.39 0 0 1 .546.556 21.027 21.027 0 0 1-14.81 6.052Z" fill="#6A2EA0"/><path d="M40.466 42.341a.396.396 0 0 1-.28-.117l-4.584-4.707a.39.39 0 0 1 .56-.544l4.582 4.708a.39.39 0 0 1-.278.66ZM12.758 13.874a.396.396 0 0 1-.281-.117L7.452 8.592a.39.39 0 0 1 .559-.543l5.027 5.162a.39.39 0 0 1-.28.663ZM46.193 52.515H8.73a.39.39 0 1 1 0-.78h37.463a.39.39 0 1 1 0 .78Z" fill="#6A2EA0"/><defs><linearGradient id="a" x1="24.369" y1="8.915" x2="24.369" y2="40.573" gradientUnits="userSpaceOnUse"><stop stop-color="#FF4C84"/><stop offset=".608" stop-color="#9077D1"/><stop offset="1" stop-color="#4C90FF"/></linearGradient></defs></svg>