<?xml version="1.0" encoding="UTF-8"?><svg id="Layer_1" xmlns="http://www.w3.org/2000/svg" viewBox="0 0 183.32 231.94"><path d="m131.02,15.04c0,18.46-13.24,33.83-30.76,37.12.52-18.18,13.75-33.67,30.76-37.12m-44.85,37.12c-17.52-3.29-30.76-18.66-30.76-37.12,17,3.45,30.23,18.94,30.76,37.12m58.92-37.12c0-5.12-.95-10.01-1.83-15.04-16.86.26-29.47,3.83-42.99,17.06-2.94,2.88-5.24,6.12-7.02,9.55-1.79-3.44-4.11-6.68-7.08-9.55C72.94,4.25,60.05.26,43.18,0c-.88,5.03-1.83,9.92-1.83,15.04,0,26.25,19.51,47.93,44.82,51.36v5.43l7.05,4.75h0s0,0,0,0l7.05-4.75v-5.43c25.31-3.43,44.82-25.11,44.82-51.36" style="fill:#35723f;"/><path d="m81.78,92.67c-11.99-8.95-23.79-13.51-33.74-12.29-22.43,2.78-33.97,23.42-33.97,47.99,0,15.62,3.31,31.86,16.38,52.46,12.21,19.17,32.03,37.07,39.96,37.07,2.02,0,5.57-1.38,10.26-4.6-5.08-4.89-9.9-10.26-14.11-15.57l9.67-10.39c12.4,15.86,29.13,30.56,36.7,30.56,3.07,0,7.92-2.7,13.42-7.12-13.22-4.9-28.82-20.28-39.82-34.46l9.67-10.37c12.51,16.54,29.75,31.33,38.19,32.4,2.72.34,4.99,0,7.52-2.86.21-.22.39-.44.59-.69.27-.33.57-.67.88-1.01,1.5-1.86,2.97-3.71,4.4-5.64-13.15-2.68-29.62-17.96-41.68-32.82l9.63-10.34c12.31,15.49,28.52,30.1,35.92,29.52,4.11-.33,7.1-3.94,9.39-8.61.49-1.05.93-2.08,1.36-3.12.26-.61.48-1.25.7-1.85-7.06.22-16.62-4.55-23.44-10.94-8.19-7.76-15.31-16.22-22.75-24.58-12.45,10.14-28.81,15.75-42.97,7.14-5.47-3.88-11.03-7.83-17.78-16.93,6.25-5.45,15.22-14.28,25.61-22.94m9.91,130.05c-6.78,5.08-14.33,9.22-21.27,9.22-16.7,0-40.37-25.58-51.78-43.58C4.04,165.47,0,146.58,0,128.36c0-28.15,13.84-57.9,46.31-61.92,16.31-2.04,33.44,6.6,46.9,17.3,14.28-10.3,30.08-18.26,44.69-16.43,32.63,4.05,45.42,33.11,45.42,61.04,0,18.21-4.04,37.1-18.61,60-11.44,18-35.09,43.58-51.78,43.58-6.35,0-13.79-3.65-21.25-9.22m57.58-82.99c1.43,1.32,5.34,4.9,10.58,6.54,2.61.83,7.05,1.74,8.65-6.23.72-3.64.78-8.09.78-11.68,0-24.81-10.85-44.34-33.12-47.08-18.61-2.32-42.31,19.44-59.43,34.76,13.57,16.32,32.44-.4,41.82-9,0,0,22.82,25.15,30.72,32.68" style="fill:#94c266;"/></svg>