<svg id="Layer_2" xmlns="http://www.w3.org/2000/svg" viewBox="0 0 397.65 283.58">
  <defs>
    <style>
      .cls-1 {
        fill: #0073b4;
      }

      .cls-2 {
        fill: #41a86e;
      }
    </style>
  </defs>
  <g id="Layer_1-2">
    <g>
      <path class="cls-1"
        d="M240.6,0V110.64c0,31.19-1.19,55.74-16.87,68.89,33.71-9.75,52.96-32.79,52.96-103.69V0h-36.09Z" />
      <path class="cls-1"
        d="M300.76,0V90.6c0,52.71-10.73,81.41-37.58,103.39,46.65-16.55,73.67-52.19,73.67-107.8V0h-36.09Z" />
      <path class="cls-1"
        d="M360.93,0l-.13,98.61c0,42.44-20.87,80.53-53.98,101.95,52.42-12.98,90.05-61.14,90.05-117.57V0h-35.95Z" />
      <path class="cls-2"
        d="M0,73.94c0,148,93.94,209.64,209.65,209.64,79.77,.03,152.64-45.22,188-116.73-40.03,60.61-121.61,77.29-182.22,37.27-36.81-24.31-58.98-65.46-59.04-109.58V0H0V73.94Z" />
    </g>
  </g>
</svg>