<svg xmlns="http://www.w3.org/2000/svg" fill="none" viewBox="0 0 431.289 87.935">
  <path d="M1.297 38.802L0 33.522l.25-.251a25.07 25.07 0 005.982 2.891c1.823.599 3.728.91 5.646.922a7.977 7.977 0 004.935-1.299 4.19 4.19 0 001.673-3.31 3.86 3.86 0 00-.585-2.095 5.36 5.36 0 00-1.506-1.593 14.515 14.515 0 00-2.3-1.34l-2.886-1.258-3.764-1.801a16.311 16.311 0 01-3.346-2.305c-.989-.862-1.811-1.9-2.426-3.059a8.855 8.855 0 01-.92-4.19c.011-1.45.34-2.88.962-4.19a9.718 9.718 0 012.844-3.437 13.163 13.163 0 014.684-2.22A22.546 22.546 0 0115.6 4.19a26.76 26.76 0 013.305 0 29.23 29.23 0 015.102 1.132l1.673.712v5.28a20.882 20.882 0 00-4.183-1.425 19.206 19.206 0 00-4.684-.419 9.771 9.771 0 00-5.228 1.173 3.683 3.683 0 00-1.965 3.269 3.357 3.357 0 00.501 1.802c.37.555.838 1.037 1.38 1.424.67.474 1.385.881 2.134 1.216l2.802 1.257a78.083 78.083 0 014.182 1.927 18.066 18.066 0 013.555 2.347 10.18 10.18 0 012.51 3.142 9.485 9.485 0 01.962 4.233c.039 1.666-.32 3.318-1.046 4.818a9.969 9.969 0 01-2.97 3.52 12.747 12.747 0 01-4.475 2.18c-1.836.519-3.738.773-5.646.753-1.502.004-3-.137-4.475-.419a20.878 20.878 0 01-3.513-1.047 16.214 16.214 0 01-2.552-1.215zM24.885 48.775c.753.251 1.422.419 1.966.545.599.043 1.2.043 1.798 0a7.012 7.012 0 001.673-.21 2.676 2.676 0 001.297-.838 3.73 3.73 0 00.836-1.634c.224-.919.323-1.863.293-2.808V15.001h8.365v29.332c.048 1.42-.15 2.838-.585 4.19a7.378 7.378 0 01-1.757 3.06 8.364 8.364 0 01-3.137 1.927c-1.449.446-2.96.658-4.475.628a14.608 14.608 0 01-3.304-.293l-2.259-.67-1.003-4.19zm12.004-37.42a4.845 4.845 0 01-3.43-1.13 4.191 4.191 0 01-1.255-3.143 3.904 3.904 0 011.38-3.227 6.015 6.015 0 016.902 0 3.812 3.812 0 011.296 3.143 4.197 4.197 0 01-1.338 3.226 5.305 5.305 0 01-3.555 1.132zM48.14 15.001h8.364v17.013a6.8 6.8 0 00.879 3.771 3.306 3.306 0 003.053 1.299 5.22 5.22 0 001.673-.21c.49-.116.967-.285 1.422-.502a5.77 5.77 0 001.213-.713c.336-.23.657-.483.962-.754V15.001h8.364v23.047l.251 1.97c0 .67 0 1.256.293 1.843h-7.821a12.972 12.972 0 01-.586-1.676c-.217-.64-.37-1.3-.46-1.97-.46.461-1.003.922-1.589 1.425-.666.528-1.38.99-2.133 1.383-.836.448-1.72.8-2.635 1.047a11.687 11.687 0 01-3.304.42c-1.09.014-2.177-.141-3.22-.462a7.356 7.356 0 01-2.343-1.257 6.031 6.031 0 01-1.505-1.76 9.4 9.4 0 01-1.38-4.19c-.04-.698-.04-1.397 0-2.095zm12.547-2.179l-3.43-2.053L63.03 0l5.813 3.604zM81.682 41.86V2.389l8.365-1.13v25.56L100.503 15h7.403l-9.996 11.23 11.627 15.546h-9.996l-9.16-13.032v13.116zM113.51 41.861V23.047v-4.065l-.25-2.095c0-.67-.21-1.3-.293-1.886h7.821c.326.713.578 1.457.753 2.221 0 .88.334 1.718.418 2.472.371-.632.79-1.234 1.255-1.801a8.38 8.38 0 011.756-1.677 7.613 7.613 0 012.468-1.257 9.52 9.52 0 013.262-.503h1.338v6.37c-.793-.06-1.59-.06-2.384 0a12.852 12.852 0 00-2.216 0 8.337 8.337 0 00-2.091.503c-.61.242-1.198.536-1.757.88a4.677 4.677 0 00-1.338 1.215v18.353zM151.905 41.86a11.814 11.814 0 01-.586-1.717 15.587 15.587 0 01-.418-2.389 14.244 14.244 0 01-1.673 1.886 10.62 10.62 0 01-2.049 1.467 10.873 10.873 0 01-5.396 1.382 11.94 11.94 0 01-3.22-.419 7.394 7.394 0 01-2.802-1.424 7.248 7.248 0 01-1.966-2.473 8.846 8.846 0 01-.747-3.91 8.84 8.84 0 011.04-3.842 7.95 7.95 0 013.22-2.807 19.844 19.844 0 015.479-1.634 52.562 52.562 0 017.863-.545 12.259 12.259 0 00-.251-2.556 4.441 4.441 0 00-.92-2.011 4.52 4.52 0 00-2.007-1.383 9.732 9.732 0 00-3.43-.503h-2.133l-2.3.293c-.753 0-1.506.294-2.175.503-.654.153-1.296.349-1.924.587l-.251-.252 1.715-4.4a35.71 35.71 0 014.182-.963 29.224 29.224 0 015.354-.461c1.628 0 3.252.154 4.851.46 1.49.232 2.915.774 4.183 1.593a8.376 8.376 0 012.802 3.017 10.449 10.449 0 011.045 4.86V38.384c0 1.425.335 2.472.586 3.604zm-1.255-12.989a16.075 16.075 0 00-6.692 1.131 3.806 3.806 0 00-1.726 1.483 3.822 3.822 0 00-.574 2.205 3.524 3.524 0 001.087 2.765 4.18 4.18 0 002.761.964 5.135 5.135 0 002.927-.838 9.487 9.487 0 002.217-2.095zM166.292 8.087l8.365-1.131v8.38h6.901v4.526h-6.901v14.163a5.877 5.877 0 000 1.844c.14.411.353.794.627 1.131.272.289.62.492 1.004.587.43.067.867.067 1.297 0 .792 0 1.581-.113 2.342-.335a11.137 11.137 0 002.007-.88h.21l-1.088 4.19c-.893.523-1.849.931-2.844 1.215a13.11 13.11 0 01-4.182.545 11.528 11.528 0 01-3.221-.42 6.395 6.395 0 01-2.593-1.34 6.242 6.242 0 01-1.798-2.514 9.88 9.88 0 01-.628-3.772V19.61h-3.68l.627-4.19h3.053zM186.577 41.861V23.047v-4.065c0-.712 0-1.383-.209-2.095-.209-.712-.209-1.299-.335-1.886h7.821c.327.713.579 1.457.753 2.221.19.815.33 1.64.418 2.472.386-.622.805-1.224 1.255-1.801a8.62 8.62 0 011.799-1.676 7.392 7.392 0 012.425-1.258 9.898 9.898 0 013.263-.502h1.338v6.369c-.794-.06-1.59-.06-2.384 0a12.864 12.864 0 00-2.217 0c-.701.08-1.39.25-2.049.503-.627.234-1.229.528-1.798.88a5.35 5.35 0 00-1.339 1.215v18.353zM217.527 41.861l-11.669-26.86h9.201l7.445 18.144h.251l6.357-18.144h6.441l-11.878 30.757a16.098 16.098 0 01-1.715 3.394c-.631.99-1.406 1.88-2.3 2.64a9.997 9.997 0 01-2.886 1.676 9.774 9.774 0 01-3.555.629c-.64.055-1.284.055-1.924 0a8.096 8.096 0 01-2.133-.587l-1.255-4.903h.209c.827.225 1.664.406 2.51.545.766.043 1.534.043 2.3 0 .599.045 1.2.045 1.798 0a4.549 4.549 0 002.928-1.928 8.064 8.064 0 001.129-2.262l.753-2.263a6.385 6.385 0 01-2.007-.838zM237.351 24.094a8.6 8.6 0 011.004-4.19 9.162 9.162 0 012.719-3.101 12.984 12.984 0 014.182-1.928 19.158 19.158 0 015.019-.628c1.078-.005 2.155.08 3.22.251a24.68 24.68 0 012.802.755h10.206l-.544 4.19-4.183.335a8.389 8.389 0 011.13 4.19 8.394 8.394 0 01-.92 3.94 9.06 9.06 0 01-2.635 3.016 13.502 13.502 0 01-4.183 1.928c-1.73.473-3.518.699-5.311.67a19.951 19.951 0 01-5.479-.754 4.848 4.848 0 00-.837 1.006c-.2.373-.301.791-.293 1.215-.043.25-.043.505 0 .754.107.23.282.42.502.545.285.164.597.277.92.335a7.22 7.22 0 001.506 0h8.365c1.304 0 2.605.112 3.889.335a10.6 10.6 0 013.137 1.132 5.903 5.903 0 012.133 2.179c.565 1.039.84 2.211.795 3.394a9.066 9.066 0 01-1.046 4.19 9.537 9.537 0 01-3.053 3.31 15.286 15.286 0 01-4.935 2.18c-2.19.531-4.438.785-6.692.753a23.207 23.207 0 01-5.813-.586 11.319 11.319 0 01-3.848-1.676 5.94 5.94 0 01-2.175-2.305 5.879 5.879 0 01-.711-2.724 6.875 6.875 0 010-1.299c.141-.482.338-.946.585-1.382a7.371 7.371 0 011.046-1.341 11.622 11.622 0 011.673-1.3 4.95 4.95 0 01-1.464-1.969 5.201 5.201 0 01-.46-2.262 5.503 5.503 0 01.293-1.844c.197-.549.464-1.07.795-1.55a7.3 7.3 0 011.171-1.383c.445-.413.92-.791 1.422-1.132a8.997 8.997 0 01-3.012-3.142 8.397 8.397 0 01-.92-4.107zm5.395 19.108a4.745 4.745 0 00-.836 1.466 6.525 6.525 0 000 1.425c-.004.553.125 1.1.376 1.592.323.52.768.951 1.297 1.257.726.373 1.5.641 2.3.797 1.158.22 2.335.317 3.514.293a18.941 18.941 0 003.596-.293 11.904 11.904 0 002.761-.839 4.806 4.806 0 001.756-1.298c.408-.463.631-1.06.628-1.677a1.804 1.804 0 00-1.171-1.801 9.52 9.52 0 00-3.597-.503h-6.734c-.668.044-1.339.044-2.007 0a9.95 9.95 0 01-1.883-.42zm2.635-19.234a6.8 6.8 0 001.213 4.19 4.182 4.182 0 003.514 1.467 4.172 4.172 0 003.555-1.466 6.38 6.38 0 001.296-4.19 6.205 6.205 0 00-1.255-4.19 5.264 5.264 0 00-7.026 0 6.002 6.002 0 00-1.297 4.19zM268.845 24.094a8.6 8.6 0 011.004-4.19 9.17 9.17 0 012.718-3.101 12.999 12.999 0 014.183-1.928 19.15 19.15 0 015.018-.628c1.079-.005 2.156.08 3.221.251.948.197 1.883.448 2.802.755h10.205l-.544 4.19-4.182.335a8.388 8.388 0 011.129 4.19 8.394 8.394 0 01-.92 3.94 9.038 9.038 0 01-2.635 3.016 13.497 13.497 0 01-4.182 1.928 19 19 0 01-5.312.67c-.974.086-1.953.086-2.927 0a16.179 16.179 0 01-2.552-.545 4.841 4.841 0 00-.836 1.006c-.2.373-.301.792-.293 1.215-.044.25-.044.505 0 .755.107.23.282.42.502.544.285.164.596.278.92.336.5.052 1.005.052 1.506 0h8.364c1.304 0 2.605.112 3.89.335a10.61 10.61 0 013.137 1.131 5.903 5.903 0 012.133 2.18 6.592 6.592 0 01.795 3.393 9.066 9.066 0 01-1.046 4.19 9.556 9.556 0 01-3.053 3.31 15.307 15.307 0 01-4.935 2.18 26.768 26.768 0 01-6.692.754 23.465 23.465 0 01-5.814-.587 11.337 11.337 0 01-3.848-1.676 5.946 5.946 0 01-2.174-2.304 5.855 5.855 0 01-.711-2.724 6.875 6.875 0 010-1.3c.141-.481.337-.945.585-1.382a7.284 7.284 0 011.046-1.34 11.615 11.615 0 011.673-1.3 5.39 5.39 0 01-1.464-1.97 5.201 5.201 0 01-.46-2.262 5.503 5.503 0 01.293-1.844c.197-.549.464-1.07.794-1.55a7.337 7.337 0 011.171-1.383c.445-.412.921-.79 1.422-1.131a9.003 9.003 0 01-3.011-3.143 8.392 8.392 0 01-.92-4.316zm5.562 19.108a4.745 4.745 0 00-.836 1.466 6.525 6.525 0 000 1.425c-.004.553.125 1.1.376 1.592.323.52.768.951 1.297 1.257.725.373 1.5.641 2.3.797 1.158.22 2.335.317 3.513.293 1.206.017 2.41-.081 3.597-.293a11.904 11.904 0 002.761-.839 4.806 4.806 0 001.756-1.298c.408-.463.631-1.06.628-1.677a1.804 1.804 0 00-1.171-1.801 9.52 9.52 0 00-3.597-.503h-6.734a15.22 15.22 0 01-2.008 0 9.958 9.958 0 01-1.882-.42zm2.635-19.234a6.8 6.8 0 001.213 4.19 4.182 4.182 0 003.513 1.467 4.176 4.176 0 003.555-1.466 6.376 6.376 0 001.297-4.19 6.205 6.205 0 00-1.255-4.19 5.264 5.264 0 00-7.026 0 5.995 5.995 0 00-1.464 4.19zM305.692 11.356a4.847 4.847 0 01-3.43-1.132 4.571 4.571 0 010-6.369 5.556 5.556 0 013.471-1.09 5.263 5.263 0 013.43 1.09 3.805 3.805 0 011.338 3.143 4.193 4.193 0 01-1.338 3.226 5.388 5.388 0 01-3.471 1.132zm-4.183 30.505v-26.86h8.574v26.86zM317.235 41.86V23.048v-4.065-2.095c0-.713-.209-1.3-.334-1.886h7.779c.234.516.429 1.048.585 1.592 0 .63.293 1.258.419 1.886.505-.53 1.05-1.02 1.631-1.466.665-.528 1.38-.991 2.133-1.383.867-.4 1.761-.736 2.676-1.006a13.406 13.406 0 013.263-.377 10.854 10.854 0 013.304.46 7.394 7.394 0 012.342 1.3 6.488 6.488 0 011.589 1.802c.384.69.693 1.421.92 2.179.218.725.372 1.468.46 2.22.039.67.039 1.342 0 2.012v17.64h-8.573V24.849a9.108 9.108 0 00-.21-2.22 4.757 4.757 0 00-.669-1.635 2.802 2.802 0 00-1.296-1.005 5.095 5.095 0 00-1.924-.336 6.43 6.43 0 00-3.053.67 9.902 9.902 0 00-2.175 1.51V41.86zM349.691 24.094a8.388 8.388 0 01.962-4.19 9.17 9.17 0 012.718-3.101 12.999 12.999 0 014.183-1.928 19.15 19.15 0 015.018-.628c1.079-.005 2.156.08 3.221.251.962.197 1.911.449 2.844.755H378.8l-.544 4.19-4.182.335a8.388 8.388 0 011.129 4.19 8.39 8.39 0 01-.962 3.94 9.038 9.038 0 01-2.635 3.016 13.24 13.24 0 01-4.182 1.928 19.281 19.281 0 01-5.353.67c-.96.088-1.926.088-2.886 0a14.39 14.39 0 01-2.552-.545c-.345.274-.63.616-.836 1.006a2.14 2.14 0 00-.335 1.215c-.043.25-.043.505 0 .755.107.23.282.42.502.544.289.157.599.27.92.336a7.234 7.234 0 001.506 0h8.365c1.304 0 2.605.112 3.889.335 1.11.216 2.182.598 3.179 1.131a6.112 6.112 0 012.091 2.18c.565 1.038.84 2.21.795 3.393a8.392 8.392 0 01-1.046 4.19 9.537 9.537 0 01-3.053 3.31 15.288 15.288 0 01-4.935 2.18c-2.19.532-4.439.785-6.692.754a23.452 23.452 0 01-5.813-.587 12.102 12.102 0 01-3.848-1.676 6.275 6.275 0 01-2.175-2.304 5.832 5.832 0 01-.669-2.724 4.633 4.633 0 010-1.3c.107-.486.291-.953.543-1.382a7.37 7.37 0 011.046-1.34 11.615 11.615 0 011.673-1.3 5.412 5.412 0 01-1.464-1.97 5.92 5.92 0 01-.46-2.262 5.503 5.503 0 01.293-1.844c.197-.549.464-1.07.794-1.55a7.342 7.342 0 011.172-1.383c.445-.412.92-.79 1.422-1.131a8.997 8.997 0 01-3.012-3.143 8.387 8.387 0 01-.794-4.316zm5.353 19.108a4.725 4.725 0 00-.836 1.466 6.472 6.472 0 00-.21 1.425c-.004.553.125 1.1.377 1.592a4.19 4.19 0 001.296 1.257c.737.38 1.527.649 2.343.797 1.143.218 2.307.316 3.471.293 1.206.017 2.41-.081 3.597-.293a10.768 10.768 0 002.76-.839 4.818 4.818 0 001.757-1.298 2.52 2.52 0 00.627-1.677 1.762 1.762 0 00-1.171-1.801 9.354 9.354 0 00-3.597-.503h-6.733c-.655.045-1.312.045-1.966 0a9.721 9.721 0 01-1.924-.42zm2.635-19.234a6.794 6.794 0 001.213 4.19 4.186 4.186 0 003.513 1.467 4.51 4.51 0 003.597-1.466 6.588 6.588 0 001.297-4.19 6.216 6.216 0 00-1.297-4.19 5.264 5.264 0 00-7.026 0 6.168 6.168 0 00-1.506 4.19zM398.625 41.86a11.696 11.696 0 01-.586-1.717 15.588 15.588 0 01-.418-2.389 14.238 14.238 0 01-1.673 1.886 10.66 10.66 0 01-2.049 1.467 10.891 10.891 0 01-5.396 1.382 11.94 11.94 0 01-3.22-.419 7.392 7.392 0 01-2.802-1.424 7.248 7.248 0 01-1.966-2.473 8.861 8.861 0 01.293-7.752 7.944 7.944 0 013.22-2.807 19.837 19.837 0 015.479-1.634 52.549 52.549 0 017.863-.545 12.258 12.258 0 00-.251-2.556 4.453 4.453 0 00-.92-2.011 4.517 4.517 0 00-2.008-1.383 9.724 9.724 0 00-3.429-.503h-2.175l-2.259.293c-.752 0-1.505.294-2.174.503-.654.153-1.297.349-1.924.587l-.251-.252 1.714-4.4a34.82 34.82 0 014.183-.963 29.767 29.767 0 015.395-.461c1.628 0 3.253.154 4.852.46 1.49.232 2.915.774 4.182 1.593a8.376 8.376 0 012.802 3.017 10.45 10.45 0 011.046 4.86V38.384c0 1.425.335 2.472.585 3.604zm-1.255-12.989a16.074 16.074 0 00-6.692 1.131 3.815 3.815 0 00-2.3 3.688 3.524 3.524 0 001.087 2.765 4.18 4.18 0 002.761.964 5.136 5.136 0 002.927-.838 9.509 9.509 0 002.217-2.095zM412.719 41.861V23.047v-1.97a17.86 17.86 0 000-2.095c0-.712 0-1.383-.209-2.095-.209-.713 0-1.3-.293-1.886h7.78c.363.697.617 1.446.752 2.221.21.88.335 1.718.461 2.472a19.45 19.45 0 011.212-1.801 8.645 8.645 0 011.799-1.677 7.606 7.606 0 012.467-1.257 9.439 9.439 0 013.221-.503h1.38v6.37a16.704 16.704 0 00-2.426 0 13.16 13.16 0 00-2.216 0 8.65 8.65 0 00-2.05.503 9.805 9.805 0 00-1.756.88 5.538 5.538 0 00-1.381 1.215v18.353z" fill="#272166"/>
  <path d="M2.276 82.85v-15.4h9.539l-.235 1.665H6.495v5.25h4.3v1.664h-4.3v6.82zm14.215-.282l-4.746-10.852h4.464l3.082 7.477h.07l2.427-7.477h1.84l-4.243 12.54c-.265.789-.558 1.421-.879 1.898-.312.484-.644.86-.996 1.125a2.868 2.868 0 01-1.09.527c-.375.086-.75.13-1.125.13-.218 0-.43-.013-.632-.036a5.496 5.496 0 01-.563-.07 3.689 3.689 0 01-.422-.082 18.232 18.232 0 00-.27-.07l-.68-2.813.083-.07a6.78 6.78 0 001.066.269c.43.078.887.117 1.371.117.446 0 .82-.043 1.125-.129.305-.078.563-.203.774-.375.219-.164.398-.375.539-.632.148-.25.277-.547.387-.891l.058-.188a5.874 5.874 0 01-1.64-.398zm8.355.281v-7.734c0-.586-.023-1.18-.07-1.781a14.116 14.116 0 00-.211-1.618h3.75c.156.344.265.692.328 1.043.07.352.121.727.152 1.125h.07c.118-.297.266-.586.446-.867.187-.281.41-.535.668-.762.258-.226.562-.406.914-.539a3.23 3.23 0 011.207-.21c.086 0 .176.003.27.011.101 0 .207.008.316.024v3.175a3.551 3.551 0 00-.504-.058 5.067 5.067 0 00-.48-.024c-.297 0-.586.02-.868.059a4.662 4.662 0 00-.785.152 3.871 3.871 0 00-.644.223c-.188.078-.34.164-.457.258v7.523zm11.18-12.316c-.688 0-1.223-.176-1.606-.528-.375-.351-.562-.836-.562-1.453 0-.32.055-.601.164-.843.11-.243.262-.446.457-.61.203-.172.441-.3.715-.387.273-.085.574-.128.902-.128.656 0 1.188.168 1.594.503.406.336.61.817.61 1.442 0 .312-.055.594-.165.844-.11.242-.265.449-.469.62a2.046 2.046 0 01-.714.4c-.274.093-.582.14-.926.14zm-1.992 12.316V71.716h4.101V82.85zm6.398 0v-7.734c0-.586-.023-1.18-.07-1.781a14.14 14.14 0 00-.211-1.618h3.75c.156.344.265.692.328 1.043.07.352.121.727.152 1.125h.07c.118-.297.266-.586.446-.867.187-.281.41-.535.668-.762.258-.226.562-.406.914-.539a3.23 3.23 0 011.207-.21c.086 0 .176.003.27.011.101 0 .207.008.316.024v3.175a3.55 3.55 0 00-.504-.058 5.065 5.065 0 00-.48-.024c-.297 0-.586.02-.868.059a4.662 4.662 0 00-.785.152 3.871 3.871 0 00-.644.223c-.188.078-.34.164-.457.258v7.523zm20.625.27c-.937 0-1.762-.13-2.473-.387a4.863 4.863 0 01-1.793-1.137 4.88 4.88 0 01-1.09-1.804c-.242-.711-.363-1.516-.363-2.414 0-.977.14-1.836.422-2.579.281-.75.684-1.375 1.207-1.875a5.138 5.138 0 011.91-1.125c.75-.257 1.59-.386 2.52-.386.922 0 1.742.125 2.46.375.727.25 1.34.617 1.84 1.101.5.485.88 1.078 1.137 1.781.266.704.399 1.508.399 2.415 0 .96-.145 1.816-.434 2.566a5.22 5.22 0 01-1.23 1.898c-.531.508-1.18.899-1.946 1.172-.757.266-1.613.399-2.566.399zm.2-1.512c.296 0 .554-.078.773-.234.218-.164.402-.422.55-.774.157-.351.27-.808.34-1.37a15.12 15.12 0 00.118-2.04c0-.812-.04-1.488-.118-2.027-.078-.547-.191-.985-.34-1.313-.148-.336-.332-.574-.55-.715a1.378 1.378 0 00-.762-.21c-.29 0-.543.07-.762.21-.218.141-.402.375-.55.703-.141.329-.247.766-.317 1.313a16.54 16.54 0 00-.105 2.05c0 .798.035 1.477.105 2.04.07.555.176 1.008.316 1.36.141.35.32.609.54.773.218.156.472.234.761.234zm7.792 1.242V66.56l4.102-.55v10.933l4.957-5.227h2.297l-3.996 4.266 4.687 6.867H76.48l-3.328-5.133v5.133zm13.125 0V66.56l4.102-.55v10.933l4.957-5.227h2.297l-3.996 4.266 4.687 6.867h-4.617l-3.328-5.133v5.133zm20.086 0a3.203 3.203 0 01-.234-.562 10.2 10.2 0 01-.2-.75 4.95 4.95 0 01-.62.562c-.235.188-.504.36-.81.516a5.177 5.177 0 01-2.285.504c-.726 0-1.308-.117-1.745-.352-.438-.242-.778-.543-1.02-.902a3.079 3.079 0 01-.48-1.16 6.468 6.468 0 01-.118-1.172v-7.817h4.09v7.606c0 .539.09.949.27 1.23.18.282.492.422.937.422.352 0 .66-.078.926-.234.274-.164.5-.336.68-.516a2.693 2.693 0 01-.012-.246v-8.262h4.102v7.805c0 .68.023 1.293.07 1.84.055.547.129 1.043.223 1.488zm5.766 0v-7.734c0-.586-.024-1.18-.071-1.781a14.108 14.108 0 00-.21-1.618h3.75c.156.344.265.692.328 1.043.07.352.121.727.152 1.125h.07a5.03 5.03 0 01.446-.867c.187-.281.41-.535.668-.762.257-.226.562-.406.914-.539.351-.14.754-.21 1.207-.21.086 0 .175.003.269.011.102 0 .207.008.317.024v3.175a3.55 3.55 0 00-.504-.058 5.08 5.08 0 00-.481-.024c-.297 0-.586.02-.867.059a4.661 4.661 0 00-.785.152 3.9 3.9 0 00-.645.223 1.93 1.93 0 00-.457.258v7.523zm20.625.27c-.938 0-1.762-.13-2.473-.387a4.86 4.86 0 01-1.793-1.137 4.888 4.888 0 01-1.09-1.804c-.242-.711-.363-1.516-.363-2.414 0-.977.141-1.836.422-2.579.281-.75.683-1.375 1.207-1.875a5.138 5.138 0 011.91-1.125c.75-.257 1.59-.386 2.52-.386.921 0 1.742.125 2.461.375.726.25 1.339.617 1.839 1.101.5.485.879 1.078 1.137 1.781.266.704.399 1.508.399 2.415 0 .96-.145 1.816-.434 2.566a5.21 5.21 0 01-1.231 1.898c-.531.508-1.179.899-1.945 1.172-.758.266-1.613.399-2.566.399zm.199-1.512c.297 0 .555-.078.773-.234.219-.164.403-.422.551-.774.156-.351.27-.808.34-1.37a15.14 15.14 0 00.117-2.04c0-.812-.039-1.488-.117-2.027-.078-.547-.191-.985-.34-1.313-.148-.336-.332-.574-.551-.715a1.374 1.374 0 00-.761-.21c-.289 0-.543.07-.762.21-.219.141-.402.375-.551.703-.14.329-.246.766-.316 1.313-.071.547-.106 1.23-.106 2.05 0 .798.035 1.477.106 2.04.07.555.176 1.008.316 1.36.141.35.32.609.539.773.219.156.473.234.762.234zm-2.438-11.273c-.554 0-.992-.16-1.312-.48-.313-.321-.469-.763-.469-1.325 0-.586.172-1.031.516-1.336.344-.305.789-.457 1.336-.457.539 0 .976.152 1.312.457.336.305.504.742.504 1.312 0 .57-.172 1.02-.515 1.348-.344.32-.801.48-1.372.48zm4.84 0c-.554 0-.992-.16-1.312-.48-.313-.321-.469-.763-.469-1.325 0-.586.172-1.031.516-1.336.343-.305.789-.457 1.336-.457.539 0 .976.152 1.312.457.336.305.504.742.504 1.312 0 .57-.172 1.02-.516 1.348-.343.32-.8.48-1.371.48zm5.367 12.515V66.56l4.102-.55v16.84zm6.399 0V66.56l4.101-.55v16.84z" fill="#444070"/>
</svg>
