<svg width="270" height="270" fill="none" xmlns="http://www.w3.org/2000/svg"><path d="M177.696 70.596a1.8 1.8 0 1 0 0-3.6 1.8 1.8 0 0 0 0 3.6ZM134.496 70.596a1.8 1.8 0 1 0 0-3.6 1.8 1.8 0 0 0 0 3.6ZM91.296 70.596a1.8 1.8 0 1 0 0-3.6 1.8 1.8 0 0 0 0 3.6ZM177.696 113.796a1.8 1.8 0 1 0 0-3.6 1.8 1.8 0 0 0 0 3.6ZM177.696 178.596a1.8 1.8 0 1 0 0-3.6 1.8 1.8 0 0 0 0 3.6ZM134.496 113.796a1.8 1.8 0 1 0 0-3.6 1.8 1.8 0 0 0 0 3.6ZM91.296 113.796a1.8 1.8 0 1 0 0-3.6 1.8 1.8 0 0 0 0 3.6ZM134.496 178.596a1.8 1.8 0 1 0 0-3.6 1.8 1.8 0 0 0 0 3.6ZM91.296 178.596a1.8 1.8 0 1 0 0-3.6 1.8 1.8 0 0 0 0 3.6ZM156.096 70.596a1.8 1.8 0 1 0 0-3.6 1.8 1.8 0 0 0 0 3.6ZM112.896 70.596a1.8 1.8 0 1 0 0-3.6 1.8 1.8 0 0 0 0 3.6ZM69.696 70.596a1.8 1.8 0 1 0 0-3.6 1.8 1.8 0 0 0 0 3.6ZM156.096 113.796a1.8 1.8 0 1 0 0-3.6 1.8 1.8 0 0 0 0 3.6ZM156.096 178.596a1.8 1.8 0 1 0 0-3.6 1.8 1.8 0 0 0 0 3.6ZM112.896 113.796a1.8 1.8 0 1 0 0-3.6 1.8 1.8 0 0 0 0 3.6ZM69.696 113.796a1.8 1.8 0 1 0 0-3.6 1.8 1.8 0 0 0 0 3.6ZM112.896 178.596a1.8 1.8 0 1 0 0-3.6 1.8 1.8 0 0 0 0 3.6ZM69.696 178.596a1.8 1.8 0 1 0 0-3.6 1.8 1.8 0 0 0 0 3.6ZM177.696 92.196a1.8 1.8 0 1 0 0-3.6 1.8 1.8 0 0 0 0 3.6ZM177.696 156.996a1.8 1.8 0 1 0 0-3.6 1.8 1.8 0 0 0 0 3.6ZM134.496 92.196a1.8 1.8 0 1 0 0-3.6 1.8 1.8 0 0 0 0 3.6ZM91.296 92.196a1.8 1.8 0 1 0 0-3.6 1.8 1.8 0 0 0 0 3.6ZM134.496 156.996a1.8 1.8 0 1 0 0-3.6 1.8 1.8 0 0 0 0 3.6ZM91.296 156.996a1.8 1.8 0 1 0 0-3.6 1.8 1.8 0 0 0 0 3.6ZM177.696 135.396a1.8 1.8 0 1 0 0-3.6 1.8 1.8 0 0 0 0 3.6ZM177.696 200.196a1.8 1.8 0 1 0 0-3.6 1.8 1.8 0 0 0 0 3.6ZM134.496 135.396a1.8 1.8 0 1 0 0-3.6 1.8 1.8 0 0 0 0 3.6ZM91.296 135.396a1.8 1.8 0 1 0 0-3.6 1.8 1.8 0 0 0 0 3.6ZM134.496 200.196a1.8 1.8 0 1 0 0-3.6 1.8 1.8 0 0 0 0 3.6ZM91.296 200.196a1.8 1.8 0 1 0 0-3.6 1.8 1.8 0 0 0 0 3.6ZM156.096 92.196a1.8 1.8 0 1 0 0-3.6 1.8 1.8 0 0 0 0 3.6ZM156.096 156.996a1.8 1.8 0 1 0 0-3.6 1.8 1.8 0 0 0 0 3.6ZM112.896 92.196a1.8 1.8 0 1 0 0-3.6 1.8 1.8 0 0 0 0 3.6ZM69.696 92.196a1.8 1.8 0 1 0 0-3.6 1.8 1.8 0 0 0 0 3.6ZM112.896 156.996a1.8 1.8 0 1 0 0-3.6 1.8 1.8 0 0 0 0 3.6ZM69.696 156.996a1.8 1.8 0 1 0 0-3.6 1.8 1.8 0 0 0 0 3.6ZM156.096 135.396a1.8 1.8 0 1 0 0-3.6 1.8 1.8 0 0 0 0 3.6ZM156.096 200.196a1.8 1.8 0 1 0 0-3.6 1.8 1.8 0 0 0 0 3.6ZM112.896 135.396a1.8 1.8 0 1 0 0-3.6 1.8 1.8 0 0 0 0 3.6ZM69.696 135.396a1.8 1.8 0 1 0 0-3.6 1.8 1.8 0 0 0 0 3.6ZM112.896 200.196a1.8 1.8 0 1 0 0-3.6 1.8 1.8 0 0 0 0 3.6ZM69.696 200.196a1.8 1.8 0 1 0 0-3.6 1.8 1.8 0 0 0 0 3.6ZM199.296 70.596a1.8 1.8 0 1 0 0-3.6 1.8 1.8 0 0 0 0 3.6ZM199.296 113.796a1.8 1.8 0 1 0 0-3.6 1.8 1.8 0 0 0 0 3.6ZM199.296 178.596a1.8 1.8 0 1 0 0-3.6 1.8 1.8 0 0 0 0 3.6ZM199.296 92.196a1.8 1.8 0 1 0 0-3.6 1.8 1.8 0 0 0 0 3.6ZM199.296 156.996a1.8 1.8 0 1 0 0-3.6 1.8 1.8 0 0 0 0 3.6ZM199.296 135.396a1.8 1.8 0 1 0 0-3.6 1.8 1.8 0 0 0 0 3.6ZM199.296 200.196a1.8 1.8 0 1 0 0-3.6 1.8 1.8 0 0 0 0 3.6ZM177.696 221.796a1.8 1.8 0 1 0 0-3.6 1.8 1.8 0 0 0 0 3.6ZM134.496 221.796a1.8 1.8 0 1 0 0-3.6 1.8 1.8 0 0 0 0 3.6ZM91.296 221.796a1.8 1.8 0 1 0 0-3.6 1.8 1.8 0 0 0 0 3.6ZM156.096 221.796a1.8 1.8 0 1 0 0-3.6 1.8 1.8 0 0 0 0 3.6ZM112.896 221.796a1.8 1.8 0 1 0 0-3.6 1.8 1.8 0 0 0 0 3.6ZM69.696 221.796a1.8 1.8 0 1 0 0-3.6 1.8 1.8 0 0 0 0 3.6ZM199.296 221.796a1.8 1.8 0 1 0 0-3.6 1.8 1.8 0 0 0 0 3.6ZM177.696 27.396a1.8 1.8 0 1 0 0-3.6 1.8 1.8 0 0 0 0 3.6ZM134.496 27.396a1.8 1.8 0 1 0 0-3.6 1.8 1.8 0 0 0 0 3.6ZM91.296 27.396a1.8 1.8 0 1 0 0-3.6 1.8 1.8 0 0 0 0 3.6ZM156.096 27.396a1.8 1.8 0 1 0 0-3.6 1.8 1.8 0 0 0 0 3.6ZM112.896 27.396a1.8 1.8 0 1 0 0-3.6 1.8 1.8 0 0 0 0 3.6ZM69.696 27.396a1.8 1.8 0 1 0 0-3.6 1.8 1.8 0 0 0 0 3.6ZM177.696 5.796a1.8 1.8 0 1 0 0-3.6 1.8 1.8 0 0 0 0 3.6ZM134.496 5.796a1.8 1.8 0 1 0 0-3.6 1.8 1.8 0 0 0 0 3.6ZM91.296 5.796a1.8 1.8 0 1 0 0-3.6 1.8 1.8 0 0 0 0 3.6ZM177.696 48.996a1.8 1.8 0 1 0 0-3.6 1.8 1.8 0 0 0 0 3.6ZM134.496 48.996a1.8 1.8 0 1 0 0-3.6 1.8 1.8 0 0 0 0 3.6ZM91.296 48.996a1.8 1.8 0 1 0 0-3.6 1.8 1.8 0 0 0 0 3.6ZM156.096 5.796a1.8 1.8 0 1 0 0-3.6 1.8 1.8 0 0 0 0 3.6ZM112.896 5.796a1.8 1.8 0 1 0 0-3.6 1.8 1.8 0 0 0 0 3.6ZM69.696 5.796a1.8 1.8 0 1 0 0-3.6 1.8 1.8 0 0 0 0 3.6ZM156.096 48.996a1.8 1.8 0 1 0 0-3.6 1.8 1.8 0 0 0 0 3.6ZM112.896 48.996a1.8 1.8 0 1 0 0-3.6 1.8 1.8 0 0 0 0 3.6ZM69.696 48.996a1.8 1.8 0 1 0 0-3.6 1.8 1.8 0 0 0 0 3.6ZM199.296 27.396a1.8 1.8 0 1 0 0-3.6 1.8 1.8 0 0 0 0 3.6ZM199.296 5.796a1.8 1.8 0 1 0 0-3.6 1.8 1.8 0 0 0 0 3.6ZM199.296 48.996a1.8 1.8 0 1 0 0-3.6 1.8 1.8 0 0 0 0 3.6ZM264.195 70.596a1.8 1.8 0 1 0 0-3.6 1.8 1.8 0 0 0 0 3.6ZM220.995 70.596a1.8 1.8 0 1 0 0-3.6 1.8 1.8 0 0 0 0 3.6ZM264.195 113.796a1.8 1.8 0 1 0 0-3.6 1.8 1.8 0 0 0 0 3.6ZM220.995 113.796a1.8 1.8 0 1 0 0-3.6 1.8 1.8 0 0 0 0 3.6ZM264.195 178.596a1.8 1.8 0 1 0 0-3.6 1.8 1.8 0 0 0 0 3.6ZM220.995 178.596a1.8 1.8 0 1 0 0-3.6 1.8 1.8 0 0 0 0 3.6ZM242.595 70.596a1.8 1.8 0 1 0 0-3.6 1.8 1.8 0 0 0 0 3.6ZM242.595 113.796a1.8 1.8 0 1 0 0-3.6 1.8 1.8 0 0 0 0 3.6ZM242.595 178.596a1.8 1.8 0 1 0 0-3.6 1.8 1.8 0 0 0 0 3.6ZM264.195 92.196a1.8 1.8 0 1 0 0-3.6 1.8 1.8 0 0 0 0 3.6ZM220.995 92.196a1.8 1.8 0 1 0 0-3.6 1.8 1.8 0 0 0 0 3.6ZM264.195 156.996a1.8 1.8 0 1 0 0-3.6 1.8 1.8 0 0 0 0 3.6ZM220.995 156.996a1.8 1.8 0 1 0 0-3.6 1.8 1.8 0 0 0 0 3.6ZM264.195 135.396a1.8 1.8 0 1 0 0-3.6 1.8 1.8 0 0 0 0 3.6ZM220.995 135.396a1.8 1.8 0 1 0 0-3.6 1.8 1.8 0 0 0 0 3.6ZM264.195 200.196a1.8 1.8 0 1 0 0-3.6 1.8 1.8 0 0 0 0 3.6ZM220.995 200.196a1.8 1.8 0 1 0 0-3.6 1.8 1.8 0 0 0 0 3.6ZM242.595 92.196a1.8 1.8 0 1 0 0-3.6 1.8 1.8 0 0 0 0 3.6ZM242.595 156.996a1.8 1.8 0 1 0 0-3.6 1.8 1.8 0 0 0 0 3.6ZM242.595 135.396a1.8 1.8 0 1 0 0-3.6 1.8 1.8 0 0 0 0 3.6ZM242.595 200.196a1.8 1.8 0 1 0 0-3.6 1.8 1.8 0 0 0 0 3.6ZM264.195 221.796a1.8 1.8 0 1 0 0-3.6 1.8 1.8 0 0 0 0 3.6ZM220.995 221.796a1.8 1.8 0 1 0 0-3.6 1.8 1.8 0 0 0 0 3.6ZM242.595 221.796a1.8 1.8 0 1 0 0-3.6 1.8 1.8 0 0 0 0 3.6ZM264.195 27.396a1.8 1.8 0 1 0 0-3.6 1.8 1.8 0 0 0 0 3.6ZM220.995 27.396a1.8 1.8 0 1 0 0-3.6 1.8 1.8 0 0 0 0 3.6ZM242.595 27.396a1.8 1.8 0 1 0 0-3.6 1.8 1.8 0 0 0 0 3.6ZM264.195 5.796a1.8 1.8 0 1 0 0-3.6 1.8 1.8 0 0 0 0 3.6ZM220.995 5.796a1.8 1.8 0 1 0 0-3.6 1.8 1.8 0 0 0 0 3.6ZM264.195 48.996a1.8 1.8 0 1 0 0-3.6 1.8 1.8 0 0 0 0 3.6ZM220.995 48.996a1.8 1.8 0 1 0 0-3.6 1.8 1.8 0 0 0 0 3.6ZM242.595 5.796a1.8 1.8 0 1 0 0-3.6 1.8 1.8 0 0 0 0 3.6ZM242.595 48.996a1.8 1.8 0 1 0 0-3.6 1.8 1.8 0 0 0 0 3.6Z" fill="#D7DFFE"/><path d="M69.282 31.23a5.382 5.382 0 1 0 0-10.764 5.382 5.382 0 0 0 0 10.764ZM242.982 241.83a5.382 5.382 0 1 0 0-10.764 5.382 5.382 0 0 0 0 10.764Z" fill="#3761FB"/><path d="M185.751 44.055v53.343M199.557 53.514V83.53" stroke="#5E329C" stroke-width="3" stroke-linecap="round" stroke-linejoin="round"/><path d="M169.2 90.621H99.711a21.537 21.537 0 0 0-21.537 21.528v18a36.232 36.232 0 0 1 16.758 26.19l1.125 8.874h51.246a21.078 21.078 0 0 1-1.125-6.813 21.31 21.31 0 0 1 22.704-21.267 21.314 21.314 0 0 1 10.83 3.807 30.658 30.658 0 0 1 8.811-9.297l2.187-1.494v-18a21.534 21.534 0 0 0-21.51-21.528Zm43.866-26.532h-53.424l7.254-38.889h38.889l7.281 38.89ZM78.174 236.7h11.7v-16.407H78.3l-.126 16.407Zm101.7 0h10.566v-16.407h-10.53l-.036 16.407Z" fill="url(#a)"/><path d="M190.71 130.68v-20.142a19.908 19.908 0 0 0-5.837-14.087 19.915 19.915 0 0 0-14.089-5.83H98.1a19.917 19.917 0 0 0-19.917 19.917v19.584" stroke="#5E329C" stroke-width="3" stroke-linecap="round" stroke-linejoin="round"/><path d="M142.569 165.186H96.057s-2.25-37.242-28.665-37.242c-13.284 0-20.493 9.171-20.493 20.493a20.49 20.49 0 0 0 12.648 18.941 20.483 20.483 0 0 0 7.845 1.561S80.1 202.581 78.174 236.7" stroke="#5E329C" stroke-width="3" stroke-linecap="round" stroke-linejoin="round"/><path d="M67.788 168.939c6.382 0 11.556-5.174 11.556-11.556 0-6.382-5.174-11.556-11.556-11.556-6.382 0-11.556 5.174-11.556 11.556 0 6.382 5.174 11.556 11.556 11.556ZM89.91 197.613l.558-12.411a12.064 12.064 0 0 1 7.448-11.158 12.05 12.05 0 0 1 4.621-.92h64.701a12.08 12.08 0 0 1 12.078 12.078l-.558 12.411H135" stroke="#5E329C" stroke-width="3" stroke-linecap="round" stroke-linejoin="round"/><path d="M137.403 165.186h35.757s2.25-37.242 28.665-37.242c13.284 0 20.493 9.171 20.493 20.493a20.482 20.482 0 0 1-5.999 14.497 20.479 20.479 0 0 1-14.494 6.005s-12.663 33.642-10.8 67.761" stroke="#5E329C" stroke-width="3" stroke-linecap="round" stroke-linejoin="round"/><path d="M201.429 168.939c6.382 0 11.556-5.174 11.556-11.556 0-6.382-5.174-11.556-11.556-11.556-6.382 0-11.556 5.174-11.556 11.556 0 6.382 5.174 11.556 11.556 11.556ZM89.91 220.311h101.25M179.667 220.311V236.7M89.64 220.311V236.7H78.264M45.765 236.7h87.687" stroke="#5E329C" stroke-width="3" stroke-linecap="round" stroke-linejoin="round"/><defs><linearGradient id="a" x1="215.559" y1="30.843" x2="92.07" y2="244.719" gradientUnits="userSpaceOnUse"><stop stop-color="#E64C84"/><stop offset="1" stop-color="#7390FC"/></linearGradient></defs></svg>