<svg cache-id="f8689571b4df482188b0ab58df59cf85" id="eVmYWJSTuUd1" xmlns="http://www.w3.org/2000/svg" xmlns:xlink="http://www.w3.org/1999/xlink" viewBox="0 0 32 32" shape-rendering="geometricPrecision" text-rendering="geometricPrecision" style="cursor:pointer"><g id="eVmYWJSTuUd2" transform="translate(-.0001 0)"><path d="M19.612254,11.500059c-.159376,0-.693305.004725-.843756.0141l-3.042247.079648c-.03225.002025-.06285-.014324-.079201-.042149L9.572906,4.166933c-.07455-.098699-.188701-.159711-.312152-.166873h-1.260459l3.4219,7.546873c.016575.035175.013425.076424-.008325.108674s-.058801.050624-.097651.048374l-5.704249.084374c-.120399.003675-.235314-.050325-.309377-.145348L3.568205,9.533662c-.140626-.182773-.404066-.281246-.63329-.281246h-.884069c-.060465,0-.051563.056699-.035152.113923L2.9457,12.714142c.070298.179322.070298.378519,0,.557842l-.930944,3.337452c-.02766.091424-.024375.140623.082966.140623h.840006c.381565,0,.4336-.049649.628602-.29527l1.7672-2.142195c.074686-.094199.189182-.147973.309378-.145348l5.656886.126598c.04185.0009.080475.0225.103276.057524s.026775.079199.01065.117749L8.000295,22.00006h1.248759c.123226-.007125.237152-.067949.311702-.166348L15.6475,14.453217c.018301-.028125.093751-.042224.126076-.042224l2.995372.079723c.154651.009375.68393.014025.843756.014025c2.07519,0,3.3877-.570442,3.3877-1.504629s-1.306885-1.500053-3.38815-1.500053Z" transform="translate(3.499696 3.095836)" fill="none" stroke="#0044b3" stroke-width="1.5" stroke-linecap="round" stroke-linejoin="round"/><path id="eVmYWJSTuUd4" d="M1,4h6" transform="translate(3.0001 18)" fill="none" stroke="#0044b3" stroke-width="1.5" stroke-linecap="round" stroke-dashoffset="-8" stroke-dasharray="8"/><path id="eVmYWJSTuUd5" d="M1,4h6" transform="translate(3.0001 6)" fill="none" stroke="#0044b3" stroke-width="1.5" stroke-linecap="round" stroke-dashoffset="-8" stroke-dasharray="8"/><path id="eVmYWJSTuUd6" d="M1,4h6" transform="translate(2.0001 3)" fill="none" stroke="#0044b3" stroke-width="1.5" stroke-linecap="round" stroke-dashoffset="-8" stroke-dasharray="8"/><path id="eVmYWJSTuUd7" d="M1,4h6" transform="translate(2.0001 21)" fill="none" stroke="#0044b3" stroke-width="1.5" stroke-linecap="round" stroke-dashoffset="-8" stroke-dasharray="8"/></g>
<script><![CDATA[
]]></script>
</svg>
