<svg id="eeXs6xtr1n01" xmlns="http://www.w3.org/2000/svg" xmlns:xlink="http://www.w3.org/1999/xlink" viewBox="0 0 32 32" shape-rendering="geometricPrecision" text-rendering="geometricPrecision" style="cursor:pointer"><g transform="translate(4 4)"><g><g id="eeXs6xtr1n04" transform="translate(.000001 0)"><path d="M12.5313,20.0322c.2919-.292.2908-.7665-.0027-1.06s-.768-.2946-1.06-.0026-.2908.7665.0027,1.06.768.2946,1.06.0026Z" fill="#0044b3"/><path d="M4.14627,20.1615c.13811.0739.29591.1027.45124.0824.16392-.0214.31617-.0964.43307-.2133s.19189-.2692.21333-.4331c.02032-.1553-.00852-.3131-.08245-.4512s-.18926-.2496-.32979-.3189-.2992-.0927-.45375-.0671c-.15456.0255-.29723.0988-.40801.2096s-.18407.2535-.20962.408-.00207.3132.06716.4538c.06923.1405.18072.2558.31882.3298Z" fill="#0044b3"/><path d="M18.75,18.75c-.1483,0-.2933.044-.4167.1264s-.2194.1995-.2762.3366-.0716.2878-.0427.4333.1004.2791.2053.384.2385.1763.384.2053.2963.0141.4333-.0427.2542-.1529.3366-.2762.1264-.2684.1264-.4167c0-.1989-.079-.3897-.2197-.5303s-.3314-.2197-.5303-.2197Zm-3,0c-.1483,0-.2933.044-.4167.1264-.1233.0824-.2194.1995-.2762.3366s-.0716.2878-.0427.4333.1004.2791.2053.384.2385.1763.384.2053.2963.0141.4333-.0427.2542-.1529.3366-.2762.1264-.2684.1264-.4167c0-.1989-.079-.3897-.2197-.5303s-.3314-.2197-.5303-.2197Z" transform="translate(.042636 0.042636)" fill="#0044b3"/></g><g id="eeXs6xtr1n08" transform="translate(0 0.000001)"><path d="M18.75,15c-.1483,0-.2933.044-.4167.1264s-.2194.1995-.2762.3366-.0716.2878-.0427.4333.1004.2791.2053.384.2385.1763.384.2053.2963.0141.4333-.0427.2542-.1529.3366-.2762.1264-.2684.1264-.4167c0-.1989-.079-.3897-.2197-.5303s-.3314-.2197-.5303-.2197Zm-3,0c-.1483,0-.2933.044-.4167.1264-.1233.0824-.2194.1995-.2762.3366s-.0716.2878-.0427.4333.1004.2791.2053.384.2385.1763.384.2053.2963.0141.4333-.0427.2542-.1529.3366-.2762.1264-.2684.1264-.4167c0-.1989-.079-.3897-.2197-.5303s-.3314-.2197-.5303-.2197Z" transform="translate(.042636 0.042636)" fill="#0044b3"/><path d="M12.5313,16.2842c.2919-.292.2908-.7665-.0027-1.06s-.768-.2946-1.06-.0026-.2908.7665.0027,1.06c.2934.2934.768.2946,1.06.0026Z" fill="#0044b3"/><path d="M4.14627,16.4115c.13811.0739.29591.1027.45124.0824.16392-.0214.31617-.0964.43307-.2133s.19189-.2692.21333-.4331c.02032-.1553-.00852-.3131-.08245-.4512s-.18926-.2496-.32979-.3189-.2992-.0927-.45375-.0671c-.15456.0255-.29723.0988-.40801.2096s-.18407.2535-.20962.408-.00207.3132.06716.4538c.06923.1405.18072.2558.31882.3298Z" fill="#0044b3"/><path d="M8.34751,16.4939c-.15533.0203-.31313-.0085-.45124-.0824-.1381-.074-.2496-.1893-.31882-.3298-.06923-.1406-.09271-.2992-.06716-.4538s.09885-.2972.20962-.408.25345-.1841.40801-.2096c.15455-.0256.31323-.0021.45375.0671s.25586.1808.32979.3189.10277.2959.08245.4512c-.02144.1639-.09644.3162-.21333.4331s-.26915.1919-.43307.2133Z" fill="#0044b3"/></g><g id="eeXs6xtr1n013"><path d="M12.5313,12.5287c.2919-.292.2908-.7666-.0027-1.06s-.768-.2947-1.06-.0027-.2908.7666.0027,1.06.768.2947,1.06.0027Z" fill="#0044b3"/><path d="M4.14627,12.6615c.13811.0739.29591.1027.45124.0824.16392-.0214.31617-.0964.43307-.2133s.19189-.2692.21333-.4331c.02032-.1553-.00852-.3131-.08245-.4512s-.18926-.2496-.32979-.3189-.2992-.0927-.45375-.0671c-.15456.0255-.29723.0988-.40801.2096s-.18407.2535-.20962.408-.00207.3132.06716.4538.18072.2558.31882.3298Z" transform="translate(.042636 0)" fill="#0044b3"/><path d="M18.75,11.25c-.1483,0-.2933.044-.4167.1264s-.2194.1995-.2762.3366-.0716.2878-.0427.4333.1004.2791.2053.384.2385.1763.384.2053.2963.0141.4333-.0427.2542-.1529.3366-.2762c.0824-.1234.1264-.2684.1264-.4167c0-.1989-.079-.3897-.2197-.5303s-.3314-.2197-.5303-.2197Zm-3,0c-.1483,0-.2933.044-.4167.1264-.1233.0824-.2194.1995-.2762.3366s-.0716.2878-.0427.4333.1004.2791.2053.384.2385.1763.384.2053.2963.0141.4333-.0427.2542-.1529.3366-.2762c.0824-.1234.1264-.2684.1264-.4167c0-.1989-.079-.3897-.2197-.5303s-.3314-.2197-.5303-.2197Z" transform="translate(.042636 0.042636)" fill="#0044b3"/><path d="M8.34751,12.7439c-.15533.0203-.31313-.0085-.45124-.0824s-.2496-.1893-.31882-.3298-.09271-.2992-.06716-.4538.09885-.2972.20962-.408.25345-.1841.40801-.2096c.15455-.0256.31323-.0021.45375.0671s.25586.1808.32979.3189.10277.2959.08245.4512c-.02144.1639-.09644.3162-.21333.4331s-.26915.1919-.43307.2133Z" transform="translate(.042636-.042636)" fill="#0044b3"/></g><g id="eeXs6xtr1n018" transform="translate(.000001 0)"><path d="M12.5313,8.78094c.2919-.29198.2908-.76656-.0027-1.06s-.768-.29463-1.06-.00265-.2908.76656.0027,1.06.768.29463,1.06.00265Z" fill="#0044b3"/><path d="M4.14627,8.91145c.13811.07394.29591.10277.45124.08245.16392-.02143.31617-.09643.43307-.21333s.19189-.26915.21333-.43307c.02032-.15533-.00852-.31312-.08245-.45123s-.18926-.2496-.32979-.31883-.2992-.09271-.45375-.06716-.29723.09886-.40801.20963-.18407.25344-.20962.408-.00207.31323.06716.45376.18072.25585.31882.32978Z" fill="#0044b3"/><path d="M8.34751,8.9939c-.15533.02032-.31313-.00851-.45124-.08245s-.2496-.18926-.31882-.32978-.09271-.29921-.06716-.45376.09885-.29723.20962-.408.25345-.18408.40801-.20963.31323-.00206.45375.06716.25586.18072.32979.31883.10277.2959.08245.45123c-.02144.16392-.09644.31617-.21333.43307s-.26915.1919-.43307.21333Z" fill="#0044b3"/></g><g id="eeXs6xtr1n022"><path d="M11.6463,5.16145c.1381.07394.2959.10277.4512.08245.1639-.02143.3162-.09643.4331-.21333s.1919-.26915.2133-.43307c.0203-.15533-.0085-.31312-.0824-.45123s-.1893-.2496-.3298-.31883-.2992-.09271-.4538-.06716-.2972.09886-.408.20963-.1841.25344-.2096.408c-.0256.15455-.0021.31323.0671.45376s.1808.25585.3189.32978Z" fill="#0044b3"/><path d="M4.14627,5.16145c.13811.07394.29591.10277.45124.08245.16392-.02143.31617-.09643.43307-.21333s.19189-.26915.21333-.43307c.02032-.15533-.00852-.31312-.08245-.45123s-.18926-.2496-.32979-.31883-.2992-.09271-.45375-.06716-.29723.09886-.40801.20963-.18407.25344-.20962.408-.00207.31323.06716.45376.18072.25585.31882.32978Z" fill="#0044b3"/><path d="M8.34751,5.2439c0,0-.31313-.00851-.45124-.08245s-.2496-.18926-.31882-.32978-.09271-.29921-.06716-.45376.09885-.29723.20962-.408.25345-.18408.40801-.20963.31323-.00206.45375.06716.25586.18072.32979.31883.10277.2959.08245.45123c-.02144.16392-.09644.31617-.21333.43307s-.26915.1919-.43307.21333Z" transform="translate(.042636 0)" fill="#0044b3"/></g></g><g><path d="M8.25,19.5v3" fill="none" stroke="#0044b3" stroke-width="1.5" stroke-linecap="round" stroke-linejoin="round"/><path id="eeXs6xtr1n028" d="M20.25,9L15,9c-.9382,0-.6093.58639-.75.72705v12.77295h7.5v-12c0-.3978-.158-.77936-.4393-1.06066s-.6629-.43934-1.0607-.43934Z" fill="none" stroke="#0044b3" stroke-width="1.5" stroke-linecap="round" stroke-linejoin="round"/><path id="eeXs6xtr1n029" d="M14.25,22.5v-12.75M3.75,1.5c0,0,9,0,9,0c.3978,0,.7794.15804,1.0607.43934s.4393.66284.4393,1.06066v19.3125c0,.0497-.0198.0974-.0549.1326s-.0829.0549-.1326.0549h-11.8125c0,0,0-19.5,0-19.5c0-.39782.15804-.77936.43934-1.06066s.66284-.43934,1.06066-.43934Z" fill="none" stroke="#0044b3" stroke-width="1.5" stroke-linecap="round" stroke-linejoin="round"/></g></g><script><![CDATA[]]></script></svg>