<svg id="eduo83RxKIs1" xmlns="http://www.w3.org/2000/svg" xmlns:xlink="http://www.w3.org/1999/xlink" viewBox="0 0 32 32" shape-rendering="geometricPrecision" text-rendering="geometricPrecision" style="cursor:pointer"><g transform="translate(3.996701 4)"><g id="eduo83RxKIs3"><path d="M5.52094,6.36797L3.75,10.5h16.5L18.4791,6.36797C18.1908,5.69531,17.4563,5.25,16.6355,5.25h-9.27097c-.82078,0-1.55531.44531-1.84359,1.11797Z" fill="none" stroke="#0044b3" stroke-width="1.5" stroke-linecap="round" stroke-linejoin="round"/><path d="M20.25,17.25v-6.75h-16.5v6.75h16.5Z" fill="none" stroke="#0044b3" stroke-width="1.5" stroke-linejoin="round"/><path id="eduo83RxKIs6" d="M6.75,14.25c.41421,0,.75-.3358.75-.75s-.33579-.75-.75-.75-.75.3358-.75.75.33579.75.75.75Z" fill="none" stroke="#0044b3" stroke-width="1.5" stroke-linecap="round" stroke-linejoin="round"/><path id="eduo83RxKIs7" d="M17.25,14.25c.4142,0,.75-.3358.75-.75s-.3358-.75-.75-.75-.75.3358-.75.75.3358.75.75.75Z" fill="none" stroke="#0044b3" stroke-width="1.5" stroke-linecap="round" stroke-linejoin="round"/></g><path id="eduo83RxKIs8" d="M3.75,17.25h1.5v1.5h-1.5Z" transform="translate(.003299 0.013244)" fill="none" stroke="#0044b3" stroke-width="1.5" stroke-linejoin="round"/><path id="eduo83RxKIs9" d="M18.75,17.25h1.5v1.5h-1.5Z" transform="matrix(.999961 0.008829-.008829 0.999961 0.15969-.164879)" fill="none" stroke="#0044b3" stroke-width="1.5" stroke-linejoin="round"/></g><script><![CDATA[]]></script></svg>