<svg id="eD0ZSxAV3eT1" xmlns="http://www.w3.org/2000/svg" xmlns:xlink="http://www.w3.org/1999/xlink" viewBox="0 0 32 32" shape-rendering="geometricPrecision" text-rendering="geometricPrecision" style="cursor:pointer"><g transform="translate(4 4)"><path id="eD0ZSxAV3eT3" d="M22.125,4.5h-2.25c-.2071,0-.375.16789-.375.375v14.25c0,.2071.1679.375.375.375h2.25c.2071,0,.375-.1679.375-.375v-14.25c0-.20711-.1679-.375-.375-.375Z" fill="none" stroke="#0044b3" stroke-width="1.5" stroke-linejoin="round"/><path id="eD0ZSxAV3eT4" d="M16.125,8.25h-2.25c-.2071,0-.375.16789-.375.375v10.5c0,.2071.1679.375.375.375h2.25c.2071,0,.375-.1679.375-.375v-10.5c0-.20711-.1679-.375-.375-.375Z" fill="none" stroke="#0044b3" stroke-width="1.5" stroke-linejoin="round"/><path id="eD0ZSxAV3eT5" d="M10.125,11.25h-2.25c-.20711,0-.375.1679-.375.375v7.5c0,.2071.16789.375.375.375h2.25c.2071,0,.375-.1679.375-.375v-7.5c0-.2071-.1679-.375-.375-.375Z" fill="none" stroke="#0044b3" stroke-width="1.5" stroke-linejoin="round"/><path id="eD0ZSxAV3eT6" d="M4.125,14.25h-2.25c-.20711,0-.375.1679-.375.375v4.5c0,.2071.16789.375.375.375c0,0,2.25,0,2.25,0c.20711,0,.375-.1679.375-.375v-4.5c0-.2071-.16789-.375-.375-.375Z" fill="none" stroke="#0044b3" stroke-width="1.5" stroke-linejoin="round"/></g><script><![CDATA[]]></script></svg>