<svg id="eNwbxRm5ElG1" xmlns="http://www.w3.org/2000/svg" xmlns:xlink="http://www.w3.org/1999/xlink" viewBox="0 0 32 32" shape-rendering="geometricPrecision" text-rendering="geometricPrecision" style="cursor:pointer"><g><path d="M25.5,13.907135v-3.730335c0-1.6569-1.3431-3.00004-3-3.00004h-14.02002c-1.65685,0-3,1.34314-3,3.00004v8.8c0,1.6568,1.34315,3,3,3h2.00502h2.978377" fill="none" stroke="#0061ff" stroke-width="1.5" stroke-linecap="round"/><path d="M5.47998,11.25c0-.4142.21341-.75.47667-.75h19.06675c.2632,0,.4766.3358.4766.75s-.2134.75-.4766.75h-19.06675c-.26326,0-.47667-.3358-.47667-.75Z" clip-rule="evenodd" fill="#0061ff" fill-rule="evenodd"/></g><g id="eNwbxRm5ElG5"><path id="eNwbxRm5ElG6" d="M19.646659,21.451857L20.8451,22.8451c.0832.0832.2198.077.2951-.0133L23.5,20" transform="translate(0 0.048143)" fill="none" stroke="#0061ff" stroke-width="1.5" stroke-linecap="round" stroke-dasharray="6"/><path d="M0,4.75C0,2.126647,2.126647,0,4.75,0s4.75,2.126647,4.75,4.75-2.126647,4.75-4.75,4.75-4.75-2.126647-4.75-4.75Z" transform="translate(16.75 16.1611)" fill="none" stroke="#0061ff" stroke-width="1.5"/></g><path id="eNwbxRm5ElG8" d="M8.44141,18.8213h4" fill="none" stroke="#0061ff" stroke-width="1.5" stroke-linecap="round" stroke-dasharray="4"/><path id="eNwbxRm5ElG9" d="M8.44141,16.3213h2" fill="none" stroke="#0061ff" stroke-width="1.5" stroke-linecap="round" stroke-dasharray="2"/>
<script><![CDATA[]]></script>
</svg>
