<svg id="epOba8x5m6E1" xmlns="http://www.w3.org/2000/svg" xmlns:xlink="http://www.w3.org/1999/xlink" viewBox="0 0 32 32" shape-rendering="geometricPrecision" text-rendering="geometricPrecision" style="cursor:pointer"><g transform="translate(4 3.99959)"><path id="epOba8x5m6E3" d="M3.75,9.9375L3.75,21c0,.1989.07902.3897.21967.5303s.33142.2197.53033.2197h4.5c0,0,0-6.375,0-6.375c0-.2984.11853-.5845.3295-.7955s.49713-.3295.7955-.3295h3.75c.2984,0,.5845.1185.7955.3295s.3295.4971.3295.7955v6.375h4.5c.1989,0,.3897-.079.5303-.2197s.2197-.3314.2197-.5303v-11.0625" fill="none" stroke="#0044b3" stroke-width="1.5" stroke-linecap="round" stroke-linejoin="round"/><path id="epOba8x5m6E4" d="M22.5,12L12.5105,2.4375c-.2344-.2475-.7824-.25031-1.021,0L1.5,12" fill="none" stroke="#0044b3" stroke-width="1.5" stroke-linecap="round" stroke-linejoin="round"/><path id="epOba8x5m6E5" d="M18.75,8.39062c0,0,0-5.39062,0-5.39062s-2.25,0-2.25,0v3.23438" fill="none" stroke="#0044b3" stroke-width="1.5" stroke-linecap="round" stroke-linejoin="round"/></g><path id="epOba8x5m6E6" d="M18.190556,1.342016c-2.72882-1.290045,1.906626-3.227783-.651626-4.984201" transform="translate(4.08607 5.423802)" fill="none" stroke="#0044b3" stroke-width="1.5" stroke-linecap="round" stroke-linejoin="round" stroke-dashoffset="8" stroke-dasharray="8"/><script><![CDATA[]]></script></svg>