<svg id="eje81k4ND7o1" xmlns="http://www.w3.org/2000/svg" xmlns:xlink="http://www.w3.org/1999/xlink" viewBox="0 0 32 32" shape-rendering="geometricPrecision" text-rendering="geometricPrecision" style="cursor:pointer"><path id="eje81k4ND7o2" d="M22.8437,11.875c-.1373,1.9064-1.5515,3.375-3.0937,3.375s-2.9588-1.4681-3.0938-3.375C16.5156,9.89172,17.8923,8.5,19.75,8.5s3.2344,1.42781,3.0937,3.375Z" fill="none" stroke="#0044b3" stroke-width="1.5" stroke-linecap="round" stroke-linejoin="round"/><path id="eje81k4ND7o3" d="M19.75,18.25c-3.0548,0-5.9925,1.5173-6.7284,4.4723-.0975.391.1476.7777.5493.7777h12.3586c.4017,0,.6455-.3867.5494-.7777C25.743,19.72,22.8053,18.25,19.75,18.25Z" fill="none" stroke="#0044b3" stroke-width="1.5" stroke-miterlimit="10"/><path id="eje81k4ND7o4" d="M8.40626,12.7159c.10969,1.5225,1.2525,2.7216,2.48434,2.7216s2.3766-1.1986,2.4844-2.7216C13.487,11.132,12.3747,10,10.8906,10s-2.59637,1.1611-2.48434,2.7159Z" fill="none" stroke="#0044b3" stroke-width="1.5" stroke-linecap="round" stroke-linejoin="round"/><path id="eje81k4ND7o5" d="M13.6563,18.3438c-.8461-.3877-1.778-.5368-2.7657-.5368-2.43747,0-4.78591,1.2118-5.37419,3.5719-.07735.3122.11859.6211.43922.6211h5.26317" fill="none" stroke="#0044b3" stroke-width="1.5" stroke-linecap="round" stroke-miterlimit="10"/>
<script><![CDATA[]]></script>
</svg>
