<svg cache-id="9d33e62bffe74a60810359f6327bd900" id="eVQnqf4I9CK1" xmlns="http://www.w3.org/2000/svg" xmlns:xlink="http://www.w3.org/1999/xlink" viewBox="0 0 32 32" shape-rendering="geometricPrecision" text-rendering="geometricPrecision" style="cursor:pointer"><g transform="translate(4 4)"><path id="eVQnqf4I9CK3" d="M1.5,9L12,3c0,0,10.5,6,10.5,6L12,15L1.5,9Z" fill="none" stroke="#0044b3" stroke-width="1.5" stroke-linecap="round" stroke-linejoin="round"/><path id="eVQnqf4I9CK4" d="M5.25,11.25c0,0,0,6,0,6s6.75,3.75,6.75,3.75m0,0c0,0,6.75-3.75,6.75-3.75s0-6,0-6M12,21v-6" fill="none" stroke="#0044b3" stroke-width="1.5" stroke-linecap="round" stroke-linejoin="round"/><path id="eVQnqf4I9CK5" d="M22.5,17.25c0,0,0-2.880505,0-4.118005s0-4.131995,0-4.131995" transform="matrix(-1 0 0 1 45 0)" fill="none" stroke="#0044b3" stroke-width="1.5" stroke-linecap="round" stroke-linejoin="round"/></g><script><![CDATA[]]></script></svg>