<svg xmlns="http://www.w3.org/2000/svg" xmlns:xlink="http://www.w3.org/1999/xlink" xmlns:lucid="lucid" width="1564" height="1138.32"><g transform="translate(-156 -201.6771889665397)" lucid:page-tab-id="0_0"><path d="M380 221.68h1320V720H380z" stroke="#232f3e" stroke-width="2" fill="#fff" fill-opacity="0"/><path d="M380 221.68h56v56h-56v-56z" stroke="#fff" stroke-opacity="0" fill="#232f3e"/><path d="M420.88 262.9h-25c-4.13.05-7.57-3.1-7.9-7.2v-.64c-.15-3.4 1.97-6.38 5.25-7.36v-.66c.12-4.22 2.44-7.75 6.24-9.57 4.12-1.85 8.73-.95 11.8 2.32 1.1 1.07 1.85 2.18 2.45 3.57 1.2-1 2.72-1.3 4.24-.9 2.24.8 3.68 2.75 3.76 5.1 3.68.66 6.32 3.8 6.28 7.57 0 7.07-7.04 7.73-7.12 7.75zM394.18 249c-2.83.6-4.75 3.14-4.6 6.04v.53c.3 3.3 3.1 5.82 6.4 5.74h24.98c3.04-.3 5.4-2.64 5.68-5.7.28-3.43-2.24-6.5-5.68-6.78-.44-.05-.72-.45-.64-.87.08-1.86-1-3.46-2.72-4.15-1.32-.37-2.64.13-3.44 1.24-.2.23-.44.36-.76.3-.28-.05-.48-.23-.6-.5-.6-1.6-1.4-2.84-2.6-4.03-2.68-2.8-6.6-3.6-10.13-2-3.24 1.6-5.2 4.64-5.32 8.25-.04.4-.04.74 0 1.13.04.4-.2.77-.6.85z" stroke="#fff" stroke-opacity="0" fill="#fff"/><use xlink:href="#a" transform="matrix(1,0,0,1,451,241.6771889665397) translate(0 14.4)"/><path d="M540 340.03h1000v280H540z" fill="#fff" fill-opacity="0"/><path d="M551.9 340.03h7.94m7.94 0h7.93m7.95 0h7.94m7.92 0h7.94m7.94 0h7.93m7.94 0h7.94m7.94 0h7.94m7.94 0h7.93m7.94 0h7.93m7.93 0h7.94m7.93 0h7.94m7.94 0h7.94m7.94 0h7.94m7.93 0h7.94m7.93 0h7.93m7.94 0h7.94m7.93 0h7.94m7.95 0h7.93m7.94 0h7.94m7.93 0h7.93m7.94 0h7.93m7.94 0h7.93m7.94 0h7.95m7.93 0h7.94m7.94 0h7.93m7.93 0h7.94m7.93 0h7.94m7.94 0h7.93m7.95 0h7.94m7.92 0h7.94m7.94 0h7.93m7.94 0h7.93m7.94 0h7.94m7.93 0h7.95m7.94 0h7.92m7.94 0h7.94m7.93 0h7.94m7.94 0h7.94m7.94 0h7.94m7.93 0h7.94m7.93 0h7.93m7.94 0h7.93m7.94 0h7.94m7.94 0h7.94m7.94 0h7.93m7.94 0h7.93m7.93 0h7.94m7.94 0h7.93m7.94 0h7.95m7.93 0h7.94m7.94 0h7.93m7.93 0h7.94m7.93 0h7.94m7.93 0h7.94m7.95 0h7.93m7.94 0h7.94m7.93 0h7.93m7.94 0h7.93m7.94 0h7.94m7.93 0h7.95m7.94 0h7.92m7.94 0h7.94m7.93 0h3.97v3.9m0 7.76v7.77m0 7.78v7.78m0 7.77v7.78m0 7.78v7.78m0 7.78v7.77m0 7.77v7.78m0 7.78v7.77m0 7.78v7.78m0 7.78v7.78m0 7.77v7.77m0 7.78v7.78m0 7.77v7.78m0 7.78v7.78m0 7.78v7.77m0 7.77v7.78m0 7.78v7.77m0 7.78v7.78m0 7.78v3.9h-3.97m-7.93 0h-7.94m-7.94 0h-7.93m-7.95 0h-7.94m-7.92 0h-7.94m-7.94 0h-7.93m-7.94 0h-7.94m-7.94 0h-7.94m-7.94 0h-7.93m-7.94 0h-7.93m-7.93 0h-7.94m-7.93 0h-7.94m-7.94 0h-7.94m-7.94 0h-7.94m-7.93 0h-7.94m-7.93 0h-7.93m-7.94 0h-7.94m-7.93 0h-7.94m-7.95 0h-7.93m-7.94 0h-7.94m-7.93 0h-7.93m-7.94 0h-7.93m-7.94 0h-7.93m-7.94 0h-7.95m-7.93 0h-7.94m-7.94 0h-7.93m-7.93 0h-7.94m-7.93 0h-7.94m-7.94 0h-7.93m-7.95 0h-7.94m-7.92 0h-7.94m-7.94 0h-7.93m-7.94 0h-7.93m-7.94 0h-7.94m-7.93 0h-7.95m-7.94 0h-7.92m-7.94 0h-7.94m-7.93 0h-7.94m-7.94 0h-7.94m-7.94 0h-7.94m-7.93 0h-7.94m-7.93 0h-7.93m-7.94 0h-7.93m-7.94 0h-7.94m-7.94 0h-7.94m-7.94 0h-7.93m-7.94 0h-7.93m-7.93 0H790m-7.94 0h-7.93m-7.94 0h-7.95m-7.93 0h-7.94m-7.94 0h-7.93m-7.93 0h-7.94m-7.93 0h-7.94m-7.93 0h-7.94m-7.95 0h-7.93m-7.94 0h-7.94m-7.93 0h-7.93m-7.94 0h-7.93m-7.94 0h-7.94m-7.93 0h-7.95m-7.94 0h-7.92m-7.94 0h-7.94m-7.93 0H540v-3.9m0-7.78v-7.78m0-7.78v-7.77m0-7.78v-7.78m0-7.78v-7.78m0-7.78v-7.78m0-7.78v-7.78m0-7.77v-7.78m0-7.78v-7.78m0-7.78v-7.78m0-7.78v-7.78m0-7.78v-7.77m0-7.78v-7.78m0-7.78v-7.78m0-7.78v-7.78m0-7.78v-7.78m0-7.77v-7.78m0-7.78v-7.78m0-7.78v-3.9h3.97" stroke="#5a6c86" stroke-width="2" fill="none"/><use xlink:href="#b" transform="matrix(1,0,0,1,540,360.0261889665401) translate(393.125 14.4)"/><use xlink:href="#c" transform="matrix(1,0,0,1,540,360.0261889665401) translate(451.025 14.4)"/><use xlink:href="#d" transform="matrix(1,0,0,1,540,360.0261889665401) translate(547.975 14.4)"/><path d="M540 340.03h54.17v54.17H540v-54.17z" stroke="#fff" stroke-opacity="0" stroke-width="2" fill="#d86613"/><path d="M567.1 386.62c-.15 0-.25-.04-.38-.08l-16.6-9.6c-.24-.15-.37-.35-.37-.62v-19.2c0-.27.13-.5.37-.62l15.17-8.8c.23-.14.46-.14.7 0 .22.13.36.37.36.64v8.3c0 .28-.14.48-.37.64l-7.58 4.4v10.03l8.67 5 7.56-4.32c.23-.12.5-.12.7 0l7.24 4.17c.33.2.46.63.26.98-.07.12-.13.2-.26.27l-15.15 8.74c-.13.04-.23.08-.36.08zm-15.9-10.73l15.9 9.16 13.7-7.92-5.78-3.36-7.57 4.4c-.23.13-.5.13-.73 0l-9.4-5.4c-.23-.17-.36-.36-.36-.64V361.3c0-.28.13-.5.36-.63l7.6-4.4v-6.68l-13.7 7.9z" stroke="#fff" stroke-opacity="0" stroke-width="2" fill="#fff"/><path d="M583.7 375.37c-.13 0-.24-.03-.36-.08l-7.22-4.17c-.24-.14-.35-.38-.34-.63v-8.8l-7.6-4.33c-.24-.14-.37-.36-.37-.63v-8.34c0-.27.14-.5.37-.63.24-.1.5-.1.72 0l15.16 8.72c.23.13.36.35.36.62v17.53c0 .4-.3.72-.7.72zm-6.5-5.3l5.78 3.33v-15.86l-13.73-7.9v6.68l7.58 4.35c.23.1.37.33.37.6z" stroke="#fff" stroke-opacity="0" stroke-width="2" fill="#fff"/><path d="M563.48 372.16v-10.83h1.44v4.93l4.7-4.93h1.9l-4.9 5.27 5.33 5.56h-1.98l-5.05-5.06v5.06z" stroke="#fff" stroke-opacity="0" stroke-width="2" fill="#fff"/><path d="M732 844.04h54.17v54.17H732v-54.16z" stroke="#fff" stroke-opacity="0" stroke-width="2" fill="#693cc5"/><path d="M748.25 863.72h-6.5c-.4 0-.72.32-.72.7v23.15c0 .4.32.7.72.7h6.5c.4 0 .72-.3.72-.7v-23.14c0-.4-.32-.7-.72-.7zm-.72 23.1h-5.06v-21.65h5.06zM758.36 883.52v4.04c0 .4-.32.72-.72.72h-6.5c-.4 0-.72-.33-.72-.72V875.1c.25 1.4.7 2.57 1.44 3.78v7.95h5.06v-3.78c.5.2.93.35 1.44.47zM758.36 860.12v2.55c-.52.14-.95.3-1.44.5v-2.34h-5.06v6.5c-.75 1.22-1.2 2.38-1.44 3.8v-11c0-.4.32-.74.72-.74h6.5c.4 0 .72.32.72.72zM766.3 884.12v2.7h-5.04v-2.87c-.5 0-.94-.04-1.45-.1v3.7c0 .42.33.73.73.73h6.5c.4 0 .72-.3.72-.73v-2zm.73-30.5h-6.5c-.4 0-.72.3-.72.72v8.04c.52-.07.95-.1 1.46-.1v-7.2h5.05v8.45c.54.3.98.58 1.45.93v-10.12c0-.42-.32-.73-.72-.73zM776.42 857.22h-6.5c-.4 0-.72.33-.72.73v7.83c.6.63 1.02 1.23 1.45 1.98v-9.08h5.05v22.2l1.44 1.44v-24.37c0-.4-.32-.73-.72-.73z" stroke="#fff" stroke-opacity="0" stroke-width="2" fill="#fff"/><path d="M776.26 883.52l-6.5-6.5c1.27-2.76 1.2-5.63-.23-8.32-2.43-4.57-8.1-6.32-12.68-3.9-4.58 2.42-6.35 8.1-3.92 12.68 2.43 4.6 8.1 6.34 12.7 3.92l6.38 6.4c1.2 1.16 3.1 1.16 4.26 0 1.2-1.18 1.2-3.08 0-4.25zM753.3 873.1c0-4.38 3.55-7.95 7.96-7.95 4.38 0 7.94 3.57 7.94 7.94 0 4.38-3.56 7.95-7.94 7.95-4.4 0-7.95-3.57-7.95-7.96zm21.95 13.64c-.6.6-1.6.6-2.23 0l-6.14-6.16c.88-.65 1.54-1.35 2.17-2.27l6.2 6.25c.6.6.6 1.6 0 2.2z" stroke="#fff" stroke-opacity="0" stroke-width="2" fill="#fff"/><path d="M758.05 876.54c-2.1-1.5-2.58-4.4-1.08-6.5 1.5-2.1 4.42-2.58 6.5-1.1l.14.1-.85 1.17c-1.43-1.05-3.45-.75-4.5.68-1.07 1.43-.77 3.45.66 4.5z" stroke="#fff" stroke-opacity="0" stroke-width="2" fill="#fff"/><use xlink:href="#e" transform="matrix(1,0,0,1,702,907.2121235372232) translate(24.525 14.4)"/><use xlink:href="#f" transform="matrix(1,0,0,1,702,907.2121235372232) translate(4.074999999999996 36)"/><use xlink:href="#g" transform="matrix(1,0,0,1,702,907.2121235372232) translate(21.775 57.6)"/><use xlink:href="#h" transform="matrix(1,0,0,1,702,907.2121235372232) translate(37.275 57.6)"/><path d="M540 920h1000v280H540z" fill="#fff" fill-opacity="0"/><path d="M551.9 920h7.94m7.94 0h7.93m7.95 0h7.94m7.92 0h7.94m7.94 0h7.93m7.94 0h7.94m7.94 0h7.94m7.94 0h7.93m7.94 0h7.93m7.93 0h7.94m7.93 0h7.94m7.94 0h7.94m7.94 0h7.94m7.93 0h7.94m7.93 0h7.93m7.94 0h7.94m7.93 0h7.94m7.95 0h7.93m7.94 0h7.94m7.93 0h7.93m7.94 0h7.93m7.94 0h7.93m7.94 0h7.95m7.93 0h7.94m7.94 0h7.93m7.93 0h7.94m7.93 0h7.94m7.94 0h7.93m7.95 0h7.94m7.92 0h7.94m7.94 0h7.93m7.94 0h7.93m7.94 0h7.94m7.93 0h7.95m7.94 0h7.92m7.94 0h7.94m7.93 0h7.94m7.94 0h7.94m7.94 0h7.94m7.93 0h7.94m7.93 0h7.93m7.94 0h7.93m7.94 0h7.94m7.94 0h7.94m7.94 0h7.93m7.94 0h7.93m7.93 0h7.94m7.94 0h7.93m7.94 0h7.95m7.93 0h7.94m7.94 0h7.93m7.93 0h7.94m7.93 0h7.94m7.93 0h7.94m7.95 0h7.93m7.94 0h7.94m7.93 0h7.93m7.94 0h7.93m7.94 0h7.94m7.93 0h7.95m7.94 0h7.92m7.94 0h7.94m7.93 0h3.97v3.9m0 7.77v7.77m0 7.78V955m0 7.78v7.78m0 7.77v7.78m0 7.8v7.77m0 7.77v7.78m0 7.78v7.78m0 7.78v7.77m0 7.78v7.8m0 7.77v7.77m0 7.78v7.78m0 7.78v7.78m0 7.77v7.78m0 7.8v7.77m0 7.77v7.78m0 7.78v7.78m0 7.78v7.77m0 7.78v3.9h-3.97m-7.93 0h-7.94m-7.94 0h-7.93m-7.95 0h-7.94m-7.92 0h-7.94m-7.94 0h-7.93m-7.94 0h-7.94m-7.94 0h-7.94m-7.94 0h-7.93m-7.94 0h-7.93m-7.93 0h-7.94m-7.93 0h-7.94m-7.94 0h-7.94m-7.94 0h-7.94m-7.93 0h-7.94m-7.93 0h-7.93m-7.94 0h-7.94m-7.93 0h-7.94m-7.95 0h-7.93m-7.94 0h-7.94m-7.93 0h-7.93m-7.94 0h-7.93m-7.94 0h-7.93m-7.94 0h-7.95m-7.93 0h-7.94m-7.94 0h-7.93m-7.93 0h-7.94m-7.93 0h-7.94m-7.94 0h-7.93m-7.95 0h-7.94m-7.92 0h-7.94m-7.94 0h-7.93m-7.94 0h-7.93m-7.94 0h-7.94m-7.93 0h-7.95m-7.94 0h-7.92m-7.94 0h-7.94m-7.93 0h-7.94m-7.94 0h-7.94m-7.94 0h-7.94m-7.93 0h-7.94m-7.93 0h-7.93m-7.94 0h-7.93m-7.94 0h-7.94m-7.94 0h-7.94m-7.94 0h-7.93m-7.94 0h-7.93m-7.93 0H790m-7.94 0h-7.93m-7.94 0h-7.95m-7.93 0h-7.94m-7.94 0h-7.93m-7.93 0h-7.94m-7.93 0h-7.94m-7.93 0h-7.94m-7.95 0h-7.93m-7.94 0h-7.94m-7.93 0h-7.93m-7.94 0h-7.93m-7.94 0h-7.94m-7.93 0h-7.95m-7.94 0h-7.92m-7.94 0h-7.94m-7.93 0H540v-3.9m0-7.77v-7.77m0-7.78V1165m0-7.78v-7.78m0-7.77v-7.78m0-7.8v-7.77m0-7.77v-7.78m0-7.78v-7.78m0-7.78v-7.77m0-7.78v-7.8m0-7.77v-7.77m0-7.78V1025m0-7.78v-7.78m0-7.77v-7.78m0-7.8v-7.77m0-7.77v-7.78m0-7.78v-7.78m0-7.78v-7.77m0-7.78V920h3.97" stroke="#5a6c86" stroke-width="2" fill="none"/><use xlink:href="#b" transform="matrix(1,0,0,1,540,940) translate(393.125 14.4)"/><use xlink:href="#c" transform="matrix(1,0,0,1,540,940) translate(451.025 14.4)"/><use xlink:href="#d" transform="matrix(1,0,0,1,540,940) translate(547.975 14.4)"/><path d="M540 920h54.17v54.17H540V920z" stroke="#fff" stroke-opacity="0" stroke-width="2" fill="#d86613"/><path d="M567.1 966.6c-.15 0-.25-.04-.38-.08l-16.6-9.6c-.24-.16-.37-.35-.37-.63v-19.2c0-.28.13-.5.37-.63l15.17-8.78c.23-.17.46-.17.7 0 .22.1.36.34.36.6v8.33c0 .27-.14.46-.37.62l-7.58 4.4v10.04l8.67 4.98 7.56-4.33c.23-.1.5-.1.7 0l7.24 4.18c.33.2.46.62.26.97-.07.12-.13.2-.26.28l-15.15 8.74c-.13.04-.23.08-.36.08zm-15.9-10.74l15.9 9.18 13.7-7.93-5.78-3.34-7.57 4.4c-.23.12-.5.12-.73 0l-9.4-5.42c-.23-.15-.36-.35-.36-.62v-10.85c0-.27.13-.5.36-.63l7.6-4.4v-6.68l-13.7 7.92z" stroke="#fff" stroke-opacity="0" stroke-width="2" fill="#fff"/><path d="M583.7 955.34c-.13 0-.24-.03-.36-.08l-7.22-4.15c-.24-.13-.35-.38-.34-.63v-8.8l-7.6-4.32c-.24-.14-.37-.36-.37-.64v-8.32c0-.28.14-.5.37-.64.24-.1.5-.1.72 0l15.16 8.72c.23.14.36.36.36.64v17.52c0 .4-.3.72-.7.72zm-6.5-5.3l5.78 3.34V937.5l-13.73-7.88v6.67l7.58 4.34c.23.1.37.33.37.6z" stroke="#fff" stroke-opacity="0" stroke-width="2" fill="#fff"/><path d="M563.48 952.14V941.3h1.44v4.93l4.7-4.93h1.9l-4.9 5.28 5.33 5.56h-1.98l-5.05-5.06v5.06z" stroke="#fff" stroke-opacity="0" stroke-width="2" fill="#fff"/><path d="M1426.93 454.37c-.5.05-.92.15-1.33.36l-17.8 8.77c-.98.47-1.65 1.3-1.86 2.36l-4.4 19.76c-.22.92-.06 1.85.45 2.67.04.1.1.14.2.25l12.3 15.8c.68.87 1.6 1.34 2.68 1.34h19.8c1.1 0 2-.48 2.68-1.35l12.32-15.8c.66-.88.92-1.9.66-2.98l-4.4-19.7c-.22-1.08-.88-1.9-1.86-2.37l-17.8-8.77c-.57-.26-1.08-.4-1.65-.36z" stroke="#000" stroke-opacity="0" stroke-width="3.83" fill="#326ce5"/><path d="M1426.92 452.94c-.54.05-.97.16-1.4.38l-18.8 9.26c-1.03.5-1.74 1.36-1.95 2.5l-4.66 20.85c-.2.98-.05 1.95.5 2.82.05.1.1.16.2.27l13 16.68c.72.93 1.7 1.4 2.83 1.4h20.9c1.15 0 2.12-.47 2.83-1.4l13-16.68c.7-.92.98-2 .7-3.1l-4.65-20.85c-.2-1.13-.9-2-1.94-2.5l-18.8-9.25c-.6-.27-1.14-.43-1.74-.38zm0 1.46c.6-.05 1.1.06 1.63.33l17.88 8.77c.92.5 1.57 1.3 1.84 2.4l4.4 19.7c.2 1.1 0 2.06-.66 2.93l-12.35 15.82c-.65.87-1.57 1.35-2.65 1.35h-19.83c-1.08 0-2-.48-2.65-1.35l-12.35-15.82c-.06-.05-.1-.16-.17-.27-.54-.8-.7-1.68-.48-2.65l4.38-19.7c.28-1.1.87-1.9 1.85-2.4l17.87-8.77c.44-.22.82-.33 1.3-.38z" stroke="#000" stroke-opacity="0" stroke-width="3.83" fill="#fff"/><path d="M1424.4 499.02c0 1.6-.56 2.4-1.66 2.4-.7 0-1.15-.25-1.4-.8V503.16h-.74v-5.48c0-.47 0-.8-.02-.94h.72v.12c.02.07.02.18.03.33v.3h.03c.13-.3.3-.5.52-.63.22-.14.5-.2.86-.2.56 0 .97.2 1.24.57.27.38.4.98.4 1.8zm-.8 0c0-.63-.08-1.1-.24-1.36-.18-.28-.44-.42-.8-.42-.3 0-.53.07-.7.2-.17.12-.3.32-.38.6-.1.26-.13.62-.13 1.05 0 .6.1 1.04.28 1.33.2.3.5.43.9.43.38 0 .65-.14.82-.42.17-.28.26-.75.26-1.4zM1429.1 499.03c0 .8-.16 1.42-.5 1.8-.35.4-.86.6-1.5.6-.67 0-1.16-.2-1.5-.6-.33-.43-.5-1.02-.5-1.8 0-1.6.67-2.38 2-2.38.7 0 1.2.2 1.52.58.33.4.5 1 .5 1.8zm-.77 0c0-.63-.1-1.1-.28-1.38-.18-.3-.5-.43-.92-.43-.44 0-.76.14-.95.44-.2.3-.3.75-.3 1.37 0 .6.1 1.07.3 1.38.2.3.5.46.9.46.45 0 .77-.14.95-.44.2-.3.3-.76.3-1.4zM1432.86 500.6c-.13.3-.32.5-.55.64-.2.13-.5.2-.83.2-.57 0-.98-.2-1.25-.6-.26-.4-.4-1-.4-1.78 0-1.6.55-2.4 1.65-2.4.34 0 .62.05.85.18.22.13.4.33.54.6v-2.42h.75v5.37c0 .47.02.8.03.95h-.7c-.02-.05-.02-.16-.04-.32l-.02-.43zm-2.26-1.57c0 .65.1 1.1.25 1.4.17.27.44.4.8.4.43 0 .74-.14.93-.44.2-.32.28-.78.28-1.42 0-.6-.1-1.06-.28-1.34-.2-.28-.5-.43-.9-.43s-.66.16-.83.45c-.16.28-.25.74-.25 1.38z" stroke="#000" stroke-opacity="0" fill="#fff"/><path d="M1416.2 471.1l10.9-3.26 10.86 3.25-10.87 3.24zM1416.2 472.33v11.92l10.14 5.8.05-14.6zM1437.96 472.33v11.92l-10.13 5.8-.05-14.6z" stroke="#000" stroke-opacity="0" stroke-width="3.77" fill="#fff"/><use xlink:href="#i" transform="matrix(1,0,0,1,1370,516.1128031397684) translate(41.5 14.4)"/><path d="M1166.93 454.37c-.5.05-.92.15-1.33.36l-17.8 8.77c-.98.47-1.65 1.3-1.86 2.36l-4.4 19.76c-.22.92-.06 1.85.45 2.67.04.1.1.14.2.25l12.3 15.8c.68.87 1.6 1.34 2.68 1.34h19.8c1.1 0 2-.48 2.68-1.35l12.32-15.8c.66-.88.92-1.9.66-2.98l-4.4-19.7c-.22-1.08-.88-1.9-1.86-2.37l-17.8-8.77c-.57-.26-1.08-.4-1.65-.36z" stroke="#000" stroke-opacity="0" stroke-width="3.83" fill="#326ce5"/><path d="M1166.92 452.94c-.54.05-.97.16-1.4.38l-18.8 9.26c-1.03.5-1.74 1.36-1.95 2.5l-4.66 20.85c-.2.98-.05 1.95.5 2.82.05.1.1.16.2.27l13 16.68c.72.93 1.7 1.4 2.83 1.4h20.9c1.15 0 2.12-.47 2.83-1.4l13-16.68c.7-.92.98-2 .7-3.1l-4.65-20.85c-.2-1.13-.9-2-1.94-2.5l-18.8-9.25c-.6-.27-1.14-.43-1.74-.38zm0 1.46c.6-.05 1.1.06 1.63.33l17.88 8.77c.92.5 1.57 1.3 1.84 2.4l4.4 19.7c.2 1.1 0 2.06-.66 2.93l-12.35 15.82c-.65.87-1.57 1.35-2.65 1.35h-19.83c-1.08 0-2-.48-2.65-1.35l-12.35-15.82c-.06-.05-.1-.16-.17-.27-.54-.8-.7-1.68-.48-2.65l4.38-19.7c.28-1.1.87-1.9 1.85-2.4l17.87-8.77c.44-.22.82-.33 1.3-.38z" stroke="#000" stroke-opacity="0" stroke-width="3.83" fill="#fff"/><path d="M1164.4 499.02c0 1.6-.56 2.4-1.66 2.4-.7 0-1.15-.25-1.4-.8V503.16h-.74v-5.48c0-.47 0-.8-.02-.94h.72v.12c.02.07.02.18.03.33v.3h.03c.13-.3.3-.5.52-.63.22-.14.5-.2.86-.2.56 0 .97.2 1.24.57.27.38.4.98.4 1.8zm-.8 0c0-.63-.08-1.1-.24-1.36-.18-.28-.44-.42-.8-.42-.3 0-.53.07-.7.2-.17.12-.3.32-.38.6-.1.26-.13.62-.13 1.05 0 .6.1 1.04.28 1.33.2.3.5.43.9.43.38 0 .65-.14.82-.42.17-.28.26-.75.26-1.4zM1169.1 499.03c0 .8-.16 1.42-.5 1.8-.35.4-.86.6-1.5.6-.67 0-1.16-.2-1.5-.6-.33-.43-.5-1.02-.5-1.8 0-1.6.67-2.38 2-2.38.7 0 1.2.2 1.52.58.33.4.5 1 .5 1.8zm-.77 0c0-.63-.1-1.1-.28-1.38-.18-.3-.5-.43-.92-.43-.44 0-.76.14-.95.44-.2.3-.3.75-.3 1.37 0 .6.1 1.07.3 1.38.2.3.5.46.9.46.45 0 .77-.14.95-.44.2-.3.3-.76.3-1.4zM1172.86 500.6c-.13.3-.32.5-.55.64-.2.13-.5.2-.83.2-.57 0-.98-.2-1.25-.6-.26-.4-.4-1-.4-1.78 0-1.6.55-2.4 1.65-2.4.34 0 .62.05.85.18.22.13.4.33.54.6v-2.42h.75v5.37c0 .47.02.8.03.95h-.7c-.02-.05-.02-.16-.04-.32l-.02-.43zm-2.26-1.57c0 .65.1 1.1.25 1.4.17.27.44.4.8.4.43 0 .74-.14.93-.44.2-.32.28-.78.28-1.42 0-.6-.1-1.06-.28-1.34-.2-.28-.5-.43-.9-.43s-.66.16-.83.45c-.16.28-.25.74-.25 1.38z" stroke="#000" stroke-opacity="0" fill="#fff"/><path d="M1156.2 471.1l10.9-3.26 10.86 3.25-10.87 3.24zM1156.2 472.33v11.92l10.14 5.8.05-14.6zM1177.96 472.33v11.92l-10.13 5.8-.05-14.6z" stroke="#000" stroke-opacity="0" stroke-width="3.77" fill="#fff"/><use xlink:href="#i" transform="matrix(1,0,0,1,1110,516.1128031397684) translate(41.5 14.4)"/><path d="M906.93 454.37c-.5.05-.92.15-1.33.36l-17.8 8.77c-.98.47-1.65 1.3-1.86 2.36l-4.4 19.76c-.22.92-.06 1.85.45 2.67.04.1.1.14.2.25l12.3 15.8c.68.87 1.6 1.34 2.68 1.34h19.8c1.1 0 2-.48 2.68-1.35l12.32-15.8c.66-.88.92-1.9.66-2.98l-4.4-19.7c-.22-1.08-.88-1.9-1.86-2.37l-17.8-8.77c-.57-.26-1.08-.4-1.65-.36z" stroke="#000" stroke-opacity="0" stroke-width="3.83" fill="#326ce5"/><path d="M906.92 452.94c-.54.05-.97.16-1.4.38l-18.8 9.26c-1.03.5-1.74 1.36-1.95 2.5l-4.66 20.85c-.2.98-.05 1.95.5 2.82.05.1.1.16.2.27l13 16.68c.72.93 1.7 1.4 2.83 1.4h20.9c1.15 0 2.12-.47 2.83-1.4l13-16.68c.7-.92.98-2 .7-3.1l-4.65-20.85c-.2-1.13-.9-2-1.94-2.5l-18.8-9.25c-.6-.27-1.14-.43-1.74-.38zm0 1.46c.6-.05 1.1.06 1.63.33l17.88 8.77c.92.5 1.57 1.3 1.84 2.4l4.4 19.7c.2 1.1 0 2.06-.66 2.93l-12.35 15.82c-.65.87-1.57 1.35-2.65 1.35h-19.83c-1.08 0-2-.48-2.65-1.35l-12.35-15.82c-.06-.05-.1-.16-.17-.27-.54-.8-.7-1.68-.48-2.65l4.38-19.7c.28-1.1.87-1.9 1.85-2.4l17.87-8.77c.44-.22.82-.33 1.3-.38z" stroke="#000" stroke-opacity="0" stroke-width="3.83" fill="#fff"/><path d="M904.4 499.02c0 1.6-.56 2.4-1.66 2.4-.7 0-1.15-.25-1.4-.8V503.16h-.74v-5.48c0-.47 0-.8-.02-.94h.72v.12c.02.07.02.18.03.33v.3h.03c.13-.3.3-.5.52-.63.22-.14.5-.2.86-.2.56 0 .97.2 1.24.57.27.38.4.98.4 1.8zm-.8 0c0-.63-.08-1.1-.24-1.36-.18-.28-.44-.42-.8-.42-.3 0-.53.07-.7.2-.17.12-.3.32-.38.6-.1.26-.13.62-.13 1.05 0 .6.1 1.04.28 1.33.2.3.5.43.9.43.38 0 .65-.14.82-.42.17-.28.26-.75.26-1.4zM909.1 499.03c0 .8-.16 1.42-.5 1.8-.35.4-.86.6-1.5.6-.67 0-1.16-.2-1.5-.6-.33-.43-.5-1.02-.5-1.8 0-1.6.67-2.38 2-2.38.7 0 1.2.2 1.52.58.33.4.5 1 .5 1.8zm-.77 0c0-.63-.1-1.1-.28-1.38-.18-.3-.5-.43-.92-.43-.44 0-.76.14-.95.44-.2.3-.3.75-.3 1.37 0 .6.1 1.07.3 1.38.2.3.5.46.9.46.45 0 .77-.14.95-.44.2-.3.3-.76.3-1.4zM912.86 500.6c-.13.3-.32.5-.55.64-.2.13-.5.2-.83.2-.57 0-.98-.2-1.25-.6-.26-.4-.4-1-.4-1.78 0-1.6.55-2.4 1.65-2.4.34 0 .62.05.85.18.22.13.4.33.54.6v-2.42h.75v5.37c0 .47.02.8.03.95h-.7c-.02-.05-.02-.16-.04-.32l-.02-.43zm-2.26-1.57c0 .65.1 1.1.25 1.4.17.27.44.4.8.4.43 0 .74-.14.93-.44.2-.32.28-.78.28-1.42 0-.6-.1-1.06-.28-1.34-.2-.28-.5-.43-.9-.43s-.66.16-.83.45c-.16.28-.25.74-.25 1.38z" stroke="#000" stroke-opacity="0" fill="#fff"/><path d="M896.2 471.1l10.9-3.26 10.86 3.25-10.87 3.24zM896.2 472.33v11.92l10.14 5.8.05-14.6zM917.96 472.33v11.92l-10.13 5.8-.05-14.6z" stroke="#000" stroke-opacity="0" stroke-width="3.77" fill="#fff"/><use xlink:href="#i" transform="matrix(1,0,0,1,850.0000000000001,516.1128031397684) translate(41.5 14.4)"/><path d="M898.33 405.36l3 1.24 2.6 2 2 2.6 1.24 3 .42 3.2v19.17h-1v-19.1l-.4-3.02-1.15-2.75-1.83-2.4-2.4-1.83-2.75-1.14-3.02-.4H795.5v-1h99.62zm-210.74.58v-1h50.04v1z" fill="#666"/><path d="M687.6 405.94h-.54l.03-.5-.06-.5h.56zM907.1 451.33l-4.65-14.26h9.27z" fill="#666"/><path d="M907.1 452.95l-5.34-16.38h10.65zm-3.96-15.38l3.95 12.15 3.93-12.15zM1158.33 405.36l3 1.24 2.6 2 2 2.6 1.24 3 .42 3.2v19.17h-1v-19.1l-.4-3.02-1.15-2.75-1.83-2.4-2.4-1.83-2.75-1.14-3.02-.4H795.5v-1h359.62zm-470.74.58v-1h50.04v1z" fill="#666"/><path d="M687.6 405.94h-.54l.03-.5-.06-.5h.56zM1167.1 451.33l-4.65-14.26h9.27z" fill="#666"/><path d="M1167.1 452.95l-5.34-16.38h10.65zm-3.96-15.38l3.95 12.15 3.93-12.15zM1418.33 405.36l3 1.24 2.6 2 2 2.6 1.24 3 .42 3.2v19.17h-1v-19.1l-.4-3.02-1.15-2.75-1.83-2.4-2.4-1.83-2.75-1.14-3.02-.4H795.5v-1h619.62zm-730.74.58v-1h50.04v1z" fill="#666"/><path d="M687.6 405.94h-.54l.03-.5-.06-.5h.56zM1427.1 451.33l-4.65-14.26h9.27z" fill="#666"/><path d="M1427.1 452.95l-5.34-16.38h10.65zm-3.96-15.38l3.95 12.15 3.93-12.15z" fill="#666"/><use xlink:href="#j" transform="matrix(1,0,0,1,737.6437658905828,383.83561404596264) translate(0 14.4)"/><use xlink:href="#k" transform="matrix(1,0,0,1,737.6437658905828,383.83561404596264) translate(0 36)"/><path d="M660.5 1034.32h-1v-48.6h1zm0-70.2h-1v-515.2h1z" fill="#666"/><path d="M660.5 1034.4l-1 .83v-.92h1zM664.64 448.4h-9.28l4.64-14.26z" fill="#666"/><path d="M665.32 448.9h-10.64l5.32-16.38zm-9.27-1h7.9L660 435.77z" fill="#666"/><use xlink:href="#l" transform="matrix(1,0,0,1,635.5249998694959,964.1290416452439) translate(0 14.4)"/><path d="M826.67 982.85l-.42 3.22-1.24 3-1.98 2.6-2.6 2-3 1.23-3.2.42H672l-3 .4-2.76 1.14-2.4 1.83-1.82 2.38-1.14 2.76-.4 3v27.48h-1v-27.53l.42-3.22 1.24-3 2-2.6 2.6-2 3-1.24 3.2-.42h142.18l3.02-.4 2.75-1.14 2.4-1.83 1.84-2.4 1.14-2.74.4-3v-7.08h1zm-9.25-111.8l3 1.24 2.6 1.98 2 2.6 1.23 3 .42 3.2v71.04h-1v-70.96l-.4-3.02-1.13-2.75-1.84-2.4-2.4-1.84-2.74-1.14-3.02-.4h-11.58v-1h11.65zM660.5 1034.4l-1 .83v-.92h1zM802.06 875.76l-14.27-4.63 14.26-4.64z" fill="#666"/><path d="M802.56 876.45l-16.4-5.32 16.4-5.33zm-13.15-5.32l12.16 3.94v-7.9z" fill="#666"/><use xlink:href="#m" transform="matrix(1,0,0,1,801.698228,954.1161031833933) translate(0 14.4)"/><path d="M799.27 1060.5H682.4v-1h116.87zm149.93 0H848.22v-1H949.2z" fill="#666"/><path d="M682.4 1060.5h-.24l-.53-1h.78zM963.97 1060l-14.27 4.64v-9.28z" fill="#666"/><path d="M965.6 1060l-16.4 5.32v-10.64zm-15.4 3.95l12.15-3.95-12.15-3.95z" fill="#666"/><use xlink:href="#m" transform="matrix(1,0,0,1,799.2660305356749,1049.2) translate(0 14.4)"/><path d="M988.5 1020.85h-1V720.68h1zm-9.26-540.9l3 1.24 2.6 1.98 2 2.6 1.24 3 .42 3.2v185.5h-1V492.06l-.4-3.02-1.14-2.75-1.83-2.4-2.4-1.84-2.75-1.14-3-.4h-42.73v-1h42.78z" fill="#666"/><path d="M933.26 480.53h-.4l-.23-1h.63zM988 1035.6l-4.64-14.25h9.28z" fill="#666"/><path d="M988 1037.23l-5.32-16.38h10.64zm-3.95-15.38L988 1034l3.95-12.15z" fill="#666"/><use xlink:href="#n" transform="matrix(1,0,0,1,963.525,677.4802196102077) translate(3.4800000000000004 14.4)"/><use xlink:href="#o" transform="matrix(1,0,0,1,963.525,677.4802196102077) translate(0.004999999999999005 36)"/><path d="M1224 479.95l3 1.24 2.6 1.98 1.98 2.6 1.25 3 .42 3.2v556.05l-.42 3.2-1.25 3-2 2.6-2.6 2-3 1.25-3.2.42H1021.7v-1h199l3.03-.4 2.75-1.14 2.4-1.83 1.83-2.4 1.15-2.75.4-3V492.05l-.4-3.02-1.14-2.75-1.83-2.4-2.38-1.84-2.77-1.14-3.02-.4h-27.45v-1h27.53z" fill="#666"/><path d="M1193.26 480.53h-.4l-.23-1h.63zM1021.2 1064.64l-14.26-4.64 14.27-4.64z" fill="#666"/><path d="M1021.7 1065.32l-16.37-5.32 16.38-5.32zm-13.14-5.32l12.15 3.95v-7.9z" fill="#666"/><path d="M1484 479.95l3 1.24 2.6 1.98 1.98 2.6 1.25 3 .42 3.2v556.05l-.42 3.2-1.25 3-2 2.6-2.6 2-3 1.25-3.2.42H1021.7v-1h459l3.03-.4 2.75-1.14 2.4-1.83 1.83-2.4 1.15-2.75.4-3V492.05l-.4-3.02-1.14-2.75-1.83-2.4-2.38-1.84-2.77-1.14-3.02-.4h-27.45v-1h27.53z" fill="#666"/><path d="M1453.26 480.53h-.4l-.23-1h.63zM1021.2 1064.64l-14.26-4.64 14.27-4.64z" fill="#666"/><path d="M1021.7 1065.32l-16.37-5.32 16.38-5.32zm-13.14-5.32l12.15 3.95v-7.9z" fill="#666"/><path d="M790.77 529.4h-1.16c-2.1 0-6.07.2-9.65 3.33-8.64 7.48-10.62 18.46-25.4 24.42-12.3 4.9-27.46.26-27.46.26s13.5-.93 15.28-11.28c1.4-8.05-5.9-13.8-10.56-21.07-4.67-7.43-5.9-13.6-3.58-16.26 6.4-7.6 24 12.85 32.77 15.62 8.58 2.72 14.4-3.56 21.5-2.62 2.25.27 3.34 1.26 4.1 2.5.26.43.84 1.84 1.4 2.37.53.52 1.23.9 1.87 1.3.9.47 1.73 1.42.9 1.42z" stroke="#000" stroke-opacity="0" stroke-width=".05" fill="url(#p)"/><path d="M750.2 517.57c-2.12-1.62-4.3-3.3-6.47-4.86-.45-.3-.96-.67-1.4-1-5.84-3.96-11.15-6.42-14.1-2.9-2.3 2.65-1.08 8.82 3.66 16.25 0 .05.05.15.1.2 2.45 3.77 9.55 12.66 26.38 12.3 1.1-1.2 2.75-3.4 4.93-5.8-3.5-5.7-8.82-10.68-13.1-14.18z" stroke="#000" stroke-opacity="0" stroke-width=".05" fill="url(#q)"/><path d="M767.15 544.34c.06-2.56-.38-5.02-1.28-7.43-2.18.33-4.67.6-7.5.64-2.1 2.2-6.77 8-14.58 13.28-10.38 7-16.7 6.6-16.7 6.6s15.15 4.64 27.44-.27c4.42-1.78 7.68-4.03 10.37-6.48.4-.42 2.2-2.57 2.25-6.33z" stroke="#000" stroke-opacity="0" stroke-width=".05" fill="url(#r)"/><path d="M763.3 531.74c-2.17 2.4-3.83 4.6-4.92 5.8 2.82-.05 5.3-.3 7.5-.63-.27-.72-.52-1.4-.9-2.13-.45-1.04-1.03-2.04-1.67-3.03z" stroke="#000" stroke-opacity="0" stroke-width=".05" fill="url(#s)"/><path d="M775.92 522.6c-4.55 1.35-9.1 3.65-14.9 1.82-2.9-.9-6.73-3.7-10.83-6.85 4.28 3.5 9.6 8.47 13.1 14.17 3.2-3.56 7.56-7.58 12.62-9.15z" stroke="#000" stroke-opacity="0" stroke-width=".05" fill="url(#t)"/><path d="M765.87 536.9c.9 2.42 1.34 4.88 1.28 7.44-.06 3.76-1.86 5.9-2.24 6.33 6.22-5.76 8.97-12.7 15.05-17.94 1.1-1 2.24-1.67 3.4-2.14-3.98 1.6-8.26 4.9-17.48 6.3z" stroke="#000" stroke-opacity="0" stroke-width=".05" fill="url(#u)"/><path d="M790.77 529.4c.83 0 0-.96-.9-1.43-.64-.4-1.34-.78-1.86-1.3-.56-.53-1.14-1.94-1.4-2.36-.76-1.24-1.85-2.23-4.1-2.5-2.3-.3-4.4.16-6.58.8-5.06 1.6-9.4 5.58-12.6 9.14.63 1 1.2 2 1.65 3.03.4.73.64 1.4.9 2.14 9.22-1.4 13.5-4.7 17.47-6.3 2.5-1.1 4.87-1.2 6.27-1.2z" stroke="#000" stroke-opacity="0" stroke-width=".05" fill="url(#v)"/><path d="M743.8 550.82c7.8-5.28 12.47-11.08 14.58-13.28-16.83.37-23.93-8.52-26.37-12.28 4.62 7.16 11.8 12.86 10.45 20.86-1.8 10.35-15.36 11.3-15.36 11.3s6.32.4 16.7-6.6z" stroke="#000" stroke-opacity="0" stroke-width=".05" fill="url(#w)"/><path d="M782 524.3c.77 0 1.34.6 1.34 1.32 0 .73-.57 1.36-1.34 1.36-.7 0-1.35-.63-1.35-1.36 0-.73.64-1.3 1.35-1.3z" stroke="#000" stroke-opacity="0" stroke-width=".05" fill="#fff"/><path d="M699.1 567.1h120v41.48h-120z" stroke="#000" stroke-opacity="0" stroke-width="2" fill="#fff" fill-opacity="0"/><use xlink:href="#x" transform="matrix(1,0,0,1,704.0866141732283,572.1128031397691) translate(23.574999999999996 20.4)"/><path d="M879.45 559.9H759.6v-1h119.85zm28.14-12.47l-.17 1.17h-1l.16-1.24V523.5h1zM759.6 559.9h-3.5v-1h3.5zM911.72 523h-9.27l4.64-14.27z" fill="#666"/><path d="M912.4 523.5h-10.64l5.33-16.4zm-9.26-1h7.9l-3.95-12.15zM879.45 559.9H759.6v-1h119.85zm288.14-12.47l-.43 3.2-1.25 3-2 2.6-2.6 2-3 1.25-3.2.42H969.2v-1h185.85l3.02-.4 2.76-1.14 2.4-1.83 1.82-2.4 1.14-2.75.4-3.02V523.5h1zM759.6 559.9h-3.5v-1h3.5zM1171.72 523h-9.27l4.64-14.27z" fill="#666"/><path d="M1172.4 523.5h-10.64l5.33-16.4zm-9.26-1h7.9l-3.95-12.15zM879.45 559.9H759.6v-1h119.85zm548.14-12.47l-.43 3.2-1.25 3-2 2.6-2.6 2-3 1.25-3.2.42H969.2v-1h445.85l3.02-.4 2.76-1.14 2.4-1.83 1.82-2.4 1.14-2.75.4-3.02V523.5h1zM759.6 559.9h-3.5v-1h3.5zM1431.72 523h-9.27l4.64-14.27z" fill="#666"/><path d="M1432.4 523.5h-10.64l5.33-16.4zm-9.26-1h7.9l-3.95-12.15z" fill="#666"/><use xlink:href="#y" transform="matrix(1,0,0,1,879.4498991377795,548.5973095842143) translate(0 14.4)"/><use xlink:href="#z" transform="matrix(1,0,0,1,879.4498991377795,548.5973095842143) translate(56.800000000000004 14.4)"/><path d="M214.44 761.78H193.7c-.95 0-1.7-.76-1.7-1.7v-2.54c0-9.48 6.23-17.44 15.5-19.67.4-.1.8-.04 1.2.17 2.73 1.46 5.68 1.46 8.4 0 .4-.2.8-.26 1.22-.17 2.43.6 4.43 1.47 6.5 2.85l-1.9 2.83c-1.55-1-3-1.68-4.8-2.15-3.45 1.58-7 1.58-10.43 0-7.4 2.06-12.3 8.5-12.3 16.14v.84h19.04z" stroke="#fff" stroke-opacity="0" fill="#232f3e"/><path d="M212.88 742.46c-6.17 0-11.17-5-11.17-11.14 0-6.16 5-11.15 11.18-11.15 6.16-.07 11.2 4.88 11.26 11 .04 4.27-2.1 7.9-5.86 9.9-1.72.97-3.4 1.4-5.4 1.4zm0-18.9c-4.3 0-7.83 3.45-7.85 7.76 0 2.92 1.48 5.4 4.06 6.8 2.43 1.3 5.12 1.3 7.57 0 2.6-1.4 4.1-3.95 4.06-6.9-.05-4.27-3.57-7.68-7.85-7.64zM270.32 761.78h-20.75v-3.4h19.04v-.83c0-7.67-4.9-14.1-12.25-16.17-3.45 1.6-7 1.6-10.46 0-1.82.5-3.3 1.2-4.84 2.28l-1.94-2.8c2.07-1.44 4.08-2.35 6.5-2.97.44-.1.86-.06 1.26.16 2.7 1.46 5.7 1.46 8.42 0 .4-.22.8-.27 1.2-.17 9.25 2.22 15.5 10.16 15.5 19.65v2.53c0 .94-.76 1.68-1.68 1.7z" stroke="#fff" stroke-opacity="0" fill="#232f3e"/><path d="M251.08 742.46c-6.2 0-11.23-5.05-11.23-11.25s5.06-11.2 11.28-11.2c6.2 0 11.23 5.05 11.23 11.25 0 4.23-2.14 7.82-5.85 9.84-1.75.94-3.44 1.36-5.42 1.36zm0-18.9c-4.3 0-7.8 3.45-7.83 7.76-.02 2.92 1.46 5.42 4.05 6.8 2.43 1.3 5.13 1.3 7.6 0 2.62-1.4 4.13-3.97 4.08-6.96-.1-4.26-3.62-7.68-7.9-7.6zM259.2 800h-54.46c-.92 0-1.67-.75-1.67-1.7v-3.6c-.06-13.1 8.6-24.1 21.32-27.18.46-.13.86-.06 1.27.13 4.04 2.18 8.5 2.18 12.6 0 .34-.2.75-.26 1.2-.13 12.78 3.06 21.45 14.06 21.4 27.18v3.6c0 .95-.76 1.7-1.68 1.7zm-52.72-3.38h50.97v-1.92c0-11.27-7.28-20.74-18.2-23.66-4.8 2.3-9.83 2.3-14.62 0-10.93 2.92-18.15 12.4-18.15 23.66z" stroke="#fff" stroke-opacity="0" fill="#232f3e"/><path d="M232.02 772.64c-2.7 0-5-.58-7.4-1.86-7.4-4.07-10.13-13.34-6.1-20.77 4.1-7.4 13.38-10.12 20.83-6.08 7.42 4.07 10.15 13.34 6.1 20.77-1.47 2.68-3.4 4.6-6.1 6.08-2.36 1.28-4.66 1.86-7.33 1.86zm0-26.76c-4.44-.06-8.28 2.17-10.42 6.1-3.07 5.64-.98 12.74 4.7 15.83 3.67 1.97 7.7 1.97 11.4 0 3.95-2.13 6.22-5.95 6.16-10.42-.1-6.42-5.4-11.6-11.84-11.5z" stroke="#fff" stroke-opacity="0" fill="#232f3e"/><path d="M270.78 761.78h-39.72c-.68 0-1.23-.54-1.23-1.23v-2.64c-.04-9.53 6.3-17.56 15.56-19.8.33-.1.63-.06.92.08 2.95 1.6 6.2 1.6 9.2 0 .25-.14.54-.2.88-.1 9.32 2.24 15.64 10.27 15.6 19.83v2.65c0 .7-.55 1.23-1.22 1.23zm-38.46-2.47h37.2v-1.4c0-8.2-5.32-15.1-13.3-17.25-3.5 1.7-7.16 1.7-10.66 0-7.97 2.14-13.24 9.05-13.24 17.26z" stroke="#fff" stroke-opacity="0" stroke-width=".73" fill="#fff" fill-opacity="0"/><path d="M232.94 761.78h-39.72c-.67 0-1.22-.54-1.22-1.23v-2.64c-.04-9.53 6.28-17.56 15.56-19.8.34-.1.63-.06.93.08 2.94 1.6 6.2 1.6 9.18 0 .25-.14.55-.2.88-.1 9.32 2.24 15.65 10.27 15.6 19.83v2.65c0 .7-.54 1.23-1.22 1.23zm-38.45-2.47h37.18v-1.4c0-8.2-5.3-15.1-13.28-17.25-3.5 1.7-7.17 1.7-10.67 0-7.97 2.14-13.24 9.05-13.24 17.26z" stroke="#fff" stroke-opacity="0" stroke-width=".73" fill="#fff" fill-opacity="0"/><use xlink:href="#A" transform="matrix(1,0,0,1,162,809) translate(53.5 14.4)"/><path d="M206.72 334.43H200V300.8c0-3.5 1.4-5.56 2.62-6.7 2.63-2.6 6.2-2.67 6.8-2.67h10.48c3.78 0 5.96 1.53 7.17 2.78 2.3 2.57 2.37 5.9 2.3 6.76v12.68c0 3.65-1.47 5.82-2.75 6.97-2.56 2.4-5.88 2.46-6.72 2.46h-13.18zm13.44-18.12c.38 0 1.34-.05 1.92-.6.38-.37.64-1.08.64-2.1v-13.02c0-.33-.13-1.3-.64-1.85-.5-.5-1.4-.6-2.18-.6h-10.56c-2.62 0-2.62 1.96-2.62 2.66v15.5zm37.12-36.3H264v33.7c0 3.42-1.4 5.55-2.62 6.7-2.63 2.55-6.2 2.66-6.8 2.66H244.1c-3.78 0-5.96-1.53-7.17-2.83-2.3-2.56-2.37-5.83-2.3-6.7v-12.68c0-3.65 1.47-5.83 2.75-7.02 2.56-2.4 5.88-2.45 6.72-2.4h13.18zm-13.44 18.13c-.38 0-1.34.1-1.92.6-.38.38-.64 1.08-.64 2.12v13c0 .4.13 1.3.64 1.86.5.55 1.4.6 2.18.6h10.56c2.68 0 2.68-1.95 2.68-2.66v-15.5z" stroke="#000" stroke-opacity="0" fill="#25c151"/><path d="M176 340h112v28H176z" stroke="#000" stroke-opacity="0" stroke-width="2" fill="#fff" fill-opacity="0"/><use xlink:href="#B" transform="matrix(1,0,0,1,181,345) translate(11.524999999999999 14.4)"/><path d="M232.5 725.78h-1V534.54h1zm0-212.84h-1V368.5h1zM232.5 368.5h-1v-.5h1zM232 740.54l-4.64-14.26h9.28z" fill="#666"/><path d="M232 742.16l-5.32-16.38h10.64zm-3.95-15.38l3.95 12.15 3.95-12.15z" fill="#666"/><use xlink:href="#C" transform="matrix(1,0,0,1,209.05,512.942174519603) translate(0 14.4)"/><path d="M581.24 759.92l3 1.24 2.6 2 2 2.6 1.24 3 .42 3.2v87.13l.4 3 1.14 2.76 1.83 2.4 2.4 1.83 2.75 1.13 3 .4h113.6v1H601.97l-3.2-.43-3-1.24-2.6-2-2-2.6-1.25-3-.42-3.2v-87.13l-.4-3-1.14-2.77-1.83-2.4-2.4-1.82-2.75-1.14-3-.4h-225.6v-1h225.65zm-308.74.58v-1h41.34v1zM272.5 760.5h-.5v-1h.5zM730.38 871.13l-14.26 4.63v-9.27z" fill="#666"/><path d="M732 871.13l-16.38 5.32V865.8zm-15.38 3.94l12.14-3.94-12.14-3.95z" fill="#666"/><use xlink:href="#D" transform="matrix(1,0,0,1,313.8376957377341,749.2) translate(0 14.4)"/><path d="M759.6 827.66h-1V702.44h1zm0-168.42h-1V559.9h1zM759.6 559.9h-1v-3.5h1zM759.1 842.42l-4.65-14.26h9.27z" fill="#666"/><path d="M759.1 844.04l-5.34-16.38h10.65zm-3.96-15.38l3.95 12.14 3.93-12.14z" fill="#666"/><use xlink:href="#E" transform="matrix(1,0,0,1,734.5866141732283,659.2435445692493) translate(0.004999999999999005 14.4)"/><use xlink:href="#F" transform="matrix(1,0,0,1,734.5866141732283,659.2435445692493) translate(8.029999999999998 36)"/><path d="M686.98 1056.8c-.06-.86-.22-1.95-.54-3.08-.33-1.14-.82-2.44-1.57-3.74-.7-1.3-1.63-2.66-2.82-4-.5-.55-.98-1.04-1.52-1.53.8-3.03-1.03-5.63-1.03-5.63-3.14-.22-5.14.87-5.9 1.35-.17 0-.27-.05-.38-.1-.54-.22-1.1-.38-1.68-.6-.54-.16-1.14-.27-1.73-.44l-1.84-.32c-.1 0-.2 0-.32-.04-1.36-4.07-5.3-5.75-5.3-5.75-4.45 2.6-5.27 6.2-5.27 6.2s-.05.1-.05.2c-.27.06-.5.17-.76.22-.32.06-.65.22-.97.33-.34.1-.66.2-1.04.38-.65.27-1.3.54-1.95.86-.64.32-1.24.7-1.83 1.08-.1-.06-.17-.06-.17-.06-6.17-2.16-11.6.44-11.6.44-.48 5.96 2.45 9.75 3.04 10.45-.16.4-.27.77-.38 1.1-.48 1.4-.8 2.76-1.02 4.22 0 .22-.06.43-.06.6-5.7 2.6-7.37 7.85-7.37 7.85 4.73 5.04 10.25 5.3 10.25 5.3.7 1.15 1.52 2.23 2.44 3.26.37.43.75.87 1.18 1.25-1.73 4.55.22 8.34.22 8.34 5.25.16 8.72-2.17 9.48-2.65.5.16 1.03.32 1.57.43 1.62.38 3.25.6 4.93.65.43 0 .8.05 1.25 0h.8c2.5 3.25 6.82 3.74 6.82 3.74 3.15-3 3.3-5.97 3.3-6.62v-.06-.1-.1c.66-.45 1.25-.88 1.85-1.37 1.26-1.03 2.34-2.22 3.26-3.52.05-.1.16-.22.22-.32 3.52.17 6-2 6-2-.6-3.36-2.7-4.98-3.13-5.3l-.06-.06c0-.06-.06-.06-.1-.06.04-.2.04-.37.04-.6.05-.37.05-.75.05-1.08V1065.42v-.33l-.06-.33v-.27c-.05-.06-.05-.17-.05-.27l-.07-.28v-.32c-.1-.33-.16-.7-.27-1.08-.38-1.47-.97-2.82-1.8-4.07-.8-1.24-1.77-2.33-2.9-3.25-1.15-.92-2.45-1.68-3.8-2.22-1.3-.53-2.7-.9-4.12-1.07-.7-.06-1.4-.1-2.06-.1h-.53l-.27.04h-.27c-.38 0-.7.06-1.03.1-1.4.28-2.7.72-3.9 1.37-1.14.65-2.12 1.46-2.93 2.33-.8.92-1.46 1.9-1.9 2.92-.43 1.02-.7 2.1-.75 3.13v1.19c0 .1 0 .2.04.37.06.5.16 1.03.27 1.47.34.97.82 1.9 1.42 2.6.6.76 1.35 1.35 2.1 1.9.77.43 1.58.8 2.4 1.02.8.2 1.62.32 2.38.32H665.63c.06 0 .1 0 .17-.06h.27l.1-.05h.1c.12 0 .23 0 .28-.04.1 0 .22 0 .28-.06.2 0 .38-.05.54-.1.32-.12.65-.22.92-.4.26-.1.53-.26.8-.42l.16-.16c.27-.16.33-.54.1-.76-.15-.22-.48-.27-.75-.16-.04.05-.1.05-.15.1-.27.1-.5.17-.7.28-.27.05-.54.1-.76.16-.17 0-.28.05-.45.05H665.74 665.52c-.1-.06-.17-.06-.22-.06-.64-.06-1.24-.22-1.78-.5-.6-.2-1.14-.53-1.62-.96-.55-.44-.98-.93-1.3-1.47-.33-.58-.6-1.18-.7-1.83-.06-.32-.06-.7-.06-1.03v-.27c0 .06 0 0 0 0v-.11c0-.05.05-.1.05-.16 0-.16 0-.32.05-.5.27-1.45 1.08-2.86 2.27-3.9.27-.26.6-.53.98-.75.32-.2.7-.43 1.08-.6.38-.15.76-.26 1.2-.37.42-.1.8-.16 1.24-.22h1.35c.5 0 .92.1 1.36.16.92.22 1.84.55 2.65.93 1.68.86 3.1 2.16 3.9 3.73.5.82.76 1.68.92 2.55 0 .22.06.43.06.65l.05.16V1065.62c-.04.27-.04.5-.1.76 0 .2-.05.48-.1.7-.06.27-.1.48-.17.7-.16.5-.32.92-.5 1.4-.42.88-.9 1.74-1.56 2.56-1.24 1.57-2.92 2.87-4.87 3.68-.98.38-2 .7-3.04.87-.54.06-1.08.1-1.62.1H664.35h-.11c-.28 0-.55 0-.82-.04-1.12-.05-2.26-.22-3.35-.54-1.13-.27-2.16-.65-3.2-1.14-1.94-.97-3.78-2.33-5.14-3.95-.7-.82-1.34-1.68-1.83-2.6-.5-.92-.92-1.9-1.2-2.88-.26-.97-.48-1.95-.53-2.97V1061.25v-.12-.38c0-.5.05-1.03.1-1.52.06-.54.17-1.03.28-1.57.1-.5.2-.97.37-1.52.32-.97.7-1.95 1.2-2.87.9-1.84 2.1-3.46 3.56-4.76.33-.33.7-.6 1.1-.93.36-.28.8-.55 1.23-.82l1.24-.65c.2-.1.43-.22.7-.32.1-.05.22-.05.33-.1l.32-.16c.48-.17.9-.33 1.4-.44.1-.05.27-.05.38-.1.1-.06.22-.06.32-.1l.76-.18c.1 0 .22-.05.38-.05.1-.06.22-.06.38-.1.1 0 .22 0 .38-.06h.16l.17-.05c.16 0 .27 0 .37-.05h.44c.1-.06.32-.06.43-.06.06-.05.16-.05.27-.05h.32c.17-.06.28-.06.44-.06h.22s.05 0 0 0h.55c.42-.06.9-.06 1.4 0 .92 0 1.84.1 2.76.27 1.8.33 3.47.82 5.04 1.52 1.52.7 2.87 1.57 4.06 2.5.1.05.16.1.22.16.1.05.16.1.2.16.18.1.3.27.45.38.16.1.27.22.43.32.1.17.22.28.38.38.5.5 1 1.03 1.42 1.52.8.98 1.52 2 2.06 2.98 0 .05.05.1.05.16.06.06.1.1.1.17.06.16.17.27.17.37.1.1.17.22.22.33l.16.38c.16.43.38.87.54 1.24.22.65.38 1.25.55 1.8.05.15.27.32.48.26.27 0 .44-.16.44-.38 0-.54 0-1.2-.12-1.95z" stroke="#000" stroke-opacity="0" fill="url(#G)"/><path d="M612 1100h96v24h-96z" stroke="#000" stroke-opacity="0" stroke-width="2" fill="#fff" fill-opacity="0"/><use xlink:href="#H" transform="matrix(1,0,0,1,617,1105) translate(10.524999999999999 14.4)"/><path d="M232.5 1054.74l.4 3.02 1.14 2.75 1.83 2.4 2.4 1.83 2.75 1.15 3 .4h35.78v1h-35.83l-3.2-.43-3-1.24-2.6-2-2-2.58-1.25-3-.42-3.22V800.5h1zm384.03 11.53v1H318.35v-1zM232.5 800.5h-1v-.5h1zM631.3 1066.77l-14.27 4.64v-9.26z" fill="#666"/><path d="M632.9 1066.77l-16.37 5.33v-10.65zm-15.37 3.95l12.15-3.95-12.15-3.95z" fill="#666"/><use xlink:href="#D" transform="matrix(1,0,0,1,279.79586600000005,1055.9716538267717) translate(0 14.4)"/><path d="M1000.46 1046.47s3.9 1.62 6.4 21.9c0 0-3.64 1.43-1.42 3.85s2.55 6.95 2.55 6.95-13.23 1.93-36.14.3c0 0-9.2-18.8-5.58-25.3l6 .18s8.73 4.4 8.35-.24c0 0 1.63-.18 1.9-.3.22-.13 2.1 3.47 7.15-2.55 0 0 7.85-3.04 10.62-4.72zm-29.96 3.42s-2.38-6.84-5.36-5.4c-3.03 1.4.22 6.56 1.03 7.62 0 0 2.6-1.68 4.33-2.23z" stroke="#000" stroke-opacity="0" stroke-width=".38" fill="#60d0e4"/><path d="M990.38 1084.7c-.32-.5-.97-.44-1.68-.56-.43-.06-1.46-.2-1.46-.75-.05-.63.87-.8 1.46-.94 1.47-.3 2.88-.25 4.6-.25.77 0 1.74.08 1.85.57.06.38-.27.7-.6.87-.2.2-.75.37-.75.75 0 .6 1.2.48.92 1.4-.1.4-.7.57-1.14.7-1.4.37-3.1.55-4.7.68-1.48.12-3.37.37-5.1.12-.55-.06-1.2-.25-1.2-.56-.05-.62.87-.74 1.36-.86 1.4-.2 2.7-.07 4.22-.2 1.1 0 2.12 0 2.22-.98zm-14.95.25c1.03-.07 2.5 0 3.52.24.27.06.76.18.76.43 0 .3-.64.43-1.02.56-2.16.54-4.4.73-6.82.98-.44.06-.87.12-1.36.25-.27.06-.97.25-.92.56 0 .42 1.14.3 1.57.36.6.06 1.3.12 1.36.56.1.74-1.35.74-2.1.8-1.96.13-3.7.07-5.53-.18-.38 0-.8-.13-1.2-.25-.32-.14-.8-.32-.8-.63 0-.5.75-.68 1.13-.75 1.52-.37 3.2-.5 4.82-.87.98-.18 2-.62 2.82-.93.87-.37 1.73-.8 2.65-1.1.37-.07.64-.07 1.13-.14zm18.96 1.55c.2 0 .86 0 .86.3 0 .5-1.46.5-1.46.07-.06-.3.32-.3.6-.37zm-1.9.37c.32 0 .8 0 .86.37 0 .5-1.5.44-1.46 0 0-.25.27-.3.6-.37zm-2.22.43c.1 0 .43-.06.7 0 .1 0 .43.13.43.25.07.25-.47.37-.7.37-.42.07-1.24 0-1.3-.3 0-.25.6-.32.88-.32zm-2.98.2c.37 0 1.2 0 1.2.36 0 .56-1.8.56-1.85.06 0-.3.37-.37.65-.43zm-3.47.05c.32 0 .6 0 .92.06.16 0 .65.14.7.4 0 .36-1.2.48-1.73.42-.38 0-1.03-.2-1.03-.43 0-.26.37-.32.48-.32.22-.13.38-.13.65-.13zm-21.3.93c-.1.3-1.18.5-1.62.25.23-.37 1.15-.43 1.64-.25zm.23.56c-.28.43-1.3.56-1.85.3.28-.36 1.37-.55 1.86-.3zm.43.56c-.28.37-1.3.56-1.85.3.2-.43 1.46-.6 1.84-.3zm1.94.3c-.22.44-1.52.63-1.95.26.2-.44 1.45-.62 1.94-.25zm1.52.07c.32 0 .92-.06 1.2.06.58.2.15.5-.34.56-.43.12-.92.18-1.5.18-.3-.06-.72-.13-.77-.3 0-.2.43-.32.6-.38.32-.07.53-.13.8-.13zm4.6.25c-.05.3-.43.43-.76.56-.38.12-.76.18-1.14.25-.27 0-.75 0-.8-.2-.06-.24.53-.5.7-.55.43-.12.8-.18 1.13-.25.32 0 .7 0 .86.2zm19.02-44c.05 0 0 .07 0 .07-1.52 1.66-2.93 3.52-4.72 5.07-.2.13-.6.5-.86.5-.17 0-.38-.25-.55-.3-.97-.38-1.95.36-1.95 1.42-.32.1-.7.17-1.13.17-.38.07-.82.13-1.2.13-.27-.06-.48-.2-.86-.13-.16 0-.26.13-.48.13-.33.06-.8-.06-1.2-.13-2.38-.55-4.5-1.86-6.82-2.35.27-.2.65-.25.98-.38.05-.12-.1-.3-.06-.43 5.64.63 10.5-.74 14.68-2.1 1.47-.5 2.88-1.12 4.18-1.68z" stroke="#000" stroke-opacity="0" stroke-width=".38"/><path d="M986.1 1047.9c-4.17 1.36-9.04 2.73-14.68 2.1-.05.13.1.32.06.38-.33.2-.7.25-.98.44 2.33.5 4.44 1.8 6.83 2.35.38.07.86.2 1.2.13.2 0 .3-.13.48-.13.4-.06.6.07.87.13.38 0 .82-.06 1.2-.13.43 0 .8-.06 1.13-.18 0-1.07.98-1.8 1.95-1.44.17.06.38.3.55.3.27 0 .65-.36.86-.5 1.8-1.54 3.2-3.4 4.72-5.07 0 0 .05-.08 0-.08-1.3.56-2.7 1.18-4.18 1.68z" stroke="#000" stroke-opacity="0" stroke-width=".38" fill="#638b18"/><path d="M988.16 1085.7c-1.5.05-2.8 0-4.22.18-.5.06-1.4.24-1.36.86 0 .3.65.5 1.2.56 1.73.25 3.57 0 5.1-.12 1.6-.13 3.3-.3 4.7-.68.43-.13 1.03-.3 1.14-.7.27-.92-.92-.8-.92-1.4 0-.4.54-.57.75-.76.33-.18.66-.5.6-.87-.1-.56-1.08-.56-1.84-.56-1.72 0-3.2-.05-4.6.26-.6.13-1.5.3-1.46.93 0 .55 1.03.68 1.46.74.7.12 1.36.06 1.68.56-.1 1-1.13 1-2.22 1zm-13.87-.7c-.93.32-1.8.75-2.66 1.12-.8.3-1.84.75-2.82.93-1.62.38-3.3.5-4.82.87-.38.07-1.14.25-1.14.75 0 .3.5.5.82.62.38.1.8.24 1.2.24 1.83.25 3.56.3 5.5.18.77-.06 2.23-.06 2.13-.8-.05-.44-.75-.5-1.35-.56-.43-.06-1.57.06-1.57-.37-.05-.32.65-.5.92-.57.5-.13.92-.2 1.36-.25 2.43-.25 4.66-.44 6.82-1 .38-.12 1.03-.24 1.03-.55 0-.25-.48-.37-.75-.44-1.03-.25-2.5-.32-3.52-.25-.5 0-.76 0-1.14.06zm19.5 1.87c0 .43 1.46.43 1.46-.06 0-.3-.65-.3-.87-.3-.28.06-.66.06-.6.37zm-1.9.37c-.05.44 1.46.5 1.46 0-.05-.37-.54-.37-.86-.3-.33 0-.6.05-.6.3zm-2.5.37c.06.32.88.4 1.3.32.23 0 .77-.12.7-.37 0-.12-.37-.25-.42-.25-.27-.06-.6-.06-.7 0-.28 0-.87.07-.87.3zm-2.75.32c.05.5 1.84.5 1.84-.06 0-.37-.83-.37-1.2-.37-.28.05-.65.1-.65.42zm-3.47-.24c-.1 0-.5.06-.5.3 0 .32.66.44 1.04.44.54.06 1.73-.06 1.73-.43 0-.26-.54-.4-.7-.4-.33-.05-.6-.05-.92-.05-.27 0-.43 0-.65.13zm-22.27 1.05c.45.25 1.53.06 1.64-.25-.5-.18-1.4-.12-1.63.25zm0 .62c.56.25 1.58.12 1.86-.3-.5-.26-1.58-.07-1.85.3zm.45.56c.54.26 1.57.07 1.84-.3-.4-.3-1.64-.13-1.85.3zm1.84.26c.42.37 1.72.18 1.94-.25-.5-.36-1.73-.18-1.95.26zm2.64-.06c-.16.06-.6.18-.6.37.06.18.5.25.77.3.6 0 1.1-.05 1.52-.18.5-.13.92-.38.33-.57-.27-.12-.87-.06-1.2-.06-.27 0-.48.06-.8.13zm4.55-.07c-.33.07-.7.13-1.14.25-.17.06-.76.3-.7.56.05.2.53.2.8.2.38-.08.76-.14 1.14-.26.33-.13.7-.25.76-.56-.16-.2-.54-.2-.87-.2z" stroke="#000" stroke-opacity="0" stroke-width=".38"/><path d="M990 1042.63c-13.7 5.95-20.58 3.35-20.58 3.35l1.62 3.22c9.8 1.12 19.9-4.15 19.9-4.15l.47-1.37s-.8.2-1.3-1.12z" stroke="#000" stroke-opacity="0" stroke-width=".38" fill="#e1caa2"/><path d="M990.98 1038.65l-.16-.62s-11.05-4.28-13.55-2.98c0 0-5.74 3.6-8.12 7.2l-.06 2.8s6.82 2.85 20.85-3.3c0 0-.22-1.67 1.03-3.1z" stroke="#000" stroke-opacity="0" stroke-width=".38" fill="#638b18"/><path d="M991.85 1042.7c-.17.1-.33.24-.5.17-.48-.12-.75-1.05-.53-2.17.2-1.05.8-1.86 1.3-1.8.48.13.7 1 .54 2.05 0 0-.54 1-.76 1.68z" stroke="#000" stroke-opacity="0" stroke-width=".38"/><path d="M998.62 1037.6s-2.5-1.68-5.15 1.98c0 0-.38-2.17-2.17-1.24 0 0 .38-3.1.1-3.6 0 0 .72.25.93.7 0 0 1.85-1.75 1.74-4.3 0 0 .48.13.48.75 0 0 .66-1.56 1.36-2.37l.06-.06c2.7-2.36.22 4.65.22 4.65s-.16.3-.32.5c-.1.2 1.3-.43 1.3-1-.06-.55.16.75 0 1 0 0 2.32-1.86 2.38-2.85 0 0 .38.74.27 1.36 0 0 2.12-1.6 2.18-2.36 0 0 .27 4.04-3.74 5.6 0 0 .65 0 1.46-.2z" stroke="#000" stroke-opacity="0" stroke-width=".38" fill="#e1caa2"/><path d="M999.97 1042.38s8.34-1.86 3.9 1.18l-5.1 2.85s.88-1.35 1.2-4.02zm-1.35 4.1l-7.7 3.4s2.4-2.04 1.58-3.16c0 0 4.06-.62 6.12-.25z" stroke="#000" stroke-opacity="0" stroke-width=".38" fill="#638b18"/><path d="M991.47 1045.9c2.16-5.88 3.2-6.56 3.2-6.56 1.02-1.12 2.32-1.55 3.3-1.12.86.37 1.35 1.43 1.35 2.67v.05s-.16 2.98-.97 4.65c0 0-3.14-.43-6.5.44z" stroke="#000" stroke-opacity="0" stroke-width=".38" fill="#60d0e4"/><path d="M994.5 1043.25s1.68-3.3 2.7-2.55c0 0 .28.3-.37 2.48 0 0 2.65-3.3-.1-3.35 0 0-1.9-.06-2.23 3.42zm-25.95 6.57s-2.22-3.35-2.44-2.66c0 0 .18 1.8.23 2.1 0 0-1.68-1.98-.54-2.85 0 0 2.6 1.8 2.75 3.42z" stroke="#000" stroke-opacity="0" stroke-width=".38"/><path d="M965.95 1053.17h.1s1.3-.93 1.64-1.05c0 0-.45 1.36 1.77 1.36 0 0-5.8.3-7.64-1.3 0 0-.16-.68 2.33-1.8 0 0 1.47 2.6 1.8 2.8z" stroke="#000" stroke-opacity="0" stroke-width=".38" fill="#638b18"/><path d="M973.8 1054.04c-2.5-1.1-4.38-1.42-4.38-1.42h-.06c-.37 0-.7-.25-.7-.56 0-.3.33-.56.7-.56h.1s1.85.3 4.73 1.5l.3.1c2.67 1 3.75 1.07 3.75 1.07h.54c.04-.06.32-.2.32-.2.37 0 .7.32.7.63 0 .3-.54.62-.92.68 0 0-1.95.13-5-1.17zm18-6.64v-.12c0-.3-.22-.5-.55-.5h-.22l-2.16 2.42c-.92 1-3.1 3.42-4 3.54l-.55.06c-.06-.12-.27-.3-.27-.3-.17-.13-.38-.2-.55-.13-.32.06-.48.43-.38.74.06.2.1.26.22.38 0 0 1.52 1.56 4.17-1.24l2.83-2.98s1.35-1.48 1.46-1.8z" stroke="#000" stroke-opacity="0" stroke-width=".38"/><path d="M996.34 1058.2c0 2.92-2.33 5.27-5.25 5.27-2.94 0-5.32-2.35-5.32-5.27 0-2.92 2.38-5.27 5.3-5.27 2.93 0 5.26 2.35 5.26 5.27zm-16.36 3.85c0 2.9-2.38 5.27-5.3 5.27-2.93 0-5.26-2.36-5.26-5.27 0-2.92 2.33-5.28 5.25-5.28 2.93 0 5.3 2.36 5.3 5.28zm4.4 8.44c.15.8.48 2.47 1.56 2.28 1.14-.12.7-2.36.7-2.36s-1.9-.06-2.1 0zm-.66.24s-1.03.43-1.84.93c0 0 .43 2.1 1.8 1.5 0 0 .85-.26.1-2.3zm-2.6-4.66s-6.5 2-3.3 5.28c2.05 2.1 4.98-1.56 6.5-1.5 0 0 .38-.18 1.13-.06.7.07 5.53.5 6.02-1.42.43-2-.17-2.3-.5-2.5-.37-.23-2.92-1.72-6.7-.67z" stroke="#000" stroke-opacity="0" stroke-width=".38" fill="#fff"/><path d="M975.87 1063.85c0 .93-.7 1.67-1.63 1.67-.92 0-1.68-.74-1.68-1.67 0-.93.76-1.68 1.68-1.68.92 0 1.63.75 1.63 1.68zM990.38 1058.26c.92 0 1.68.75 1.68 1.62 0 .93-.76 1.67-1.68 1.67-.92 0-1.62-.74-1.62-1.67 0-.87.7-1.62 1.62-1.62z" stroke="#000" stroke-opacity="0" stroke-width=".38"/><path d="M983.18 1064.03c1.57-.3 3.03.13 3.2 1 .16.86-.98 1.86-2.55 2.17-1.57.3-3.04-.13-3.2-1-.16-.86.98-1.8 2.55-2.17z" stroke="#000" stroke-opacity="0" stroke-width=".37"/><path d="M980.47 1067.14s-4.12 1.92-2.17 3.47c0 0 2.82-.92 5.58-1.42 0 0 6.02.3 6.67-.93 0 0 .86-2.17-3.7-2.6 0 0-.37 1.98-2.8 2.23-2.44.25-2.82-.2-3.58-.74z" stroke="#000" stroke-opacity="0" stroke-width=".38" fill="#e1caa2"/><path d="M1012.8 1076.13s6.78 1.43-2.97 2.86c0 0 2.28-.94 2.98-2.87z" stroke="#000" stroke-opacity="0" stroke-width=".38" fill="#231f20"/><path d="M1008.2 1076.82s-.2-3.48-2.27-5.34c0 0 1.73-2.48 2.87-1.92 0 0 6.07 3.84 1.8 8.2 0 0-1.85 1.3-2.4-.76z" stroke="#000" stroke-opacity="0" stroke-width=".38" fill="#e1caa2"/><path d="M965.08 1076s-.37 1.75-.1 2.5c0 0-5.85-1-.27-2.43z" stroke="#000" stroke-opacity="0" stroke-width=".38"/><path d="M967.9 1072.1s-3.63 4.28-1.73 7.76c1.52 2.85 4.6-.38 4.66-.5z" stroke="#000" stroke-opacity="0" stroke-width=".38" fill="#e1caa2"/><path d="M940 1100h96v24h-96z" stroke="#000" stroke-opacity="0" stroke-width="2" fill="#fff" fill-opacity="0"/><use xlink:href="#I" transform="matrix(1,0,0,1,945,1105) translate(15.524999999999999 14.4)"/><path d="M660 378.35c-14.95 0-27.1 12.13-27.1 27.1 0 14.94 12.15 27.07 27.1 27.07 14.95 0 27.1-12.13 27.1-27.08 0-14.96-12.15-27.1-27.1-27.1zm0 50.7c-4.28 0-7.7-2.87-7.7-6.33h15.4c0 3.46-3.47 6.34-7.7 6.34zm12.73-8.45h-25.46V416h25.46zm-.1-6.98h-25.3l-.22-.33c-2.6-3.15-3.24-4.83-3.84-6.5 0-.06 3.2.64 5.42 1.18 0 0 1.14.27 2.87.54-1.63-1.9-2.6-4.33-2.6-6.77 0-5.42 4.17-10.18 2.65-14.03 1.47.1 3.04 3.1 3.15 7.75 1.57-2.17 2.22-6.07 2.22-8.5 0-2.5 1.62-5.37 3.25-5.48-1.47 2.43.38 4.5 2 9.58.65 1.95.54 5.2 1.03 7.26.16-4.28.87-10.5 3.63-12.68-1.25 2.7.16 6.12 1.08 7.75 1.52 2.6 2.44 4.6 2.44 8.4 0 2.5-.92 4.88-2.5 6.78l3.04-.65 5.8-1.14s-.87 3.46-4.12 6.82z" stroke="#000" stroke-opacity="0" fill="#da4e31"/><path d="M594 438.35h132v33H594z" stroke="#000" stroke-opacity="0" stroke-width="2" fill="#fff" fill-opacity="0"/><g><use xlink:href="#J" transform="matrix(1,0,0,1,598.9999998694959,443.34900000000005) translate(12.549999999999997 15.8375)"/></g><path d="M651.24 307.14l3 1.24 2.6 2 2 2.6 1.24 3 .42 3.2v58.67h-1v-58.6l-.4-3.02-1.14-2.75-1.83-2.4-2.4-1.83-2.75-1.14-3-.38h-128v-1h128.05zm-370.86.58v-1h141.8v1z" fill="#666"/><path d="M660.5 378.37l-.5-.02-.5.05v-.56h1zM279.88 311.85l-14.26-4.63 14.26-4.64z" fill="#666"/><path d="M280.38 312.54L264 307.22l16.38-5.33zm-13.14-5.32l12.14 3.94v-7.9z" fill="#666"/><g><use xlink:href="#K" transform="matrix(1,0,0,1,422.1887151817533,296.417) translate(0 14.4)"/></g><path d="M380 800h1320v520H380z" stroke="#232f3e" stroke-width="2" fill="#fff" fill-opacity="0"/><path d="M380 800h56v56h-56v-56z" stroke="#fff" stroke-opacity="0" fill="#232f3e"/><path d="M420.88 841.22h-25c-4.13.05-7.57-3.1-7.9-7.2v-.64c-.15-3.4 1.97-6.38 5.25-7.36v-.66c.12-4.22 2.44-7.75 6.24-9.57 4.12-1.86 8.73-.96 11.8 2.3 1.1 1.1 1.85 2.2 2.45 3.6 1.2-1 2.72-1.32 4.24-.9 2.24.8 3.68 2.74 3.76 5.1 3.68.65 6.32 3.8 6.28 7.56 0 7.07-7.04 7.73-7.12 7.76zm-26.7-13.88c-2.83.6-4.75 3.14-4.6 6.04v.53c.3 3.33 3.1 5.84 6.4 5.76h24.98c3.04-.3 5.4-2.64 5.68-5.7.28-3.43-2.24-6.5-5.68-6.78-.44-.05-.72-.44-.64-.87.08-1.83-1-3.44-2.72-4.13-1.32-.37-2.64.13-3.44 1.24-.2.25-.44.38-.76.33-.28-.05-.48-.24-.6-.5-.6-1.6-1.4-2.85-2.6-4.04-2.68-2.8-6.6-3.6-10.13-2-3.24 1.6-5.2 4.63-5.32 8.24-.04.4-.04.74 0 1.14.04.4-.2.76-.6.84z" stroke="#fff" stroke-opacity="0" fill="#fff"/><g><use xlink:href="#L" transform="matrix(1,0,0,1,451,820) translate(0 14.4)"/><use xlink:href="#M" transform="matrix(1,0,0,1,451,820) translate(62.95 14.4)"/></g><defs><path fill="#232f3e" d="M30-248c87 1 191-15 191 75 0 78-77 80-158 76V0H30v-248zm33 125c57 0 124 11 124-50 0-59-68-47-124-48v98" id="N"/><path fill="#232f3e" d="M114-163C36-179 61-72 57 0H25l-1-190h30c1 12-1 29 2 39 6-27 23-49 58-41v29" id="O"/><path fill="#232f3e" d="M100-194c62-1 85 37 85 99 1 63-27 99-86 99S16-35 15-95c0-66 28-99 85-99zM99-20c44 1 53-31 53-75 0-43-8-75-51-75s-53 32-53 75 10 74 51 75" id="P"/><path fill="#232f3e" d="M85-194c31 0 48 13 60 33l-1-100h32l1 261h-30c-2-10 0-23-3-31C134-8 116 4 85 4 32 4 16-35 15-94c0-66 23-100 70-100zm9 24c-40 0-46 34-46 75 0 40 6 74 45 74 42 0 51-32 51-76 0-42-9-74-50-73" id="Q"/><path fill="#232f3e" d="M84 4C-5 8 30-112 23-190h32v120c0 31 7 50 39 49 72-2 45-101 50-169h31l1 190h-30c-1-10 1-25-2-33-11 22-28 36-60 37" id="R"/><path fill="#232f3e" d="M96-169c-40 0-48 33-48 73s9 75 48 75c24 0 41-14 43-38l32 2c-6 37-31 61-74 61-59 0-76-41-82-99-10-93 101-131 147-64 4 7 5 14 7 22l-32 3c-4-21-16-35-41-35" id="S"/><path fill="#232f3e" d="M59-47c-2 24 18 29 38 22v24C64 9 27 4 27-40v-127H5v-23h24l9-43h21v43h35v23H59v120" id="T"/><path fill="#232f3e" d="M24-231v-30h32v30H24zM24 0v-190h32V0H24" id="U"/><path fill="#232f3e" d="M117-194c89-4 53 116 60 194h-32v-121c0-31-8-49-39-48C34-167 62-67 57 0H25l-1-190h30c1 10-1 24 2 32 11-22 29-35 61-36" id="V"/><g id="a"><use transform="matrix(0.05,0,0,0.05,0,0)" xlink:href="#N"/><use transform="matrix(0.05,0,0,0.05,12,0)" xlink:href="#O"/><use transform="matrix(0.05,0,0,0.05,17.95,0)" xlink:href="#P"/><use transform="matrix(0.05,0,0,0.05,27.950000000000003,0)" xlink:href="#Q"/><use transform="matrix(0.05,0,0,0.05,37.95,0)" xlink:href="#R"/><use transform="matrix(0.05,0,0,0.05,47.95,0)" xlink:href="#S"/><use transform="matrix(0.05,0,0,0.05,56.95,0)" xlink:href="#T"/><use transform="matrix(0.05,0,0,0.05,61.95,0)" xlink:href="#U"/><use transform="matrix(0.05,0,0,0.05,65.9,0)" xlink:href="#P"/><use transform="matrix(0.05,0,0,0.05,75.9,0)" xlink:href="#V"/></g><path fill="#5a6c86" d="M30 0v-248h187v28H63v79h144v27H63v87h162V0H30" id="W"/><path fill="#5a6c86" d="M24 0v-261h32V0H24" id="X"/><path fill="#5a6c86" d="M141-36C126-15 110 5 73 4 37 3 15-17 15-53c-1-64 63-63 125-63 3-35-9-54-41-54-24 1-41 7-42 31l-33-3c5-37 33-52 76-52 45 0 72 20 72 64v82c-1 20 7 32 28 27v20c-31 9-61-2-59-35zM48-53c0 20 12 33 32 33 41-3 63-29 60-74-43 2-92-5-92 41" id="Y"/><path fill="#5a6c86" d="M135-143c-3-34-86-38-87 0 15 53 115 12 119 90S17 21 10-45l28-5c4 36 97 45 98 0-10-56-113-15-118-90-4-57 82-63 122-42 12 7 21 19 24 35" id="Z"/><path fill="#5a6c86" d="M59-47c-2 24 18 29 38 22v24C64 9 27 4 27-40v-127H5v-23h24l9-43h21v43h35v23H59v120" id="aa"/><path fill="#5a6c86" d="M24-231v-30h32v30H24zM24 0v-190h32V0H24" id="ab"/><path fill="#5a6c86" d="M96-169c-40 0-48 33-48 73s9 75 48 75c24 0 41-14 43-38l32 2c-6 37-31 61-74 61-59 0-76-41-82-99-10-93 101-131 147-64 4 7 5 14 7 22l-32 3c-4-21-16-35-41-35" id="ac"/><g id="b"><use transform="matrix(0.05,0,0,0.05,0,0)" xlink:href="#W"/><use transform="matrix(0.05,0,0,0.05,12,0)" xlink:href="#X"/><use transform="matrix(0.05,0,0,0.05,15.949999999999998,0)" xlink:href="#Y"/><use transform="matrix(0.05,0,0,0.05,25.950000000000003,0)" xlink:href="#Z"/><use transform="matrix(0.05,0,0,0.05,34.95,0)" xlink:href="#aa"/><use transform="matrix(0.05,0,0,0.05,39.95,0)" xlink:href="#ab"/><use transform="matrix(0.05,0,0,0.05,43.900000000000006,0)" xlink:href="#ac"/></g><path fill="#5a6c86" d="M194 0L95-120 63-95V0H30v-248h33v124l119-124h40L117-140 236 0h-42" id="ad"/><path fill="#5a6c86" d="M84 4C-5 8 30-112 23-190h32v120c0 31 7 50 39 49 72-2 45-101 50-169h31l1 190h-30c-1-10 1-25-2-33-11 22-28 36-60 37" id="ae"/><path fill="#5a6c86" d="M115-194c53 0 69 39 70 98 0 66-23 100-70 100C84 3 66-7 56-30L54 0H23l1-261h32v101c10-23 28-34 59-34zm-8 174c40 0 45-34 45-75 0-40-5-75-45-74-42 0-51 32-51 76 0 43 10 73 51 73" id="af"/><path fill="#5a6c86" d="M100-194c63 0 86 42 84 106H49c0 40 14 67 53 68 26 1 43-12 49-29l28 8c-11 28-37 45-77 45C44 4 14-33 15-96c1-61 26-98 85-98zm52 81c6-60-76-77-97-28-3 7-6 17-6 28h103" id="ag"/><path fill="#5a6c86" d="M114-163C36-179 61-72 57 0H25l-1-190h30c1 12-1 29 2 39 6-27 23-49 58-41v29" id="ah"/><path fill="#5a6c86" d="M117-194c89-4 53 116 60 194h-32v-121c0-31-8-49-39-48C34-167 62-67 57 0H25l-1-190h30c1 10-1 24 2 32 11-22 29-35 61-36" id="ai"/><g id="c"><use transform="matrix(0.05,0,0,0.05,0,0)" xlink:href="#ad"/><use transform="matrix(0.05,0,0,0.05,12,0)" xlink:href="#ae"/><use transform="matrix(0.05,0,0,0.05,22,0)" xlink:href="#af"/><use transform="matrix(0.05,0,0,0.05,32,0)" xlink:href="#ag"/><use transform="matrix(0.05,0,0,0.05,42,0)" xlink:href="#ah"/><use transform="matrix(0.05,0,0,0.05,47.95,0)" xlink:href="#ai"/><use transform="matrix(0.05,0,0,0.05,57.95,0)" xlink:href="#ag"/><use transform="matrix(0.05,0,0,0.05,67.95,0)" xlink:href="#aa"/><use transform="matrix(0.05,0,0,0.05,72.95,0)" xlink:href="#ag"/><use transform="matrix(0.05,0,0,0.05,82.95,0)" xlink:href="#Z"/></g><path fill="#5a6c86" d="M185-189c-5-48-123-54-124 2 14 75 158 14 163 119 3 78-121 87-175 55-17-10-28-26-33-46l33-7c5 56 141 63 141-1 0-78-155-14-162-118-5-82 145-84 179-34 5 7 8 16 11 25" id="aj"/><path fill="#5a6c86" d="M108 0H70L1-190h34L89-25l56-165h34" id="ak"/><g id="d"><use transform="matrix(0.05,0,0,0.05,0,0)" xlink:href="#aj"/><use transform="matrix(0.05,0,0,0.05,12,0)" xlink:href="#ag"/><use transform="matrix(0.05,0,0,0.05,22,0)" xlink:href="#ah"/><use transform="matrix(0.05,0,0,0.05,27.950000000000003,0)" xlink:href="#ak"/><use transform="matrix(0.05,0,0,0.05,36.95,0)" xlink:href="#ab"/><use transform="matrix(0.05,0,0,0.05,40.900000000000006,0)" xlink:href="#ac"/><use transform="matrix(0.05,0,0,0.05,49.900000000000006,0)" xlink:href="#ag"/></g><path d="M205 0l-28-72H64L36 0H1l101-248h38L239 0h-34zm-38-99l-47-123c-12 45-31 82-46 123h93" id="al"/><path d="M210-169c-67 3-38 105-44 169h-31v-121c0-29-5-50-35-48C34-165 62-65 56 0H25l-1-190h30c1 10-1 24 2 32 10-44 99-50 107 0 11-21 27-35 58-36 85-2 47 119 55 194h-31v-121c0-29-5-49-35-48" id="am"/><path d="M141-36C126-15 110 5 73 4 37 3 15-17 15-53c-1-64 63-63 125-63 3-35-9-54-41-54-24 1-41 7-42 31l-33-3c5-37 33-52 76-52 45 0 72 20 72 64v82c-1 20 7 32 28 27v20c-31 9-61-2-59-35zM48-53c0 20 12 33 32 33 41-3 63-29 60-74-43 2-92-5-92 41" id="an"/><path d="M9 0v-24l116-142H16v-24h144v24L44-24h123V0H9" id="ao"/><path d="M100-194c62-1 85 37 85 99 1 63-27 99-86 99S16-35 15-95c0-66 28-99 85-99zM99-20c44 1 53-31 53-75 0-43-8-75-51-75s-53 32-53 75 10 74 51 75" id="ap"/><path d="M117-194c89-4 53 116 60 194h-32v-121c0-31-8-49-39-48C34-167 62-67 57 0H25l-1-190h30c1 10-1 24 2 32 11-22 29-35 61-36" id="aq"/><g id="e"><use transform="matrix(0.05,0,0,0.05,0,0)" xlink:href="#al"/><use transform="matrix(0.05,0,0,0.05,12,0)" xlink:href="#am"/><use transform="matrix(0.05,0,0,0.05,26.950000000000003,0)" xlink:href="#an"/><use transform="matrix(0.05,0,0,0.05,36.95,0)" xlink:href="#ao"/><use transform="matrix(0.05,0,0,0.05,45.95,0)" xlink:href="#ap"/><use transform="matrix(0.05,0,0,0.05,55.95,0)" xlink:href="#aq"/></g><path d="M30 0v-248h187v28H63v79h144v27H63v87h162V0H30" id="ar"/><path d="M24 0v-261h32V0H24" id="as"/><path d="M135-143c-3-34-86-38-87 0 15 53 115 12 119 90S17 21 10-45l28-5c4 36 97 45 98 0-10-56-113-15-118-90-4-57 82-63 122-42 12 7 21 19 24 35" id="at"/><path d="M59-47c-2 24 18 29 38 22v24C64 9 27 4 27-40v-127H5v-23h24l9-43h21v43h35v23H59v120" id="au"/><path d="M24-231v-30h32v30H24zM24 0v-190h32V0H24" id="av"/><path d="M96-169c-40 0-48 33-48 73s9 75 48 75c24 0 41-14 43-38l32 2c-6 37-31 61-74 61-59 0-76-41-82-99-10-93 101-131 147-64 4 7 5 14 7 22l-32 3c-4-21-16-35-41-35" id="aw"/><path d="M100-194c63 0 86 42 84 106H49c0 40 14 67 53 68 26 1 43-12 49-29l28 8c-11 28-37 45-77 45C44 4 14-33 15-96c1-61 26-98 85-98zm52 81c6-60-76-77-97-28-3 7-6 17-6 28h103" id="ax"/><path d="M114-163C36-179 61-72 57 0H25l-1-190h30c1 12-1 29 2 39 6-27 23-49 58-41v29" id="ay"/><path d="M106-169C34-169 62-67 57 0H25v-261h32l-1 103c12-21 28-36 61-36 89 0 53 116 60 194h-32v-121c2-32-8-49-39-48" id="az"/><g id="f"><use transform="matrix(0.05,0,0,0.05,0,0)" xlink:href="#ar"/><use transform="matrix(0.05,0,0,0.05,12,0)" xlink:href="#as"/><use transform="matrix(0.05,0,0,0.05,15.949999999999998,0)" xlink:href="#an"/><use transform="matrix(0.05,0,0,0.05,25.950000000000003,0)" xlink:href="#at"/><use transform="matrix(0.05,0,0,0.05,34.95,0)" xlink:href="#au"/><use transform="matrix(0.05,0,0,0.05,39.95,0)" xlink:href="#av"/><use transform="matrix(0.05,0,0,0.05,43.900000000000006,0)" xlink:href="#aw"/><use transform="matrix(0.05,0,0,0.05,52.900000000000006,0)" xlink:href="#at"/><use transform="matrix(0.05,0,0,0.05,61.900000000000006,0)" xlink:href="#ax"/><use transform="matrix(0.05,0,0,0.05,71.9,0)" xlink:href="#an"/><use transform="matrix(0.05,0,0,0.05,81.9,0)" xlink:href="#ay"/><use transform="matrix(0.05,0,0,0.05,87.85000000000001,0)" xlink:href="#aw"/><use transform="matrix(0.05,0,0,0.05,96.85000000000001,0)" xlink:href="#az"/></g><path d="M118-107v75H92v-75H18v-26h74v-75h26v75h74v26h-74" id="aA"/><use transform="matrix(0.05,0,0,0.05,0,0)" xlink:href="#aA" id="g"/><path d="M194 0L95-120 63-95V0H30v-248h33v124l119-124h40L117-140 236 0h-42" id="aB"/><path d="M115-194c53 0 69 39 70 98 0 66-23 100-70 100C84 3 66-7 56-30L54 0H23l1-261h32v101c10-23 28-34 59-34zm-8 174c40 0 45-34 45-75 0-40-5-75-45-74-42 0-51 32-51 76 0 43 10 73 51 73" id="aC"/><g id="h"><use transform="matrix(0.05,0,0,0.05,0,0)" xlink:href="#aB"/><use transform="matrix(0.05,0,0,0.05,12,0)" xlink:href="#av"/><use transform="matrix(0.05,0,0,0.05,15.949999999999998,0)" xlink:href="#aC"/><use transform="matrix(0.05,0,0,0.05,25.950000000000003,0)" xlink:href="#an"/><use transform="matrix(0.05,0,0,0.05,35.95,0)" xlink:href="#aq"/><use transform="matrix(0.05,0,0,0.05,45.95,0)" xlink:href="#an"/></g><path d="M30-248c87 1 191-15 191 75 0 78-77 80-158 76V0H30v-248zm33 125c57 0 124 11 124-50 0-59-68-47-124-48v98" id="aD"/><path d="M85-194c31 0 48 13 60 33l-1-100h32l1 261h-30c-2-10 0-23-3-31C134-8 116 4 85 4 32 4 16-35 15-94c0-66 23-100 70-100zm9 24c-40 0-46 34-46 75 0 40 6 74 45 74 42 0 51-32 51-76 0-42-9-74-50-73" id="aE"/><g id="i"><use transform="matrix(0.05,0,0,0.05,0,0)" xlink:href="#aD"/><use transform="matrix(0.05,0,0,0.05,12,0)" xlink:href="#ap"/><use transform="matrix(0.05,0,0,0.05,22,0)" xlink:href="#aE"/></g><path d="M185-189c-5-48-123-54-124 2 14 75 158 14 163 119 3 78-121 87-175 55-17-10-28-26-33-46l33-7c5 56 141 63 141-1 0-78-155-14-162-118-5-82 145-84 179-34 5 7 8 16 11 25" id="aF"/><path d="M115-194c55 1 70 41 70 98S169 2 115 4C84 4 66-9 55-30l1 105H24l-1-265h31l2 30c10-21 28-34 59-34zm-8 174c40 0 45-34 45-75s-6-73-45-74c-42 0-51 32-51 76 0 43 10 73 51 73" id="aG"/><g id="j"><use transform="matrix(0.05,0,0,0.05,0,0)" xlink:href="#aF"/><use transform="matrix(0.05,0,0,0.05,12,0)" xlink:href="#aw"/><use transform="matrix(0.05,0,0,0.05,21,0)" xlink:href="#ay"/><use transform="matrix(0.05,0,0,0.05,26.950000000000003,0)" xlink:href="#an"/><use transform="matrix(0.05,0,0,0.05,36.95,0)" xlink:href="#aG"/><use transform="matrix(0.05,0,0,0.05,46.95,0)" xlink:href="#ax"/></g><g id="k"><use transform="matrix(0.05,0,0,0.05,0,0)" xlink:href="#am"/><use transform="matrix(0.05,0,0,0.05,14.950000000000001,0)" xlink:href="#ax"/><use transform="matrix(0.05,0,0,0.05,24.950000000000003,0)" xlink:href="#au"/><use transform="matrix(0.05,0,0,0.05,29.950000000000003,0)" xlink:href="#ay"/><use transform="matrix(0.05,0,0,0.05,35.900000000000006,0)" xlink:href="#av"/><use transform="matrix(0.05,0,0,0.05,39.85000000000001,0)" xlink:href="#aw"/><use transform="matrix(0.05,0,0,0.05,48.85000000000001,0)" xlink:href="#at"/></g><path d="M140-251c81 0 123 46 123 126C263-53 228-8 163 1c7 30 30 48 69 40v23c-55 16-95-15-103-61C56-3 17-48 17-125c0-80 42-126 123-126zm0 227c63 0 89-41 89-101s-29-99-89-99c-61 0-89 39-89 99S79-25 140-24" id="aH"/><path d="M84 4C-5 8 30-112 23-190h32v120c0 31 7 50 39 49 72-2 45-101 50-169h31l1 190h-30c-1-10 1-25-2-33-11 22-28 36-60 37" id="aI"/><path d="M179-190L93 31C79 59 56 82 12 73V49c39 6 53-20 64-50L1-190h34L92-34l54-156h33" id="aJ"/><g id="l"><use transform="matrix(0.05,0,0,0.05,0,0)" xlink:href="#aH"/><use transform="matrix(0.05,0,0,0.05,14,0)" xlink:href="#aI"/><use transform="matrix(0.05,0,0,0.05,24,0)" xlink:href="#ax"/><use transform="matrix(0.05,0,0,0.05,34,0)" xlink:href="#ay"/><use transform="matrix(0.05,0,0,0.05,39.95,0)" xlink:href="#aJ"/></g><g id="m"><use transform="matrix(0.05,0,0,0.05,0,0)" xlink:href="#aH"/><use transform="matrix(0.05,0,0,0.05,14,0)" xlink:href="#aI"/><use transform="matrix(0.05,0,0,0.05,24,0)" xlink:href="#ax"/><use transform="matrix(0.05,0,0,0.05,34,0)" xlink:href="#ay"/><use transform="matrix(0.05,0,0,0.05,39.95,0)" xlink:href="#aJ"/></g><g id="n"><use transform="matrix(0.05,0,0,0.05,0,0)" xlink:href="#aF"/><use transform="matrix(0.05,0,0,0.05,12,0)" xlink:href="#ax"/><use transform="matrix(0.05,0,0,0.05,22,0)" xlink:href="#aq"/><use transform="matrix(0.05,0,0,0.05,32,0)" xlink:href="#aE"/></g><g id="o"><use transform="matrix(0.05,0,0,0.05,0,0)" xlink:href="#au"/><use transform="matrix(0.05,0,0,0.05,5,0)" xlink:href="#ay"/><use transform="matrix(0.05,0,0,0.05,10.95,0)" xlink:href="#an"/><use transform="matrix(0.05,0,0,0.05,20.95,0)" xlink:href="#aw"/><use transform="matrix(0.05,0,0,0.05,29.950000000000003,0)" xlink:href="#ax"/><use transform="matrix(0.05,0,0,0.05,39.95,0)" xlink:href="#at"/></g><linearGradient gradientUnits="userSpaceOnUse" id="p" x1="727.09" y1="533.26" x2="791.11" y2="533.26"><stop offset="0%" stop-color="#2a59a2"/><stop offset="100%" stop-color="#2a59a2"/></linearGradient><linearGradient gradientUnits="userSpaceOnUse" id="q" x1="724.5" y1="522.33" x2="792.19" y2="522.33"><stop offset="0%" stop-color="#91d3f2"/><stop offset="26.6%" stop-color="#6fb2de"/><stop offset="52.1%" stop-color="#5598ce"/><stop offset="67.3%" stop-color="#4b8fc8"/></linearGradient><linearGradient gradientUnits="userSpaceOnUse" id="r" x1="727.09" y1="548.16" x2="791.56" y2="548.16"><stop offset="0%" stop-color="#2c9ec7"/><stop offset="40.4%" stop-color="#2c63a5"/><stop offset="100%" stop-color="#395da1"/></linearGradient><linearGradient gradientUnits="userSpaceOnUse" id="s" x1="727.26" y1="534.64" x2="791.42" y2="534.64"><stop offset="0%" stop-color="#4faac4"/><stop offset=".2%" stop-color="#2f75b1"/><stop offset="100%" stop-color="#356eac"/></linearGradient><linearGradient gradientUnits="userSpaceOnUse" id="t" x1="750.19" y1="524.65" x2="791.92" y2="524.65"><stop offset="0%" stop-color="#4faac4"/><stop offset=".2%" stop-color="#2f81b6"/><stop offset="100%" stop-color="#3b5ea9"/></linearGradient><linearGradient gradientUnits="userSpaceOnUse" id="u" x1="750.24" y1="540.63" x2="791.91" y2="540.63"><stop offset="0%" stop-color="#4faac4"/><stop offset=".2%" stop-color="#1e3773"/><stop offset="100%" stop-color="#203370"/></linearGradient><linearGradient gradientUnits="userSpaceOnUse" id="v" x1="777.21" y1="544.11" x2="777.21" y2="521.24"><stop offset="0%" stop-color="#4faac4"/><stop offset=".2%" stop-color="#2c5a9a"/><stop offset="100%" stop-color="#374580"/></linearGradient><linearGradient gradientUnits="userSpaceOnUse" id="w" x1="720.12" y1="541.34" x2="767.65" y2="541.34"><stop offset="11.2%" stop-color="#38b1da"/><stop offset="100%" stop-color="#326fb5"/></linearGradient><path d="M63-220v92h138v28H63V0H30v-248h175v28H63" id="aK"/><path d="M30-248c118-7 216 8 213 122C240-48 200 0 122 0H30v-248zM63-27c89 8 146-16 146-99s-60-101-146-95v194" id="aL"/><g id="x"><use transform="matrix(0.05,0,0,0.05,0,0)" xlink:href="#aK"/><use transform="matrix(0.05,0,0,0.05,10.950000000000001,0)" xlink:href="#as"/><use transform="matrix(0.05,0,0,0.05,14.9,0)" xlink:href="#aI"/><use transform="matrix(0.05,0,0,0.05,24.900000000000002,0)" xlink:href="#ax"/><use transform="matrix(0.05,0,0,0.05,34.900000000000006,0)" xlink:href="#aq"/><use transform="matrix(0.05,0,0,0.05,44.900000000000006,0)" xlink:href="#au"/><use transform="matrix(0.05,0,0,0.05,49.900000000000006,0)" xlink:href="#aL"/></g><path d="M206 0h-36l-40-164L89 0H53L-1-190h32L70-26l43-164h34l41 164 42-164h31" id="aM"/><g id="y"><use transform="matrix(0.05,0,0,0.05,0,0)" xlink:href="#aK"/><use transform="matrix(0.05,0,0,0.05,10.950000000000001,0)" xlink:href="#ap"/><use transform="matrix(0.05,0,0,0.05,20.950000000000003,0)" xlink:href="#as"/><use transform="matrix(0.05,0,0,0.05,24.900000000000002,0)" xlink:href="#as"/><use transform="matrix(0.05,0,0,0.05,28.85,0)" xlink:href="#ap"/><use transform="matrix(0.05,0,0,0.05,38.85,0)" xlink:href="#aM"/></g><path d="M177-190C167-65 218 103 67 71c-23-6-38-20-44-43l32-5c15 47 100 32 89-28v-30C133-14 115 1 83 1 29 1 15-40 15-95c0-56 16-97 71-98 29-1 48 16 59 35 1-10 0-23 2-32h30zM94-22c36 0 50-32 50-73 0-42-14-75-50-75-39 0-46 34-46 75s6 73 46 73" id="aN"/><g id="z"><use transform="matrix(0.05,0,0,0.05,0,0)" xlink:href="#as"/><use transform="matrix(0.05,0,0,0.05,3.95,0)" xlink:href="#ap"/><use transform="matrix(0.05,0,0,0.05,13.949999999999998,0)" xlink:href="#aN"/><use transform="matrix(0.05,0,0,0.05,23.95,0)" xlink:href="#at"/></g><path d="M140-251c81 0 123 46 123 126C263-46 219 4 140 4 59 4 17-45 17-125s42-126 123-126zm0 227c63 0 89-41 89-101s-29-99-89-99c-61 0-89 39-89 99S79-25 140-24" id="aO"/><g id="A"><use transform="matrix(0.05,0,0,0.05,0,0)" xlink:href="#aO"/><use transform="matrix(0.05,0,0,0.05,14,0)" xlink:href="#aG"/><use transform="matrix(0.05,0,0,0.05,24,0)" xlink:href="#at"/></g><g id="B"><use transform="matrix(0.05,0,0,0.05,0,0)" xlink:href="#aD"/><use transform="matrix(0.05,0,0,0.05,12,0)" xlink:href="#an"/><use transform="matrix(0.05,0,0,0.05,22,0)" xlink:href="#aN"/><use transform="matrix(0.05,0,0,0.05,32,0)" xlink:href="#ax"/><use transform="matrix(0.05,0,0,0.05,42,0)" xlink:href="#aL"/><use transform="matrix(0.05,0,0,0.05,54.95,0)" xlink:href="#aI"/><use transform="matrix(0.05,0,0,0.05,64.95,0)" xlink:href="#au"/><use transform="matrix(0.05,0,0,0.05,69.95,0)" xlink:href="#aJ"/></g><g id="C"><use transform="matrix(0.05,0,0,0.05,0,0)" xlink:href="#al"/><use transform="matrix(0.05,0,0,0.05,12,0)" xlink:href="#as"/><use transform="matrix(0.05,0,0,0.05,15.949999999999998,0)" xlink:href="#ax"/><use transform="matrix(0.05,0,0,0.05,25.950000000000003,0)" xlink:href="#ay"/><use transform="matrix(0.05,0,0,0.05,31.899999999999995,0)" xlink:href="#au"/><use transform="matrix(0.05,0,0,0.05,36.9,0)" xlink:href="#at"/></g><path d="M137 0h-34L2-248h35l83 218 83-218h36" id="aP"/><g id="D"><use transform="matrix(0.05,0,0,0.05,0,0)" xlink:href="#aP"/><use transform="matrix(0.05,0,0,0.05,11.65,0)" xlink:href="#av"/><use transform="matrix(0.05,0,0,0.05,15.600000000000001,0)" xlink:href="#ax"/><use transform="matrix(0.05,0,0,0.05,25.6,0)" xlink:href="#aM"/></g><path d="M33 0v-248h34V0H33" id="aQ"/><g id="E"><use transform="matrix(0.05,0,0,0.05,0,0)" xlink:href="#aQ"/><use transform="matrix(0.05,0,0,0.05,5,0)" xlink:href="#aq"/><use transform="matrix(0.05,0,0,0.05,15,0)" xlink:href="#aN"/><use transform="matrix(0.05,0,0,0.05,25,0)" xlink:href="#ax"/><use transform="matrix(0.05,0,0,0.05,35,0)" xlink:href="#at"/><use transform="matrix(0.05,0,0,0.05,44,0)" xlink:href="#au"/></g><g id="F"><use transform="matrix(0.05,0,0,0.05,0,0)" xlink:href="#as"/><use transform="matrix(0.05,0,0,0.05,3.95,0)" xlink:href="#ap"/><use transform="matrix(0.05,0,0,0.05,13.949999999999998,0)" xlink:href="#aN"/><use transform="matrix(0.05,0,0,0.05,23.95,0)" xlink:href="#at"/></g><linearGradient gradientUnits="userSpaceOnUse" id="G" x1="660" y1="1049.11" x2="660" y2="1086.69"><stop offset="0%" stop-color="#f05a28"/><stop offset="100%" stop-color="#fbca0a"/></linearGradient><path d="M143 4C61 4 22-44 18-125c-5-107 100-154 193-111 17 8 29 25 37 43l-32 9c-13-25-37-40-76-40-61 0-88 39-88 99 0 61 29 100 91 101 35 0 62-11 79-27v-45h-74v-28h105v86C228-13 192 4 143 4" id="aR"/><path d="M101-234c-31-9-42 10-38 44h38v23H63V0H32v-167H5v-23h27c-7-52 17-82 69-68v24" id="aS"/><g id="H"><use transform="matrix(0.05,0,0,0.05,0,0)" xlink:href="#aR"/><use transform="matrix(0.05,0,0,0.05,14,0)" xlink:href="#ay"/><use transform="matrix(0.05,0,0,0.05,19.95,0)" xlink:href="#an"/><use transform="matrix(0.05,0,0,0.05,29.950000000000003,0)" xlink:href="#aS"/><use transform="matrix(0.05,0,0,0.05,34.95,0)" xlink:href="#an"/><use transform="matrix(0.05,0,0,0.05,44.95,0)" xlink:href="#aq"/><use transform="matrix(0.05,0,0,0.05,54.95,0)" xlink:href="#an"/></g><path d="M153-248C145-148 188 4 80 4 36 3 13-21 6-62l32-5c4 25 16 42 43 43 27 0 39-20 39-49v-147H72v-28h81" id="aT"/><g id="I"><use transform="matrix(0.05,0,0,0.05,0,0)" xlink:href="#aT"/><use transform="matrix(0.05,0,0,0.05,9,0)" xlink:href="#an"/><use transform="matrix(0.05,0,0,0.05,19,0)" xlink:href="#ax"/><use transform="matrix(0.05,0,0,0.05,29,0)" xlink:href="#aN"/><use transform="matrix(0.05,0,0,0.05,39,0)" xlink:href="#ax"/><use transform="matrix(0.05,0,0,0.05,49,0)" xlink:href="#ay"/></g><g id="J"><use transform="matrix(0.05,0,0,0.05,0,0)" xlink:href="#aD"/><use transform="matrix(0.05,0,0,0.05,12,0)" xlink:href="#ay"/><use transform="matrix(0.05,0,0,0.05,17.95,0)" xlink:href="#ap"/><use transform="matrix(0.05,0,0,0.05,27.950000000000003,0)" xlink:href="#am"/><use transform="matrix(0.05,0,0,0.05,42.9,0)" xlink:href="#ax"/><use transform="matrix(0.05,0,0,0.05,52.900000000000006,0)" xlink:href="#au"/><use transform="matrix(0.05,0,0,0.05,57.900000000000006,0)" xlink:href="#az"/><use transform="matrix(0.05,0,0,0.05,67.9,0)" xlink:href="#ax"/><use transform="matrix(0.05,0,0,0.05,77.9,0)" xlink:href="#aI"/><use transform="matrix(0.05,0,0,0.05,87.9,0)" xlink:href="#at"/></g><path d="M190 0L58-211 59 0H30v-248h39L202-35l-2-213h31V0h-41" id="aU"/><g id="K"><use transform="matrix(0.05,0,0,0.05,0,0)" xlink:href="#aU"/><use transform="matrix(0.05,0,0,0.05,12.950000000000001,0)" xlink:href="#ap"/><use transform="matrix(0.05,0,0,0.05,22.950000000000003,0)" xlink:href="#au"/><use transform="matrix(0.05,0,0,0.05,27.950000000000003,0)" xlink:href="#av"/><use transform="matrix(0.05,0,0,0.05,31.900000000000002,0)" xlink:href="#aS"/><use transform="matrix(0.05,0,0,0.05,36.900000000000006,0)" xlink:href="#av"/><use transform="matrix(0.05,0,0,0.05,40.85000000000001,0)" xlink:href="#aw"/><use transform="matrix(0.05,0,0,0.05,49.85000000000001,0)" xlink:href="#an"/><use transform="matrix(0.05,0,0,0.05,59.85,0)" xlink:href="#au"/><use transform="matrix(0.05,0,0,0.05,64.85000000000001,0)" xlink:href="#av"/><use transform="matrix(0.05,0,0,0.05,68.80000000000001,0)" xlink:href="#ap"/><use transform="matrix(0.05,0,0,0.05,78.80000000000001,0)" xlink:href="#aq"/><use transform="matrix(0.05,0,0,0.05,88.80000000000001,0)" xlink:href="#at"/></g><path fill="#232f3e" d="M185-189c-5-48-123-54-124 2 14 75 158 14 163 119 3 78-121 87-175 55-17-10-28-26-33-46l33-7c5 56 141 63 141-1 0-78-155-14-162-118-5-82 145-84 179-34 5 7 8 16 11 25" id="aV"/><path fill="#232f3e" d="M106-169C34-169 62-67 57 0H25v-261h32l-1 103c12-21 28-36 61-36 89 0 53 116 60 194h-32v-121c2-32-8-49-39-48" id="aW"/><path fill="#232f3e" d="M141-36C126-15 110 5 73 4 37 3 15-17 15-53c-1-64 63-63 125-63 3-35-9-54-41-54-24 1-41 7-42 31l-33-3c5-37 33-52 76-52 45 0 72 20 72 64v82c-1 20 7 32 28 27v20c-31 9-61-2-59-35zM48-53c0 20 12 33 32 33 41-3 63-29 60-74-43 2-92-5-92 41" id="aX"/><path fill="#232f3e" d="M100-194c63 0 86 42 84 106H49c0 40 14 67 53 68 26 1 43-12 49-29l28 8c-11 28-37 45-77 45C44 4 14-33 15-96c1-61 26-98 85-98zm52 81c6-60-76-77-97-28-3 7-6 17-6 28h103" id="aY"/><g id="L"><use transform="matrix(0.05,0,0,0.05,0,0)" xlink:href="#aV"/><use transform="matrix(0.05,0,0,0.05,12,0)" xlink:href="#aW"/><use transform="matrix(0.05,0,0,0.05,22,0)" xlink:href="#aX"/><use transform="matrix(0.05,0,0,0.05,32,0)" xlink:href="#O"/><use transform="matrix(0.05,0,0,0.05,37.95,0)" xlink:href="#aY"/><use transform="matrix(0.05,0,0,0.05,47.95,0)" xlink:href="#Q"/></g><path fill="#232f3e" d="M135-143c-3-34-86-38-87 0 15 53 115 12 119 90S17 21 10-45l28-5c4 36 97 45 98 0-10-56-113-15-118-90-4-57 82-63 122-42 12 7 21 19 24 35" id="aZ"/><path fill="#232f3e" d="M108 0H70L1-190h34L89-25l56-165h34" id="ba"/><g id="M"><use transform="matrix(0.05,0,0,0.05,0,0)" xlink:href="#aZ"/><use transform="matrix(0.05,0,0,0.05,9,0)" xlink:href="#aY"/><use transform="matrix(0.05,0,0,0.05,19,0)" xlink:href="#O"/><use transform="matrix(0.05,0,0,0.05,24.95,0)" xlink:href="#ba"/><use transform="matrix(0.05,0,0,0.05,33.95,0)" xlink:href="#U"/><use transform="matrix(0.05,0,0,0.05,37.900000000000006,0)" xlink:href="#S"/><use transform="matrix(0.05,0,0,0.05,46.900000000000006,0)" xlink:href="#aY"/><use transform="matrix(0.05,0,0,0.05,56.900000000000006,0)" xlink:href="#aZ"/></g></defs></g></svg>