<svg xmlns="http://www.w3.org/2000/svg" xmlns:xlink="http://www.w3.org/1999/xlink" xmlns:lucid="lucid" width="1600" height="1240"><g transform="translate(-81.25 -20)" lucid:page-tab-id="0_0"><path d="M122.63 777.85h-19.75c-.9 0-1.63-.73-1.63-1.62v-2.42c0-9.02 5.94-16.6 14.75-18.72.4-.1.8-.05 1.16.16 2.6 1.4 5.4 1.4 8 0 .38-.2.75-.26 1.16-.16 2.3.57 4.22 1.4 6.2 2.7l-1.82 2.7c-1.47-.95-2.85-1.6-4.57-2.05-3.28 1.5-6.66 1.5-9.94 0-7.04 1.96-11.7 8.1-11.7 15.38v.8h18.13z" stroke="#fff" stroke-opacity="0" fill="#666"/><path d="M121.14 759.45c-5.88 0-10.64-4.76-10.64-10.62 0-5.86 4.76-10.62 10.64-10.62 5.87-.05 10.66 4.66 10.72 10.5.05 4.06-2 7.52-5.57 9.43-1.66.9-3.26 1.32-5.16 1.32zm0-18c-4.1 0-7.46 3.28-7.48 7.38 0 2.78 1.4 5.16 3.87 6.48 2.33 1.26 4.9 1.26 7.22 0 2.48-1.33 3.9-3.75 3.87-6.58-.05-4.05-3.4-7.3-7.48-7.26zM175.86 777.85H156.1v-3.24h18.14v-.78c0-7.3-4.67-13.44-11.7-15.4-3.28 1.53-6.66 1.53-9.95 0-1.73.48-3.14 1.14-4.62 2.17l-1.84-2.68c1.97-1.37 3.88-2.24 6.2-2.83.4-.1.8-.06 1.2.15 2.56 1.4 5.4 1.4 8 0 .38-.2.76-.25 1.17-.16 8.8 2.1 14.76 9.68 14.76 18.72v2.4c0 .9-.72 1.6-1.6 1.63z" stroke="#fff" stroke-opacity="0" fill="#666"/><path d="M157.53 759.45c-5.9 0-10.7-4.82-10.7-10.72s4.83-10.68 10.75-10.68 10.7 4.8 10.7 10.72c0 4.02-2.04 7.45-5.58 9.37-1.67.9-3.28 1.3-5.17 1.3zm0-18c-4.1-.02-7.44 3.27-7.46 7.38-.02 2.8 1.4 5.16 3.86 6.47 2.32 1.26 4.9 1.26 7.23 0 2.5-1.33 3.95-3.77 3.9-6.62-.08-4.06-3.45-7.3-7.53-7.23zM165.26 814.26H113.4c-.9 0-1.6-.7-1.6-1.6v-3.45c-.06-12.46 8.2-22.94 20.3-25.88.45-.13.84-.06 1.22.12 3.86 2.08 8.1 2.08 12 0 .34-.18.72-.25 1.16-.12 12.17 2.9 20.43 13.4 20.37 25.9v3.43c0 .9-.7 1.6-1.6 1.6zm-50.22-3.22h48.56v-1.83c0-10.72-6.93-19.74-17.34-22.53-4.57 2.2-9.36 2.2-13.93 0-10.4 2.8-17.3 11.8-17.3 22.54z" stroke="#fff" stroke-opacity="0" fill="#666"/><path d="M139.38 788.2c-2.57 0-4.76-.56-7.04-1.78-7.07-3.88-9.67-12.7-5.8-19.78 3.87-7.06 12.72-9.65 19.82-5.8 7.06 3.87 9.66 12.7 5.8 19.78-1.4 2.57-3.23 4.4-5.8 5.8-2.25 1.22-4.44 1.78-6.98 1.78zm0-25.5c-4.24-.06-7.9 2.07-9.93 5.8-2.92 5.4-.94 12.15 4.47 15.1 3.5 1.86 7.36 1.86 10.86 0 3.77-2.05 5.93-5.7 5.87-9.94-.1-6.12-5.14-11.05-11.27-10.96z" stroke="#fff" stroke-opacity="0" fill="#666"/><path d="M176.3 777.85h-37.84c-.65 0-1.17-.52-1.17-1.17v-2.5c-.05-9.1 5.98-16.75 14.8-18.9.34-.1.62-.05.9.1 2.8 1.5 5.9 1.5 8.76 0 .24-.15.52-.2.84-.1 8.88 2.13 14.9 9.77 14.86 18.9v2.5c0 .65-.52 1.17-1.16 1.17zm-36.64-2.35h35.43v-1.33c0-7.83-5.07-14.4-12.66-16.45-3.34 1.6-6.83 1.6-10.16 0-7.6 2.04-12.62 8.62-12.62 16.45z" stroke="#fff" stroke-opacity="0" stroke-width=".73" fill="#fff" fill-opacity="0"/><path d="M140.25 777.85H102.4c-.63 0-1.15-.52-1.15-1.17v-2.5c-.04-9.1 6-16.75 14.82-18.9.32-.1.6-.05.9.1 2.8 1.5 5.9 1.5 8.74 0 .25-.15.54-.2.86-.1 8.87 2.13 14.9 9.77 14.86 18.9v2.5c0 .65-.52 1.17-1.17 1.17zm-36.63-2.35h35.43v-1.33c0-7.83-5.06-14.4-12.65-16.45-3.34 1.6-6.83 1.6-10.17 0-7.6 2.04-12.6 8.62-12.6 16.45z" stroke="#fff" stroke-opacity="0" stroke-width=".73" fill="#fff" fill-opacity="0"/><path d="M441.25 660H621.9v417.72H441.26z" fill="#248814" fill-opacity=".13"/><path d="M441.25 660h56v56h-56v-56z" stroke="#fff" stroke-opacity="0" fill="#248814"/><path d="M484.63 682.18c-.15-.17-.34-.25-.56-.25h-5.15v-5.58c-.03-2.54-.96-4.7-2.84-6.4-1.9-1.84-4.15-2.75-6.77-2.75-2.64 0-4.9.83-6.8 2.62-1.9 1.7-2.86 3.87-2.9 6.4v5.66h-5.14c-.25 0-.44.1-.6.25-.15.17-.2.34-.2.6V708c0 .43.33.8.8.8h29.58c.47 0 .8-.37.8-.8v-25.28c0-.2-.05-.38-.2-.54zm-23.46-5.9c.03-2.13.8-3.88 2.37-5.3 1.62-1.5 3.53-2.2 5.74-2.2 2.22 0 4.12.75 5.7 2.25 1.54 1.4 2.32 3.2 2.32 5.32v5.58h-16.16zm22.1 30.94h-28.03v-23.7h28.02z" stroke="#fff" stroke-opacity="0" fill="#fff"/><path d="M468.45 697.3v6.25h1.6v-6.23c2.13-.4 3.62-2.2 3.63-4.35 0-2.43-1.97-4.4-4.4-4.43-2.2-.03-4.06 1.5-4.44 3.68-.4 2.4 1.2 4.68 3.6 5.1zm.82-7.15c.78 0 1.44.27 2 .82.54.56.82 1.22.8 2 .03 1.55-1.2 2.8-2.74 2.82h-.06c-1.56.1-2.92-1.06-3.04-2.62-.12-1.56 1.05-2.93 2.6-3.03.16-.02.28-.02.44 0z" stroke="#fff" stroke-opacity="0" fill="#fff"/><use xlink:href="#a" transform="matrix(1,0,0,1,512.25,680) translate(0 14.222222222222223)"/><use xlink:href="#b" transform="matrix(1,0,0,1,512.25,680) translate(0 35.55555555555556)"/><path d="M638.13 660H1400v417.72H638.13z" fill="#147eba" fill-opacity=".13"/><path d="M638.13 660h56v56h-56v-56z" stroke="#fff" stroke-opacity="0" fill="#147eba"/><path d="M681.52 682.18c-.16-.17-.35-.25-.57-.25h-5.14v-5.58c-.02-2.54-.96-4.7-2.83-6.4-1.9-1.84-4.15-2.75-6.77-2.75-2.66 0-4.9.83-6.8 2.62-1.9 1.7-2.88 3.87-2.9 6.4v5.66h-5.15c-.25 0-.44.1-.6.25-.15.17-.22.34-.22.6V708c0 .43.35.8.82.8h29.57c.47 0 .8-.37.8-.8v-25.28c0-.2-.05-.38-.2-.54zm-23.47-5.9c.03-2.13.8-3.88 2.37-5.3 1.63-1.5 3.53-2.2 5.75-2.2 2.2 0 4.1.75 5.7 2.25 1.53 1.4 2.3 3.2 2.3 5.32v5.58h-16.15zm22.1 30.94h-28.02v-23.7h28z" stroke="#fff" stroke-opacity="0" fill="#fff"/><path d="M665.33 697.3v6.25h1.6v-6.23c2.13-.4 3.63-2.2 3.64-4.35 0-2.43-1.98-4.4-4.42-4.43-2.2-.03-4.05 1.5-4.42 3.68-.4 2.4 1.2 4.68 3.6 5.1zm.82-7.15c.78 0 1.44.27 2 .82.55.56.82 1.22.8 2 .03 1.55-1.2 2.8-2.74 2.82h-.05c-1.56.1-2.92-1.06-3.04-2.62-.1-1.56 1.06-2.93 2.62-3.03.15-.02.28-.02.43 0z" stroke="#fff" stroke-opacity="0" fill="#fff"/><use xlink:href="#c" transform="matrix(1,0,0,1,709.1340774082169,680) translate(0 14.222222222222223)"/><use xlink:href="#b" transform="matrix(1,0,0,1,709.1340774082169,680) translate(0 35.55555555555556)"/><path d="M1420 660h180.66v417.72H1420z" fill="#147eba" fill-opacity=".13"/><path d="M1420 660h56v56h-56v-56z" stroke="#fff" stroke-opacity="0" fill="#147eba"/><path d="M1463.38 682.18c-.15-.17-.34-.25-.56-.25h-5.15v-5.58c-.03-2.54-.96-4.7-2.84-6.4-1.9-1.84-4.15-2.75-6.77-2.75-2.65 0-4.9.83-6.8 2.62-1.9 1.7-2.87 3.87-2.9 6.4v5.66h-5.15c-.24 0-.43.1-.58.25-.16.17-.22.34-.22.6V708c0 .43.34.8.8.8h29.6c.46 0 .8-.37.8-.8v-25.28c0-.2-.06-.38-.22-.54zm-23.46-5.9c.03-2.13.8-3.88 2.37-5.3 1.6-1.5 3.52-2.2 5.73-2.2 2.22 0 4.12.75 5.7 2.25 1.54 1.4 2.32 3.2 2.32 5.32v5.58h-16.16zm22.1 30.94h-28.03v-23.7h28z" stroke="#fff" stroke-opacity="0" fill="#fff"/><path d="M1447.2 697.3v6.25h1.6v-6.23c2.13-.4 3.62-2.2 3.63-4.35 0-2.43-1.97-4.4-4.4-4.43-2.2-.03-4.06 1.5-4.44 3.68-.42 2.4 1.2 4.68 3.6 5.1zm.82-7.15c.78 0 1.44.27 2 .82.54.56.82 1.22.8 2 .03 1.55-1.2 2.8-2.74 2.82h-.06c-1.56.1-2.92-1.06-3.04-2.62-.12-1.56 1.05-2.93 2.6-3.03.16-.02.28-.02.44 0z" stroke="#fff" stroke-opacity="0" fill="#fff"/><use xlink:href="#d" transform="matrix(1,0,0,1,1491,680) translate(0 14.222222222222223)"/><use xlink:href="#e" transform="matrix(1,0,0,1,1491,680) translate(0 35.55555555555556)"/><path d="M139.36 814.76v44.87c0 6.63 5.37 12 12 12h112.26" stroke="#666" fill="none"/><path d="M139.86 814.77h-1v-.5h1z" fill="#666"/><path d="M278.38 871.63l-14.26 4.63V867z" stroke="#666" fill="#666"/><path d="M381.25 500h1240v680h-1240z" stroke="#248814" stroke-width="2" fill-opacity="0"/><path d="M381.25 500h56v56h-56v-56z" stroke="#fff" stroke-opacity="0" fill="#248814"/><path d="M413 528.3h-1.17v-1.1c-.12-1.73-1.48-3.07-3.2-3.2-1.9-.13-3.54 1.3-3.67 3.2v1.07h-1.18c-.44 0-.8.36-.8.8v6.13c0 .44.36.8.8.8H413c.45 0 .8-.36.8-.8v-6.1c0-.44-.35-.8-.8-.8zm-6.4-1.06c.1-1.02 1-1.77 2-1.67.9.08 1.6.77 1.68 1.67v1.06h-3.72zm5.66 7.08h-7.68v-4.42h7.63z" stroke="#fff" stroke-opacity="0" fill="#fff"/><path d="M423.52 525.74c-.08-2.44-1.58-4.47-3.87-5.3-1.58-.46-3.16-.13-4.4.9-.68-1.44-1.47-2.6-2.6-3.75-3.24-3.36-7.94-4.3-12.18-2.4-4.04 1.9-6.4 5.63-6.54 10.05v.7c-3.4.98-5.66 4.08-5.5 7.65v.63c.4 4.28 3.92 7.52 8.2 7.47h26s7.42-.63 7.42-8.1c.04-3.9-2.66-7.2-6.53-7.86zm-.96 14.4h-25.92c-3.46.05-6.3-2.53-6.58-5.97v-.52c-.16-3.05 1.92-5.7 4.9-6.3.4-.12.64-.48.6-.9-.05-.4-.05-.73 0-1.14.08-3.78 2.12-6.94 5.53-8.6 1.24-.56 2.4-.8 3.82-.84 2.62.08 4.87 1.04 6.7 2.94 1.25 1.3 2.04 2.6 2.62 4.3.04.15.12.28.25.37.36.27.86.2 1.1-.17.84-1.18 2.26-1.67 3.63-1.3 1.8.72 2.87 2.4 2.83 4.32-.08.4.2.82.63.9 3.56.36 6.2 3.55 5.8 7.12-.28 3.13-2.7 5.52-5.8 5.85z" stroke="#fff" stroke-opacity="0" fill="#fff"/><use xlink:href="#f" transform="matrix(1,0,0,1,452.25,520) translate(0 14.222222222222223)"/><use xlink:href="#g" transform="matrix(1,0,0,1,452.25,520) translate(0 33.777777777777786)"/><path d="M241.25 380h1420v860h-1420z" stroke="#232f3e" stroke-width="2" fill-opacity="0"/><path d="M241.25 380h56v56h-56v-56z" stroke="#fff" stroke-opacity="0" fill="#232f3e"/><path d="M259.47 405.87c-.04.48.05.87.17 1.34.12.4.3.7.5 1.07.03.1.07.22.07.34 0 .2-.1.36-.27.46l-.95.62c-.12.08-.25.13-.37.13-.15 0-.32-.06-.44-.2-.2-.2-.37-.43-.53-.7-.17-.25-.3-.53-.46-.86-1.1 1.37-2.62 2.1-4.4 2.06-1.14.06-2.12-.3-2.95-1.08-.78-.8-1.15-1.76-1.1-2.85-.05-1.23.4-2.28 1.35-3.08 1.07-.85 2.3-1.23 3.66-1.16.57 0 1.02.02 1.6.1.57.1 1.1.2 1.72.33v-1.1c.08-.88-.16-1.67-.7-2.37-.74-.56-1.56-.8-2.46-.7-.54 0-1.04.07-1.6.2-.6.13-1.04.3-1.6.5l-.5.2h-.25c-.2 0-.33-.16-.33-.45v-.75c0-.18.04-.34.12-.5.13-.16.25-.26.4-.33.67-.3 1.2-.5 1.9-.67.78-.2 1.48-.3 2.3-.28 1.48-.13 2.8.26 3.9 1.2.95 1.05 1.36 2.28 1.23 3.67zm-6.07 2.28c.57 0 1.06-.1 1.6-.28.57-.2 1.02-.5 1.44-.96.24-.27.4-.56.5-.93.1-.45.15-.84.15-1.3V404c-.54-.1-.95-.17-1.44-.2h-1.4c-.82-.08-1.56.12-2.22.58-.53.45-.78 1.04-.74 1.73-.04.6.13 1.16.54 1.6.45.38.98.52 1.56.45zm12 1.6c-.22 0-.42-.03-.6-.15-.15-.17-.23-.36-.32-.6l-3.5-11.5-.1-.62c0-.24.1-.37.36-.37h1.48c.2 0 .37.04.57.15.16.18.24.37.28.6l2.5 9.96 2.4-9.93c0-.24.07-.44.27-.6.17-.12.37-.16.58-.15h1.2c.24 0 .4.03.6.15.17.18.25.36.3.6l2.33 9.94 2.55-10c.05-.2.17-.4.34-.58.16-.1.37-.17.57-.14h1.4c.17 0 .34.1.38.3v.31s0 .2-.12.35l-3.62 11.53c-.04.22-.12.42-.3.6-.2.1-.35.14-.56.13h-1.27c-.24.04-.44-.02-.6-.15-.17-.16-.26-.36-.3-.6l-2.3-9.6-2.3 9.6c-.04.24-.12.44-.28.6-.2.13-.4.2-.62.16zm19.2.38c-.82 0-1.5-.07-2.3-.25-.65-.13-1.14-.3-1.72-.6-.2-.1-.37-.23-.45-.42-.08-.14-.12-.28-.12-.43v-.75c0-.3.13-.46.33-.46h.3l.36.16c.57.23 1.02.4 1.6.5.6.14 1.14.2 1.8.2.78.05 1.48-.1 2.18-.5.5-.3.78-.8.73-1.4.06-.4-.1-.76-.35-1.04-.46-.4-.95-.65-1.52-.8l-2.18-.68c-.94-.25-1.73-.73-2.38-1.5-.5-.65-.74-1.35-.74-2.18 0-.6.12-1.08.4-1.6.3-.5.63-.9 1.08-1.22.5-.38 1-.6 1.6-.78.67-.18 1.2-.26 1.9-.25.33-.03.6-.03.98 0l1 .16.8.22.67.26c.16.1.28.22.45.38.08.15.12.3.12.5v.7c0 .32-.12.47-.37.47-.2-.03-.37-.08-.57-.18-.95-.42-1.8-.6-2.88-.58-.7-.04-1.3.1-1.97.4-.5.3-.74.8-.7 1.36 0 .4.13.76.46 1.05.48.4.97.65 1.6.82l2.08.67c.95.24 1.68.7 2.3 1.44.5.64.7 1.3.7 2.1 0 .63-.12 1.17-.37 1.73-.28.55-.6.95-1.1 1.32-.5.4-1 .66-1.6.84-.74.23-1.4.33-2.14.34zM287.36 417.48c-5.6 3.82-11.37 5.58-18.16 5.56-8.54.05-15.82-2.74-22.16-8.45-.5-.42 0-1 .5-.68 7.06 4.05 14.02 5.9 22.2 5.9 6.1-.04 11.28-1.1 16.92-3.47.82-.35 1.5.55.7 1.13z" stroke="#fff" stroke-opacity="0" fill="#fff"/><path d="M289.4 415.2c-.63-.82-4.15-.38-5.74-.2-.47 0-.54-.36-.1-.66 2.8-1.98 7.4-1.4 8-.74.58.67-.15 5.28-2.8 7.5-.4.32-.77.13-.6-.3.55-1.52 1.87-4.83 1.25-5.6z" stroke="#fff" stroke-opacity="0" fill="#fff"/><use xlink:href="#h" transform="matrix(1,0,0,1,312.25,400) translate(0 14.222222222222223)"/><use xlink:href="#i" transform="matrix(1,0,0,1,312.25,400) translate(45.333333333333336 14.222222222222223)"/><path d="M280 844.56h54.14v54.14H280v-54.14z" stroke="#fff" stroke-opacity="0" fill="#693cc5"/><path d="M313.3 888.35l-1.28-.67c.73-1.36 1.2-2.6 1.64-4.08l1.4.4c-.47 1.6-.98 2.9-1.76 4.35zm1.35-13.2c-.26-4.26-1.46-7.8-3.8-11.32l1.2-.78c2.5 3.73 3.77 7.5 4.04 12zm-9.53-17.44c-1.1-.8-2.1-1.4-3.33-2.03l.65-1.3c1.32.66 2.37 1.3 3.55 2.2zM311.04 876.97c-2.4-2.38-4.88-3.94-8.06-5.06l.45-1.35c3.4 1.2 6.04 2.84 8.58 5.37zM317 885.6c-.28-.73-.58-1.4-.9-2.07l1.28-.64c.37.74.66 1.38.96 2.16z" stroke="#fff" stroke-opacity="0" fill="#fff"/><path d="M312.9 888.7l-.47-1.36c1.82-.62 3.28-1.4 4.8-2.58l.88 1.14c-1.64 1.28-3.22 2.14-5.2 2.8zM289.95 871.27l-.33-1.4c1.68-.42 3.15-.6 4.88-.64l.04 1.44c-1.63.03-3 .2-4.6.6zM301.8 866.68l-1.23-.8c1.12-1.8 2.3-3.2 3.88-4.6l.95 1.08c-1.5 1.32-2.58 2.63-3.6 4.32zM312.52 858.12l-.5-1.36c1.15-.43 2.15-.7 3.35-.95l.27 1.45c-1.12.2-2.05.47-3.12.87zM298.23 887.15c-1.24-2.88-1.8-5.53-1.86-8.66.03-1.22.16-2.25.45-3.42l.16-.78 1.44.28-.16.8c-.26 1.07-.4 2-.4 3.1.02 2.95.54 5.44 1.7 8.16z" stroke="#fff" stroke-opacity="0" fill="#fff"/><path d="M307.07 889.68c-9.96 0-18.05-8.1-18.05-18.04 0-.4 0-.72.04-1.12.47-7.7 5.45-14 12.85-16.2 4.88-1.44 9.57-.93 13.98 1.56 8.7 4.88 11.8 15.87 6.92 24.58-1.22 2.2-2.67 3.9-4.7 5.46-3.3 2.53-6.84 3.76-11.03 3.76zm0-34.66c-1.7 0-3.14.2-4.73.72-6.82 2.06-11.4 7.8-11.84 14.9 0 .35-.03.68-.03 1 0 9.15 7.43 16.6 16.6 16.6 1.9 0 3.54-.26 5.34-.9 1.85-.63 3.3-1.4 4.8-2.58 4.23-3.25 6.47-7.8 6.47-13.12 0-9.18-7.43-16.62-16.6-16.62z" stroke="#fff" stroke-opacity="0" fill="#fff"/><path d="M308.82 863.28c-1.76 0-3.2-1.44-3.2-3.2 0-1.77 1.44-3.2 3.2-3.2 1.77 0 3.2 1.43 3.2 3.2 0 1.77-1.42 3.2-3.2 3.2zm0-4.95c-.96 0-1.75.8-1.75 1.76s.8 1.74 1.75 1.74c.97 0 1.76-.78 1.76-1.75 0-.98-.8-1.77-1.76-1.77zM298.98 873.35c-1.77 0-3.2-1.44-3.2-3.2 0-1.77 1.43-3.2 3.2-3.2 1.76 0 3.2 1.43 3.2 3.2 0 1.76-1.44 3.2-3.2 3.2zm0-4.95c-.97 0-1.75.78-1.75 1.75s.78 1.75 1.75 1.75c.96 0 1.75-.78 1.75-1.75 0-1-.8-1.77-1.75-1.77zM314.85 882.6c-1.76 0-3.2-1.42-3.2-3.2 0-1.76 1.42-3.2 3.2-3.2 1.75 0 3.2 1.43 3.2 3.2 0 1.78-1.43 3.2-3.2 3.2zm0-4.94c-.97 0-1.76.78-1.76 1.75 0 .98.78 1.76 1.74 1.76.97 0 1.76-.78 1.76-1.75 0-.96-.78-1.74-1.75-1.74z" stroke="#fff" stroke-opacity="0" fill="#fff"/><use xlink:href="#j" transform="matrix(1,0,0,1,250,907.69914331625) translate(24.525 14.4)"/><use xlink:href="#k" transform="matrix(1,0,0,1,250,907.69914331625) translate(13.099999999999994 36)"/><path d="M504.5 844.56h54.15v54.14H504.5v-54.14z" stroke="#fff" stroke-opacity="0" stroke-width="2" fill="#693cc5"/><path d="M540.28 872.35c.3 1.94 1.76 3.4 3.7 3.7 2.47.4 4.76-1.25 5.15-3.7.42-2.46-1.24-4.77-3.7-5.17-2.44-.4-4.77 1.27-5.15 3.72h-5.4c-.07-1.4-.4-2.56-1-3.82l6.5-5.5c.8.66 1.73.98 2.8.98 2.45 0 4.46-2.02 4.46-4.5 0-2.46-2-4.48-4.47-4.48-2.5 0-4.52 2.02-4.52 4.5 0 .9.25 1.67.74 2.46l-6.28 5.27c-.8-1.18-1.7-2.08-2.9-2.87-4.82-3.22-11.3-1.92-14.52 2.88-3.2 4.8-1.9 11.3 2.9 14.52 4.8 3.2 11.3 1.92 14.52-2.88l6.27 5.3c-.5.76-.75 1.52-.75 2.46 0 1.04.32 1.94 1 2.77 1.5 1.95 4.33 2.28 6.27.73 1.97-1.52 2.3-4.34.74-6.28-1.52-1.95-4.34-2.28-6.28-.76l-6.5-5.5c.6-1.25.93-2.4 1-3.8zm4.4-3.76c1.7 0 3.07 1.33 3.07 3.02 0 1.7-1.37 3.04-3.03 3.07-1.7 0-3.07-1.38-3.07-3.08 0-1.66 1.38-3.03 3.03-3.03zM543.2 855c1.66 0 3.03 1.37 3.03 3.07 0 1.65-1.37 3.02-3.03 3.02-1.7 0-3.07-1.37-3.07-3.03 0-1.7 1.38-3.08 3.07-3.08zm0 27.14c1.66 0 3.03 1.34 3.03 3.04s-1.37 3.03-3.03 3.03c-1.7 0-3.07-1.34-3.07-3.03 0-1.7 1.38-3.04 3.07-3.04zm-18.75-1.5c-4.98 0-9.03-4.06-9.03-9.04 0-4.98 4.05-9.02 9.03-9.02 4.97 0 9.02 4.04 9.02 9.02 0 4.98-4.05 9.03-9.02 9.03z" stroke="#fff" stroke-opacity="0" stroke-width="2" fill="#fff"/><use xlink:href="#l" transform="matrix(1,0,0,1,474.5125516320261,907.69914331625) translate(8.549999999999997 14.4)"/><use xlink:href="#m" transform="matrix(1,0,0,1,474.5125516320261,907.69914331625) translate(66.45 14.4)"/><use xlink:href="#n" transform="matrix(1,0,0,1,474.5125516320261,907.69914331625) translate(18.049999999999997 36)"/><path d="M334.64 871.63h153.5" stroke="#333" fill="none"/><path d="M334.65 872.13h-.5v-1h.5z" fill="#333"/><path d="M502.9 871.63l-14.27 4.63V867z" stroke="#333" fill="#333"/><path d="M1483.25 844h54.17v54.17h-54.17V844z" stroke="#fff" stroke-opacity="0" stroke-width="2" fill="#3b48cc"/><path d="M1501.58 865.33c-5.6 0-11.56-1.7-11.56-4.84 0-3.16 5.94-4.85 11.56-4.85 5.6 0 11.55 1.7 11.55 4.84 0 3.14-5.96 4.83-11.55 4.83zm0-8.24c-5.78 0-10.1 1.78-10.1 3.4 0 1.6 4.32 3.4 10.1 3.4 5.78 0 10.12-1.8 10.12-3.4 0-1.62-4.34-3.4-10.12-3.4z" stroke="#fff" stroke-opacity="0" stroke-width="2" fill="#fff"/><path d="M1511.7 860.7h1.46V873h-1.45v-12.3zM1501.57 888.78c-5.6 0-11.56-1.68-11.56-4.8V860.7h1.45V884c0 1.6 4.34 3.38 10.12 3.38 5.78 0 10.1-1.77 10.1-3.37v-2.35h1.46V884c.02 3.13-5.97 4.78-11.56 4.78z" stroke="#fff" stroke-opacity="0" stroke-width="2" fill="#fff"/><path d="M1501.58 873.5c-5.6 0-11.56-1.7-11.56-4.85h1.46c0 1.6 4.32 3.4 10.1 3.4 5.78 0 10.12-1.8 10.12-3.4h1.43c-.02 3.14-5.96 4.84-11.55 4.84zM1501.62 881.44c-5.58 0-11.55-1.7-11.55-4.84h1.45c0 1.6 4.33 3.4 10.1 3.4 2.5.03 4.62-.28 7-1.02l.45 1.37c-2.53.8-4.8 1.12-7.45 1.1z" stroke="#fff" stroke-opacity="0" stroke-width="2" fill="#fff"/><path d="M1518.53 889.4c-.4 0-.73-.3-.73-.7 0-4.97-5.66-10.66-10.64-10.66-.4 0-.73-.3-.73-.72 0-.4.32-.73.73-.73 4.98 0 10.64-5.67 10.64-10.65 0-.4.34-.73.73-.73.4 0 .73.32.73.73 0 4.98 5.66 10.64 10.64 10.64.4 0 .73.33.73.72 0 .4-.32.72-.73.72-4.98 0-10.64 5.66-10.64 10.65 0 .4-.34.7-.73.7zm-7.84-12.08c3.67 1.57 6.28 4.18 7.83 7.86 1.57-3.7 4.16-6.3 7.86-7.86-3.7-1.55-6.3-4.16-7.87-7.87-1.55 3.7-4.16 6.3-7.84 7.87zM1521.82 859.98h1.45v4.34h-1.45v-4.34z" stroke="#fff" stroke-opacity="0" stroke-width="2" fill="#fff"/><path d="M1520.38 861.43h4.33v1.44h-4.32v-1.44zM1513.88 852.76h1.44v4.34h-1.44v-4.34z" stroke="#fff" stroke-opacity="0" stroke-width="2" fill="#fff"/><path d="M1512.43 854.2h4.34v1.45h-4.34v-1.44z" stroke="#fff" stroke-opacity="0" stroke-width="2" fill="#fff"/><use xlink:href="#j" transform="matrix(1,0,0,1,1453.2457717879274,907.1732283464567) translate(24.525 14.4)"/><use xlink:href="#o" transform="matrix(1,0,0,1,1453.2457717879274,907.1732283464567) translate(30.549999999999997 36)"/><path d="M905.2 845.9c-.52.04-.93.14-1.34.35l-17.8 8.77c-.98.46-1.65 1.3-1.86 2.36l-4.4 19.76c-.22.92-.06 1.85.45 2.67.05.1.1.16.2.26l12.32 15.8c.67.88 1.6 1.34 2.67 1.34h19.8c1.1 0 2-.46 2.68-1.33l12.32-15.8c.66-.88.92-1.9.66-2.98l-4.4-19.72c-.22-1.07-.88-1.9-1.86-2.36l-17.8-8.77c-.57-.26-1.08-.4-1.65-.36z" stroke="#000" stroke-opacity="0" stroke-width="0" fill="#326ce5"/><path d="M905.18 844.46c-.54.05-.97.16-1.4.38l-18.8 9.26c-1.03.5-1.74 1.36-1.95 2.5l-4.66 20.85c-.22.98-.06 1.95.5 2.82.04.1.1.16.2.27l13 16.68c.7.92 1.68 1.4 2.82 1.4h20.9c1.14 0 2.1-.48 2.82-1.4l13-16.68c.7-.92.98-2 .7-3.1l-4.65-20.85c-.22-1.14-.93-2-1.95-2.5l-18.8-9.26c-.6-.27-1.14-.44-1.74-.38zm0 1.4c.6 0 1.1.12 1.63.4l17.9 8.76c.9.5 1.56 1.3 1.83 2.4l4.4 19.7c.2 1.1 0 2.06-.66 2.93l-12.36 15.82c-.64.87-1.56 1.35-2.64 1.35h-19.83c-1.08 0-2-.48-2.65-1.35l-12.35-15.82c-.06-.05-.1-.16-.17-.27-.54-.8-.7-1.68-.48-2.65l4.38-19.72c.28-1.08.87-1.9 1.85-2.38l17.88-8.77c.44-.22.82-.33 1.3-.38z" stroke="#000" stroke-opacity="0" stroke-width="0" fill="#fff"/><path d="M913.6 884.14h-6.8L892 865.1h-4.27v-6.25h6.94l14.8 19.08h4.12v-4.95l9.37 8.04-9.38 8.07zm-7.44-14.7l3.3-4.28h4.13v4.95l9.37-8.03-9.38-8.06v4.95h-6.8l-4.4 5.65zm-10.8 4.2L892 878h-4.27v6.24h6.94l4.44-5.75z" stroke="#000" stroke-opacity="0" stroke-width=".79" fill="#fff"/><use xlink:href="#p" transform="matrix(1,0,0,1,848.2595946576124,907.6320239398553) translate(28.025 14.4)"/><path d="M1025.2 845.92c-.52.05-.93.16-1.34.36l-17.8 8.78c-.98.46-1.65 1.28-1.86 2.36l-4.4 19.75c-.22.93-.06 1.85.45 2.67.05.1.1.16.2.26l12.32 15.8c.67.88 1.6 1.34 2.67 1.34h19.8c1.1 0 2-.46 2.68-1.34l12.32-15.8c.66-.87.92-1.9.66-2.98l-4.4-19.7c-.22-1.08-.88-1.9-1.86-2.36l-17.8-8.78c-.57-.26-1.08-.4-1.65-.36z" stroke="#000" stroke-opacity="0" stroke-width="3.83" fill="#326ce5"/><path d="M1025.18 844.5c-.54.05-.97.15-1.4.37l-18.8 9.27c-1.03.48-1.74 1.35-1.95 2.5l-4.66 20.84c-.22.98-.06 1.95.5 2.82.04.1.1.16.2.27l13 16.7c.7.9 1.68 1.4 2.82 1.4h20.9c1.14 0 2.1-.5 2.82-1.4l13-16.7c.7-.92.98-2 .7-3.1l-4.65-20.84c-.22-1.14-.93-2-1.95-2.5l-18.8-9.26c-.6-.27-1.14-.43-1.74-.38zm0 1.46c.6-.06 1.1.05 1.63.32l17.9 8.78c.9.48 1.56 1.3 1.83 2.38l4.4 19.72c.2 1.08 0 2.06-.66 2.92l-12.36 15.82c-.64.87-1.56 1.36-2.64 1.36h-19.83c-1.08 0-2-.5-2.65-1.36l-12.35-15.82c-.06-.05-.1-.16-.17-.27-.54-.8-.7-1.67-.48-2.64l4.38-19.72c.28-1.08.87-1.9 1.85-2.38l17.88-8.78c.44-.22.82-.32 1.3-.38z" stroke="#000" stroke-opacity="0" stroke-width="3.83" fill="#fff"/><path d="M1009.06 877.8h8.74v6.3h-8.74zM1020.98 877.8h8.73v6.3H1021zM1032.9 877.8h8.73v6.3h-8.73zM1018.43 859.05h13.84v6.32h-13.84z" stroke="#000" stroke-opacity="0" stroke-width="3.77" fill="#fff"/><path d="M1024.55 865.37v5.4h-11.1c-.46 0-.8.36-.8.8v6.2h1.57v-5.38h11.12c.45 0 .8-.37.8-.83v-6.2z" stroke="#000" stroke-opacity="0" stroke-width="3.77" fill="#fff"/><path d="M1024.56 865.37v6.2c0 .46.35.82.8.82h11.1v5.38h1.6v-6.2c0-.45-.36-.82-.8-.82h-11.13v-5.4z" stroke="#000" stroke-opacity="0" stroke-width="3.77" fill="#fff"/><path d="M1024.53 865.38v6.2c0 .1 0 .2.05.3v5.9h1.6v-6.2c0-.1-.03-.2-.06-.28v-5.92z" stroke="#000" stroke-opacity="0" stroke-width="3.77" fill="#fff"/><use xlink:href="#q" transform="matrix(1,0,0,1,968.2595946576123,907.6655836280527) translate(27.549999999999997 14.4)"/><path d="M1172.45 761.52c-.5.05-.92.15-1.33.36l-17.8 8.77c-.98.46-1.65 1.28-1.85 2.36l-4.42 19.77c-.2.92-.05 1.85.46 2.67.07.1.12.15.22.25l12.32 15.8c.66.87 1.6 1.33 2.66 1.33h19.8c1.1 0 2-.46 2.68-1.33l12.32-15.8c.67-.88.92-1.9.67-2.98l-4.42-19.7c-.2-1.1-.87-1.9-1.85-2.37l-17.8-8.77c-.57-.26-1.08-.4-1.65-.36z" stroke="#000" stroke-opacity="0" stroke-width="3.83" fill="#326ce5"/><path d="M1172.45 760.1c-.55.04-.98.15-1.4.37l-18.8 9.26c-1.04.5-1.74 1.35-1.96 2.5l-4.67 20.85c-.22.97-.05 1.95.5 2.82.04.1.1.16.2.27l13 16.68c.7.92 1.7 1.4 2.82 1.4h20.9c1.15 0 2.13-.48 2.83-1.4l13-16.68c.7-.92.98-2 .7-3.1l-4.65-20.85c-.22-1.14-.92-2-1.95-2.5l-18.8-9.25c-.6-.28-1.14-.44-1.73-.38zm0 1.45c.6-.05 1.08.05 1.62.32l17.88 8.78c.92.5 1.57 1.3 1.84 2.38l4.38 19.72c.22 1.1 0 2.06-.65 2.93l-12.35 15.82c-.65.86-1.57 1.35-2.66 1.35h-19.82c-1.1 0-2-.5-2.66-1.35l-12.35-15.82c-.06-.06-.12-.16-.17-.27-.54-.8-.7-1.67-.5-2.65l4.4-19.72c.27-1.08.86-1.9 1.84-2.38l17.88-8.78c.43-.2.8-.32 1.3-.37z" stroke="#000" stroke-opacity="0" stroke-width="3.83" fill="#fff"/><path d="M1169.9 806.16c0 1.6-.54 2.42-1.63 2.42-.7 0-1.16-.27-1.4-.8h-.02c.02.02.02.26.02.72v1.8h-.74v-5.48c0-.48 0-.8-.03-.95h.72v.13c.02.07.02.17.03.32v.3h.03c.13-.28.3-.5.52-.62.22-.14.5-.2.87-.2.55 0 .96.18 1.23.57.27.38.4.97.4 1.8zm-.77.02c0-.64-.08-1.1-.25-1.38-.17-.28-.44-.4-.8-.4-.3 0-.53.05-.7.18-.17.13-.3.33-.38.6-.1.27-.13.63-.13 1.06 0 .6.1 1.05.28 1.34.2.28.5.43.92.43.37 0 .63-.13.8-.4.17-.3.26-.76.26-1.42zM1174.63 806.18c0 .8-.17 1.4-.52 1.8-.33.4-.83.6-1.5.6-.64 0-1.14-.2-1.47-.6-.33-.43-.5-1.02-.5-1.8 0-1.6.67-2.4 2-2.4.7 0 1.2.2 1.52.6.32.38.48 1 .48 1.8zm-.78 0c0-.64-.1-1.1-.28-1.4-.18-.27-.5-.42-.92-.42-.44 0-.75.15-.95.44-.2.3-.3.75-.3 1.38 0 .6.1 1.07.3 1.37.2.3.5.46.9.46.45 0 .77-.13.96-.43.2-.3.3-.76.3-1.4zM1178.4 807.75c-.15.3-.33.5-.56.64-.23.1-.5.18-.85.18-.57 0-1-.2-1.26-.6-.26-.38-.4-.98-.4-1.78 0-1.6.55-2.4 1.65-2.4.33 0 .6.06.84.18.23.13.4.34.55.6v-2.42h.73v5.38c0 .48 0 .8.03.96h-.72l-.02-.33-.02-.42zm-2.27-1.57c0 .65.08 1.1.24 1.38.17.3.44.43.8.43.43 0 .74-.17.93-.47.2-.3.3-.77.3-1.4 0-.6-.1-1.06-.3-1.34-.2-.3-.5-.44-.9-.44-.38 0-.65.14-.83.43-.16.28-.24.74-.24 1.38z" stroke="#000" stroke-opacity="0" fill="#fff"/><path d="M1161.74 778.23l10.87-3.25 10.88 3.25-10.87 3.25zM1161.74 779.48v11.92l10.13 5.8.05-14.6zM1183.48 779.48v11.92l-10.13 5.8-.05-14.6z" stroke="#000" stroke-opacity="0" stroke-width="3.77" fill="#fff"/><use xlink:href="#r" transform="matrix(1,0,0,1,1115.5224452529108,823.2598425197116) translate(41.5 14.4)"/><path d="M1172.45 845.96c-.5.05-.92.15-1.33.36l-17.8 8.77c-.98.45-1.65 1.27-1.85 2.35l-4.42 19.76c-.2.93-.05 1.85.46 2.68.07.1.12.15.22.25l12.32 15.8c.66.88 1.6 1.34 2.66 1.34h19.8c1.1 0 2-.46 2.68-1.33l12.32-15.8c.67-.88.92-1.9.67-2.98l-4.42-19.7c-.2-1.1-.87-1.9-1.85-2.37l-17.8-8.78c-.57-.26-1.08-.42-1.65-.36z" stroke="#000" stroke-opacity="0" stroke-width="3.83" fill="#326ce5"/><path d="M1172.45 844.53c-.55.05-.98.16-1.4.38l-18.8 9.27c-1.04.5-1.74 1.35-1.96 2.5l-4.67 20.85c-.22.97-.05 1.95.5 2.8.04.12.1.18.2.3l13 16.67c.7.9 1.7 1.4 2.82 1.4h20.9c1.15 0 2.13-.5 2.83-1.4l13-16.7c.7-.92.98-2 .7-3.08l-4.65-20.86c-.22-1.14-.92-2-1.95-2.5l-18.8-9.25c-.6-.27-1.14-.43-1.73-.37zm0 1.46c.6-.07 1.08.04 1.62.3l17.88 8.8c.92.48 1.57 1.3 1.84 2.37l4.38 19.72c.22 1.08 0 2.05-.65 2.92l-12.35 15.82c-.65.86-1.57 1.35-2.66 1.35h-19.82c-1.1 0-2-.5-2.66-1.36l-12.35-15.82c-.06-.06-.12-.16-.17-.27-.54-.82-.7-1.68-.5-2.66l4.4-19.73c.27-1.08.86-1.9 1.84-2.38l17.88-8.8c.43-.2.8-.3 1.3-.37z" stroke="#000" stroke-opacity="0" stroke-width="3.83" fill="#fff"/><path d="M1169.9 890.6c0 1.6-.54 2.42-1.63 2.42-.7 0-1.16-.27-1.4-.8h-.02c.02.02.02.26.02.72v1.8h-.74v-5.48c0-.48 0-.8-.03-.95h.72v.14c.02.07.02.17.03.32v.3h.03c.13-.3.3-.5.52-.62.22-.14.5-.2.87-.2.55 0 .96.18 1.23.57.27.4.4.98.4 1.8zm-.77.02c0-.64-.08-1.1-.25-1.38-.17-.28-.44-.4-.8-.4-.3 0-.53.05-.7.18-.17.13-.3.33-.38.6-.1.27-.13.63-.13 1.06 0 .6.1 1.05.28 1.34.2.28.5.43.92.43.37 0 .63-.14.8-.42.17-.28.26-.75.26-1.4zM1174.63 890.62c0 .8-.17 1.4-.52 1.8-.33.4-.83.6-1.5.6-.64 0-1.14-.2-1.47-.6-.33-.43-.5-1.02-.5-1.8 0-1.6.67-2.4 2-2.4.7 0 1.2.2 1.52.6.32.38.48 1 .48 1.8zm-.78 0c0-.64-.1-1.1-.28-1.4-.18-.27-.5-.42-.92-.42-.44 0-.75.15-.95.44-.2.3-.3.75-.3 1.38 0 .6.1 1.07.3 1.37.2.3.5.45.9.45.45 0 .77-.15.96-.44.2-.3.3-.75.3-1.38zM1178.4 892.2c-.15.3-.33.5-.56.63-.23.12-.5.2-.85.2-.57 0-1-.2-1.26-.6-.26-.4-.4-1-.4-1.8 0-1.6.55-2.4 1.65-2.4.33 0 .6.07.84.2.23.12.4.33.55.6V886.6h.73v5.38c0 .48 0 .8.03.95h-.72l-.02-.32-.02-.4zm-2.27-1.58c0 .65.08 1.1.24 1.38.17.3.44.43.8.43.43 0 .74-.16.93-.46.2-.3.3-.77.3-1.4 0-.6-.1-1.06-.3-1.34-.2-.3-.5-.43-.9-.43-.38 0-.65.14-.83.43-.16.28-.24.75-.24 1.4z" stroke="#000" stroke-opacity="0" fill="#fff"/><path d="M1161.74 862.67l10.87-3.25 10.88 3.25-10.87 3.25zM1161.74 863.92v11.92l10.13 5.8.05-14.6zM1183.48 863.92v11.92l-10.13 5.8-.05-14.6z" stroke="#000" stroke-opacity="0" stroke-width="3.77" fill="#fff"/><use xlink:href="#r" transform="matrix(1,0,0,1,1115.5224452529108,907.69914331625) translate(41.5 14.4)"/><path d="M1172.45 924.43c-.5.05-.92.15-1.33.36l-17.8 8.76c-.98.47-1.65 1.3-1.85 2.36l-4.42 19.76c-.2.92-.05 1.85.46 2.67.07.1.12.15.22.26l12.32 15.8c.66.88 1.6 1.35 2.66 1.35h19.8c1.1 0 2-.47 2.68-1.34l12.32-15.8c.67-.87.92-1.9.67-2.97l-4.42-19.7c-.2-1.08-.87-1.9-1.85-2.37l-17.8-8.77c-.57-.27-1.08-.42-1.65-.37z" stroke="#000" stroke-opacity="0" stroke-width="3.83" fill="#326ce5"/><path d="M1172.45 923c-.55.05-.98.16-1.4.38l-18.8 9.26c-1.04.5-1.74 1.36-1.96 2.5l-4.67 20.85c-.22.97-.05 1.94.5 2.8.04.12.1.17.2.28l13 16.68c.7.93 1.7 1.4 2.82 1.4h20.9c1.15 0 2.13-.47 2.83-1.4l13-16.68c.7-.92.98-2 .7-3.1l-4.65-20.85c-.22-1.13-.92-2-1.95-2.5l-18.8-9.25c-.6-.27-1.14-.43-1.73-.38zm0 1.46c.6-.05 1.08.06 1.62.33l17.88 8.76c.92.5 1.57 1.3 1.84 2.4l4.38 19.7c.22 1.1 0 2.07-.65 2.93l-12.35 15.8c-.65.88-1.57 1.36-2.66 1.36h-19.82c-1.1 0-2-.48-2.66-1.35l-12.35-15.8c-.06-.06-.12-.17-.17-.28-.54-.8-.7-1.68-.5-2.65l4.4-19.72c.27-1.1.86-1.9 1.84-2.4l17.88-8.76c.43-.23.8-.34 1.3-.4z" stroke="#000" stroke-opacity="0" stroke-width="3.83" fill="#fff"/><path d="M1169.9 969.08c0 1.6-.54 2.4-1.63 2.4-.7 0-1.16-.25-1.4-.8h-.02c.02.03.02.27.02.74v1.8h-.74v-5.5c0-.46 0-.78-.03-.93h.72v.1c.02.08.02.2.03.34v.3h.03c.13-.3.3-.5.52-.63.22-.13.5-.2.87-.2.55 0 .96.2 1.23.58.27.38.4.98.4 1.8zm-.77 0c0-.63-.08-1.1-.25-1.36-.17-.28-.44-.42-.8-.42-.3 0-.53.07-.7.2-.17.12-.3.32-.38.6-.1.26-.13.62-.13 1.05 0 .6.1 1.05.28 1.34.2.28.5.42.92.42.37 0 .63-.14.8-.42.17-.28.26-.74.26-1.4zM1174.63 969.1c0 .8-.17 1.4-.52 1.8-.33.4-.83.6-1.5.6-.64 0-1.14-.2-1.47-.62-.33-.42-.5-1-.5-1.8 0-1.58.67-2.37 2-2.37.7 0 1.2.2 1.52.6.32.38.48.98.48 1.8zm-.78 0c0-.64-.1-1.1-.28-1.4-.18-.28-.5-.42-.92-.42-.44 0-.75.14-.95.44-.2.3-.3.75-.3 1.37 0 .6.1 1.06.3 1.37.2.3.5.45.9.45.45 0 .77-.14.96-.44.2-.3.3-.76.3-1.4zM1178.4 970.66c-.15.3-.33.5-.56.64-.23.13-.5.2-.85.2-.57 0-1-.2-1.26-.6-.26-.4-.4-1-.4-1.78 0-1.6.55-2.4 1.65-2.4.33 0 .6.05.84.18.23.13.4.33.55.6v-2.42h.73v5.37c0 .48 0 .8.03.96h-.72l-.02-.3-.02-.44zm-2.27-1.57c0 .64.08 1.1.24 1.38.17.28.44.42.8.42.43 0 .74-.15.93-.45.2-.3.3-.77.3-1.4 0-.62-.1-1.07-.3-1.35-.2-.28-.5-.43-.9-.43-.38 0-.65.15-.83.44-.16.3-.24.75-.24 1.4z" stroke="#000" stroke-opacity="0" fill="#fff"/><path d="M1161.74 941.15l10.87-3.25 10.88 3.25-10.87 3.25zM1161.74 942.4v11.9l10.13 5.8.05-14.6zM1183.48 942.4v11.9l-10.13 5.8-.05-14.6z" stroke="#000" stroke-opacity="0" stroke-width="3.77" fill="#fff"/><use xlink:href="#r" transform="matrix(1,0,0,1,1115.5224452529108,986.1732283464567) translate(41.5 14.4)"/><path d="M1051.5 871.58H1087c6.63 0 12-5.37 12-12v-60.4c0-6.63 5.37-12 12-12h19.6" stroke="#333" fill="none"/><path d="M1051.52 872.08h-.4l-.23-1h.62z" fill="#333"/><path d="M1145.33 787.17l-14.26 4.64v-9.26z" stroke="#333" fill="#333"/><path d="M1051.5 871.58h47.46s.02 0 .02.02h31.6" stroke="#333" fill="none"/><path d="M1051.52 872.08h-.4l-.23-1h.62z" fill="#333"/><path d="M1145.33 871.6l-14.26 4.65v-9.27z" stroke="#333" fill="#333"/><path d="M1051.5 871.58H1087c6.63 0 12 5.37 12 12v54.5c0 6.63 5.37 12 12 12h19.6" stroke="#333" fill="none"/><path d="M1051.52 872.08h-.4l-.23-1h.62z" fill="#333"/><path d="M1145.33 950.1l-14.26 4.62v-9.27z" stroke="#333" fill="#333"/><path d="M559.15 871.63h159.98c.02 0 .04-.02.04-.04 0-.04.02-.05.04-.05h144.1" stroke="#333" fill="none"/><path d="M559.17 872.13h-.52v-1h.52z" fill="#333"/><path d="M878.07 871.55l-14.27 4.63v-9.27z" stroke="#333" fill="#333"/><path d="M1198.77 871.6h141.72c.14 0 .26-.1.26-.25s.1-.26.26-.26h125.84" stroke="#333" fill="none"/><path d="M1198.78 872.1h-.4l-.22-1h.62z" fill="#333"/><path d="M1481.63 871.1l-14.27 4.62v-9.27z" stroke="#333" fill="#333"/><path d="M1198.77 787.17h299.56c6.63 0 12 5.38 12 12v28.45" stroke="#333" fill="none"/><path d="M1198.78 787.67h-.4l-.22-1h.62z" fill="#333"/><path d="M1510.33 842.38l-4.63-14.26h9.27z" stroke="#333" fill="#333"/><path d="M1198.77 950.1h299.56c6.63 0 12-5.4 12-12v-23.54" stroke="#333" fill="none"/><path d="M1198.78 950.6h-.4l-.22-1h.62z" fill="#333"/><path d="M1510.33 899.8l4.64 14.26h-9.27z" stroke="#333" fill="#333"/><path d="M698 740h54.17v54.17H698V740z" stroke="#fff" stroke-opacity="0" stroke-width="2" fill="#d86613"/><path d="M725.1 786.6c-.15 0-.25-.04-.38-.08l-16.6-9.6c-.24-.16-.37-.35-.37-.63v-19.2c0-.28.13-.5.37-.63l15.17-8.78c.23-.17.46-.17.7 0 .22.1.36.34.36.6v8.33c0 .27-.14.46-.37.62l-7.58 4.4v10.04l8.67 4.98 7.56-4.33c.23-.1.5-.1.7 0l7.24 4.18c.33.2.46.62.26.97-.07.12-.13.2-.26.28l-15.15 8.74c-.13.04-.23.08-.36.08zm-15.9-10.74l15.9 9.18 13.7-7.93-5.78-3.34-7.57 4.4c-.23.12-.5.12-.73 0l-9.4-5.42c-.23-.15-.36-.35-.36-.62v-10.85c0-.27.13-.5.36-.63l7.6-4.4v-6.68l-13.7 7.92z" stroke="#fff" stroke-opacity="0" stroke-width="2" fill="#fff"/><path d="M741.7 775.34c-.13 0-.24-.03-.36-.08l-7.22-4.15c-.24-.13-.35-.38-.34-.63v-8.8l-7.6-4.32c-.24-.14-.37-.36-.37-.64v-8.32c0-.28.14-.5.37-.64.24-.1.5-.1.72 0l15.16 8.72c.23.14.36.36.36.64v17.52c0 .4-.3.72-.7.72zm-6.5-5.3l5.78 3.34V757.5l-13.73-7.88v6.67l7.58 4.34c.23.1.37.33.37.6z" stroke="#fff" stroke-opacity="0" stroke-width="2" fill="#fff"/><path d="M721.48 772.14V761.3h1.44v4.93l4.7-4.93h1.9l-4.9 5.28 5.33 5.56h-1.98l-5.05-5.06v5.06z" stroke="#fff" stroke-opacity="0" stroke-width="2" fill="#fff"/><path d="M698.04 748.23c0-4.42 3.6-8 8-8h629.83c4.42 0 8 3.58 8 8V1052c0 4.42-3.58 8-8 8H706.04c-4.4 0-8-3.58-8-8z" fill="#fff" fill-opacity="0"/><path d="M699.34 744.12l1.05-1.55 1.54-1.05m2.27-.92l1.84-.37h1.5m2 0h3m2 0h3m2 0h3m2 0h3m2 0h3m2 0h3m2 0h3m2 0h3m2 0h3m2 0h3m2 0h3m2 0h3m2 0h3m2 0h2.98m2 0h3m2 0h3m2 0h3m2 0h3m2 0h3m2 0h3m2 0h3m2 0h3m2 0h3m2 0h3m2 0h3m2 0h3m2 0h3m2 0h3m1.98 0h3m2 0h3m2 0h3m2 0h3m2 0h3m2 0h3m2 0h3m2 0h3m2 0h3m2 0h3m2 0h3m2 0h3m2 0h3m2 0h3m2 0h2.98m2 0h3m2 0h3m2 0h3m2 0h3m2 0h3m2 0h3m2 0h3m2 0h3m2 0h3m2 0h3m2 0h3m2 0h3m2 0h3m2 0h3m1.98 0h3m2 0h3m2 0h3m2 0h3m2 0h3m2 0h3m2 0h3m2 0h3m2 0h3m2 0h3m2 0h3m2 0h3m2 0h3m2 0h3m2 0h2.98m2 0h3m2 0h3m2 0h3m2 0h3m2 0h3m2 0h3m2 0h3m2 0h3m2 0h3m2 0h3m2 0h3m2 0h3m2 0h3m2 0h3m1.98 0h3m2 0h3m2 0h3m2 0h3m2 0h3m2 0h3m2 0h3m2 0h3m2 0h3m2 0h3m2 0h3m2 0h3m2 0h3m2 0h3m2 0h2.98m2 0h3m2 0h3m2 0h3m2 0h3m2 0h3m2 0h3m2 0h3m2 0h3m2 0h3m2 0h3m2 0h3m2 0h3m2 0h3m2 0h3m1.98 0h3m2 0h3m2 0h3m2 0h3m2 0h3m2 0h3m2 0h3m2 0h3m2 0h3m2 0h3m2 0h1.5l1.83.37m2.27.92l1.56 1.05 1.04 1.55m.93 2.27l.37 1.83v1.5m0 1.98v3m0 2v2.98m0 2v2.98m0 2v2.98m0 2v2.98m0 2v2.98m0 2v2.98m0 2v2.98m0 2v2.98m0 2v2.98m0 2v2.98m0 2v2.98m0 2v2.98m0 2v2.98m0 2v2.98m0 2v2.98m0 2v2.98m0 2v2.98m0 2v2.98m0 2v2.98m0 2v2.98m0 2v2.98m0 2v2.98m0 2v2.98m0 2v2.98m0 2v2.98m0 2v2.98m0 2v2.98m0 2v2.98m0 2v2.98m0 2v2.98m0 2v2.98m0 2v2.98m0 2v2.98m0 2V924m0 2V929m0 2v2.98m0 2v2.98m0 2v2.98m0 2v2.98m0 2v2.98m0 2v2.98m0 2v2.98m0 2v2.98m0 2v2.98m0 2v2.98m0 2v2.98m0 2v2.98m0 2v2.97m0 2v2.98m0 2v3m0 2v2.97m0 2v2.98m0 2v2.98m0 2v2.98m0 2v3m0 2v2.97m0 2v2.98m0 2v2.98m0 2v2.98m0 2v1.5l-.37 1.84m-.93 2.26l-1.04 1.56-1.56 1.04m-2.26.93l-1.83.37h-1.5m-2 0h-3m-2 0h-3m-2 0h-3m-2 0h-3m-2 0h-3m-2 0h-3m-2 0h-3m-2 0h-3m-2 0h-3m-2 0h-3m-1.98 0h-3m-2 0h-3m-2 0h-3m-2 0h-3m-2 0h-3m-2 0h-3m-2 0h-3m-2 0h-3m-2 0h-3m-2 0h-3m-2 0h-3m-2 0h-3m-2 0h-3m-2 0h-3m-2 0h-3m-2 0h-3m-2 0h-3m-2 0h-3m-2 0h-3m-2 0h-3m-2 0h-3m-2 0h-2.98m-2 0h-3m-2 0h-3m-2 0h-3m-2 0h-3m-2 0h-3m-2 0h-3m-2 0h-3m-2 0h-3m-2 0h-3m-2 0h-3m-2 0h-3m-2 0h-3m-2 0h-3m-2 0h-3m-2 0h-2.98m-2 0h-3m-2 0h-3m-2 0h-3m-2 0h-3m-2 0h-3m-2 0h-3m-2 0h-3m-2 0h-3m-2 0h-3m-2 0h-3m-2 0h-3m-2 0h-3m-2 0h-3m-2 0h-2.98m-2 0h-3m-2 0h-3m-2 0h-3m-2 0h-3m-2 0h-3m-2 0h-3m-2 0h-3m-2 0h-3m-2 0h-3m-2 0h-3m-2 0h-3m-2 0h-3m-2 0h-3m-2 0h-3m-2 0h-2.98m-2 0h-3m-2 0h-3m-2 0h-3m-2 0h-3m-2 0h-3m-2 0h-3m-2 0h-3m-2 0h-3m-2 0h-3m-2 0h-3m-2 0h-3m-2 0h-3m-2 0h-3m-2 0h-3m-1.98 0h-3m-2 0h-3m-2 0h-3m-2 0h-3m-2 0h-3m-2 0h-3m-2 0h-3m-2 0h-3m-2 0h-3m-2 0h-3m-2 0h-3m-2 0h-3m-2 0h-3m-2 0h-3m-2 0h-2.98m-2 0h-3m-2 0h-3m-2 0h-3m-2 0h-3m-2 0h-3m-2 0h-3m-2 0h-3m-2 0h-3m-2 0h-3m-2 0h-3m-2 0h-3m-2 0h-3m-2 0h-3m-2 0h-3m-1.98 0h-3m-2 0h-3m-2 0h-3m-2 0h-3m-2 0h-3m-2 0h-3m-2 0h-1.5l-1.83-.37m-2.26-.93l-1.55-1.04-1.06-1.56m-.93-2.26l-.36-1.84v-1.5m0-2v-2.97m0-2v-2.98m0-2v-2.98m0-2v-2.98m0-2v-3m0-2v-2.97m0-2v-2.98m0-2v-2.98m0-2v-2.98m0-2v-3m0-2v-2.97m0-2v-2.98m0-2v-2.98m0-2v-2.98m0-2v-3m0-1.98v-3m0-1.98v-3m0-1.98v-3m0-1.98v-3m0-1.98v-3m0-1.98v-3m0-1.98v-3m0-1.98v-3m0-1.98v-3m0-1.98v-3m0-1.98v-3m0-1.98v-3m0-1.98v-3m0-1.98v-3m0-1.98v-3m0-1.98v-3m0-1.98v-3m0-1.98v-3m0-1.98v-3m0-1.98v-3m0-1.98v-3m0-1.98v-3m0-1.98v-3m0-1.98v-3m0-1.98v-3m0-1.98v-3m0-1.98v-3m0-1.98v-3m0-1.98v-3m0-1.98v-3m0-1.98v-3m0-1.98v-3m0-1.98v-3m0-1.98v-3m0-1.98v-3m0-1.98v-3m0-1.98v-3m0-1.98v-3m0-1.98v-3m0-1.98v-3m0-1.98v-3m0-1.98v-3m0-1.98v-3m0-1.98v-3m0-1.98v-3m0-1.98v-1.5l.37-1.83" stroke="#d86613" fill="none"/><use xlink:href="#s" transform="matrix(1,0,0,1,698.0439994509024,760.2250582860433) translate(305 14.4)"/><path d="M931.5 871.55h51.8" stroke="#333" fill="none"/><path d="M931.52 872.05h-.4l-.23-1h.62z" fill="#333"/><path d="M998.08 871.55l-14.27 4.63v-9.27z" stroke="#333" fill="#333"/><path d="M622.26 40h515.48v235.4H622.26z" fill="none"/><use xlink:href="#t" transform="matrix(1,0,0,1,627.256275816013,45) translate(56.000925925926 99.57777777777778)"/><use xlink:href="#u" transform="matrix(1,0,0,1,627.256275816013,45) translate(133.55154320987657 99.57777777777778)"/><use xlink:href="#v" transform="matrix(1,0,0,1,627.256275816013,45) translate(254.63117283950615 99.57777777777778)"/><use xlink:href="#w" transform="matrix(1,0,0,1,627.256275816013,45) translate(366.29660493827157 99.57777777777778)"/><use xlink:href="#x" transform="matrix(1,0,0,1,627.256275816013,45) translate(401.62314814814806 99.57777777777778)"/><use xlink:href="#y" transform="matrix(1,0,0,1,627.256275816013,45) translate(171.06851851851854 139.84444444444443)"/><path d="M280 1023.54h54.17v54.18H280v-54.18z" stroke="#fff" stroke-opacity="0" stroke-width="2" fill="#d6242d"/><path d="M315.28 1059.82l1.02-1.03 8.63 8.63-1.02 1.02-8.62-8.63zM289.24 1033.78l1.02-1.02 9.58 9.58-1.02 1-9.58-9.56zM291.4 1065.3l5.07-5.07 1.02 1.02-5.07 5.06-1.02-1zM316.7 1040l5.05-5.05 1.02 1.02-5.06 5.06-1-1.02z" stroke="#fff" stroke-opacity="0" stroke-width="1.41" fill="#fff"/><path d="M325.14 1049.9v1.45h-1.44c-.14 3.42-1.13 6.28-3.14 9.03l-1.17-.86c1.8-2.5 2.7-5.1 2.83-8.17h-1.44v-1.44h1.43c-.13-3.07-1.03-5.65-2.84-8.14l1.16-.88c2 2.75 3 5.62 3.13 9.03zM316.84 1037.16l-.86 1.17c-2.5-1.8-5.1-2.72-8.17-2.85v1.45h-1.43v-1.45c-3.1.13-5.66 1.04-8.16 2.85l-.86-1.17c2.75-2 5.6-3 9.03-3.13v-1.44h1.44v1.43c3.42.14 6.3 1.13 9.04 3.13zM316.84 1064.1c-2.75 2-5.62 3-9.03 3.13v1.44h-1.43v-1.44c-3.42-.14-6.28-1.13-9.03-3.13l.85-1.17c2.5 1.82 5.08 2.72 8.17 2.85v-1.45h1.44v1.45c3.1-.13 5.66-1.03 8.16-2.85zM291.94 1051.35c.13 3.08 1.03 5.66 2.85 8.15l-1.2.88c-1.98-2.75-2.98-5.6-3.1-9.03h-1.46v-1.44h1.45c.12-3.4 1.12-6.27 3.1-9.02l1.2.86c-1.83 2.5-2.73 5.1-2.86 8.17h1.44v1.45z" stroke="#fff" stroke-opacity="0" stroke-width="2" fill="#fff"/><path d="M313.6 1046.07c-.2-.12-.44-.12-.66 0-.22.1-.36.32-.4.57-.05.47-.1.86-.22 1.3-.36-3.67-2.43-6.6-5.78-8.18-1.03-.8-2.06-1.22-3.32-1.46-.26-.02-.5.05-.67.26-.26.3-.23.76.08 1.02 1.58 1.54 2.2 3.62 1.72 5.77-.84-1.1-2.18-2.42-3.74-2.42-.25 0-.45.1-.6.32-.13.18-.16.44-.08.67.43 1.06 1.25 4.27.07 6.14-.08.12-.15.23-.2.35-1.66 3-.8 6.7 2 8.7 1.48 1 2.84 1.68 4.54 2.26.08.02.17.05.25.05h.15c.96-.08 7.5-.92 8.83-6.1 1.84-7.06-1.8-9.14-1.97-9.23zm-8.07 13.44c-1.06-.45-1.94-.9-2.9-1.56-2.2-1.55-2.86-4.43-1.58-6.8l.18-.3c1.2-1.9.87-4.5.48-6.07 1 .77 1.7 1.57 2.3 2.68.1.2.23.3.42.37.37.14.78-.07.92-.44.93-2.3.84-4.62-.24-6.83.96.55 1.63 1.27 2.1 2.28 1.04 2.13.8 5.06-.6 7.58-1.46 2.94-1.82 5.92-1.07 9.1zm8.66-4.56c-.95 3.7-5.46 4.73-7.1 5-.37-1.42-1.14-5.35.78-8.86 1.4-2.45 1.77-5 1.06-7.76 1.3 1.52 2.4 3.95 1.82 7.58-.03.2.02.4.16.57.25.3.7.35 1 .1 1-.95 1.57-2.04 1.83-3.38.68 1 1.42 3.02.46 6.74z" stroke="#fff" stroke-opacity="0" stroke-width="2" fill="#fff"/><g><use xlink:href="#z" transform="matrix(1,0,0,1,250,1086.7171778902823) translate(15.225000000000001 14.4)"/><use xlink:href="#A" transform="matrix(1,0,0,1,250,1086.7171778902823) translate(60.525 14.4)"/></g><path d="M307.07 899.2v107.96" stroke="#333" fill="none"/><path d="M307.57 899.2h-1v-.5h1z" fill="#333"/><path d="M307.07 1021.93l-4.64-14.27h9.28z" stroke="#333" fill="#333"/><defs><path fill="#666" d="M30-248c87 1 191-15 191 75 0 78-77 80-158 76V0H30v-248zm33 125c57 0 124 11 124-50 0-59-68-47-124-48v98" id="B"/><path fill="#666" d="M84 4C-5 8 30-112 23-190h32v120c0 31 7 50 39 49 72-2 45-101 50-169h31l1 190h-30c-1-10 1-25-2-33-11 22-28 36-60 37" id="C"/><path fill="#666" d="M115-194c53 0 69 39 70 98 0 66-23 100-70 100C84 3 66-7 56-30L54 0H23l1-261h32v101c10-23 28-34 59-34zm-8 174c40 0 45-34 45-75 0-40-5-75-45-74-42 0-51 32-51 76 0 43 10 73 51 73" id="D"/><path fill="#666" d="M24 0v-261h32V0H24" id="E"/><path fill="#666" d="M24-231v-30h32v30H24zM24 0v-190h32V0H24" id="F"/><path fill="#666" d="M96-169c-40 0-48 33-48 73s9 75 48 75c24 0 41-14 43-38l32 2c-6 37-31 61-74 61-59 0-76-41-82-99-10-93 101-131 147-64 4 7 5 14 7 22l-32 3c-4-21-16-35-41-35" id="G"/><g id="a"><use transform="matrix(0.04938271604938272,0,0,0.04938271604938272,0,0)" xlink:href="#B"/><use transform="matrix(0.04938271604938272,0,0,0.04938271604938272,11.851851851851853,0)" xlink:href="#C"/><use transform="matrix(0.04938271604938272,0,0,0.04938271604938272,21.7283950617284,0)" xlink:href="#D"/><use transform="matrix(0.04938271604938272,0,0,0.04938271604938272,31.60493827160494,0)" xlink:href="#E"/><use transform="matrix(0.04938271604938272,0,0,0.04938271604938272,35.50617283950618,0)" xlink:href="#F"/><use transform="matrix(0.04938271604938272,0,0,0.04938271604938272,39.40740740740741,0)" xlink:href="#G"/></g><path fill="#666" d="M185-189c-5-48-123-54-124 2 14 75 158 14 163 119 3 78-121 87-175 55-17-10-28-26-33-46l33-7c5 56 141 63 141-1 0-78-155-14-162-118-5-82 145-84 179-34 5 7 8 16 11 25" id="H"/><path fill="#666" d="M117-194c89-4 53 116 60 194h-32v-121c0-31-8-49-39-48C34-167 62-67 57 0H25l-1-190h30c1 10-1 24 2 32 11-22 29-35 61-36" id="I"/><path fill="#666" d="M100-194c63 0 86 42 84 106H49c0 40 14 67 53 68 26 1 43-12 49-29l28 8c-11 28-37 45-77 45C44 4 14-33 15-96c1-61 26-98 85-98zm52 81c6-60-76-77-97-28-3 7-6 17-6 28h103" id="J"/><path fill="#666" d="M59-47c-2 24 18 29 38 22v24C64 9 27 4 27-40v-127H5v-23h24l9-43h21v43h35v23H59v120" id="K"/><g id="b"><use transform="matrix(0.04938271604938272,0,0,0.04938271604938272,0,0)" xlink:href="#H"/><use transform="matrix(0.04938271604938272,0,0,0.04938271604938272,11.851851851851853,0)" xlink:href="#C"/><use transform="matrix(0.04938271604938272,0,0,0.04938271604938272,21.7283950617284,0)" xlink:href="#D"/><use transform="matrix(0.04938271604938272,0,0,0.04938271604938272,31.60493827160494,0)" xlink:href="#I"/><use transform="matrix(0.04938271604938272,0,0,0.04938271604938272,41.48148148148149,0)" xlink:href="#J"/><use transform="matrix(0.04938271604938272,0,0,0.04938271604938272,51.35802469135803,0)" xlink:href="#K"/></g><path fill="#666" d="M114-163C36-179 61-72 57 0H25l-1-190h30c1 12-1 29 2 39 6-27 23-49 58-41v29" id="L"/><path fill="#666" d="M108 0H70L1-190h34L89-25l56-165h34" id="M"/><path fill="#666" d="M141-36C126-15 110 5 73 4 37 3 15-17 15-53c-1-64 63-63 125-63 3-35-9-54-41-54-24 1-41 7-42 31l-33-3c5-37 33-52 76-52 45 0 72 20 72 64v82c-1 20 7 32 28 27v20c-31 9-61-2-59-35zM48-53c0 20 12 33 32 33 41-3 63-29 60-74-43 2-92-5-92 41" id="N"/><g id="c"><use transform="matrix(0.04938271604938272,0,0,0.04938271604938272,0,0)" xlink:href="#B"/><use transform="matrix(0.04938271604938272,0,0,0.04938271604938272,11.851851851851853,0)" xlink:href="#L"/><use transform="matrix(0.04938271604938272,0,0,0.04938271604938272,17.728395061728396,0)" xlink:href="#F"/><use transform="matrix(0.04938271604938272,0,0,0.04938271604938272,21.62962962962963,0)" xlink:href="#M"/><use transform="matrix(0.04938271604938272,0,0,0.04938271604938272,30.518518518518523,0)" xlink:href="#N"/><use transform="matrix(0.04938271604938272,0,0,0.04938271604938272,40.39506172839506,0)" xlink:href="#K"/><use transform="matrix(0.04938271604938272,0,0,0.04938271604938272,45.333333333333336,0)" xlink:href="#J"/></g><path fill="#666" d="M30-248c118-7 216 8 213 122C240-48 200 0 122 0H30v-248zM63-27c89 8 146-16 146-99s-60-101-146-95v194" id="O"/><path fill="#666" d="M135-143c-3-34-86-38-87 0 15 53 115 12 119 90S17 21 10-45l28-5c4 36 97 45 98 0-10-56-113-15-118-90-4-57 82-63 122-42 12 7 21 19 24 35" id="P"/><g id="d"><use transform="matrix(0.04938271604938272,0,0,0.04938271604938272,0,0)" xlink:href="#O"/><use transform="matrix(0.04938271604938272,0,0,0.04938271604938272,12.790123456790125,0)" xlink:href="#N"/><use transform="matrix(0.04938271604938272,0,0,0.04938271604938272,22.66666666666667,0)" xlink:href="#K"/><use transform="matrix(0.04938271604938272,0,0,0.04938271604938272,27.604938271604947,0)" xlink:href="#N"/><use transform="matrix(0.04938271604938272,0,0,0.04938271604938272,37.48148148148149,0)" xlink:href="#D"/><use transform="matrix(0.04938271604938272,0,0,0.04938271604938272,47.35802469135803,0)" xlink:href="#N"/><use transform="matrix(0.04938271604938272,0,0,0.04938271604938272,57.23456790123457,0)" xlink:href="#P"/><use transform="matrix(0.04938271604938272,0,0,0.04938271604938272,66.12345679012347,0)" xlink:href="#J"/></g><g id="e"><use transform="matrix(0.04938271604938272,0,0,0.04938271604938272,0,0)" xlink:href="#P"/><use transform="matrix(0.04938271604938272,0,0,0.04938271604938272,8.88888888888889,0)" xlink:href="#C"/><use transform="matrix(0.04938271604938272,0,0,0.04938271604938272,18.765432098765434,0)" xlink:href="#D"/><use transform="matrix(0.04938271604938272,0,0,0.04938271604938272,28.641975308641978,0)" xlink:href="#I"/><use transform="matrix(0.04938271604938272,0,0,0.04938271604938272,38.51851851851852,0)" xlink:href="#J"/><use transform="matrix(0.04938271604938272,0,0,0.04938271604938272,48.39506172839506,0)" xlink:href="#K"/></g><path fill="#666" d="M147 0H94L2-248h55l64 206c17-72 42-137 63-206h54" id="Q"/><path fill="#666" d="M24-248c93 1 206-16 204 79-1 75-69 88-152 82V0H24v-248zm52 121c47 0 100 7 100-41 0-47-54-39-100-39v80" id="R"/><path fill="#666" d="M67-125c0 53 21 87 73 88 37 1 54-22 65-47l45 17C233-25 199 4 140 4 58 4 20-42 15-125 8-235 124-281 211-232c18 10 29 29 36 50l-46 12c-8-25-30-41-62-41-52 0-71 34-72 86" id="S"/><g id="f"><use transform="matrix(0.04938271604938272,0,0,0.04938271604938272,0,0)" xlink:href="#Q"/><use transform="matrix(0.04938271604938272,0,0,0.04938271604938272,11.851851851851853,0)" xlink:href="#R"/><use transform="matrix(0.04938271604938272,0,0,0.04938271604938272,23.703703703703706,0)" xlink:href="#S"/></g><path fill="#666" d="M27 0v-27h64v-190l-56 39v-29l58-41h29v221h61V0H27" id="T"/><path fill="#666" d="M101-251c68 0 85 55 85 127S166 4 100 4C33 4 14-52 14-124c0-73 17-127 87-127zm-1 229c47 0 54-49 54-102s-4-102-53-102c-51 0-55 48-55 102 0 53 5 102 54 102" id="U"/><path fill="#666" d="M33 0v-38h34V0H33" id="V"/><path fill="#666" d="M0 4l72-265h28L28 4H0" id="W"/><path fill="#666" d="M110-160c48 1 74 30 74 79 0 53-28 85-80 85-65 0-83-55-86-122-5-90 50-162 133-122 14 7 22 21 27 39l-31 6c-5-40-67-38-82-6-9 19-15 44-15 74 11-20 30-34 60-33zm-7 138c34 0 49-23 49-58s-16-56-50-56c-29 0-50 16-49 49 1 36 15 65 50 65" id="X"/><g id="g"><use transform="matrix(0.04320987654320988,0,0,0.04320987654320988,0,0)" xlink:href="#T"/><use transform="matrix(0.04320987654320988,0,0,0.04320987654320988,8.641975308641976,0)" xlink:href="#U"/><use transform="matrix(0.04320987654320988,0,0,0.04320987654320988,17.283950617283953,0)" xlink:href="#V"/><use transform="matrix(0.04320987654320988,0,0,0.04320987654320988,21.60493827160494,0)" xlink:href="#U"/><use transform="matrix(0.04320987654320988,0,0,0.04320987654320988,30.24691358024692,0)" xlink:href="#V"/><use transform="matrix(0.04320987654320988,0,0,0.04320987654320988,34.567901234567906,0)" xlink:href="#U"/><use transform="matrix(0.04320987654320988,0,0,0.04320987654320988,43.20987654320988,0)" xlink:href="#V"/><use transform="matrix(0.04320987654320988,0,0,0.04320987654320988,47.53086419753087,0)" xlink:href="#U"/><use transform="matrix(0.04320987654320988,0,0,0.04320987654320988,56.17283950617284,0)" xlink:href="#W"/><use transform="matrix(0.04320987654320988,0,0,0.04320987654320988,60.49382716049384,0)" xlink:href="#T"/><use transform="matrix(0.04320987654320988,0,0,0.04320987654320988,69.13580246913581,0)" xlink:href="#X"/></g><path fill="#666" d="M199 0l-22-63H83L61 0H9l90-248h61L250 0h-51zm-33-102l-36-108c-10 38-24 72-36 108h72" id="Y"/><path fill="#666" d="M275 0h-61l-44-196L126 0H64L0-248h53L97-49l45-199h58l43 199 44-199h52" id="Z"/><path fill="#666" d="M169-182c-1-43-94-46-97-3 18 66 151 10 154 114 3 95-165 93-204 36-6-8-10-19-12-30l50-8c3 46 112 56 116 5-17-69-150-10-154-114-4-87 153-88 188-35 5 8 8 18 10 28" id="aa"/><g id="h"><use transform="matrix(0.04938271604938272,0,0,0.04938271604938272,0,0)" xlink:href="#Y"/><use transform="matrix(0.04938271604938272,0,0,0.04938271604938272,11.80246913580247,0)" xlink:href="#Z"/><use transform="matrix(0.04938271604938272,0,0,0.04938271604938272,28.543209876543205,0)" xlink:href="#aa"/></g><path fill="#666" d="M25 0v-261h50V0H25" id="ab"/><path fill="#666" d="M110-194c64 0 96 36 96 99 0 64-35 99-97 99-61 0-95-36-95-99 0-62 34-99 96-99zm-1 164c35 0 45-28 45-65 0-40-10-65-43-65-34 0-45 26-45 65 0 36 10 65 43 65" id="ac"/><path fill="#666" d="M85 4C-2 5 27-109 22-190h50c7 57-23 150 33 157 60-5 35-97 40-157h50l1 190h-47c-2-12 1-28-3-38-12 25-28 42-61 42" id="ad"/><path fill="#666" d="M88-194c31-1 46 15 58 34l-1-101h50l1 261h-48c-2-10 0-23-3-31C134-8 116 4 84 4 32 4 16-41 15-95c0-56 19-97 73-99zm17 164c33 0 40-30 41-66 1-37-9-64-41-64s-38 30-39 65c0 43 13 65 39 65" id="ae"/><g id="i"><use transform="matrix(0.04938271604938272,0,0,0.04938271604938272,0,0)" xlink:href="#S"/><use transform="matrix(0.04938271604938272,0,0,0.04938271604938272,12.790123456790125,0)" xlink:href="#ab"/><use transform="matrix(0.04938271604938272,0,0,0.04938271604938272,17.7283950617284,0)" xlink:href="#ac"/><use transform="matrix(0.04938271604938272,0,0,0.04938271604938272,28.54320987654322,0)" xlink:href="#ad"/><use transform="matrix(0.04938271604938272,0,0,0.04938271604938272,39.35802469135803,0)" xlink:href="#ae"/></g><path fill="#333" d="M205 0l-28-72H64L36 0H1l101-248h38L239 0h-34zm-38-99l-47-123c-12 45-31 82-46 123h93" id="af"/><path fill="#333" d="M210-169c-67 3-38 105-44 169h-31v-121c0-29-5-50-35-48C34-165 62-65 56 0H25l-1-190h30c1 10-1 24 2 32 10-44 99-50 107 0 11-21 27-35 58-36 85-2 47 119 55 194h-31v-121c0-29-5-49-35-48" id="ag"/><path fill="#333" d="M141-36C126-15 110 5 73 4 37 3 15-17 15-53c-1-64 63-63 125-63 3-35-9-54-41-54-24 1-41 7-42 31l-33-3c5-37 33-52 76-52 45 0 72 20 72 64v82c-1 20 7 32 28 27v20c-31 9-61-2-59-35zM48-53c0 20 12 33 32 33 41-3 63-29 60-74-43 2-92-5-92 41" id="ah"/><path fill="#333" d="M9 0v-24l116-142H16v-24h144v24L44-24h123V0H9" id="ai"/><path fill="#333" d="M100-194c62-1 85 37 85 99 1 63-27 99-86 99S16-35 15-95c0-66 28-99 85-99zM99-20c44 1 53-31 53-75 0-43-8-75-51-75s-53 32-53 75 10 74 51 75" id="aj"/><path fill="#333" d="M117-194c89-4 53 116 60 194h-32v-121c0-31-8-49-39-48C34-167 62-67 57 0H25l-1-190h30c1 10-1 24 2 32 11-22 29-35 61-36" id="ak"/><g id="j"><use transform="matrix(0.05,0,0,0.05,0,0)" xlink:href="#af"/><use transform="matrix(0.05,0,0,0.05,12,0)" xlink:href="#ag"/><use transform="matrix(0.05,0,0,0.05,26.950000000000003,0)" xlink:href="#ah"/><use transform="matrix(0.05,0,0,0.05,36.95,0)" xlink:href="#ai"/><use transform="matrix(0.05,0,0,0.05,45.95,0)" xlink:href="#aj"/><use transform="matrix(0.05,0,0,0.05,55.95,0)" xlink:href="#ak"/></g><path fill="#333" d="M212-179c-10-28-35-45-73-45-59 0-87 40-87 99 0 60 29 101 89 101 43 0 62-24 78-52l27 14C228-24 195 4 139 4 59 4 22-46 18-125c-6-104 99-153 187-111 19 9 31 26 39 46" id="al"/><path fill="#333" d="M24 0v-261h32V0H24" id="am"/><path fill="#333" d="M84 4C-5 8 30-112 23-190h32v120c0 31 7 50 39 49 72-2 45-101 50-169h31l1 190h-30c-1-10 1-25-2-33-11 22-28 36-60 37" id="an"/><path fill="#333" d="M85-194c31 0 48 13 60 33l-1-100h32l1 261h-30c-2-10 0-23-3-31C134-8 116 4 85 4 32 4 16-35 15-94c0-66 23-100 70-100zm9 24c-40 0-46 34-46 75 0 40 6 74 45 74 42 0 51-32 51-76 0-42-9-74-50-73" id="ao"/><path fill="#333" d="M63-220v92h138v28H63V0H30v-248h175v28H63" id="ap"/><path fill="#333" d="M114-163C36-179 61-72 57 0H25l-1-190h30c1 12-1 29 2 39 6-27 23-49 58-41v29" id="aq"/><path fill="#333" d="M59-47c-2 24 18 29 38 22v24C64 9 27 4 27-40v-127H5v-23h24l9-43h21v43h35v23H59v120" id="ar"/><g id="k"><use transform="matrix(0.05,0,0,0.05,0,0)" xlink:href="#al"/><use transform="matrix(0.05,0,0,0.05,12.950000000000001,0)" xlink:href="#am"/><use transform="matrix(0.05,0,0,0.05,16.900000000000002,0)" xlink:href="#aj"/><use transform="matrix(0.05,0,0,0.05,26.900000000000002,0)" xlink:href="#an"/><use transform="matrix(0.05,0,0,0.05,36.900000000000006,0)" xlink:href="#ao"/><use transform="matrix(0.05,0,0,0.05,46.900000000000006,0)" xlink:href="#ap"/><use transform="matrix(0.05,0,0,0.05,57.85,0)" xlink:href="#aq"/><use transform="matrix(0.05,0,0,0.05,63.80000000000001,0)" xlink:href="#aj"/><use transform="matrix(0.05,0,0,0.05,73.80000000000001,0)" xlink:href="#ak"/><use transform="matrix(0.05,0,0,0.05,83.80000000000001,0)" xlink:href="#ar"/></g><path fill="#333" d="M30 0v-248h187v28H63v79h144v27H63v87h162V0H30" id="as"/><path fill="#333" d="M135-143c-3-34-86-38-87 0 15 53 115 12 119 90S17 21 10-45l28-5c4 36 97 45 98 0-10-56-113-15-118-90-4-57 82-63 122-42 12 7 21 19 24 35" id="at"/><path fill="#333" d="M24-231v-30h32v30H24zM24 0v-190h32V0H24" id="au"/><path fill="#333" d="M96-169c-40 0-48 33-48 73s9 75 48 75c24 0 41-14 43-38l32 2c-6 37-31 61-74 61-59 0-76-41-82-99-10-93 101-131 147-64 4 7 5 14 7 22l-32 3c-4-21-16-35-41-35" id="av"/><g id="l"><use transform="matrix(0.05,0,0,0.05,0,0)" xlink:href="#as"/><use transform="matrix(0.05,0,0,0.05,12,0)" xlink:href="#am"/><use transform="matrix(0.05,0,0,0.05,15.949999999999998,0)" xlink:href="#ah"/><use transform="matrix(0.05,0,0,0.05,25.950000000000003,0)" xlink:href="#at"/><use transform="matrix(0.05,0,0,0.05,34.95,0)" xlink:href="#ar"/><use transform="matrix(0.05,0,0,0.05,39.95,0)" xlink:href="#au"/><use transform="matrix(0.05,0,0,0.05,43.900000000000006,0)" xlink:href="#av"/></g><path fill="#333" d="M30 0v-248h33v221h125V0H30" id="aw"/><g id="m"><use transform="matrix(0.05,0,0,0.05,0,0)" xlink:href="#aw"/><use transform="matrix(0.05,0,0,0.05,10,0)" xlink:href="#aj"/><use transform="matrix(0.05,0,0,0.05,20,0)" xlink:href="#ah"/><use transform="matrix(0.05,0,0,0.05,30,0)" xlink:href="#ao"/></g><path fill="#333" d="M160-131c35 5 61 23 61 61C221 17 115-2 30 0v-248c76 3 177-17 177 60 0 33-19 50-47 57zm-97-11c50-1 110 9 110-42 0-47-63-36-110-37v79zm0 115c55-2 124 14 124-45 0-56-70-42-124-44v89" id="ax"/><path fill="#333" d="M177-190C167-65 218 103 67 71c-23-6-38-20-44-43l32-5c15 47 100 32 89-28v-30C133-14 115 1 83 1 29 1 15-40 15-95c0-56 16-97 71-98 29-1 48 16 59 35 1-10 0-23 2-32h30zM94-22c36 0 50-32 50-73 0-42-14-75-50-75-39 0-46 34-46 75s6 73 46 73" id="ay"/><g id="n"><use transform="matrix(0.05,0,0,0.05,0,0)" xlink:href="#ax"/><use transform="matrix(0.05,0,0,0.05,12,0)" xlink:href="#ah"/><use transform="matrix(0.05,0,0,0.05,22,0)" xlink:href="#am"/><use transform="matrix(0.05,0,0,0.05,25.950000000000003,0)" xlink:href="#ah"/><use transform="matrix(0.05,0,0,0.05,35.95,0)" xlink:href="#ak"/><use transform="matrix(0.05,0,0,0.05,45.95,0)" xlink:href="#av"/><use transform="matrix(0.05,0,0,0.05,54.95,0)" xlink:href="#au"/><use transform="matrix(0.05,0,0,0.05,58.900000000000006,0)" xlink:href="#ak"/><use transform="matrix(0.05,0,0,0.05,68.9,0)" xlink:href="#ay"/></g><g id="o"><use transform="matrix(0.05,0,0,0.05,0,0)" xlink:href="#af"/><use transform="matrix(0.05,0,0,0.05,12,0)" xlink:href="#an"/><use transform="matrix(0.05,0,0,0.05,22,0)" xlink:href="#aq"/><use transform="matrix(0.05,0,0,0.05,27.950000000000003,0)" xlink:href="#aj"/><use transform="matrix(0.05,0,0,0.05,37.95,0)" xlink:href="#aq"/><use transform="matrix(0.05,0,0,0.05,43.900000000000006,0)" xlink:href="#ah"/></g><path fill="#333" d="M33 0v-248h34V0H33" id="az"/><path fill="#333" d="M100-194c63 0 86 42 84 106H49c0 40 14 67 53 68 26 1 43-12 49-29l28 8c-11 28-37 45-77 45C44 4 14-33 15-96c1-61 26-98 85-98zm52 81c6-60-76-77-97-28-3 7-6 17-6 28h103" id="aA"/><g id="p"><use transform="matrix(0.05,0,0,0.05,0,0)" xlink:href="#az"/><use transform="matrix(0.05,0,0,0.05,5,0)" xlink:href="#ak"/><use transform="matrix(0.05,0,0,0.05,15,0)" xlink:href="#ay"/><use transform="matrix(0.05,0,0,0.05,25,0)" xlink:href="#aq"/><use transform="matrix(0.05,0,0,0.05,30.950000000000003,0)" xlink:href="#aA"/><use transform="matrix(0.05,0,0,0.05,40.95,0)" xlink:href="#at"/><use transform="matrix(0.05,0,0,0.05,49.95,0)" xlink:href="#at"/></g><path fill="#333" d="M185-189c-5-48-123-54-124 2 14 75 158 14 163 119 3 78-121 87-175 55-17-10-28-26-33-46l33-7c5 56 141 63 141-1 0-78-155-14-162-118-5-82 145-84 179-34 5 7 8 16 11 25" id="aB"/><path fill="#333" d="M108 0H70L1-190h34L89-25l56-165h34" id="aC"/><g id="q"><use transform="matrix(0.05,0,0,0.05,0,0)" xlink:href="#aB"/><use transform="matrix(0.05,0,0,0.05,12,0)" xlink:href="#aA"/><use transform="matrix(0.05,0,0,0.05,22,0)" xlink:href="#aq"/><use transform="matrix(0.05,0,0,0.05,27.950000000000003,0)" xlink:href="#aC"/><use transform="matrix(0.05,0,0,0.05,36.95,0)" xlink:href="#au"/><use transform="matrix(0.05,0,0,0.05,40.900000000000006,0)" xlink:href="#av"/><use transform="matrix(0.05,0,0,0.05,49.900000000000006,0)" xlink:href="#aA"/></g><path fill="#333" d="M30-248c87 1 191-15 191 75 0 78-77 80-158 76V0H30v-248zm33 125c57 0 124 11 124-50 0-59-68-47-124-48v98" id="aD"/><g id="r"><use transform="matrix(0.05,0,0,0.05,0,0)" xlink:href="#aD"/><use transform="matrix(0.05,0,0,0.05,12,0)" xlink:href="#aj"/><use transform="matrix(0.05,0,0,0.05,22,0)" xlink:href="#ao"/></g><path fill="#d86613" d="M30 0v-248h187v28H63v79h144v27H63v87h162V0H30" id="aE"/><path fill="#d86613" d="M194 0L95-120 63-95V0H30v-248h33v124l119-124h40L117-140 236 0h-42" id="aF"/><path fill="#d86613" d="M185-189c-5-48-123-54-124 2 14 75 158 14 163 119 3 78-121 87-175 55-17-10-28-26-33-46l33-7c5 56 141 63 141-1 0-78-155-14-162-118-5-82 145-84 179-34 5 7 8 16 11 25" id="aG"/><g id="s"><use transform="matrix(0.05,0,0,0.05,0,0)" xlink:href="#aE"/><use transform="matrix(0.05,0,0,0.05,12,0)" xlink:href="#aF"/><use transform="matrix(0.05,0,0,0.05,24,0)" xlink:href="#aG"/></g><path d="M266 0h-40l-56-210L115 0H75L2-248h35L96-30l15-64 43-154h32l59 218 59-218h35" id="aH"/><path d="M100-194c63 0 86 42 84 106H49c0 40 14 67 53 68 26 1 43-12 49-29l28 8c-11 28-37 45-77 45C44 4 14-33 15-96c1-61 26-98 85-98zm52 81c6-60-76-77-97-28-3 7-6 17-6 28h103" id="aI"/><path d="M115-194c53 0 69 39 70 98 0 66-23 100-70 100C84 3 66-7 56-30L54 0H23l1-261h32v101c10-23 28-34 59-34zm-8 174c40 0 45-34 45-75 0-40-5-75-45-74-42 0-51 32-51 76 0 43 10 73 51 73" id="aJ"/><g id="t"><use transform="matrix(0.09320987654320984,0,0,0.09320987654320984,0,0)" xlink:href="#aH"/><use transform="matrix(0.09320987654320984,0,0,0.09320987654320984,30.945679012345664,0)" xlink:href="#aI"/><use transform="matrix(0.09320987654320984,0,0,0.09320987654320984,49.58765432098763,0)" xlink:href="#aJ"/><path d="M-1.68 2.33h80.9V4.8h-80.9z"/></g><path d="M114-163C36-179 61-72 57 0H25l-1-190h30c1 12-1 29 2 39 6-27 23-49 58-41v29" id="aK"/><path d="M145-31C134-9 116 4 85 4 32 4 16-35 15-94c0-59 17-99 70-100 32-1 48 14 60 33 0-11-1-24 2-32h30l-1 268h-32zM93-21c41 0 51-33 51-76s-8-73-50-73c-40 0-46 35-46 75s5 74 45 74" id="aL"/><path d="M84 4C-5 8 30-112 23-190h32v120c0 31 7 50 39 49 72-2 45-101 50-169h31l1 190h-30c-1-10 1-25-2-33-11 22-28 36-60 37" id="aM"/><path d="M135-143c-3-34-86-38-87 0 15 53 115 12 119 90S17 21 10-45l28-5c4 36 97 45 98 0-10-56-113-15-118-90-4-57 82-63 122-42 12 7 21 19 24 35" id="aN"/><path d="M59-47c-2 24 18 29 38 22v24C64 9 27 4 27-40v-127H5v-23h24l9-43h21v43h35v23H59v120" id="aO"/><g id="u"><use transform="matrix(0.09320987654320984,0,0,0.09320987654320984,0,0)" xlink:href="#aK"/><use transform="matrix(0.09320987654320984,0,0,0.09320987654320984,11.09197530864197,0)" xlink:href="#aI"/><use transform="matrix(0.09320987654320984,0,0,0.09320987654320984,29.733950617283938,0)" xlink:href="#aL"/><use transform="matrix(0.09320987654320984,0,0,0.09320987654320984,48.375925925925905,0)" xlink:href="#aM"/><use transform="matrix(0.09320987654320984,0,0,0.09320987654320984,67.01790123456787,0)" xlink:href="#aI"/><use transform="matrix(0.09320987654320984,0,0,0.09320987654320984,85.65987654320983,0)" xlink:href="#aN"/><use transform="matrix(0.09320987654320984,0,0,0.09320987654320984,102.4376543209876,0)" xlink:href="#aO"/><path d="M-1.68 2.33h124.44V4.8H-1.68z"/></g><path d="M100-194c62-1 85 37 85 99 1 63-27 99-86 99S16-35 15-95c0-66 28-99 85-99zM99-20c44 1 53-31 53-75 0-43-8-75-51-75s-53 32-53 75 10 74 51 75" id="aP"/><path d="M24-231v-30h32v30H24zM24 0v-190h32V0H24" id="aQ"/><path d="M117-194c89-4 53 116 60 194h-32v-121c0-31-8-49-39-48C34-167 62-67 57 0H25l-1-190h30c1 10-1 24 2 32 11-22 29-35 61-36" id="aR"/><path d="M177-190C167-65 218 103 67 71c-23-6-38-20-44-43l32-5c15 47 100 32 89-28v-30C133-14 115 1 83 1 29 1 15-40 15-95c0-56 16-97 71-98 29-1 48 16 59 35 1-10 0-23 2-32h30zM94-22c36 0 50-32 50-73 0-42-14-75-50-75-39 0-46 34-46 75s6 73 46 73" id="aS"/><g id="v"><use transform="matrix(0.09320987654320984,0,0,0.09320987654320984,0,0)" xlink:href="#aK"/><use transform="matrix(0.09320987654320984,0,0,0.09320987654320984,11.09197530864197,0)" xlink:href="#aP"/><use transform="matrix(0.09320987654320984,0,0,0.09320987654320984,29.733950617283938,0)" xlink:href="#aM"/><use transform="matrix(0.09320987654320984,0,0,0.09320987654320984,48.375925925925905,0)" xlink:href="#aO"/><use transform="matrix(0.09320987654320984,0,0,0.09320987654320984,57.696913580246886,0)" xlink:href="#aQ"/><use transform="matrix(0.09320987654320984,0,0,0.09320987654320984,65.06049382716046,0)" xlink:href="#aR"/><use transform="matrix(0.09320987654320984,0,0,0.09320987654320984,83.70246913580243,0)" xlink:href="#aS"/><path d="M-1.68 2.33h115.02V4.8H-1.68z"/></g><g id="w"><use transform="matrix(0.09320987654320984,0,0,0.09320987654320984,0,0)" xlink:href="#aQ"/><use transform="matrix(0.09320987654320984,0,0,0.09320987654320984,7.363580246913577,0)" xlink:href="#aR"/><path d="M-1.68 2.33H37V4.8H-1.68z"/></g><g id="x"><use transform="matrix(0.09320987654320984,0,0,0.09320987654320984,0,0)" xlink:href="#aP"/><use transform="matrix(0.09320987654320984,0,0,0.09320987654320984,18.641975308641968,0)" xlink:href="#aM"/><use transform="matrix(0.09320987654320984,0,0,0.09320987654320984,37.283950617283935,0)" xlink:href="#aK"/><path d="M-1.68 2.33h51.73V4.8H-1.68z"/></g><path d="M30-248c118-7 216 8 213 122C240-48 200 0 122 0H30v-248zM63-27c89 8 146-16 146-99s-60-101-146-95v194" id="aT"/><path d="M141-36C126-15 110 5 73 4 37 3 15-17 15-53c-1-64 63-63 125-63 3-35-9-54-41-54-24 1-41 7-42 31l-33-3c5-37 33-52 76-52 45 0 72 20 72 64v82c-1 20 7 32 28 27v20c-31 9-61-2-59-35zM48-53c0 20 12 33 32 33 41-3 63-29 60-74-43 2-92-5-92 41" id="aU"/><path d="M96-169c-40 0-48 33-48 73s9 75 48 75c24 0 41-14 43-38l32 2c-6 37-31 61-74 61-59 0-76-41-82-99-10-93 101-131 147-64 4 7 5 14 7 22l-32 3c-4-21-16-35-41-35" id="aV"/><g id="y"><use transform="matrix(0.09320987654320984,0,0,0.09320987654320984,0,0)" xlink:href="#aT"/><use transform="matrix(0.09320987654320984,0,0,0.09320987654320984,24.141358024691346,0)" xlink:href="#aU"/><use transform="matrix(0.09320987654320984,0,0,0.09320987654320984,42.78333333333332,0)" xlink:href="#aO"/><use transform="matrix(0.09320987654320984,0,0,0.09320987654320984,52.10432098765431,0)" xlink:href="#aU"/><use transform="matrix(0.09320987654320984,0,0,0.09320987654320984,70.74629629629626,0)" xlink:href="#aV"/><use transform="matrix(0.09320987654320984,0,0,0.09320987654320984,87.52407407407404,0)" xlink:href="#aI"/><use transform="matrix(0.09320987654320984,0,0,0.09320987654320984,106.166049382716,0)" xlink:href="#aR"/><use transform="matrix(0.09320987654320984,0,0,0.09320987654320984,124.80802469135799,0)" xlink:href="#aO"/><use transform="matrix(0.09320987654320984,0,0,0.09320987654320984,134.12901234567897,0)" xlink:href="#aI"/><use transform="matrix(0.09320987654320984,0,0,0.09320987654320984,152.77098765432095,0)" xlink:href="#aK"/><path d="M-1.68 2.33h167.22V4.8H-1.68z"/></g><path fill="#333" d="M266 0h-40l-56-210L115 0H75L2-248h35L96-30l15-64 43-154h32l59 218 59-218h35" id="aW"/><g id="z"><use transform="matrix(0.05,0,0,0.05,0,0)" xlink:href="#af"/><use transform="matrix(0.05,0,0,0.05,11.35,0)" xlink:href="#aW"/><use transform="matrix(0.05,0,0,0.05,28.299999999999997,0)" xlink:href="#aB"/></g><g id="A"><use transform="matrix(0.05,0,0,0.05,0,0)" xlink:href="#aW"/><use transform="matrix(0.05,0,0,0.05,16.3,0)" xlink:href="#af"/><use transform="matrix(0.05,0,0,0.05,28.3,0)" xlink:href="#ap"/></g></defs></g></svg>