<svg xmlns="http://www.w3.org/2000/svg" viewBox="0 0 546 563">
  <defs>
    <linearGradient
      id="illustration_linear_gradient_a"
      x1="97.8"
      y1="72.27"
      x2="504.79"
      y2="479.26"
      gradientUnits="userSpaceOnUse"
    >
      <stop offset="0" stop-color="#ff4c84" />
      <stop offset=".23" stop-color="#d45ca2" />
      <stop offset=".76" stop-color="#7381e4" />
      <stop offset="1" stop-color="#4c90ff" />
    </linearGradient>
    <pattern
      id="illustration_circle_pattern"
      x="0"
      y="0"
      width="0.0555"
      height="0.0478"
    >
      <circle fill="#ccdfff" fill-opacity="1" cx="5" cy="5" r="2" />
    </pattern>
  </defs>
  <rect
    fill="url(#illustration_circle_pattern)"
    y="48"
    x="46"
    width="400"
    height="500"
  />
  <path
    d="M227.56 313.12a16.54 16.54 0 00-10.17-1.47c-4.41.55-7.31 2.1-9.19 4.12a129.86 129.86 0 01-23.44-.25s-3.64-19.1-24.14-16.11c-12.25 1.79-17.44 11.31-13.68 30l15.56 77.2h33.23l-8-66.17 14.76-.18 2 87.32h32.36l2.53-87.08s9.69-7.15 10.31-15.41-2.94-16.93-2.94-16.93a145.69 145.69 0 01-19.19 4.96zM88.78 88.5a17.39 17.39 0 1017.39 17.39A17.39 17.39 0 0088.78 88.5zm369.06 423.68a95.89 95.89 0 00-1.43-12.64l-16.25 13.63s-10.89-2.6-11.78 3.34c-.41 2.76 1.2 5.19 3.17 7.37l1.64-3.93s7.28 5.89 16.14 5.56l-3.72 6.94h3.07l5.76-7.81a31 31 0 0014.6-9.85zm-70.57-23.71c-1.86-2.27-4-4.23-6.81-4.23-6 0-5.06 11.15-5.06 11.15l-15.9 14s10.35 4.74 19.69 3.92c5.73-1 7.44-3.25 8.08-5.77 1.87-7.32-4.13-18.08-4.13-18.08zm-7.68-333.57c4.22 13.36 4.37 18.13-8.32 28.52-12.91 10.58-12.59 23.38-6.81 34.87 4.75 9.47 1.85 21.71-11.65 30.65-21.88 14.48-23.87 38.2-10.81 62.67 16.77 31.46 65.47 34.39 65.59 34.39l-.38-233.89c-33.69.44-29.54 36.7-27.62 42.79zm-175 93.1a10.54 10.54 0 01-10.54-10.36h-13.12v14.71h19.46s-1 4.36-3 5.14c0 0 1.41 6.71-5 7.9a.64.64 0 010 .07c0 3.11-3.43 7-8 7h20.33V248z"
    fill="url(#illustration_linear_gradient_a)"
  />
  <g fill="#0061ff">
    <circle cx="407.5" cy="50.45" r="4.6" />
    <circle cx="119.39" cy="196.45" r="4.6" />
    <circle cx="296.39" cy="506.98" r="4.6" />
  </g>
  <g
    fill="none"
    stroke="#6a2ea0"
    stroke-linecap="round"
    stroke-linejoin="round"
    stroke-width="3"
  >
    <path
      d="M466.74 386.45h-88.55a18.43 18.43 0 00-18.44 18.44 18.45 18.45 0 01-18.44 18.44h-53.92m-231.4 34.8h115.05m84.01 0h80.34m-29.3-226.65c-51 0-76.54-15.45-91-17.71m2.91-38.04v21.19a15.57 15.57 0 01-15.57 15.57 15.58 15.58 0 01-15.58-15.57v-21.19m1.85 42.87v-14.05m26.19 14.05v-12.21m-33.96 45.95v-14.71h23.76v34.83h-23.74M144 246.23H89a41.6 41.6 0 00-41.6 41.61v24.88h98.54m178.8-66.49h29v27.83A38.66 38.66 0 01315 312.72h-66.72m-46.41-108.64a6.24 6.24 0 007.53-2.48"
    />
    <path
      d="M168.42 261.42l9.59-9.08h22.38s0 6.2-7.47 6.2h-12m60.95-5.39s18.69 3 64.22-.69v-21M187.3 212.5c-14.73 0-35.86 10.13-42.84 32.34s-.76 44.47 10.68 56.48m6.43-35.87s0 7.84 9.67 14m28.32-98.2v11.53c0 2.83 4.17 3.17 6.07-1.5m12.92-10.02a5.13 5.13 0 110 10.25m-31.78-10.25a5.13 5.13 0 100 10.25M306.09 249s11.84 5.06 22 1.87a14.29 14.29 0 00-9.5-6.76m-11.34-10.3l18.94 1.61 15.26 10.81m-153.23 94h14.3m36.99 0h95.88m-182.16 22.12H58.44a11.06 11.06 0 110-22.12h90.39m46.54 81.1l-.04 36.8h-54.81"
    />
    <path
      d="M165.27 420.31l32.12.05-12.63-104.84c-1.95-11-12-18.58-24.14-16.11a20.73 20.73 0 00-5.48 1.91c-8.83 4.61-11.78 15-9.06 23.8l16.42 81.46m67.58 30.07v30.73a9.68 9.68 0 01-9.68 9.67 9.67 9.67 0 01-9.68-9.67v-30.73m-52.24 9.73l17.32-8.81-4.44-17.25M226 436.65h10.63l2.13-106c0-13.32-7.66-19.15-16.71-19.33s-19.42 4.11-19.42 18.65l2.12 106.67h10.23m-74.46 21.49a12.71 12.71 0 0123.25-7.13"
    />
    <path
      d="M165.27 420.31c-15.11 0-13.12-13.73-13.12-13.73h22.52m68.4-160.82s-7.17 32.66 3.69 62.35c0 0 10.13 23.86-7.25 32.12m-10.84-27.58c5.54-1.15 11.57-2.63 18.09-4.54m-62 7.41s8.07 1.6 23.41.22m7.34 127.8v-11.2a4.94 4.94 0 014.94-4.94 4.94 4.94 0 014.93 4.94v11.2m-9.87 12.08h9.87m-9.87 7.84h9.87M71.39 363.91v92.94m245.42-92.94v92.94m-77.3-94.5h95.88M407.5 346c.13 0 48.82-2.88 65.6-34.34 13-24.47 11.06-48.19-10.82-62.67-13.5-8.94-16.4-21.18-11.65-30.65 5.78-11.49 6.11-24.29-6.8-34.87-12.7-10.39-12.55-15.16-8.33-28.52 1.92-6.09 6.08-42.35-27.62-42.84m-.46-14.36v287.68M390.4 153.36l17.02 16.16m32.45 112.18l-32.45 30.82m-58.26-127.77l58.26 55.31M45.7 107.45h125.54s-7.05-27.3-38.36-20.93c-43.95-30.7-84.96-12.65-87.18 20.93zM221.55 164v11.34h-39.28a13.88 13.88 0 01-13.88-13.89h18.09"
    />
    <path
      d="M186.48 168.88V164a10.61 10.61 0 0110.62-10.62h13.84A10.61 10.61 0 01221.55 164M359.5 530.24a16.8 16.8 0 0133.59 0M197.75 303s23.2 3 44.49-6.72m-39.22 66.17h-12.61"
    />
  </g>
  <circle cx="301.81" cy="130.82" r="11.75" fill="#ff4c84" />
  <g
    fill="none"
    stroke="#6a2ea0"
    stroke-linecap="round"
    stroke-linejoin="round"
    stroke-width="3"
  >
    <path
      d="M301.81 150.77c.49 15.68-5.52 40.74-43.75 45.68-33.76 4.36-35.36 41.18-35.36 41.18-.36 9.88-4.75 16.29-9.31 19.28"
      stroke-dasharray=".2 7 .2 7"
    />
    <path d="M296.26 127.49l6.78 7.67 9.68-15.42M192.03 265.45h-11.1" />
  </g>
</svg>
