<svg width="270" height="72" viewBox="0 0 270 72" fill="none" xmlns="http://www.w3.org/2000/svg">
<g clip-path="url(#clip0_459_21353)">
<path fill-rule="evenodd" clip-rule="evenodd" d="M267.625 48.8471V45.5391H267.557C265.525 48.6391 262.277 49.2931 260.349 49.2931C254.529 49.2931 250.401 44.7811 250.401 39.3731C250.401 34.3431 254.293 29.5191 260.349 29.5191C262.345 29.5191 265.593 30.1741 267.557 33.3091H267.625V29.9991H269.992V48.8491H267.625V48.8471ZM260.349 31.6891C256.289 31.6891 252.769 34.6871 252.769 39.4751C252.769 43.6791 255.816 47.1251 260.349 47.1251C264.342 47.1251 267.759 43.8521 267.759 39.4401C267.759 35.3071 264.614 31.6891 260.349 31.6891ZM245.607 48.8471H243.239V32.1691H240.362V29.9991H243.239C243.307 27.3841 243.509 22.9721 250.343 22.9041V25.1421C245.538 25.1421 245.607 28.2421 245.607 30.0001H250.343V32.1701H245.607V48.8491V48.8471ZM228.633 49.2941C223.216 49.2941 218.988 44.6441 218.988 39.5441C218.988 33.5841 223.761 29.5181 228.634 29.5181C234.114 29.5181 238.344 34.2361 238.344 39.4051C238.344 44.5381 234.181 49.2931 228.634 49.2931L228.633 49.2941ZM228.666 31.6881C225.281 31.6881 221.356 34.5141 221.356 39.5081C221.356 43.8841 224.84 47.1241 228.666 47.1241C232.251 47.1241 235.972 44.2291 235.972 39.3021C235.972 34.3421 231.845 31.6871 228.665 31.6871L228.666 31.6881ZM212.84 48.8461H210.47V32.1691H206.58V29.9991H210.47V23.3491H212.84V29.9991H217.272V32.1691H212.84V48.8491V48.8461ZM205.298 43.4711C205.331 46.7111 203.403 49.2931 199.478 49.2931C196.908 49.2931 193.692 47.5011 193.793 43.2631H196.163C196.229 46.8471 198.633 47.1231 199.477 47.1231C201.713 47.1231 202.93 45.7811 202.93 43.7471C202.93 41.1621 200.63 40.5771 199.242 39.9901C197.347 39.3361 194.336 38.3021 194.336 34.7541C194.336 32.1011 196.196 29.5161 199.612 29.5161C202.388 29.5161 204.688 31.6861 204.654 34.6481H202.287C202.119 32.3401 200.562 31.6851 199.512 31.6851C197.617 31.6851 196.704 33.2351 196.704 34.5111C196.704 36.5081 198.667 37.1971 200.02 37.6451C202.185 38.3681 205.3 39.5751 205.3 43.4681L205.298 43.4711ZM192.173 43.4711C192.206 46.7111 190.278 49.2931 186.353 49.2931C183.783 49.2931 180.567 47.5011 180.668 43.2631H183.038C183.104 46.8471 185.508 47.1231 186.352 47.1231C188.587 47.1231 189.804 45.7811 189.804 43.7471C189.804 41.1621 187.504 40.5771 186.116 39.9901C184.221 39.3361 181.21 38.3021 181.21 34.7541C181.21 32.1011 183.07 29.5161 186.487 29.5161C189.264 29.5161 191.564 31.6861 191.53 34.6481H189.163C188.993 32.3401 187.437 31.6851 186.387 31.6851C184.492 31.6851 183.579 33.2351 183.579 34.5111C183.579 36.5081 185.542 37.1971 186.895 37.6451C189.06 38.3681 192.175 39.5751 192.175 43.4681L192.173 43.4711ZM175.304 29.9991H177.67V48.8491H175.304V29.9991ZM175.304 23.3491H177.67V27.6921H175.304V23.3491ZM168.377 48.8491H166.007V32.1691H162.117V29.9991H166.007V23.3491H168.377V29.9991H172.809V32.1691H168.377V48.8491ZM156.917 48.8491H154.549V32.1691H150.659V29.9991H154.549V23.3491H156.919V29.9991H161.349V32.1691H156.919V48.8491H156.917ZM139.097 47.1271C142.482 47.0571 144.885 45.0251 145.73 42.6801H148.234C146.949 46.4361 143.396 49.2961 139.134 49.2961C133.954 49.2961 129.489 45.0241 129.489 39.4421C129.489 34.1021 133.719 29.6221 139.099 29.5201C143.159 29.5551 146.034 32.0001 147.355 34.3431C148.607 36.3771 148.877 38.4771 148.775 40.3031H131.925C132.093 43.9901 135.477 47.1261 139.098 47.1261L139.097 47.1271ZM146.374 38.1331C145.629 33.6881 142.076 31.6911 139.134 31.6911C136.222 31.6911 132.602 33.6881 131.924 38.1331H146.374ZM135.512 25.5231L142.245 21.7681L143.328 23.8351L136.628 27.5211L135.513 25.5241L135.512 25.5231ZM123.877 33.9291C123.067 34.9621 122.593 36.3061 122.593 37.8221V48.8471H120.223V29.9991H122.593V32.7221H122.661C123.777 30.0691 125.874 29.6561 127.871 29.5191V32.0671C126.214 32.2051 124.791 32.8251 123.878 33.9271L123.877 33.9291ZM113.497 38.4761C113.497 36.0311 112.754 34.3061 111.739 33.3091C110.452 32.0321 108.761 31.6891 107.712 31.6891C106.663 31.6891 104.972 32.0321 103.686 33.3091C102.671 34.3071 101.924 36.0311 101.959 38.4761V48.8461H99.5894V30.0011H101.959V32.4141H102.027C102.737 31.2781 104.565 29.5211 107.712 29.5211C109.98 29.5211 111.872 30.1061 113.566 31.8281C114.953 33.2081 115.866 35.3781 115.866 38.4781V48.8481H113.496V38.4781L113.497 38.4761ZM92.6674 48.8461H90.2974V32.1711H87.4214V29.9991H90.2974C90.3644 27.3841 90.5674 22.9721 97.4044 22.9041V25.1421C92.5993 25.1421 92.6644 28.2421 92.6644 30.0001H97.4044V32.1701H92.6644V48.8491L92.6674 48.8461ZM82.3174 45.5391H82.2504C80.2204 48.6391 76.9704 49.2931 75.0434 49.2931C69.2234 49.2931 65.0954 44.7811 65.0954 39.3731C65.0954 34.3431 68.9854 29.5191 75.0434 29.5191C77.0394 29.5191 80.2874 30.1741 82.2504 33.3091H82.3184V29.9991H84.6884V48.8491H82.3184L82.3174 45.5391ZM75.0434 31.6891C70.9834 31.6891 67.4634 34.6871 67.4634 39.4751C67.4634 43.6791 70.5104 47.1251 75.0434 47.1251C79.0374 47.1251 82.4534 43.8521 82.4534 39.4401C82.4534 35.3071 79.3074 31.6891 75.0434 31.6891ZM55.0574 49.2951C52.0124 49.2951 48.4923 47.3311 48.2573 42.7831H50.7273C50.9303 45.5391 52.9604 46.9851 55.0914 46.9851C59.1864 46.9521 59.1513 43.0601 59.1513 40.7511V23.3511H61.6553V40.7511C61.6223 42.8181 61.5873 44.0211 61.0133 45.6081C59.9293 47.9151 57.7653 49.2941 55.0563 49.2941L55.0574 49.2951ZM0.45735 59.6431C-2.35265 42.9961 20.3694 37.9091 22.8773 52.7681C24.8673 64.5481 8.93235 66.6681 7.37135 57.4221C6.82435 54.1871 11.6714 53.3661 12.2194 56.6021C12.6814 59.3441 18.9514 59.0481 18.0294 53.5881C16.6063 45.1541 3.58135 48.6131 5.30335 58.8181C6.92835 68.4401 26.3393 70.4841 26.0394 53.3081C25.7844 38.5921 25.2494 35.3701 12.0124 29.6181C24.1124 30.3981 30.6704 36.9051 30.9554 53.2221C31.3614 76.4851 3.07935 75.1731 0.45735 59.6431ZM8.07735 18.2931C6.09235 6.51309 22.0274 4.39309 23.5874 13.6361C24.1344 16.8731 19.2873 17.6941 18.7414 14.4561C18.2794 11.7161 12.0084 12.0121 12.9294 17.4721C14.3534 25.9061 27.3794 22.4471 25.6544 12.2421C24.0294 2.61909 4.61935 0.575092 4.91735 17.7511C5.17535 32.4651 5.70735 35.6871 18.9444 41.4391C6.84735 40.6621 0.28735 34.1561 0.00435037 17.8391C-0.40265 -5.42591 27.8774 -4.11591 30.5004 11.4191C33.3104 28.0631 10.5874 33.1491 8.08035 18.2931H8.07735Z" fill="#F49500"/>
</g>
<defs>
<clipPath id="clip0_459_21353">
<rect width="270" height="71.062" fill="white"/>
</clipPath>
</defs>
</svg>
