<svg width="224" height="51" viewBox="0 0 224 51" fill="none" xmlns="http://www.w3.org/2000/svg">
<g clip-path="url(#clip0_288_171)">
<path d="M155.831 2.2373V6.95338H161.089V2.2373H162.697V13.3124H161.089V8.33121H155.831V13.3124H154.223V2.2373H155.831Z" fill="#11223A"/>
<path d="M170.991 13.3119V12.1089C170.31 13.0177 169.418 13.4692 168.312 13.4692C167.42 13.4692 166.739 13.2041 166.264 12.6682C165.791 12.138 165.557 11.3719 165.557 10.3815V5.412L167.021 5.0974V10.2096C167.021 11.5292 167.552 12.1846 168.617 12.1846C169.052 12.1846 169.468 12.0797 169.867 11.87C170.266 11.6574 170.616 11.3573 170.909 10.9699V5.41491L172.373 5.10031V13.3148H170.985L170.991 13.309V13.3119ZM167.866 3.97882L169.495 1.48242H171.185L169.207 3.97882H167.866Z" fill="#11223A"/>
<path d="M175.916 7.23609C175.916 7.48952 175.999 7.69633 176.16 7.85363C176.324 8.01093 176.541 8.14493 176.811 8.2498C177.084 8.35466 177.378 8.4537 177.703 8.53235C178.026 8.61683 178.346 8.71587 178.669 8.8353C178.986 8.95182 179.282 9.10038 179.552 9.27516C179.825 9.45576 180.042 9.68588 180.203 9.97135C180.368 10.2597 180.447 10.6151 180.447 11.0462C180.447 11.8153 180.171 12.4153 179.617 12.8319C179.065 13.2543 178.287 13.4669 177.29 13.4669C176.292 13.4669 175.344 13.2426 174.546 12.7882V11.3783C174.895 11.6521 175.321 11.8735 175.819 12.0366C176.318 12.1998 176.817 12.2784 177.316 12.2784C177.859 12.2784 178.281 12.1794 178.581 11.9755C178.886 11.7774 179.033 11.5036 179.033 11.1511C179.033 10.886 178.95 10.6705 178.789 10.5044C178.625 10.3384 178.408 10.1927 178.138 10.085C177.865 9.97718 177.571 9.87231 177.254 9.77327C176.938 9.67423 176.615 9.57519 176.289 9.46159C175.963 9.34798 175.667 9.20816 175.397 9.03338C175.124 8.8586 174.907 8.63722 174.746 8.36631C174.581 8.09541 174.502 7.75751 174.502 7.34387C174.502 6.60689 174.778 6.03013 175.332 5.61066C175.884 5.19119 176.653 4.98438 177.627 4.98438C178.601 4.98438 179.382 5.19702 180.048 5.6194V7.02927C179.731 6.75545 179.358 6.54281 178.933 6.39424C178.507 6.24568 178.05 6.17286 177.563 6.17286C177.031 6.17286 176.624 6.26607 176.333 6.4525C176.048 6.63602 175.902 6.89236 175.902 7.22152L175.91 7.22735L175.916 7.23609Z" fill="#11223A"/>
<path d="M183.898 5.08549V6.36719C184.579 5.45834 185.471 5.00684 186.577 5.00684C187.469 5.00684 188.15 5.27191 188.625 5.8079C189.097 6.33806 189.332 7.10416 189.332 8.09457V13.3146H187.868V8.26934C187.868 6.94978 187.337 6.29436 186.272 6.29436C185.837 6.29436 185.421 6.39923 185.022 6.60896C184.623 6.82161 184.273 7.12164 183.98 7.50906V13.3146H182.516V5.403L183.904 5.0884L183.898 5.08257V5.08549Z" fill="#11223A"/>
<path d="M197.162 6.38271C197.754 5.46513 198.667 5.00488 199.888 5.00488C200.97 5.00488 201.792 5.33405 202.341 5.99529C202.892 6.65361 203.171 7.62945 203.171 8.91698C203.171 9.2141 203.165 9.39762 203.154 9.47044H197.687C197.728 10.4201 197.954 11.1163 198.362 11.559C198.77 11.9989 199.386 12.2261 200.202 12.2261C201.135 12.2261 201.992 11.9057 202.766 11.2619V12.7155C201.992 13.2194 201.085 13.4758 200.04 13.4758C198.594 13.4758 197.564 12.9951 196.947 12.0368C196.575 12.4912 196.126 12.8436 195.6 13.1C195.075 13.3563 194.512 13.4787 193.919 13.4787C193.144 13.4787 192.537 13.2748 192.091 12.8699C191.651 12.465 191.428 11.9115 191.428 11.2182C191.428 10.3239 191.821 9.65687 192.607 9.22575C193.391 8.79464 194.612 8.57325 196.258 8.55869V8.18C196.258 7.55954 196.108 7.08182 195.806 6.75848C195.501 6.42932 195.058 6.2691 194.474 6.2691C194.06 6.2691 193.631 6.35941 193.183 6.54001C192.739 6.72061 192.32 6.96821 191.941 7.28281V5.81177C192.792 5.28453 193.681 5.01945 194.62 5.01945C195.876 5.01945 196.718 5.47969 197.156 6.39727L197.164 6.38854L197.162 6.38271ZM194.227 12.2698C194.685 12.2698 195.119 12.1649 195.533 11.9552C195.947 11.7425 196.275 11.4571 196.522 11.0871C196.387 10.6473 196.305 10.1375 196.281 9.56657C195.11 9.57531 194.259 9.70639 193.717 9.95399C193.174 10.2016 192.904 10.589 192.904 11.1163C192.904 11.4862 193.018 11.7688 193.247 11.9727C193.473 12.1766 193.799 12.2756 194.227 12.2756V12.2698ZM199.841 6.17589C198.608 6.17589 197.901 6.91869 197.719 8.40721H201.736C201.704 7.63819 201.531 7.07599 201.229 6.71479C200.921 6.35358 200.457 6.17589 199.841 6.17589Z" fill="#11223A"/>
<path d="M206.613 3.29463L208.192 2.72369C207.799 2.33335 207.335 1.94884 206.804 1.56724L208.412 1.20312C208.887 1.56433 209.278 1.89932 209.577 2.21683L211.473 1.53811V2.60134L210.308 3.02955C211.69 4.73945 212.379 6.69404 212.379 8.89915C212.379 10.3964 212.054 11.5325 211.399 12.3102C210.748 13.088 209.794 13.4725 208.538 13.4725C207.282 13.4725 206.42 13.1171 205.792 12.4093C205.161 11.7014 204.844 10.6848 204.844 9.35357C204.844 8.02235 205.152 6.95912 205.768 6.1901C206.384 5.42108 207.226 5.03366 208.303 5.03366C209.069 5.03366 209.712 5.25796 210.231 5.71238C209.923 4.96666 209.489 4.23551 208.925 3.53058L206.613 4.35494V3.29171V3.30045V3.29463ZM210.871 8.96032C210.871 8.31656 210.798 7.66988 210.648 7.01738C210.117 6.53092 209.483 6.28914 208.752 6.28914C207.969 6.28914 207.37 6.54257 206.965 7.04069C206.56 7.5388 206.358 8.28743 206.358 9.27783C206.358 10.2682 206.549 10.9557 206.924 11.4596C207.3 11.9636 207.849 12.2199 208.573 12.2199C209.298 12.2199 209.897 11.9403 210.287 11.3868C210.677 10.8334 210.868 10.0236 210.868 8.95741V8.96323L210.871 8.96032Z" fill="#11223A"/>
<path d="M215.314 3.8042C215.029 3.8042 214.798 3.72263 214.63 3.56533C214.463 3.40803 214.375 3.19248 214.375 2.91866C214.375 2.64484 214.46 2.42346 214.63 2.26033C214.798 2.0972 215.029 2.01855 215.314 2.01855C215.599 2.01855 215.83 2.10012 216.007 2.26033C216.183 2.42346 216.271 2.64193 216.271 2.91866C216.271 3.19539 216.186 3.40803 216.007 3.56533C215.83 3.72263 215.599 3.8042 215.314 3.8042ZM214.583 5.41506L216.048 5.08298V13.3092H214.583V5.41506Z" fill="#11223A"/>
<path d="M0 46.9539H9.6659V29.2839H23.7158V46.9539H33.3758V2.77605H23.7158V20.3179H9.6659V2.77605H0V46.951V46.9539ZM122.056 19.5634C119.004 18.4303 116.78 17.4835 116.78 14.7658C116.78 12.5548 118.687 10.8537 122.819 10.8537C127.711 10.8537 132.418 12.4966 135.912 14.0725V5.04815C133.116 3.72567 128.858 1.82934 121.927 1.82934C112.965 1.82934 106.862 7.5096 106.862 14.6376C106.862 21.7656 110.87 25.366 117.734 27.8245L123.391 29.8461C126.505 30.9793 128.415 32.2435 128.415 34.8943C128.415 37.7985 125.809 38.9986 121.868 38.9986C116.085 38.9986 110.744 36.977 107.628 35.5293V44.8041C110.107 45.9373 115.383 48.023 121.804 48.023C132.928 48.023 138.333 42.0922 138.333 35.1477C138.333 28.2032 134.392 24.1659 127.461 21.5792L122.056 19.5576V19.5634ZM76.5408 7.195L90.7814 21.2063V46.9539H100.697V17.0437L83.4043 0.00582591L76.5349 7.19791H76.5408V7.195ZM41.642 17.0379V46.9481H51.5573V21.2005L58.8698 14.0725L66.1824 21.2005V46.9481H76.1006V17.0379L58.8728 0L41.6449 17.0379H41.6391H41.642Z" fill="#11223A"/>
<path d="M155.723 21.9173V30.3329H154.227V19.2578H155.615L159.25 25.1565L162.901 19.2578H164.271V30.3329H162.774V21.8678L159.233 27.5976L155.729 21.9173H155.723Z" fill="#11223A"/>
<path d="M166.609 28.232C166.609 27.3231 167.008 26.6561 167.807 26.225C168.605 25.7938 169.828 25.5783 171.489 25.5783V25.118C171.489 24.5296 171.34 24.0752 171.037 23.7577C170.732 23.4431 170.298 23.2858 169.723 23.2858C169.288 23.2858 168.84 23.3761 168.376 23.5567C167.912 23.7373 167.496 23.9849 167.126 24.2995V22.8285C167.933 22.3012 168.845 22.0361 169.852 22.0361C170.858 22.0361 171.589 22.3012 172.132 22.8285C172.675 23.3557 172.945 24.1072 172.945 25.0743V30.3439H171.574V29.3127C171.299 29.6914 170.941 29.9827 170.5 30.1895C170.06 30.3963 169.579 30.5012 169.06 30.5012C168.308 30.5012 167.71 30.2973 167.273 29.8924C166.838 29.4875 166.621 28.934 166.621 28.2407L166.615 28.232H166.609ZM169.397 29.2894C169.802 29.2894 170.189 29.2049 170.562 29.036C170.935 28.8699 171.243 28.634 171.486 28.3398V26.5833C170.307 26.5833 169.441 26.7085 168.898 26.9561C168.349 27.2037 168.077 27.594 168.077 28.1359C168.077 28.5058 168.191 28.7884 168.42 28.9923C168.646 29.1962 168.972 29.2952 169.4 29.2952L169.394 29.2894H169.397Z" fill="#11223A"/>
<path d="M177.015 22.107V23.3887C177.696 22.4798 178.588 22.0283 179.694 22.0283C180.586 22.0283 181.267 22.2934 181.742 22.8294C182.215 23.3595 182.449 24.1256 182.449 25.1161V30.3361H180.985V25.2908C180.985 23.9713 180.454 23.3158 179.389 23.3158C178.955 23.3158 178.538 23.4207 178.139 23.6304C177.74 23.8431 177.391 24.1431 177.097 24.5305V30.3361H175.633V22.4245L177.021 22.1099L177.015 22.1041V22.107Z" fill="#11223A"/>
<path d="M186.531 22.107V23.3887C187.211 22.4798 188.103 22.0283 189.21 22.0283C190.102 22.0283 190.782 22.2934 191.258 22.8294C191.73 23.3595 191.965 24.1256 191.965 25.1161V30.3361H190.501V25.2908C190.501 23.9713 189.97 23.3158 188.904 23.3158C188.47 23.3158 188.053 23.4207 187.654 23.6304C187.255 23.8431 186.906 24.1431 186.613 24.5305V30.3361H185.148V22.4245L186.536 22.1099L186.531 22.1041V22.107Z" fill="#11223A"/>
<path d="M194.994 22.1885L197.192 28.4542L199.407 22.1885H200.971L197.767 30.3389H196.57L193.383 22.1885H194.991H194.994Z" fill="#11223A"/>
<path d="M203.363 20.8276C203.078 20.8276 202.846 20.7461 202.679 20.5888C202.512 20.4315 202.424 20.2159 202.424 19.9421C202.424 19.6683 202.509 19.4469 202.679 19.2838C202.846 19.1206 203.078 19.042 203.363 19.042C203.647 19.042 203.879 19.1236 204.055 19.2838C204.231 19.4469 204.319 19.6654 204.319 19.9421C204.319 20.2188 204.234 20.4315 204.055 20.5888C203.879 20.7461 203.647 20.8276 203.363 20.8276ZM202.629 22.4385L204.093 22.1064V30.3326H202.629V22.4385Z" fill="#11223A"/>
<path d="M206.867 22.4269L208.255 22.1123V23.5833C208.863 22.6104 209.678 22.1298 210.708 22.1298C211.049 22.1298 211.348 22.1851 211.6 22.2871V23.7086C211.283 23.5513 210.928 23.4697 210.55 23.4697C210.107 23.4697 209.693 23.595 209.317 23.8426C208.942 24.0902 208.616 24.4456 208.337 24.9087V30.3356H206.873V22.424H206.867V22.4269Z" fill="#11223A"/>
<path d="M214.919 25.8089L218.505 22.1852H220.304L217.276 25.1419L220.621 30.3299H218.834L216.298 26.1032L214.911 27.4635V30.3269H213.461V18.5528L214.911 18.2207V25.8002L214.916 25.8089H214.919Z" fill="#11223A"/>
<path d="M223.044 20.8276C222.76 20.8276 222.528 20.7461 222.361 20.5888C222.193 20.4315 222.105 20.2159 222.105 19.9421C222.105 19.6683 222.191 19.4469 222.361 19.2838C222.528 19.1206 222.76 19.042 223.044 19.042C223.329 19.042 223.561 19.1236 223.737 19.2838C223.913 19.4469 224.001 19.6654 224.001 19.9421C224.001 20.2188 223.916 20.4315 223.737 20.5888C223.558 20.7461 223.329 20.8276 223.044 20.8276ZM222.314 22.4385L223.778 22.1064V30.3326H222.314V22.4385Z" fill="#11223A"/>
<path d="M155.197 39.1317C155.206 39.4929 155.314 39.7842 155.523 40.0085C155.731 40.2328 156.004 40.4221 156.344 40.5707C156.685 40.7192 157.06 40.8532 157.468 40.9756C157.876 41.0979 158.29 41.2319 158.701 41.3863C159.114 41.5407 159.493 41.7329 159.833 41.9718C160.174 42.2107 160.447 42.5107 160.655 42.8806C160.863 43.2506 160.972 43.7137 160.981 44.2701C160.981 45.3537 160.64 46.1839 159.959 46.7461C159.279 47.3083 158.29 47.5909 156.996 47.5909C156.421 47.5909 155.84 47.5181 155.241 47.3695C154.648 47.2209 154.099 47.0141 153.601 46.7519V45.1236C154.707 45.8518 155.84 46.216 157.01 46.216C158.592 46.216 159.387 45.6072 159.387 44.3983C159.378 44.0283 159.27 43.7225 159.062 43.4807C158.853 43.2389 158.577 43.0408 158.231 42.8777C157.888 42.7204 157.509 42.5748 157.098 42.4408C156.691 42.3097 156.277 42.167 155.869 42.0126C155.461 41.8582 155.085 41.6659 154.736 41.4358C154.393 41.2028 154.114 40.9086 153.906 40.5503C153.697 40.1891 153.589 39.7434 153.58 39.2045C153.58 38.2141 153.915 37.4363 154.592 36.877C155.267 36.3177 156.192 36.041 157.371 36.041C158.551 36.041 159.549 36.3207 160.464 36.877V38.5054C160.021 38.1587 159.525 37.8878 158.991 37.6985C158.457 37.5091 157.92 37.4159 157.392 37.4159C156.679 37.4159 156.136 37.5587 155.76 37.8529C155.385 38.1442 155.194 38.5695 155.194 39.1258H155.203L155.197 39.1317Z" fill="#667120"/>
<path d="M164.677 42.8343L168.263 39.2106H170.062L167.033 42.1673L170.379 47.3552H168.592L166.056 43.1285L164.668 44.4889V47.3523H163.219V35.5782L164.668 35.2461V42.8256L164.674 42.8343H164.677Z" fill="#667120"/>
<path d="M172.806 37.8472C172.522 37.8472 172.29 37.7656 172.122 37.6083C171.955 37.451 171.867 37.2354 171.867 36.9616C171.867 36.6878 171.952 36.4664 172.122 36.3033C172.29 36.1402 172.522 36.0615 172.806 36.0615C173.091 36.0615 173.323 36.1431 173.499 36.3033C173.675 36.4664 173.763 36.6849 173.763 36.9616C173.763 37.2384 173.678 37.451 173.499 37.6083C173.323 37.7656 173.091 37.8472 172.806 37.8472ZM172.076 39.4639L173.54 39.1318V47.358H172.076V39.4639Z" fill="#667120"/>
<path d="M180.043 47.5158C179.6 47.5158 179.177 47.443 178.781 47.2945C178.388 47.1459 178.051 46.9391 177.781 46.6769V50.8395H176.316V39.4499L177.704 39.1353V40.2742C178.353 39.4644 179.21 39.0537 180.269 39.0537C181.328 39.0537 182.124 39.4149 182.708 40.1373C183.291 40.8627 183.582 41.8705 183.582 43.1668C183.582 44.4631 183.268 45.5933 182.649 46.3623C182.027 47.1313 181.158 47.5188 180.043 47.5188V47.5129V47.5158ZM179.914 40.3325C179.051 40.3325 178.341 40.6791 177.778 41.3753V45.5059C178.277 45.9924 178.919 46.2341 179.706 46.2341C181.278 46.2341 182.062 45.2437 182.062 43.26C182.062 42.3104 181.88 41.5851 181.513 41.087C181.146 40.5888 180.612 40.3354 179.914 40.3354V40.3296V40.3325Z" fill="#667120"/>
<path d="M191.04 47.3581V46.155C190.359 47.0639 189.467 47.5154 188.361 47.5154C187.469 47.5154 186.788 47.2503 186.313 46.7143C185.84 46.1842 185.605 45.4181 185.605 44.4277V39.4582L187.07 39.1436V44.2558C187.07 45.5754 187.601 46.2308 188.666 46.2308C189.1 46.2308 189.517 46.1259 189.916 45.9162C190.315 45.7035 190.664 45.4035 190.958 45.0161V39.4611L192.422 39.1465V47.361H191.034L191.04 47.3552V47.3581Z" fill="#667120"/>
<path d="M196.665 47.3582H195.201V35.584L196.665 35.252V47.3582Z" fill="#667120"/>
<path d="M198.852 45.2554C198.852 44.3466 199.251 43.6795 200.049 43.2484C200.847 42.8173 202.071 42.6017 203.731 42.6017V42.1415C203.731 41.5531 203.582 41.0986 203.28 40.7811C202.974 40.4665 202.54 40.3092 201.965 40.3092C201.531 40.3092 201.082 40.3995 200.618 40.5801C200.154 40.7607 199.738 41.0083 199.368 41.3229V39.8519C200.175 39.3246 201.088 39.0596 202.094 39.0596C203.101 39.0596 203.831 39.3246 204.374 39.8519C204.917 40.3791 205.187 41.1307 205.187 42.0978V47.3673H203.817V46.3361C203.541 46.7148 203.183 47.0061 202.743 47.2129C202.302 47.4198 201.821 47.5246 201.302 47.5246C200.551 47.5246 199.952 47.3207 199.515 46.9158C199.08 46.5109 198.863 45.9574 198.863 45.2642L198.857 45.2554H198.852ZM201.639 46.3128C202.044 46.3128 202.432 46.2284 202.804 46.0594C203.177 45.8904 203.485 45.6574 203.729 45.3632V43.6067C202.549 43.6067 201.683 43.7319 201.14 43.9795C200.592 44.2272 200.319 44.6175 200.319 45.1593C200.319 45.5292 200.433 45.8118 200.662 46.0157C200.888 46.2196 201.214 46.3187 201.642 46.3187L201.636 46.3128H201.639Z" fill="#667120"/>
<path d="M210.739 39.0537C211.229 39.0537 211.687 39.1527 212.109 39.345C212.535 39.5372 212.884 39.814 213.16 40.1606L213.225 39.4178L214.466 39.1353V47.2362C214.466 48.4159 214.134 49.3422 213.468 50.0035C212.802 50.6647 211.881 50.9968 210.704 50.9968C210.182 50.9968 209.671 50.924 209.166 50.7842C208.664 50.6443 208.201 50.4375 207.787 50.1754V48.7043C208.18 49.0422 208.626 49.2986 209.119 49.4792C209.612 49.6598 210.111 49.7501 210.61 49.7501C211.376 49.7501 211.966 49.5287 212.379 49.083C212.793 48.6373 213.001 48.0169 213.001 47.2158V46.2341C212.385 46.9798 211.561 47.3585 210.531 47.3585C209.501 47.3585 208.662 47.0031 208.078 46.2953C207.494 45.5874 207.203 44.6 207.203 43.3212C207.203 41.9812 207.517 40.9355 208.136 40.181C208.758 39.4236 209.627 39.0508 210.742 39.0508H210.736L210.739 39.0537ZM210.883 46.0739C211.297 46.0739 211.69 45.9836 212.054 45.803C212.42 45.6224 212.737 45.3719 213.001 45.0427V41.1801C212.459 40.6092 211.813 40.3237 211.056 40.3237C210.299 40.3237 209.697 40.5655 209.301 41.0578C208.908 41.5472 208.711 42.2696 208.711 43.2192C208.711 44.1688 208.896 44.8534 209.269 45.3398C209.642 45.8263 210.176 46.0681 210.877 46.0681L210.883 46.0739Z" fill="#667120"/>
</g>
<defs>
<clipPath id="clip0_288_171">
<rect width="224" height="51" fill="white"/>
</clipPath>
</defs>
</svg>
