<svg width="206" height="199" viewBox="0 0 206 199" fill="none" xmlns="http://www.w3.org/2000/svg">
<path d="M132.946 122.067V166.847C132.946 169.866 131.747 172.762 129.613 174.899C127.478 177.035 124.583 178.236 121.564 178.239V178.239C120.068 178.239 118.586 177.944 117.204 177.372C115.822 176.799 114.566 175.96 113.508 174.902C112.45 173.844 111.611 172.588 111.039 171.206C110.466 169.824 110.171 168.343 110.171 166.847V154.251" stroke="#5E329C" stroke-width="3" stroke-linecap="round" stroke-linejoin="round"/>
<path d="M158.295 35.6733V29.6863C158.292 26.6666 157.091 23.7715 154.955 21.6372C152.819 19.5028 149.922 18.304 146.903 18.304H144.338C141.319 18.304 138.422 19.5028 136.286 21.6372C134.15 23.7715 132.949 26.6666 132.946 29.6863V74.6829" stroke="#5E329C" stroke-width="3" stroke-linecap="round" stroke-linejoin="round"/>
<path d="M35.0027 154.251V29.6863C35.0053 26.6666 36.2067 23.7715 38.3429 21.6372C40.479 19.5028 43.3752 18.304 46.3949 18.304H48.9692" stroke="#5E329C" stroke-width="3" stroke-linecap="round" stroke-linejoin="round"/>
<path d="M144.338 18.304H48.9792" stroke="#5E329C" stroke-width="3" stroke-linecap="round" stroke-linejoin="round"/>
<path d="M79.7033 34.1052H14.1021V2H79.7033V34.1052ZM133.488 80.6998C130.562 80.6998 127.702 81.5675 125.268 83.1932C122.835 84.8189 120.939 87.1295 119.819 89.833C118.7 92.5364 118.407 95.5112 118.977 98.3812C119.548 101.251 120.957 103.887 123.026 105.956C125.096 108.026 127.732 109.435 130.602 110.006C133.472 110.576 136.447 110.283 139.15 109.164C141.853 108.044 144.164 106.148 145.79 103.714C147.415 101.281 148.283 98.421 148.283 95.4948C148.268 91.5757 146.704 87.8216 143.933 85.0503C141.161 82.2791 137.407 80.7153 133.488 80.6998ZM157.969 96.2148C157.964 101.298 156.388 106.255 153.457 110.407C150.526 114.56 146.383 117.706 141.596 119.413V145.601L133.399 139.762L125.341 145.601V119.502C121.05 118.037 117.247 115.417 114.349 111.93C111.45 108.444 109.569 104.226 108.912 99.7395C108.256 95.2534 108.848 90.6731 110.625 86.502C112.403 82.3309 115.295 78.7305 118.986 76.0965C122.676 73.4626 127.021 71.8972 131.544 71.5722C136.066 71.2473 140.59 72.1755 144.619 74.2548C148.648 76.3341 152.026 79.4839 154.381 83.3581C156.736 87.2323 157.978 91.6809 157.969 96.2148V96.2148ZM151.065 95.5244C151.065 92.0442 150.033 88.6421 148.099 85.7485C146.166 82.8548 143.418 80.5994 140.202 79.2676C136.987 77.9358 133.449 77.5873 130.036 78.2663C126.622 78.9452 123.487 80.6211 121.026 83.082C118.565 85.5429 116.889 88.6782 116.21 92.0915C115.531 95.5049 115.88 99.0429 117.212 102.258C118.543 105.473 120.799 108.222 123.693 110.155C126.586 112.089 129.988 113.121 133.468 113.121C135.781 113.122 138.07 112.668 140.207 111.784C142.343 110.901 144.285 109.605 145.921 107.971C147.557 106.337 148.854 104.397 149.74 102.261C150.626 100.126 151.083 97.8365 151.084 95.5244H151.065Z" fill="url(#paint0_linear)"/>
<path d="M99.7162 154.251H12.238V166.866C12.238 169.887 13.4383 172.785 15.5747 174.922C17.7112 177.058 20.6088 178.258 23.6302 178.258" stroke="#5E329C" stroke-width="3" stroke-linecap="round" stroke-linejoin="round"/>
<path d="M35.0127 178.239H121.327" stroke="#5E329C" stroke-width="3" stroke-linecap="round" stroke-linejoin="round"/>
<path d="M2 2H96.0669" stroke="#5E329C" stroke-width="3" stroke-linecap="round" stroke-linejoin="round"/>
<path d="M15.0295 55.0353V2" stroke="#5E329C" stroke-width="3" stroke-linecap="round" stroke-linejoin="round"/>
<path d="M79.9006 68.5679H35.5845" stroke="#5E329C" stroke-width="3" stroke-linecap="round" stroke-linejoin="round"/>
<path d="M63.3893 90.9083H35.5845" stroke="#5E329C" stroke-width="3" stroke-linecap="round" stroke-linejoin="round"/>
<path d="M92.2396 112.321H35.5845" stroke="#5E329C" stroke-width="3" stroke-linecap="round" stroke-linejoin="round"/>
<path d="M63.9124 3.68692V19.3598" stroke="#5E329C" stroke-width="3" stroke-linecap="round" stroke-linejoin="round"/>
<path d="M125.213 92.3287L132.946 100.209L146.498 79.457" stroke="#5E329C" stroke-width="3" stroke-linecap="round" stroke-linejoin="round"/>
<path d="M15.2564 78.0069C18.514 78.0069 21.1547 75.3661 21.1547 72.1086C21.1547 68.851 18.514 66.2103 15.2564 66.2103C11.9989 66.2103 9.35815 68.851 9.35815 72.1086C9.35815 75.3661 11.9989 78.0069 15.2564 78.0069Z" fill="#3761FB"/>
<path d="M199.898 198.34C203.156 198.34 205.797 195.699 205.797 192.442C205.797 189.184 203.156 186.543 199.898 186.543C196.641 186.543 194 189.184 194 192.442C194 195.699 196.641 198.34 199.898 198.34Z" fill="#3761FB"/>
<defs>
<linearGradient id="paint0_linear" x1="14.1021" y1="73.7954" x2="157.969" y2="73.7954" gradientUnits="userSpaceOnUse">
<stop stop-color="#7390FC"/>
<stop offset="0.57" stop-color="#B36AB9"/>
<stop offset="1" stop-color="#E64C84"/>
</linearGradient>
</defs>
</svg>
