  <svg
      width="100%"
      height="100%"
      xmlns="http://www.w3.org/2000/svg"
      viewBox="0 0 188 48"
      fill="none"
    >
      <path
        d="M67.385 10.028c.813 0 1.505.152 2.077.456.581.303 1.068.768 1.461 1.393l-1.085 1.008c-.25-.552-.563-.953-.939-1.2-.375-.25-.876-.373-1.501-.373-.617 0-1.095.128-1.434.386-.34.248-.51.57-.51.966 0 .368.166.662.496.883.33.212.92.396 1.77.552.795.147 1.425.336 1.89.566.473.22.817.501 1.032.842.214.33.321.745.321 1.241 0 .534-.147 1.003-.442 1.408-.295.405-.71.718-1.246.938-.528.212-1.14.318-1.837.318-1.796 0-3.065-.617-3.807-1.85l1.006-1.034c.286.552.652.956 1.099 1.214.456.258 1.018.386 1.689.386.634 0 1.13-.11 1.488-.33.366-.23.55-.553.55-.967 0-.331-.166-.598-.497-.8-.322-.203-.889-.382-1.702-.538-.813-.157-1.461-.35-1.944-.58-.482-.23-.835-.515-1.059-.856-.214-.34-.321-.754-.321-1.241 0-.516.138-.985.415-1.408.277-.423.675-.759 1.193-1.007.527-.249 1.14-.373 1.837-.373zm11.069 8.28c.196 0 .362-.019.496-.055l-.094.993c-.241.11-.519.166-.831.166-.385 0-.693-.079-.925-.235-.224-.156-.371-.418-.443-.787-.205.322-.509.575-.911.76a3.364 3.364 0 01-1.354.262c-.652 0-1.18-.157-1.582-.47-.402-.312-.603-.759-.603-1.338 0-.543.22-.998.657-1.366.438-.377 1.09-.644 1.957-.8l1.702-.304v-.373c0-.423-.12-.754-.361-.993-.242-.249-.577-.373-1.006-.373-.885 0-1.46.414-1.729 1.242l-1.113-.607c.161-.552.488-.989.979-1.311.5-.322 1.112-.483 1.836-.483.867 0 1.555.207 2.065.621.509.414.764 1.021.764 1.822v3.118c0 .175.035.304.107.386.08.083.21.125.389.125zm-3.754-.014c.483 0 .907-.12 1.274-.359.366-.24.55-.556.55-.952v-.828l-1.462.304c-.464.092-.808.22-1.032.386a.784.784 0 00-.335.662c0 .258.085.456.255.594.178.129.429.193.75.193zm13.69-6.058c.447 0 .858.097 1.234.29.375.184.674.469.898.855.223.387.335.86.335 1.422v4.47h-1.434v-4.236c0-.543-.126-.943-.376-1.2-.25-.258-.585-.387-1.005-.387-.492 0-.907.184-1.247.552-.33.368-.496.874-.496 1.518v3.754h-1.434v-4.237c0-.543-.125-.943-.375-1.2-.25-.258-.586-.387-1.006-.387-.286 0-.563.079-.83.235-.269.147-.488.382-.657.704-.17.322-.255.727-.255 1.214v3.67h-1.434v-6.899h1.273l.067 1.145c.223-.423.527-.74.912-.952a2.49 2.49 0 011.26-.33c.5 0 .951.119 1.353.358.411.23.715.57.912 1.021.205-.45.518-.791.938-1.021a2.76 2.76 0 011.367-.359zm8.247 0c.92 0 1.644.322 2.171.966.528.635.791 1.513.791 2.636 0 1.122-.263 2-.79 2.635-.528.626-1.252.939-2.172.939-.527 0-.992-.13-1.394-.387a2.399 2.399 0 01-.885-1.035l-.067 1.284h-1.26V9.269h1.434v4.209c.206-.386.496-.69.872-.91a2.548 2.548 0 011.3-.332zm-.322 5.989c.581 0 1.032-.212 1.354-.635.33-.423.496-1.012.496-1.766 0-.755-.165-1.339-.496-1.753-.322-.423-.773-.634-1.354-.634-.545 0-.983.188-1.313.565-.322.377-.5.897-.537 1.56v.524c.036.672.215 1.196.537 1.573.33.377.768.566 1.313.566zm10.924.083c.196 0 .362-.019.496-.055l-.094.993c-.241.11-.518.166-.831.166-.384 0-.693-.079-.925-.235-.223-.156-.371-.418-.442-.787-.206.322-.51.575-.912.76a3.363 3.363 0 01-1.354.262c-.652 0-1.179-.157-1.581-.47-.403-.312-.604-.759-.604-1.338 0-.543.219-.998.657-1.366.438-.377 1.09-.644 1.957-.8l1.703-.304v-.373c0-.423-.121-.754-.362-.993-.242-.249-.577-.373-1.006-.373-.884 0-1.461.414-1.729 1.242l-1.112-.607a2.29 2.29 0 01.978-1.311c.501-.322 1.113-.483 1.837-.483.866 0 1.554.207 2.064.621.509.414.764 1.021.764 1.822v3.118c0 .175.036.304.107.386.08.083.21.125.389.125zm-3.753-.014c.482 0 .907-.12 1.273-.359.366-.24.55-.556.55-.952v-.828l-1.461.304c-.465.092-.809.22-1.033.386a.785.785 0 00-.335.662c0 .258.085.456.255.594.179.129.429.193.751.193zm9.213-6.058c.741 0 1.344.22 1.809.662.474.442.711 1.077.711 1.905v4.47h-1.435v-4.001c0-1.215-.478-1.822-1.434-1.822-.5 0-.929.18-1.287.539-.357.35-.536.892-.536 1.628v3.657h-1.434v-6.9h1.273l.067 1.145a2.22 2.22 0 01.925-.966 2.79 2.79 0 011.341-.317zm10.899-2.966v10.004h-1.26l-.08-1.229a2.321 2.321 0 01-.898.994 2.485 2.485 0 01-1.354.373c-.921 0-1.649-.313-2.185-.939-.527-.634-.791-1.513-.791-2.635 0-1.123.264-2.001.791-2.636.536-.644 1.264-.966 2.185-.966.491 0 .925.115 1.3.345.375.22.661.524.858.91V9.27h1.434zm-3.271 8.955c.563 0 1.01-.207 1.341-.621.331-.414.496-.98.496-1.697v-.166c0-.717-.165-1.279-.496-1.684-.331-.413-.778-.62-1.341-.62-.58 0-1.036.211-1.367.634-.322.414-.482.998-.482 1.753 0 .754.16 1.343.482 1.766.331.423.787.635 1.367.635zm11.288 1.049h-1.434v-6.9h1.434v6.9zm1.059-10.295l-1.327 2.319h-1.099l.978-2.319h1.448zm3.611 10.433c-.679 0-1.282-.12-1.809-.36a2.51 2.51 0 01-1.18-1.09l.965-.855c.17.396.434.686.791.87.358.183.787.276 1.287.276.456 0 .809-.074 1.059-.221.25-.157.375-.36.375-.607 0-.221-.116-.396-.348-.525-.233-.138-.635-.267-1.207-.386-.991-.193-1.689-.451-2.091-.773-.402-.322-.603-.777-.603-1.366 0-.377.112-.727.335-1.049.224-.331.545-.593.965-.786.429-.203.934-.304 1.515-.304.742 0 1.336.129 1.783.386.447.249.791.64 1.032 1.173l-1.019.773c-.161-.405-.388-.699-.683-.883-.286-.193-.653-.29-1.1-.29-.402 0-.737.088-1.005.262-.259.166-.389.36-.389.58 0 .248.117.446.349.593.241.147.675.28 1.3.4.947.175 1.618.424 2.011.746s.59.772.59 1.352c0 .616-.26 1.118-.778 1.504-.518.386-1.233.58-2.145.58zm6.063-2.153c0 .34.049.58.148.718.098.128.281.193.549.193.17 0 .313-.01.429-.028a2.87 2.87 0 00.456-.152l-.161 1.187c-.304.156-.675.235-1.113.235-.598 0-1.041-.157-1.327-.47-.277-.312-.415-.805-.415-1.476V9.269h1.434v7.99zm8.774-1.642a5.1 5.1 0 01-.054.759h-4.906c.08.607.29 1.072.63 1.393.34.313.777.47 1.314.47.437 0 .799-.079 1.085-.235.295-.166.496-.4.604-.704l1.193.51c-.501 1.068-1.462 1.602-2.882 1.602-1.055 0-1.881-.318-2.48-.953-.59-.634-.885-1.513-.885-2.635 0-1.132.286-2.01.858-2.636.572-.635 1.376-.952 2.413-.952.983 0 1.747.308 2.292.925.545.616.818 1.435.818 2.456zm-3.11-2.208c-.519 0-.939.156-1.26.47-.313.312-.51.767-.59 1.365h3.619c-.071-.58-.263-1.03-.576-1.352-.304-.322-.702-.483-1.193-.483zm8.512-1.173c.742 0 1.345.22 1.81.662.473.442.71 1.077.71 1.905v4.47h-1.434v-4.001c0-1.215-.478-1.822-1.434-1.822-.501 0-.93.18-1.287.539-.358.35-.536.892-.536 1.628v3.657h-1.435v-6.9h1.274l.067 1.145a2.22 2.22 0 01.925-.966c.393-.211.84-.317 1.34-.317zm7.12 7.176c-.679 0-1.283-.12-1.81-.36a2.507 2.507 0 01-1.179-1.09l.965-.855c.17.396.433.686.791.87.357.183.786.276 1.286.276.456 0 .809-.074 1.059-.221.251-.157.376-.36.376-.607 0-.221-.116-.396-.349-.525-.232-.138-.634-.267-1.206-.386-.992-.193-1.689-.451-2.091-.773-.402-.322-.603-.777-.603-1.366a1.8 1.8 0 01.335-1.049c.223-.331.545-.593.965-.786.429-.203.934-.304 1.514-.304.742 0 1.336.129 1.783.386.447.249.791.64 1.032 1.173l-1.018.773c-.161-.405-.389-.699-.684-.883-.286-.193-.652-.29-1.099-.29-.402 0-.737.088-1.005.262-.26.166-.389.36-.389.58 0 .248.116.446.348.593.242.147.675.28 1.301.4.947.175 1.617.424 2.01.746.393.322.59.772.59 1.352 0 .616-.259 1.118-.778 1.504-.518.386-1.233.58-2.144.58zm7.43-3.382l-1.327 1.408v1.836h-1.435V9.269h1.435v6.486l3.203-3.381h1.689l-2.56 2.705 2.721 4.195h-1.662l-2.064-3.243zm8.512-3.794c.312 0 .558.046.737.138l-.228 1.352c-.206-.12-.487-.179-.845-.179-.285 0-.558.078-.817.235-.25.156-.46.39-.63.703-.161.313-.241.69-.241 1.132v3.657h-1.435v-6.9h1.22l.121 1.242c.375-.92 1.081-1.38 2.118-1.38zm7.738 6.072a1.9 1.9 0 00.496-.055l-.094.993c-.241.11-.518.166-.831.166-.384 0-.692-.079-.925-.235-.223-.156-.371-.418-.442-.787-.206.322-.509.575-.912.76a3.361 3.361 0 01-1.353.262c-.653 0-1.18-.157-1.582-.47-.402-.312-.603-.759-.603-1.338 0-.543.219-.998.657-1.366.437-.377 1.09-.644 1.957-.8l1.702-.304v-.373c0-.423-.121-.754-.362-.993-.241-.249-.576-.373-1.005-.373-.885 0-1.461.414-1.729 1.242l-1.113-.607c.161-.552.487-.989.978-1.311.501-.322 1.113-.483 1.837-.483.867 0 1.555.207 2.064.621.51.414.764 1.021.764 1.822v3.118c0 .175.036.304.107.386.081.083.21.125.389.125zm-3.753-.014c.482 0 .907-.12 1.273-.359.367-.24.55-.556.55-.952v-.828l-1.461.304c-.465.092-.809.22-1.032.386a.782.782 0 00-.335.662c0 .258.085.456.254.594.179.129.429.193.751.193zM66.594 35.334c-.68 0-1.283-.12-1.81-.359a2.508 2.508 0 01-1.18-1.09l.966-.856c.17.396.433.686.79.87.358.184.787.276 1.287.276.456 0 .809-.074 1.06-.221.25-.157.375-.359.375-.607 0-.221-.117-.396-.349-.525-.232-.138-.635-.266-1.206-.386-.992-.193-1.69-.45-2.091-.773-.403-.322-.604-.777-.604-1.366a1.8 1.8 0 01.336-1.049c.223-.33.545-.593.965-.786.428-.203.933-.304 1.514-.304.742 0 1.336.129 1.783.387.447.248.79.639 1.032 1.172l-1.019.773c-.16-.404-.388-.699-.683-.883-.286-.193-.653-.29-1.1-.29-.401 0-.737.088-1.005.262-.259.166-.388.36-.388.58 0 .248.116.446.348.594.241.147.675.28 1.3.4.948.174 1.618.423 2.011.745s.59.772.59 1.352c0 .617-.26 1.118-.778 1.504-.518.387-1.233.58-2.144.58zm10.436-7.038l-2.668 6.9h-1.568l-2.681-6.9h1.582l1.89 5.7 1.943-5.7h1.502zm7.175 3.243c0 .267-.018.52-.054.759h-4.906c.08.607.29 1.072.63 1.394.34.313.778.469 1.314.469.438 0 .8-.078 1.086-.235.295-.165.496-.4.603-.704l1.193.511c-.5 1.067-1.461 1.6-2.882 1.6-1.054 0-1.881-.317-2.48-.951-.59-.635-.885-1.514-.885-2.636 0-1.131.286-2.01.858-2.636.572-.634 1.376-.952 2.413-.952.983 0 1.747.308 2.292.925.545.616.818 1.435.818 2.456zm-3.11-2.208c-.518 0-.938.157-1.26.47-.313.312-.51.768-.59 1.365h3.62c-.072-.58-.264-1.03-.577-1.352-.304-.322-.701-.483-1.193-.483zm5.631-2.194c-.304 0-.541-.078-.71-.235-.17-.165-.256-.395-.256-.69 0-.294.085-.52.255-.676.17-.156.407-.234.71-.234.305 0 .537.078.698.234.17.157.254.382.254.676 0 .295-.085.525-.254.69-.161.157-.394.235-.697.235zm.71 8.059h-1.434v-6.9h1.434v6.9zm6.587-.456a2.456 2.456 0 01-.79.442 3.122 3.122 0 01-.993.152c-.616 0-1.112-.157-1.487-.47-.367-.321-.555-.818-.564-1.49v-3.919h-1.273v-1.159h1.273v-1.614l1.435-.414v2.028h2.346v1.16h-2.346v3.67c0 .331.085.58.254.745.18.157.42.235.724.235a1.54 1.54 0 001.086-.442l.335 1.076zm7.168-.51a1.9 1.9 0 00.496-.055l-.094.993c-.241.11-.518.166-.831.166-.384 0-.692-.078-.925-.235-.223-.156-.37-.418-.442-.786-.206.322-.51.575-.911.759a3.363 3.363 0 01-1.354.262c-.653 0-1.18-.157-1.582-.47-.402-.312-.603-.758-.603-1.338 0-.543.219-.998.657-1.366.437-.377 1.09-.644 1.957-.8l1.702-.304v-.373c0-.423-.12-.754-.362-.993-.241-.248-.576-.373-1.005-.373-.885 0-1.461.414-1.73 1.242l-1.112-.607c.16-.552.487-.989.978-1.31.5-.323 1.113-.484 1.837-.484.867 0 1.555.207 2.064.621.51.414.764 1.021.764 1.822v3.118c0 .175.036.304.107.387.081.082.21.124.389.124zm-3.753-.014c.483 0 .907-.12 1.273-.359.367-.239.55-.556.55-.952v-.828l-1.461.304c-.465.092-.809.22-1.032.386a.784.784 0 00-.335.662c0 .258.084.456.254.594.179.129.43.193.751.193zm9.065-6.058c.313 0 .559.046.738.138l-.228 1.352c-.206-.12-.487-.179-.845-.179a1.55 1.55 0 00-.817.235 1.825 1.825 0 00-.63.703c-.161.313-.242.69-.242 1.132v3.657h-1.434v-6.9h1.22l.121 1.242c.375-.92 1.081-1.38 2.117-1.38zm4.035.138h2.172v1.16h-2.132v5.74h-1.434v-5.74h-1.26v-1.16h1.26v-.993c0-.7.206-1.242.617-1.629.411-.386.987-.58 1.729-.58.268 0 .514.033.737.097.223.056.398.134.523.235l-.268 1.076c-.206-.138-.461-.207-.764-.207-.787 0-1.18.373-1.18 1.118v.883zm9.311 3.243c0 .267-.018.52-.053.759h-4.906c.08.607.29 1.072.63 1.394.339.313.777.469 1.313.469.438 0 .8-.078 1.086-.235.295-.165.496-.4.603-.704l1.193.511c-.5 1.067-1.461 1.6-2.882 1.6-1.054 0-1.881-.317-2.479-.951-.59-.635-.885-1.514-.885-2.636 0-1.131.286-2.01.858-2.636.572-.634 1.376-.952 2.412-.952.983 0 1.748.308 2.293.925.545.616.817 1.435.817 2.456zm-3.11-2.208c-.518 0-.938.157-1.26.47-.312.312-.509.768-.589 1.365h3.619c-.072-.58-.264-1.03-.577-1.352-.303-.322-.701-.483-1.193-.483zm1.622-4.43l-1.327 2.319h-1.099l.979-2.318h1.447zm4.679 8.28c0 .34.049.58.148.718.098.129.281.193.549.193.17 0 .313-.01.429-.028a2.87 2.87 0 00.456-.151l-.161 1.186c-.304.157-.675.235-1.112.235-.599 0-1.042-.157-1.327-.47-.278-.312-.416-.804-.416-1.476v-8.197h1.434v7.99zm8.586 1.049c.196 0 .362-.018.496-.055l-.094.993c-.241.11-.518.166-.831.166-.385 0-.693-.078-.925-.235-.224-.156-.371-.418-.442-.786-.206.322-.51.575-.912.759a3.361 3.361 0 01-1.354.262c-.652 0-1.179-.157-1.582-.47-.402-.312-.603-.758-.603-1.338 0-.543.219-.998.657-1.366.438-.377 1.09-.644 1.957-.8l1.702-.304v-.373c0-.423-.12-.754-.361-.993-.242-.248-.577-.373-1.006-.373-.884 0-1.461.414-1.729 1.242l-1.112-.607c.16-.552.487-.989.978-1.31.5-.323 1.113-.484 1.836-.484.867 0 1.555.207 2.065.621.509.414.764 1.021.764 1.822v3.118c0 .175.035.304.107.387.08.082.21.124.389.124zm-3.754-.014c.483 0 .908-.12 1.274-.359s.549-.556.549-.952v-.828l-1.461.304c-.464.092-.808.22-1.032.386a.785.785 0 00-.335.662c0 .258.085.456.255.594.179.129.429.193.75.193zm9.534-.096c.68 0 1.207.156 1.582.469.376.312.563.745.563 1.297 0 .469-.152.874-.456 1.214-.294.34-.706.603-1.233.787-.518.184-1.103.276-1.756.276-1.063 0-1.863-.161-2.399-.483-.527-.322-.791-.75-.791-1.284 0-.312.103-.588.308-.828.215-.23.51-.395.885-.496a1.94 1.94 0 01-.684-.525 1.256 1.256 0 01-.254-.786c0-.672.348-1.132 1.045-1.38a2.096 2.096 0 01-.777-.787 2.329 2.329 0 01-.255-1.104c0-.46.121-.864.362-1.214a2.32 2.32 0 011.019-.828c.447-.193.956-.29 1.528-.29.491 0 .943.074 1.354.221.125-.506.348-.888.67-1.145.331-.267.764-.396 1.3-.387l.241 1.146c-.429-.01-.777.046-1.045.165-.259.12-.438.3-.536.538.295.212.522.47.683.773.161.304.242.644.242 1.021 0 .709-.268 1.274-.805 1.698-.527.423-1.228.634-2.104.634-.411 0-.782-.041-1.113-.124-.223.055-.388.147-.496.276-.098.12-.147.28-.147.483 0 .212.071.377.214.497.152.11.358.166.617.166h2.238zm-1.313-4.927c-.411 0-.755.124-1.032.373a1.165 1.165 0 00-.416.924c0 .387.139.704.416.952.277.24.621.36 1.032.36.42 0 .764-.12 1.032-.36a1.22 1.22 0 00.416-.952 1.18 1.18 0 00-.416-.938c-.268-.24-.612-.359-1.032-.359zm.147 7.866c.653 0 1.162-.097 1.528-.29.367-.193.55-.432.55-.718a.59.59 0 00-.268-.524c-.179-.12-.478-.18-.898-.18h-1.81c-.402 0-.706.065-.911.194a.609.609 0 00-.295.538c0 .313.174.552.523.718.357.174.884.262 1.581.262zm10.479-2.829c.196 0 .362-.018.496-.055l-.094.993c-.242.11-.519.166-.831.166-.385 0-.693-.078-.925-.235-.224-.156-.371-.418-.443-.786-.205.322-.509.575-.911.759a3.361 3.361 0 01-1.354.262c-.652 0-1.179-.157-1.582-.47-.402-.312-.603-.758-.603-1.338 0-.543.219-.998.657-1.366.438-.377 1.09-.644 1.957-.8l1.702-.304v-.373c0-.423-.12-.754-.362-.993-.241-.248-.576-.373-1.005-.373-.885 0-1.461.414-1.729 1.242l-1.113-.607a2.29 2.29 0 01.979-1.31c.5-.323 1.113-.484 1.836-.484.867 0 1.555.207 2.065.621.509.414.764 1.021.764 1.822v3.118c0 .175.035.304.107.387.08.082.21.124.389.124zm-3.754-.014c.483 0 .907-.12 1.274-.359.366-.239.549-.556.549-.952v-.828l-1.461.304c-.464.092-.808.22-1.032.386a.785.785 0 00-.335.662c0 .258.085.456.255.594.178.129.429.193.75.193z"
        fill="#153C68"
      />
      <path
        fill-rule="evenodd"
        clip-rule="evenodd"
        d="M33.237 9.415L23.549 0l-9.602 9.371v4.559H9.418L0 23.618l9.375 9.605h4.572v4.504l9.685 9.415 9.605-9.37v-4.55h4.54l9.414-9.688-9.375-9.604h-4.58V9.415zM16.375 33.223v3.479l7.254 7.051 7.18-7.005v-3.525h-5.303v-5.338h-3.821v5.338h-5.31zm2.882-5.338v2.91h-2.882v-2.91h2.882zm0-2.427h-5.31v5.337h-3.55l-7.008-7.18 7.055-7.258h3.503v5.324h5.31v3.777zm2.428 0h3.821V21.68h-3.821v3.777zm0-6.205h3.821V13.93h5.303v-3.49l-7.257-7.05-7.177 7.005v3.536h5.31v5.323zm-5.31-2.896v2.896h2.882v-2.896h-2.882zm11.56 14.438h2.874v-2.91h-2.875v2.91zm5.302-5.337v5.337h3.513l7.052-7.257-7.009-7.18h-3.556v5.323h-5.303v3.777h5.303zm-5.303-6.205v-2.896h2.875v2.896h-2.875z"
        fill="#153C68"
      />
    </svg>