<svg width="240" height="240" viewBox="0 0 240 240" fill="none" xmlns="http://www.w3.org/2000/svg">
<rect width="240" height="240" fill="#F5F5F5"/>
<g id="Yfirlit reikninga">
<rect width="1440" height="1793" transform="translate(-1112 -571)" fill="white"/>
<g id="Search">
<mask id="path-1-outside-1_1_8" maskUnits="userSpaceOnUse" x="-1112" y="-142" width="1440" height="901" fill="black">
<rect fill="white" x="-1112" y="-142" width="1440" height="901"/>
<path d="M-1112 -141H328V759H-1112V-141Z"/>
</mask>
<path d="M-1112 -141H328V759H-1112V-141Z" fill="#F2F7FF"/>
<path d="M-1112 -140H328V-142H-1112V-140Z" fill="#F2F2F5" mask="url(#path-1-outside-1_1_8)"/>
<g id="Results">
<g id="List">
<g id="Results_2">
<g id="Empty illustration - desktop">
<rect x="-697.5" y="-49.5" width="977" height="339" rx="7.5" fill="white"/>
<rect x="-697.5" y="-49.5" width="977" height="339" rx="7.5" stroke="#CCDFFF"/>
<g id="LE - Moving - S1">
<g id="LE - Moving - S1_2">
<path id="Vector" d="M158.142 192.181C159.938 192.181 161.395 190.725 161.395 188.929C161.395 187.133 159.938 185.677 158.142 185.677C156.346 185.677 154.89 187.133 154.89 188.929C154.89 190.725 156.346 192.181 158.142 192.181Z" fill="#0061FF"/>
<path id="Vector_2" d="M154.178 155.58C153.769 155.58 153.438 155.249 153.438 154.84V72.7181H94.9821V99.4734C94.9821 99.883 94.6514 100.214 94.2418 100.214C93.8321 100.214 93.5015 99.883 93.5015 99.4734V71.9778C93.5015 71.5682 93.8321 71.2375 94.2418 71.2375H154.178C154.588 71.2375 154.919 71.5682 154.919 71.9778V154.84C154.919 155.249 154.588 155.58 154.178 155.58Z" fill="#6A2EA0"/>
<path id="Vector_3" d="M142.333 178.16H77.4317C77.0221 178.16 76.6914 177.829 76.6914 177.419V129.733C76.6914 129.323 77.0221 128.992 77.4317 128.992H113.411C113.821 128.992 114.152 129.323 114.152 129.733V176.679H142.333C142.743 176.679 143.074 177.01 143.074 177.419C143.074 177.829 142.743 178.16 142.333 178.16ZM78.1721 176.679H112.671V130.473H78.1721V176.679Z" fill="#6A2EA0"/>
<path id="Vector_4" d="M113.411 130.468H77.4316C77.1898 130.468 76.9627 130.35 76.8245 130.147L65.7937 114.255C65.6358 114.028 65.6161 113.732 65.7444 113.49C65.8727 113.248 66.1244 113.095 66.4008 113.095H102.38C102.622 113.095 102.849 113.214 102.988 113.416L114.013 129.313C114.171 129.54 114.191 129.836 114.063 130.078C113.939 130.315 113.688 130.468 113.411 130.468ZM77.8166 128.988H111.995L101.996 114.571H67.8173L77.8166 128.988Z" fill="#6A2EA0"/>
<path id="Vector_5" d="M130.632 178.16C130.222 178.16 129.891 177.829 129.891 177.419V130.473H114.152V177.419C114.152 177.829 113.821 178.16 113.412 178.16C113.002 178.16 112.671 177.829 112.671 177.419V129.733C112.671 129.323 113.002 128.992 113.412 128.992H130.632C131.041 128.992 131.372 129.323 131.372 129.733V177.419C131.372 177.824 131.041 178.16 130.632 178.16Z" fill="#6A2EA0"/>
<path id="Vector_6" d="M71.6128 55.6857H101.67L94.242 71.5829H82.6436L71.6128 55.6857ZM163.961 104.433H148.695C148.695 104.433 152.727 115.124 153.127 121.668C153.532 128.213 146.677 129.17 143.454 138.72C139.022 151.873 151.222 177.716 151.222 177.716H166.053C166.053 177.716 178.254 151.873 173.822 138.72C170.604 129.165 163.743 128.213 164.148 121.668C164.553 115.124 168.58 104.433 168.58 104.433H163.961Z" fill="url(#paint0_linear_1_8)"/>
<path id="Vector_7" d="M154.179 72.9353C154.075 72.9353 153.972 72.9156 153.873 72.8662C153.503 72.6984 153.335 72.2591 153.508 71.884L163.941 49.0278H105.629L94.9136 72.501C94.7458 72.8711 94.3065 73.0389 93.9314 72.8662C93.5613 72.6984 93.3935 72.2591 93.5662 71.884L104.479 47.9815C104.602 47.715 104.864 47.5472 105.155 47.5472H165.091C165.343 47.5472 165.58 47.6755 165.713 47.8877C165.846 48.1 165.866 48.3665 165.762 48.5935L154.85 72.501C154.727 72.7724 154.46 72.9353 154.179 72.9353Z" fill="#6A2EA0"/>
<path id="Vector_8" d="M94.2421 114.151C93.8325 114.151 93.5018 113.821 93.5018 113.411V72.9352H83.7888V95.6681C83.7888 96.0777 83.4581 96.4084 83.0484 96.4084C82.6388 96.4084 82.3081 96.0777 82.3081 95.6681V72.1949C82.3081 71.7853 82.6388 71.4546 83.0484 71.4546H94.2372C94.6468 71.4546 94.9775 71.7853 94.9775 72.1949V113.411C94.9824 113.816 94.6468 114.151 94.2421 114.151Z" fill="#6A2EA0"/>
</g>
</g>
</g>
</g>
</g>
</g>
</g>
</g>
<defs>
<linearGradient id="paint0_linear_1_8" x1="73.0616" y1="54.2372" x2="181.296" y2="162.472" gradientUnits="userSpaceOnUse">
<stop stop-color="#FF4C84"/>
<stop offset="0.1681" stop-color="#DF599A"/>
<stop offset="0.7433" stop-color="#7680E2"/>
<stop offset="1" stop-color="#4C90FF"/>
</linearGradient>
</defs>
</svg>
