<svg width="160" height="26" fill="none" xmlns="http://www.w3.org/2000/svg"><g clip-path="url(#clip0)"><path d="M44.262 9.97h-3.494a.514.514 0 00-.514.514v14.73c0 .285.23.515.514.515h3.494c.283 0 .513-.23.513-.514v-14.73a.515.515 0 00-.513-.515zm24.543-7.676H65.31a.514.514 0 00-.514.514v22.404c0 .284.23.514.514.514h3.494c.284 0 .514-.23.514-.514V2.808a.514.514 0 00-.514-.514h.001zm30.181 7.607c-2.775 0-4.11.024-7.707.07a.454.454 0 00-.514.513v14.73a.454.454 0 00.514.515h3.494a.453.453 0 00.513-.514V13.223h2.33c2.672 0 3.289.755 3.289 3.599v8.393a.45.45 0 00.514.514h3.494a.45.45 0 00.494-.306.456.456 0 00.019-.208v-9.457c0-4.727-3.424-5.857-6.44-5.857zm24.209-7.511h-3.497c-.341 0-.513.172-.513.652v6.826h-3.564c-3.345 0-6.885 1.027-6.885 7.981 0 6.783 3.53 7.947 6.885 7.947 4.352 0 5.721-.031 7.574-.067a.456.456 0 00.513-.514V3.049c0-.48-.172-.66-.513-.66v.001zm-4.01 20.117h-2.672c-2.364 0-3.255-1.13-3.255-4.59 0-3.63.891-4.694 3.255-4.694h2.672v9.284z" fill="#00003C"/><path d="M131.502 25.832a3.047 3.047 0 002.883-3.234 3.045 3.045 0 00-2.074-2.701 3.047 3.047 0 00-4.012 3.08 3.045 3.045 0 003.203 2.855z" fill="#FF0050"/><path d="M42.515 6.099A3.05 3.05 0 1042.625 0a3.05 3.05 0 00-.11 6.099zm38.177 3.802c-2.808 0-4.35.036-6.2.07a.479.479 0 00-.515.544v2.192a.455.455 0 00.516.513h4.624c2.672 0 3.358.756 3.358 2.022v.717h-4.421c-3.561 0-5.652 1.097-5.619 4.727.036 3.872 2.091 5.105 5.654 5.105 5.105 0 6.544-.038 8.393-.067a.457.457 0 00.514-.514v-9.798C86.99 11.032 83.57 9.9 80.692 9.9v.001zm1.783 12.606h-3.427c-1.406 0-2.055-.41-2.089-1.816-.033-1.405.65-1.814 2.055-1.814h3.46v3.63h.001zm-24.462-5.582l-4.077-1.336c-.925-.309-1.195-.583-1.195-1.27 0-.788.41-1.13 1.71-1.13h5.892a.454.454 0 00.513-.523v-2.218a.46.46 0 00-.513-.514c-1.85-.035-3.346-.066-6.544-.066-3.197 0-5.482.955-5.482 4.11v.58c0 1.784 1.13 3.428 3.46 4.216l3.906 1.3c1.03.345 1.194.55 1.194 1.195 0 .892-.41 1.167-1.369 1.167h-6.436a.455.455 0 00-.513.513v2.225a.455.455 0 00.513.514c1.85.036 3.22.07 6.44.07 3.906 0 5.825-.925 5.825-4.145v-.583c0-1.503-.583-3.216-3.324-4.105zm84.912-6.955h-3.494a.513.513 0 00-.514.514v14.73c0 .285.23.515.514.515h3.494c.284 0 .514-.23.514-.514v-14.73a.512.512 0 00-.514-.515zm-1.529-3.891a3.043 3.043 0 002.718-2.07c.129-.382.181-.787.153-1.19a3.058 3.058 0 00-1.061-2.102 3.046 3.046 0 00-2.242-.72 3.049 3.049 0 00.432 6.082zm15.282 10.846l-4.077-1.336c-.925-.309-1.195-.583-1.195-1.27 0-.788.411-1.13 1.714-1.13h5.893a.455.455 0 00.509-.523v-2.218a.458.458 0 00-.514-.513c-1.849-.036-3.345-.067-6.543-.067s-5.492.958-5.492 4.11v.58c0 1.784 1.131 3.428 3.461 4.216l3.914 1.3c1.028.345 1.195.55 1.195 1.195 0 .892-.411 1.167-1.372 1.167h-6.435a.458.458 0 00-.507.306.462.462 0 00-.017.212v2.225a.456.456 0 00.514.514c1.85.036 3.221.07 6.441.07 3.907 0 5.823-.926 5.823-4.145v-.588c.01-1.503-.571-3.216-3.312-4.105z" fill="#00003C"/><path d="M6.099 22.782a3.016 3.016 0 01-3.05 3.05 3.05 3.05 0 010-6.1 3.02 3.02 0 013.05 3.05zm6.806-3.05a3.05 3.05 0 103.059 3.05 3.013 3.013 0 00-3.059-3.05zm9.868 0a3.049 3.049 0 103.049 3.05 3.016 3.016 0 00-3.04-3.05h-.01.001zM3.049 9.869a3.049 3.049 0 100 6.096 3.05 3.05 0 100-6.096zm9.866 0a3.05 3.05 0 103.049 3.037 3.012 3.012 0 00-3.059-3.037h.01zm9.867 0a3.05 3.05 0 103.05 3.037 3.013 3.013 0 00-3.05-3.037zM3.05 0A3.016 3.016 0 000 3.05a3.016 3.016 0 003.05 3.049 3.016 3.016 0 003.049-3.05A3.016 3.016 0 003.049 0h.001zm9.856 0a3.013 3.013 0 00-3.037 3.05 3.05 3.05 0 106.096 0A3.016 3.016 0 0012.905 0h.001zm9.877 0a3.016 3.016 0 00-3.05 3.05 3.05 3.05 0 106.1 0A3.02 3.02 0 0022.781 0h.002z" fill="url(#paint0_linear)"/></g><defs><linearGradient id="paint0_linear" x1=".882" y1=".882" x2="24.947" y2="24.947" gradientUnits="userSpaceOnUse"><stop stop-color="#0161FD"/><stop offset=".25" stop-color="#3F46D2"/><stop offset=".51" stop-color="#812EA4"/><stop offset=".77" stop-color="#C21578"/><stop offset="1" stop-color="#FD0050"/></linearGradient><clipPath id="clip0"><path fill="#fff" d="M0 0h160v26H0z"/></clipPath></defs></svg>