<svg width="150" height="268" viewBox="0 0 150 268" fill="none" xmlns="http://www.w3.org/2000/svg">
<path d="M115.861 268C107.636 268 100.952 261.313 100.952 253.102C100.952 244.892 107.644 238.205 115.861 238.205C124.078 238.205 130.77 244.892 130.77 253.102C130.77 261.313 124.085 268 115.861 268ZM115.861 240.439C108.878 240.439 103.195 246.117 103.195 253.095C103.195 260.073 108.878 265.751 115.861 265.751C122.844 265.751 128.527 260.073 128.527 253.095C128.527 246.117 122.852 240.439 115.861 240.439Z" fill="#6A2EA0"/>
<path d="M75.2392 240.439C74.6186 240.439 74.1177 239.938 74.1177 239.318V206.856C74.1177 206.235 74.6186 205.735 75.2392 205.735C75.8598 205.735 76.3607 206.235 76.3607 206.856V239.318C76.3607 239.938 75.8598 240.439 75.2392 240.439Z" fill="#6A2EA0"/>
<path d="M75.2392 180.422C74.6186 180.422 74.1177 179.922 74.1177 179.302V53.3894C74.1177 52.7692 74.6186 52.2687 75.2392 52.2687C75.8598 52.2687 76.3607 52.7692 76.3607 53.3894V179.294C76.3607 179.922 75.8598 180.422 75.2392 180.422Z" fill="#6A2EA0"/>
<path d="M117.244 69.9082H127.181V85.4035H117.244V69.9082ZM91.4191 123.686H101.356V139.181H91.4191V123.686V123.686ZM23.0884 112.292H33.0251V96.7971H23.0884V112.292ZM136.826 22.4286H13.8994L7.91797 53.3893H142.807L136.826 22.4286ZM83.9423 47.1733H66.0652V38.2452C66.0652 33.3141 70.0653 29.3171 75 29.3171C79.9347 29.3171 83.9348 33.3141 83.9348 38.2452V47.1733H83.9423ZM75.2393 179.302C67.6204 179.302 61.452 185.473 61.452 193.079C61.452 200.692 67.6279 206.856 75.2393 206.856C82.8507 206.856 89.0265 200.684 89.0265 193.079C89.0265 185.465 82.8582 179.302 75.2393 179.302Z" fill="url(#paint0_linear_1954_11072)"/>
<path d="M115.861 257.57C118.33 257.57 120.332 255.57 120.332 253.102C120.332 250.635 118.33 248.635 115.861 248.635C113.391 248.635 111.39 250.635 111.39 253.102C111.39 255.57 113.391 257.57 115.861 257.57Z" fill="#0061FF"/>
<path d="M75.3664 8.93558C77.8357 8.93558 79.8375 6.93528 79.8375 4.46779C79.8375 2.0003 77.8357 0 75.3664 0C72.8971 0 70.8953 2.0003 70.8953 4.46779C70.8953 6.93528 72.8971 8.93558 75.3664 8.93558Z" fill="#0061FF"/>
<path d="M34.6176 257.57C37.087 257.57 39.0888 255.57 39.0888 253.102C39.0888 250.635 37.087 248.635 34.6176 248.635C32.1483 248.635 30.1465 250.635 30.1465 253.102C30.1465 255.57 32.1483 257.57 34.6176 257.57Z" fill="#0061FF"/>
<path d="M142.807 160.063C142.187 160.063 141.686 159.563 141.686 158.943V54.51H9.03943V158.935C9.03943 159.555 8.53849 160.056 7.91791 160.056C7.29733 160.056 6.79639 159.555 6.79639 158.935V53.3894C6.79639 52.7692 7.29733 52.2687 7.91791 52.2687H142.807C143.428 52.2687 143.929 52.7692 143.929 53.3894V158.935C143.929 159.563 143.428 160.063 142.807 160.063Z" fill="#6A2EA0"/>
<path d="M101.363 86.5241H91.4267C90.8061 86.5241 90.3052 86.0236 90.3052 85.4035V69.9082C90.3052 69.288 90.8061 68.7875 91.4267 68.7875H101.363C101.984 68.7875 102.485 69.288 102.485 69.9082V85.4035C102.485 86.0236 101.977 86.5241 101.363 86.5241ZM92.5407 84.2828H100.234V71.0288H92.5407V84.2828V84.2828Z" fill="#6A2EA0"/>
<path d="M127.188 113.413H117.252C116.631 113.413 116.13 112.912 116.13 112.292V96.7971C116.13 96.177 116.631 95.6764 117.252 95.6764H127.188C127.809 95.6764 128.31 96.177 128.31 96.7971V112.292C128.31 112.912 127.809 113.413 127.188 113.413ZM118.366 111.172H126.059V97.9178H118.366V111.172Z" fill="#6A2EA0"/>
<path d="M101.363 113.413H91.4267C90.8061 113.413 90.3052 112.912 90.3052 112.292V96.7971C90.3052 96.177 90.8061 95.6764 91.4267 95.6764H101.363C101.984 95.6764 102.485 96.177 102.485 96.7971V112.292C102.485 112.912 101.977 113.413 101.363 113.413ZM92.5407 111.172H100.234V97.9178H92.5407V111.172V111.172Z" fill="#6A2EA0"/>
<path d="M127.188 140.295H117.252C116.631 140.295 116.13 139.794 116.13 139.174V123.679C116.13 123.058 116.631 122.558 117.252 122.558H127.188C127.809 122.558 128.31 123.058 128.31 123.679V139.174C128.31 139.794 127.809 140.295 127.188 140.295ZM118.366 138.053H126.059V124.799H118.366V138.053Z" fill="#6A2EA0"/>
<path d="M33.0325 86.5241H23.0883C22.4677 86.5241 21.9668 86.0236 21.9668 85.4035V69.9082C21.9668 69.288 22.4677 68.7875 23.0883 68.7875H33.025C33.6456 68.7875 34.1465 69.288 34.1465 69.9082V85.4035C34.154 86.0236 33.6531 86.5241 33.0325 86.5241ZM24.2098 84.2828H31.9035V71.0288H24.2098V84.2828Z" fill="#6A2EA0"/>
<path d="M58.8575 113.413H48.9208C48.3003 113.413 47.7993 112.912 47.7993 112.292V96.7971C47.7993 96.177 48.3003 95.6764 48.9208 95.6764H58.8575C59.4781 95.6764 59.9791 96.177 59.9791 96.7971V112.292C59.9791 112.912 59.4781 113.413 58.8575 113.413ZM50.0424 111.172H57.736V97.9178H50.0424V111.172Z" fill="#6A2EA0"/>
<path d="M58.8575 140.295H48.9208C48.3003 140.295 47.7993 139.794 47.7993 139.174V123.679C47.7993 123.058 48.3003 122.558 48.9208 122.558H58.8575C59.4781 122.558 59.9791 123.058 59.9791 123.679V139.174C59.9791 139.794 59.4781 140.295 58.8575 140.295ZM50.0424 138.053H57.736V124.799H50.0424V138.053Z" fill="#6A2EA0"/>
<path d="M58.8575 86.5241H48.9208C48.3003 86.5241 47.7993 86.0236 47.7993 85.4035V69.9082C47.7993 69.288 48.3003 68.7875 48.9208 68.7875H58.8575C59.4781 68.7875 59.9791 69.288 59.9791 69.9082V85.4035C59.9791 86.0236 59.4781 86.5241 58.8575 86.5241ZM50.0424 84.2828H57.736V71.0288H50.0424V84.2828Z" fill="#6A2EA0"/>
<path d="M33.0325 140.295H23.0883C22.4677 140.295 21.9668 139.794 21.9668 139.174V123.679C21.9668 123.058 22.4677 122.558 23.0883 122.558H33.025C33.6456 122.558 34.1465 123.058 34.1465 123.679V139.174C34.154 139.794 33.6531 140.295 33.0325 140.295ZM24.2098 138.053H31.9035V124.799H24.2098V138.053Z" fill="#6A2EA0"/>
<path d="M148.878 160.661H1.12152C0.500947 160.661 0 160.16 0 159.54C0 158.92 0.500947 158.42 1.12152 158.42H148.878C149.499 158.42 150 158.92 150 159.54C150 160.16 149.499 160.661 148.878 160.661Z" fill="#6A2EA0"/>
<path d="M34.6178 268C26.3933 268 19.709 261.313 19.709 253.102C19.709 244.892 26.4007 238.205 34.6178 238.205C42.8348 238.205 49.5265 244.892 49.5265 253.102C49.5265 261.313 42.8348 268 34.6178 268ZM34.6178 240.439C27.6344 240.439 21.952 246.117 21.952 253.095C21.952 260.073 27.6344 265.751 34.6178 265.751C41.6011 265.751 47.2835 260.073 47.2835 253.095C47.2835 246.117 41.6011 240.439 34.6178 240.439Z" fill="#6A2EA0"/>
<path d="M75.2391 268C67.0146 268 60.3303 261.313 60.3303 253.102C60.3303 244.892 67.0221 238.205 75.2391 238.205C83.4561 238.205 90.1479 244.892 90.1479 253.102C90.1479 261.313 83.4636 268 75.2391 268ZM75.2391 240.439C68.2557 240.439 62.5734 246.117 62.5734 253.095C62.5734 260.073 68.2557 265.751 75.2391 265.751C82.2225 265.751 87.9048 260.073 87.9048 253.095C87.9048 246.117 82.2225 240.439 75.2391 240.439Z" fill="#6A2EA0"/>
<path d="M115.861 240.439C115.24 240.439 114.739 239.938 114.739 239.318V236.546C114.739 228.574 108.249 222.089 100.272 222.089H50.2068C42.229 222.089 35.7391 228.574 35.7391 236.546V239.318C35.7391 239.938 35.2382 240.439 34.6176 240.439C33.997 240.439 33.4961 239.938 33.4961 239.318V236.546C33.4961 227.342 40.9953 219.848 50.2068 219.848H100.279C109.491 219.848 116.99 227.342 116.99 236.546V239.318C116.982 239.938 116.481 240.439 115.861 240.439Z" fill="#6A2EA0"/>
<path d="M115.861 23.5492H33.0327C32.4121 23.5492 31.9111 23.0487 31.9111 22.4285C31.9111 21.8084 32.4121 21.3079 33.0327 21.3079H115.868C116.489 21.3079 116.99 21.8084 116.99 22.4285C116.99 23.0487 116.481 23.5492 115.861 23.5492Z" fill="#6A2EA0"/>
<path d="M83.9422 48.294H66.0651C65.4446 48.294 64.9436 47.7934 64.9436 47.1733V38.2452C64.9436 32.7016 69.4596 28.1964 74.9999 28.1964C80.5403 28.1964 85.0637 32.709 85.0637 38.2452V47.1733C85.0637 47.7934 84.5628 48.294 83.9422 48.294ZM67.1867 46.0526H82.8207V38.2452C82.8207 33.9418 79.3141 30.4378 74.9999 30.4378C70.6933 30.4378 67.1867 33.9418 67.1867 38.2452V46.0526Z" fill="#6A2EA0"/>
<defs>
<linearGradient id="paint0_linear_1954_11072" x1="110.582" y1="7.28765" x2="14.4476" y2="173.922" gradientUnits="userSpaceOnUse">
<stop stop-color="#FF4C84"/>
<stop offset="0.0028922" stop-color="#FE4D85"/>
<stop offset="0.1927" stop-color="#C961AA"/>
<stop offset="0.3784" stop-color="#9C72C8"/>
<stop offset="0.5557" stop-color="#797FE0"/>
<stop offset="0.7227" stop-color="#6189F1"/>
<stop offset="0.8752" stop-color="#528EFB"/>
<stop offset="1" stop-color="#4C90FF"/>
</linearGradient>
</defs>
</svg>
