<svg width="169" height="250" fill="none" xmlns="http://www.w3.org/2000/svg"><path d="m168.333 149.627-45.716 13.67s-4.92-1.647-15.66-5.233c-10.74-3.585-12.747-3.966-19.33-2.082-6.454 1.174-18.285 17.598-18.285 17.598 9.833.801 17.255-5.401 17.255-5.401l29.468 14.608h52.276v-33.16h-.008ZM41.323 15.745c-13.524 0-24.486 10.961-24.486 24.486s10.962 24.487 24.487 24.487c13.524 0 24.486-10.962 24.486-24.487 0-13.525-10.962-24.486-24.486-24.486Z" fill="url(#a)"/><path d="M55.245 9.123a4.562 4.562 0 1 0 0-9.123 4.562 4.562 0 0 0 0 9.123ZM147.699 249.877a4.561 4.561 0 1 0 0-9.122 4.561 4.561 0 0 0 0 9.122Z" fill="#0061FF"/><path d="M71.86 174.724c-2.121 0-3.326-.412-3.464-.457a1.122 1.122 0 0 1-.725-.817c-.091-.373.016-.77.29-1.052l12.35-12.923c.23-.236.466-.472.702-.701 5.096-4.837 12.556-6.4 19.483-4.089l22.312 7.453c4.661-.199 27.21-8.025 35.616-11.061a1.143 1.143 0 1 1 .778 2.151c-1.266.458-31.062 11.206-36.569 11.206-.122 0-.244-.023-.366-.061l-22.496-7.514c-6.118-2.044-12.701-.671-17.179 3.578-.213.198-.42.404-.618.617l-10.84 11.344c3.136.16 9.864-.672 18.835-8.216a1.147 1.147 0 0 1 1.61.137 1.146 1.146 0 0 1-.138 1.61c-8.841 7.43-15.714 8.795-19.582 8.795Z" fill="#6A2EA0"/><path d="M122.617 187.219a1.14 1.14 0 0 1-.511-.122l-36.028-17.896a1.152 1.152 0 0 1-.519-1.533 1.153 1.153 0 0 1 1.534-.519l36.028 17.896c.564.282.793.969.518 1.533a1.138 1.138 0 0 1-1.022.641ZM113.166 193.764c-.176 0-.343-.038-.511-.122-6.782-3.387-23.564-11.175-23.74-11.251a1.144 1.144 0 0 1 .962-2.075c.168.076 16.988 7.872 23.8 11.282a1.143 1.143 0 0 1-.511 2.166ZM102.425 199.348a1.12 1.12 0 0 1-.511-.122l-18.681-9.322a1.142 1.142 0 1 1 1.022-2.044l18.681 9.322a1.143 1.143 0 0 1-.511 2.166ZM90.297 202.087a1.14 1.14 0 0 1-.496-.115l-15.661-7.559a1.141 1.141 0 0 1-.534-1.526 1.14 1.14 0 0 1 1.526-.534l15.66 7.56c.573.274.809.961.534 1.525a1.138 1.138 0 0 1-1.03.649ZM78.763 204.833c-.061 0-.122-.008-.176-.015-.412-.061-10.168-1.724-24.288-15.112-11.015-10.443-52.62-6.286-53.031-6.24a1.147 1.147 0 0 1-1.259-1.022 1.152 1.152 0 0 1 1.022-1.259c1.755-.183 43.069-4.31 54.847 6.858 13.532 12.831 22.976 14.494 23.068 14.509.625.099 1.045.687.946 1.312a1.14 1.14 0 0 1-1.13.969ZM49.455 163.412c-.122 0-.244-.023-.366-.061l-48.31-16.34a1.14 1.14 0 0 1-.717-1.449 1.133 1.133 0 0 1 1.45-.717l47.867 16.194c16.347-7.681 36.463-5.95 37.317-5.873.626.061 1.09.617 1.038 1.243a1.136 1.136 0 0 1-1.244 1.037c-.206-.015-20.703-1.777-36.54 5.859-.16.069-.327.107-.495.107ZM115.775 107.863H49.928c-5.378 0-9.749-4.371-9.749-9.749v-49.27c0-5.378 4.371-9.75 9.75-9.75h90.477c5.378 0 9.749 4.372 9.749 9.75v24.631c0 .633-.511 1.144-1.144 1.144a1.143 1.143 0 0 1-1.144-1.144V48.844c0-4.112-3.349-7.46-7.461-7.46H49.928c-4.112 0-7.46 3.348-7.46 7.46v49.27c0 4.112 3.348 7.461 7.46 7.461h65.847c.633 0 1.144.511 1.144 1.144 0 .633-.511 1.144-1.144 1.144Z" fill="#6A2EA0"/><path d="M132.397 74.62h-16.622a1.143 1.143 0 0 1-1.144-1.145V67.12c0-.633.511-1.145 1.144-1.145.633 0 1.144.511 1.144 1.145v5.21h14.333V56.617h-9.657a1.143 1.143 0 0 1-1.144-1.145c0-.633.511-1.144 1.144-1.144h10.802c.633 0 1.144.511 1.144 1.144v18.003c0 .633-.511 1.144-1.144 1.144Z" fill="#6A2EA0"/><path d="M124.082 69.623c-.328 0-.641-.138-.854-.39l-8.307-9.413a1.146 1.146 0 0 1 1.716-1.518l7.3 8.262 11.069-17.621a1.147 1.147 0 0 1 1.579-.359c.534.336.694 1.045.358 1.58L125.059 69.08a1.154 1.154 0 0 1-.878.534c-.038.008-.068.008-.099.008ZM41.69 86.13c-4.158 0-8.323-.938-11.977-2.807-7.902-4.05-16.187-4.081-21.626-.1a1.145 1.145 0 1 1-1.357-1.845c6.14-4.5 15.34-4.539 24.02-.1 6.668 3.418 15.22 3.418 21.772 0 7.536-3.928 16.713-3.905 23.952.046.557.305.755 1 .458 1.557-.297.556-1 .762-1.556.457-6.477-3.54-15.035-3.547-21.802-.023-3.585 1.877-7.727 2.815-11.884 2.815Z" fill="#6A2EA0"/><defs><linearGradient id="a" x1="16.834" y1="99.266" x2="168.336" y2="99.266" gradientUnits="userSpaceOnUse"><stop stop-color="#4C90FF"/><stop offset=".126" stop-color="#5B8BF5"/><stop offset=".368" stop-color="#827CDA"/><stop offset=".699" stop-color="#C064AF"/><stop offset="1" stop-color="#FF4C84"/></linearGradient></defs></svg>