<svg width="27" height="23" viewBox="0 0 27 23" fill="none" xmlns="http://www.w3.org/2000/svg">
<path d="M3.39848 22.9999H23.4785C25.5318 22.9999 26.8118 20.7732 25.7851 18.9999L15.7451 1.65324C14.7185 -0.120091 12.1585 -0.120091 11.1318 1.65324L1.09181 18.9999C0.0651421 20.7732 1.34514 22.9999 3.39848 22.9999ZM13.4385 13.6666C12.7051 13.6666 12.1051 13.0666 12.1051 12.3332V9.66658C12.1051 8.93324 12.7051 8.33324 13.4385 8.33324C14.1718 8.33324 14.7718 8.93324 14.7718 9.66658V12.3332C14.7718 13.0666 14.1718 13.6666 13.4385 13.6666ZM14.7718 18.9999H12.1051V16.3332H14.7718V18.9999Z" fill="#FF0050"/>
</svg>
