<?xml version="1.0" standalone="no"?>
<!DOCTYPE svg PUBLIC "-//W3C//DTD SVG 1.1//EN" "http://www.w3.org/Graphics/SVG/1.1/DTD/svg11.dtd">
<svg xmlns="http://www.w3.org/2000/svg">
<defs >
<font id="IBMPlexSans" horiz-adv-x="576" ><font-face
    font-family="IBM Plex Sans"
    units-per-em="1000"
    panose-1="2 11 5 3 5 2 3 0 2 3"
    ascent="1025"
    descent="-275"
    alphabetic="0" />
<glyph unicode=" " glyph-name="space" horiz-adv-x="236" />
<glyph unicode="!" glyph-name="exclam" horiz-adv-x="271" d="M102 185L141 494L182 698H265L224 494L140 185H102ZM88 -12Q64 -12 51 -2T37 28Q37 35 38 44T41 62Q45 82 58 99T106 117Q130 117 143 107T157 77Q157 70 156 61T153 43Q151 33 147 23T136 6T117
-7T88 -12Z" />
<glyph unicode="&quot;" glyph-name="quotedbl" horiz-adv-x="409" d="M121 460L177 740H248L192 460H121ZM297 460L353 740H424L368 460H297Z" />
<glyph unicode="#" glyph-name="numbersign" horiz-adv-x="681" d="M374 205H241L165 0H98L174 205H47L58 263H195L257 435H131L142 493H279L354 698H421L346 493H479L554 698H621L546 493H672L661 435H524L462 263H588L577 205H441L365 0H298L374 205ZM395 263L457
435H324L262 263H395Z" />
<glyph unicode="$" glyph-name="dollar" horiz-adv-x="579" d="M198 0Q135 8 87 38T11 120L70 169Q117 84 214 70L266 332Q103 362 103 499Q103 539 118 574T162 637T236 681T340 700L356 780H416L399 695Q456 687 498 660T563 587L500 539Q485 569 456 592T383
625L336 388Q427 371 468 330T510 219Q510 174 494 135T445 67T366 20T258 -1L242 -82H182L198 0ZM429 211Q429 253 404 281T322 320L272 69Q311 72 340 84T389 115T419 159T429 211ZM184 506Q184 465 207 439T280 402L325 629Q260 625 222 593T184 506Z" />
<glyph unicode="%" glyph-name="percent" horiz-adv-x="900" d="M118 0L722 698H802L198 0H118ZM227 314Q167 314 135 351T102 457Q102 506 114 552T151 633T210 689T290 710Q349 710 382 673T415 567Q415 517 403 472T366 391T307 335T227 314ZM233 364Q271 364
295 395T331 480L345 548Q347 556 348 566T349 585Q349 621 333 640T284 660Q246 660 222 629T186 544L172 476Q170 468 169 458T168 439Q168 403 184 384T233 364ZM630 -12Q570 -12 538 25T505 131Q505 180 517 226T554 307T613 363T693 384Q752 384 785 347T818
241Q818 191 806 146T769 65T710 9T630 -12ZM636 38Q674 38 698 69T734 154L748 222Q750 230 751 240T752 259Q752 295 736 314T687 334Q649 334 625 303T589 218L575 150Q573 142 572 132T571 113Q571 77 587 58T636 38Z" />
<glyph unicode="&amp;" glyph-name="ampersand" horiz-adv-x="670" d="M433 85Q388 38 333 13T214 -12Q126 -12 82 33T37 151Q37 196 53 231T95 293T154 341T221 379Q202 405 188 438T173 512Q173 549 186 585T225 648T286 693T367 710Q395 710 421 702T468 678T501
637T514 579Q514 538 497 505T453 446T391 399T322 361L436 201Q458 239 473 281T499 368H632L618 300H549Q535 257 517 218T477 144L580 0H494L433 85ZM360 645Q317 645 288 617T250 546Q247 531 247 517Q247 492 255 467T287 410Q316 424 343 439T392 473T425
515T438 566Q438 604 416 624T360 645ZM229 56Q280 56 321 78T394 139L256 330Q230 317 207 304T165 274T135 239T117 194Q114 179 114 163Q114 112 143 84T229 56Z" />
<glyph unicode="&apos;" glyph-name="quotesingle" horiz-adv-x="233" d="M121 460L177 740H248L192 460H121Z" />
<glyph unicode="(" glyph-name="parenleft" horiz-adv-x="328" d="M76 198Q76 291 99 375T160 530T247 660T350 760H426Q378 721 336 674T261 576T204 473T170 369L153 284Q144 239 144 190Q144 98 170 13T245 -137H178Q135 -81 106 4T76 198Z" />
<glyph unicode=")" glyph-name="parenright" horiz-adv-x="328" d="M274 425Q274 332 251 248T190 93T103 -37T0 -137H-76Q-28 -98 14 -51T89 47T146 150T180 254L197 339Q206 384 206 433Q206 525 180 610T105 760H172Q215 704 244 619T274 425Z" />
<glyph unicode="*" glyph-name="asterisk" horiz-adv-x="452" d="M172 380L120 425L237 545L103 583L134 648L261 595L286 747H354L319 595L462 647L474 583L326 542L394 424L336 385L277 512L172 380Z" />
<glyph unicode="+" glyph-name="plus" horiz-adv-x="600" d="M225 62L267 272H78L91 338H281L323 548H396L354 338H541L528 272H340L298 62H225Z" />
<glyph unicode="," glyph-name="comma" horiz-adv-x="273" d="M102 117Q126 117 139 107T153 77Q153 70 152 62T149 46Q145 27 136 4T113 -44T78 -91T33 -133H-32Q5 -101 27 -71T66 -6Q33 2 33 31Q33 38 34 46T37 62Q41 82 54 99T102 117Z" />
<glyph unicode="-" glyph-name="hyphen" horiz-adv-x="387" d="M69 263L85 345H336L320 263H69Z" />
<glyph unicode="." glyph-name="period" horiz-adv-x="273" d="M86 -12Q62 -12 49 -2T35 28Q35 35 36 44T39 62Q43 82 56 99T104 117Q128 117 141 107T155 77Q155 70 154 61T151 43Q149 33 145 23T134 6T115 -7T86 -12Z" />
<glyph unicode="/" glyph-name="slash" horiz-adv-x="378" d="M-68 -151L361 740H432L3 -151H-68Z" />
<glyph unicode="0" glyph-name="zero" horiz-adv-x="600" d="M255 -12Q208 -12 173 5T114 54T80 130T68 228Q68 281 76 338T100 448T142 549T201 632T278 689T374 710Q421 710 456 693T514 644T549 568T561 470Q561 417 553 360T529 250T487 149T428 66T351 9T255
-12ZM265 59Q301 59 331 76T384 123T423 195T450 289L471 394Q476 417 478 440T480 484Q480 556 451 597T364 639Q328 639 298 622T245 575T206 503T179 409L158 304Q153 281 151 258T149 214Q149 142 178 101T265 59Z" />
<glyph unicode="1" glyph-name="one" horiz-adv-x="600" d="M42 0L56 72H256L369 636H361L154 472L113 525L330 698H462L337 72H523L509 0H42Z" />
<glyph unicode="2" glyph-name="two" horiz-adv-x="600" d="M470 0H34L52 90L310 298Q375 350 409 399T452 487Q454 495 456 509T458 535Q458 550 454 568T437 601T405 627T355 637Q297 637 261 606T200 515L128 546Q163 621 218 665T363 710Q406 710 440 697T498
660T535 604T548 536Q548 492 534 454T495 380T433 310T352 241L136 72H485L470 0Z" />
<glyph unicode="3" glyph-name="three" horiz-adv-x="600" d="M302 401Q360 401 396 428T446 521Q449 536 449 547Q449 592 423 614T347 637Q297 637 261 617T195 550L139 599Q173 647 225 678T357 710Q397 710 430 699T487 667T524 617T538 554Q538 516 526 485T492
430T441 391T380 368L379 363Q429 355 462 318T495 219Q495 169 478 127T429 53T350 5T247 -12Q204 -12 170 -2T110 25T65 65T37 111L103 156Q112 135 124 118T153 88T195 68T254 61Q325 61 359 94T407 191Q409 199 410 209T412 228Q412 273 382 301T290 330H216L231
401H302Z" />
<glyph unicode="4" glyph-name="four" horiz-adv-x="600" d="M320 0L348 137H32L47 216L422 698H539L441 205H536L523 137H427L399 0H320ZM120 205H362L443 612H439L120 205Z" />
<glyph unicode="5" glyph-name="five" horiz-adv-x="600" d="M557 626H265L197 351H204Q230 395 262 415T349 436Q386 436 417 424T472 388T509 332T522 257Q522 200 504 151T453 66T371 9T263 -12Q220 -12 186 -2T127 25T84 65T56 111L122 156Q131 135 143 118T172
88T214 68T273 61Q402 61 432 208Q434 219 436 230T438 256Q438 306 411 335T322 365Q279 365 246 346T185 296L117 307L213 698H572L557 626Z" />
<glyph unicode="6" glyph-name="six" horiz-adv-x="600" d="M268 -12Q172 -12 121 43T70 202Q70 276 97 349T170 489T275 609T398 698H512Q449 659 394 617T295 529T220 435T174 337L178 335Q210 389 248 411T335 434Q376 434 409 421T467 384T504 324T518 245Q518
189 500 142T448 61T368 8T268 -12ZM271 60Q337 60 377 99T431 202Q433 210 434 219T435 238Q435 298 403 330T312 363Q246 363 206 324T152 221Q150 213 149 204T148 185Q148 125 180 93T271 60Z" />
<glyph unicode="7" glyph-name="seven" horiz-adv-x="600" d="M128 0L507 627H226L199 493H125L166 698H603L587 619L214 0H128Z" />
<glyph unicode="8" glyph-name="eight" horiz-adv-x="600" d="M264 -12Q214 -12 175 1T109 39T68 96T54 170Q54 204 65 237T99 297T153 342T229 366L231 374Q184 391 162 424T140 505Q140 549 157 586T204 651T278 694T372 710Q460 710 509 667T559 551Q559 522
550 493T521 439T475 396T411 368L409 360Q460 349 488 311T517 222Q517 169 500 126T451 53T371 5T264 -12ZM269 59Q334 59 376 91T430 184Q432 195 433 204T435 226Q435 274 401 303T303 332Q238 332 196 299T142 206Q140 195 139 186T137 164Q137 116 171 88T269
59ZM332 400Q389 400 425 429T473 512Q476 527 476 542Q476 587 446 613T362 639Q305 639 269 610T221 527Q218 512 218 497Q218 452 248 426T332 400Z" />
<glyph unicode="9" glyph-name="nine" horiz-adv-x="600" d="M565 496Q565 422 538 349T465 209T360 89T237 0H123Q186 39 241 81T340 169T415 263T461 361L457 363Q425 309 387 287T300 264Q259 264 226 277T168 314T131 374T117 453Q117 508 135 555T187 637T267
690T367 710Q463 710 514 655T565 496ZM323 335Q389 335 429 374T483 477Q485 485 486 494T487 513Q487 572 455 605T364 638Q298 638 258 599T204 496Q202 488 201 479T200 460Q200 401 232 368T323 335Z" />
<glyph unicode=":" glyph-name="colon" horiz-adv-x="293" d="M96 -12Q72 -12 59 -2T45 28Q45 35 46 44T49 62Q53 82 66 99T114 117Q138 117 151 107T165 77Q165 70 164 61T161 43Q159 33 155 23T144 6T125 -7T96 -12ZM179 399Q155 399 142 409T128 439Q128 446
129 455T132 473Q136 493 149 510T197 528Q221 528 234 518T248 488Q248 481 247 472T244 454Q242 444 238 434T227 417T208 404T179 399Z" />
<glyph unicode=";" glyph-name="semicolon" horiz-adv-x="293" d="M112 117Q136 117 149 107T163 77Q163 70 162 62T159 46Q155 27 146 4T123 -44T88 -91T43 -133H-22Q15 -101 37 -71T76 -6Q43 2 43 31Q43 38 44 46T47 62Q51 82 64 99T112 117ZM179 399Q155 399
142 409T128 439Q128 446 129 455T132 473Q136 493 149 510T197 528Q221 528 234 518T248 488Q248 481 247 472T244 454Q242 444 238 434T227 417T208 404T179 399Z" />
<glyph unicode="&lt;" glyph-name="less" horiz-adv-x="600" d="M94 242L109 318L565 567L548 480L175 281L173 273L466 68L450 -12L94 242Z" />
<glyph unicode="=" glyph-name="equal" horiz-adv-x="600" d="M98 374L111 440H561L548 374H98ZM58 172L71 238H521L508 172H58Z" />
<glyph unicode="&gt;" glyph-name="greater" horiz-adv-x="600" d="M62 75L435 279L437 287L144 486L160 566L516 318L501 242L45 -12L62 75Z" />
<glyph unicode="?" glyph-name="question" horiz-adv-x="470" d="M169 208L202 373Q242 374 276 385T336 413T378 455T400 506Q402 513 402 524T403 544Q403 587 377 612T300 638Q242 638 208 606T152 519L85 546Q116 620 168 665T307 710Q389 710 438 668T487
549Q487 508 472 470T428 401T358 347T266 316L244 208H169ZM170 -12Q146 -12 133 -2T119 28Q119 35 120 44T123 62Q127 82 140 99T188 117Q212 117 225 107T239 77Q239 70 238 61T235 43Q233 33 229 23T218 6T199 -7T170 -12Z" />
<glyph unicode="@" glyph-name="at" horiz-adv-x="863" d="M360 -121Q217 -121 141 -38T65 194Q65 214 67 242T76 305Q93 392 132 466T228 593T357 677T515 708Q585 708 641 687T736 627T797 533T818 408Q818 395 817 373T809 320Q799 269 783 224T741 144T682
89T603 69Q514 69 514 159V171H510Q493 128 457 99T373 69Q347 69 324 79T282 108T254 158T243 227Q243 241 245 259T252 303Q272 400 321 454T444 509Q533 509 554 420H558L574 499H643L583 199Q581 191 579 181T577 161Q577 146 585 137T613 128Q660 128 692
177T741 305L751 355Q754 370 754 385T755 414Q755 466 739 509T692 584T615 632T511 649Q443 649 383 626T276 560T195 457T147 322L135 263Q131 244 130 226T129 195Q129 75 187 7T363 -61H593L581 -121H360ZM398 133Q422 133 443 142T480 167T507 203T523 246L546
360Q549 375 544 390T527 417T497 437T456 445Q408 445 377 416T336 340L317 245Q314 230 314 217Q314 178 336 156T398 133Z" />
<glyph unicode="A" glyph-name="A" horiz-adv-x="623" d="M464 0L438 206H167L59 0H-27L346 698H453L547 0H464ZM387 621H382L204 278H430L387 621Z" />
<glyph unicode="B" glyph-name="B" horiz-adv-x="627" d="M179 698H436Q517 698 560 658T603 549Q603 517 594 488T566 434T522 393T461 367L460 362Q508 351 534 322T561 238Q561 189 544 146T496 71T424 19T333 0H39L179 698ZM332 72Q384 72 420 99T467 184Q472
210 474 222T476 242Q476 281 450 302T374 324H184L134 72H332ZM367 394Q423 394 459 417T507 494Q512 517 513 529T514 549Q514 585 492 605T425 626H244L198 394H367Z" />
<glyph unicode="C" glyph-name="C" horiz-adv-x="602" d="M290 -12Q239 -12 196 6T122 59T73 146T55 266Q55 357 79 437T147 578T253 674T391 710Q476 710 532 671T615 551L542 518Q523 577 486 607T383 637Q343 637 308 622T244 580T195 514T165 427L142 312Q138
293 137 277T136 246Q136 205 147 171T178 113T227 75T295 61Q331 61 359 70T410 95T451 136T487 191L555 157Q509 70 446 29T290 -12Z" />
<glyph unicode="D" glyph-name="D" horiz-adv-x="652" d="M179 698H384Q496 698 559 630T623 427Q623 346 600 269T533 133T423 37T275 0H39L179 698ZM277 72Q367 72 429 127T512 289L533 394Q539 424 539 455Q539 539 496 582T380 626H245L135 72H277Z" />
<glyph unicode="E" glyph-name="E" horiz-adv-x="565" d="M39 0L179 698H590L575 626H246L199 390H495L481 318H184L135 72H481L467 0H39Z" />
<glyph unicode="F" glyph-name="F" horiz-adv-x="542" d="M39 0L179 698H579L564 626H246L199 390H491L477 318H184L120 0H39Z" />
<glyph unicode="G" glyph-name="G" horiz-adv-x="661" d="M483 102H479Q468 79 450 58T407 22T350 -3T280 -12Q230 -12 189 6T118 59T72 146T55 266Q55 354 78 434T145 575T255 673T404 710Q495 710 556 668T640 551L567 518Q547 575 506 606T394 637Q305 637
245 579T163 417L142 313Q136 283 136 253Q136 162 179 112T304 61Q340 61 372 72T432 104T478 157T506 231L517 286H368L384 360H611L539 0H462L483 102Z" />
<glyph unicode="H" glyph-name="H" horiz-adv-x="684" d="M523 318H184L120 0H39L179 698H260L199 390H538L600 698H681L541 0H460L523 318Z" />
<glyph unicode="I" glyph-name="I" horiz-adv-x="387" d="M9 0L23 69H116L227 629H134L148 698H415L401 629H308L197 69H290L276 0H9Z" />
<glyph unicode="J" glyph-name="J" horiz-adv-x="498" d="M495 698L392 186Q373 92 317 40T171 -12Q99 -12 52 30T3 153L77 168Q79 122 103 92T175 61Q233 61 266 95T313 198L399 626H165L179 698H495Z" />
<glyph unicode="K" glyph-name="K" horiz-adv-x="615" d="M290 343L165 226L120 0H39L179 698H260L189 342H194L313 457L562 698H665L352 395L549 0H461L290 343Z" />
<glyph unicode="L" glyph-name="L" horiz-adv-x="489" d="M39 0L179 698H260L135 72H422L408 0H39Z" />
<glyph unicode="M" glyph-name="M" horiz-adv-x="784" d="M680 586H675L594 469L377 166L278 469L241 585H236L119 0H39L179 698H284L402 319H405L668 698H781L641 0H561L680 586Z" />
<glyph unicode="N" glyph-name="N" horiz-adv-x="684" d="M295 420L240 587H235L118 0H39L179 698H273L425 278L480 111H485L602 698H681L541 0H447L295 420Z" />
<glyph unicode="O" glyph-name="O" horiz-adv-x="679" d="M298 -12Q246 -12 202 5T125 57T74 143T55 260Q55 347 79 428T149 571T260 672T409 710Q461 710 505 692T582 640T633 555T652 438Q652 351 628 270T558 127T447 26T298 -12ZM306 61Q399 61 461 122T545
293L565 393Q569 412 570 429T572 462Q572 542 527 589T401 637Q308 637 246 576T162 405L142 305Q138 286 137 269T135 236Q135 156 180 109T306 61Z" />
<glyph unicode="P" glyph-name="P" horiz-adv-x="588" d="M39 0L179 698H428Q474 698 507 686T561 651T591 598T601 531Q601 482 585 440T538 366T465 316T367 298H180L120 0H39ZM195 370H379Q429 370 462 395T505 471Q512 505 514 519T517 545Q517 582 496 604T422
626H245L195 370Z" />
<glyph unicode="Q" glyph-name="Q" horiz-adv-x="679" d="M397 -166H309Q268 -166 251 -149T234 -104Q234 -92 237 -78L252 -8Q208 -1 172 20T110 74T70 154T55 260Q55 347 79 428T149 571T260 672T409 710Q461 710 505 692T582 640T633 555T652 438Q652 355 630
278T567 139T465 37T329 -10L311 -92H413L397 -166ZM306 61Q399 61 461 122T545 293L565 393Q569 412 570 429T572 462Q572 541 527 589T401 637Q308 637 246 576T162 405L142 305Q138 286 137 269T135 236Q135 157 180 109T306 61Z" />
<glyph unicode="R" glyph-name="R" horiz-adv-x="625" d="M120 0H39L179 698H428Q474 698 507 686T561 651T591 598T601 531Q601 491 588 454T552 388T494 337T418 308L520 0H433L338 300H180L120 0ZM379 371Q429 371 462 396T505 471Q512 505 514 519T517 545Q517
581 496 603T422 626H245L195 371H379Z" />
<glyph unicode="S" glyph-name="S" horiz-adv-x="577" d="M249 -12Q172 -12 108 18T11 113L73 158Q104 105 149 83T251 61Q295 61 329 72T385 104T419 152T431 210Q431 255 406 282T325 320L258 333Q184 347 145 391T105 504Q105 546 121 583T167 649T243 693T346
710Q427 710 481 680T571 602L512 553Q483 592 442 614T341 637Q270 637 228 604T186 510Q186 422 292 401L359 388Q433 374 472 330T512 214Q512 167 495 126T444 54T361 6T249 -12Z" />
<glyph unicode="T" glyph-name="T" horiz-adv-x="557" d="M392 626L267 0H186L311 626H98L112 698H619L605 626H392Z" />
<glyph unicode="U" glyph-name="U" horiz-adv-x="656" d="M255 698L169 269Q164 246 163 230T161 197Q161 133 195 97T289 61Q331 61 363 73T421 111T463 180T493 284L576 698H657L573 278Q557 198 533 143T473 53T390 3T280 -12Q186 -12 134 40T82 189Q82 212
84 238T93 294L174 698H255Z" />
<glyph unicode="V" glyph-name="V" horiz-adv-x="593" d="M194 0L111 698H192L230 348L257 84H260L393 348L575 698H661L295 0H194Z" />
<glyph unicode="W" glyph-name="W" horiz-adv-x="862" d="M132 0L103 698H184L193 344L199 101H203L340 416L466 698H562L577 403L591 102H595L701 349L851 698H935L622 0H529L511 367L501 606H496L387 362L226 0H132Z" />
<glyph unicode="X" glyph-name="X" horiz-adv-x="596" d="M508 0H423L303 286H299L69 0H-25L263 358L120 698H205L324 411H328L559 698H653L360 343L508 0Z" />
<glyph unicode="Y" glyph-name="Y" horiz-adv-x="577" d="M196 0L251 273L105 698H187L303 357H308L558 698H651L332 273L277 0H196Z" />
<glyph unicode="Z" glyph-name="Z" horiz-adv-x="563" d="M472 0H-15L1 78L493 626H119L134 698H603L587 620L95 72H487L472 0Z" />
<glyph unicode="[" glyph-name="bracketleft" horiz-adv-x="317" d="M12 -138L192 760H351L338 699H249L93 -77H182L170 -138H12Z" />
<glyph unicode="\" glyph-name="backslash" horiz-adv-x="378" d="M213 -151L142 740H209L280 -151H213Z" />
<glyph unicode="]" glyph-name="bracketright" horiz-adv-x="316" d="M327 760L147 -138H-12L1 -77H90L246 699H157L169 760H327Z" />
<glyph unicode="^" glyph-name="asciicircum" horiz-adv-x="600" d="M493 296L378 621H374L130 296L74 331L344 698H429L555 325L493 296Z" />
<glyph unicode="_" glyph-name="underscore" horiz-adv-x="548" d="M-53 -163L-39 -97H447L433 -163H-53Z" />
<glyph unicode="`" glyph-name="grave" horiz-adv-x="593" d="M205 744L273 776L334 606L289 585L205 744Z" />
<glyph unicode="a" glyph-name="a" horiz-adv-x="583" d="M437 0Q403 0 387 17T370 62Q370 74 373 89L378 112H375Q343 47 304 18T208 -12Q137 -12 94 40T51 185Q51 242 66 302T113 413T191 496T303 528Q326 528 348 522T388 504T419 474T438 432H442L459 516H536L446
68H519L506 0H437ZM228 58Q262 58 288 71T337 109Q363 135 378 165T402 233L423 338Q428 362 424 383T406 421T368 448T310 458Q247 458 206 417T150 301L135 226Q130 198 130 175Q130 122 155 90T228 58Z" />
<glyph unicode="b" glyph-name="b" horiz-adv-x="572" d="M185 740H262L194 404H197Q229 469 268 498T364 528Q435 528 478 476T521 331Q521 274 506 214T459 103T381 20T269 -12Q246 -12 224 -6T184 12T153 42T134 84H130L113 0H36L185 740ZM262 58Q325 58 366
99T422 215L437 290Q442 318 442 341Q442 392 419 425T343 458Q309 458 284 444T235 407Q210 382 194 352T170 283L149 178Q144 154 148 132T166 94T203 68T262 58Z" />
<glyph unicode="c" glyph-name="c" horiz-adv-x="488" d="M236 -12Q192 -12 158 3T99 46T62 112T49 199Q49 266 66 326T117 431T196 502T302 528Q371 528 414 494T473 407L409 378Q383 459 300 459Q238 459 200 420T147 312L130 228Q128 217 127 205T126 183Q126
127 155 92T244 57Q282 57 313 78T376 158L437 128Q405 61 354 25T236 -12Z" />
<glyph unicode="d" glyph-name="d" horiz-adv-x="583" d="M437 0Q403 0 387 17T370 62Q370 74 373 89L378 112H375Q343 47 304 18T208 -12Q137 -12 94 40T51 185Q51 242 66 302T113 413T191 496T303 528Q326 528 348 522T388 504T419 474T438 432H442L504 740H581L446
68H519L506 0H437ZM229 58Q263 58 288 72T337 109Q362 134 378 164T402 233L423 338Q428 362 424 383T406 421T368 448T310 458Q247 458 206 417T150 301L135 226Q130 198 130 175Q130 124 153 91T229 58Z" />
<glyph unicode="e" glyph-name="e" horiz-adv-x="511" d="M244 -12Q151 -12 100 43T49 204Q49 268 68 326T123 430T208 501T319 528Q352 528 382 520T435 494T471 451T485 390Q485 305 398 264T129 221Q127 210 127 199T126 179Q126 124 157 91T249 57Q298 57
337 79T407 139L457 94Q409 35 355 12T244 -12ZM311 462Q281 462 254 451T205 421T168 373T145 310L139 281Q222 284 274 291T355 312T395 345T406 391Q406 412 398 425T377 447T347 458T311 462Z" />
<glyph unicode="f" glyph-name="f" horiz-adv-x="307" d="M118 -86Q107 -139 80 -169T-8 -200H-75L-62 -132H31L149 448H64L77 516H162L184 626Q195 679 222 709T310 740H389L376 672H271L239 516H340L327 448H226L118 -86Z" />
<glyph unicode="g" glyph-name="g" horiz-adv-x="508" d="M462 -37Q462 -71 449 -102T405 -158T323 -197T193 -212Q-15 -212 -15 -98Q-15 -58 10 -29T87 16L89 24Q47 43 47 87Q47 124 72 149T151 185L152 192Q82 229 82 322Q82 366 98 404T143 469T212 512T300
528Q357 528 396 506L398 518Q403 549 420 567T469 586H542L529 517H440L432 476Q464 436 464 377Q464 333 448 296T402 232T331 189T241 173Q230 173 222 173T202 176Q166 169 143 156T120 116Q120 79 188 79H303Q389 79 425 49T462 -37ZM382 -53Q382 -26 365
-10T299 6H122Q62 -20 62 -75Q62 -91 67 -104T85 -128T118 -143T170 -149H217Q304 -149 343 -123T382 -53ZM253 234Q308 234 337 260T376 331Q381 358 383 368T385 387Q385 423 362 444T291 466Q236 466 207 440T168 368Q163 341 161 331T159 312Q159 276 182 255T253
234Z" />
<glyph unicode="h" glyph-name="h" horiz-adv-x="565" d="M185 740H262L196 414H201Q228 472 265 500T359 528Q426 528 459 490T492 385Q492 371 491 354T485 318L435 68H508L495 0H422Q393 0 376 14T358 58Q358 63 358 67T360 79L408 318Q411 333 412 347T413
371Q413 415 395 436T334 458Q280 458 239 417Q213 391 195 355T171 288L113 0H36L185 740Z" />
<glyph unicode="i" glyph-name="i" horiz-adv-x="264" d="M206 637Q183 637 174 647T164 672Q164 675 164 680T168 700Q172 719 184 729T222 740Q245 740 254 730T264 705Q264 702 264 697T260 677Q256 658 244 648T206 637ZM121 0Q86 0 69 17T51 63Q51 72 54
87L140 516H217L127 68H200L187 0H121Z" />
<glyph unicode="j" glyph-name="j" horiz-adv-x="253" d="M140 516H217L94 -98Q83 -151 58 -175T-20 -200H-87L-73 -132H10L140 516ZM206 637Q183 637 174 647T164 672Q164 675 164 680T168 700Q172 719 184 729T222 740Q245 740 254 730T264 705Q264 702 264
697T260 677Q256 658 244 648T206 637Z" />
<glyph unicode="k" glyph-name="k" horiz-adv-x="519" d="M185 740H262L168 275H173L265 363L439 516H532L302 308L407 68H473L460 0H416Q381 0 363 12T331 54L240 263L149 181L113 0H36L185 740Z" />
<glyph unicode="l" glyph-name="l" horiz-adv-x="264" d="M121 0Q86 0 69 17T51 63Q51 72 54 87L185 740H262L127 68H205L192 0H121Z" />
<glyph unicode="m" glyph-name="m" horiz-adv-x="848" d="M36 0L140 516H217L196 414H201Q228 472 264 500T358 528Q412 528 442 498T478 414H484Q510 472 549 500T645 528Q710 528 742 491T775 386Q775 354 768 319L718 68H791L778 0H706Q676 0 658 14T640 57Q640
65 643 80L691 319Q697 349 697 374Q697 416 679 437T618 458Q571 458 531 417Q506 392 490 356T467 288L409 0H332L396 318Q402 348 402 376Q402 458 330 458Q304 458 281 447T241 418Q213 390 195 354T171 288L113 0H36Z" />
<glyph unicode="n" glyph-name="n" horiz-adv-x="565" d="M36 0L140 516H217L196 414H201Q228 472 265 500T359 528Q426 528 459 490T492 385Q492 371 491 354T485 318L435 68H508L495 0H422Q393 0 376 14T358 58Q358 63 358 67T360 79L408 318Q411 333 412 347T413
371Q413 415 395 436T334 458Q280 458 239 417Q213 391 195 355T171 288L113 0H36Z" />
<glyph unicode="o" glyph-name="o" horiz-adv-x="550" d="M235 -12Q194 -12 160 1T102 41T63 107T49 200Q49 265 68 324T123 429T207 501T315 528Q355 528 389 515T448 475T487 408T501 316Q501 251 482 192T427 87T343 15T235 -12ZM245 57Q301 57 345 98T405
218L420 293Q425 318 425 338Q425 392 395 425T305 459Q249 459 205 418T145 298L130 223Q125 198 125 178Q125 124 155 91T245 57Z" />
<glyph unicode="p" glyph-name="p" horiz-adv-x="572" d="M140 516H217L194 404H197Q229 469 268 498T364 528Q435 528 478 476T521 331Q521 274 506 214T459 103T381 20T269 -12Q246 -12 224 -6T184 12T153 42T134 84H130L73 -200H-4L140 516ZM262 58Q325 58
366 99T422 215L437 290Q442 318 442 341Q442 392 419 425T343 458Q309 458 284 444T235 407Q210 382 194 352T170 283L149 178Q144 154 148 132T166 94T203 68T262 58Z" />
<glyph unicode="q" glyph-name="q" horiz-adv-x="572" d="M378 112H375Q343 47 304 18T208 -12Q137 -12 94 40T51 185Q51 242 66 302T113 413T191 496T303 528Q326 528 348 522T388 504T419 474T438 432H442L459 516H536L392 -200H315L378 112ZM229 58Q263 58
288 72T337 109Q362 134 378 164T402 233L423 338Q428 362 424 383T406 421T368 448T310 458Q247 458 206 417T150 301L135 226Q130 198 130 175Q130 124 153 91T229 58Z" />
<glyph unicode="r" glyph-name="r" horiz-adv-x="364" d="M36 0L140 516H217L195 413H200Q210 432 224 450T256 483T299 507T355 516H387L372 437H336Q300 437 273 427T225 398T193 357T175 307L113 0H36Z" />
<glyph unicode="s" glyph-name="s" horiz-adv-x="471" d="M209 -12Q149 -12 97 12T14 82L67 129Q94 93 129 74T209 55Q260 55 293 79T326 152Q326 178 311 196T250 224L211 232Q182 238 157 247T113 272T84 310T73 365Q73 397 84 426T120 478T180 514T264 528Q321
528 362 509T432 452L379 405Q362 429 333 445T258 461Q201 461 175 436T148 372Q148 345 163 328T223 301L262 293Q293 287 318 277T362 251T390 212T400 157Q400 118 386 87T346 34T285 0T209 -12Z" />
<glyph unicode="t" glyph-name="t" horiz-adv-x="320" d="M136 0Q101 0 84 17T66 63Q66 72 69 87L142 448H66L79 516H118Q146 516 155 527T170 565L189 659H260L232 516H341L328 448H219L142 68H243L230 0H136Z" />
<glyph unicode="u" glyph-name="u" horiz-adv-x="562" d="M211 516L147 198Q144 183 143 169T142 145Q142 102 159 80T219 58Q272 58 312 99Q340 128 357 163T380 228L438 516H515L425 68H498L485 0H415Q382 0 366 17T349 63Q349 73 353 92L355 102H350Q323 43
286 16T195 -12Q129 -12 96 26T63 131Q63 145 64 162T70 198L134 516H211Z" />
<glyph unicode="v" glyph-name="v" horiz-adv-x="484" d="M146 0L67 516H142L180 261L201 73H206L299 261L437 516H519L237 0H146Z" />
<glyph unicode="w" glyph-name="w" horiz-adv-x="740" d="M77 516H151L160 265L166 74H171L250 243L378 516H453L475 256L487 78H492L568 252L685 516H760L525 0H432L407 279L400 411H395L336 279L203 0H105L77 516Z" />
<glyph unicode="x" glyph-name="x" horiz-adv-x="494" d="M-28 0L206 267L80 516H164L257 318H262L430 516H518L294 260L430 0H346L243 210H238L60 0H-28Z" />
<glyph unicode="y" glyph-name="y" horiz-adv-x="484" d="M438 516H520L171 -117Q146 -162 123 -181T60 -200H-20L-7 -134H86L150 -16L68 516H143L181 261L202 73H207L300 261L438 516Z" />
<glyph unicode="z" glyph-name="z" horiz-adv-x="448" d="M-5 0L8 66L351 448H85L98 516H457L444 450L101 68H381L368 0H-5Z" />
<glyph unicode="{" glyph-name="braceleft" horiz-adv-x="329" d="M115 -138Q82 -138 66 -121T49 -76Q49 -71 49 -65T52 -47L98 181Q101 196 101 207Q101 240 81 256T27 272L43 350Q93 350 117 375T150 441L197 676Q214 760 283 760H371L360 697H270L220 446Q215
423 208 401T187 361T153 331T102 316L99 300Q134 293 152 270T171 211Q171 203 170 194T166 177L116 -75H207L193 -138H115Z" />
<glyph unicode="|" glyph-name="bar" horiz-adv-x="306" d="M41 -138L222 760H288L107 -138H41Z" />
<glyph unicode="}" glyph-name="braceright" horiz-adv-x="329" d="M-10 -75H80L130 176Q134 198 142 220T163 259T197 289T248 304L251 320Q216 327 198 351T179 411Q179 419 180 428T184 445L234 697H143L157 760H235Q268 760 284 743T301 698Q301 693 301 687T298
669L252 441Q249 426 249 415Q249 382 269 366T323 350L307 272Q257 272 233 247T200 181L153 -54Q136 -138 67 -138H-21L-10 -75Z" />
<glyph unicode="~" glyph-name="asciitilde" horiz-adv-x="600" d="M410 236Q376 236 351 246T295 274Q271 288 248 298T194 308Q171 308 151 300T106 274L82 320Q106 344 135 359T209 374Q243 374 268 364T324 336Q348 322 371 312T425 302Q448 302 468 310T513
336L537 290Q513 266 484 251T410 236Z" />
<glyph unicode="&#xa0;" glyph-name="uni00A0" horiz-adv-x="236" />
<glyph unicode="&#xa1;" glyph-name="exclamdown" horiz-adv-x="271" d="M6 -181L47 22L131 331H169L130 22L89 -181H6ZM165 399Q141 399 128 409T114 439Q114 446 115 455T118 473Q122 493 135 510T183 528Q207 528 220 518T234 488Q234 481 233 472T230 454Q228
444 224 434T213 417T194 404T165 399Z" />
<glyph unicode="&#xa2;" glyph-name="cent" horiz-adv-x="505" d="M178 -4Q117 13 83 66T49 200Q49 263 65 320T111 422T185 494T284 526L305 630H373L351 522Q399 511 429 482T475 408L408 377Q398 409 381 428T335 455L256 55Q292 59 319 82T375 158L436 128Q404
62 357 27T243 -12L223 -114H155L178 -4ZM125 181Q125 139 141 108T192 63L271 456Q220 446 189 409T146 312L129 229Q127 218 126 205T125 181Z" />
<glyph unicode="&#xa3;" glyph-name="sterling" horiz-adv-x="577" d="M26 0L47 102Q81 116 101 139T131 189T145 241T148 288H61L75 356H144Q141 379 139 402T137 449Q137 506 155 553T207 636T288 690T393 710Q468 710 515 679T589 594L521 549Q501 590 470
614T387 638Q310 638 265 589T220 441Q220 420 221 398T225 356H434L420 288H228Q227 251 217 218T191 158T156 110T117 77L115 72H467L452 0H26Z" />
<glyph unicode="&#xa4;" glyph-name="currency" horiz-adv-x="612" d="M282 119Q240 119 209 130T154 164L38 69L-5 121L117 221Q105 252 105 293Q105 322 111 354Q119 393 133 427T168 487L83 593L137 637L219 536Q280 579 363 579Q405 579 435 568T489 534L605
629L648 577L526 477Q538 445 538 405Q538 375 532 344Q524 305 510 271T475 211L560 105L506 61L424 162Q363 119 282 119ZM289 186Q347 186 388 218T444 317L457 381Q459 391 460 401T461 419Q461 467 432 489T354 512Q296 512 255 480T199 381L186 317Q184 307
183 297T182 279Q182 231 211 209T289 186Z" />
<glyph unicode="&#xa5;" glyph-name="yen" horiz-adv-x="594" d="M315 145L285 0H205L235 145H67L80 211H247L267 308H100L112 374H242L127 698H212L316 386H320L551 698H645L396 374H530L518 308H347L327 211H498L485 145H315Z" />
<glyph unicode="&#xa6;" glyph-name="brokenbar" horiz-adv-x="306" d="M150 406L222 760H288L216 406H150ZM41 -138L113 216H179L107 -138H41Z" />
<glyph unicode="&#xa7;" glyph-name="section" horiz-adv-x="557" d="M404 24Q404 -17 388 -50T343 -107T277 -142T197 -155Q144 -155 100 -141T26 -96L80 -42Q101 -63 133 -75T204 -87Q228 -87 249 -80T288 -60T315 -28T325 15Q325 45 308 67T248 104L189 124Q123
147 95 178T67 254Q67 317 105 358T204 411L205 420Q177 442 165 470T153 531Q153 572 169 605T214 661T280 697T360 710Q413 710 457 696T531 651L477 597Q456 618 424 630T353 642Q329 642 308 635T269 615T242 583T232 540Q232 510 249 488T309 451L368 431Q434
408 462 377T490 301Q490 238 452 197T353 144L352 135Q380 113 392 85T404 24ZM410 273Q410 315 388 336T317 374L258 393Q249 396 238 401Q194 384 171 351T147 282Q147 240 169 219T240 181L299 162Q308 159 319 154Q363 171 386 204T410 273Z" />
<glyph unicode="&#xa8;" glyph-name="dieresis" horiz-adv-x="593" d="M217 618Q197 618 186 627T175 653Q175 657 175 661T178 674Q187 721 234 721Q254 721 265 712T276 686Q276 681 273 665Q264 618 217 618ZM399 618Q379 618 368 627T357 653Q357 657 357
661T360 674Q369 721 416 721Q436 721 447 712T458 686Q458 681 455 665Q446 618 399 618Z" />
<glyph unicode="&#xa9;" glyph-name="copyright" horiz-adv-x="784" d="M358 -12Q292 -12 239 10T147 72T88 168T67 292Q67 382 97 458T179 589T304 676T461 708Q527 708 580 686T672 624T731 527T752 404Q752 314 722 238T640 107T515 20T358 -12ZM362 46Q420
46 472 65T565 119T634 198T673 296Q679 328 683 356T688 404Q688 460 671 505T623 583T550 632T457 650Q399 650 347 631T254 577T185 498T146 400Q140 368 136 340T131 292Q131 236 148 191T196 113T269 64T362 46ZM380 155Q319 155 285 193T250 301Q250 351
264 395T302 472T362 524T439 543Q466 543 487 535T525 514T552 483T568 447L510 423Q503 452 484 467T436 483Q394 483 370 454T336 379L324 320Q321 305 321 292Q321 258 338 237T388 216Q440 216 487 282L535 244Q509 206 470 181T380 155Z" />
<glyph unicode="&#xaa;" glyph-name="ordfeminine" horiz-adv-x="390" d="M369 350H336Q309 350 298 360T286 390Q286 392 286 395T287 404H283Q268 381 239 363T167 344Q125 344 101 366T77 423Q77 484 119 515T241 546H311L316 570Q318 578 318 584T318 598Q318
653 256 653Q225 653 200 639T158 601L122 635Q143 662 179 683T264 704Q317 704 348 678T379 599Q379 580 375 560L344 405H380L369 350ZM231 502Q192 502 170 490T142 454Q138 434 138 430Q138 394 188 394Q207 394 224 399T256 413T281 434T294 461L302 502H231Z"
/>
<glyph unicode="&#xab;" glyph-name="guillemotleft" horiz-adv-x="499" d="M186 78L32 250L47 323L264 488L278 429L114 280L218 130L186 78ZM387 78L233 250L248 323L465 488L479 429L315 280L419 130L387 78Z" />
<glyph unicode="&#xac;" glyph-name="logicalnot" horiz-adv-x="600" d="M423 77L462 272H68L82 338H542L490 77H423Z" />
<glyph unicode="&#xad;" glyph-name="uni00AD" horiz-adv-x="387" d="M69 263L85 345H336L320 263H69Z" />
<glyph unicode="&#xae;" glyph-name="registered" horiz-adv-x="469" d="M263 298Q227 298 195 311T140 348T104 404T90 473Q90 524 106 567T150 642T219 692T306 710Q342 710 374 697T429 660T465 604T479 535Q479 484 463 441T419 366T350 316T263 298ZM267
337Q332 337 375 377T432 481Q434 492 435 509T437 532Q437 594 399 632T302 671Q237 671 194 631T137 527Q135 516 134 499T132 476Q132 414 170 376T267 337ZM232 400H193L235 609H317Q345 609 358 593T372 556Q372 530 358 510T320 485L350 400H309L283 481H248L232
400ZM298 511Q309 511 316 516T326 532Q329 547 330 552T331 560Q331 576 312 576H267L254 511H298Z" />
<glyph unicode="&#xaf;" glyph-name="overscore" horiz-adv-x="593" d="M188 705H460L446 639H174L188 705Z" />
<glyph unicode="&#xb0;" glyph-name="degree" horiz-adv-x="454" d="M263 366Q233 366 207 377T161 408T130 455T119 517Q119 558 132 593T170 655T228 695T303 710Q333 710 359 699T404 669T435 621T447 560Q447 518 434 483T396 421T337 381T263 366ZM272 430Q297
430 316 440T350 467T371 507T379 557Q379 594 356 620T294 646Q269 646 250 636T216 609T195 568T187 519Q187 482 210 456T272 430Z" />
<glyph unicode="&#xb1;" glyph-name="plusminus" horiz-adv-x="600" d="M244 153L284 353H94L107 419H297L337 619H410L370 419H557L544 353H357L317 153H244ZM24 0L37 66H487L474 0H24Z" />
<glyph unicode="&#xb2;" glyph-name="twosuperior" horiz-adv-x="339" d="M306 329H45L57 388L190 484Q208 497 223 508T250 530T270 555T281 585Q282 589 283 594T284 604Q284 627 268 640T225 653Q195 653 176 635T145 591L94 614Q111 651 143 677T231 704Q255
704 277 698T315 680T340 650T350 606Q350 576 337 553T305 510T263 475T220 445L124 378H316L306 329Z" />
<glyph unicode="&#xb3;" glyph-name="threesuperior" horiz-adv-x="339" d="M207 545Q229 545 243 550T265 562T278 580T284 599Q286 609 286 614Q286 630 273 642T233 655Q206 655 182 643T141 607L105 641Q127 669 158 686T238 704Q291 704 319 678T348 614Q348
574 322 550T260 518V516Q288 511 305 493T322 441Q322 416 312 395T282 357T236 332T176 323Q119 323 88 344T44 392L89 423Q100 400 120 386T177 372Q218 372 236 388T260 435Q261 440 261 446Q261 469 244 482T194 496H151L161 545H207Z" />
<glyph unicode="&#xb4;" glyph-name="acute" horiz-adv-x="593" d="M317 585L269 610L373 780L441 744L317 585Z" />
<glyph unicode="&#xb5;" glyph-name="mu" horiz-adv-x="568" d="M-4 -200L140 516H217L153 198Q150 183 149 169T148 145Q148 102 165 80T225 58Q278 58 318 99Q346 128 363 163T386 228L444 516H521L431 68H504L491 0H422Q388 0 372 17T355 63Q355 73 359 92L361
102H356Q329 43 297 16T218 -12Q166 -12 143 18T115 102H110L103 -52L73 -200H-4Z" />
<glyph unicode="&#xb6;" glyph-name="paragraph" horiz-adv-x="629" d="M247 301Q217 301 190 315T141 353T108 408T96 475Q96 524 114 565T164 636T237 681T326 698H637L625 632H561L404 -149H333L490 632H384L227 -149H156L247 301Z" />
<glyph unicode="&#xb7;" glyph-name="middot" horiz-adv-x="316" d="M149 240Q125 240 112 250T98 280Q98 287 99 296T102 314Q106 334 119 351T167 369Q191 369 204 359T218 329Q218 322 217 313T214 295Q212 285 208 275T197 258T178 245T149 240Z" />
<glyph unicode="&#xb8;" glyph-name="cedilla" horiz-adv-x="593" d="M279 -207Q241 -207 215 -196T178 -170L218 -129Q225 -139 240 -146T277 -154Q299 -154 311 -144T323 -118Q323 -102 312 -93T268 -79L242 -76L271 20H321L295 -62L297 -64Q302 -63 309 -62T328
-60Q353 -60 370 -72T387 -116Q387 -158 357 -182T279 -207Z" />
<glyph unicode="&#xb9;" glyph-name="onesuperior" horiz-adv-x="339" d="M64 329L74 378H179L234 651H228L132 577L102 614L211 698H303L239 378H334L324 329H64Z" />
<glyph unicode="&#xba;" glyph-name="ordmasculine" horiz-adv-x="389" d="M220 344Q162 344 128 381T93 476Q93 513 100 544Q107 577 121 606T157 657T208 691T275 704Q333 704 367 667T402 572Q402 535 395 504Q388 471 374 442T338 391T287 357T220 344ZM228
395Q267 395 291 423T325 493L337 551Q339 559 340 566T341 580Q341 613 322 633T267 653Q228 653 204 625T170 555L158 497Q156 489 155 482T154 468Q154 435 173 415T228 395Z" />
<glyph unicode="&#xbb;" glyph-name="guillemotright" horiz-adv-x="499" d="M226 137L390 286L286 436L318 488L472 316L457 243L240 78L226 137ZM25 137L189 286L85 436L117 488L271 316L256 243L39 78L25 137Z" />
<glyph unicode="&#xbc;" glyph-name="onequarter" horiz-adv-x="854" d="M64 329L74 378H179L234 651H228L132 577L102 614L211 698H303L239 378H334L324 329H64ZM119 0L728 698H801L192 0H119ZM645 0L660 73H478L488 125L702 369H777L727 119H778L769 73H718L703
0H645ZM705 300H702L543 119H669L705 300Z" />
<glyph unicode="&#xbd;" glyph-name="onehalf" horiz-adv-x="856" d="M64 329L74 378H179L234 651H228L132 577L102 614L211 698H303L239 378H334L324 329H64ZM119 0L728 698H801L192 0H119ZM765 0H504L516 59L649 155Q667 168 682 179T709 201T729 226T740 256Q741
260 742 265T743 275Q743 298 727 311T684 324Q654 324 635 306T604 262L553 285Q570 322 602 348T690 375Q714 375 736 369T774 351T799 321T809 277Q809 247 796 224T764 181T722 146T679 116L583 49H775L765 0Z" />
<glyph unicode="&#xbe;" glyph-name="threequarters" horiz-adv-x="834" d="M207 545Q229 545 243 550T265 562T278 580T284 599Q286 609 286 614Q286 630 273 642T233 655Q206 655 182 643T141 607L105 641Q127 669 158 686T238 704Q291 704 319 678T348 614Q348
574 322 550T260 518V516Q288 511 305 493T322 441Q322 416 312 395T282 357T236 332T176 323Q119 323 88 344T44 392L89 423Q100 400 120 386T177 372Q218 372 236 388T260 435Q261 440 261 446Q261 469 244 482T194 496H151L161 545H207ZM99 0L708 698H781L172
0H99ZM625 0L640 73H458L468 125L682 369H757L707 119H758L749 73H698L683 0H625ZM685 300H682L523 119H649L685 300Z" />
<glyph unicode="&#xbf;" glyph-name="questiondown" horiz-adv-x="470" d="M163 -194Q81 -194 32 -152T-17 -33Q-17 8 -2 46T42 115T112 169T204 200L226 308H301L268 143Q228 141 194 131T134 103T92 61T70 10Q68 3 68 -8T67 -28Q67 -71 93 -96T170 -122Q228
-122 262 -90T318 -3L385 -30Q370 -67 349 -97T301 -149T240 -182T163 -194ZM282 399Q258 399 245 409T231 439Q231 446 232 455T235 473Q239 493 252 510T300 528Q324 528 337 518T351 488Q351 481 350 472T347 454Q345 444 341 434T330 417T311 404T282 399Z"
/>
<glyph unicode="&#xc0;" glyph-name="Agrave" horiz-adv-x="623" d="M464 0L438 206H167L59 0H-27L346 698H453L547 0H464ZM387 621H382L204 278H430L387 621ZM319 916L387 948L449 776L403 755L319 916Z" />
<glyph unicode="&#xc1;" glyph-name="Aacute" horiz-adv-x="623" d="M464 0L438 206H167L59 0H-27L346 698H453L547 0H464ZM387 621H382L204 278H430L387 621ZM421 756L372 781L476 950L544 914L421 756Z" />
<glyph unicode="&#xc2;" glyph-name="Acircumflex" horiz-adv-x="623" d="M464 0L438 206H167L59 0H-27L346 698H453L547 0H464ZM387 621H382L204 278H430L387 621ZM486 935L568 792L525 762L432 877L293 761L253 793L392 935H486Z" />
<glyph unicode="&#xc3;" glyph-name="Atilde" horiz-adv-x="623" d="M464 0L438 206H167L59 0H-27L346 698H453L547 0H464ZM387 621H382L204 278H430L387 621ZM487 782Q461 782 444 791T412 808Q390 822 375 827T347 832Q331 832 318 825T287 805L260 843Q276
864 300 880T359 897Q385 897 402 888T434 871Q456 857 471 852T499 847Q515 847 528 854T559 874L586 836Q570 815 546 799T487 782Z" />
<glyph unicode="&#xc4;" glyph-name="Adieresis" horiz-adv-x="623" d="M464 0L438 206H167L59 0H-27L346 698H453L547 0H464ZM387 621H382L204 278H430L387 621ZM322 787Q302 787 291 796T280 822Q280 827 283 845Q292 892 339 892Q359 892 370 883T381 857Q381
852 378 834Q369 787 322 787ZM504 787Q484 787 473 796T462 822Q462 827 465 845Q474 892 521 892Q541 892 552 883T563 857Q563 852 560 834Q551 787 504 787Z" />
<glyph unicode="&#xc5;" glyph-name="Aring" horiz-adv-x="623" d="M464 0L438 206H167L59 0H-27L346 698H453L547 0H464ZM387 621H382L204 278H430L387 621ZM413 746Q368 746 341 774T313 846Q313 906 348 941T442 976Q487 976 514 948T542 876Q542 816 507 781T413
746ZM419 794Q471 794 482 850Q486 869 486 881Q486 928 436 928Q384 928 373 872Q369 853 369 841Q369 794 419 794Z" />
<glyph unicode="&#xc6;" glyph-name="AE" horiz-adv-x="886" d="M401 205H189L50 0H-42L440 698H911L896 626H567L520 390H816L802 318H505L456 72H802L788 0H360L401 205ZM477 631L239 276H416L487 631H477Z" />
<glyph unicode="&#xc7;" glyph-name="Ccedilla" horiz-adv-x="602" d="M383 637Q343 637 308 622T244 580T195 514T165 427L142 312Q138 293 137 277T136 246Q136 205 147 171T178 113T227 75T295 61Q331 61 359 70T410 95T451 136T487 191L555 157Q511 73 451
32T302 -12L286 -62L288 -64Q293 -63 300 -62T319 -60Q344 -60 361 -72T378 -116Q378 -158 348 -182T270 -207Q232 -207 206 -196T169 -170L209 -129Q216 -139 231 -146T268 -154Q290 -154 302 -144T314 -118Q314 -102 303 -93T259 -79L233 -76L253 -10Q209 -3
173 18T110 73T70 156T55 266Q55 357 79 437T147 578T253 674T391 710Q476 710 532 671T615 551L542 518Q523 577 486 607T383 637Z" />
<glyph unicode="&#xc8;" glyph-name="Egrave" horiz-adv-x="565" d="M39 0L179 698H590L575 626H246L199 390H495L481 318H184L135 72H481L467 0H39ZM300 916L368 948L430 776L384 755L300 916Z" />
<glyph unicode="&#xc9;" glyph-name="Eacute" horiz-adv-x="565" d="M39 0L179 698H590L575 626H246L199 390H495L481 318H184L135 72H481L467 0H39ZM402 756L353 781L457 950L525 914L402 756Z" />
<glyph unicode="&#xca;" glyph-name="Ecircumflex" horiz-adv-x="565" d="M39 0L179 698H590L575 626H246L199 390H495L481 318H184L135 72H481L467 0H39ZM467 935L549 792L506 762L413 877L274 761L234 793L373 935H467Z" />
<glyph unicode="&#xcb;" glyph-name="Edieresis" horiz-adv-x="565" d="M39 0L179 698H590L575 626H246L199 390H495L481 318H184L135 72H481L467 0H39ZM303 787Q283 787 272 796T261 822Q261 827 264 845Q273 892 320 892Q340 892 351 883T362 857Q362 852 359
834Q350 787 303 787ZM485 787Q465 787 454 796T443 822Q443 827 446 845Q455 892 502 892Q522 892 533 883T544 857Q544 852 541 834Q532 787 485 787Z" />
<glyph unicode="&#xcc;" glyph-name="Igrave" horiz-adv-x="387" d="M9 0L23 69H116L227 629H134L148 698H415L401 629H308L197 69H290L276 0H9ZM457 916L525 948L587 776L541 755L457 916Z" />
<glyph unicode="&#xcd;" glyph-name="Iacute" horiz-adv-x="387" d="M9 0L23 69H116L227 629H134L148 698H415L401 629H308L197 69H290L276 0H9ZM559 756L510 781L614 950L682 914L559 756Z" />
<glyph unicode="&#xce;" glyph-name="Icircumflex" horiz-adv-x="387" d="M9 0L23 69H116L227 629H134L148 698H415L401 629H308L197 69H290L276 0H9ZM624 935L706 792L663 762L570 877L431 761L391 793L530 935H624Z" />
<glyph unicode="&#xcf;" glyph-name="Idieresis" horiz-adv-x="387" d="M9 0L23 69H116L227 629H134L148 698H415L401 629H308L197 69H290L276 0H9ZM460 787Q440 787 429 796T418 822Q418 827 421 845Q430 892 477 892Q497 892 508 883T519 857Q519 852 516 834Q507
787 460 787ZM642 787Q622 787 611 796T600 822Q600 827 603 845Q612 892 659 892Q679 892 690 883T701 857Q701 852 698 834Q689 787 642 787Z" />
<glyph unicode="&#xd0;" glyph-name="Eth" horiz-adv-x="655" d="M110 338H36L49 400H123L182 698H387Q499 698 562 630T626 427Q626 346 603 269T536 133T426 37T278 0H42L110 338ZM280 72Q370 72 432 128T515 289L536 394Q542 424 542 455Q542 538 499 582T383
626H248L203 400H336L323 338H191L138 72H280Z" />
<glyph unicode="&#xd1;" glyph-name="Ntilde" horiz-adv-x="684" d="M295 420L240 587H235L118 0H39L179 698H273L425 278L480 111H485L602 698H681L541 0H447L295 420ZM522 782Q496 782 479 791T447 808Q425 822 410 827T382 832Q366 832 353 825T322 805L295
843Q311 864 335 880T394 897Q420 897 437 888T469 871Q491 857 506 852T534 847Q550 847 563 854T594 874L621 836Q605 815 581 799T522 782Z" />
<glyph unicode="&#xd2;" glyph-name="Ograve" horiz-adv-x="679" d="M298 -12Q246 -12 202 5T125 57T74 143T55 260Q55 347 79 428T149 571T260 672T409 710Q461 710 505 692T582 640T633 555T652 438Q652 351 628 270T558 127T447 26T298 -12ZM306 61Q399 61
461 122T545 293L565 393Q569 412 570 429T572 462Q572 542 527 589T401 637Q308 637 246 576T162 405L142 305Q138 286 137 269T135 236Q135 156 180 109T306 61ZM329 916L397 948L459 776L413 755L329 916Z" />
<glyph unicode="&#xd3;" glyph-name="Oacute" horiz-adv-x="679" d="M298 -12Q246 -12 202 5T125 57T74 143T55 260Q55 347 79 428T149 571T260 672T409 710Q461 710 505 692T582 640T633 555T652 438Q652 351 628 270T558 127T447 26T298 -12ZM306 61Q399 61
461 122T545 293L565 393Q569 412 570 429T572 462Q572 542 527 589T401 637Q308 637 246 576T162 405L142 305Q138 286 137 269T135 236Q135 156 180 109T306 61ZM431 756L382 781L486 950L554 914L431 756Z" />
<glyph unicode="&#xd4;" glyph-name="Ocircumflex" horiz-adv-x="679" d="M298 -12Q246 -12 202 5T125 57T74 143T55 260Q55 347 79 428T149 571T260 672T409 710Q461 710 505 692T582 640T633 555T652 438Q652 351 628 270T558 127T447 26T298 -12ZM306 61Q399
61 461 122T545 293L565 393Q569 412 570 429T572 462Q572 542 527 589T401 637Q308 637 246 576T162 405L142 305Q138 286 137 269T135 236Q135 156 180 109T306 61ZM496 935L578 792L535 762L442 877L303 761L263 793L402 935H496Z" />
<glyph unicode="&#xd5;" glyph-name="Otilde" horiz-adv-x="679" d="M298 -12Q246 -12 202 5T125 57T74 143T55 260Q55 347 79 428T149 571T260 672T409 710Q461 710 505 692T582 640T633 555T652 438Q652 351 628 270T558 127T447 26T298 -12ZM306 61Q399 61
461 122T545 293L565 393Q569 412 570 429T572 462Q572 542 527 589T401 637Q308 637 246 576T162 405L142 305Q138 286 137 269T135 236Q135 156 180 109T306 61ZM497 782Q471 782 454 791T422 808Q400 822 385 827T357 832Q341 832 328 825T297 805L270 843Q286
864 310 880T369 897Q395 897 412 888T444 871Q466 857 481 852T509 847Q525 847 538 854T569 874L596 836Q580 815 556 799T497 782Z" />
<glyph unicode="&#xd6;" glyph-name="Odieresis" horiz-adv-x="679" d="M298 -12Q246 -12 202 5T125 57T74 143T55 260Q55 347 79 428T149 571T260 672T409 710Q461 710 505 692T582 640T633 555T652 438Q652 351 628 270T558 127T447 26T298 -12ZM306 61Q399
61 461 122T545 293L565 393Q569 412 570 429T572 462Q572 542 527 589T401 637Q308 637 246 576T162 405L142 305Q138 286 137 269T135 236Q135 156 180 109T306 61ZM332 787Q312 787 301 796T290 822Q290 827 293 845Q302 892 349 892Q369 892 380 883T391 857Q391
852 388 834Q379 787 332 787ZM514 787Q494 787 483 796T472 822Q472 827 475 845Q484 892 531 892Q551 892 562 883T573 857Q573 852 570 834Q561 787 514 787Z" />
<glyph unicode="&#xd7;" glyph-name="multiply" horiz-adv-x="600" d="M302 255L117 92L76 146L262 309L141 471L195 518L316 356L501 518L542 464L356 302L476 140L422 93L302 255Z" />
<glyph unicode="&#xd8;" glyph-name="Oslash" horiz-adv-x="679" d="M298 -12Q200 -12 135 47L54 -46L3 -1L93 102Q75 134 65 173T55 260Q55 347 79 428T149 571T260 672T409 710Q507 710 572 651L653 744L704 699L614 596Q632 564 642 525T652 438Q652 351 628
270T558 127T447 26T298 -12ZM142 305Q138 286 137 269T135 236Q135 195 147 162L523 592Q500 613 470 625T401 637Q308 637 246 576T162 405L142 305ZM306 61Q399 61 461 122T545 293L565 393Q569 412 570 429T572 462Q572 503 560 536L184 106Q207 85 237 73T306
61Z" />
<glyph unicode="&#xd9;" glyph-name="Ugrave" horiz-adv-x="656" d="M255 698L169 269Q164 246 163 230T161 197Q161 133 195 97T289 61Q331 61 363 73T421 111T463 180T493 284L576 698H657L573 278Q557 198 533 143T473 53T390 3T280 -12Q186 -12 134 40T82
189Q82 212 84 238T93 294L174 698H255ZM332 916L400 948L462 776L416 755L332 916Z" />
<glyph unicode="&#xda;" glyph-name="Uacute" horiz-adv-x="656" d="M255 698L169 269Q164 246 163 230T161 197Q161 133 195 97T289 61Q331 61 363 73T421 111T463 180T493 284L576 698H657L573 278Q557 198 533 143T473 53T390 3T280 -12Q186 -12 134 40T82
189Q82 212 84 238T93 294L174 698H255ZM434 756L385 781L489 950L557 914L434 756Z" />
<glyph unicode="&#xdb;" glyph-name="Ucircumflex" horiz-adv-x="656" d="M255 698L169 269Q164 246 163 230T161 197Q161 133 195 97T289 61Q331 61 363 73T421 111T463 180T493 284L576 698H657L573 278Q557 198 533 143T473 53T390 3T280 -12Q186 -12 134 40T82
189Q82 212 84 238T93 294L174 698H255ZM499 935L581 792L538 762L445 877L306 761L266 793L405 935H499Z" />
<glyph unicode="&#xdc;" glyph-name="Udieresis" horiz-adv-x="656" d="M255 698L169 269Q164 246 163 230T161 197Q161 133 195 97T289 61Q331 61 363 73T421 111T463 180T493 284L576 698H657L573 278Q557 198 533 143T473 53T390 3T280 -12Q186 -12 134 40T82
189Q82 212 84 238T93 294L174 698H255ZM335 787Q315 787 304 796T293 822Q293 827 296 845Q305 892 352 892Q372 892 383 883T394 857Q394 852 391 834Q382 787 335 787ZM517 787Q497 787 486 796T475 822Q475 827 478 845Q487 892 534 892Q554 892 565 883T576
857Q576 852 573 834Q564 787 517 787Z" />
<glyph unicode="&#xdd;" glyph-name="Yacute" horiz-adv-x="577" d="M196 0L251 273L105 698H187L303 357H308L558 698H651L332 273L277 0H196ZM387 756L338 781L442 950L510 914L387 756Z" />
<glyph unicode="&#xde;" glyph-name="Thorn" horiz-adv-x="587" d="M38 0L179 698H260L231 554H399Q445 554 478 542T532 507T562 455T572 388Q572 339 556 297T509 223T436 173T338 154H150L119 0H38ZM165 226H350Q400 226 433 252T476 328Q483 362 485 376T488
402Q488 438 467 460T393 482H216L165 226Z" />
<glyph unicode="&#xdf;" glyph-name="germandbls" horiz-adv-x="641" d="M586 154Q586 116 573 86T535 33T478 0T406 -12Q346 -12 294 12T211 82L264 129Q291 93 326 74T406 55Q453 55 482 79T512 150Q512 176 501 191T458 218L419 231Q394 239 373 249T335 274T310
311T300 366Q300 397 315 425T357 475T423 509T510 522L511 527Q517 558 517 584Q517 635 488 660T405 686Q370 686 343 678T294 652T259 603T235 527L130 0H52L141 446H57L71 516H155L157 527Q180 640 246 696T415 752Q454 752 487 741T543 707T579 654T592 584Q592
552 586 521L574 460H529Q452 460 414 436T375 370Q375 344 387 328T431 300L470 287Q494 279 515 270T552 245T577 208T586 154Z" />
<glyph unicode="&#xe0;" glyph-name="agrave" horiz-adv-x="583" d="M437 0Q403 0 387 17T370 62Q370 74 373 89L378 112H375Q343 47 304 18T208 -12Q137 -12 94 40T51 185Q51 242 66 302T113 413T191 496T303 528Q326 528 348 522T388 504T419 474T438 432H442L459
516H536L446 68H519L506 0H437ZM228 58Q262 58 288 71T337 109Q363 135 378 165T402 233L423 338Q428 362 424 383T406 421T368 448T310 458Q247 458 206 417T150 301L135 226Q130 198 130 175Q130 122 155 90T228 58ZM246 744L314 776L375 606L330 585L246 744Z"
/>
<glyph unicode="&#xe1;" glyph-name="aacute" horiz-adv-x="583" d="M437 0Q403 0 387 17T370 62Q370 74 373 89L378 112H375Q343 47 304 18T208 -12Q137 -12 94 40T51 185Q51 242 66 302T113 413T191 496T303 528Q326 528 348 522T388 504T419 474T438 432H442L459
516H536L446 68H519L506 0H437ZM228 58Q262 58 288 71T337 109Q363 135 378 165T402 233L423 338Q428 362 424 383T406 421T368 448T310 458Q247 458 206 417T150 301L135 226Q130 198 130 175Q130 122 155 90T228 58ZM358 585L310 610L414 780L482 744L358 585Z"
/>
<glyph unicode="&#xe2;" glyph-name="acircumflex" horiz-adv-x="583" d="M437 0Q403 0 387 17T370 62Q370 74 373 89L378 112H375Q343 47 304 18T208 -12Q137 -12 94 40T51 185Q51 242 66 302T113 413T191 496T303 528Q326 528 348 522T388 504T419 474T438 432H442L459
516H536L446 68H519L506 0H437ZM228 58Q262 58 288 71T337 109Q363 135 378 165T402 233L423 338Q428 362 424 383T406 421T368 448T310 458Q247 458 206 417T150 301L135 226Q130 198 130 175Q130 122 155 90T228 58ZM419 765L501 622L458 591L365 706L226 590L187
622L325 765H419Z" />
<glyph unicode="&#xe3;" glyph-name="atilde" horiz-adv-x="583" d="M437 0Q403 0 387 17T370 62Q370 74 373 89L378 112H375Q343 47 304 18T208 -12Q137 -12 94 40T51 185Q51 242 66 302T113 413T191 496T303 528Q326 528 348 522T388 504T419 474T438 432H442L459
516H536L446 68H519L506 0H437ZM228 58Q262 58 288 71T337 109Q363 135 378 165T402 233L423 338Q428 362 424 383T406 421T368 448T310 458Q247 458 206 417T150 301L135 226Q130 198 130 175Q130 122 155 90T228 58ZM421 612Q395 612 378 620T347 637Q325 651
310 656T282 661Q265 661 252 654T222 634L194 673Q211 693 235 709T293 726Q319 726 336 718T367 701Q389 687 404 682T432 677Q449 677 462 684T492 704L520 665Q503 645 479 629T421 612Z" />
<glyph unicode="&#xe4;" glyph-name="adieresis" horiz-adv-x="583" d="M437 0Q403 0 387 17T370 62Q370 74 373 89L378 112H375Q343 47 304 18T208 -12Q137 -12 94 40T51 185Q51 242 66 302T113 413T191 496T303 528Q326 528 348 522T388 504T419 474T438 432H442L459
516H536L446 68H519L506 0H437ZM228 58Q262 58 288 71T337 109Q363 135 378 165T402 233L423 338Q428 362 424 383T406 421T368 448T310 458Q247 458 206 417T150 301L135 226Q130 198 130 175Q130 122 155 90T228 58ZM258 618Q238 618 227 627T216 653Q216 657
216 661T219 674Q228 721 275 721Q295 721 306 712T317 686Q317 681 314 665Q305 618 258 618ZM440 618Q420 618 409 627T398 653Q398 657 398 661T401 674Q410 721 457 721Q477 721 488 712T499 686Q499 681 496 665Q487 618 440 618Z" />
<glyph unicode="&#xe5;" glyph-name="aring" horiz-adv-x="583" d="M437 0Q403 0 387 17T370 62Q370 74 373 89L378 112H375Q343 47 304 18T208 -12Q137 -12 94 40T51 185Q51 242 66 302T113 413T191 496T303 528Q326 528 348 522T388 504T419 474T438 432H442L459
516H536L446 68H519L506 0H437ZM228 58Q262 58 288 71T337 109Q363 135 378 165T402 233L423 338Q428 362 424 383T406 421T368 448T310 458Q247 458 206 417T150 301L135 226Q130 198 130 175Q130 122 155 90T228 58ZM347 576Q302 576 275 604T247 676Q247 736
282 771T376 806Q421 806 448 778T476 706Q476 646 441 611T347 576ZM353 624Q405 624 416 680Q420 699 420 711Q420 758 370 758Q318 758 307 702Q303 683 303 671Q303 624 353 624Z" />
<glyph unicode="&#xe6;" glyph-name="ae" horiz-adv-x="806" d="M185 56Q212 56 236 63T281 82T315 112T333 150L349 229L250 225Q192 223 153 210T106 158Q102 139 101 132T100 119Q100 89 122 73T185 56ZM611 462Q544 462 499 421T440 310L435 286Q517 289 568
296T649 315T690 344T701 384Q701 408 693 423T673 447T644 459T611 462ZM168 -12Q99 -12 61 22T22 122Q22 197 77 237T254 282L361 286L372 345Q375 360 375 372Q375 414 348 436T270 458Q224 458 193 440T135 385L87 431Q114 473 164 500T281 528Q343 528 378
502T427 433H434Q467 478 512 503T615 528Q646 528 675 520T728 495T766 452T780 390Q780 303 691 266T426 228Q424 217 423 203T421 174Q421 124 452 91T544 57Q593 57 632 79T702 139L752 94Q704 35 650 12T538 -12Q471 -12 427 15T363 94H356Q327 41 278 15T168
-12Z" />
<glyph unicode="&#xe7;" glyph-name="ccedilla" horiz-adv-x="488" d="M302 528Q371 528 414 494T473 407L409 378Q383 459 300 459Q238 459 200 420T147 312L130 228Q128 217 127 205T126 183Q126 127 155 92T244 57Q282 57 313 78T376 158L437 128Q407 65 361
30T254 -11L238 -62L240 -64Q245 -63 252 -62T271 -60Q296 -60 313 -72T330 -116Q330 -158 300 -182T222 -207Q184 -207 158 -196T121 -170L161 -129Q168 -139 183 -146T220 -154Q242 -154 254 -144T266 -118Q266 -102 255 -93T211 -79L185 -76L205 -10Q131 0 90
55T49 199Q49 266 66 326T117 431T196 502T302 528Z" />
<glyph unicode="&#xe8;" glyph-name="egrave" horiz-adv-x="511" d="M244 -12Q151 -12 100 43T49 204Q49 268 68 326T123 430T208 501T319 528Q352 528 382 520T435 494T471 451T485 390Q485 305 398 264T129 221Q127 210 127 199T126 179Q126 124 157 91T249
57Q298 57 337 79T407 139L457 94Q409 35 355 12T244 -12ZM311 462Q281 462 254 451T205 421T168 373T145 310L139 281Q222 284 274 291T355 312T395 345T406 391Q406 412 398 425T377 447T347 458T311 462ZM236 744L304 776L365 606L320 585L236 744Z" />
<glyph unicode="&#xe9;" glyph-name="eacute" horiz-adv-x="511" d="M244 -12Q151 -12 100 43T49 204Q49 268 68 326T123 430T208 501T319 528Q352 528 382 520T435 494T471 451T485 390Q485 305 398 264T129 221Q127 210 127 199T126 179Q126 124 157 91T249
57Q298 57 337 79T407 139L457 94Q409 35 355 12T244 -12ZM311 462Q281 462 254 451T205 421T168 373T145 310L139 281Q222 284 274 291T355 312T395 345T406 391Q406 412 398 425T377 447T347 458T311 462ZM348 585L300 610L404 780L472 744L348 585Z" />
<glyph unicode="&#xea;" glyph-name="ecircumflex" horiz-adv-x="511" d="M244 -12Q151 -12 100 43T49 204Q49 268 68 326T123 430T208 501T319 528Q352 528 382 520T435 494T471 451T485 390Q485 305 398 264T129 221Q127 210 127 199T126 179Q126 124 157 91T249
57Q298 57 337 79T407 139L457 94Q409 35 355 12T244 -12ZM311 462Q281 462 254 451T205 421T168 373T145 310L139 281Q222 284 274 291T355 312T395 345T406 391Q406 412 398 425T377 447T347 458T311 462ZM409 765L491 622L448 591L355 706L216 590L177 622L315
765H409Z" />
<glyph unicode="&#xeb;" glyph-name="edieresis" horiz-adv-x="511" d="M244 -12Q151 -12 100 43T49 204Q49 268 68 326T123 430T208 501T319 528Q352 528 382 520T435 494T471 451T485 390Q485 305 398 264T129 221Q127 210 127 199T126 179Q126 124 157 91T249
57Q298 57 337 79T407 139L457 94Q409 35 355 12T244 -12ZM311 462Q281 462 254 451T205 421T168 373T145 310L139 281Q222 284 274 291T355 312T395 345T406 391Q406 412 398 425T377 447T347 458T311 462ZM248 618Q228 618 217 627T206 653Q206 657 206 661T209
674Q218 721 265 721Q285 721 296 712T307 686Q307 681 304 665Q295 618 248 618ZM430 618Q410 618 399 627T388 653Q388 657 388 661T391 674Q400 721 447 721Q467 721 478 712T489 686Q489 681 486 665Q477 618 430 618Z" />
<glyph unicode="&#xec;" glyph-name="igrave" horiz-adv-x="264" d="M120 0Q85 0 68 17T51 63Q51 71 54 86L140 516H217L127 68H200L187 0H120ZM356 744L424 776L485 606L440 585L356 744Z" />
<glyph unicode="&#xed;" glyph-name="iacute" horiz-adv-x="264" d="M120 0Q85 0 68 17T51 63Q51 71 54 86L140 516H217L127 68H200L187 0H120ZM468 585L420 610L524 780L592 744L468 585Z" />
<glyph unicode="&#xee;" glyph-name="icircumflex" horiz-adv-x="264" d="M120 0Q85 0 68 17T51 63Q51 71 54 86L140 516H217L127 68H200L187 0H120ZM529 765L611 622L568 591L475 706L336 590L297 622L435 765H529Z" />
<glyph unicode="&#xef;" glyph-name="idieresis" horiz-adv-x="264" d="M120 0Q85 0 68 17T51 63Q51 71 54 86L140 516H217L127 68H200L187 0H120ZM368 618Q348 618 337 627T326 653Q326 657 326 661T329 674Q338 721 385 721Q405 721 416 712T427 686Q427 681
424 665Q415 618 368 618ZM550 618Q530 618 519 627T508 653Q508 657 508 661T511 674Q520 721 567 721Q587 721 598 712T609 686Q609 681 606 665Q597 618 550 618Z" />
<glyph unicode="&#xf0;" glyph-name="eth" horiz-adv-x="563" d="M416 652Q435 627 452 597T482 530T503 450T511 357Q511 273 491 205T435 89T349 15T236 -12Q192 -12 158 3T99 46T62 112T49 198Q49 259 67 314T118 412T195 479T293 504Q346 504 381 480T430
413L435 415Q430 469 411 520T359 616L270 559L244 603L325 656Q281 703 216 740H330Q341 730 354 718T381 692L474 753L502 707L416 652ZM249 58Q309 58 351 100T407 211L420 276Q422 287 424 297T426 319Q426 373 393 403T301 434Q242 434 200 392T143 282L130
217Q128 206 126 196T124 174Q124 119 157 89T249 58Z" />
<glyph unicode="&#xf1;" glyph-name="ntilde" horiz-adv-x="565" d="M36 0L140 516H217L196 414H201Q228 472 265 500T359 528Q426 528 459 490T492 385Q492 371 491 354T485 318L435 68H508L495 0H422Q393 0 376 14T358 58Q358 63 358 67T360 79L408 318Q411
333 412 347T413 371Q413 415 395 436T334 458Q280 458 239 417Q213 391 195 355T171 288L113 0H36ZM425 612Q399 612 382 620T351 637Q329 651 314 656T286 661Q269 661 256 654T226 634L198 673Q215 693 239 709T297 726Q323 726 340 718T371 701Q393 687 408
682T436 677Q453 677 466 684T496 704L524 665Q507 645 483 629T425 612Z" />
<glyph unicode="&#xf2;" glyph-name="ograve" horiz-adv-x="550" d="M235 -12Q194 -12 160 1T102 41T63 107T49 200Q49 265 68 324T123 429T207 501T315 528Q355 528 389 515T448 475T487 408T501 316Q501 251 482 192T427 87T343 15T235 -12ZM245 57Q301 57 345
98T405 218L420 293Q425 318 425 338Q425 392 395 425T305 459Q249 459 205 418T145 298L130 223Q125 198 125 178Q125 124 155 91T245 57ZM233 744L301 776L362 606L317 585L233 744Z" />
<glyph unicode="&#xf3;" glyph-name="oacute" horiz-adv-x="550" d="M235 -12Q194 -12 160 1T102 41T63 107T49 200Q49 265 68 324T123 429T207 501T315 528Q355 528 389 515T448 475T487 408T501 316Q501 251 482 192T427 87T343 15T235 -12ZM245 57Q301 57 345
98T405 218L420 293Q425 318 425 338Q425 392 395 425T305 459Q249 459 205 418T145 298L130 223Q125 198 125 178Q125 124 155 91T245 57ZM345 585L297 610L401 780L469 744L345 585Z" />
<glyph unicode="&#xf4;" glyph-name="ocircumflex" horiz-adv-x="550" d="M235 -12Q194 -12 160 1T102 41T63 107T49 200Q49 265 68 324T123 429T207 501T315 528Q355 528 389 515T448 475T487 408T501 316Q501 251 482 192T427 87T343 15T235 -12ZM245 57Q301
57 345 98T405 218L420 293Q425 318 425 338Q425 392 395 425T305 459Q249 459 205 418T145 298L130 223Q125 198 125 178Q125 124 155 91T245 57ZM406 765L488 622L445 591L352 706L213 590L174 622L312 765H406Z" />
<glyph unicode="&#xf5;" glyph-name="otilde" horiz-adv-x="550" d="M235 -12Q194 -12 160 1T102 41T63 107T49 200Q49 265 68 324T123 429T207 501T315 528Q355 528 389 515T448 475T487 408T501 316Q501 251 482 192T427 87T343 15T235 -12ZM245 57Q301 57 345
98T405 218L420 293Q425 318 425 338Q425 392 395 425T305 459Q249 459 205 418T145 298L130 223Q125 198 125 178Q125 124 155 91T245 57ZM408 612Q382 612 365 620T334 637Q312 651 297 656T269 661Q252 661 239 654T209 634L181 673Q198 693 222 709T280 726Q306
726 323 718T354 701Q376 687 391 682T419 677Q436 677 449 684T479 704L507 665Q490 645 466 629T408 612Z" />
<glyph unicode="&#xf6;" glyph-name="odieresis" horiz-adv-x="550" d="M235 -12Q194 -12 160 1T102 41T63 107T49 200Q49 265 68 324T123 429T207 501T315 528Q355 528 389 515T448 475T487 408T501 316Q501 251 482 192T427 87T343 15T235 -12ZM245 57Q301 57
345 98T405 218L420 293Q425 318 425 338Q425 392 395 425T305 459Q249 459 205 418T145 298L130 223Q125 198 125 178Q125 124 155 91T245 57ZM245 618Q225 618 214 627T203 653Q203 657 203 661T206 674Q215 721 262 721Q282 721 293 712T304 686Q304 681 301
665Q292 618 245 618ZM427 618Q407 618 396 627T385 653Q385 657 385 661T388 674Q397 721 444 721Q464 721 475 712T486 686Q486 681 483 665Q474 618 427 618Z" />
<glyph unicode="&#xf7;" glyph-name="divide" horiz-adv-x="600" d="M77 273L91 339H541L527 273H77ZM263 54Q236 54 225 64T213 92Q213 98 214 105T217 120Q222 146 237 159T282 172Q309 172 320 162T332 134Q332 128 331 121T328 106Q323 80 308 67T263 54ZM338
440Q311 440 300 450T288 478Q288 484 289 491T292 506Q297 532 312 545T357 558Q384 558 395 548T407 520Q407 514 406 507T403 492Q398 466 383 453T338 440Z" />
<glyph unicode="&#xf8;" glyph-name="oslash" horiz-adv-x="550" d="M-17 -3L71 88Q60 111 55 138T49 200Q49 265 68 324T123 429T207 501T315 528Q397 528 448 474L528 557L567 519L479 428Q490 405 495 378T501 316Q501 251 482 192T427 87T343 15T235 -12Q153
-12 102 42L22 -41L-17 -3ZM245 57Q301 57 345 98T405 218Q412 252 416 272T422 306T424 325T425 338Q425 357 422 371L152 94Q167 77 190 67T245 57ZM305 459Q249 459 205 418T145 298Q138 264 134 244T128 210T126 191T125 178Q125 158 128 145L398 422Q383 439
360 449T305 459Z" />
<glyph unicode="&#xf9;" glyph-name="ugrave" horiz-adv-x="562" d="M211 516L147 198Q144 183 143 169T142 145Q142 102 159 80T219 58Q272 58 312 99Q340 128 357 163T380 228L438 516H515L425 68H498L485 0H415Q382 0 366 17T349 63Q349 73 353 92L355 102H350Q323
43 286 16T195 -12Q129 -12 96 26T63 131Q63 145 64 162T70 198L134 516H211ZM242 744L310 776L371 606L326 585L242 744Z" />
<glyph unicode="&#xfa;" glyph-name="uacute" horiz-adv-x="562" d="M211 516L147 198Q144 183 143 169T142 145Q142 102 159 80T219 58Q272 58 312 99Q340 128 357 163T380 228L438 516H515L425 68H498L485 0H415Q382 0 366 17T349 63Q349 73 353 92L355 102H350Q323
43 286 16T195 -12Q129 -12 96 26T63 131Q63 145 64 162T70 198L134 516H211ZM354 585L306 610L410 780L478 744L354 585Z" />
<glyph unicode="&#xfb;" glyph-name="ucircumflex" horiz-adv-x="562" d="M211 516L147 198Q144 183 143 169T142 145Q142 102 159 80T219 58Q272 58 312 99Q340 128 357 163T380 228L438 516H515L425 68H498L485 0H415Q382 0 366 17T349 63Q349 73 353 92L355
102H350Q323 43 286 16T195 -12Q129 -12 96 26T63 131Q63 145 64 162T70 198L134 516H211ZM415 765L497 622L454 591L361 706L222 590L183 622L321 765H415Z" />
<glyph unicode="&#xfc;" glyph-name="udieresis" horiz-adv-x="562" d="M211 516L147 198Q144 183 143 169T142 145Q142 102 159 80T219 58Q272 58 312 99Q340 128 357 163T380 228L438 516H515L425 68H498L485 0H415Q382 0 366 17T349 63Q349 73 353 92L355 102H350Q323
43 286 16T195 -12Q129 -12 96 26T63 131Q63 145 64 162T70 198L134 516H211ZM254 618Q234 618 223 627T212 653Q212 657 212 661T215 674Q224 721 271 721Q291 721 302 712T313 686Q313 681 310 665Q301 618 254 618ZM436 618Q416 618 405 627T394 653Q394 657
394 661T397 674Q406 721 453 721Q473 721 484 712T495 686Q495 681 492 665Q483 618 436 618Z" />
<glyph unicode="&#xfd;" glyph-name="yacute" horiz-adv-x="484" d="M438 516H520L171 -117Q146 -162 123 -181T60 -200H-20L-7 -134H86L150 -16L68 516H143L181 261L202 73H207L300 261L438 516ZM321 585L273 610L377 780L445 744L321 585Z" />
<glyph unicode="&#xfe;" glyph-name="thorn" horiz-adv-x="572" d="M185 740H262L194 404H197Q229 469 268 498T364 528Q435 528 478 476T521 331Q521 274 506 214T459 103T381 20T269 -12Q246 -12 224 -6T184 12T153 42T134 84H130L73 -200H-4L185 740ZM262 58Q325
58 366 99T422 215L437 290Q442 318 442 341Q442 366 437 387T419 424T389 449T345 458Q309 458 284 444T235 407Q210 382 194 352T170 283L149 178Q144 154 148 132T166 94T203 68T262 58Z" />
<glyph unicode="&#xff;" glyph-name="ydieresis" horiz-adv-x="484" d="M438 516H520L171 -117Q146 -162 123 -181T60 -200H-20L-7 -134H86L150 -16L68 516H143L181 261L202 73H207L300 261L438 516ZM221 618Q201 618 190 627T179 653Q179 657 179 661T182 674Q191
721 238 721Q258 721 269 712T280 686Q280 681 277 665Q268 618 221 618ZM403 618Q383 618 372 627T361 653Q361 657 361 661T364 674Q373 721 420 721Q440 721 451 712T462 686Q462 681 459 665Q450 618 403 618Z" />
<glyph unicode="&#x2013;" glyph-name="endash" horiz-adv-x="565" d="M37 268L51 340H546L532 268H37Z" />
<glyph unicode="&#x2014;" glyph-name="emdash" horiz-adv-x="749" d="M37 268L51 340H730L716 268H37Z" />
<glyph unicode="&#x2018;" glyph-name="quoteleft" horiz-adv-x="273" d="M185 490Q161 490 148 500T134 530Q134 537 135 545T138 561Q142 580 151 603T174 651T208 698T254 740H319Q282 708 260 678T221 613Q254 605 254 576Q254 569 253 561T250 545Q248 535
244 525T233 508T214 495T185 490Z" />
<glyph unicode="&#x2019;" glyph-name="quoteright" horiz-adv-x="273" d="M234 750Q258 750 271 740T285 710Q285 703 284 695T281 679Q277 660 268 637T245 589T210 542T165 500H100Q137 532 159 562T198 627Q165 635 165 664Q165 671 166 679T169 695Q173 715
186 732T234 750Z" />
<glyph unicode="&#x201a;" glyph-name="quotesinglbase" horiz-adv-x="273" d="M102 134Q126 134 139 124T153 94Q153 87 152 79T149 63Q145 44 136 21T113 -27T78 -74T33 -116H-32Q5 -84 27 -54T66 11Q33 19 33 48Q33 55 34 63T37 79Q41 99 54 116T102 134Z" />
<glyph unicode="&#x201c;" glyph-name="quotedblleft" horiz-adv-x="470" d="M185 490Q161 490 148 500T134 530Q134 537 135 545T138 561Q142 580 151 603T174 651T208 698T254 740H319Q282 708 260 678T221 613Q254 605 254 576Q254 569 253 561T250 545Q248
535 244 525T233 508T214 495T185 490ZM382 490Q358 490 345 500T331 530Q331 537 332 545T335 561Q339 580 348 603T371 651T405 698T451 740H516Q479 708 457 678T418 613Q451 605 451 576Q451 569 450 561T447 545Q445 535 441 525T430 508T411 495T382 490Z"
/>
<glyph unicode="&#x201d;" glyph-name="quotedblright" horiz-adv-x="470" d="M234 750Q258 750 271 740T285 710Q285 703 284 695T281 679Q277 660 268 637T245 589T210 542T165 500H100Q137 532 159 562T198 627Q165 635 165 664Q165 671 166 679T169 695Q173
715 186 732T234 750ZM431 750Q455 750 468 740T482 710Q482 703 481 695T478 679Q474 660 465 637T442 589T407 542T362 500H297Q334 532 356 562T395 627Q362 635 362 664Q362 671 363 679T366 695Q370 715 383 732T431 750Z" />
<glyph unicode="&#x201e;" glyph-name="quotedblbase" horiz-adv-x="470" d="M102 134Q126 134 139 124T153 94Q153 87 152 79T149 63Q145 44 136 21T113 -27T78 -74T33 -116H-32Q5 -84 27 -54T66 11Q33 19 33 48Q33 55 34 63T37 79Q41 99 54 116T102 134ZM299
134Q323 134 336 124T350 94Q350 87 349 79T346 63Q342 44 333 21T310 -27T275 -74T230 -116H165Q202 -84 224 -54T263 11Q230 19 230 48Q230 55 231 63T234 79Q238 99 251 116T299 134Z" />
<glyph unicode="&#x2022;" glyph-name="bullet" horiz-adv-x="386" d="M181 186Q130 186 106 207T81 264Q81 269 82 284T89 321Q98 366 128 394T221 422Q272 422 296 401T321 344Q321 339 320 324T313 287Q304 242 274 214T181 186Z" />
<glyph unicode="&#x2039;" glyph-name="guilsinglleft" horiz-adv-x="298" d="M186 78L32 250L47 323L264 488L278 429L114 280L218 130L186 78Z" />
<glyph unicode="&#x203a;" glyph-name="guilsinglright" horiz-adv-x="298" d="M25 137L189 286L85 436L117 488L271 316L256 243L39 78L25 137Z" />
</font>
</defs>
</svg>
