<svg width="110" height="110" viewBox="0 0 76 78" xmlns="http://www.w3.org/2000/svg" xmlns:xlink="http://www.w3.org/1999/xlink"><title>Þjóðskrá</title><defs><style>.a{fill:#020350;}.b{clip-path:url(#a);}.c{clip-path:url(#b);}.d{clip-path:url(#c);}.e{clip-path:url(#d);}</style><clipPath id="a"><rect class="a" width="15" height="24" transform="translate(-0.27 0.001)"></rect></clipPath><clipPath id="b"><rect class="a" width="15" height="26" transform="translate(-0.27 0.253)"></rect></clipPath><clipPath id="c"><rect class="a" width="16" height="32" transform="translate(0.324 -0.387)"></rect></clipPath><clipPath id="d"><rect class="a" width="76" height="20" transform="translate(0 0.378)"></rect></clipPath></defs><g transform="translate(-599 -4446)"><g class="b" transform="translate(622.27 4446)"><path class="a" d="M120.38-2693.959l-11.744,5.716a.4.4,0,0,0-.224.358v15.787a.4.4,0,0,0,.4.4h11.744a.4.4,0,0,0,.4-.4v-21.5A.4.4,0,0,0,120.38-2693.959Z" transform="translate(-107.164 2694.915)"></path></g><g class="c" transform="translate(622.27 4470.748)"><path class="a" d="M120.386-2471.592l-11.735,5.2a.4.4,0,0,0-.24.368v18.953a.4.4,0,0,0,.565.369l11.735-5.158a.4.4,0,0,0,.241-.369v-18.991A.4.4,0,0,0,120.386-2471.592Z" transform="translate(-107.164 2472.219)"></path></g><g class="d" transform="translate(636.676 4453.387)"><g transform="translate(0.617 0.787)"><path class="a" d="M12.135,0h0a.4.4,0,0,1,.4.4V14.163a.4.4,0,0,1-.4.4H.4a.4.4,0,0,1-.4-.4V12.135A12.135,12.135,0,0,1,12.135,0Z" transform="translate(12.943 29.607) rotate(180)"></path><circle class="a" cx="6.673" cy="6.673" r="6.673"></circle></g></g><g class="e" transform="translate(599 4503.622)"><g transform="translate(1.904 0.756)"><g transform="translate(0 0)"><g transform="translate(0 0.674)"><path class="a" d="M1028-1616.663h3.029v1.464c.292,0,.558,0,.824,0a8.566,8.566,0,0,1,2.192.228,4,4,0,0,1,3.08,2.728,4.547,4.547,0,0,1-.084,3,4.228,4.228,0,0,1-3.242,2.735,10.663,10.663,0,0,1-1.613.171c-.373.025-.748,0-1.143,0v1.628H1028Zm3.044,8.857a4.89,4.89,0,0,0,2.061-.2,1.672,1.672,0,0,0,.594-.552,4.353,4.353,0,0,0,.455-3.252c-.219-1.164-.752-1.713-1.43-1.807a14.065,14.065,0,0,0-1.605-.057c-.024,0-.049.025-.075.039Z" transform="translate(-1027.997 1617.748)"></path><path class="a" d="M1178.123-1611.8c.044-.056.09-.111.132-.168,1.053-1.212,2.288-2.479,3.33-3.688a.345.345,0,0,1,.314-.161h1.8c-.053.077-.087.145-.125.195-1.235,1.259-2.53,2.657-3.62,3.922a.246.246,0,0,0,0,.357c1.128,1.391,2.545,2.93,3.669,4.235.057.079.112.16.19.272h-.209c-1.079,0-.7,0-1.776,0a.294.294,0,0,1-.277-.144c-1.067-1.212-2.313-2.646-3.3-3.855a.511.511,0,0,0-.167-.164v4.148H1175.1v-11.425l2.96-1.477v7.938Z" transform="translate(-1129.954 1619.886)"></path><path class="a" d="M1210.462-1598.146H1207.5v-8.964c.065,0,.13-.009.2-.009l1.97,0c.152,0,.207.049.234.195.071.371.16.738.252,1.152a2.82,2.82,0,0,1,3.115-1.373v1.354a9.51,9.51,0,0,0-1.128.007,1.775,1.775,0,0,0-1.637,1.654,4.248,4.248,0,0,0-.037.56c0,1.272,0,3.9,0,5.175Z" transform="translate(-1152.41 1611.194)"></path><path class="a" d="M1065.6-1618.634a1.551,1.551,0,0,1-1.565,1.569,1.555,1.555,0,0,1-1.595-1.562,1.565,1.565,0,0,1,1.588-1.573A1.561,1.561,0,0,1,1065.6-1618.634Z" transform="translate(-1051.867 1620.199)"></path></g><g transform="translate(65.695)"><path class="a" d="M1242.679-1618.421l-.1-.1a1.816,1.816,0,0,1,.015-2.569l1.3-1.287a.061.061,0,0,1,.086,0l1.333,1.348a.06.06,0,0,1,0,.085l-2.548,2.522A.061.061,0,0,1,1242.679-1618.421Z" transform="translate(-1242.056 1622.394)"></path></g><g transform="translate(19.089)"><path class="a" d="M1090.821-1618.421l-.1-.1a1.817,1.817,0,0,1,.015-2.569l1.3-1.287a.061.061,0,0,1,.086,0l1.333,1.348a.06.06,0,0,1,0,.085l-2.548,2.522A.061.061,0,0,1,1090.821-1618.421Z" transform="translate(-1090.197 1622.394)"></path></g><g transform="translate(10.654 4.746)"><path class="a" d="M1062.8-1594.542h.3a2.6,2.6,0,0,0,2.6-2.6v-9.784h-2.991v12.387Z" transform="translate(-1062.712 1606.929)"></path></g></g><path class="a" d="M1086.4-1603.6a4.4,4.4,0,0,0-.876-2.254,4.518,4.518,0,0,0-3.517-1.828,5.312,5.312,0,0,0-3.027.722,4.466,4.466,0,0,0-2.151,3.842,4.575,4.575,0,0,0,.922,3.03,4.649,4.649,0,0,0,3.858,1.85,4.591,4.591,0,0,0,4.008-1.979A4.767,4.767,0,0,0,1086.4-1603.6Zm-2.944,2.128a1.706,1.706,0,0,1-1.705,1.706h-.237a1.706,1.706,0,0,1-1.706-1.706v-2.975a1.706,1.706,0,0,1,1.706-1.706h.237a1.705,1.705,0,0,1,1.705,1.706Z" transform="translate(-1061.841 1612.194)"></path><path class="a" d="M1120.75-1614.211a13.247,13.247,0,0,0-2.077-3.76c-.041-.055-.081-.112-.132-.182l1.07-.421-.433-1.081c-.424.163-.828.305-1.22.474a.233.233,0,0,1-.333-.089c-.1-.139-.232-.26-.337-.4a.32.32,0,0,0-.287-.138h-.165l-2.2.822.726.783-1.081.424.464,1.131c.448-.174.878-.338,1.3-.509.1-.042.17-.037.235.063.42.643.844,1.284,1.265,1.927a1.076,1.076,0,0,1,.068.185,1.771,1.771,0,0,0-.165-.124,5.133,5.133,0,0,0-.99-.512,3.587,3.587,0,0,0-3.378.788,4.286,4.286,0,0,0-1.53,3.036,4.453,4.453,0,0,0,1.55,3.988,4.822,4.822,0,0,0,4.171,1.083,4.367,4.367,0,0,0,3.527-2.961A6.73,6.73,0,0,0,1120.75-1614.211Zm-2.571,4.336a1.706,1.706,0,0,1-1.705,1.705h-.246a1.706,1.706,0,0,1-1.705-1.705v-2.975a1.706,1.706,0,0,1,1.705-1.706h.246a1.706,1.706,0,0,1,1.705,1.706Z" transform="translate(-1085.893 1620.601)"></path><path class="a" d="M1237.28-1607.442c-.764,0-1.528,0-2.292,0-.113,0-.148.05-.169.149-.077.359-.162.716-.253,1.112l-.135-.17a3.283,3.283,0,0,0-3.271-1.271,3.641,3.641,0,0,0-2.361,1.474,5.187,5.187,0,0,0-.993,4.037,4.609,4.609,0,0,0,1.786,3.146,3.42,3.42,0,0,0,4.873-.635c.026-.036.045-.078.091-.159l.3,1.283h2.526v-8.947A.569.569,0,0,0,1237.28-1607.442Zm-2.817,5.975a1.706,1.706,0,0,1-1.706,1.705h-.308a1.705,1.705,0,0,1-1.705-1.705v-2.975a1.705,1.705,0,0,1,1.705-1.705h.308a1.706,1.706,0,0,1,1.706,1.705Z" transform="translate(-1166.441 1612.193)"></path><path class="a" d="M1153.665-1601.6a2.174,2.174,0,0,0-.739-1.428,3.82,3.82,0,0,0-1.432-.743c-.486-.148-.983-.26-1.47-.4a2.39,2.39,0,0,1-.569-.242c-.005,0-.009-.014-.014-.018a.991.991,0,0,1-.557-.889.993.993,0,0,1,.819-.976,1.189,1.189,0,0,1,.188-.037,5.446,5.446,0,0,1,3.01.594l.171.08c0-.723-.016-.347.008-1.042a.434.434,0,0,0-.323-.485,6.811,6.811,0,0,0-2.625-.5,4.932,4.932,0,0,0-2,.379,2.769,2.769,0,0,0-1.63,1.721,2.376,2.376,0,0,0,1.2,2.974,5.074,5.074,0,0,0,.77.338c.469.157.949.281,1.42.433a3.747,3.747,0,0,1,.618.252h0c.02.011.042.018.062.03,0,0,0,.006.006.007a.99.99,0,0,1,.537.878.991.991,0,0,1-.553.887l0,0-.006,0a1,1,0,0,1-.115.046,1.7,1.7,0,0,1-.525.14,4.943,4.943,0,0,1-3.251-.868c-.059-.04-.119-.077-.213-.136v.248c0,.716.007.384,0,1.1a.338.338,0,0,0,.213.355,6.413,6.413,0,0,0,2.67.656,5.94,5.94,0,0,0,2.6-.389A2.716,2.716,0,0,0,1153.665-1601.6Z" transform="translate(-1110.036 1612.203)"></path></g></g></g></svg>