<svg id="eyzGY9baL4Z1" xmlns="http://www.w3.org/2000/svg" xmlns:xlink="http://www.w3.org/1999/xlink" viewBox="0 0 32 32" shape-rendering="geometricPrecision" text-rendering="geometricPrecision" project-id="cc2acb2a21734ebd807d5ffb07984154" export-id="d7779512329f4e6e89e7c0973f968555" cached="false" style="background-color:transparent;cursor:pointer"><g><g><path d="M25.5,14.5768c0,0,0-4.4,0-4.4c0-1.6569-1.3431-3.00004-3-3.00004c0,0-14.02002,0-14.02002,0-1.65685,0-3,1.34314-3,3.00004c0,0,0,8.8,0,8.8c0,1.6568,1.34315,3,3,3c0,0,2.00502,0,2.00502,0s2.5025,0,2.5025,0" paint-order="stroke fill markers" fill="none" fill-rule="evenodd" stroke="#0061ff" stroke-width="1.5" stroke-linecap="round"/></g><g><path d="M5.47998,11.25c0-.4142.21341-.75.47667-.75c0,0,19.06675,0,19.06675,0c.2632,0,.4766.3358.4766.75s-.2134.75-.4766.75c0,0-19.06675,0-19.06675,0-.26326,0-.47667-.3358-.47667-.75c0,0,0,0,0,0Z" fill="#0061ff" fill-rule="evenodd" stroke-width="0"/></g></g><g id="eyzGY9baL4Z7"><g transform="translate(0 0.048143)"><path id="eyzGY9baL4Z9" d="M19.646659,21.451857c0,0,1.198441,1.393243,1.198441,1.393243.0832.0832.2198.077.2951-.0133C21.1402,22.8318,23.5,20,23.5,20" paint-order="stroke fill markers" fill="none" fill-rule="evenodd" stroke="#0061ff" stroke-width="1.5" stroke-linecap="round" stroke-dasharray="6"/></g><g transform="translate(16.75 16.75)"><path d="M0,4.75C0,2.126647,2.126647,0,4.75,0s4.75,2.126647,4.75,4.75-2.126647,4.75-4.75,4.75-4.75-2.126647-4.75-4.75c0,0,0,0,0,0Z" paint-order="stroke fill markers" fill="none" fill-rule="evenodd" stroke="#0061ff" stroke-width="1.5"/></g></g><g><path id="eyzGY9baL4Z13" d="M8.44141,18.8213c0,0,4,0,4,0" paint-order="stroke fill markers" fill="none" fill-rule="evenodd" stroke="#0061ff" stroke-width="1.5" stroke-linecap="round" stroke-dasharray="4"/></g><g><path id="eyzGY9baL4Z15" d="M8.44141,16.3213c0,0,2,0,2,0" paint-order="stroke fill markers" fill="none" fill-rule="evenodd" stroke="#0061ff" stroke-width="1.5" stroke-linecap="round" stroke-dasharray="2"/></g>
<script><![CDATA[]]></script>
</svg>
