<svg id="eHga0p9oesu1" xmlns="http://www.w3.org/2000/svg" xmlns:xlink="http://www.w3.org/1999/xlink" viewBox="0 0 24 24" shape-rendering="geometricPrecision" text-rendering="geometricPrecision" project-id="ace064bb1e1e42c2943c28d99cdfe871" export-id="503749d7074541caa322bef8eb8318ed" cached="false"><g transform="translate(-0.195304 -0.35845)"><path d="M7,7.66174h-.80469c-1.21875,0-2.01562.65625-2.25,1.875l-1.5,6.63606v3.2941c.00173.5962.23934,1.1675.66092,1.5891.42159.4215.99288.6592,1.58908.6609h14.99999c.5962-.0017,1.1675-.2394,1.5891-.6609.4216-.4216.6592-.9929.6609-1.5891v-3.2941l-1.5-6.63606c-.2344-1.26562-1.0781-1.875-2.25-1.875h-1.0616" fill="none" stroke="#0061ff" stroke-width="1.5" stroke-linejoin="round"/><path id="eHga0p9oesu4" d="M17.0882,11.4044v1.364568-4.518968" fill="none" stroke="#0061ff" stroke-width="1.5" stroke-linejoin="round"/><path id="eHga0p9oesu5" d="M7,7.202788v4.201612" transform="translate(0 1)" fill="none" stroke="#0061ff" stroke-width="1.5" stroke-linejoin="round"/><path d="M2.44531,16.6617h6.75h5.99999h6.75" fill="none" stroke="#0061ff" stroke-width="1.5" stroke-linecap="round" stroke-linejoin="round"/><g><g id="eHga0p9oesu8" transform="translate(0 -0.067985)"><path id="eHga0p9oesu9" d="M17.0882,11.4044v-.635432-4.518968c0-1.24264-1.0073-2.297212-2.25-2.297212h-5.5882c-1.24264,0-2.25,1.00736-2.25,2.25v5.201612" fill="none" stroke="#0061ff" stroke-width="1.5" stroke-linejoin="round"/></g></g><path d="M12.0441,8.2022v0" fill="none" stroke="#3f5787" stroke-width="0.5"/><path d="M12.0441,8.2022v0" fill="none" stroke="#3f5787" stroke-width="0.5"/><path d="M6,13h6.2279h5.9674" fill="none" stroke="#0061ff" stroke-width="1.5" stroke-linecap="round" stroke-linejoin="round"/></g><g id="eHga0p9oesu15" transform="matrix(1 0 0 0.936339 -9.445304 -10.928108)"><g transform="translate(0 0.048143)"><path id="eHga0p9oesu17" d="M19.646659,21.451857c0,0,1.198441,1.393243,1.198441,1.393243.0832.0832.2198.077.2951-.0133C21.1402,22.8318,23.5,20,23.5,20" transform="translate(-0.205269 -2.148393)" paint-order="stroke fill markers" fill="none" fill-rule="evenodd" stroke="#0061ff" stroke-width="1.5" stroke-linecap="round" stroke-dasharray="6"/></g></g>
<script><![CDATA[]]></script>
</svg>
