<svg id="e3ZnzYAx2SK1" xmlns="http://www.w3.org/2000/svg" xmlns:xlink="http://www.w3.org/1999/xlink" viewBox="0 0 32 32" shape-rendering="geometricPrecision" text-rendering="geometricPrecision" style="cursor:pointer"><g transform="translate(4 3.625)"><path d="M2.250001,13.815227c0,0-.000001-1.065227-.000001-1.065227l1.5-7.125C3.98438,4.40625,4.78125,3.75,6,3.75h12c1.1719,0,2.0156.60938,2.25,1.875l1.5,7.125.000001,1.065227" transform="translate(.000947 0)" fill="none" stroke="#0044b3" stroke-width="1.5" stroke-linejoin="round"/><g><path id="e3ZnzYAx2SK7" d="M6,9.75h12" fill="none" stroke="#0044b3" stroke-width="1.5" stroke-linecap="round" stroke-linejoin="round" stroke-dasharray="12"/><path id="e3ZnzYAx2SK8" d="M6.75,6.75h10.5" fill="none" stroke="#0044b3" stroke-width="1.5" stroke-linecap="round" stroke-linejoin="round" stroke-dasharray="10.5"/></g><g id="e3ZnzYAx2SK9" transform="translate(0 2)"><path d="M2.25,12.75h6.75c0,.7956.31607,1.5587.87868,2.1213s1.32572.8787,2.12132.8787s1.5587-.3161,2.1213-.8787.8787-1.3257.8787-2.1213h6.75" transform="translate(0-1.942928)" fill="none" stroke="#0044b3" stroke-width="1.5" stroke-linecap="round" stroke-linejoin="round"/><path d="M2.25,12.75v5.25c.00173.5962.23934,1.1675.66092,1.5891s.99288.6592,1.58908.6609h15c.5962-.0017,1.1675-.2393,1.5891-.6609s.6592-.9929.6609-1.5891v-5.25" transform="translate(0-1.942928)" fill="none" stroke="#0044b3" stroke-width="1.5" stroke-linejoin="round"/></g></g><script><![CDATA[]]></script></svg>