<svg id="eDi3AOmSGXe1" xmlns="http://www.w3.org/2000/svg" xmlns:xlink="http://www.w3.org/1999/xlink" viewBox="0 0 32 32" shape-rendering="geometricPrecision" text-rendering="geometricPrecision" project-id="27a76bff1403419d8140660f5a4c4021" export-id="57d2d9737c364f1a9759c5515a11f7ad" cached="false" style="background-color:transparent;cursor:pointer"><g><path d="M5.167,26.004c-1.698.164-3.037,1.6-3.037,3.33c0,0,0,.785,0,.785c0,.424.327.75.751.75c0,0,18.809,0,18.809,0c.199988.00327.392761-.074664.534287-.216001s.219717-.334007.216713-.533999c0,0,0-.784,0-.784c0-1.73-1.339-3.167-3.037-3.33c0,0-14.237,0-14.237,0s0-.001,0-.001s0,0,0,0Z" fill="#0061ff" fill-rule="evenodd" stroke="#0061ff" stroke-width="0.25"/><path d="M20.905,29.334c.000531-.484978-.19189-.950246-.534822-1.293178s-.8082-.535353-1.293178-.534822c0,0-13.649,0-13.649,0-.485152-.000532-.950572.192027-1.293532.535175s-.535265.808673-.534468,1.293825c0,0,0,.033,0,.033s17.305-.033,17.305-.033s0-.001,0-.001s0,0,0,0Z" fill="#fff" fill-rule="evenodd" stroke="#0061ff" stroke-width="0.25"/></g><g id="eDi3AOmSGXe5" transform="translate(-.326795 0.201308)"><path d="M28.64,19.8c0,0-6.987-6.237-6.987-6.237.769577-.979501,1.427009-2.042126,1.96-3.168.195.066.424.098.62.098.62,0,1.24-.228,1.697-.685.458957-.445802.718259-1.058172.719-1.698c0-.653-.262-1.24-.719-1.698c0,0-4.538-4.572-4.538-4.572-.44818-.454383-1.059777-.71018-1.698-.71018s-1.24982.255797-1.698.71018c-.458494.446035-.717407,1.058341-.718,1.698c0,.228.032.424.098.62-1.698.784-3.462,2.024-5.029,3.592-1.633,1.632-2.84,3.363-3.592,5.028-.816-.229-1.698-.033-2.318.62-.454383.44818-.71018,1.059777-.71018,1.698s.255797,1.24982.71018,1.698c0,0,4.539,4.572,4.539,4.572.452936.444212,1.063615.69057,1.698.685.62,0,1.24-.228,1.697-.685.458957-.445802.718259-1.058172.719-1.698c0-.229-.033-.425-.098-.62c1.045-.458,2.122-1.143,3.167-1.96c0,0,6.204,6.955,6.204,6.955.555.62,1.339.98,2.155,1.012c0,0,.098,0,.098,0c.816,0,1.567-.326,2.122-.881.593544-.582752.913787-1.388806.882-2.22c0-.817-.392-1.6-.98-2.156c0,0,0,.002,0,.002s0,0,0,0Z" fill="#0061ff" stroke="#0061ff" stroke-width="0.25"/><path d="M19.04,2.918c.164931-.164821.387843-.258509.621-.261.229,0,.457.098.62.261c0,0,4.54,4.539,4.54,4.539.164214.164846.257515.387333.26.62-.002485.232667-.095786.455154-.26.62-.167075.172421-.39691.269748-.637.269748s-.469925-.097327-.637-.269748c0,0-4.507-4.504-4.507-4.504-.164947-.164523-.258983-.387049-.262-.62.00228-.243132.095787-.476542.262-.654c0,0,0-.001,0-.001s0,0,0,0Z" fill="#fff" stroke="#0061ff" stroke-width="0.25"/><path d="M14.144,17.743c0,0-4.082-4.114-4.082-4.114.653-1.502,1.764-3.167,3.364-4.8c1.502-1.502,3.2-2.677,4.767-3.396c0,0,4.114,4.115,4.114,4.115-.686,1.6-1.861,3.265-3.396,4.767-1.6,1.665-3.265,2.775-4.767,3.428c0,0,0,0,0,0Z" fill="#fff" stroke="#0061ff" stroke-width="0.25"/><path d="M27.694,23.098c-.288907.298901-.695346.454519-1.11.425-.424,0-.816-.196-1.077-.49c0,0-6.204-6.955-6.204-6.955.229-.229.49-.457.718-.686.229-.228.457-.457.686-.718c0,0,6.922,6.237,6.922,6.237.327.293.49.652.49,1.077.033.425-.13.816-.424,1.11c0,0-.001,0-.001,0s0,0,0,0Z" fill="#fff" stroke="#0061ff" stroke-width="0.25"/><path d="M13.295,20.29c-.167041.172107-.396659.269232-.6365.269232s-.469459-.097125-.6365-.269232c0,0-4.542-4.54-4.542-4.54-.172107-.167041-.269232-.396659-.269232-.6365s.097125-.469459.269232-.6365c.164931-.164821.387843-.258509.621-.261.229,0,.457.098.62.261c0,0,4.54,4.539,4.54,4.539.391.359.391.914.032,1.273c0,0,.002.001.002.001s0,0,0,0Z" fill="#fff" stroke="#0061ff" stroke-width="0.25"/></g>
<script><![CDATA[]]></script>
</svg>
