<svg id="eA2KDqNP3G51" xmlns="http://www.w3.org/2000/svg" xmlns:xlink="http://www.w3.org/1999/xlink" viewBox="0 0 32 32" shape-rendering="geometricPrecision" text-rendering="geometricPrecision" style="cursor:pointer"><g id="eA2KDqNP3G52" transform="translate(4 3.976561)"><path id="eA2KDqNP3G53" d="M15.75,9.75c-.015943-1.78125,0-3.291944,0-4.45312c0-.959494-.3951-1.94839-1.0983-2.65166s-1.6571-1.09834-2.6517-1.09834-1.9484.39508-2.65165,1.09834-1.09835,1.65709-1.09835,2.65166v4.45312" transform="translate(-.043065 0)" fill="none" stroke="#0044b3" stroke-width="1.5" stroke-linecap="round" stroke-linejoin="round" stroke-dasharray="30"/><path d="M17.25,9.75h-10.5C5.50736,9.75,4.5,10.7574,4.5,12v8.25c0,1.2426,1.00736,2.25,2.25,2.25h10.5c1.2426,0,2.25-1.0074,2.25-2.25v-8.25c0-1.2426-1.0074-2.25-2.25-2.25Z" fill="none" stroke="#0044b3" stroke-width="1.5" stroke-linecap="round" stroke-linejoin="round"/></g><script><![CDATA[]]></script></svg>