<svg id="ewCybegck7n1" xmlns="http://www.w3.org/2000/svg" xmlns:xlink="http://www.w3.org/1999/xlink" viewBox="0 0 32 32" shape-rendering="geometricPrecision" text-rendering="geometricPrecision" style="cursor:pointer"><g transform="translate(4 4)"><path id="ewCybegck7n3" d="M14.25,15.75v1.875c0,1.035534-.839466,1.875-1.875,1.875h-7.5C3.839466,19.5,3,18.660534,3,17.625v-11.25C3,5.339466,3.839466,4.5,4.875,4.5h7.125c1.036,0,2.25.84,2.25,1.875v1.875" fill="none" stroke="#0044b3" stroke-width="1.5" stroke-linecap="round" stroke-linejoin="round" stroke-dashoffset="50" stroke-dasharray="100"/><path d="M17.25,15.75L21,12m0,0c0,0-3.75-3.75-3.75-3.75M21,12c0,0-3.047012,0-3.047012,0" transform="translate(23.076082 0)" fill="none" stroke="#0044b3" stroke-width="1.5" stroke-linecap="round" stroke-linejoin="round"/><path id="ewCybegck7n6" d="M25.775002,15.75L29.521682,12m0,0l-3.74668-3.75M29.521682,12h-12.816227" transform="translate(-8.517056 0)" fill="none" stroke="#0044b3" stroke-width="1.5" stroke-linecap="round" stroke-linejoin="round"/></g><script><![CDATA[]]></script></svg>