<svg id="postholf-ms-svg" xmlns="http://www.w3.org/2000/svg" xmlns:xlink="http://www.w3.org/1999/xlink" viewBox="0 0 32 32" shape-rendering="geometricPrecision" text-rendering="geometricPrecision" style="cursor:pointer"><g id="postholf-ms-svg-u-postholf"><path id="postholf-ms-svg-u-envelope" d="M25.75,10.375c0-1.03553-.8395-1.875-1.875-1.875c0,0-7.875,0-7.875,0s-7.875,0-7.875,0c-1.03553,0-1.875.83947-1.875,1.875v11.25c0,1.0355.83947,1.875,1.875,1.875h7.875h7.875c1.0355,0,1.875-.8395,1.875-1.875v-11.25Z" transform="matrix(1 0 0 1.00282 0-.045184)" fill="none" stroke="#0044b3" stroke-width="1.5" stroke-linecap="round" stroke-linejoin="round"/><path id="postholf-ms-svg-u-line-closed" d="M9.25,11.5L16,16.75l6.75-5.25" opacity="0" fill="none" stroke="#0044b3" stroke-width="1.5" stroke-linecap="round" stroke-linejoin="round"/><path id="postholf-ms-svg-u-line-move" d="M9.25,11.5L16,16.75c0,0,6.75-5.25,6.75-5.25" fill="none" stroke="#0044b3" stroke-width="1.5" stroke-linecap="round" stroke-linejoin="round"/></g></svg>
  