<svg cache-id="2f43084c1b3d4e42950c49e794a838c9" id="ewgOroGbfLV1" xmlns="http://www.w3.org/2000/svg" xmlns:xlink="http://www.w3.org/1999/xlink" viewBox="0 0 32 32" shape-rendering="geometricPrecision" text-rendering="geometricPrecision" style="cursor:pointer"><g transform="translate(4.000014 4)"><g id="ewgOroGbfLV3"><path id="ewgOroGbfLV4" d="M7.5,15.75v-13.5L9,3l1.5-.75L11.9972,3l1.5173-.75L15,3l1.4902-.75L17.9869,3c0,0,1.5131-.75,1.5131-.75s1.5005.75,1.5005.75L22.5,2.25c0,0,0,13.5,0,13.5" transform="translate(-.159721 0)" fill="none" stroke="#0044b3" stroke-width="1.5" stroke-linejoin="round"/><path id="ewgOroGbfLV5" d="M10.5,6.75h9" transform="translate(-.159721 0)" fill="none" stroke="#0044b3" stroke-width="1.5" stroke-linecap="round" stroke-linejoin="round" stroke-dashoffset="20" stroke-dasharray="10"/><path id="ewgOroGbfLV6" d="M13.5,10.5h6" transform="translate(-.159721 0)" fill="none" stroke="#0044b3" stroke-width="1.5" stroke-linecap="round" stroke-linejoin="round" stroke-dashoffset="20" stroke-dasharray="10"/></g><path id="ewgOroGbfLV7" d="M16.0983,20.6516c.7033.7033,1.6571,1.0984,2.6517,1.0984h-13.5c-2.83228,0-3.54352-1.5305-3.70581-3.75C1.5097,17.5284,1.5,17.0257,1.5,16.5c-.00088-.0987.01792-.1967.05531-.288s.09259-.1745.16241-.2443.15284-.125.24423-.1624.18931-.0562.28805-.0553c0,0,12.75,0,12.75,0s0,2.25,0,2.25.3951,1.9484,1.0983,2.6516Z" fill="#fff" stroke="#0044b3" stroke-width="1.5" stroke-linejoin="round"/><path d="M22.5,15.75v2.25c0,.9946-.3951,1.9484-1.0983,2.6516-.7033.7033-1.6571,1.0984-2.6517,1.0984" transform="translate(-.159721 0)" fill="none" stroke="#0044b3" stroke-width="1.5" stroke-linejoin="round"/></g><script><![CDATA[]]></script></svg>