<svg id="eEhIQFj01l21" xmlns="http://www.w3.org/2000/svg" xmlns:xlink="http://www.w3.org/1999/xlink" viewBox="0 0 32 32" shape-rendering="geometricPrecision" text-rendering="geometricPrecision" style="cursor:pointer"><g transform="translate(4 3.999245)"><path id="eEhIQFj01l23" d="M19.2825,6.75v-1.40625c-.0001-.3449-.0763-.68553-.2233-.99758s-.3608-.58783-.6266-.80766-.5768-.37829-.9109-.46409-.6829-.0968-1.0217-.03223L4.155,5.14922c-.5361.10216-1.01974.38821-1.36751.8088s-.53786.94936-.53749,1.49511v2.29687" transform="translate(.10225 0)" fill="none" stroke="#0044b3" stroke-width="1.5" stroke-linejoin="round"/><path id="eEhIQFj01l24" d="M19.5,6.75h-15C3.25736,6.75,2.25,7.75736,2.25,9v9c0,1.2426,1.00736,2.25,2.25,2.25h15c1.2426,0,2.25-1.0074,2.25-2.25v-9c0-1.24264-1.0074-2.25-2.25-2.25Z" transform="matrix(.98 0 0 0.98 0.118512 0.131106)" fill="#0044b3"/><path d="M19.5,6.75h-15C3.25736,6.75,2.25,7.75736,2.25,9v9c0,1.2426,1.00736,2.25,2.25,2.25h15c1.2426,0,2.25-1.0074,2.25-2.25v-9c0-1.24264-1.0074-2.25-2.25-2.25Z" fill="#fff" stroke="#0044b3" stroke-width="1.5" stroke-linejoin="round"/><path d="M17.25,15c-.2967,0-.5867-.088-.8334-.2528-.2466-.1648-.4389-.3991-.5524-.6732s-.1433-.5757-.0854-.8666.2008-.5583.4105-.7681c.2098-.2097.4771-.3526.7681-.4105s.5925-.0282.8666.0854.5084.3058.6732.5524.2528.5367.2528.8334c0,.3978-.158.7794-.4393,1.0607s-.6629.4393-1.0607.4393Z" fill="#0044b3"/></g>
<script><![CDATA[
]]></script>
</svg>
