<svg width="102" height="24" viewBox="0 0 102 24" fill="none" xmlns="http://www.w3.org/2000/svg">
<path d="M73.2281 19.7647C73.2281 22.1038 71.343 24 69.0175 24C66.6921 24 64.807 22.1038 64.807 19.7647C64.807 17.4256 66.6921 15.5294 69.0175 15.5294C71.343 15.5294 73.2281 17.4256 73.2281 19.7647Z" fill="#00003C"/>
<path d="M97.7895 19.7647C97.7895 22.1038 95.9044 24 93.5789 24C91.2535 24 89.3684 22.1038 89.3684 19.7647C89.3684 17.4256 91.2535 15.5294 93.5789 15.5294C95.9044 15.5294 97.7895 17.4256 97.7895 19.7647Z" fill="#00003C"/>
<path d="M76.0351 0H102V14.1176H76.0351V0Z" fill="#00003C"/>
<path fill-rule="evenodd" clip-rule="evenodd" d="M74.6316 15.5294H89.8673C89.0382 16.2652 88.4259 17.2425 88.1417 18.3529H74.4548C73.8316 15.9173 71.6335 14.1176 69.0175 14.1176C66.4016 14.1176 64.2035 15.9173 63.5803 18.3529H62V10.5882L65.1579 3.52941H74.6316V15.5294ZM63.4035 10.6558V11.2941H71.1228V4.94118H65.8596L63.4035 10.6558Z" fill="#00003C"/>
<path d="M102 15.5294V18.3529H99.0162C98.732 17.2425 98.1197 16.2652 97.2906 15.5294H102Z" fill="#00003C"/>
<path d="M16.3344 20.3759V17.8079H20.9424V5.90394H20.7264L17.0784 10.2239L15.1104 8.56794L19.2624 3.62394H24.0384V17.8079H27.8784V20.3759H16.3344Z" fill="#00003C"/>
<path d="M7.224 20.6639C6.12 20.6639 5.12 20.4879 4.224 20.1359C3.344 19.7679 2.584 19.2239 1.944 18.5039C1.32 17.7839 0.84 16.8959 0.504 15.8399C0.168 14.7679 0 13.5279 0 12.1199C0 10.7119 0.168 9.46394 0.504 8.37594C0.84 7.27194 1.32 6.35194 1.944 5.61594C2.584 4.86394 3.344 4.29594 4.224 3.91194C5.12 3.52794 6.12 3.33594 7.224 3.33594C8.728 3.33594 9.976 3.65594 10.968 4.29594C11.96 4.93594 12.752 5.90394 13.344 7.19994L10.632 8.63994C10.392 7.88794 10 7.28794 9.456 6.83994C8.912 6.37594 8.168 6.14394 7.224 6.14394C6.04 6.14394 5.096 6.54394 4.392 7.34394C3.704 8.14394 3.36 9.26394 3.36 10.7039V13.3439C3.36 14.7999 3.704 15.9199 4.392 16.7039C5.096 17.4719 6.04 17.8559 7.224 17.8559C8.168 17.8559 8.936 17.5999 9.528 17.0879C10.136 16.5759 10.576 15.9439 10.848 15.1919L13.416 16.7039C12.808 17.9519 12 18.9279 10.992 19.6319C9.984 20.3199 8.728 20.6639 7.224 20.6639Z" fill="#00003C"/>
</svg>
