<svg width="156" height="24" viewBox="0 0 156 24" fill="none" xmlns="http://www.w3.org/2000/svg">
<path d="M130.025 15.5294C132.352 15.5294 134.238 17.4256 134.238 19.7647C134.238 22.1038 132.352 24 130.025 24C127.699 24 125.813 22.1038 125.813 19.7647C125.813 17.4256 127.699 15.5294 130.025 15.5294Z" fill="#00003C"/>
<path d="M146.874 15.5294C149.201 15.5294 151.087 17.4256 151.087 19.7647C151.087 22.1038 149.201 24 146.874 24C144.548 24 142.662 22.1038 142.662 19.7647C142.662 17.4256 144.548 15.5294 146.874 15.5294Z" fill="#00003C"/>
<path d="M126.312 15.5294C125.483 16.2652 124.87 17.2425 124.586 18.3529H122.303V15.5294H126.312Z" fill="#00003C"/>
<path d="M143.161 15.5294C142.332 16.2652 141.719 17.2425 141.435 18.3529H135.465C135.181 17.2425 134.568 16.2652 133.739 15.5294H143.161Z" fill="#00003C"/>
<path d="M156.001 18.3529H152.314C152.03 17.2425 151.417 16.2652 150.588 15.5294H156.001V18.3529Z" fill="#00003C"/>
<path d="M156.001 14.1176H124.409V0H156.001V14.1176Z" fill="#00003C"/>
<path fill-rule="evenodd" clip-rule="evenodd" d="M114.829 0C116.255 7.94402e-05 117.52 0.922436 117.971 2.28979L120.529 10.0465V18.4186C120.529 19.3434 119.788 20.093 118.873 20.093H111.115C111.133 19.9094 111.143 19.7233 111.143 19.5349C111.143 16.4524 108.671 13.9535 105.621 13.9535C102.572 13.9535 100.1 16.4524 100.1 19.5349C100.1 19.7233 100.109 19.9094 100.127 20.093H80.1946C80.2126 19.9094 80.2221 19.7233 80.2221 19.5349C80.2221 16.4524 77.75 13.9535 74.7005 13.9535C71.6511 13.9535 69.179 16.4524 69.179 19.5349C69.179 19.7233 69.1884 19.9094 69.2065 20.093H63.6574C62.7426 20.093 62.001 19.3434 62.001 18.4186V10.0465L64.7925 2.7907H63.6574V0H114.829ZM63.6574 10.6047H72.4919V2.7907H66.6943L63.6574 10.6047ZM73.5962 10.6047H81.6024L79.3938 2.7907H73.5962V10.6047ZM82.9828 10.6047H90.4369L88.2283 2.7907H80.7742L82.9828 10.6047ZM91.8173 10.6047H99.2714L97.0627 2.7907H89.6087L91.8173 10.6047ZM100.652 10.6047H108.106L105.897 2.7907H98.4431L100.652 10.6047ZM109.486 10.6047H116.94L114.732 2.7907H107.278L109.486 10.6047Z" fill="#00003C"/>
<path d="M79.1177 19.5349C79.1177 22.0009 77.1401 24 74.7005 24C72.2609 24 70.2833 22.0009 70.2833 19.5349C70.2833 17.0689 72.2609 15.0698 74.7005 15.0698C77.1401 15.0698 79.1177 17.0689 79.1177 19.5349Z" fill="#00003C"/>
<path d="M110.038 19.5349C110.038 22.0009 108.061 24 105.621 24C103.182 24 101.204 22.0009 101.204 19.5349C101.204 17.0689 103.182 15.0698 105.621 15.0698C108.061 15.0698 110.038 17.0689 110.038 19.5349Z" fill="#00003C"/>
<path d="M16.5469 20.375V3.62305H27.5869V6.43105H19.7149V10.487H26.6749V13.295H19.7149V17.567H27.5869V20.375H16.5469Z" fill="#00003C"/>
<path d="M0 3.62305H6.096C7.184 3.62305 8.168 3.79905 9.048 4.15105C9.944 4.50305 10.704 5.03105 11.328 5.73505C11.968 6.42305 12.456 7.29505 12.792 8.35105C13.144 9.39105 13.32 10.607 13.32 11.999C13.32 13.391 13.144 14.615 12.792 15.671C12.456 16.711 11.968 17.583 11.328 18.287C10.704 18.975 9.944 19.495 9.048 19.847C8.168 20.199 7.184 20.375 6.096 20.375H0V3.62305ZM6.096 17.567C7.28 17.567 8.216 17.223 8.904 16.535C9.608 15.831 9.96 14.759 9.96 13.319V10.679C9.96 9.23905 9.608 8.17505 8.904 7.48705C8.216 6.78305 7.28 6.43105 6.096 6.43105H3.168V17.567H6.096Z" fill="#00003C"/>
</svg>
