<svg width="91" height="24" viewBox="0 0 91 24" fill="none" xmlns="http://www.w3.org/2000/svg">
<path fill-rule="evenodd" clip-rule="evenodd" d="M66.5516 14.7692C69.0653 14.7692 71.1031 16.8356 71.1031 19.3846C71.1031 21.9336 69.0653 24 66.5516 24C64.0378 24 62 21.9336 62 19.3846C62 16.8356 64.0378 14.7692 66.5516 14.7692ZM66.5516 16.0879C64.756 16.0879 63.3004 17.5639 63.3004 19.3846C63.3004 21.2053 64.756 22.6813 66.5516 22.6813C68.3471 22.6813 69.8027 21.2053 69.8027 19.3846C69.8027 17.5639 68.3471 16.0879 66.5516 16.0879Z" fill="#00003C"/>
<path fill-rule="evenodd" clip-rule="evenodd" d="M86.4484 14.7692C88.9622 14.7692 91 16.8356 91 19.3846C91 21.9336 88.9622 24 86.4484 24C83.9347 24 81.8969 21.9336 81.8969 19.3846C81.8969 16.8356 83.9347 14.7692 86.4484 14.7692ZM86.4484 16.0879C84.6529 16.0879 83.1973 17.5639 83.1973 19.3846C83.1973 21.2053 84.6529 22.6813 86.4484 22.6813C88.244 22.6813 89.6996 21.2053 89.6996 19.3846C89.6996 17.5639 88.244 16.0879 86.4484 16.0879Z" fill="#00003C"/>
<path d="M75.6225 4.93372C76.7774 4.06379 78.4096 4.30981 79.265 5.48283L81.8387 9.01288L78.4646 11.4568L75.6979 7.68003L70.9916 11.2281C71.2573 11.7978 71.584 12.1527 71.8834 12.3956C72.4222 12.8327 72.9612 13.088 73.574 13.1629V12.9231C73.574 12.3404 74.0398 11.8681 74.6144 11.8681H79.2393L82.3027 9.6493L83.2428 10.9384C83.4499 11.2225 83.5757 11.5419 83.6255 11.8681H88.3991C88.6864 11.8681 88.9193 12.1043 88.9193 12.3956V13.1868C88.9193 13.4781 88.6864 13.7143 88.3991 13.7143H86.0583C83.4727 13.7143 81.3767 15.8397 81.3767 18.4615V21.0989H74.6144C72.0135 21.0989 72.7937 17.2747 70.713 15.4286C70.1594 14.9374 69.0224 13.978 67.4619 13.978C65.9013 13.978 65.6413 12.9231 65.6413 11.7363C65.6413 10.5495 66.6816 9.75824 67.722 9.23077C68.5543 8.80879 69.8894 8.35165 70.4529 8.17582C70.4529 8.37919 70.458 8.57312 70.4669 8.75816L75.6225 4.93372Z" fill="#00003C"/>
<path d="M76.435 0C78.0151 0 79.296 1.29887 79.296 2.9011C79.296 3.45059 79.1449 3.96416 78.8832 4.40213C77.8411 3.71068 76.4493 3.69668 75.3776 4.46188L74.558 5.27473H73.574V3.69231H75.6547V2.10989H73.6827C74.0224 0.892355 75.1255 0 76.435 0Z" fill="#00003C"/>
<path d="M11.832 20.375L10.488 16.103H4.536L3.216 20.375H0L5.616 3.62305H9.552L15.12 20.375H11.832ZM7.56 6.50305H7.44L5.304 13.391H9.72L7.56 6.50305Z" fill="#00003C"/>
</svg>
