<svg width="102" height="24" viewBox="0 0 102 24" fill="none" xmlns="http://www.w3.org/2000/svg">
<path d="M77.5234 0.038684C78.1187 -0.121557 78.7313 0.230584 78.8916 0.825793C79.0518 1.42105 78.6987 2.03362 78.1035 2.19396L73.6982 3.38048L71.7383 6.60704C72.7049 6.54643 73.792 6.51135 75.0234 6.51134C77.5536 6.51134 79.3031 8.24757 79.8613 9.11583H86.373V7.25548H94.7451V8.55822C98.2796 8.55821 99.0242 8.52079 99.0244 9.11583C99.0244 9.86003 98.6521 9.67443 93.8145 9.67443C87.5635 9.67455 85.8765 16.4959 85.8145 19.9068H79.8613C77.1818 12.3786 74.0646 9.9256 71.5303 9.12755L71.1367 10.6109C73.8318 11.5442 75.7676 14.1042 75.7676 17.1168C75.7674 20.9184 72.6854 24.0006 68.8838 24.0006C65.0822 24.0006 62.0002 20.9185 62 17.1168C62 13.315 65.082 10.233 68.8838 10.233C69.2834 10.233 69.6747 10.2683 70.0557 10.3336L70.4434 8.87072C69.7194 8.75241 69.0657 8.74377 68.5127 8.74376C65.1644 8.74376 63.6342 11.0482 63.1172 10.7906C62.0013 10.2325 62.9307 8.74384 64.791 7.99962C65.4622 7.73116 66.2306 7.46362 67.209 7.23009V4.27989H70.54L72.2549 1.45665L77.5234 0.038684ZM94.1846 10.233C97.9863 10.2331 101.068 13.315 101.068 17.1168C101.068 20.9185 97.9862 24.0006 94.1846 24.0006C90.3829 24.0006 87.301 20.9185 87.3008 17.1168C87.3008 13.315 90.3828 10.233 94.1846 10.233ZM94.1846 12.0934C91.4103 12.0934 89.1611 14.3425 89.1611 17.1168C89.1613 19.891 91.4104 22.1402 94.1846 22.1402C96.9587 22.1402 99.2078 19.8909 99.208 17.1168C99.208 14.3425 96.9588 12.0934 94.1846 12.0934ZM68.8838 12.0934C66.1095 12.0934 63.8604 14.3425 63.8604 17.1168C63.8606 19.8909 66.1097 22.1393 68.8838 22.1393C71.6579 22.1392 73.907 19.8909 73.9072 17.1168C73.9072 14.9673 72.5566 13.1338 70.6582 12.4166L69.7852 15.7067C70.2498 16.0042 70.5586 16.5241 70.5586 17.1168C70.5584 18.0415 69.8085 18.7906 68.8838 18.7906C67.9593 18.7904 67.2101 18.0413 67.21 17.1168C67.21 16.2552 67.8605 15.5457 68.6973 15.4527L69.5762 12.1412C69.3498 12.11 69.1187 12.0934 68.8838 12.0934ZM94.1846 15.442C95.1093 15.442 95.8594 16.192 95.8594 17.1168C95.8592 18.0415 95.1092 18.7906 94.1846 18.7906C93.2601 18.7904 92.5109 18.0413 92.5107 17.1168C92.5107 16.1922 93.26 15.4422 94.1846 15.442Z" fill="#00003C"/>
<path d="M17.805 20.377V17.809H22.413V5.905H22.197L18.549 10.225L16.581 8.569L20.733 3.625H25.509V17.809H29.349V20.377H17.805Z" fill="#00003C"/>
<path d="M11.832 20.377L10.488 16.105H4.536L3.216 20.377H0L5.616 3.625H9.552L15.12 20.377H11.832ZM7.56 6.505H7.44L5.304 13.393H9.72L7.56 6.505Z" fill="#00003C"/>
</svg>
