<svg width="102" height="24" viewBox="0 0 102 24" fill="none" xmlns="http://www.w3.org/2000/svg">
<path d="M77.5234 0.0385769C78.1186 -0.121565 78.7313 0.231503 78.8916 0.826663C79.0516 1.42181 78.6986 2.03452 78.1035 2.19483L73.6982 3.38037L71.7373 6.60791C72.7041 6.54726 73.7916 6.51222 75.0234 6.51221C77.5537 6.51221 79.3032 8.24847 79.8613 9.1167H86.373V7.25635H94.7451V8.55811C98.2802 8.55811 99.0244 8.52136 99.0244 9.1167C99.0244 9.86079 98.6519 9.67432 93.8145 9.67432C87.5634 9.67444 85.8765 16.4968 85.8145 19.9077H79.8613C77.1818 12.3795 74.0646 9.9265 71.5303 9.12842L71.1367 10.6118C73.8317 11.5451 75.7675 14.1042 75.7676 17.1167C75.7676 20.9185 72.6855 24.0005 68.8838 24.0005C65.082 24.0005 62 20.9185 62 17.1167C62.0001 13.315 65.0821 10.2329 68.8838 10.2329C69.2833 10.2329 69.6748 10.2682 70.0557 10.3335L70.4434 8.87158C69.7193 8.75327 69.0657 8.74464 68.5127 8.74463C65.1648 8.74463 63.6344 11.0485 63.1172 10.7915C62.0014 10.2334 62.9308 8.74473 64.791 8.00049C65.4621 7.73204 66.2307 7.46448 67.209 7.23096V4.27979H70.541L72.2549 1.45752L77.5234 0.0385769ZM94.1846 10.2329C97.9862 10.2329 101.068 13.315 101.068 17.1167C101.068 20.9185 97.9863 24.0005 94.1846 24.0005C90.3828 24.0005 87.3008 20.9185 87.3008 17.1167C87.3009 13.315 90.3829 10.2329 94.1846 10.2329ZM68.8838 12.0933C66.1096 12.0933 63.8604 14.3425 63.8604 17.1167C63.8604 19.891 66.1095 22.1401 68.8838 22.1401C71.658 22.1401 73.9072 19.891 73.9072 17.1167C73.9072 14.9672 72.5566 13.1336 70.6582 12.4165L69.7852 15.7075C70.2496 16.0051 70.5585 16.5242 70.5586 17.1167C70.5586 18.0415 69.8085 18.7915 68.8838 18.7915C67.9592 18.7913 67.21 18.0413 67.21 17.1167C67.2101 16.2553 67.8606 15.5466 68.6973 15.4536L69.5762 12.1421C69.3498 12.1109 69.1188 12.0933 68.8838 12.0933ZM94.1846 12.0933C91.4104 12.0933 89.1613 14.3425 89.1611 17.1167C89.1611 19.891 91.4103 22.1401 94.1846 22.1401C96.9588 22.1401 99.208 19.891 99.208 17.1167C99.2079 14.3425 96.9587 12.0933 94.1846 12.0933ZM94.1846 15.4429C95.1092 15.4429 95.8592 16.1921 95.8594 17.1167C95.8594 18.0415 95.1093 18.7915 94.1846 18.7915C93.26 18.7913 92.5107 18.0413 92.5107 17.1167C92.5109 16.1922 93.2601 15.4431 94.1846 15.4429Z" fill="#00003C"/>
<path d="M28.725 20.5205H17.109V17.5925L22.365 12.9845C23.261 12.2005 23.917 11.4965 24.333 10.8725C24.749 10.2325 24.957 9.54447 24.957 8.80847V8.49647C24.957 7.76047 24.717 7.20047 24.237 6.81647C23.757 6.41647 23.173 6.21647 22.485 6.21647C21.621 6.21647 20.965 6.46447 20.517 6.96047C20.069 7.44047 19.749 8.02447 19.557 8.71247L16.821 7.65647C16.997 7.09647 17.245 6.56847 17.565 6.07247C17.885 5.56047 18.285 5.11247 18.765 4.72847C19.261 4.34447 19.837 4.04047 20.493 3.81647C21.149 3.59247 21.901 3.48047 22.749 3.48047C23.629 3.48047 24.413 3.60847 25.101 3.86447C25.789 4.10447 26.365 4.44847 26.829 4.89647C27.309 5.34447 27.669 5.87247 27.909 6.48047C28.165 7.08847 28.293 7.75247 28.293 8.47247C28.293 9.17647 28.181 9.81647 27.957 10.3925C27.733 10.9685 27.429 11.5205 27.045 12.0485C26.661 12.5605 26.213 13.0565 25.701 13.5365C25.189 14.0005 24.645 14.4725 24.069 14.9525L20.541 17.8565H28.725V20.5205Z" fill="#00003C"/>
<path d="M11.832 20.5205L10.488 16.2485H4.536L3.216 20.5205H0L5.616 3.76847H9.552L15.12 20.5205H11.832ZM7.56 6.64847H7.44L5.304 13.5365H9.72L7.56 6.64847Z" fill="#00003C"/>
</svg>
