<svg width="122" height="24" viewBox="0 0 122 24" fill="none" xmlns="http://www.w3.org/2000/svg">
<path d="M76.8598 18.9176C76.8598 21.7246 74.6003 24 71.8131 24C69.0259 24 66.7664 21.7246 66.7664 18.9176C66.7664 16.1107 69.0259 13.8353 71.8131 13.8353C74.6003 13.8353 76.8598 16.1107 76.8598 18.9176Z" fill="#00003C"/>
<path d="M117.794 18.9176C117.794 21.7246 115.535 24 112.748 24C109.96 24 107.701 21.7246 107.701 18.9176C107.701 16.1107 109.96 13.8353 112.748 13.8353C115.535 13.8353 117.794 16.1107 117.794 18.9176Z" fill="#00003C"/>
<path fill-rule="evenodd" clip-rule="evenodd" d="M110.686 0.0672794L122 9.75165V19.2H118.909C118.913 19.1064 118.916 19.0123 118.916 18.9176C118.916 15.487 116.154 12.7059 112.748 12.7059C109.341 12.7059 106.579 15.487 106.579 18.9176C106.579 19.0123 106.582 19.1064 106.587 19.2H77.9742C77.9783 19.1064 77.9813 19.0123 77.9813 18.9176C77.9813 15.487 75.2197 12.7059 71.8131 12.7059C68.4065 12.7059 65.6449 15.487 65.6449 18.9176C65.6449 19.0123 65.6478 19.1064 65.652 19.2H62V11.3338L78.6888 8.77004L87.3979 0H110.608L110.686 0.0672794ZM99.2897 9.88235H113.869V9.03529L107.981 2.82353H99.2897V9.88235ZM81.0654 9.03529V9.88235H97.0467V2.82353H87.514L81.0654 9.03529Z" fill="#00003C"/>
<path d="M0 3.62305H7.752C8.44 3.62305 9.056 3.72705 9.6 3.93505C10.16 4.14305 10.632 4.43105 11.016 4.79905C11.4 5.16705 11.688 5.62305 11.88 6.16705C12.088 6.69505 12.192 7.27905 12.192 7.91905C12.192 8.55905 12.104 9.10305 11.928 9.55105C11.768 9.98305 11.544 10.343 11.256 10.631C10.984 10.919 10.664 11.135 10.296 11.279C9.944 11.423 9.576 11.503 9.192 11.519V11.663C9.56 11.663 9.952 11.735 10.368 11.879C10.8 12.023 11.192 12.255 11.544 12.575C11.912 12.879 12.216 13.279 12.456 13.775C12.696 14.255 12.816 14.855 12.816 15.575C12.816 16.247 12.704 16.879 12.48 17.471C12.272 18.047 11.976 18.551 11.592 18.983C11.208 19.415 10.752 19.759 10.224 20.015C9.696 20.255 9.12 20.375 8.496 20.375H0V3.62305ZM3.168 17.687H7.584C8.192 17.687 8.664 17.535 9 17.231C9.336 16.911 9.504 16.455 9.504 15.863V15.047C9.504 14.455 9.336 13.999 9 13.679C8.664 13.359 8.192 13.199 7.584 13.199H3.168V17.687ZM3.168 10.607H7.08C7.656 10.607 8.104 10.455 8.424 10.151C8.744 9.83105 8.904 9.39105 8.904 8.83105V8.08705C8.904 7.52705 8.744 7.09505 8.424 6.79105C8.104 6.47105 7.656 6.31105 7.08 6.31105H3.168V10.607Z" fill="#00003C"/>
</svg>
