<svg width="151" height="24" viewBox="0 0 151 24" fill="none" xmlns="http://www.w3.org/2000/svg">
<path d="M144.284 18.9474C144.284 21.7379 142.029 24 139.246 24C136.464 24 134.209 21.7379 134.209 18.9474C134.209 16.1569 136.464 13.8947 139.246 13.8947C142.029 13.8947 144.284 16.1569 144.284 18.9474Z" fill="#00003C"/>
<path d="M71.4762 13.5929C74.1674 13.593 76.3491 15.828 76.3492 18.5855C76.3492 21.3432 74.1675 23.5789 71.4762 23.5789C68.785 23.5789 66.6033 21.3432 66.6033 18.5855C66.6034 15.828 68.7851 13.5929 71.4762 13.5929Z" fill="#00003C"/>
<path d="M111.001 13.5929C113.692 13.5929 115.874 15.828 115.874 18.5855C115.874 21.3432 113.692 23.5789 111.001 23.5789C108.31 23.5787 106.128 21.3431 106.128 18.5855C106.128 15.8281 108.31 13.5931 111.001 13.5929Z" fill="#00003C"/>
<path d="M133.613 17.2632C133.455 17.7969 133.369 18.362 133.369 18.9474H121.614V17.2632H133.613Z" fill="#00003C"/>
<path d="M151.001 18.9474H145.124C145.124 18.362 145.038 17.7969 144.879 17.2632H151.001V18.9474Z" fill="#00003C"/>
<path fill-rule="evenodd" clip-rule="evenodd" d="M109.011 0.0657895L119.935 9.58059V18.8635H116.95C116.954 18.7715 116.957 18.6785 116.957 18.5855C116.957 15.2152 114.29 12.4827 111.001 12.4827C107.712 12.4829 105.046 15.2153 105.046 18.5855C105.046 18.6785 105.048 18.7715 105.052 18.8635H77.4249C77.429 18.7715 77.4323 18.6785 77.4323 18.5855C77.4322 15.2152 74.7654 12.4828 71.4762 12.4827C68.187 12.4827 65.5203 15.2152 65.5202 18.5855C65.5202 18.6785 65.5235 18.7715 65.5276 18.8635H62.001V11.1349L78.1153 8.61595L86.5247 0H108.935L109.011 0.0657895ZM80.4095 8.87665V9.70888H95.8409V2.77385H86.6362L80.4095 8.87665ZM98.0064 9.70888H112.084V8.87665L106.399 2.77385H98.0064V9.70888Z" fill="#00003C"/>
<path d="M149.322 2.10526C150.249 2.10526 151.001 2.85931 151.001 3.78947V16.4211H144.557C143.614 14.4297 141.591 13.0526 139.246 13.0526C136.902 13.0526 134.879 14.4297 133.935 16.4211H126.652V3.78947C126.652 2.85931 127.404 2.10526 128.331 2.10526H149.322Z" fill="#00003C"/>
<path d="M15.9141 20.375V3.62305H26.9541V6.43105H19.0821V10.487H26.0421V13.295H19.0821V17.567H26.9541V20.375H15.9141Z" fill="#00003C"/>
<path d="M0 3.62305H7.752C8.44 3.62305 9.056 3.72705 9.6 3.93505C10.16 4.14305 10.632 4.43105 11.016 4.79905C11.4 5.16705 11.688 5.62305 11.88 6.16705C12.088 6.69505 12.192 7.27905 12.192 7.91905C12.192 8.55905 12.104 9.10305 11.928 9.55105C11.768 9.98305 11.544 10.343 11.256 10.631C10.984 10.919 10.664 11.135 10.296 11.279C9.944 11.423 9.576 11.503 9.192 11.519V11.663C9.56 11.663 9.952 11.735 10.368 11.879C10.8 12.023 11.192 12.255 11.544 12.575C11.912 12.879 12.216 13.279 12.456 13.775C12.696 14.255 12.816 14.855 12.816 15.575C12.816 16.247 12.704 16.879 12.48 17.471C12.272 18.047 11.976 18.551 11.592 18.983C11.208 19.415 10.752 19.759 10.224 20.015C9.696 20.255 9.12 20.375 8.496 20.375H0V3.62305ZM3.168 17.687H7.584C8.192 17.687 8.664 17.535 9 17.231C9.336 16.911 9.504 16.455 9.504 15.863V15.047C9.504 14.455 9.336 13.999 9 13.679C8.664 13.359 8.192 13.199 7.584 13.199H3.168V17.687ZM3.168 10.607H7.08C7.656 10.607 8.104 10.455 8.424 10.151C8.744 9.83105 8.904 9.39105 8.904 8.83105V8.08705C8.904 7.52705 8.744 7.09505 8.424 6.79105C8.104 6.47105 7.656 6.31105 7.08 6.31105H3.168V10.607Z" fill="#00003C"/>
</svg>
