<svg width="155" height="24" viewBox="0 0 155 24" fill="none" xmlns="http://www.w3.org/2000/svg">
<path d="M131.787 16.4706C133.866 16.4706 135.551 18.1561 135.551 20.2353C135.551 22.3145 133.866 24 131.787 24C129.708 24 128.023 22.3145 128.023 20.2353C128.023 18.1561 129.708 16.4706 131.787 16.4706Z" fill="#00003C"/>
<path d="M146.844 16.4706C148.923 16.4706 150.608 18.1561 150.608 20.2353C150.608 22.3145 148.923 24 146.844 24C144.765 24 143.08 22.3145 143.08 20.2353C143.08 18.1561 144.765 16.4706 146.844 16.4706Z" fill="#00003C"/>
<path d="M128.469 16.4706C127.727 17.1246 127.18 17.9933 126.926 18.9804H104.071V16.4706H128.469Z" fill="#00003C"/>
<path d="M143.526 16.4706C142.785 17.1246 142.237 17.9933 141.983 18.9804H136.648C136.394 17.9933 135.846 17.1246 135.105 16.4706H143.526Z" fill="#00003C"/>
<path d="M155 18.9804H151.705C151.451 17.9933 150.904 17.1246 150.162 16.4706H155V18.9804Z" fill="#00003C"/>
<path d="M155 15.2157H79.2714V0H155V15.2157Z" fill="#00003C"/>
<path d="M68.1896 16.4705C70.2686 16.4705 71.9539 18.1561 71.9539 20.2352C71.9539 22.3144 70.2686 24 68.1896 24C66.1107 24 64.4254 22.3144 64.4253 20.2352C64.4253 18.1561 66.1107 16.4705 68.1896 16.4705Z" fill="#00003C"/>
<path d="M93.2586 16.4705C95.3375 16.4706 97.0229 18.1561 97.0229 20.2352C97.0229 22.3143 95.3375 23.9999 93.2586 24C91.1797 24 89.4944 22.3144 89.4943 20.2352C89.4943 18.1561 91.1797 16.4705 93.2586 16.4705Z" fill="#00003C"/>
<path fill-rule="evenodd" clip-rule="evenodd" d="M74.3533 16.4705H89.9398C89.1987 17.1244 88.6516 17.9932 88.3976 18.98H74.1595H73.0346C72.4323 16.9311 70.6967 15.4177 68.3713 15.4175C65.9965 15.4175 64.0009 16.9804 63.435 19.0955H62V10.5747L64.8673 4.44444H74.3533V16.4705ZM63.2741 10.6337V11.1875H70.2819V5.67014H65.5039L63.2741 10.6337Z" fill="#00003C"/>
<path d="M101.414 18.98H98.1197C97.8656 17.9931 97.3178 17.1245 96.5766 16.4705H101.414V18.98Z" fill="#00003C"/>
<path d="M7.224 20.6639C6.12 20.6639 5.12 20.4879 4.224 20.1359C3.344 19.7679 2.584 19.2239 1.944 18.5039C1.32 17.7839 0.84 16.8959 0.504 15.8399C0.168 14.7679 0 13.5279 0 12.1199C0 10.7119 0.168 9.46394 0.504 8.37594C0.84 7.27194 1.32 6.35194 1.944 5.61594C2.584 4.86394 3.344 4.29594 4.224 3.91194C5.12 3.52794 6.12 3.33594 7.224 3.33594C8.728 3.33594 9.976 3.65594 10.968 4.29594C11.96 4.93594 12.752 5.90394 13.344 7.19994L10.632 8.63994C10.392 7.88794 10 7.28794 9.456 6.83994C8.912 6.37594 8.168 6.14394 7.224 6.14394C6.04 6.14394 5.096 6.54394 4.392 7.34394C3.704 8.14394 3.36 9.26394 3.36 10.7039V13.3439C3.36 14.7999 3.704 15.9199 4.392 16.7039C5.096 17.4719 6.04 17.8559 7.224 17.8559C8.168 17.8559 8.936 17.5999 9.528 17.0879C10.136 16.5759 10.576 15.9439 10.848 15.1919L13.416 16.7039C12.808 17.9519 12 18.9279 10.992 19.6319C9.984 20.3199 8.728 20.6639 7.224 20.6639Z" fill="#00003C"/>
</svg>
