<svg width="121" height="24" viewBox="0 0 121 24" fill="none" xmlns="http://www.w3.org/2000/svg">
<path fill-rule="evenodd" clip-rule="evenodd" d="M115.254 0C116.691 7.94402e-05 117.967 0.922436 118.421 2.28979L121 10.0465V18.4186C121 19.3434 120.252 20.093 119.33 20.093H111.51C111.528 19.9094 111.538 19.7233 111.538 19.5349C111.538 16.4524 109.046 13.9535 105.972 13.9535C102.898 13.9535 100.406 16.4524 100.406 19.5349C100.406 19.7233 100.415 19.9094 100.433 20.093H80.3402C80.3584 19.9094 80.3679 19.7233 80.3679 19.5349C80.3679 16.4524 77.8759 13.9535 74.8019 13.9535C71.7278 13.9535 69.2358 16.4524 69.2358 19.5349C69.2358 19.7233 69.2454 19.9094 69.2636 20.093H63.6698C62.7476 20.093 62 19.3434 62 18.4186V10.0465L64.814 2.7907H63.6698V0H115.254ZM63.6698 10.6047H72.5755V2.7907H66.7311L63.6698 10.6047ZM73.6887 10.6047H81.7594L79.533 2.7907H73.6887V10.6047ZM83.1509 10.6047H90.6651L88.4387 2.7907H80.9245L83.1509 10.6047ZM92.0566 10.6047H99.5708L97.3443 2.7907H89.8302L92.0566 10.6047ZM100.962 10.6047H108.476L106.25 2.7907H98.7359L100.962 10.6047ZM109.868 10.6047H117.382L115.156 2.7907H107.642L109.868 10.6047Z" fill="#00003C"/>
<path d="M79.2547 19.5349C79.2547 22.0009 77.2611 24 74.8019 24C72.3427 24 70.3491 22.0009 70.3491 19.5349C70.3491 17.0689 72.3427 15.0698 74.8019 15.0698C77.2611 15.0698 79.2547 17.0689 79.2547 19.5349Z" fill="#00003C"/>
<path d="M110.425 19.5349C110.425 22.0009 108.431 24 105.972 24C103.512 24 101.519 22.0009 101.519 19.5349C101.519 17.0689 103.512 15.0698 105.972 15.0698C108.431 15.0698 110.425 17.0689 110.425 19.5349Z" fill="#00003C"/>
<path d="M0 3.62305H6.096C7.184 3.62305 8.168 3.79905 9.048 4.15105C9.944 4.50305 10.704 5.03105 11.328 5.73505C11.968 6.42305 12.456 7.29505 12.792 8.35105C13.144 9.39105 13.32 10.607 13.32 11.999C13.32 13.391 13.144 14.615 12.792 15.671C12.456 16.711 11.968 17.583 11.328 18.287C10.704 18.975 9.944 19.495 9.048 19.847C8.168 20.199 7.184 20.375 6.096 20.375H0V3.62305ZM6.096 17.567C7.28 17.567 8.216 17.223 8.904 16.535C9.608 15.831 9.96 14.759 9.96 13.319V10.679C9.96 9.23905 9.608 8.17505 8.904 7.48705C8.216 6.78305 7.28 6.43105 6.096 6.43105H3.168V17.567H6.096Z" fill="#00003C"/>
</svg>
