<svg width="148" height="24" viewBox="0 0 148 24" fill="none" xmlns="http://www.w3.org/2000/svg">
<path d="M121.723 15.5294C124.05 15.5294 125.936 17.4256 125.936 19.7647C125.936 22.1038 124.05 24 121.723 24C119.397 24 117.511 22.1038 117.511 19.7647C117.511 17.4256 119.397 15.5294 121.723 15.5294Z" fill="#00003C"/>
<path d="M138.573 15.5294C140.899 15.5294 142.785 17.4256 142.785 19.7647C142.785 22.1038 140.899 24 138.573 24C136.246 24 134.36 22.1038 134.36 19.7647C134.36 17.4256 136.246 15.5294 138.573 15.5294Z" fill="#00003C"/>
<path d="M118.01 15.5294C117.181 16.2652 116.568 17.2425 116.284 18.3529H114.001V15.5294H118.01Z" fill="#00003C"/>
<path d="M134.859 15.5294C134.03 16.2652 133.417 17.2425 133.133 18.3529H127.163C126.879 17.2425 126.266 16.2652 125.437 15.5294H134.859Z" fill="#00003C"/>
<path d="M147.699 18.3529H144.012C143.728 17.2425 143.115 16.2652 142.286 15.5294H147.699V18.3529Z" fill="#00003C"/>
<path d="M147.699 14.1176H116.107V0H147.699V14.1176Z" fill="#00003C"/>
<path fill-rule="evenodd" clip-rule="evenodd" d="M105.707 0C106.887 0 107.936 0.762702 108.309 1.89348L111.001 10.0466V18.7085C111.001 19.4731 110.387 20.093 109.63 20.0931H107.975C107.993 19.9095 108.003 19.7232 108.003 19.5347C108.003 16.4524 105.528 13.9535 102.475 13.9534C99.4216 13.9536 96.9461 16.4524 96.9459 19.5347C96.9459 19.7232 96.9555 19.9095 96.9736 20.0931H76.1024C76.1205 19.9095 76.1301 19.7232 76.1301 19.5347C76.13 16.4523 73.6546 13.9534 70.6015 13.9534C67.5485 13.9536 65.0734 16.4524 65.0733 19.5347C65.0733 19.7232 65.0829 19.9095 65.101 20.0931H63.3724C62.615 20.0931 62.001 19.4732 62.001 18.7085V10.0466L64.7956 2.79087H63.6595V0H105.707ZM63.6599 10.605H72.5051V2.79087H66.7006L63.6599 10.605ZM73.6109 10.605H81.627L79.4154 2.79087H73.6109V10.605ZM83.0088 10.605H90.4722L88.2606 2.79087H80.7976L83.0088 10.605ZM91.8544 10.605H99.3174L97.1062 2.79087H89.6427L91.8544 10.605ZM100.7 10.605H108.163L105.951 2.79087H98.4879L100.7 10.605Z" fill="#00003C"/>
<path d="M74.8011 19.6154C74.8011 22.0369 72.8567 24 70.4582 24C68.0597 24 66.1153 22.0369 66.1153 19.6154C66.1153 17.1938 68.0597 15.2308 70.4582 15.2308C72.8567 15.2308 74.8011 17.1938 74.8011 19.6154Z" fill="#00003C"/>
<path d="M106.801 19.6154C106.801 22.0369 104.857 24 102.458 24C100.06 24 98.1156 22.0369 98.1156 19.6154C98.1156 17.1938 100.06 15.2308 102.458 15.2308C104.857 15.2308 106.801 17.1938 106.801 19.6154Z" fill="#00003C"/>
<path d="M30.9375 20.375V3.62305H41.9775V6.43105H34.1055V10.487H41.0655V13.295H34.1055V17.567H41.9775V20.375H30.9375Z" fill="#00003C"/>
<path d="M16.7629 20.375V17.807H21.3709V5.90305H21.1549L17.5069 10.223L15.5389 8.56705L19.6909 3.62305H24.4669V17.807H28.3069V20.375H16.7629Z" fill="#00003C"/>
<path d="M0 3.62305H6.096C7.184 3.62305 8.168 3.79905 9.048 4.15105C9.944 4.50305 10.704 5.03105 11.328 5.73505C11.968 6.42305 12.456 7.29505 12.792 8.35105C13.144 9.39105 13.32 10.607 13.32 11.999C13.32 13.391 13.144 14.615 12.792 15.671C12.456 16.711 11.968 17.583 11.328 18.287C10.704 18.975 9.944 19.495 9.048 19.847C8.168 20.199 7.184 20.375 6.096 20.375H0V3.62305ZM6.096 17.567C7.28 17.567 8.216 17.223 8.904 16.535C9.608 15.831 9.96 14.759 9.96 13.319V10.679C9.96 9.23905 9.608 8.17505 8.904 7.48705C8.216 6.78305 7.28 6.43105 6.096 6.43105H3.168V17.567H6.096Z" fill="#00003C"/>
</svg>
