<svg xmlns="http://www.w3.org/2000/svg" viewBox="0 0 217.61 64.05"><defs><style>.cls-1{fill:#a7a9ac;}.cls-2{fill:#fff;}</style></defs><g id="Layer_2" data-name="Layer 2"><g id="App_Store" data-name="App Store"><rect x="0.81" y="0.81" width="216" height="62.44" rx="7.38"/><path class="cls-1" d="M209.43,64.05H8.19A8.19,8.19,0,0,1,0,55.86V8.19A8.19,8.19,0,0,1,8.19,0H209.43a8.19,8.19,0,0,1,8.18,8.19V55.86A8.19,8.19,0,0,1,209.43,64.05ZM8.19,1.62A6.57,6.57,0,0,0,1.62,8.19V55.86a6.58,6.58,0,0,0,6.57,6.58H209.43A6.58,6.58,0,0,0,216,55.86V8.19a6.57,6.57,0,0,0-6.57-6.57Z"/><path class="cls-2" d="M72.45,18.21l-.91,3h-2l3.37-10.52h2.45L78.8,21.2H76.74l-.95-3Zm3-1.45-.83-2.59c-.2-.64-.37-1.36-.53-2h0c-.15.6-.31,1.34-.5,2l-.81,2.59Z"/><path class="cls-2" d="M81.67,13.59l1.23,3.86c.22.67.38,1.28.52,1.9h0c.14-.62.31-1.21.51-1.9l1.22-3.86h2l-2.9,7.61H82.42L79.6,13.59Z"/><path class="cls-2" d="M94.87,19.37A10.59,10.59,0,0,0,95,21.2H93.27l-.14-.85h0a2.76,2.76,0,0,1-2.25,1,2.26,2.26,0,0,1-2.39-2.27c0-1.9,1.71-2.88,4.52-2.87v-.12c0-.5-.21-1.33-1.55-1.33a4,4,0,0,0-2,.56L89,14.09a5.52,5.52,0,0,1,2.75-.67c2.43,0,3.13,1.55,3.13,3.22ZM93,17.48c-1.36,0-2.65.27-2.65,1.42A1,1,0,0,0,91.44,20,1.59,1.59,0,0,0,93,19a1.5,1.5,0,0,0,0-.42Z"/><path class="cls-2" d="M98.54,12.5a1,1,0,1,1,1.09-1,1,1,0,0,1-1.09,1Zm-1,8.7V13.59h1.92V21.2Z"/><path class="cls-2" d="M102.27,10.1h1.92V21.2h-1.92Z"/><path class="cls-2" d="M112.87,19.37A10.7,10.7,0,0,0,113,21.2h-1.73l-.14-.85h-.05a2.75,2.75,0,0,1-2.24,1,2.26,2.26,0,0,1-2.39-2.27c0-1.9,1.7-2.88,4.51-2.87v-.12c0-.5-.2-1.33-1.55-1.33a4,4,0,0,0-2,.56L107,14.09a5.55,5.55,0,0,1,2.75-.67c2.44,0,3.14,1.55,3.14,3.22ZM111,17.48c-1.35,0-2.65.27-2.65,1.42A1,1,0,0,0,109.43,20,1.59,1.59,0,0,0,111,19a1.5,1.5,0,0,0,0-.42Z"/><path class="cls-2" d="M115.58,10.1h1.92v4.54h0A2.77,2.77,0,0,1,120,13.42c1.86,0,3.18,1.55,3.17,3.86,0,2.73-1.74,4.09-3.45,4.09a2.63,2.63,0,0,1-2.41-1.31h0l-.09,1.14h-1.64c0-.52.06-1.36.06-2.13Zm1.92,8a2.22,2.22,0,0,0,0,.45,1.75,1.75,0,0,0,1.7,1.34c1.2,0,1.94-1,1.94-2.49,0-1.35-.64-2.44-1.92-2.44a1.8,1.8,0,0,0-1.71,1.41,2.36,2.36,0,0,0-.06.5Z"/><path class="cls-2" d="M125.4,10.1h1.92V21.2H125.4Z"/><path class="cls-2" d="M131.45,17.93a2.07,2.07,0,0,0,2.34,2,6.2,6.2,0,0,0,2.11-.34l.28,1.31a6.82,6.82,0,0,1-2.65.48,3.59,3.59,0,0,1-3.92-3.84c0-2.1,1.28-4.09,3.72-4.09s3.27,2,3.27,3.7a4.86,4.86,0,0,1-.06.81Zm3.34-1.34a1.63,1.63,0,0,0-1.57-1.86,1.89,1.89,0,0,0-1.77,1.86Z"/><path class="cls-2" d="M146.08,21.37a3.68,3.68,0,0,1-3.81-3.92,3.75,3.75,0,0,1,3.93-4A3.65,3.65,0,0,1,150,17.33a3.76,3.76,0,0,1-3.89,4Zm.06-1.39c1.09,0,1.86-1.06,1.86-2.61,0-1.18-.53-2.56-1.85-2.56s-1.9,1.33-1.9,2.59c0,1.47.73,2.58,1.87,2.58Z"/><path class="cls-2" d="M152.24,15.86c0-.88,0-1.61-.06-2.27h1.67l.09,1.14H154a2.79,2.79,0,0,1,2.43-1.31c1.33,0,2.7.86,2.7,3.26V21.2H157.2V16.9c0-1.09-.4-1.92-1.45-1.92a1.63,1.63,0,0,0-1.5,1.13,1.82,1.82,0,0,0-.09.61V21.2h-1.92Z"/><path class="cls-2" d="M168,11.64v1.95h1.83V15H168v3.34c0,.94.25,1.41,1,1.41a2.56,2.56,0,0,0,.75-.08l0,1.45a4.18,4.18,0,0,1-1.39.2,2.2,2.2,0,0,1-1.65-.62,3,3,0,0,1-.61-2.14V15H165V13.59h1.08V12.17Z"/><path class="cls-2" d="M171.93,10.1h1.92v4.52h0a2.52,2.52,0,0,1,1-.85,2.68,2.68,0,0,1,1.32-.35c1.3,0,2.66.86,2.66,3.3V21.2H176.9V16.92c0-1.09-.41-1.94-1.47-1.94a1.6,1.6,0,0,0-1.5,1.08,1.81,1.81,0,0,0-.08.58V21.2h-1.92Z"/><path class="cls-2" d="M182.9,17.93a2.07,2.07,0,0,0,2.35,2,6.14,6.14,0,0,0,2.1-.34l.28,1.31a6.82,6.82,0,0,1-2.65.48,3.59,3.59,0,0,1-3.92-3.84c0-2.1,1.28-4.09,3.72-4.09s3.28,2,3.28,3.7a4.63,4.63,0,0,1-.07.81Zm3.34-1.34a1.63,1.63,0,0,0-1.57-1.86,1.89,1.89,0,0,0-1.77,1.86Z"/><path class="cls-2" d="M48.57,31.4A9.37,9.37,0,0,1,53,23.54a9.59,9.59,0,0,0-7.56-4.08c-3.18-.34-6.26,1.9-7.88,1.9s-4.15-1.87-6.83-1.81a10.06,10.06,0,0,0-8.47,5.16c-3.66,6.34-.93,15.65,2.58,20.78,1.76,2.51,3.81,5.31,6.49,5.21S35,49,38.13,49s4.07,1.67,6.8,1.61,4.59-2.53,6.29-5.06a20.37,20.37,0,0,0,2.87-5.85,9,9,0,0,1-5.52-8.33"/><path class="cls-2" d="M43.39,16.09A9.14,9.14,0,0,0,45.5,9.48a9.4,9.4,0,0,0-6.07,3.14A8.78,8.78,0,0,0,37.27,19a7.7,7.7,0,0,0,6.12-2.89"/><path class="cls-2" d="M86.51,50.28H82.85l-2-6.29h-7L72,50.28H68.41l6.91-21.43h4.26Zm-6.26-8.94-1.81-5.59c-.2-.57-.56-1.92-1.09-4h-.06c-.21.91-.55,2.26-1,4l-1.78,5.59Z"/><path class="cls-2" d="M104.26,42.36a8.81,8.81,0,0,1-2.13,6.24,6.26,6.26,0,0,1-4.74,2A4.74,4.74,0,0,1,93,48.44h-.06v8.14H89.5V39.91c0-1.65,0-3.34-.13-5.08h3l.2,2.45h.06a6.11,6.11,0,0,1,9.78-.61,8.53,8.53,0,0,1,1.83,5.69m-3.5.13a6.33,6.33,0,0,0-1-3.72,3.51,3.51,0,0,0-3-1.53,3.55,3.55,0,0,0-2.3.84A3.91,3.91,0,0,0,93.1,40.3a4.25,4.25,0,0,0-.16,1v2.58a4.13,4.13,0,0,0,1,2.85,3.45,3.45,0,0,0,2.69,1.16,3.51,3.51,0,0,0,3-1.5,6.57,6.57,0,0,0,1.08-3.94"/><path class="cls-2" d="M122,42.36a8.77,8.77,0,0,1-2.14,6.24,6.22,6.22,0,0,1-4.73,2,4.74,4.74,0,0,1-4.39-2.19h-.06v8.14h-3.44V39.91c0-1.65,0-3.34-.12-5.08h3l.2,2.45h.06a6.11,6.11,0,0,1,9.78-.61A8.53,8.53,0,0,1,122,42.36m-3.5.13a6.33,6.33,0,0,0-1-3.72,3.64,3.64,0,0,0-5.29-.69,3.91,3.91,0,0,0-1.35,2.22,4.25,4.25,0,0,0-.16,1v2.58a4.13,4.13,0,0,0,1,2.85,3.44,3.44,0,0,0,2.69,1.16,3.51,3.51,0,0,0,3-1.5,6.57,6.57,0,0,0,1.08-3.94"/><path class="cls-2" d="M141.92,44.27A5.68,5.68,0,0,1,140,48.72a8.4,8.4,0,0,1-5.84,1.88,10.22,10.22,0,0,1-5.55-1.33l.79-2.87a9.37,9.37,0,0,0,5,1.37,4.7,4.7,0,0,0,3-.87,2.88,2.88,0,0,0,1.08-2.35,2.94,2.94,0,0,0-.89-2.19,8.18,8.18,0,0,0-3-1.66Q129,38.6,129,34.55a5.43,5.43,0,0,1,2-4.33,7.75,7.75,0,0,1,5.24-1.69,10.37,10.37,0,0,1,4.87,1l-.86,2.79a8.51,8.51,0,0,0-4.1-1,4.12,4.12,0,0,0-2.83.89,2.56,2.56,0,0,0-.86,1.94,2.63,2.63,0,0,0,1,2.1,11,11,0,0,0,3.12,1.65,10.56,10.56,0,0,1,4.07,2.61,5.47,5.47,0,0,1,1.31,3.72"/><path class="cls-2" d="M153.27,37.4h-3.78v7.51c0,1.91.66,2.86,2,2.86a6,6,0,0,0,1.53-.16l.09,2.61a7.84,7.84,0,0,1-2.67.38,4.09,4.09,0,0,1-3.18-1.24,6.11,6.11,0,0,1-1.15-4.17V37.4h-2.25V34.82h2.25V32l3.38-1v3.84h3.78Z"/><path class="cls-2" d="M170.35,42.43a8.52,8.52,0,0,1-2,5.85,7.28,7.28,0,0,1-5.66,2.35,6.9,6.9,0,0,1-5.43-2.26,8.23,8.23,0,0,1-2-5.69,8.38,8.38,0,0,1,2.09-5.88,7.17,7.17,0,0,1,5.61-2.29,7,7,0,0,1,5.47,2.26,8.12,8.12,0,0,1,2,5.66m-3.56.11a7,7,0,0,0-.92-3.67A3.4,3.4,0,0,0,162.78,37a3.45,3.45,0,0,0-3.15,1.85,7.14,7.14,0,0,0-.92,3.73,7,7,0,0,0,.92,3.67,3.47,3.47,0,0,0,3.12,1.85,3.43,3.43,0,0,0,3.08-1.88,6.94,6.94,0,0,0,1-3.7"/><path class="cls-2" d="M181.51,37.85a5.29,5.29,0,0,0-1.08-.1,3.27,3.27,0,0,0-2.8,1.37,5.16,5.16,0,0,0-.85,3.05v8.11h-3.44l0-10.59q0-2.67-.12-4.86h3l.12,3h.1a5.27,5.27,0,0,1,1.71-2.44,4.14,4.14,0,0,1,2.49-.83,5.48,5.48,0,0,1,.85.06Z"/><path class="cls-2" d="M196.87,41.82a8.52,8.52,0,0,1-.12,1.56h-10.3a4.5,4.5,0,0,0,1.49,3.5A5.1,5.1,0,0,0,191.31,48a11.38,11.38,0,0,0,4.17-.73l.54,2.39a13,13,0,0,1-5.19,1,7.49,7.49,0,0,1-5.64-2.12,7.77,7.77,0,0,1-2.05-5.67A8.86,8.86,0,0,1,185.05,37a6.57,6.57,0,0,1,5.4-2.47A5.75,5.75,0,0,1,195.51,37a8.37,8.37,0,0,1,1.36,4.87m-3.27-.89a4.66,4.66,0,0,0-.67-2.64,3,3,0,0,0-2.73-1.43,3.27,3.27,0,0,0-2.74,1.4,5.08,5.08,0,0,0-1,2.67Z"/></g></g></svg>