<svg width="327" height="328" viewBox="0 0 327 328" fill="none" xmlns="http://www.w3.org/2000/svg">
<path d="M4 0H0V327H4V0Z" fill="#00003C"/>
<path d="M12 0H7V327H12V0Z" fill="#00003C"/>
<path d="M319 0H314V327H319V0Z" fill="#00003C"/>
<path d="M327 0H324V327H327V0Z" fill="#00003C"/>
<path d="M38 0H34V327H38V0Z" fill="#00003C"/>
<path d="M47 0H44V327H47V0Z" fill="#00003C"/>
<path d="M94 0H91V306H94V0Z" fill="#00003C"/>
<path d="M120 0H115V306H120V0Z" fill="#00003C"/>
<path d="M81 0H77V306H81V0Z" fill="#00003C"/>
<path d="M160 0H157V306H160V0Z" fill="#00003C"/>
<path d="M148 0H145V306H148V0Z" fill="#00003C"/>
<path d="M202 0H199V306H202V0Z" fill="#00003C"/>
<path d="M191 0H188V306H191V0Z" fill="#00003C"/>
<path d="M215 0H212V306H215V0Z" fill="#00003C"/>
<path d="M28 0H20V327H28V0Z" fill="#00003C"/>
<path d="M67 0H58V327H67V0Z" fill="#00003C"/>
<path d="M108 0H100V306H108V0Z" fill="#00003C"/>
<path d="M136 0H127V306H136V0Z" fill="#00003C"/>
<path d="M260 0H255V327H260V0Z" fill="#00003C"/>
<path d="M288 0H284V327H288V0Z" fill="#00003C"/>
<path d="M308 0H304V327H308V0Z" fill="#00003C"/>
<path d="M297 0H292V327H297V0Z" fill="#00003C"/>
<path d="M248 0H245V306H248V0Z" fill="#00003C"/>
<path d="M236 0H226V306H236V0Z" fill="#00003C"/>
<path d="M274 0H269V327H274V0Z" fill="#00003C"/>
<path d="M178 0H171V306H178V0Z" fill="#00003C"/>
<path d="M88 322.797C88 322.071 88.0692 321.415 88.21 320.826C88.3484 320.236 88.5584 319.733 88.8353 319.313C89.1121 318.895 89.4557 318.57 89.8638 318.344C90.2743 318.117 90.7468 318.002 91.2814 318.002C91.8207 318.002 92.298 318.117 92.7132 318.344C93.1261 318.57 93.4745 318.895 93.7561 319.313C94.0377 319.73 94.2501 320.236 94.3933 320.826C94.5364 321.415 94.6104 322.071 94.6104 322.797C94.6104 323.527 94.5388 324.179 94.3933 324.754C94.2501 325.329 94.0353 325.818 93.7561 326.219C93.4745 326.62 93.1261 326.925 92.7132 327.138C92.298 327.35 91.8231 327.455 91.2814 327.455C90.7468 327.455 90.2719 327.35 89.8638 327.138C89.4533 326.925 89.1121 326.62 88.8353 326.219C88.5584 325.818 88.3508 325.331 88.21 324.754C88.0692 324.179 88 323.525 88 322.797ZM88.9188 322.797C88.9188 323.391 88.9665 323.928 89.0644 324.41C89.1622 324.892 89.3078 325.303 89.5035 325.646C89.6991 325.987 89.9449 326.252 90.2433 326.436C90.5416 326.62 90.8876 326.713 91.2837 326.713C91.6703 326.713 92.014 326.62 92.3123 326.436C92.6106 326.252 92.8636 325.987 93.0688 325.646C93.274 325.305 93.4291 324.892 93.5341 324.41C93.6391 323.928 93.6917 323.391 93.6917 322.797C93.6917 322.203 93.6391 321.658 93.5341 321.162C93.4291 320.668 93.274 320.241 93.0688 319.883C92.8636 319.525 92.613 319.246 92.3123 319.045C92.014 318.845 91.6703 318.745 91.2837 318.745C90.8876 318.745 90.5416 318.845 90.2433 319.045C89.9473 319.246 89.6991 319.525 89.5035 319.883C89.3078 320.241 89.1622 320.668 89.0644 321.162C88.9665 321.658 88.9188 322.203 88.9188 322.797Z" fill="#00003C"/>
<path d="M107.669 327.319V326.577H110.031V319.083L107.635 319.637V318.895L110.444 318.138H110.95V326.577H113.198V327.319H107.669Z" fill="#00003C"/>
<path d="M123.398 326.577V327.319H117.425V327.076C117.425 326.446 117.487 325.906 117.611 325.458C117.735 325.009 117.926 324.615 118.188 324.274C118.449 323.933 118.783 323.625 119.188 323.353C119.594 323.081 120.076 322.804 120.632 322.525C120.93 322.372 121.183 322.212 121.396 322.05C121.608 321.885 121.778 321.716 121.909 321.539C122.04 321.362 122.136 321.184 122.195 320.995C122.255 320.809 122.286 320.616 122.286 320.417C122.286 320.169 122.238 319.943 122.14 319.735C122.042 319.527 121.906 319.351 121.732 319.205C121.556 319.06 121.343 318.945 121.09 318.864C120.837 318.783 120.558 318.742 120.245 318.742C119.993 318.742 119.751 318.764 119.522 318.807C119.293 318.85 119.071 318.907 118.857 318.978C118.642 319.05 118.439 319.134 118.243 319.229C118.048 319.324 117.857 319.422 117.673 319.525L117.336 318.89C117.48 318.795 117.656 318.697 117.864 318.594C118.071 318.492 118.298 318.396 118.549 318.308C118.799 318.22 119.067 318.148 119.355 318.088C119.644 318.029 119.94 318 120.245 318C120.697 318 121.102 318.057 121.467 318.172C121.832 318.286 122.143 318.451 122.398 318.666C122.653 318.881 122.851 319.138 122.992 319.441C123.131 319.744 123.202 320.088 123.202 320.47C123.202 320.816 123.138 321.126 123.009 321.398C122.88 321.67 122.711 321.914 122.498 322.131C122.286 322.348 122.042 322.544 121.763 322.723C121.484 322.902 121.195 323.069 120.899 323.226C120.522 323.429 120.176 323.634 119.866 323.844C119.556 324.054 119.289 324.288 119.067 324.546C118.845 324.804 118.67 325.1 118.546 325.427C118.422 325.756 118.353 326.138 118.341 326.574H123.398V326.577Z" fill="#00003C"/>
<path d="M133.29 320.542C133.29 321.033 133.156 321.456 132.891 321.811C132.626 322.167 132.242 322.434 131.743 322.615C132.342 322.794 132.803 323.078 133.125 323.463C133.447 323.847 133.607 324.31 133.607 324.849C133.607 325.236 133.526 325.589 133.369 325.909C133.209 326.228 132.977 326.503 132.677 326.732C132.376 326.961 132.006 327.14 131.574 327.264C131.14 327.391 130.65 327.453 130.106 327.453C129.863 327.453 129.617 327.438 129.367 327.412C129.116 327.386 128.877 327.345 128.648 327.29C128.419 327.236 128.204 327.171 128.006 327.095C127.808 327.018 127.634 326.93 127.486 326.832L127.851 326.238C128.018 326.305 128.185 326.369 128.35 326.427C128.517 326.486 128.686 326.534 128.863 326.574C129.04 326.615 129.223 326.648 129.419 326.672C129.615 326.696 129.825 326.71 130.052 326.71C130.433 326.71 130.787 326.672 131.111 326.598C131.436 326.524 131.715 326.412 131.949 326.259C132.183 326.109 132.364 325.918 132.495 325.689C132.626 325.46 132.691 325.193 132.691 324.885C132.691 324.56 132.629 324.281 132.505 324.045C132.381 323.809 132.209 323.613 131.985 323.458C131.763 323.303 131.498 323.186 131.195 323.109C130.892 323.033 130.56 322.995 130.199 322.995H128.97V322.253H130.199C130.514 322.253 130.806 322.217 131.073 322.148C131.34 322.078 131.569 321.971 131.763 321.828C131.953 321.685 132.104 321.501 132.211 321.281C132.319 321.062 132.374 320.799 132.374 320.499C132.374 320.184 132.314 319.914 132.195 319.692C132.075 319.47 131.911 319.286 131.701 319.145C131.491 319.005 131.242 318.902 130.954 318.838C130.665 318.776 130.352 318.742 130.016 318.742C129.803 318.742 129.608 318.754 129.429 318.78C129.25 318.804 129.075 318.84 128.913 318.888C128.749 318.935 128.589 318.99 128.433 319.052C128.278 319.114 128.123 319.184 127.971 319.255L127.565 318.661C127.708 318.558 127.88 318.465 128.08 318.382C128.281 318.298 128.496 318.229 128.725 318.172C128.954 318.115 129.192 318.074 129.436 318.043C129.682 318.014 129.918 318 130.147 318C130.641 318 131.085 318.06 131.474 318.177C131.863 318.294 132.192 318.461 132.459 318.68C132.727 318.9 132.932 319.165 133.073 319.477C133.221 319.792 133.29 320.145 133.29 320.542Z" fill="#00003C"/>
<path d="M143.115 325.2V327.319H142.196V325.2H137.302V324.687L141.967 318.138H143.115V324.458H144.587V325.2H143.115ZM142.196 324.458V319.157L138.476 324.458H142.196Z" fill="#00003C"/>
<path d="M154.405 324.484C154.405 324.926 154.333 325.329 154.193 325.692C154.052 326.057 153.837 326.369 153.551 326.63C153.264 326.89 152.906 327.092 152.477 327.238C152.047 327.381 151.546 327.455 150.976 327.455C150.692 327.455 150.415 327.439 150.145 327.407C149.876 327.376 149.62 327.334 149.382 327.279C149.143 327.224 148.923 327.162 148.723 327.092C148.522 327.023 148.353 326.949 148.212 326.873L148.522 326.198C148.675 326.274 148.833 326.343 148.993 326.403C149.152 326.462 149.327 326.517 149.513 326.565C149.699 326.613 149.904 326.649 150.126 326.672C150.348 326.696 150.599 326.711 150.873 326.711C151.732 326.711 152.384 326.529 152.825 326.167C153.267 325.804 153.486 325.243 153.486 324.482C153.486 324.136 153.419 323.835 153.288 323.58C153.154 323.324 152.971 323.114 152.737 322.947C152.503 322.78 152.229 322.656 151.916 322.575C151.603 322.494 151.264 322.453 150.899 322.453C150.553 322.453 150.21 322.479 149.866 322.534C149.525 322.589 149.219 322.673 148.954 322.792L148.238 322.522L148.969 318.134H153.904V318.876H149.63L149.098 321.947C149.367 321.871 149.677 321.811 150.026 321.771C150.374 321.73 150.775 321.711 151.224 321.711C151.711 321.711 152.15 321.778 152.541 321.909C152.933 322.043 153.267 322.229 153.543 322.472C153.82 322.716 154.033 323.007 154.181 323.346C154.331 323.694 154.405 324.071 154.405 324.484Z" fill="#00003C"/>
<path d="M176.613 321.568C177.141 321.568 177.594 321.635 177.974 321.771C178.353 321.907 178.666 322.098 178.909 322.348C179.153 322.599 179.332 322.897 179.448 323.245C179.565 323.594 179.625 323.98 179.625 324.403C179.625 324.778 179.556 325.145 179.42 325.505C179.281 325.868 179.081 326.195 178.811 326.484C178.544 326.775 178.215 327.009 177.823 327.185C177.432 327.364 176.981 327.453 176.473 327.453C175.893 327.453 175.384 327.348 174.95 327.138C174.516 326.928 174.153 326.632 173.859 326.248C173.566 325.863 173.346 325.4 173.201 324.861C173.055 324.322 172.981 323.723 172.981 323.066C172.981 322.3 173.07 321.606 173.244 320.983C173.42 320.36 173.676 319.828 174.01 319.387C174.346 318.945 174.757 318.604 175.246 318.363C175.735 318.122 176.291 318.002 176.916 318.002C177.177 318.002 177.413 318.014 177.625 318.036C177.838 318.057 178.029 318.091 178.203 318.131C178.377 318.172 178.534 318.22 178.678 318.272C178.821 318.327 178.957 318.384 179.083 318.449L178.799 319.098C178.53 318.981 178.25 318.893 177.962 318.835C177.673 318.776 177.351 318.747 176.998 318.747C176.539 318.747 176.122 318.826 175.749 318.986C175.375 319.146 175.055 319.394 174.783 319.733C174.513 320.069 174.301 320.501 174.148 321.021C173.995 321.544 173.912 322.164 173.898 322.885C174.06 322.668 174.244 322.479 174.451 322.317C174.659 322.155 174.881 322.019 175.117 321.904C175.353 321.792 175.597 321.709 175.85 321.651C176.103 321.596 176.356 321.568 176.613 321.568ZM176.702 322.31C176.477 322.31 176.241 322.331 175.995 322.37C175.749 322.41 175.506 322.482 175.263 322.582C175.019 322.682 174.783 322.818 174.551 322.988C174.32 323.157 174.108 323.37 173.914 323.625C173.981 324.692 174.246 325.472 174.704 325.968C175.162 326.465 175.807 326.711 176.635 326.711C176.971 326.711 177.27 326.646 177.53 326.517C177.787 326.388 178.005 326.219 178.179 326.004C178.353 325.789 178.484 325.548 178.575 325.274C178.666 325.002 178.711 324.72 178.711 324.427C178.711 324.128 178.673 323.852 178.599 323.594C178.525 323.336 178.406 323.109 178.243 322.918C178.081 322.728 177.873 322.577 177.618 322.47C177.36 322.365 177.057 322.31 176.702 322.31Z" fill="#00003C"/>
<path d="M189.791 318.138V318.895L185.916 327.321H184.971L188.825 318.95H183.269V318.141H189.791V318.138Z" fill="#00003C"/>
<path d="M193.521 324.849C193.521 324.589 193.564 324.343 193.65 324.114C193.736 323.885 193.86 323.673 194.022 323.479C194.185 323.286 194.38 323.117 194.614 322.969C194.846 322.823 195.108 322.704 195.402 322.613C194.905 322.441 194.524 322.181 194.254 321.83C193.984 321.479 193.848 321.045 193.848 320.527C193.848 320.131 193.917 319.778 194.058 319.463C194.197 319.15 194.397 318.885 194.655 318.671C194.913 318.453 195.228 318.289 195.597 318.174C195.967 318.06 196.383 318.002 196.846 318.002C197.309 318.002 197.731 318.06 198.11 318.174C198.49 318.289 198.817 318.453 199.089 318.671C199.361 318.888 199.573 319.15 199.724 319.463C199.874 319.776 199.95 320.131 199.95 320.527C199.95 321.045 199.805 321.479 199.511 321.83C199.218 322.181 198.819 322.441 198.308 322.613C198.607 322.704 198.874 322.821 199.115 322.969C199.356 323.114 199.559 323.286 199.726 323.479C199.893 323.673 200.02 323.885 200.11 324.114C200.201 324.343 200.246 324.589 200.246 324.849C200.246 325.267 200.165 325.639 200 325.964C199.836 326.288 199.604 326.56 199.308 326.78C199.01 326.999 198.654 327.169 198.234 327.283C197.817 327.398 197.351 327.455 196.843 327.455C196.34 327.455 195.884 327.398 195.476 327.283C195.068 327.169 194.719 327.002 194.43 326.78C194.139 326.56 193.915 326.286 193.76 325.964C193.6 325.639 193.521 325.267 193.521 324.849ZM194.438 324.849C194.438 325.15 194.497 325.417 194.614 325.649C194.731 325.88 194.896 326.076 195.106 326.233C195.318 326.391 195.571 326.51 195.865 326.591C196.161 326.672 196.485 326.713 196.841 326.713C197.196 326.713 197.526 326.672 197.829 326.591C198.132 326.51 198.394 326.391 198.616 326.233C198.836 326.076 199.01 325.88 199.137 325.649C199.263 325.417 199.325 325.15 199.325 324.849C199.325 324.584 199.263 324.336 199.137 324.109C199.01 323.883 198.838 323.685 198.616 323.517C198.397 323.35 198.134 323.219 197.829 323.126C197.526 323.031 197.196 322.985 196.841 322.985C196.485 322.985 196.161 323.031 195.865 323.124C195.569 323.217 195.316 323.346 195.106 323.513C194.893 323.68 194.731 323.875 194.614 324.105C194.497 324.331 194.438 324.579 194.438 324.849ZM194.762 320.527C194.762 320.802 194.812 321.045 194.91 321.255C195.01 321.468 195.149 321.647 195.333 321.792C195.514 321.938 195.733 322.05 195.991 322.126C196.249 322.203 196.531 322.241 196.841 322.241C197.146 322.241 197.433 322.203 197.702 322.126C197.97 322.05 198.201 321.938 198.397 321.792C198.592 321.647 198.748 321.468 198.86 321.255C198.972 321.043 199.029 320.802 199.029 320.527C199.029 320.243 198.972 319.993 198.86 319.771C198.748 319.551 198.592 319.363 198.397 319.21C198.201 319.057 197.97 318.94 197.702 318.862C197.435 318.783 197.146 318.742 196.841 318.742C196.531 318.742 196.247 318.783 195.991 318.862C195.733 318.94 195.516 319.057 195.333 319.21C195.151 319.363 195.01 319.549 194.91 319.771C194.812 319.993 194.762 320.246 194.762 320.527Z" fill="#00003C"/>
<path d="M206.821 323.823C206.394 323.823 206.002 323.751 205.649 323.606C205.296 323.463 204.993 323.262 204.742 323.009C204.489 322.754 204.294 322.456 204.15 322.107C204.01 321.761 203.938 321.386 203.938 320.985C203.938 320.616 204.01 320.255 204.15 319.9C204.291 319.544 204.499 319.227 204.768 318.945C205.038 318.663 205.37 318.437 205.761 318.263C206.153 318.088 206.599 318.002 207.098 318.002C207.627 318.002 208.1 318.091 208.513 318.27C208.926 318.449 209.269 318.726 209.548 319.103C209.828 319.482 210.04 319.964 210.186 320.554C210.331 321.143 210.405 321.849 210.405 322.673C210.405 323.393 210.322 324.047 210.155 324.634C209.988 325.221 209.751 325.725 209.443 326.143C209.136 326.56 208.761 326.885 208.319 327.111C207.878 327.338 207.384 327.453 206.835 327.453C206.546 327.453 206.291 327.441 206.069 327.419C205.847 327.398 205.644 327.364 205.461 327.324C205.279 327.283 205.112 327.236 204.964 327.183C204.816 327.128 204.673 327.071 204.539 327.006L204.768 326.319C205.052 326.441 205.358 326.536 205.687 326.606C206.017 326.675 206.377 326.711 206.773 326.711C207.16 326.711 207.518 326.634 207.847 326.481C208.176 326.329 208.46 326.09 208.701 325.77C208.942 325.448 209.131 325.04 209.269 324.541C209.408 324.045 209.479 323.451 209.489 322.763C209.169 323.109 208.78 323.374 208.322 323.553C207.861 323.732 207.363 323.823 206.821 323.823ZM206.713 323.081C206.957 323.081 207.2 323.062 207.446 323.026C207.692 322.99 207.933 322.926 208.169 322.833C208.405 322.74 208.632 322.615 208.852 322.46C209.069 322.305 209.274 322.107 209.463 321.868C209.422 321.234 209.334 320.713 209.2 320.31C209.064 319.904 208.887 319.587 208.666 319.356C208.446 319.124 208.186 318.964 207.885 318.876C207.587 318.788 207.255 318.745 206.89 318.745C206.561 318.745 206.272 318.807 206.019 318.931C205.766 319.055 205.554 319.222 205.382 319.43C205.208 319.64 205.079 319.881 204.99 320.153C204.902 320.425 204.859 320.706 204.859 321C204.859 321.293 204.895 321.565 204.964 321.816C205.033 322.069 205.143 322.288 205.291 322.475C205.439 322.661 205.63 322.809 205.864 322.916C206.098 323.026 206.379 323.081 206.713 323.081Z" fill="#00003C"/>
<path d="M215.269 327.319V326.577H217.631V319.083L215.235 319.637V318.895L218.044 318.138H218.55V326.577H220.798V327.319H215.269Z" fill="#00003C"/>
<path d="M231 326.577V327.319H225.024V327.076C225.024 326.446 225.086 325.906 225.21 325.458C225.335 325.009 225.525 324.615 225.788 324.274C226.048 323.933 226.382 323.625 226.788 323.353C227.194 323.081 227.673 322.804 228.232 322.525C228.53 322.372 228.783 322.212 228.995 322.05C229.208 321.885 229.377 321.716 229.508 321.539C229.64 321.362 229.735 321.184 229.795 320.995C229.854 320.809 229.885 320.616 229.885 320.417C229.885 320.169 229.838 319.943 229.74 319.735C229.642 319.527 229.506 319.351 229.332 319.205C229.155 319.06 228.943 318.945 228.69 318.864C228.437 318.783 228.155 318.742 227.845 318.742C227.592 318.742 227.351 318.764 227.122 318.807C226.893 318.85 226.671 318.907 226.456 318.978C226.241 319.05 226.039 319.134 225.843 319.229C225.647 319.324 225.456 319.422 225.272 319.525L224.934 318.89C225.077 318.795 225.253 318.697 225.461 318.594C225.669 318.492 225.895 318.396 226.146 318.308C226.396 318.22 226.664 318.148 226.953 318.088C227.241 318.029 227.537 318 227.843 318C228.294 318 228.699 318.057 229.065 318.172C229.43 318.286 229.74 318.451 229.995 318.666C230.251 318.881 230.449 319.138 230.589 319.441C230.728 319.744 230.799 320.088 230.799 320.47C230.799 320.816 230.735 321.126 230.606 321.398C230.477 321.67 230.308 321.914 230.095 322.131C229.883 322.348 229.64 322.544 229.36 322.723C229.081 322.902 228.792 323.069 228.497 323.226C228.119 323.429 227.773 323.634 227.463 323.844C227.153 324.054 226.886 324.288 226.664 324.546C226.442 324.804 226.268 325.1 226.144 325.427C226.019 325.756 225.95 326.138 225.938 326.574H231V326.577Z" fill="#00003C"/>
</svg>
